<svg xmlns="http://www.w3.org/2000/svg" width="45.98" height="45.97" viewBox="0 0 45.98 45.97">
  <path id="Icon_awesome-instagram" data-name="Icon awesome-instagram" d="M22.99,13.437A11.786,11.786,0,1,0,34.776,25.223,11.767,11.767,0,0,0,22.99,13.437Zm0,19.449a7.663,7.663,0,1,1,7.663-7.663,7.676,7.676,0,0,1-7.663,7.663ZM38.007,12.954a2.749,2.749,0,1,1-2.749-2.749A2.743,2.743,0,0,1,38.007,12.954Zm7.806,2.79C45.639,12.062,44.8,8.8,42.1,6.113S36.151,2.584,32.468,2.4c-3.8-.215-15.171-.215-18.967,0C9.829,2.574,6.567,3.415,3.87,6.1S.341,12.052.156,15.734c-.215,3.8-.215,15.171,0,18.967.174,3.683,1.016,6.944,3.713,9.632s5.949,3.529,9.632,3.713c3.8.215,15.171.215,18.967,0,3.683-.174,6.944-1.016,9.632-3.713s3.529-5.949,3.713-9.632c.215-3.8.215-15.161,0-18.956Zm-4.9,23.029a7.758,7.758,0,0,1-4.37,4.37c-3.026,1.2-10.206.923-13.55.923s-10.535.267-13.55-.923a7.758,7.758,0,0,1-4.37-4.37c-1.2-3.026-.923-10.206-.923-13.55s-.267-10.535.923-13.55A7.758,7.758,0,0,1,9.44,7.3c3.026-1.2,10.206-.923,13.55-.923s10.535-.267,13.55.923a7.758,7.758,0,0,1,4.37,4.37c1.2,3.026.923,10.206.923,13.55S42.11,35.757,40.91,38.773Z" transform="translate(0.005 -2.238)" fill="rgba(255,255,255,0.8)"/>
</svg>
