<svg xmlns="http://www.w3.org/2000/svg" width="47.18" height="38.319" viewBox="0 0 47.18 38.319">
  <path id="Icon_awesome-twitter" data-name="Icon awesome-twitter" d="M42.33,12.931c.03.419.03.838.03,1.257,0,12.783-9.729,27.512-27.512,27.512A27.325,27.325,0,0,1,0,37.359a20,20,0,0,0,2.335.12,19.365,19.365,0,0,0,12-4.131A9.687,9.687,0,0,1,5.3,26.642a12.194,12.194,0,0,0,1.826.15,10.227,10.227,0,0,0,2.545-.329,9.671,9.671,0,0,1-7.754-9.49v-.12A9.738,9.738,0,0,0,6.287,18.08,9.684,9.684,0,0,1,3.293,5.147,27.485,27.485,0,0,0,23.231,15.266a10.916,10.916,0,0,1-.239-2.215A9.679,9.679,0,0,1,39.726,6.434,19.038,19.038,0,0,0,45.863,4.1a9.643,9.643,0,0,1-4.251,5.329,19.385,19.385,0,0,0,5.568-1.5,20.786,20.786,0,0,1-4.85,5Z" transform="translate(0 -3.381)" fill="rgba(255,255,255,0.8)"/>
</svg>
