<svg xmlns="http://www.w3.org/2000/svg" width="51.233" height="36.023" viewBox="0 0 51.233 36.023">
  <path id="Icon_awesome-youtube" data-name="Icon awesome-youtube" d="M51.213,10.136a6.438,6.438,0,0,0-4.53-4.559C42.688,4.5,26.667,4.5,26.667,4.5S10.646,4.5,6.65,5.578a6.438,6.438,0,0,0-4.53,4.559C1.05,14.158,1.05,22.548,1.05,22.548s0,8.39,1.071,12.412a6.342,6.342,0,0,0,4.53,4.486c4,1.078,20.017,1.078,20.017,1.078s16.021,0,20.017-1.078a6.342,6.342,0,0,0,4.53-4.486c1.071-4.021,1.071-12.412,1.071-12.412s0-8.39-1.071-12.412ZM21.427,30.166V14.93l13.39,7.618-13.39,7.618Z" transform="translate(-1.05 -4.5)" fill="rgba(255,255,255,0.8)"/>
</svg>
