<svg xmlns="http://www.w3.org/2000/svg" viewBox="0 0 122.79 71.53"><defs><style>.cls-1{fill:#fff;}</style></defs><title>2UsersWhite</title><g id="Layer_2" data-name="Layer 2"><g id="DESIGNED_BY_FREEPIK" data-name="DESIGNED BY FREEPIK"><g id="Layer_1-2" data-name="Layer 1-2"><path class="cls-1" d="M121.37,61.25a15.19,15.19,0,0,0-5.59-7.92C110.55,49.85,104.45,48,98.55,46a23.37,23.37,0,0,1-4.17-1.81,4.88,4.88,0,0,1-1.87-3.35,16.77,16.77,0,0,1-.23-2C96.56,33,99.4,23.43,99.4,15.6,99.4,3.41,92.49,0,84,0S68.56,3.4,68.56,15.62c0,8.11,3,18.06,7.57,23.84A7.9,7.9,0,0,1,76,40.82a4.78,4.78,0,0,1-1.87,3.32,22.8,22.8,0,0,1-4.17,1.77c-5.9,2-12,3.73-17.23,7.21C50,54.91,48.12,58.2,47.1,61.25a33.12,33.12,0,0,0-1.41,10.28h77.09A33.12,33.12,0,0,0,121.37,61.25Z"/><path class="cls-1" d="M75.69,61.25a15.23,15.23,0,0,0-5.58-7.92C64.87,49.85,58.77,48,52.87,46a23.37,23.37,0,0,1-4.17-1.81,4.91,4.91,0,0,1-1.86-3.35,16.77,16.77,0,0,1-.23-2C50.89,33,53.72,23.43,53.72,15.6,53.72,3.41,46.82,0,38.3,0S22.88,3.4,22.88,15.62c0,8.11,3,18.06,7.58,23.84a7.92,7.92,0,0,1-.18,1.36,4.77,4.77,0,0,1-1.86,3.32,22.6,22.6,0,0,1-4.18,1.77c-5.89,2-12,3.73-17.23,7.21-2.72,1.79-4.57,5.08-5.58,8.13A32.54,32.54,0,0,0,0,71.53H77.1A32.54,32.54,0,0,0,75.69,61.25Z"/></g></g></g></svg>