<?xml version="1.0" encoding="utf-8"?>
<!-- Generator: Adobe Illustrator 19.2.0, SVG Export Plug-In . SVG Version: 6.00 Build 0)  -->
<svg version="1.1" id="Layer_1" xmlns="http://www.w3.org/2000/svg" xmlns:xlink="http://www.w3.org/1999/xlink" x="0px" y="0px"
	 viewBox="0 0 1920 1080" style="enable-background:new 0 0 1920 1080;" xml:space="preserve">
<style type="text/css">
	.st0{fill:#405A7F;}
	.st1{fill:#4D4D4D;}
	.st2{fill:#A06D42;}
	.st3{fill:#754C24;}
	.st4{fill:#BF844F;}
	.st5{fill:#603813;}
	.st6{fill:#8C6239;}
	.st7{fill:#333333;}
	.st8{fill:none;stroke:#8C6239;stroke-width:4.0717;stroke-linecap:round;stroke-miterlimit:10;}
	.st9{fill:none;stroke:#333333;stroke-width:3.5942;stroke-linecap:round;stroke-miterlimit:10;}
	.st10{fill:#FFFFFF;}
</style>
<g>
	<path class="st0" d="M1035.9,583.3h-152l-1.4-152c0-17.5,17.6-57,44.2-57h63.5c30,0,44.2,35.9,44.2,53.3L1035.9,583.3z"/>
	<path class="st1" d="M960.5,659.3h-1.3c-41.6,0-75.4-34.2-75.4-75.8v-0.2h152v0.2C1035.8,625.1,1002.1,659.3,960.5,659.3z"/>
	<path class="st2" d="M982.8,370.8c0,13.4-10.9,24.5-24.3,24.5h0h-0.2c-13.4,0-24.5-11.1-24.5-24.5v-21.5h49V370.8z"/>
	<path class="st0" d="M834,614.2l1.9,0.5c9.3,2.6,19.5-4.9,22.7-16.8l73.5-195.6c3.3-11.8,1.9-24.2-7.4-26.8l-1.9-0.5
		c-13.5-3.6-40.4,11.9-64.2,87.7L823,588.2C819.8,600,824.7,611.6,834,614.2z"/>
	<path class="st3" d="M935.4,925.3l0,41l-80.8,0.4c0,0,3-18.4,22.9-21.9c19.8-3.6,36.6,7.8,36.6,7.8l2.1-27.3H935.4z"/>
	<rect x="904.8" y="583.3" class="st1" width="41" height="342"/>
	<path class="st3" d="M983.5,925.3l0,41l80.8,0.4c0,0-3-18.4-22.9-21.9c-19.8-3.6-36.6,7.8-36.6,7.8l-2.1-27.3H983.5z"/>
	
		<rect x="972.8" y="583.3" transform="matrix(-1 -1.224647e-16 1.224647e-16 -1 1986.5416 1508.5365)" class="st1" width="41" height="342"/>
	<path class="st4" d="M859.8,625.6c-1.5-8.8-2.4-20.4-2.7-25.3c-0.1-1.4-1.1-2.6-2.5-2.9l-27.6-5.6c-1.4-0.3-2.9,0.4-3.5,1.8
		c-5.7,12.4-10.8,22.4-10.5,43.2c0.5,29.8,8.8,34.5,14.2,33.3c3.3-0.7,3.4-5.3,3-8.8c2.5,7.2,10.5,4.6,10.5-3.2
		c1.4,0.1,8.7,0.2,7.3-10.5c-0.6-4.9-0.5-15.4,0.7-20.6c0.2,1.2,0.4,2.4,0.6,3.7C850.9,639.4,861.7,637,859.8,625.6z"/>
	<path class="st0" d="M1086,614.2l-1.9,0.5c-9.3,2.6-19.5-4.9-22.7-16.8l-73.5-195.6c-3.3-11.8-1.9-24.2,7.4-26.8l1.9-0.5
		c18,1.4,38,22.1,61.8,97.9l38,115.2C1100.2,600,1095.3,611.6,1086,614.2z"/>
	<path class="st4" d="M1060.2,625.6c1.5-8.8,2.4-20.4,2.7-25.3c0.1-1.4,1.1-2.6,2.5-2.9l27.6-5.6c1.4-0.3,2.9,0.4,3.5,1.8
		c5.7,12.4,10.8,22.4,10.5,43.2c-0.5,29.8-8.8,34.5-14.2,33.3c-3.3-0.7-3.4-5.3-3-8.8c-2.5,7.2-10.5,4.6-10.5-3.2
		c-1.4,0.1-8.7,0.2-7.3-10.5c0.6-4.9,0.5-15.4-0.7-20.6c-0.2,1.2-0.4,2.4-0.6,3.7C1069.1,639.4,1058.3,637,1060.2,625.6z"/>
	<path class="st5" d="M1081.3,262.2c0-9.9-6.3-18.4-15.2-21.5c6.1-5.6,10-13.6,10-22.6c0-15.9-12.2-29-27.8-30.4
		c1.3-3.1,2-6.5,2-10.1c0-14.9-12.1-27-27-27c-7.4,0-14,2.9-18.9,7.7c0-0.1,0-0.1,0-0.2c0-13.8-11.2-25-25-25
		c-8.8,0-16.5,4.5-21,11.4c-5.3-6.1-13.2-9.9-21.9-9.9c-13.3,0-24.5,8.9-27.9,21c-4.3-2.6-9.4-4-14.8-4c-16.1,0-29.1,13-29.1,29.1
		c0,2.2,0.2,4.3,0.7,6.3c-16.9,0.2-30.6,13.9-30.6,30.9c0,11.4,6.2,21.3,15.3,26.7c-7.1,3.8-11.9,11.3-11.9,20
		c0,9.5,5.8,17.6,14.1,21c-2.4,3.2-3.9,7.2-3.9,11.6c0,10.1,7.7,18.4,17.6,19.3c-0.9,2.3-1.4,4.8-1.4,7.4c0,11,8.9,19.9,19.9,19.9
		c7.6,0,14.2-4.3,17.5-10.5c15.1,10.5,33.5,16.7,53.4,16.7c20.1,0,38.8-6.3,54-17.1c3.2,7.2,10.4,12.2,18.8,12.2
		c11.4,0,20.7-9.2,20.7-20.7c0-2-0.3-4-0.9-5.9c0.6,0,1.2,0.1,1.8,0.1c12.9,0,23.4-10.5,23.4-23.4c0-4.7-1.4-9.1-3.8-12.8
		C1076.5,278.4,1081.3,270.9,1081.3,262.2z"/>
	<path class="st4" d="M958.1,381.2c-34.9,0-76.8-30.5-76.8-73.2v-66.2c0-34.4,27.9-62.4,62.4-62.4H973c34.4,0,62.4,27.9,62.4,62.4
		v66.2C1035.3,350.8,993,381.2,958.1,381.2z"/>
	<path class="st5" d="M1039.5,214.9v-8.5c0-16.8-13.6-30.4-30.4-30.4h-97.1c-16.8,0-30.4,13.6-30.4,30.4v23.3c-1,2.8-1,5.6,0,8.4
		l3.4,6.5c5.5,6,15.2,7.2,23.4,2.5c7.8-4.5,11.6-12.9,9.9-20.4l1.9-1c2.8,1.5,6,2.4,9.4,2.4c8.7,0,16.1-5.7,18.6-13.7
		c3.2,9,12.5,15.5,23.4,15.5c8.1,0,15.4-3.6,19.8-9.2c1.6,6.4,6,12.6,12.6,16.8c12.2,7.7,27.4,5.7,33.9-4.4
		C1041.3,227.7,1041.5,221.1,1039.5,214.9z"/>
	<circle class="st4" cx="880.9" cy="272.9" r="21.9"/>
	<path class="st6" d="M876.5,276c0-4.3,3.5-7.8,7.8-7.8c1.2,0,2.3,0.3,3.3,0.7c-1.4-2.3-3.8-3.8-6.7-3.8c-4.3,0-7.8,3.5-7.8,7.8
		c0,3.1,1.8,5.8,4.5,7C876.9,278.8,876.5,277.5,876.5,276z"/>
	<circle class="st4" cx="1037.1" cy="272.9" r="21.9"/>
	<path class="st6" d="M1044.3,276c0-4.3-3.5-7.8-7.8-7.8c-1.2,0-2.3,0.3-3.3,0.7c1.4-2.3,3.8-3.8,6.7-3.8c4.3,0,7.8,3.5,7.8,7.8
		c0,3.1-1.8,5.8-4.5,7C1043.9,278.8,1044.3,277.5,1044.3,276z"/>
	<ellipse class="st7" cx="935.9" cy="277.4" rx="5" ry="8.8"/>
	<ellipse class="st7" cx="998.8" cy="277.4" rx="5" ry="8.8"/>
	<path class="st6" d="M962.6,294.5v15.7c0,0.7,0.9,1.3,1.6,1.3h9.3c2.5,0,3.9-2.9,2.3-4.9L965,293.7
		C964.2,292.7,962.6,293.3,962.6,294.5z"/>
	<path class="st8" d="M938,340.6c6-9.1,16.1-16.1,28.7-16.1h0c15,0,24.5,8.1,28.7,16.1"/>
	<path class="st9" d="M928.4,269.1c0,0,2.8,0.3,4.8-0.4c3.5-1.3,5.2-3.1,5.2-3.1"/>
	<path class="st9" d="M1004.6,270c0,0-3.5-0.6-5.3-1.7c-2.1-1.2-3.9-3.6-3.9-3.6"/>
	<path class="st10" d="M997.9,293.2c0,0-3.9,5.2-3.9,10.3c0,5.7,7.7,5.7,7.8,0C1001.9,299.3,997.9,293.2,997.9,293.2z"/>
	<path class="st8" d="M960.7,346.9c0,0,0.7-2.3,6-2.4c3.7,0,4.9,2.4,4.9,2.4"/>
</g>
</svg>
