<svg xmlns="http://www.w3.org/2000/svg" viewBox="0 0 335.08 261.56"><defs><style>.cls-1{fill:#a3a3a3;}</style></defs><title>bookstack</title><g id="Layer_2" data-name="Layer 2"><g id="Layer_1-2" data-name="Layer 1"><path class="cls-1" d="M311.18,79c-1.36-10.19-1.55-27.73,7.91-33.62a3.38,3.38,0,0,0,.44-.4c7.74-2.48,13.09-6,8.89-10.62L214.32,0,29.56,25.69s-21.16,3-19.27,35.89c1,17.89,6.64,26.68,11.55,31L6.68,97.15c-4.21,4.67,1.14,8.15,8.88,10.62a3.38,3.38,0,0,0,.44.4c9.45,5.89,9.27,23.43,7.91,33.62-34,9.65-21.77,12.79-21.77,12.79l7.45,1.8C4.35,161.12-.86,170.1.12,187.13,2,220,19.39,222.27,19.39,222.27l120.9,39.29,182.49-44.2S335,214.21,301,204.57c-1.36-10.17-1.55-27.71,7.92-33.63a2.8,2.8,0,0,0,.45-.39c7.73-2.48,13.08-5.94,8.88-10.62l-7.94-2.39c5.29-3.19,13.24-11.53,14.49-33.18.85-14.9-3-23.62-7.53-28.76L333,91.81S345.15,88.66,311.18,79ZM158.53,78.6l30.69-6.31L292.93,51l15.45-3.18c-4.94,9-4.73,21.4-3.91,29.35.18,1.8.38,3.44.58,4.69L288.14,86l-130.9,32.57Zm-131.82,32,15.45,3.18,99.6,20.47,8.7,1.78h0l26.09,5.37,1.29,40L43.3,147.92,30,144.62c.2-1.25.4-2.89.59-4.69C31.44,132,31.65,119.62,26.71,110.58ZM20.71,60c-.19-8.74,1.37-15.07,4.52-18.28a8.21,8.21,0,0,1,6-2.48,10.25,10.25,0,0,1,1.52.12l79.6,26,39.72,13-1.3,40.29L39.33,87.31l-5.88-1.65a3.47,3.47,0,0,0-.73-.11C32.26,85.52,21.24,84.51,20.71,60ZM140.58,244.11,23.28,211.22a3.68,3.68,0,0,0-.73-.11c-.47,0-11.49-1.05-12-25.55-.19-8.75,1.37-15.07,4.52-18.29a8.21,8.21,0,0,1,6-2.48,10.25,10.25,0,0,1,1.52.12h0l119.31,38.91Zm153.7-41.41c.19,1.81.4,3.44.6,4.69L147.06,244.17l1.3-40,31.6-6.5,4.66,1.13,17.5-5.69,80.63-16.57,15.45-3.18C293.26,182.39,293.47,194.76,294.28,202.7Zm8.15-54.37a2.61,2.61,0,0,0-.79.12l-11.15,3.12L184.34,181.33,183,141l34.83-11.35,84.32-27.51a8.83,8.83,0,0,1,7.69,2.32c3.14,3.21,4.7,9.54,4.52,18.28C313.85,147.28,302.83,148.29,302.43,148.33Z"/></g></g></svg>