<svg xmlns="http://www.w3.org/2000/svg" viewBox="0 0 477.33 488.14"><defs><style>.cls-1{fill:#fff;}</style></defs><title>calendarWhite</title><g id="Layer_2" data-name="Layer 2"><g id="DESIGNED_BY_FREEPIK" data-name="DESIGNED BY FREEPIK"><g id="Layer_1-2" data-name="Layer 1-2"><path class="cls-1" d="M172.44,269.31a11.08,11.08,0,0,0-11.08-11.07H122.7a11.08,11.08,0,0,0-11.08,11.07V308a11.09,11.09,0,0,0,11.08,11.08h38.66A11.08,11.08,0,0,0,172.44,308Z"/><path class="cls-1" d="M269.07,269.31A11.07,11.07,0,0,0,258,258.24H219.33a11.07,11.07,0,0,0-11.07,11.07h0V308a11.08,11.08,0,0,0,11.07,11.08H258A11.08,11.08,0,0,0,269.07,308Z"/><path class="cls-1" d="M365.71,269.31a11.08,11.08,0,0,0-11.08-11.07H316a11.08,11.08,0,0,0-11.08,11.07V308A11.08,11.08,0,0,0,316,319.05h38.66a11.08,11.08,0,0,0,11-11.05Z"/><path class="cls-1" d="M172.44,366a11.07,11.07,0,0,0-11.07-11.07H122.7A11.08,11.08,0,0,0,111.62,366v38.6a11.09,11.09,0,0,0,11.08,11.08h38.66a11.08,11.08,0,0,0,11.08-11.08Z"/><path class="cls-1" d="M269.07,366a11.07,11.07,0,0,0-11-11.12H219.33A11.07,11.07,0,0,0,208.26,366V404.6a11.08,11.08,0,0,0,11.07,11.08H258a11.08,11.08,0,0,0,11.07-11.08Z"/><path class="cls-1" d="M365.71,366a11.07,11.07,0,0,0-11.07-11.07H316a11.07,11.07,0,0,0-11.11,11V404.6A11.08,11.08,0,0,0,316,415.68h38.7a11.08,11.08,0,0,0,11.07-11.08V366Z"/><path class="cls-1" d="M434.84,54.35V113.4a48.23,48.23,0,0,1-48.26,48.2H356c-26.69,0-48.63-21.51-48.63-48.2V54.14H169.94V113.4c0,26.69-21.93,48.2-48.62,48.2H90.82a48.23,48.23,0,0,1-48.33-48.13V54.4A44,44,0,0,0,0,98.08V444.14a44,44,0,0,0,43.76,44H433.58a44,44,0,0,0,43.75-44V98.08A44,44,0,0,0,434.84,54.35ZM420.68,422.59a18.93,18.93,0,0,1-18.92,18.92h-327a18.92,18.92,0,0,1-18.91-18.92V243.84a18.92,18.92,0,0,1,18.91-18.93h327a18.93,18.93,0,0,1,18.92,18.93Z"/><path class="cls-1" d="M90.72,130h30.16a16.59,16.59,0,0,0,16.58-16.57V16.57A16.59,16.59,0,0,0,120.88,0H90.72A16.57,16.57,0,0,0,74.14,16.56h0v96.81A16.57,16.57,0,0,0,90.66,130Z"/><path class="cls-1" d="M355.62,130h30.17a16.58,16.58,0,0,0,16.57-16.57V16.57A16.57,16.57,0,0,0,385.79,0H355.62a16.57,16.57,0,0,0-16.57,16.57h0v96.81A16.57,16.57,0,0,0,355.57,130Z"/></g></g></g></svg>