<svg xmlns="http://www.w3.org/2000/svg" xmlns:xlink="http://www.w3.org/1999/xlink" viewBox="0 0 572.12 355.11"><defs><style>.cls-1{fill:url(#linear-gradient);}.cls-2{fill:#007bff;}.cls-3{opacity:0.3;isolation:isolate;}.cls-4{fill:#d6d6e3;}</style><linearGradient id="linear-gradient" x1="155.06" y1="5418.31" x2="155.06" y2="5773.42" gradientTransform="matrix(1, 0, 0, -1, 131, 5773.42)" gradientUnits="userSpaceOnUse"><stop offset="0" stop-color="gray" stop-opacity="0.25"/><stop offset="0.54" stop-color="gray" stop-opacity="0.12"/><stop offset="1" stop-color="gray" stop-opacity="0.1"/></linearGradient></defs><g id="Layer_2" data-name="Layer 2"><g id="Layer_1-2" data-name="Layer 1"><path class="cls-1" d="M548.23,0H23.89A23.9,23.9,0,0,0,0,23.89H0V331.22a23.9,23.9,0,0,0,23.89,23.89H548.23a23.9,23.9,0,0,0,23.89-23.89h0V23.89A23.9,23.9,0,0,0,548.23,0Z"/><rect class="cls-2" x="6.73" y="4.18" width="558.65" height="346.75" rx="24.81"/><rect class="cls-2" x="6.73" y="64.86" width="558.65" height="63.57"/><rect class="cls-3" x="6.73" y="64.86" width="558.65" height="63.57"/><rect class="cls-4" x="59.71" y="175.63" width="452.7" height="30.82"/><circle class="cls-2" cx="97.27" cy="283.51" r="44.31"/><circle class="cls-3" cx="97.27" cy="283.51" r="44.31"/></g></g></svg>