<svg xmlns="http://www.w3.org/2000/svg" viewBox="0 0 272.78 272.78"><defs><style>.cls-1{fill:#a3a3a3;}</style></defs><title>clock_2</title><g id="Layer_2" data-name="Layer 2"><g id="Layer_1-2" data-name="Layer 1"><path class="cls-1" d="M143.43,67.86v71.7l61.46,36.49-10.24,17.29L122.94,149.8V67.86Zm-7,178q44.79,0,77.16-32.34t32.31-77.13q0-44.8-32.34-77.16T136.39,26.92q-44.8,0-77.16,32.34T26.92,136.39q0,44.79,32.34,77.16T136.39,245.86ZM136.39,0q56.37,0,96.36,40t40,96.36q0,56.37-40,96.36t-96.36,40q-56.37,0-96.36-40T0,136.39Q0,80,40,40T136.39,0Z"/></g></g></svg>