<svg xmlns="http://www.w3.org/2000/svg" viewBox="0 0 1019.44 517.41"><defs><style>.cls-1{fill:#3f3d56;}.cls-2{fill:#ff6584;}.cls-3,.cls-5{fill:#007bff;}.cls-4,.cls-8{fill:#2e3192;}.cls-4{opacity:0.1;}.cls-4,.cls-5{isolation:isolate;}.cls-5{opacity:0.4;}.cls-6{fill:#ccc;}.cls-7{fill:#f2f2f2;}</style></defs><title>connected</title><g id="Layer_2" data-name="Layer 2"><g id="Layer_1-2" data-name="Layer 1"><path class="cls-1" d="M96.76,510.61l-2-.44c21.76-96.75,76.43-184.61,154-247.39,190.73-154.22,470.36-124.63,624.59,66.09A444.26,444.26,0,0,1,960.92,509l-1.95.44C912.91,307.23,735.69,166,528,166,323,166,141.66,310.93,96.76,510.61Z"/><circle class="cls-2" cx="852.13" cy="219.9" r="54.32"/><rect class="cls-1" x="829.44" y="436.94" width="2" height="79"/><path class="cls-3" d="M850,447.12c.13,27.63-19.3,50.11-19.3,50.11S811,474.93,810.88,447.3s19.31-50.1,19.31-50.1S849.83,419.5,850,447.12Z"/><path class="cls-4" d="M850,447.12c.13,27.63-19.3,50.11-19.3,50.11S811,474.93,810.88,447.3s19.31-50.1,19.31-50.1S849.83,419.5,850,447.12Z"/><circle class="cls-5" cx="453.52" cy="248.74" r="31.25" transform="translate(135.34 656.56) rotate(-80.78)"/><circle class="cls-5" cx="395.69" cy="263.67" r="21.92"/><circle class="cls-5" cx="160.69" cy="326.67" r="21.92"/><circle class="cls-5" cx="808.81" cy="246.17" r="31.25"/><path class="cls-1" d="M9.13,507.27c1.69,6.26,7.49,10.14,7.49,10.14s3.06-6.27,1.37-12.53-7.5-10.14-7.5-10.14S7.43,501,9.13,507.27Z"/><path class="cls-3" d="M11.62,505.93c4.64,4.52,5.21,11.48,5.21,11.48s-7-.38-11.61-4.91S0,501,0,501,7,501.4,11.62,505.93Z"/><path class="cls-1" d="M621.13,507.27c1.69,6.26,7.49,10.14,7.49,10.14s3.06-6.27,1.37-12.53-7.5-10.14-7.5-10.14S619.43,501,621.13,507.27Z"/><path class="cls-3" d="M623.62,505.93c4.64,4.52,5.21,11.48,5.21,11.48s-7-.38-11.61-4.91S612,501,612,501,619,501.4,623.62,505.93Z"/><polygon class="cls-1" points="20.67 459.94 16.54 453.04 55.15 419.94 154.44 419.94 154.44 429.6 118.59 468.21 77.22 476.49 20.67 459.94"/><polygon class="cls-6" points="171.44 439.83 171.44 417.94 158.44 417.94 158.44 424.77 154.35 420.11 121.25 453.31 115.74 458.84 108.84 486.51 121.25 516.95 184.44 516.95 184.44 454.89 171.44 439.83"/><rect class="cls-7" x="16.44" y="453.94" width="105" height="63"/><rect class="cls-1" x="84.44" y="473.94" width="22" height="19"/><rect class="cls-6" x="56.44" y="472.94" width="19" height="44"/><polygon class="cls-1" points="34.44 479.94 34.44 472.94 26.44 472.94 26.44 479.94 33.78 479.94 34.44 479.94"/><polygon class="cls-1" points="33.78 484.94 26.44 484.94 26.44 491.94 34.44 491.94 34.44 484.94 33.78 484.94"/><rect class="cls-1" x="40.44" y="472.94" width="8" height="7"/><rect class="cls-1" x="40.44" y="484.94" width="8" height="7"/><polygon class="cls-1" points="150.44 479.94 150.44 472.94 142.44 472.94 142.44 479.94 149.78 479.94 150.44 479.94"/><polygon class="cls-1" points="149.78 485.94 142.44 485.94 142.44 492.94 150.44 492.94 150.44 485.94 149.78 485.94"/><rect class="cls-1" x="156.44" y="472.94" width="8" height="7"/><rect class="cls-1" x="156.44" y="485.94" width="8" height="7"/><polygon class="cls-1" points="419.67 459.94 415.54 453.04 454.15 419.94 553.44 419.94 553.44 429.6 517.59 468.21 476.21 476.49 419.67 459.94"/><polygon class="cls-6" points="570.44 439.83 570.44 417.94 557.44 417.94 557.44 424.77 553.35 420.11 520.25 453.31 514.74 458.84 507.84 486.51 520.25 516.95 583.44 516.95 583.44 454.89 570.44 439.83"/><rect class="cls-7" x="415.44" y="453.94" width="105" height="63"/><rect class="cls-1" x="483.44" y="473.94" width="22" height="19"/><rect class="cls-6" x="455.44" y="472.94" width="19" height="44"/><polygon class="cls-1" points="433.44 479.94 433.44 472.94 425.44 472.94 425.44 479.94 432.78 479.94 433.44 479.94"/><polygon class="cls-1" points="432.78 484.94 425.44 484.94 425.44 491.94 433.44 491.94 433.44 484.94 432.78 484.94"/><rect class="cls-1" x="439.44" y="472.94" width="8" height="7"/><rect class="cls-1" x="439.44" y="484.94" width="8" height="7"/><polygon class="cls-1" points="549.44 479.94 549.44 472.94 541.44 472.94 541.44 479.94 548.78 479.94 549.44 479.94"/><polygon class="cls-1" points="548.78 485.94 541.44 485.94 541.44 492.94 549.44 492.94 549.44 485.94 548.78 485.94"/><rect class="cls-1" x="555.44" y="472.94" width="8" height="7"/><rect class="cls-1" x="555.44" y="485.94" width="8" height="7"/><polygon class="cls-1" points="232.81 343.94 225.92 338.42 264.53 303.94 362.44 303.94 362.44 334.29 299.01 377.04 232.81 343.94"/><polygon class="cls-6" points="380.44 323.91 380.44 304.94 367.44 304.94 367.44 309.52 362.59 304.25 330.87 338.78 318.46 347.07 299.22 487.88 328.24 516.95 395.44 516.95 395.44 340.42 380.44 323.91"/><rect class="cls-7" x="226.44" y="338.94" width="105" height="178"/><rect class="cls-6" x="267.44" y="473.94" width="19" height="43"/><polygon class="cls-1" points="246.44 485.94 246.44 478.94 238.44 478.94 238.44 485.94 245.78 485.94 246.44 485.94"/><polygon class="cls-1" points="245.78 490.94 238.44 490.94 238.44 497.94 246.44 497.94 246.44 490.94 245.78 490.94"/><rect class="cls-1" x="251.44" y="478.94" width="8" height="7"/><rect class="cls-1" x="251.44" y="490.94" width="8" height="7"/><polygon class="cls-1" points="302.44 485.94 302.44 478.94 294.44 478.94 294.44 485.94 301.78 485.94 302.44 485.94"/><polygon class="cls-1" points="301.78 490.94 294.44 490.94 294.44 497.94 302.44 497.94 302.44 490.94 301.78 490.94"/><rect class="cls-1" x="308.44" y="478.94" width="8" height="7"/><rect class="cls-1" x="308.44" y="490.94" width="8" height="7"/><polygon class="cls-1" points="360.44 347.94 360.44 340.94 352.44 340.94 352.44 347.94 359.78 347.94 360.44 347.94"/><polygon class="cls-1" points="359.78 352.94 352.44 352.94 352.44 359.94 360.44 359.94 360.44 352.94 359.78 352.94"/><rect class="cls-1" x="366.44" y="340.94" width="8" height="7"/><rect class="cls-1" x="366.44" y="352.94" width="8" height="7"/><polygon class="cls-1" points="360.44 386.94 360.44 379.94 352.44 379.94 352.44 386.94 359.78 386.94 360.44 386.94"/><polygon class="cls-1" points="359.78 391.94 352.44 391.94 352.44 398.94 360.44 398.94 360.44 391.94 359.78 391.94"/><rect class="cls-1" x="366.44" y="379.94" width="8" height="7"/><rect class="cls-1" x="366.44" y="391.94" width="8" height="7"/><polygon class="cls-1" points="360.44 424.94 360.44 417.94 352.44 417.94 352.44 424.94 359.78 424.94 360.44 424.94"/><polygon class="cls-1" points="359.78 430.94 352.44 430.94 352.44 437.94 360.44 437.94 360.44 430.94 359.78 430.94"/><rect class="cls-1" x="366.44" y="417.94" width="8" height="7"/><rect class="cls-1" x="366.44" y="430.94" width="8" height="7"/><polygon class="cls-1" points="360.44 463.94 360.44 456.94 352.44 456.94 352.44 463.94 359.78 463.94 360.44 463.94"/><polygon class="cls-1" points="359.78 468.94 352.44 468.94 352.44 475.94 360.44 475.94 360.44 468.94 359.78 468.94"/><rect class="cls-1" x="366.44" y="456.94" width="8" height="7"/><rect class="cls-1" x="366.44" y="468.94" width="8" height="7"/><rect class="cls-1" x="237.44" y="347.94" width="80" height="17"/><rect class="cls-1" x="237.44" y="380.94" width="80" height="17"/><rect class="cls-1" x="237.44" y="413.94" width="80" height="17"/><rect class="cls-1" x="237.44" y="446.94" width="80" height="17"/><polygon class="cls-1" points="635.81 343.94 628.92 338.42 667.53 303.94 765.44 303.94 765.44 334.29 702.01 377.04 635.81 343.94"/><polygon class="cls-6" points="783.44 323.91 783.44 304.94 770.44 304.94 770.44 309.52 765.59 304.25 733.87 338.78 721.46 347.07 702.22 487.88 731.24 516.95 798.44 516.95 798.44 340.42 783.44 323.91"/><rect class="cls-7" x="629.44" y="338.94" width="105" height="178"/><rect class="cls-6" x="670.44" y="473.94" width="19" height="43"/><polygon class="cls-1" points="649.44 485.94 649.44 478.94 641.44 478.94 641.44 485.94 648.78 485.94 649.44 485.94"/><polygon class="cls-1" points="648.78 490.94 641.44 490.94 641.44 497.94 649.44 497.94 649.44 490.94 648.78 490.94"/><rect class="cls-1" x="654.44" y="478.94" width="8" height="7"/><rect class="cls-1" x="654.44" y="490.94" width="8" height="7"/><polygon class="cls-1" points="705.44 485.94 705.44 478.94 697.44 478.94 697.44 485.94 704.78 485.94 705.44 485.94"/><polygon class="cls-1" points="704.78 490.94 697.44 490.94 697.44 497.94 705.44 497.94 705.44 490.94 704.78 490.94"/><rect class="cls-1" x="711.44" y="478.94" width="8" height="7"/><rect class="cls-1" x="711.44" y="490.94" width="8" height="7"/><polygon class="cls-1" points="763.44 347.94 763.44 340.94 755.44 340.94 755.44 347.94 762.78 347.94 763.44 347.94"/><polygon class="cls-1" points="762.78 352.94 755.44 352.94 755.44 359.94 763.44 359.94 763.44 352.94 762.78 352.94"/><rect class="cls-1" x="769.44" y="340.94" width="8" height="7"/><rect class="cls-1" x="769.44" y="352.94" width="8" height="7"/><polygon class="cls-1" points="763.44 386.94 763.44 379.94 755.44 379.94 755.44 386.94 762.78 386.94 763.44 386.94"/><polygon class="cls-1" points="762.78 391.94 755.44 391.94 755.44 398.94 763.44 398.94 763.44 391.94 762.78 391.94"/><rect class="cls-1" x="769.44" y="379.94" width="8" height="7"/><rect class="cls-1" x="769.44" y="391.94" width="8" height="7"/><polygon class="cls-1" points="763.44 424.94 763.44 417.94 755.44 417.94 755.44 424.94 762.78 424.94 763.44 424.94"/><polygon class="cls-1" points="762.78 430.94 755.44 430.94 755.44 437.94 763.44 437.94 763.44 430.94 762.78 430.94"/><rect class="cls-1" x="769.44" y="417.94" width="8" height="7"/><rect class="cls-1" x="769.44" y="430.94" width="8" height="7"/><polygon class="cls-1" points="763.44 463.94 763.44 456.94 755.44 456.94 755.44 463.94 762.78 463.94 763.44 463.94"/><polygon class="cls-1" points="762.78 468.94 755.44 468.94 755.44 475.94 763.44 475.94 763.44 468.94 762.78 468.94"/><rect class="cls-1" x="769.44" y="456.94" width="8" height="7"/><rect class="cls-1" x="769.44" y="468.94" width="8" height="7"/><rect class="cls-1" x="640.44" y="347.94" width="80" height="17"/><rect class="cls-1" x="640.44" y="380.94" width="80" height="17"/><rect class="cls-1" x="640.44" y="413.94" width="80" height="17"/><rect class="cls-1" x="640.44" y="446.94" width="80" height="17"/><polygon class="cls-1" points="856.81 343.94 849.92 338.42 888.53 303.94 986.44 303.94 986.44 334.29 923.01 377.04 856.81 343.94"/><polygon class="cls-6" points="1004.44 323.91 1004.44 304.94 991.44 304.94 991.44 309.52 986.59 304.25 954.87 338.78 942.46 347.07 923.22 487.88 952.24 516.95 1019.44 516.95 1019.44 340.42 1004.44 323.91"/><rect class="cls-7" x="850.44" y="338.94" width="105" height="178"/><rect class="cls-6" x="891.44" y="473.94" width="19" height="43"/><polygon class="cls-1" points="870.44 485.94 870.44 478.94 862.44 478.94 862.44 485.94 869.78 485.94 870.44 485.94"/><polygon class="cls-1" points="869.78 490.94 862.44 490.94 862.44 497.94 870.44 497.94 870.44 490.94 869.78 490.94"/><rect class="cls-1" x="875.44" y="478.94" width="8" height="7"/><rect class="cls-1" x="875.44" y="490.94" width="8" height="7"/><polygon class="cls-1" points="926.44 485.94 926.44 478.94 918.44 478.94 918.44 485.94 925.78 485.94 926.44 485.94"/><polygon class="cls-1" points="925.78 490.94 918.44 490.94 918.44 497.94 926.44 497.94 926.44 490.94 925.78 490.94"/><rect class="cls-1" x="932.44" y="478.94" width="8" height="7"/><rect class="cls-1" x="932.44" y="490.94" width="8" height="7"/><polygon class="cls-1" points="984.44 347.94 984.44 340.94 976.44 340.94 976.44 347.94 983.78 347.94 984.44 347.94"/><polygon class="cls-1" points="983.78 352.94 976.44 352.94 976.44 359.94 984.44 359.94 984.44 352.94 983.78 352.94"/><rect class="cls-1" x="990.44" y="340.94" width="8" height="7"/><rect class="cls-1" x="990.44" y="352.94" width="8" height="7"/><polygon class="cls-1" points="984.44 386.94 984.44 379.94 976.44 379.94 976.44 386.94 983.78 386.94 984.44 386.94"/><polygon class="cls-1" points="983.78 391.94 976.44 391.94 976.44 398.94 984.44 398.94 984.44 391.94 983.78 391.94"/><rect class="cls-1" x="990.44" y="379.94" width="8" height="7"/><rect class="cls-1" x="990.44" y="391.94" width="8" height="7"/><polygon class="cls-1" points="984.44 424.94 984.44 417.94 976.44 417.94 976.44 424.94 983.78 424.94 984.44 424.94"/><polygon class="cls-1" points="983.78 430.94 976.44 430.94 976.44 437.94 984.44 437.94 984.44 430.94 983.78 430.94"/><rect class="cls-1" x="990.44" y="417.94" width="8" height="7"/><rect class="cls-1" x="990.44" y="430.94" width="8" height="7"/><polygon class="cls-1" points="984.44 463.94 984.44 456.94 976.44 456.94 976.44 463.94 983.78 463.94 984.44 463.94"/><polygon class="cls-1" points="983.78 468.94 976.44 468.94 976.44 475.94 984.44 475.94 984.44 468.94 983.78 468.94"/><rect class="cls-1" x="990.44" y="456.94" width="8" height="7"/><rect class="cls-1" x="990.44" y="468.94" width="8" height="7"/><rect class="cls-1" x="861.44" y="347.94" width="80" height="17"/><rect class="cls-1" x="861.44" y="380.94" width="80" height="17"/><rect class="cls-1" x="861.44" y="413.94" width="80" height="17"/><rect class="cls-1" x="861.44" y="446.94" width="80" height="17"/><rect class="cls-1" x="204.44" y="436.94" width="2" height="79"/><path class="cls-8" d="M225,447.12c.13,27.63-19.3,50.11-19.3,50.11S186,474.93,185.88,447.3s19.31-50.1,19.31-50.1S224.83,419.5,225,447.12Z"/><rect class="cls-1" x="404.44" y="436.94" width="2" height="79"/><path class="cls-8" d="M425,447.12c.13,27.63-19.3,50.11-19.3,50.11S386,474.93,385.88,447.3s19.31-50.1,19.31-50.1S424.83,419.5,425,447.12Z"/><rect class="cls-1" x="803.44" y="436.94" width="2" height="79"/><path class="cls-8" d="M824,447.12c.13,27.63-19.3,50.11-19.3,50.11S785,474.93,784.88,447.3s19.31-50.1,19.31-50.1S823.83,419.5,824,447.12Z"/><path class="cls-8" d="M850,447.12c.13,27.63-19.3,50.11-19.3,50.11S811,474.93,810.88,447.3s19.31-50.1,19.31-50.1S849.83,419.5,850,447.12Z"/><ellipse class="cls-8" cx="540" cy="163.5" rx="38" ry="8.55"/><path class="cls-8" d="M583,44c0,24.3-44,93-44,93s-44-68.7-44-93a44,44,0,0,1,88,0Z"/><circle class="cls-7" cx="539" cy="44" r="25"/></g></g></svg>