<svg xmlns="http://www.w3.org/2000/svg" viewBox="0 0 68.43 54.05"><defs><style>.cls-1{fill:none;stroke:#fff;stroke-miterlimit:10;stroke-width:3px;}.cls-2{fill:#fff;}</style></defs><title>Equity_1</title><g id="Layer_2" data-name="Layer 2"><g id="DESIGNED_BY_FREEPIK" data-name="DESIGNED BY FREEPIK"><rect class="cls-1" x="1.5" y="1.5" width="65.43" height="51.05" rx="8.34"/><path class="cls-2" d="M40.2,48.76l-6-6-6,6V35.67l.05,0a11.89,11.89,0,0,0,11.88,0l0,0V48.76Z"/><path class="cls-2" d="M39.3,26.58q-.36.18-.75.33l-.3.11c-.23.09-.48.17-.72.24l-.4.11c-.22.05-.44.11-.66.15l-.57.09-.53.07c-.37,0-.75.06-1.13.06s-.77,0-1.14-.06l-.53-.07L32,27.52c-.22,0-.44-.1-.66-.15l-.4-.11q-.36-.11-.72-.24l-.3-.11q-.37-.15-.75-.33l-.22-.1-.67-.37v14.3H40.2V26.11l-.67.37Z"/><path class="cls-2" d="M37.72,19.38a2.79,2.79,0,0,1-.52,1,3.82,3.82,0,0,1-2.15,1.27v.67a.77.77,0,0,1-.77.76.76.76,0,0,1-.76-.76v-.67a3.84,3.84,0,0,1-2.76-2.3H28.28V26.6c.22.13.44.26.67.37l.22.11q.38.18.75.33l.3.11q.36.14.72.24l.4.1L32,28l.57.08.53.08c.37,0,.75.05,1.14.05s.76,0,1.13-.05l.53-.08.57-.08.66-.16.4-.1c.24-.07.49-.15.72-.24l.3-.11q.39-.15.75-.33l.23-.11c.23-.11.45-.24.67-.37V19.38Z"/><path class="cls-2" d="M34.24,4.56A11.82,11.82,0,0,0,26.4,25.25c.24.2.48.4.72.58l.14.11q.38.27.75.51l.18.1.09.05V19.38h2.48a3.85,3.85,0,0,1-.29-1.44.76.76,0,0,1,1.52,0,2.22,2.22,0,0,0,.53,1.44h1V15.94l-1.7-1.32a2.82,2.82,0,0,1-1.06-1.9,2.64,2.64,0,0,1,.61-2,3.82,3.82,0,0,1,2.15-1.27V8.62a.76.76,0,0,1,.76-.77.77.77,0,0,1,.77.77v.84a3.81,3.81,0,0,1,3.05,3.73.77.77,0,1,1-1.53,0,2.27,2.27,0,0,0-1.52-2.14V15.2l1.7,1.32a2.79,2.79,0,0,1,1,1.9,2.57,2.57,0,0,1-.08,1H40.2V26.6l.09-.05.17-.1q.39-.24.75-.51l.14-.11a7.94,7.94,0,0,0,.72-.58A11.82,11.82,0,0,0,34.24,4.56Z"/></g></g></svg>