<svg xmlns="http://www.w3.org/2000/svg" viewBox="0 0 148.36 474.65"><defs><style>.cls-1{fill:#ffb9b9;}.cls-2{fill:#2f2e41;}.cls-3{fill:#fff;}</style></defs><title>findTutorImageHeader_1</title><g id="Layer_2" data-name="Layer 2"><g id="fbe6a470-e545-4a3c-ab88-8fc38f19e601"><polygon class="cls-1" points="46.42 406.82 40.37 419.94 29.27 418.93 22.2 395.72 33.3 389.67 46.42 406.82"/><polygon class="cls-1" points="84.54 437.04 84.78 446.18 67.62 447.19 67.62 436.09 84.54 437.04"/><polygon class="cls-2" points="78.72 270.57 74.68 351.31 84.78 439.12 54.5 443.15 35.32 332.14 29.27 256.44 78.72 270.57"/><path class="cls-2" d="M126.16,241.31S138.27,321,113,347.28s-59.55,72.66-59.55,72.66L29.27,389.66l61.56-65.6-12.11-44.4L29.27,256.44l8.07-55.5,72.67-1Z"/><circle class="cls-1" cx="66.61" cy="34.41" r="22.2"/><path class="cls-1" d="M85.79,39.46s1,31.28,6,35.32S73.67,96,73.67,96L58.54,71.75V49.55Z"/><polygon class="cls-3" points="75.69 81.84 87.95 63.34 94.87 72.76 104.96 101.02 96.89 211.03 49.45 212.04 43.4 85.88 58.54 67.72 75.69 81.84"/><path class="cls-2" d="M24.22,88.91l-8.07-1s-2,1-3,8.07S0,165.61,0,165.61l16.15,76.71,18.16-24.23L23.21,175.7l11.1-42.38Z"/><polygon class="cls-2" points="127.16 87.9 133.22 87.9 148.36 169.65 134.23 233.23 120.1 210.02 124.14 184.79 122.12 162.59 115.05 149.46 127.16 87.9"/><path class="cls-2" d="M37.34,415.91s6.06-2,6.06,2-4,16.15-4,16.15,6.06,37.34-3,35.33-16.15-19.18-17.15-24.23-6.06-31.28-6.06-31.28-8.07-19.18-3-20.19,19.18-5,19.18-5S21.19,413.89,37.34,415.91Z"/><path class="cls-2" d="M66.61,447.19s16.15-10.09,19.18-2a84.94,84.94,0,0,1,4,18.17s4,13.12-12.11,11.1-14.13-2-15.14-8.07S66.61,447.19,66.61,447.19Z"/><path class="cls-2" d="M79.73,34.41l-4-1s-3-17.16-10.09-15.14-25.23,4-25.23-4S57.53-.91,67.62.1s27.25,4,26.24,19.17-7.52,29.87-7.52,29.87l-.53-9Z"/><polygon class="cls-3" points="58.54 93.96 75.69 81.84 58.54 67.72 52.58 74.86 58.54 93.96"/><polygon class="cls-3" points="90.83 92.95 75.69 81.84 87.8 63.68 94.87 72.76 90.83 92.95"/><path class="cls-2" d="M17.16,87.9,49.45,74.78,57,69.23,79.73,169.65l15.14-45.42-4.54-58,41.88,21.7-14.13,68.63-2,26.24L122.12,204s21.19,15.14,14.13,31.29-15.14,17.16-15.14,17.16S86.79,220.11,84.78,212s-5-22.21-5-22.21-17.16,64.6-37.34,63.59S22.2,231.21,22.2,231.21L27.25,209l8.07-23.21-4-38.35Z"/></g></g></svg>