<svg xmlns="http://www.w3.org/2000/svg" xmlns:xlink="http://www.w3.org/1999/xlink" viewBox="0 0 930.54 751.77"><defs><style>.cls-1{fill:#dea3a2;}.cls-2,.cls-35,.cls-4{opacity:0.1;}.cls-2,.cls-24,.cls-28,.cls-37,.cls-4{isolation:isolate;}.cls-3{fill:none;}.cls-15,.cls-4{fill:#007bff;}.cls-5{fill:url(#linear-gradient);}.cls-6{fill:#575a88;}.cls-7{fill:#aac9f5;}.cls-8{fill:#d5838e;}.cls-9{fill:#ffccd0;}.cls-10{fill:#cd828d;}.cls-11{fill:#663d5c;}.cls-12{fill:#f26383;}.cls-13{fill:#ffc1c7;}.cls-14{fill:#ffd6db;}.cls-16{fill:#e4aab4;}.cls-17{fill:#bdd2e8;}.cls-18{fill:#cf6f80;}.cls-19{fill:#575a89;}.cls-20{fill:#512e4e;}.cls-21{fill:#ffceb4;}.cls-22{fill:#f8bda5;}.cls-23{fill:#e8eaf2;}.cls-24{opacity:0.05;}.cls-25{fill:#f1cec8;}.cls-26{fill:#f6e2df;}.cls-27{fill:#fdf9f9;}.cls-28,.cls-36{fill:#42312e;}.cls-28{opacity:0.3;}.cls-29{fill:#ff748e;}.cls-30{fill:#ffedba;}.cls-31,.cls-37{fill:#fff;}.cls-32{fill:#575988;}.cls-33{fill:#b97482;}.cls-34{fill:#d3878a;}.cls-37{opacity:0.2;}.cls-38{fill:#f2dcdc;}</style><linearGradient id="linear-gradient" x1="28.93" y1="-2129.75" x2="28.93" y2="-1543.94" gradientTransform="matrix(1, 0, 0, -1, 526.56, -1377.98)" gradientUnits="userSpaceOnUse"><stop offset="0" stop-color="gray" stop-opacity="0.25"/><stop offset="0.54" stop-color="gray" stop-opacity="0.12"/><stop offset="1" stop-color="gray" stop-opacity="0.1"/></linearGradient></defs><title>group</title><g id="Layer_2" data-name="Layer 2"><g id="Layer_1-2" data-name="Layer 1"><path class="cls-1" d="M534.26,38.29,551.67,42A121.65,121.65,0,0,0,534.26,38.29Z"/><path class="cls-2" d="M734.35,515.1s14.69-8.7,34.82-4.35,51,2,53.76,1.57Z"/><path class="cls-2" d="M798.73,278.48s4.9,77.24-3.81,92.47Z"/><path class="cls-2" d="M816.8,371s-6.27,72.35-10.62,86.49S816.8,371,816.8,371Z"/><path class="cls-2" d="M822.93,193.07c4.44,1.68,23.48,40.26,19.63,51.68S822.93,193.07,822.93,193.07Z"/><path class="cls-2" d="M774.65,153c2.07.94,10.92,23.18,9.15,29.76S774.65,153,774.65,153Z"/><path class="cls-2" d="M857.09,282.75c-2.2,22.43-3.39,37.12-2,55.07a210.85,210.85,0,0,1-.6,41.88Z"/><path class="cls-2" d="M618.69,21.52c2.68,3.06,3.58,7.3,3.71,11.37s-.4,8.14-.13,12.19c.29,4.27,2.31,9.28,6.55,9.85Z"/><path class="cls-3" d="M831.2,0a46.94,46.94,0,0,0-8.87,6.11,15.84,15.84,0,0,0-5.16,9.24c-.19,1.52-.09,3.08-.43,4.58a14.43,14.43,0,0,1-3,5.55,75.44,75.44,0,0,1-7.49,8.29"/><path class="cls-2" d="M805.39,103.18a55.2,55.2,0,0,1,7.15-5A29.94,29.94,0,0,1,819.89,95c3.94-1,8.09-.89,12.14-1.31s8.3-1.55,11.07-4.55Z"/><path class="cls-2" d="M899.4,73.09c1-.8,2.6-.18,3.45.81s1.34,2.26,2.22,3.22c1.75,1.9,4.62,2.11,7.2,2.21Z"/><path class="cls-2" d="M819.11,16.14c-3-.72-5.66,2.52-6.2,5.59s.09,6.32-.78,9.31c-.77,2.66-2.64,4.84-4.55,6.83Z"/><path class="cls-2" d="M767.7,21.75C764.94,30,770.8,39,769.09,47.54c-.52,2.6-1.73,5-2.34,7.6-1.61,6.78,1.15,14,5.59,19.39Z"/><ellipse class="cls-4" cx="18.08" cy="704.85" rx="18.08" ry="2.48"/><path class="cls-5" d="M918.14,404.86c-4.09-3.47-16.26-24.84-19.7-30.95l-.9-1.62h0c1.26-4.76-6.65-11.67-8.95-13.57-4.86-5.73-11.81-12.86-17.55-14.57-7.35-2.18-12.48.27-18-.68a14.06,14.06,0,0,1-3.89-1.26,18.85,18.85,0,0,1-2.33-1.39,28.54,28.54,0,0,1-5.29-5.07,11.73,11.73,0,0,0,3-.79q8.55-3.21,16.81-7.14c1.19-.57,2.48-1.25,2.95-2.49.2-.52.23-1.11.47-1.61.53-1.12,1.87-1.55,3-1.92,4.22-1.28,8.81-3.82,9.51-8.19a11,11,0,0,0,.1-1.72,7.55,7.55,0,0,1-.8,1.27c.15-1.48-.08-3,.14-4.45a8.82,8.82,0,0,1,1.46-3.54,10.21,10.21,0,0,0-.08,1.46c1.64-3.57,5.59-6.15,6.89-10a11.31,11.31,0,0,0,.53-3.16,12.06,12.06,0,0,1-.91,1.7c.74-4.36-1.17-9.28,1.07-13.07.15-.25.32-.5.49-.73a10.57,10.57,0,0,0-.13,1.49,7.6,7.6,0,0,1,.37-.76c1.05-1.79,2.91-3.1,3.45-5.11a5.88,5.88,0,0,0,.08-2.25c-.21.32-.44.63-.68.93a12.45,12.45,0,0,0-.41-2.78c-1.59-6.89-3.92-14.72-10.35-17.59-2-.87-4.21-1.23-5.77-2.7-3.57-3.34-1.64-10.47-5.75-13.06-1.81-1.16-4.6-1.28-5.29-3.32-.39-1.15.14-2.48-.29-3.64-.91-2.46-4.48-1.57-7.1-1.48-3.62.14-7.36-3.07-6.83-6.66a18.93,18.93,0,0,0-15.78-.75c-2.64,1.08-5.23,2.8-8.07,2.53-1.37-.13-2.64-.71-4-.95-5.6-1-10.4,3.83-15.73,5.83-5.56,2.08-12.39,1.25-16.81,5.23-3.88,3.51-4.6,9.72-8.71,12.94-2.19,1.71-5,2.33-7.34,3.89s-3.89,5-2.13,7.11c2.22,2.73,7.93,1.26,9,4.62.87,2.7-2.47,4.71-3.75,7.23a5.62,5.62,0,0,0,2.86,7.41,5.75,5.75,0,0,0,1,.33v1.7a36.24,36.24,0,0,0,17.27,43.58c.5.9,1,1.91,1.56,3,3.11,6.19,6.73,14.85,7.8,23.3-3.75-1.23-11.62,5.93-11.62,5.93a84.68,84.68,0,0,1-12.14,2.21c-8.41,1.1-7.73,4.4-7.72,4.43l-.53.48c-4.36,3.81-33.94,30.28-38.69,31.28l.25,1-1.22.9-14.65,10.86h0s-11.23.74-22.27,2-26.67,4.62-15.27,17.88a6.75,6.75,0,0,0,1,1l-44.24-2.62a1.93,1.93,0,0,0,.49-1.17c0-1-1.14-2-3.1-2.75l-.07-.31c5.57-.16,12.49-.41,17.12-.83,1.2-.12,2.23-.24,3-.37,6.9-1.11-.55-6.36,2.76-10.51s0-19.64.27-23-2.2-16.59-4.41-19.36-2.48-14.66-2.48-14.66-5.25-4.7-8.28-20.74-15.18-24.34-19-25.17-9.66-4.14-9.66-5-6.62-1.11-9.38-2.21-4.14-2.49-6.35-2.77h0a12.3,12.3,0,0,0,2-2.93,6.69,6.69,0,0,1,2.39-2.67,4.11,4.11,0,0,1,.61-.25,2.37,2.37,0,0,1,.65-.09,1.88,1.88,0,0,1,.66.09c.82.23,1.66.92,2.39.51a.74.74,0,0,0,.27-.23,2.24,2.24,0,0,0,.43-1h0c.09-.41.16-.83.21-1.25v.34c0-.44.08-.88.1-1.33h0c.16-3.21-.3-6.53,1.2-9.32l.09-.14h0c1.5-2.68,4.46-4.12,6.86-6.08.49-.4,1-.82,1.42-1.27.17-.16.33-.35.5-.53s.53-.55.77-.84.39-.5.59-.75.37-.48.54-.73.41-.61.6-.93.26-.41.37-.62.41-.72.59-1.1c.08-.16.17-.34.24-.5.19-.41.37-.84.53-1.26l.14-.39c.17-.47.33-.94.46-1.42v.19a19.25,19.25,0,0,0,.57-3A19.71,19.71,0,0,0,619,246c-2.56-3-6.23-5.64-6.43-9.56a14.83,14.83,0,0,1,1.2-5.38h0a13,13,0,0,0,.58-2.31h0a6.35,6.35,0,0,0,.09-1.07c0-2.92-1.84-5.52-4-7.52a25.76,25.76,0,0,0-23.18-6.12c-2.14.53-4.3,1.33-6.48,1.06-2.55-.32-4.66-2-6.95-3.18-7.48-3.79-17.62-1-22.16,6-2.61,4.09-3.64,9.42-7.55,12.29-2.31,1.69-5.5,2.43-7.15,4.63h0a4.64,4.64,0,0,0-.52.81,6.23,6.23,0,0,0-.6,2.75,18.58,18.58,0,0,0,.25,2.89,13.25,13.25,0,0,0,4.2,8.08h0l.57.6.13.14c.4.44.78.88,1.12,1.33l.06.09.32.44c-.14.17-.3.34-.43.51A33.3,33.3,0,0,0,547,299.05v.65c-.09,1.85-.22,3.81-.38,5.81a4.73,4.73,0,0,0-3.77-1.31,3.89,3.89,0,0,0-1.88.18,5.65,5.65,0,0,1-1.07.22c-1.42-.12-2.74-.63-4.13-.48a4.59,4.59,0,0,0-3.89,1.36c-2.74,2.52-12.26,5.79-16.87,6.06a3.06,3.06,0,0,1-1-.25,2.41,2.41,0,0,0-1.52-.14c-2.91-.65-11,5-12.81,8.43-1.93,3.59-8.26,13.26-8.26,13.26s-5.52,6.64-4.69,10.23-1.93,7.74-5.24,9.4-9.92,18.24-9.92,18.24-7.16,15.2-14.61,19.07c-2.91,1.52-3.83,5-3.88,8.75-1.72.09-3,.09-3,.09s-23.15,5.9-30.5,1.47-33.07-5.52-33.07-5.52l-26.26-28.09-1.06-1.14c4.64-3.95-3.17-6.85-3.17-9.75s-2.94-4.06-2.94-4.06-.13.17-.34.4a4.6,4.6,0,0,0-.76-.4,7.29,7.29,0,0,1-2.17,1.85c-.54-.35-.89-1.39-.77-3.69.22-4.49-2.69-9.24-5-12.27,3.3-10.76,9.49-22.86,14.23-31.3.26-.5.54-1,.81-1.45a32.37,32.37,0,0,0,11-50.91c-.34-.39-.69-.76-1-1.13a5.39,5.39,0,0,1,.81-.23,5.16,5.16,0,0,1,1-.1c2.37.06,5.1,1.15,7.31,1a4.53,4.53,0,0,0,2.05-.4c2.42-1.2,1.85-4.42.43-6-1.75-2-4.5-3.33-5.77-5.57a18.42,18.42,0,0,1-1.31-4.28,15.25,15.25,0,0,0-9.31-9.64,19.59,19.59,0,0,0-14.65.32c-2.17,1-4.07,2.31-6.32,3.12-4.65,1.68-10,.76-14.8-.58-2.81-.78-5.61-1.7-8.45-2.33a42.27,42.27,0,0,0-3.89-12.31c-.15-.31-.33-.6-.49-.91,4.8-1.66,11.05-1.36,13.55-5.71a9.68,9.68,0,0,0,4.55-.59c1.37-.69,2.41-2.35,1.85-3.8a2.74,2.74,0,0,0-.61-.92h0a10.44,10.44,0,0,0-2-1.51,11.84,11.84,0,0,1-5.08-9.1.36.36,0,0,0,.07.25c0-.43,0-.85,0-1.27.08-1.91.63-3.79.51-5.7a7.28,7.28,0,0,0-.54-2.31v.15a8.4,8.4,0,0,0-7.9-5.39c-1.25.06-2.48.4-3.73.44-6,.17-10.94-6.56-16.75-5.2-1.24.29-2.41,1-3.68.95-2.93,0-4.74-3.36-7.54-4.24-2.22-.71-4.63.27-7,0s-4.12-1.58-6.08-2.65c-4.18-2.29-9.79-3.3-13.46-.24a12.6,12.6,0,0,1-2.61,2.1,7.66,7.66,0,0,1-3.8.22,35.15,35.15,0,0,0-11.34.77,4.23,4.23,0,0,0-2.6,1.35,7.65,7.65,0,0,0-.82,2.65c-1.12,4.35-6.47,5.82-10.94,6.19a6.2,6.2,0,0,0-3.3.89c-1.61,1.23-1.56,3.7-.85,5.6s1.92,3.63,2.18,5.64c.65,5-4.77,8.87-5.67,13.88-1.26,6.92,6.4,13.72,3.79,20.26-1.15,2.9-4.22,5.14-4.08,8.26s3.15,4.92,5,7.3,2.51,5.17,3.21,8c1.08,4.33,1.28,12.5,5.92,14.58h0a5.36,5.36,0,0,0,.6.24c.25.07.51.14.77.19l-.64.95c-5.46,7.79-11.57,15.37-17.28,20l-.93.06a4.42,4.42,0,0,0-2-.74c-3.31-.37-11.76,5.53-11.76,8.47s-7.75,7.74-16.6,16.21-8.82,49-5.88,56.75c1.16,3.07,2.79,11.06,4.33,19.58a10.79,10.79,0,0,0-4,5.85c-3.31,14,1.47,25.05,5.51,26.16s3-4.81,3-4.81c-3.22-7-3.83-12.41-2.63-16.52,1.48,9.07,2.63,16.52,2.63,16.52s10.66,33.9,14.7,44.22,18.38,74.81,18.38,74.81a62.38,62.38,0,0,0,4.37,4.85l3.34,18.36,5.5,11.06h-.46l-.83,7.91S236.81,609,235,614s-18.22,95.54-18.22,95.54S211.6,741.4,212,749.18l12,2.59s-2.39-6.85,1.11-19.63,10.3-36.65,10.3-36.65l7-31.84.53,22.77s-6.26,28.32-5,29.8,10.85,2,10.85,2,0-15.18,2-23.51c1.77-7.27,21.3-82.53,26.27-101.67a46.9,46.9,0,0,1,21.58-3.5c24.8,1.39,38.67,10.49,46.42,19.82-17.77,9.43-32.74,17.21-32.74,17.21l.18,1h0l-.16.09-.38.23-.19.11-.36.23-.27.15-.41.25-.26.15-.5.29-.23.13-1.64,1-.18.1-.71.41-.21.12-.75.43-.2.12-.85.49L305,632l-1,.57h0l-1,.58-.1.06-.92.51-.25.14-.74.42-.35.21-.68.37-.34.19-.75.41-.26.15-1,.55h0l-.94.52-.26.13-.71.38-.3.16-.62.32-.33.17-.61.32-.27.14-.72.37-.12.06-.81.4-.18.08-.56.27-.24.11-.45.2-.24.11-.39.16-.22.09-.36.14-.17.07-.45.15c-4.73,1.44-8.12,13.49-3,21.24s4.05,21.23,1.35,26.39.67,14.35,1.35,16.65c.51,1.75,6.72,3.65,16.51,3.21a69.16,69.16,0,0,0,15.73-1.2c15.57-2.87,9.81-9.18,8.12-13.77s-2-17.8.34-23.82q.24-.63.42-1.29c3.66-4.09,9.51-10.8,14.19-16.91,2.15-2.81,7.58-5.31,14.19-7.44,5.28,21.75,15.81,64.82,18.14,71.69,3.12,9.26,4.78,32,4.78,32l12.14-1.12-4-60.54-4.35-48.23c5.74-1,10.19-1.64,11.63-1.84,5.92,22.89,11.56,44.7,12.47,48.44,2,8.33,2,23.52,2,23.52s9.57-.56,10.86-2-5-29.82-5-29.82l1.17-50.1c13.74-6.46,30.46-14.26,37.84-17.48,6.95-3,18.49-10.18,28.14-16.48l17,139.42,9.94.83,5.31-1.21,6.83-1.56L538.42,603.4c.62.49,1.19,1,1.69,1.37-.34,3.15-.65,8.49.64,12.38,1.93,5.83,1.65,18.6.27,23.05s-6.07,10.55,6.62,13.33,21.27.28,21.82-1.94,3.31-11.12,1.1-16.08-3-18.09,1.1-25.55,1.38-19.16-2.48-20.55c-2.57-.93-6.33-2.57-8.59-3.59l-.72-.91a18.6,18.6,0,0,1,6-5.23c6.63-3.32,5.25-10.82,5.25-10.82s6.9,0,11.87-8.34c3.48-5.84,7.5-11.67,9.6-15.89.42,2.69.9,6,1.17,8.86.55,5.93,7.36,63.5,10.49,68.32s.55,23,.55,23h10.12L614.19,617s-11.41-81.64-1.84-90c1.67-1.46,3.3-2.95,4.85-4.42l18.88,138.57c-.05,1-.09,1.73-.12,2.27s-.06,1-.06,1-8.1,4.08-2.2,8.14a15.07,15.07,0,0,0,4.16,1.75l.41,3a42.86,42.86,0,0,1-6.41,0c-1.29-.55-1.29,17.21-1.29,17.21s-7.18,14.45-8.1,18-8.1,12.22-8.1,12.22-10.31,7.59,4.78,10.55,31.66-.92,31.66-.92,11-19.26,12-18.15,0,10.19,0,10.19l6.44-1.67s-1.11-12.06,1.47-18.52c2-5.14-2.41-21.39-4.33-27.85l1.2.09s1.1-2.22,2.21-8.9a2.08,2.08,0,0,1,.09-.6,87,87,0,0,1,3.6-14.21c1.83-5.93,0-5.18,0-8.89a134.81,134.81,0,0,1,2-19,2.77,2.77,0,0,1,.11-.56,8.83,8.83,0,0,0,2.68,1.19c1.1,3.08,2.26,6.6,3,9.55-2,.62-3.36,1.34-3.58,2.18-1.11,4.08.36,12.77.36,12.77s1.65,19.63-1.47,22.6-9.57,8.33-5.33,13.89a6.84,6.84,0,0,0,1.47,1.37c3,2.19,8.77,3.77,14.57,4l-2.42,36.28,12,1.12s1.65-22.78,4.79-32c.69-2,2.12-7.36,3.92-14.35,4.55-6.87,7.12-11.76,7.12-11.76l3.13,13,10.85-2.78s-5.89-11.47-5.16-15.54-3.12-9.81-6.24-14.44c-.39-.58-.81-1.31-1.26-2.14,4.65-19,8.8-36.18,8.8-36.18s2.94-38.48,56.13-41.5a46.86,46.86,0,0,1,21.57,3.5c5,19.09,24.52,94.45,26.28,101.67,2,8.33,2,23.51,2,23.51s9.57-.55,10.86-2-5-29.8-5-29.8l.53-22.77,7,31.84s6.81,23.88,10.3,36.66,1.1,19.62,1.1,19.62l12-2.59c.37-7.78-4.79-39.62-4.79-39.62S844.46,603,842.61,598s-1.1-38.32-1.1-38.32l-.81-7.76c13-9.2,20.32-58.34,20.32-58.34l13.57-76.19A91.88,91.88,0,0,0,880,405.14v-.07l1.62,1.83,7.89,19.45c15.63,22,31.28,21.29,31.28,21.29a1.11,1.11,0,0,0,.07-.16,10.35,10.35,0,0,0,8-2.11l.16-.13C934.7,440.78,922.93,408.94,918.14,404.86ZM642,451.75c-.9-3.62-1.88-7.58-2.91-11.74l3.13-.06Zm-47.08-153a8.81,8.81,0,0,0-.94.66c-.29-.74-.56-1.5-.83-2.26A5.23,5.23,0,0,0,594.87,298.75ZM500.24,459.17c-4.69,6.09-5.24,10-5.24,10l1.18.27-8.51,7.61-4.29-36.87,20.75.9C503,450.19,501.63,457.36,500.24,459.17ZM520.37,536s4.28-1,9.86-2.62l-1.77,13.3C523.46,540.2,520.37,536,520.37,536ZM508.85,390l.15-.34V390ZM402.33,481.47c-4.64-2.1-37.42-12.17-49.35-15.82a2.41,2.41,0,0,1-.29-1.87c1.11-3.68-7.35-13.63-10.66-16.21s-7.72-7.37-4-10.32a6.19,6.19,0,0,0,1.79-3.35L374,435.39a83.27,83.27,0,0,0,10,3s5.81-.76,13.45-2L465,439.32l6.42,52.31c-4.21,3.86-7.07,6.56-7.07,6.78,0,.48-4.53,8.2-5.08,18.37l-35.29-11a5.1,5.1,0,0,0,.19-.55C427.56,493.08,408,484.05,402.33,481.47Zm-61.87-56.11c-.06-2.47-.27-4.33-.27-4.33l-.76-8.24c6.66,4.07,13.86,8.59,19,12.12ZM499.78,581.1l.73-.5a10.09,10.09,0,0,0,5-3.46c2.95,2.57,5.7,4.94,8.11,7-2.82,2.6-7.78,6.83-12.45,9.06Zm140.88-57.61-1.3,71.64-9.91-66.38C632.25,527.36,636.63,525.33,640.66,523.49ZM702.56,426s10.66,13.27,18.94,8.84h0c1.86.24,15.41-7.08,24.1-11.9a39.42,39.42,0,0,0,4.21,5.08l5.26-2.72,1-.54c.52,5.71,1.42,15.22,2.15,21.32,1.1,9.17-14.2,21.63-14.34,21.74h0s.06.46.1,1.18c-.75.67-1.2,1-1.2,1l1.23-.22c.11,2.89-.1,8-2.71,9.07-3.67,1.48-5.88,2.58-13.24.37a137,137,0,0,0-27.28-4.48c-12.77-.74-26.44.64-33,8.16-.23.27-.45.56-.66.86s-.22.33-.33.49a3.31,3.31,0,0,0-.66.31,2.7,2.7,0,0,0,.1.62c-3.56,6.42-4.55,18.29-4.33,31.07l-1.1.47-.54.25-.41.2c-.38.17-.76.36-1.14.55l-.68.34-.88.47-1,.55-.57.34c-.42.24-.84.5-1.26.77l-.3.19a16.53,16.53,0,0,0-1.43,1l-.12.1c-.18.12-.35.25-.52.38l1.24-82.12,54.39-1L706.8,431l-8.4-.51A23.31,23.31,0,0,0,702.56,426ZM312.37,630.64l.3-.75c0-.06.05-.12.08-.19L313,629h0l.29,1.57c-.4.23-.8.47-1.22.7.09-.22.17-.44.25-.65Zm192.19-8.49a81.48,81.48,0,0,0,14.37-4L511,677.51Zm135.2,52.53c.72.17,1.47.33,2.24.49v1.73l-2.34.12Z"/><path class="cls-6" d="M325.26,653.22s2,9.38-.34,15.35-2,19-.34,23.6,7.42,10.8-8.09,13.65-26,.28-26.63-2-4.05-11.37-1.35-16.49,3.71-18.48-1.35-26.16-1.69-19.61,3-21,25.09-13.53,25.09-13.53-7.55,13.11.55,16A14.69,14.69,0,0,1,325.26,653.22Z"/><path class="cls-7" d="M495.76,580.48S464.56,602.13,451,608s-58.7,27.15-58.7,27.15-45.48,5.87-52.82,15.41-17.61,20.55-17.61,20.55l-8.07-44.76s89.51-46.23,90.24-49.53S430.46,563.6,355.62,564c-65.58.33-89.75,4.59-95.23-4.48a10,10,0,0,1-1.26-4.69c-.74-15,88.05-81.45,88.05-81.45s4.34,2.26,9.52,5.3c5.68,3.32,12.36,7.59,15.43,10.85,5.87,6.23,20.17,8.07,20.17,8.07l87.32,27.18s25.68,8.07,26.41,30.82S495.76,580.48,495.76,580.48Z"/><path class="cls-2" d="M506,555.54c-.73-22.79-26.41-30.79-26.41-30.79L392.3,497.6s-14.3-1.84-20.17-8.07c-3.07-3.26-9.75-7.53-15.43-10.85-5.18-3-9.52-5.3-9.52-5.3s-88.79,66.4-88.05,81.45a10,10,0,0,0,1.26,4.69c5.48,9.07,29.65,4.81,95.23,4.48,74.84-.37,49.15,9.54,48.42,12.84s-90.24,49.53-90.24,49.53l.18,1c-4.54,2.68-19.78,11.57-23.79,12.77-4.72,1.43-8.09,13.37-3,21s4,21,1.35,26.16.67,14.21,1.35,16.49,11.12,4.83,26.63,2,9.78-9.1,8.09-13.65-2-17.63.34-23.6c.16-.42.3-.85.42-1.28,3.65-4,9.48-10.69,14.14-16.74,7.34-9.54,52.82-15.41,52.82-15.41S437.46,613.84,451,608s44.76-27.51,44.76-27.51S506.77,578.27,506,555.54Zm-190,87c-6.07-2.14-3.35-10-1.61-13.87L317,642.93c-.31-.1-.62-.24-1-.36Z"/><path class="cls-8" d="M382.4,578.1S407.71,675,409.73,683.2s2,23.3,2,23.3,9.54-.55,10.82-2-5-29.53-5-29.53l1.83-78.51L392.6,573.9Z"/><rect class="cls-9" x="316" y="629.78" width="20" height="17"/><path class="cls-6" d="M330.76,653.22s2,9.38-.34,15.35-2,19-.33,23.6,7.41,10.8-8.1,13.65-26,.28-26.63-2-4.05-11.37-1.35-16.49,3.71-18.48-1.35-26.16-1.68-19.61,3-21,25.08-13.53,25.08-13.53-7.54,13.11.55,16A14.71,14.71,0,0,1,330.76,653.22Z"/><path class="cls-6" d="M349.75,464.75s47.87,14.49,53.56,17.06,25.13,11.56,21.83,23.66-30.27,13.4-30.27,13.4l-41.09-15.23L337.64,471Z"/><path class="cls-10" d="M365.34,296.75s-2.36,3.67-5.56,9.29c-.26.46-.54.94-.81,1.44-8.75,15.57-22.49,43.59-13.72,52.55,12.39,12.66-28.34-7.15-28.34-7.15l-1-1.79L299.28,321s13.07-13.2,20.94-24.78c.13-.18.26-.37.38-.56,3.51-5.25,5.88-10.11,5.37-13.18s3.36-2.84,8.87-.9C346.49,285.57,365.34,296.75,365.34,296.75Z"/><path class="cls-2" d="M365.34,296.75s-2.36,3.67-5.56,9.29c-.26.46-.54.94-.81,1.44a32.17,32.17,0,0,1-38.35-10.76c-.13-.17-.25-.35-.38-.54.13-.18.26-.37.38-.56,3.51-5.25,5.88-10.11,5.37-13.18s3.36-2.84,8.87-.9C346.49,285.57,365.34,296.75,365.34,296.75Z"/><path class="cls-10" d="M378.82,276.78A32.19,32.19,0,0,1,346.63,309h0a32.23,32.23,0,0,1-31.32-39.73,32.18,32.18,0,0,1,63.47,7.54Z"/><path class="cls-2" d="M370.74,255.31c-1.94.65-3.22,2-5,3-3.11,1.76-7.24,1.71-10.2,3.43-2.45,1.42-2.45,4.4-3.5,6.76-2.75,6.17-12.69,7.75-17.18,13a10.4,10.4,0,0,0-1,1.39c-2.44,4.12-1,9.08.9,13.42a109.18,109.18,0,0,0,6,12c.4.69.81,1.37,1.23,2.05,2.44,4,5.26,8.41,3.76,12.72-2.44,7-14.38,8.63-17.86,15.33-1,2-1.19,4.23-2.28,6.19-1.83,3.32-5.6,5-9.7,6.49L299.28,321s13.5-13.63,21.32-25.34a32.18,32.18,0,0,1,50.12-40.27Z"/><path class="cls-11" d="M381.31,248.49c-1.74-2-4.48-3.32-5.75-5.55a18.12,18.12,0,0,1-1.31-4.26,15.17,15.17,0,0,0-9.3-9.6,19.66,19.66,0,0,0-14.62.32c-2.16,1-4.07,2.3-6.31,3.11-4.65,1.66-10,.75-14.78-.58s-9.57-3.09-14.62-3.06-10.53,2.52-11.52,6.72a30,30,0,0,0-.32,3.42c-.6,5.08-5.25,9.18-10.29,12s-10.74,4.75-15.41,8-8.32,8.28-7.06,13.28c.78,3.11,3.29,5.65,5.3,8.34,5.07,6.79,7.1,14.85,9,22.73.68,2.74,1.36,5.58.7,8.33-1.18,4.95-6.29,8.39-9.63,12.57-4.14,5.2-5.55,11.7-5.25,18s2.17,12.41,4.1,18.48a23.1,23.1,0,0,0,2.82,6.41c2.43,3.47,6.61,5.75,10.64,7.89a12.48,12.48,0,0,0,5.88,1.94c4.43-.06,7-4.26,7.95-7.93a31.07,31.07,0,0,0,.91-9.31,6.8,6.8,0,0,1,.31-3.32,6.27,6.27,0,0,1,2.56-2.44c6.33-3.8,15.9-4.47,19.18-10.43,1.08-2,1.25-4.2,2.28-6.18,3.47-6.71,15.41-8.31,17.86-15.34,1.5-4.31-1.32-8.74-3.76-12.73a105.41,105.41,0,0,1-7.25-14c-1.85-4.34-3.35-9.3-.91-13.42,3.78-6.39,15.21-7.68,18.19-14.37,1.05-2.35,1.05-5.34,3.5-6.76,3-1.71,7.09-1.68,10.2-3.43,2-1.15,3.4-2.75,5.86-3.27,3.21-.67,7.66,1.91,10.39.55C383.3,253.31,382.73,250.11,381.31,248.49Z"/><path class="cls-2" d="M381,248.49c-1.74-2-4.49-3.32-5.76-5.55a19.11,19.11,0,0,1-1.31-4.26,15,15,0,0,0-8.41-9.2,14,14,0,0,1,4.38,6.63,18.09,18.09,0,0,0,1.3,4.26c1.27,2.23,4,3.56,5.76,5.55,1.42,1.62,2,4.83-.43,6-2.72,1.36-7.17-1.21-10.38-.54-2.46.51-3.83,2.11-5.86,3.26-3.11,1.76-7.24,1.72-10.2,3.44-2.45,1.41-2.45,4.4-3.5,6.75-3,6.69-14.41,8-18.2,14.37-2.44,4.12-.93,9.09.92,13.42a107.77,107.77,0,0,0,7.24,14c2.45,4,5.26,8.41,3.77,12.72-2.45,7-14.39,8.63-17.87,15.34-1,2-1.19,4.22-2.27,6.18-3.29,6-12.86,6.64-19.18,10.43a6.27,6.27,0,0,0-2.56,2.44,6.69,6.69,0,0,0-.31,3.32,31.07,31.07,0,0,1-.91,9.31c-.93,3.68-3.53,7.87-7.95,7.93a12.52,12.52,0,0,1-5.89-1.94c-.88-.47-1.78-1-2.66-1.45a53.87,53.87,0,0,0,6.7,4,12.48,12.48,0,0,0,5.89,1.94c4.42-.06,7-4.26,7.95-7.93a31.06,31.06,0,0,0,.9-9.31,6.81,6.81,0,0,1,.32-3.32,6.24,6.24,0,0,1,2.55-2.44c6.33-3.8,15.9-4.47,19.19-10.43,1.08-2,1.24-4.2,2.27-6.18,3.48-6.71,15.42-8.31,17.86-15.34,1.5-4.31-1.31-8.74-3.76-12.73a106.61,106.61,0,0,1-7.25-14c-1.85-4.34-3.35-9.3-.91-13.42,3.79-6.39,15.21-7.68,18.19-14.37,1.05-2.35,1.06-5.34,3.5-6.76,3-1.71,7.09-1.68,10.2-3.43,2-1.15,3.4-2.75,5.86-3.27,3.21-.67,7.66,1.91,10.39.55C382.93,253.31,382.36,250.11,381,248.49Z"/><path class="cls-12" d="M734,396.5s5,21,16,32.09l4.41-9.58-5.51-17.47Z"/><path class="cls-2" d="M748.9,401.54l-14.86-5s5,21,16,32.09"/><path class="cls-13" d="M928.66,446.58l-.16.13a10.49,10.49,0,0,1-14.31-1.31l-42-47.13-1.09-1.22,22-25.32,4,2.57.9,1.62c3.44,6.05,15.57,27.21,19.64,30.66C922.44,410.62,934.17,442.17,928.66,446.58Z"/><path class="cls-14" d="M516.67,581.75s-11.28,11.56-19,12.66-14,25.87-3.3,27.79,31.36-5.78,34.39-9.08,14-22.84,14-22.84Z"/><path class="cls-13" d="M753.12,419.42l-5.48,3.1c-8.46,4.7-23.91,13.13-25.89,12.86-2.75-.36-3.3-26.22-3.3-26.22l14.63-10.81,1.51-1.13,4.41-1.65Z"/><path class="cls-2" d="M753.12,419.42l-5.48,3.1a33.59,33.59,0,0,0-14.56-24.17l1.51-1.13,4.41-1.65Z"/><path class="cls-15" d="M784.12,389.34l-17.06,30.41-11.81,6.09L750,428.55c1.47-22.92-16-32.09-16-32.09,4.77-1,34.23-27.39,38.55-31.27l.53-.47,4-.55Z"/><path class="cls-16" d="M837.87,553.51l-14.49-11,47.32-157,16.7,6.24-12.66,24.94L860.8,494.45S852.56,549.85,837.87,553.51Z"/><path class="cls-13" d="M894.18,368.78l-49.89-.37s-43.66,12.11-40-5.5c2.29-11-3.15-24.74-7.57-33.49-.53-1.06-1-2.06-1.55-3-1.91-3.54-3.35-5.73-3.35-5.73s5.19-.86,11.74-1.78c3-.44,6.38-.88,9.62-1.27h0c1.7-.21,3.36-.38,4.93-.55,6.42-.63,11.47-.78,11.47.3s1,3.67,2.62,7c.25.53.54,1.08.82,1.63a72.17,72.17,0,0,0,7.9,12.11,29.21,29.21,0,0,0,5.54,5.34,18.71,18.71,0,0,0,2.33,1.37,14.31,14.31,0,0,0,3.88,1.25c5.57.94,10.69-1.49,18,.68C880.61,349.7,894.18,368.78,894.18,368.78Z"/><path class="cls-16" d="M630.56,491.79s-42,23.11-44.58,32.28,6.24,16.51,6.24,16.51,1.47,7.89,2,13.76,7.33,62.92,10.45,67.69.55,22.75.55,22.75h10.14l-.73-27.52s-11.38-80.89-1.84-89.15S630.22,510.5,633,511.23,630.56,491.79,630.56,491.79Z"/><path class="cls-17" d="M578.86,458.5s-27.52,52.55-28.07,59.7-23.94,37.42-23.94,37.42L556,592.49s3.85-9.35,10.46-12.65,5.22-10.73,5.22-10.73,6.88,0,11.84-8.26,11-16.51,11-20.08,36.32-41,36.32-41l-2.75-39.9-7.43-12.66Z"/><path class="cls-2" d="M507.32,461.52l-.24.21c-3.34,3-40.76,36.15-40.76,36.94s-13.48,23.11,3.3,42.37,55.31,50.9,55.31,50.9,16.78,12.11,19,14.59,35.5,0,15.69-22.56-38.52-47.88-38.52-47.88,33-8,35.22-13.48-43.48-74.3-43.48-74.3Z"/><path class="cls-17" d="M506.22,461.61l-.24.21c-3.34,3-40.76,36.15-40.76,36.94s-13.48,23.08,3.34,42.37S523.87,592,523.87,592s16.78,12.11,19,14.59,35.5,0,15.69-22.56S520,536.18,520,536.18s33-8,35.21-13.48,45.68-72.92,45.68-72.92l-89.15-1.38Z"/><path class="cls-18" d="M601.42,313.49l-3.3,30S564.27,357,563.45,356.7s-22.56-19.81-19-32.74c1.8-6.49,2.62-15.48,3-22.82s.31-12.95.31-12.95,49.25-17.61,44.85-5.51c-1.6,4.39-.88,9.67.69,14.59A67.86,67.86,0,0,0,601.42,313.49Z"/><path class="cls-9" d="M300.4,251l-.07.18A156.22,156.22,0,0,0,291,276.8l-.3,1.17a62.8,62.8,0,0,0-2.06,18c.67,13.12,7.33,16.15,7.33,16.15s-100.7-16.5-84.2-19.26c2.66-.44,5.56-2.09,8.58-4.54,5.67-4.62,11.72-12.12,17.12-19.82,2-2.84,3.93-5.72,5.69-8.47.12-.18.25-.37.36-.55,6.58-10.26,11.18-18.9,11.18-18.9S324.07,198.75,300.4,251Z"/><path class="cls-8" d="M799.35,572.75s25.31,96.85,27.33,105.1,2,23.3,2,23.3,9.53-.55,10.82-2-5-29.53-5-29.53l1.83-78.51-26.78-22.56Z"/><path class="cls-16" d="M814.2,541.73c.56,0,25.32.55,25.32.55l1.83,17.43s-.73,33,1.1,38,18.16,94.65,18.16,94.65,5.14,31.55,4.77,39.25l-11.92,2.57s2.38-6.79-1.1-19.44-10.27-36.32-10.27-36.32l-8.62-38.9s-1.47-69-54.48-66-56,41-56,41-18,74.29-21.1,83.47-4.77,31.73-4.77,31.73l-12.1-1.1,4-60,11.19-123.46,34.49-2.38Z"/><path class="cls-8" d="M279.8,588.75s-25.31,96.86-27.33,105.11-2,23.3-2,23.3-9.54-.55-10.82-2,4.91-29.57,4.91-29.57l-1.83-78.51,26.83-22.56Z"/><path class="cls-16" d="M264.94,557.68c-.55,0-25.31.55-25.31.55l-1.84,17.42s.74,33-1.1,38-18.13,94.63-18.13,94.63-5.13,31.55-4.77,39.25l11.93,2.57s-2.39-6.79,1.1-19.44,10.27-36.32,10.27-36.32l8.62-38.89s1.47-69,54.48-66,55.92,41.06,55.92,41.06,18,74.29,21.09,83.46S382,745.71,382,745.71l12.11-1.1-4-60L378.85,561.16l-34.48-2.38Z"/><path class="cls-2" d="M593.31,297.26c-.3.35-.61.68-.91,1a33,33,0,0,1-44.94,2.86c.37-7.29.31-12.95.31-12.95s49.25-17.61,44.85-5.51C591,287.06,591.74,292.34,593.31,297.26Z"/><path class="cls-18" d="M601,274.51a33,33,0,1,1-33-33h0a32.82,32.82,0,0,1,33,32.64Z"/><path class="cls-7" d="M501.26,580.48S470.08,602.13,456.5,608s-58.69,27.15-58.69,27.15S352.32,641,345,650.55s-17.61,20.55-17.61,20.55l-8.07-44.76s89.51-46.23,90.25-49.53S436,563.6,361.12,564c-65.58.33-89.75,4.59-95.23-4.48a10,10,0,0,1-1.26-4.69c-.73-15,88.05-81.45,88.05-81.45s4.34,2.26,9.52,5.3c5.68,3.32,12.36,7.59,15.43,10.85,5.87,6.23,20.18,8.07,20.18,8.07l87.31,27.18s25.69,8,26.44,30.79S501.26,580.48,501.26,580.48Z"/><path class="cls-2" d="M560.7,344.19s-12.93-28.66-17.34-28.66-11.28,148.25-11.28,148.25l67.41,1.06L602.25,387l-13.76-69S576.11,345.25,560.7,344.19Z"/><path class="cls-2" d="M560.7,347.19s-12.93-28.66-17.34-28.66-11.28,148.25-11.28,148.25l76.48,1.16L602.24,390l-13.76-69S576.11,348.25,560.7,347.19Z"/><path class="cls-14" d="M560.7,346.19s-12.93-28.66-17.34-28.66-11.28,148.25-11.28,148.25l76.48,1.13L602.24,389l-13.76-69S576.11,347.19,560.7,346.19Z"/><path class="cls-2" d="M548.15,308.07s-2.31-3.38-5.61-2.28-5.78-1.93-9.08,1.1-16.51,7.15-19,5.77-11.28,4.68-13.21,8.26S493,334.13,493,334.13s-5.5,6.6-4.68,10.18-1.92,7.7-5.23,9.35-9.9,18.16-9.9,18.16-7.15,15.14-14.58,19-1.93,20.63-1.93,20.63l44-1.37,9.91-22.56s-3.85,66-8.53,72.09-5.23,9.9-5.23,9.9,18.16,3.85,22,7.16,14-.83,14-.83l9.9-87.77s3.58-16.51,3.58-25S548.15,308.07,548.15,308.07Z"/><path class="cls-19" d="M547.05,308.07s-2.31-3.38-5.61-2.28-5.78-1.93-9.08,1.1-16.51,7.15-19,5.77-11.28,4.68-13.21,8.26-8.25,13.21-8.25,13.21-5.5,6.6-4.68,10.18-1.92,7.7-5.23,9.35-9.9,18.16-9.9,18.16-7.16,15.14-14.58,19-1.95,20.62-1.95,20.62l44-1.37,10-22.56s-3.85,66-8.53,72.09-5.23,9.9-5.23,9.9,18.16,3.85,22,7.16,14-.83,14-.83l9.9-87.77s3.58-16.51,3.58-25S547.05,308.07,547.05,308.07Z"/><path class="cls-2" d="M486.41,355.86s3.3,9.08,12.38,8.26S486.41,355.86,486.41,355.86Z"/><path class="cls-2" d="M495.21,342.11s6.05,1.1,8.26,6.32S495.21,342.11,495.21,342.11Z"/><path class="cls-2" d="M512.27,332.75c0,1.1,3.85,20.36,0,28.34s-3.3,17.34-3.3,17.34Z"/><path class="cls-2" d="M593.49,301.44s2.15-2.53,4.35-2.26,3.58,1.65,6.33,2.75,9.36,1.38,9.36,2.2,5.78,4.13,9.63,5,16,9.08,19,25,8.24,20.62,8.24,20.62l-29.17,14.31s22.56,95.76,25.33,102.69,3,47.6,3,47.6-17.88,8-22.56,10.46-2.75-23.66-12.38-38.8S594,453.87,594,453.87l-16.77-47.12s-10.73-62.74-1.65-74.29S594.31,305.57,593.49,301.44Z"/><path class="cls-19" d="M594.56,301.44s2.15-2.53,4.35-2.26,3.58,1.65,6.33,2.75,9.36,1.38,9.36,2.2,5.78,4.13,9.63,5,16,9.08,19,25,8.27,20.62,8.27,20.62l-29.17,14.31s22.56,95.76,25.32,102.69,3,47.6,3,47.6-17.88,8-22.56,10.46-2.75-23.66-12.38-38.8-20.64-37.14-20.64-37.14l-16.76-47.12s-10.75-62.72-1.65-74.27S595.41,305.57,594.56,301.44Z"/><path class="cls-2" d="M654.25,421.9c-.81.13-1.85.25-3,.36-8.81.81-26.12,1-26.12,1s-12.93-25.59-23.93-24.77c0,0,10.18-11.55,14.3-10.18.7.23,1.13-.27,1.33-1.26,1.11-4.91-2.7-21.85-2.7-21.85l-5.23-22.84,30.27,7.43c2.75.55,11.28,4.95,11.28,4.95s.27,11.83,2.47,14.59,4.68,15.95,4.41,19.26,3,18.71-.28,22.83S661.13,420.8,654.25,421.9Z"/><path class="cls-19" d="M655.35,421.9c-.81.13-1.85.25-3,.36-8.81.81-26.12,1-26.12,1s-12.93-25.59-23.93-24.77c0,0,10.18-11.55,14.3-10.18.7.23,1.13-.27,1.34-1.26,1.1-4.91-2.71-21.85-2.71-21.85L610,342.36l30.27,7.43c2.75.55,11.28,4.95,11.28,4.95s.27,11.83,2.47,14.59,4.68,15.95,4.41,19.26,3,18.71-.28,22.83S662.23,420.8,655.35,421.9Z"/><path class="cls-2" d="M624.26,361.92s25.31,2.75,26.41,9.08S624.26,361.92,624.26,361.92Z"/><path class="cls-14" d="M541.16,602.13s-1.65,9.08.28,14.85,1.65,18.44.27,22.84-6,10.46,6.61,13.21,21.18.27,21.73-1.93,3.3-11,1.1-16-3-17.88,1.1-25.31,1.38-19-2.47-20.36-10.46-4.4-10.46-4.4,7.16,12.93.55,15.68S541.16,602.13,541.16,602.13Z"/><path class="cls-2" d="M601.42,274.51a32.82,32.82,0,0,1-9,22.66.8.8,0,0,1-.08-.16,14.35,14.35,0,0,1-1.84-6.56c.09-2.77,1.68-5.27,2.2-8,.65-3.45-.48-7-1.59-10.3-.82-2.44-2.39-5.4-5-5.11a5.48,5.48,0,0,1-1.51.18c-1.37-.21-1.64-2-1.8-3.36a15.23,15.23,0,0,0-12.44-13.05,3.74,3.74,0,0,0-2.17.14c-1,.43-1.48,1.47-2.34,2.06-2.79,1.94-6.35-1.77-9.74-1.49-2.88.25-4.64,3.2-5.83,5.84s-2.68,5.64-5.5,6.26a1.74,1.74,0,0,1-1.34-.15c-.88-.64-.27-2,.18-3,1.16-2.62.38-4.7-1-6.56a33,33,0,0,1,58.81,20.61Z"/><path class="cls-20" d="M543.64,259.36c-.44,1-1,2.36-.16,3a1.71,1.71,0,0,0,1.33.15c2.82-.61,4.31-3.63,5.5-6.26s3-5.6,5.83-5.84c3.4-.28,7,3.42,9.74,1.49.86-.59,1.39-1.63,2.34-2.06a3.92,3.92,0,0,1,2.17-.14,15.24,15.24,0,0,1,12.45,13.05c.14,1.36.42,3.15,1.78,3.36a5.6,5.6,0,0,0,1.52-.18c2.56-.29,4.13,2.66,4.94,5.1,1.12,3.34,2.25,6.86,1.6,10.32-.51,2.73-2.11,5.23-2.2,8-.07,2.29.89,4.46,1.84,6.55s2.49,4.52,4.76,4.23c1.86-.24,2.89-2.22,3.78-3.87s2.5-3.43,4.31-2.91c.81.24,1.65.92,2.38.51a1.71,1.71,0,0,0,.69-1.2c.88-3.85-.38-8.17,1.49-11.64,1.44-2.68,4.36-4.12,6.73-6a19.29,19.29,0,0,0,3-27.1l-.42-.5c-2.54-3-6.19-5.6-6.39-9.49-.16-3,1.84-5.71,1.87-8.69s-1.84-5.48-4-7.45a25.62,25.62,0,0,0-23-6c-2.13.51-4.28,1.3-6.45,1-2.53-.31-4.63-2-6.91-3.15a17.66,17.66,0,0,0-22,6c-2.61,4-3.63,9.35-7.52,12.19-2.56,1.87-6.22,2.57-7.63,5.4-.85,1.7-.61,3.72-.35,5.6a13.08,13.08,0,0,0,4.18,8C543.2,253.21,545.24,255.75,543.64,259.36Z"/><polygon class="cls-21" points="512 676.97 511.73 730.62 501.82 729.79 465.78 436.76 476.42 436.44 483.94 436.21 512 676.97"/><polygon class="cls-22" points="511.45 730.62 501.54 729.79 465.5 436.76 476.14 436.44 475.68 438.13 511.45 730.62"/><polygon class="cls-21" points="559.43 437.31 523.1 727.87 516.3 729.41 511 730.62 511.27 676.97 543.19 438.41 543.82 438.36 559.43 437.31"/><polygon class="cls-22" points="516.23 729.25 516.3 729.41 511 730.62 511.27 676.97 543.19 438.41 543.82 438.36 550.34 439.78 516.23 729.25"/><polygon class="cls-22" points="642.97 616.16 642.14 635.21 639.94 686.05 605.83 437.03 613.62 436.18 616.01 435.93 642.97 616.16"/><polygon class="cls-21" points="642.97 616.16 642.14 635.21 614.08 438.41 613.62 436.18 616.01 435.93 642.97 616.16"/><polygon class="cls-22" points="654 526.73 653 648.07 648.55 647.9 638.84 647.52 642.7 435.11 650.1 436.03 654 436.48 654 526.73"/><polygon class="cls-21" points="652 526.73 652.87 648.08 648 647.89 648 436.03 654 436.48 652 526.73"/><polygon class="cls-22" points="337.28 434.28 337.83 425.77 385.15 425.77 527.41 425.77 637.19 430.15 707.08 431.53 707.91 439.23 528.23 442.54 337.28 434.28"/><polygon class="cls-21" points="337.83 425.73 478.15 431.77 707.08 431.23 535.94 420.76 337.83 425.73"/><path class="cls-2" d="M300.4,251l-.07.18A156.22,156.22,0,0,0,291,276.8l-.3,1.17a42,42,0,0,1-11.79,1.68c-10.62,0-15.41-11.14-22.84-17.61-2.92-2.53-10.42,1.77-12.55-1.47a6.49,6.49,0,0,1-.36-.55c.12-.18.25-.37.36-.55,6.58-10.26,11.18-18.9,11.18-18.9S324.07,198.75,300.4,251Z"/><path class="cls-9" d="M321.32,236.17a42.37,42.37,0,1,1-4.41-18.82A42.37,42.37,0,0,1,321.32,236.17Z"/><path class="cls-2" d="M296,312.11s-100.7-16.5-84.2-19.26c2.66-.44,5.56-2.09,8.58-4.54a7.07,7.07,0,0,1,1.33,2.34l18.71-2.2s23.85-5.14,33.38.74A75.25,75.25,0,0,0,288.67,296C289.34,309.08,296,312.11,296,312.11Z"/><path class="cls-2" d="M362.2,478.65a5.58,5.58,0,0,1-1.81.94c-4.77,1.47-10.65,23.48-10.65,23.48s-61.12,58.68-83.85,56.42a10,10,0,0,1-1.26-4.69c-.73-15,88.05-81.45,88.05-81.45S357,475.61,362.2,478.65Z"/><path class="cls-23" d="M523,416.9c0,5.57-9.74,11.14-21.76,11.14s-21.72-5.57-21.72-11.14,9.74-9,21.75-9S523,411.33,523,416.9Z"/><path class="cls-2" d="M523,416.9c0,5.57-9.74,11.14-21.76,11.14s-21.72-5.57-21.72-11.14,9.74-9,21.75-9S523,411.33,523,416.9Z"/><ellipse class="cls-23" cx="501.29" cy="416.9" rx="21.75" ry="10.08"/><ellipse class="cls-24" cx="501.35" cy="417.28" rx="12.98" ry="5.23"/><path class="cls-25" d="M531.4,405.14c-.44-2.74-4-4.54-8.68-4.64a19.59,19.59,0,0,0-3.67.26c-6.26,1-10.89,4.6-10.34,8,.43,2.7,4,4.5,8.53,4.63a20.23,20.23,0,0,0,3.81-.25C527.32,412.16,532,408.56,531.4,405.14Zm-10.63,6.27a13.39,13.39,0,0,1-2,.18c-3.62.1-6.53-1.23-6.87-3.32-.39-2.46,2.93-5,7.42-5.76a14,14,0,0,1,3.23-.16c3,.21,5.32,1.46,5.61,3.3C528.56,408.11,525.26,410.69,520.77,411.41Z"/><path class="cls-25" d="M511.74,416.39a2.33,2.33,0,0,1-.53,1.43c-1.36,1.79-5.18,3.08-9.69,3.08-4.2,0-7.81-1.11-9.39-2.71a2.57,2.57,0,0,1-.84-1.8c0-2.5,4.58-4.52,10.23-4.52S511.74,413.89,511.74,416.39Z"/><path class="cls-2" d="M511.74,416.35a2.36,2.36,0,0,1-.53,1.43,19.71,19.71,0,0,1-8.7,2h-2.45a19.84,19.84,0,0,1-7.93-1.65,2.61,2.61,0,0,1-.84-1.8c0-2.5,4.58-4.52,10.23-4.52S511.74,413.85,511.74,416.35Z"/><path class="cls-2" d="M522.72,400.5a14.27,14.27,0,0,1-.15,1.85,14,14,0,0,0-3.23.16c-4.49.73-7.81,3.3-7.42,5.76.34,2.09,3.25,3.42,6.87,3.32a20.81,20.81,0,0,1-1.55,1.83c-4.56-.13-8.1-1.93-8.53-4.63-.55-3.43,4.08-7,10.34-8A19.61,19.61,0,0,1,522.72,400.5Z"/><path class="cls-25" d="M480,396.78v2.87a20,20,0,0,0,19.77,20.13h2.51A20,20,0,0,0,522,399.65v-2.87Z"/><ellipse class="cls-26" cx="501.19" cy="396.31" rx="21.09" ry="6"/><ellipse class="cls-2" cx="501.29" cy="395.93" rx="19.99" ry="5.42"/><ellipse class="cls-27" cx="501.35" cy="395.73" rx="19.53" ry="5.42"/><path class="cls-28" d="M487.45,397.17a.55.55,0,1,1,.55-.55h0A.55.55,0,0,1,487.45,397.17Zm-.38-.89a.35.35,0,1,0,.35.35.35.35,0,0,0-.35-.35Z"/><path class="cls-28" d="M487.46,396a.55.55,0,1,1,.54-.56h0A.55.55,0,0,1,487.46,396Zm.25-.9a.35.35,0,1,0,.34.36h0A.35.35,0,0,0,487.71,395.12Z"/><path class="cls-28" d="M487.07,394.27a.55.55,0,1,1,.55-.55h0A.55.55,0,0,1,487.07,394.27Zm0-.9a.35.35,0,1,0,.35.35h0A.35.35,0,0,0,487.07,393.37Z"/><path class="cls-28" d="M491.46,398.35a.55.55,0,1,1,.54-.56h0A.55.55,0,0,1,491.46,398.35Zm-.11-.9a.34.34,0,0,0-.35.33v0a.35.35,0,0,0,.29.4.34.34,0,0,0,.4-.28.24.24,0,0,0,0-.12.34.34,0,0,0-.33-.35Z"/><path class="cls-28" d="M507.3,397.27a.55.55,0,1,1,.55-.55A.55.55,0,0,1,507.3,397.27Zm0-.9a.35.35,0,0,0,0,.7h0a.35.35,0,0,0,0-.7Z"/><path class="cls-28" d="M510.9,398.69a.55.55,0,1,1,.55-.55h0A.55.55,0,0,1,510.9,398.69Zm.1-.9a.35.35,0,1,0,.35.35.35.35,0,0,0-.35-.35h0Z"/><path class="cls-28" d="M511,396.37a.55.55,0,1,1,.55-.55h0A.55.55,0,0,1,511,396.37Zm0-.9a.35.35,0,1,0,.35.35h0A.35.35,0,0,0,511,395.47Z"/><path class="cls-28" d="M512.72,392.78a.55.55,0,0,1-.55-.55.55.55,0,0,1,1.1,0h0a.54.54,0,0,1-.53.55Zm.28-1a.38.38,0,0,0,0,.75.34.34,0,0,0,.4-.28.24.24,0,0,0,0-.12.35.35,0,0,0-.33-.37h0Z"/><path class="cls-28" d="M511.45,397.75a.55.55,0,1,1,.55-.55h0A.55.55,0,0,1,511.45,397.75Zm.55-.89a.35.35,0,1,0,.35.35h0a.36.36,0,0,0-.32-.38h0Z"/><path class="cls-28" d="M513.46,396.63a.55.55,0,1,1,.54-.56h0A.55.55,0,0,1,513.46,396.63Zm.54-.9a.35.35,0,1,0,.34.36h0a.35.35,0,0,0-.34-.33Z"/><path class="cls-28" d="M513.46,397.78a.56.56,0,0,1-.56-.54.54.54,0,0,1,.54-.56.55.55,0,0,1,.56.54h0a.54.54,0,0,1-.53.55Zm.23-.75a.35.35,0,0,0-.4.29.34.34,0,0,0,.28.4h.12a.35.35,0,0,0,.4-.29.34.34,0,0,0-.28-.4Z"/><path class="cls-28" d="M513.07,394.62a.55.55,0,1,1,.55-.55h0A.55.55,0,0,1,513.07,394.62Zm-.07-.9a.35.35,0,1,0,.35.35h0a.36.36,0,0,0-.35-.32Z"/><path class="cls-28" d="M516.07,393.92a.55.55,0,1,1,.55-.55h0A.55.55,0,0,1,516.07,393.92Zm0-.9a.35.35,0,1,0,.35.35h0a.35.35,0,0,0-.35-.35Z"/><path class="cls-28" d="M507.3,392.6a.55.55,0,1,1,.55-.55A.55.55,0,0,1,507.3,392.6Zm0-.9a.35.35,0,0,0,0,.7h0a.35.35,0,0,0,0-.7Z"/><path class="cls-28" d="M505.22,391.75a.55.55,0,1,1,.55-.55h0A.55.55,0,0,1,505.22,391.75Zm-.22-.89s-.13.16-.13.35a.35.35,0,0,0,.35.35c.19,0,.35-.16-.22-.35h0c.59-.19.45-.37.26-.39H505Z"/><path class="cls-28" d="M500.46,392.05a.55.55,0,1,1,.54-.56h0A.55.55,0,0,1,500.46,392.05Zm.18-.9a.35.35,0,1,0,.34.36h0A.35.35,0,0,0,500.64,391.15Z"/><path class="cls-28" d="M504.46,397.45a.55.55,0,1,1,.54-.56h0A.55.55,0,0,1,504.46,397.45Zm.1-.9a.35.35,0,1,0,.35.35A.35.35,0,0,0,504.56,396.55Z"/><path class="cls-28" d="M489.69,398a.55.55,0,1,1,.55-.55h0A.55.55,0,0,1,489.69,398Zm0-.9a.35.35,0,1,0,.35.35h0A.35.35,0,0,0,489.69,397.1Z"/><path class="cls-28" d="M492,396.75a.55.55,0,1,1,.55-.55h0A.55.55,0,0,1,492,396.75Zm0-.9a.35.35,0,1,0,.35.35h0a.36.36,0,0,0-.32-.38h0Z"/><path class="cls-28" d="M494.45,397.37a.55.55,0,1,1,.55-.55h0A.55.55,0,0,1,494.45,397.37Zm-.48-.89a.35.35,0,1,0,.35.35.35.35,0,0,0-.35-.35Z"/><path class="cls-28" d="M494.45,396a.55.55,0,1,1,.55-.55h0A.55.55,0,0,1,494.45,396Zm-.13-.89a.35.35,0,1,0,.35.35.35.35,0,0,0-.35-.35Z"/><path class="cls-28" d="M494.45,394.75a.55.55,0,1,1,.55-.55h0A.55.55,0,0,1,494.45,394.75Zm-.45-.89a.35.35,0,1,0,.35.35h0a.36.36,0,0,0-.35-.32Z"/><path class="cls-28" d="M494.88,399.13a.55.55,0,1,1,.55-.55h0A.55.55,0,0,1,494.88,399.13Zm0-.9a.35.35,0,1,0,.35.35h0A.35.35,0,0,0,494.88,398.23Z"/><path class="cls-28" d="M500.46,399.26a.55.55,0,1,1,.54-.56h0A.55.55,0,0,1,500.46,399.26Zm-.11-.9a.35.35,0,1,0,.34.36h0a.35.35,0,0,0-.34-.35Z"/><path class="cls-28" d="M499.66,397.92a.55.55,0,1,1,.55-.55h0A.55.55,0,0,1,499.66,397.92Zm0-.89a.35.35,0,1,0,.35.35h0A.35.35,0,0,0,499.65,397Z"/><path class="cls-28" d="M496.46,397.27a.55.55,0,1,1,.54-.56h0A.55.55,0,0,1,496.46,397.27Zm.45-.9a.35.35,0,1,0,.35.35A.35.35,0,0,0,496.91,396.37Z"/><path class="cls-28" d="M502.78,395.11a.55.55,0,1,1,.55-.55h0A.55.55,0,0,1,502.78,395.11Zm0-.9a.35.35,0,1,0,.35.35h0A.35.35,0,0,0,502.78,394.21Z"/><path class="cls-28" d="M500.29,396.63a.55.55,0,1,1,.55-.55h0A.55.55,0,0,1,500.29,396.63Zm-.29-.9a.35.35,0,1,0,.35.35h0a.34.34,0,0,0-.35-.33Z"/><path class="cls-28" d="M503.19,393.53a.55.55,0,1,1,.55-.55h0A.55.55,0,0,1,503.19,393.53Zm0-.9a.35.35,0,1,0,.35.35h0A.35.35,0,0,0,503.19,392.63Z"/><path class="cls-28" d="M503,392a.55.55,0,1,1,.55-.55h0A.55.55,0,0,1,503,392Zm0-.9a.35.35,0,1,0,.35.35h0A.35.35,0,0,0,503,391.14Z"/><path class="cls-28" d="M501.83,393.57a.55.55,0,1,1,.55-.55h0A.55.55,0,0,1,501.83,393.57Zm0-.9a.35.35,0,1,0,.35.35h0A.35.35,0,0,0,501.83,392.67Z"/><path class="cls-28" d="M499.45,395.78a.56.56,0,0,1-.55-.56.54.54,0,0,1,.55-.54.55.55,0,0,1,.55.55h0a.54.54,0,0,1-.54.54Zm-.44-.52a.35.35,0,0,0-.4.29.34.34,0,0,0,.28.4H499a.35.35,0,0,0,.4-.29.34.34,0,0,0-.28-.4Z"/><path class="cls-28" d="M496.46,395.78a.56.56,0,0,1-.56-.54.54.54,0,0,1,.54-.56.55.55,0,0,1,.56.54h0a.54.54,0,0,1-.53.55Zm.45-.92a.35.35,0,0,0-.4.29.34.34,0,0,0,.28.4h.12a.35.35,0,0,0,.4-.29.34.34,0,0,0-.28-.4Z"/><path class="cls-28" d="M499.66,393.18a.55.55,0,1,1,.55-.55h0A.55.55,0,0,1,499.66,393.18Zm0-.9a.35.35,0,1,0,.35.35h0A.35.35,0,0,0,499.66,392.28Z"/><path class="cls-28" d="M495.62,393.75a.35.35,0,1,1,.35-.35h0A.35.35,0,0,1,495.62,393.75Zm0-.57a.22.22,0,1,0,.22.22A.22.22,0,0,0,495.62,393.18Z"/><path class="cls-28" d="M496.68,394.42a.35.35,0,1,1,.35-.35h0A.35.35,0,0,1,496.68,394.42Zm0-.57a.22.22,0,1,0,.22.22.22.22,0,0,0-.22-.22Z"/><path class="cls-28" d="M501.88,391.62a.35.35,0,1,1,.35-.35h0A.35.35,0,0,1,501.88,391.62Zm0-.57a.22.22,0,1,0,.22.22h0A.22.22,0,0,0,501.88,391.05Z"/><path class="cls-28" d="M502.64,397.47a.35.35,0,1,1,.35-.35h0A.35.35,0,0,1,502.64,397.47Zm0-.57a.22.22,0,1,0,.22.22A.22.22,0,0,0,502.64,396.9Z"/><path class="cls-28" d="M503.56,397.88a.35.35,0,1,1,.35-.35h0A.35.35,0,0,1,503.56,397.88Zm0-.57a.22.22,0,1,0,.22.22h0a.22.22,0,0,0-.22-.22Z"/><path class="cls-28" d="M502.44,396.5a.35.35,0,1,1,.35-.35h0a.35.35,0,0,1-.35.35Zm0-.57a.22.22,0,1,0,.22.22.22.22,0,0,0-.22-.22Z"/><path class="cls-28" d="M509.65,393.25a.35.35,0,1,1,.35-.35h0A.35.35,0,0,1,509.65,393.25Zm-.43-.57a.22.22,0,0,0-.22.22h0a.22.22,0,1,0,.44,0h0a.22.22,0,0,0-.21-.23Z"/><path class="cls-28" d="M509.7,394.14a.35.35,0,1,1,.34-.36h0A.35.35,0,0,1,509.7,394.14Zm0-.57a.22.22,0,1,0,.22.22.22.22,0,0,0-.22-.22Z"/><path class="cls-28" d="M509.35,394.48a.35.35,0,0,1-.35-.35.33.33,0,0,1,.33-.35h0a.35.35,0,0,1,.35.35A.35.35,0,0,1,509.35,394.48Zm0-.08a.21.21,0,0,0-.22.2v0a.22.22,0,1,0,.22-.22Z"/><path class="cls-28" d="M508.65,397.52a.35.35,0,1,1,.35-.35h0A.35.35,0,0,1,508.65,397.52Zm-.43-.57a.22.22,0,0,0-.22.22h0a.22.22,0,1,0,.44,0h0a.22.22,0,0,0-.21-.23Z"/><path class="cls-28" d="M514,395.13a.35.35,0,1,1,.35-.35.35.35,0,0,1-.35.35Zm0-.57a.22.22,0,1,0,.22.22h0a.22.22,0,0,0-.22-.22Z"/><path class="cls-28" d="M505.77,397.25a.35.35,0,1,1,.35-.35h0A.35.35,0,0,1,505.77,397.25Zm0-.57a.22.22,0,1,0,.22.22h0A.22.22,0,0,0,505.77,396.68Z"/><path class="cls-28" d="M508.66,395.82a.35.35,0,1,1,.35-.35h0A.35.35,0,0,1,508.66,395.82Zm0-.57a.22.22,0,1,0,.22.22A.22.22,0,0,0,508.66,395.25Z"/><path class="cls-28" d="M507.5,398.23a.35.35,0,1,1,.35-.35h0a.35.35,0,0,1-.35.35Zm0-.57a.22.22,0,1,0,.22.22.22.22,0,0,0-.22-.22Z"/><path class="cls-28" d="M515.12,395.81a.35.35,0,0,1-.35-.35.35.35,0,0,1,.29-.4.34.34,0,0,1,.4.28.24.24,0,0,1,0,.12A.35.35,0,0,1,515.12,395.81Zm0-.58a.22.22,0,0,0-.27.18.23.23,0,0,0,.17.27h.1a.23.23,0,0,0,0-.45Z"/><path class="cls-28" d="M510.68,392.05a.35.35,0,1,1,.34-.36h0A.35.35,0,0,1,510.68,392.05Zm0-.57a.22.22,0,1,0,.22.22A.22.22,0,0,0,510.68,391.48Z"/><path class="cls-28" d="M498.88,391.62a.35.35,0,1,1,.35-.35h0A.35.35,0,0,1,498.88,391.62Zm0-.57a.22.22,0,1,0,.22.22h0A.22.22,0,0,0,498.88,391.05Z"/><path class="cls-28" d="M488.94,394.56a.35.35,0,1,1,.35-.35h0a.35.35,0,0,1-.35.35Zm0-.57a.22.22,0,1,0,.22.22h0a.22.22,0,0,0-.22-.22Z"/><path class="cls-28" d="M497.61,392.05a.35.35,0,1,1,.35-.35h0A.35.35,0,0,1,497.61,392.05Zm0-.57a.22.22,0,1,0,.22.22A.22.22,0,0,0,497.61,391.48Z"/><path class="cls-28" d="M489.85,396.17a.35.35,0,1,1,.35-.35h0A.35.35,0,0,1,489.85,396.17Zm0-.57a.22.22,0,0,0,0,.44h0a.22.22,0,0,0,0-.44Z"/><path class="cls-28" d="M491.11,394.07a.35.35,0,1,1,.34-.36h0A.35.35,0,0,1,491.11,394.07Zm0-.57a.22.22,0,1,0,.22.22A.22.22,0,0,0,491.11,393.5Z"/><path class="cls-28" d="M484.79,395.51a.35.35,0,1,1,.35-.35h0A.35.35,0,0,1,484.79,395.51Zm0-.57a.22.22,0,1,0,.22.22h0a.22.22,0,0,0-.22-.22Z"/><path class="cls-28" d="M493.62,398.58a.35.35,0,1,1,.35-.35A.35.35,0,0,1,493.62,398.58Zm0-.57a.22.22,0,1,0,.22.22A.22.22,0,0,0,493.62,398Z"/><path class="cls-28" d="M496.14,398.75a.35.35,0,1,1,.35-.35A.35.35,0,0,1,496.14,398.75Zm0-.57a.22.22,0,1,0,.22.22A.22.22,0,0,0,496.14,398.18Z"/><circle class="cls-28" cx="485.89" cy="396.53" r="0.27"/><circle class="cls-28" cx="487.9" cy="392.67" r="0.27"/><circle class="cls-28" cx="490.67" cy="394.42" r="0.27"/><circle class="cls-28" cx="488.87" cy="391.92" r="0.27"/><circle class="cls-28" cx="498.99" cy="393.79" r="0.27"/><circle class="cls-28" cx="490.24" cy="393.37" r="0.27"/><circle class="cls-28" cx="489.22" cy="393.25" r="0.27"/><circle class="cls-28" cx="491.22" cy="395.33" r="0.27"/><circle class="cls-28" cx="506.42" cy="393.72" r="0.27"/><circle class="cls-28" cx="510.48" cy="394.51" r="0.27"/><circle class="cls-28" cx="509.35" cy="398" r="0.27"/><circle class="cls-28" cx="510.9" cy="396.83" r="0.27"/><circle class="cls-28" cx="506.34" cy="398.27" r="0.27"/><circle class="cls-28" cx="505.32" cy="393.69" r="0.27"/><circle class="cls-28" cx="501.94" cy="397.66" r="0.27"/><circle class="cls-28" cx="508.05" cy="394.62" r="0.27"/><circle class="cls-28" cx="505.08" cy="398.54" r="0.27"/><circle class="cls-28" cx="492.83" cy="398" r="0.27"/><circle class="cls-28" cx="509.7" cy="395.53" r="0.27"/><circle class="cls-28" cx="516.07" cy="395.06" r="0.27"/><circle class="cls-28" cx="514.24" cy="393.45" r="0.2"/><circle class="cls-28" cx="507.85" cy="393.02" r="0.2"/><circle class="cls-28" cx="495.62" cy="395.53" r="0.2"/><circle class="cls-28" cx="512.44" cy="394.96" r="0.2"/><circle class="cls-28" cx="506.54" cy="392.71" r="0.2"/><circle class="cls-28" cx="511.57" cy="393.66" r="0.2"/><circle class="cls-28" cx="508.53" cy="391.62" r="0.2"/><circle class="cls-28" cx="506.34" cy="391.27" r="0.2"/><circle class="cls-28" cx="496.34" cy="392.25" r="0.2"/><circle class="cls-28" cx="498.54" cy="392.51" r="0.2"/><circle class="cls-28" cx="492.98" cy="394.51" r="0.2"/><circle class="cls-28" cx="504.18" cy="394.62" r="0.2"/><circle class="cls-28" cx="505.47" cy="394.92" r="0.2"/><circle class="cls-28" cx="498.09" cy="395.27" r="0.2"/><circle class="cls-28" cx="501.35" cy="395.62" r="0.2"/><circle class="cls-28" cx="497.84" cy="393.13" r="0.2"/><circle class="cls-28" cx="505.22" cy="395.62" r="0.2"/><circle class="cls-28" cx="504.11" cy="395.82" r="0.2"/><circle class="cls-28" cx="487.07" cy="392.71" r="0.2"/><circle class="cls-28" cx="493.82" cy="393.45" r="0.2"/><circle class="cls-28" cx="491.49" cy="391.92" r="0.2"/><circle class="cls-28" cx="490.56" cy="395.6" r="0.2"/><circle class="cls-28" cx="491.66" cy="393.15" r="0.2"/><circle class="cls-28" cx="485.25" cy="393.99" r="0.2"/><circle class="cls-28" cx="513.01" cy="393.15" r="0.2"/><circle class="cls-28" cx="515.31" cy="392.82" r="0.27"/><circle class="cls-28" cx="517.24" cy="395.73" r="0.27"/><circle class="cls-28" cx="515.8" cy="394.27" r="0.27"/><circle class="cls-28" cx="516.42" cy="396.17" r="0.27"/><circle class="cls-28" cx="517.24" cy="394.69" r="0.27"/><circle class="cls-28" cx="515.03" cy="394.42" r="0.27"/><circle class="cls-28" cx="518.11" cy="394.42" r="0.27"/><circle class="cls-28" cx="492.35" cy="393.85" r="0.27"/><circle class="cls-28" cx="496.23" cy="391.19" r="0.27"/><circle class="cls-28" cx="500.99" cy="396.95" r="0.27"/><circle class="cls-28" cx="495" cy="391.15" r="0.27"/><circle class="cls-28" cx="493.33" cy="391.38" r="0.27"/><circle class="cls-28" cx="500.68" cy="392.9" r="0.27"/><circle class="cls-28" cx="485.98" cy="394.78" r="0.27"/><circle class="cls-28" cx="488.4" cy="397.25" r="0.27"/><circle class="cls-28" cx="497.62" cy="398.46" r="0.27"/><circle class="cls-28" cx="495.51" cy="397.25" r="0.27"/><circle class="cls-28" cx="501.88" cy="398.73" r="0.27"/><path class="cls-2" d="M494.56,392s-10.93.53-5.78,4,19.93,1.53,19.93,1.53,8.17-2.06,2.92-4.49-13.19-.89-13.19-.89-9.06,1.66-2.09,3.12c0,0,8.4.76,8.77-.93s-4.72-.5-4.72-.5,2.69.6.83.9-4-.2-4-.73,2.76-.93,3.56-.9,5-.66,6.56,1.2a.69.69,0,0,1-.06,1,.76.76,0,0,1-.19.12c-1.48.63-5.31,1.82-11.43.88C487.64,395.06,494.56,392,494.56,392Z"/><path class="cls-29" d="M240.42,289.55s23.85-5.13,33.39.74a78.44,78.44,0,0,0,20.54,8.46s17.61,4.41,23.48,10.64,11.37,2.2,13.94,10.28S342,335.44,342,335.44l-3.67,54.66,2.94,31.56s1.47,13.2-2.2,16.14.73,7.7,4,10.27,11.74,12.47,10.64,16.14,8.81,7.71,8.81,7.71.36,6.23-4.4,7.7-10.6,23.45-10.6,23.45-64.22,61.68-85.49,56.13S225,533.89,225,533.89s-14.31-64.2-18.34-74.48-14.68-44-14.68-44-5.87-38.89-8.8-46.59-2.94-48.06,5.87-56.5,16.5-13.23,16.5-16.16,8.44-8.81,11.74-8.44,4.4,4,4.4,4Z"/><path class="cls-9" d="M504.2,412.82c-10.28,18-49.16,14.31-49.16,14.31s-13.57-2.94-22,1.84-48.07,9.9-48.07,9.9-15-3.3-18.71-8.08c-3.19-4.15-33.6-22.19-41.45-26.8l-1.56-.92h0a1.28,1.28,0,0,1-.25-.15l.06-.07,32.59-41,5.33,5.7,26.21,28s25.69,1.1,33,5.51,30.46-1.47,30.46-1.47,11.37,0,12.1-2.56S514.47,394.85,504.2,412.82Z"/><path class="cls-2" d="M316.91,216.92a9.41,9.41,0,0,0-5,3.18c-1.93,2.62-1.68,6.2-2.42,9.37-1.22,5.18-5.27,9.86-4.5,15.12.28,1.85,1.09,3.92,0,5.43-1,1.35-3.06,1.35-4.63.76h-.12c-4.07-1.64-6.3-5.87-9.19-9.17s-8.11-5.74-11.46-2.92c-2.81,2.37-2.31,6.72-2,10.4s-.76,8.38-4.38,9c-1.45.27-3-.26-4.41.07-4.55,1.06-4.19,8.92-8.62,10.36-1.55.49-3.24,0-4.83-.39a15.7,15.7,0,0,0-4.1-.36c-4.66.09-9.53,1.5-13.67.32,2.15-3,4.19-6.09,6.05-9A42.37,42.37,0,1,1,316.94,217Z"/><path class="cls-30" d="M255.27,267.43c1.6.38,3.27.88,4.83.38,4.44-1.43,4.08-9.3,8.61-10.35,1.44-.34,3,.19,4.42-.06,3.62-.65,4.65-5.36,4.38-9s-.76-8,2.05-10.39c3.35-2.82,8.57-.36,11.46,2.92s5.12,7.54,9.18,9.17c1.6.65,3.73.67,4.76-.72s.29-3.57,0-5.42c-.77-5.27,3.28-9.94,4.5-15.13.74-3.17.49-6.74,2.42-9.36,4.08-5.52,14.57-2.73,18-8.68a9.49,9.49,0,0,0,4.54-.58c1.38-.69,2.41-2.34,1.85-3.78-.43-1.11-1.6-1.71-2.59-2.38a11.76,11.76,0,0,1-5.1-10.08c.08-1.9.63-3.78.51-5.67a8.33,8.33,0,0,0-8.37-7.51c-1.25.05-2.47.4-3.72.43-5.95.18-10.93-6.52-16.72-5.17-1.24.29-2.42.95-3.69.95-2.92,0-4.73-3.35-7.52-4.23-2.22-.7-4.63.28-6.94,0s-4.12-1.57-6.07-2.64c-4.19-2.28-9.78-3.28-13.44-.24A11.93,11.93,0,0,1,260,172a7.54,7.54,0,0,1-3.8.23,35.32,35.32,0,0,0-11.32.76,4.26,4.26,0,0,0-2.59,1.35,7.21,7.21,0,0,0-.82,2.63c-1.12,4.33-6.47,5.8-10.92,6.17a6.18,6.18,0,0,0-3.3.89c-1.61,1.21-1.56,3.68-.85,5.56s1.92,3.62,2.18,5.62c.65,5-4.77,8.83-5.68,13.82-1.24,6.89,6.4,13.66,3.8,20.17-1.15,2.89-4.22,5.12-4.08,8.22s3.15,4.9,5,7.27,2.5,5.15,3.2,7.94c1.13,4.5,1.28,13.18,6.53,14.76C242.78,269,249.43,266.06,255.27,267.43Z"/><path class="cls-2" d="M256.93,415c6.24,8.07,28.25,27.15,42.92,31.92S256.93,415,256.93,415Z"/><path class="cls-2" d="M260.23,455.38c2.57,1.83,14.31,23.84,26.78,25.68S260.23,455.38,260.23,455.38Z"/><path class="cls-2" d="M263.17,436.3c.73,1.1,29.71,26.41,40.35,28.62S305,456.11,291.78,451,263.17,436.3,263.17,436.3Z"/><path class="cls-2" d="M263.17,490.23s19.44,7,32.65,5.14S263.17,490.23,263.17,490.23Z"/><path class="cls-2" d="M285.91,532.42s19.08-13.94,28.65-14.67S285.91,532.42,285.91,532.42Z"/><path class="cls-2" d="M200.06,307.53s46.23,5.13,33.39,7.34S200.06,307.53,200.06,307.53Z"/><path class="cls-2" d="M199.7,331.38s22,0,30.08-3.67S199.7,331.38,199.7,331.38Z"/><path class="cls-2" d="M192.73,377.6c4-1.1,20.91-36.32,27.51-26.78S192.73,377.6,192.73,377.6Z"/><path class="cls-2" d="M259.5,368.43s5.87,5.5,24.21,10.64S259.5,368.43,259.5,368.43Z"/><path class="cls-2" d="M368.09,493.53s10.27,5.5,2.57,17.24S368.09,493.53,368.09,493.53Z"/><path class="cls-16" d="M260.56,540.49l-.13-1.56C260.88,533.75,260.56,540.49,260.56,540.49Z"/><path class="cls-16" d="M267.56,571l-29.35-2.93-5.5-11-30.47-167.4-.71-3.93,46.58.37.43,5.32L260.46,539c-.06.75-.13,1.73-.23,3C259.49,552.33,267.56,571,267.56,571Z"/><path class="cls-2" d="M833.05,325.67l-.82.58c-3.13,2.13-7.33-5.48-11-4.41-3.15.9-5.75,10.64-9.18,10.64a35.84,35.84,0,0,1-15.27-3.41c-.53-1.06-1-2.06-1.55-3-1.91-3.54-3.35-5.73-3.35-5.73s5.19-.86,11.74-1.78c3-.44,6.38-.88,9.62-1.27h0c1.7-.21,3.36-.38,4.93-.55,6.42-.63,11.47-.78,11.47.3s1,3.67,2.62,7C832.48,324.57,832.77,325.12,833.05,325.67Z"/><path class="cls-13" d="M848,294.73a36,36,0,1,1-36-36H812a36,36,0,0,1,36,36Z"/><path class="cls-31" d="M841.35,363l-10.73,1.1s1.1-9.63,5.78-12.66c3.1-2,8.89-5.12,12.42-7a14.31,14.31,0,0,0,3.88,1.25C836.21,356.31,841.35,363,841.35,363Z"/><path class="cls-13" d="M721,409.52l-2.57-.37s-11.19.74-22.19,2-26.6,4.59-15.23,17.79,21.83-2.38,21.83-2.38,10.64,13.21,18.89,8.8S721,409.52,721,409.52Z"/><path class="cls-13" d="M675.71,619.92s7,16.87,6.42,21.64,23.3-4.58,23.3-4.58-5.51-12.84-2.57-15.59S675.71,619.92,675.71,619.92Z"/><rect class="cls-13" x="643" y="665.78" width="19" height="24"/><path class="cls-32" d="M679.63,613.13c-1.89,3-3.25,8.15-4.21,13.44a133.77,133.77,0,0,0-2,18.84c0,3.68,1.82,2.94,0,8.81a85.36,85.36,0,0,0-3.58,14.07,4.55,4.55,0,0,1-.1.61c-1.1,6.6-2.2,8.8-2.2,8.8s-27.88-1.83-33.74-5.87,2.2-8.07,2.2-8.07v-1c.59-11.21,6.31-119.28,8.75-130.76a14.6,14.6,0,0,1,3.57-6.64c3.37-3.77,8.37-6.6,12.58-8.48a60.12,60.12,0,0,1,7.69-2.85s1.46,8.47,3.37,20.48C676.33,562,683,607.75,679.63,613.13Z"/><path class="cls-13" d="M672.29,534.56c-2.15,3.93-4.34,6.39-5.93,4.47-2.73-3.3-11.47-9.44-17.71-13.62,6.8-7.62,20.27-11.33,20.27-11.33S670.38,522.55,672.29,534.56Z"/><path class="cls-32" d="M836.36,505c-.27,4.08-.76,9-1.61,15a45.93,45.93,0,0,1-25,34.86s-67.5,0-79.25-3.3c-5.93-1.68-11.12.32-14.79,2.69-.42.27-.81.54-1.19.82a25.85,25.85,0,0,0-4.55,4.19s-7.34-29.72-7.34-31.18,4-14.68,11.37-23.85,50.62-10.64,53.2-11c1.71-.24,17.47-7.11,27.88-11.71,5.27-2.32,9.17-4.06,9.17-4.06l17,5.4.63.19,13.58,4.32S837.22,491.41,836.36,505Z"/><path class="cls-2" d="M821.91,483c-3.24,1.35-8.37,3.42-14.32,5.56-12.94,4.7-29.77,9.84-39.61,9-17.61-1.47-37.79,2.56-37.79,2.56a66,66,0,0,0-17.63,11.41c-9.17,8.07-1.1,10.63,2.94,20.18,1.65,3.91,1.27,13.06.24,22.5-.42.27-.81.54-1.19.82A25.85,25.85,0,0,0,710,559.2s-7.34-29.72-7.34-31.18,4-14.68,11.37-23.85,50.62-10.64,53.2-11c1.71-.24,17.47-7.11,27.88-11.71,5.27-2.32,9.17-4.06,9.17-4.06l17,5.4Z"/><path class="cls-2" d="M679.93,613.13c-1.89,3-3.25,8.15-4.21,13.44a9.16,9.16,0,0,1-2-1.33c-3.37-2.85-3.08-8.26-2.61-11.71.19-1.43.41-2.53.41-3,0-1.48,1.46-14.69-1.48-19.45s-3.66-23.48-3.66-23.48-4.66-26.84-5.13-50.71a60.12,60.12,0,0,1,7.69-2.85s1.46,8.47,3.37,20.48C676.63,562,683.25,607.75,679.93,613.13Z"/><path class="cls-32" d="M824.21,481.42s-1.17.52-3.2,1.37c-3.2,1.33-8.54,3.5-14.79,5.75-12.94,4.7-29.78,9.84-39.61,9-17.61-1.47-37.79,2.56-37.79,2.56a66.46,66.46,0,0,0-17.61,11.38c-9.17,8.07-1.1,10.63,2.94,20.18,1.69,4,1.24,13.59.15,23.32-1.49,13.33-4.19,26.94-4.19,26.94s-1.1,3.67-.36,5.87.72,19.07.72,19.07a9.94,9.94,0,0,0-1.57,4.81,6.31,6.31,0,0,0,1.21,4c2.94,4,.74,14.68.74,14.68s-6.24,1.1-16.89-1.48-14.67.38-19.43-3.66c-3.37-2.85-3.08-8.26-2.61-11.71.19-1.43.41-2.53.41-3,0-1.48,1.46-14.69-1.48-19.45s-3.66-23.48-3.66-23.48-11.68-67.21.07-83.53a7.73,7.73,0,0,1,.66-.85c6.55-7.5,20.19-8.86,32.93-8.12a137.92,137.92,0,0,1,27.23,4.45c7.34,2.21,9.55,1.1,13.21-.37,2.61-1,2.82-6.15,2.71-9v-.81a6.12,6.12,0,0,0-.1-1.18l3.25-1.77L760.77,459Z"/><path class="cls-2" d="M832.32,324A72.48,72.48,0,0,0,841,337.75a5.5,5.5,0,0,1-3.54.09c-1.2-.47-2.07-1.54-3.23-2.09-3-1.41-6.34.58-9.35-1.28-2.35-1.46-2.85-3.3-2.92-5.61v-1c0-3.21-.34-9.58-3.74-11.16a5.27,5.27,0,0,0-4.14.14,4.55,4.55,0,0,0-.79.41h0c-2.27,1.34-3.91,4.19-6.49,4a3.89,3.89,0,0,1-3.13-2.69,17.7,17.7,0,0,1-1.06-4.49c-.77-5.87-3-11.44-5.19-16.94-.42-1.05-1-2.27-2.19-2.36a1.93,1.93,0,0,0-2,2c0,2.88,3.33,4.16,3.71,6.74.42,3-4.07,4.75-6.52,3s-2.89-5.31-2.37-8.3,1.8-5.84,2-8.88S789,282.8,786,282c-2.55-.76-5.24.76-7.89.8a36,36,0,1,1,54.27,41.3Z"/><path class="cls-33" d="M815.11,316.92c-2.72,1-4.42,4.63-7.31,4.36s-3.8-4.19-4.19-7.18c-.77-5.87-3-11.44-5.19-16.94-.42-1.05-1-2.26-2.18-2.36-1.82-.15-2.27,2.68-1.27,4.21s2.74,2.7,3,4.51c.43,3-4.06,4.75-6.51,3s-2.9-5.31-2.38-8.3,1.79-5.85,2-8.88S789.9,282.83,787,282s-6,1.23-9,.73a5.56,5.56,0,0,1-4.17-6.68,4.88,4.88,0,0,1,.32-1c1.29-2.5,4.61-4.5,3.75-7.17-1.08-3.33-6.76-1.87-9-4.59-1.75-2.13-.15-5.48,2.13-7s5.13-2.16,7.31-3.86c4.1-3.19,4.8-9.34,8.68-12.81,4.41-4,11.21-3.13,16.75-5.19,5.32-2,10.1-6.77,15.68-5.77,1.35.24,2.62.81,4,.94,2.83.26,5.41-1.44,8-2.51a19.05,19.05,0,0,1,15.72.73c-.52,3.58,3.2,6.75,6.81,6.61,2.61-.09,6.17-1,7.08,1.48.43,1.13-.11,2.45.29,3.6.68,2,3.46,2.14,5.26,3.28,4.1,2.6,2.19,9.67,5.74,13,1.56,1.45,3.81,1.8,5.75,2.67,6.41,2.84,8.73,10.59,10.32,17.42a8.51,8.51,0,0,1,.27,4.07c-.53,2-2.4,3.29-3.44,5.06-2.48,4.22.17,9.8-1.41,14.43s-6.79,7.26-7.51,12c-.25,1.6.08,3.25-.18,4.85-.7,4.34-5.27,6.84-9.48,8.12-1.18.35-2.52.78-3,1.9-.23.5-.27,1.07-.46,1.59-.47,1.23-1.76,1.91-3,2.47q-8.22,3.88-16.76,7.07c-1.58.59-3.35,1.17-4.93.56-1.2-.47-2.06-1.55-3.23-2.09-3-1.42-6.34.58-9.34-1.28-2.68-1.66-3-3.81-3-6.58C823,323.75,822.42,314.1,815.11,316.92Z"/><path class="cls-32" d="M669.84,668.29a4.55,4.55,0,0,1-.1.61c-1.1,6.6-2.2,8.8-2.2,8.8s-27.88-1.83-33.74-5.87,2.2-8.07,2.2-8.07v-1C645.65,665.23,662.28,668.88,669.84,668.29Z"/><path class="cls-2" d="M669.84,668.29a4.55,4.55,0,0,1-.1.61c-1.1,6.6-2.2,8.8-2.2,8.8s-27.88-1.83-33.74-5.87,2.2-8.07,2.2-8.07v-1C645.65,665.23,662.28,668.88,669.84,668.29Z"/><path class="cls-34" d="M665.81,675s-32.29,2.2-33.57,1.65S631,693.66,631,693.66s-7.15,14.31-8.07,17.79-8.07,12.11-8.07,12.11-10.25,7.52,4.75,10.45,31.55-.91,31.55-.91,11-19.08,11.92-18,0,10.09,0,10.09l6.42-1.65s-1.1-11.92,1.47-18.34S665.81,675,665.81,675Z"/><path class="cls-2" d="M711.12,629.28s-6.24,1.1-16.89-1.48-14.67.38-19.43-3.66c-3.37-2.85-3.08-8.26-2.61-11.71,4.66-1,11.88-2.53,17.47-3.34s13.63.26,19.51,1.51a6.25,6.25,0,0,0,1.21,4C713.32,618.63,711.12,629.28,711.12,629.28Z"/><path class="cls-32" d="M711.12,630.38s-6.24,1.1-16.89-1.48-14.67.38-19.43-3.66c-3.37-2.85-3.08-8.26-2.61-11.71,4.66-1,11.88-2.53,17.47-3.34s13.63.26,19.51,1.51a6.31,6.31,0,0,0,1.21,4C713.32,619.75,711.12,630.38,711.12,630.38Z"/><path class="cls-2" d="M711.12,630.38s-6.24,1.1-16.89-1.48-14.67.38-19.43-3.66c-3.37-2.85-3.08-8.26-2.61-11.71,4.66-1,11.88-2.53,17.47-3.34s13.63.26,19.51,1.51a6.31,6.31,0,0,0,1.21,4C713.32,619.75,711.12,630.38,711.12,630.38Z"/><path class="cls-34" d="M726.89,682.47l-10.82,2.75L713,672.38s-2.72,5.16-7.53,12.31c-.64.94-1.3,1.92-2,2.92-5.52,7.87-24.08,5.95-30.45,1.36a7,7,0,0,1-1.46-1.36c-4.23-5.5,2.2-10.83,5.31-13.76s1.47-22.38,1.47-22.38-1.47-8.62-.37-12.66,28.81-5.5,28.81-5.5,5.67,14.85,8.8,19.44,7,10.27,6.23,14.31S726.89,682.47,726.89,682.47Z"/><path class="cls-13" d="M712.56,491.88c-4.73,6-35.51,1.47-45-7.77a7.73,7.73,0,0,1,.66-.85c6.55-7.5,20.19-8.86,32.93-8.12C707,479.33,716.32,487.1,712.56,491.88Z"/><path class="cls-2" d="M682.87,496.28s-5.31-7.53-10.09-3.85-6.24-6.42-6.24-6.42,2.57-1.83,8.07.92,11.74,7.52,11,8.44S682.87,496.28,682.87,496.28Z"/><path class="cls-32" d="M682.87,495.18s-5.32-7.52-10.09-3.85-6.24-6.42-6.24-6.42,2.57-1.83,8.07.92,11.74,7.52,11,8.44S682.87,495.18,682.87,495.18Z"/><path class="cls-2" d="M782.29,496.28s27.15,12.47,21.09,17.47S782.29,496.28,782.29,496.28Z"/><path class="cls-2" d="M672.78,582.13s17.24,2,21.09,4.59a19.42,19.42,0,0,0,9.91,3.48C706,590.2,680.48,575.89,672.78,582.13Z"/><path class="cls-2" d="M693.5,572s-6.6,4.59.92,6.42S693.5,572,693.5,572Z"/><path class="cls-2" d="M656.63,633.13s9.73,12.1,13.21,8.8S656.63,633.13,656.63,633.13Z"/><path class="cls-2" d="M650.4,657c.73,0,3.12-.36,7.89,2.94s5.13-2.57,3.3-5S650.4,657,650.4,657Z"/><path class="cls-2" d="M639.39,386.68c1.65.55,11.28,3,13.21,8.81S639.39,386.68,639.39,386.68Z"/><path class="cls-2" d="M248.56,391.47l-.79-.19s-28.1-6.31-45.51-1.57l-.71-3.93,46.58.37Z"/><path class="cls-16" d="M223.56,379.07s70.44.37,95,48.79,30.09,140.89,30.09,140.89,4,13.21-1.84,13.57-8.44-12.1-8.44-12.1,2.21-9.17.37-13.21-24.18-116.26-24.18-116.26-2.57-35.22-66.77-50.63c0,0-75.21-16.87-55.77,25.32,0,0,1.1,5.87-2.93,4.77s-8.81-12.11-5.5-26S223.56,379.07,223.56,379.07Z"/><path class="cls-2" d="M361,367.53l-.2.17c-5,4-23.49,35.42-35.95,36.29a4.45,4.45,0,0,1-.73,0s-.29-.35-.83-.95h0a1,1,0,0,0-.19-.22l32.59-41Z"/><path class="cls-2" d="M324.43,328.44l16.51,7s8.07,8.07,7.71,15.41,4,1.83,4,1.83,2.94,1.1,2.94,4,8.07,5.87,2.93,9.9-24.21,36.69-36.68,36.32A252,252,0,0,0,298,379.06C285.18,368.06,273.44,311.56,324.43,328.44Z"/><path class="cls-29" d="M325.56,328.44l16.51,7s8.07,8.07,7.71,15.41,4,1.83,4,1.83,2.94,1.1,2.94,4,8.07,5.87,2.93,9.9S335.44,403.27,323,402.9a252,252,0,0,0-23.85-23.84C286.28,368.06,274.56,311.56,325.56,328.44Z"/><path class="cls-2" d="M784.12,389.34l-17.06,30.41-11.81,6.09c-.29-3.2-.48-5.36-.48-5.36s-7.71-18,12.11-31.55c17.37-11.91,8.22-21.56,5.71-23.74l.53-.47,4-.55Z"/><path class="cls-2" d="M898,375.92c-2.7,6-25.85,22.23-25.85,22.23v.12l-1.09-1.22,22-25.32,4,2.57Z"/><path class="cls-2" d="M836.36,505a55.89,55.89,0,0,1-9.68.28,144.3,144.3,0,0,0-20.19-16.73c-3.46-2.39-7.27-4.81-11.36-7.09-14.49-8-32.5-14.31-50.86-11.25-.41.06-.83.14-1.23.22l1.2-1c.75-.63,1.9-1.69,3.15-2.95L761,459.08l63.47,22.37s-1.17.52-3.2,1.37l14.21,4.51S837.22,491.41,836.36,505Z"/><path class="cls-15" d="M816,358.16s49.16,4.77,71.54,2.2c0,0,11,8.44,9.54,13.94s-26,22.74-26,22.74-1.83,42.93-11.74,53.2S840.62,486.93,845,495.75s-17.24,7.34-17.24,7.34-41.09-42.92-83.65-34.85c0,0,15.41-12.48,14.31-21.65s-2.57-26-2.57-26-7.7-18,12.11-31.55,5.14-24.24,5.14-24.24-.74-3.3,7.7-4.4a87.37,87.37,0,0,0,12.11-2.2s8.07-7.34,11.74-5.87S816,358.16,816,358.16Z"/><path class="cls-2" d="M872.17,391.75s5.87,11.55-.55,17.6a77.53,77.53,0,0,0-6.89,8.35,250.09,250.09,0,0,0-29.57,51.4c-13.55,31.58-36.91,85.26-40.4,88.1-5,4-5.32,12.29-.37,12.48s7.89-6.61,7.89-6.61,5-14.12,8.07-19.81,35.59-80.16,35.59-80.16,12.11-31.92,25.68-39.25c0,0,11.74-19.45,9.72-28.07S872.17,391.75,872.17,391.75Z"/><path class="cls-16" d="M872.17,390.62s5.87,11.56-.55,17.61a77.53,77.53,0,0,0-6.89,8.35A250.09,250.09,0,0,0,835.16,468c-13.55,31.58-36.91,85.26-40.4,88.1-5,4-5.32,12.29-.37,12.48s7.89-6.61,7.89-6.61,5-14.12,8.07-19.81S845.94,462,845.94,462s12.11-31.92,25.68-39.25c0,0,11.74-19.45,9.72-28.07S872.17,390.62,872.17,390.62Z"/><path class="cls-13" d="M922.12,429.33c1.17,6.6,1.11,13.57-1.71,19.63,0,0-15.59.73-31.18-21.1l-9.36-22.93s-10.45-17.79-16.69-16.87-11,32.1-25.86,29.16-7-40.35,12.65-44.21l7.58-1.93a18.27,18.27,0,0,1,15.91,3.37c3.64,2.87,8.56,6.68,14.49,11,4.86,3.58,9.47,7.08,13.35,10.08A55,55,0,0,1,922.12,429.33Z"/><path class="cls-2" d="M759.63,427.68s7.43,9.08,19.54,11,19-1.92,29.17,2.21S759.63,427.68,759.63,427.68Z"/><path class="cls-2" d="M860.89,410.62s-22.84,19.53-22,24.76S860.89,410.62,860.89,410.62Z"/><g class="cls-35"><path d="M798.35,302.45a4.65,4.65,0,0,1-5.44.36c-2.14-1.56-2.75-4.44-2.52-7.14-.23.83-.44,1.66-.59,2.51-.52,3-.07,6.51,2.38,8.3s6.94,0,6.52-3A4.18,4.18,0,0,0,798.35,302.45Z"/><path d="M791.72,289.82a19.87,19.87,0,0,0,.79-4.19c.18-3-1.18-6.51-4.09-7.37s-6,1.24-9,.73a5.52,5.52,0,0,1-4.26-4.54,4.37,4.37,0,0,0-.32.55,5.56,5.56,0,0,0,2.85,7.33,5.75,5.75,0,0,0,1,.33c3,.5,6.1-1.59,9-.73s4.27,4.34,4.09,7.37A4.36,4.36,0,0,1,791.72,289.82Z"/><path d="M778.44,267.54a3.7,3.7,0,0,0,.87-3.38c-1.08-3.33-6.77-1.87-9-4.58a3.36,3.36,0,0,1-.62-1.22c-1,1.59-1.25,3.49-.11,4.88C771.74,265.87,777.12,264.6,778.44,267.54Z"/><path d="M868.13,320.61c-1.18.35-2.52.78-3,1.9-.24.5-.27,1.07-.47,1.59-.47,1.23-1.75,1.91-2.94,2.47-5.48,2.59-11.08,4.95-16.76,7.07-1.59.59-3.35,1.17-4.93.56-1.2-.47-2.07-1.55-3.23-2.09-3-1.41-6.34.58-9.34-1.28-2.69-1.66-3-3.8-3-6.57,0-4.2-.57-13.83-7.87-11-2.72,1-4.42,4.63-7.32,4.36s-3.79-4.19-4.18-7.18c-.77-5.87-3-11.44-5.19-16.94-.42-1.05-1.05-2.26-2.18-2.36-1.67-.14-2.18,2.24-1.48,3.81a1.38,1.38,0,0,1,.75-.14c1.12.1,1.75,1.31,2.17,2.36,2.21,5.5,4.43,11.07,5.19,16.94.39,3,1.19,6.9,4.19,7.18s4.6-3.32,7.31-4.36c7.31-2.82,7.87,6.81,7.88,11,0,2.77.27,4.92,3,6.58,3,1.86,6.33-.14,9.35,1.28,1.16.54,2,1.62,3.22,2.09,1.58.61,3.35,0,4.94-.56q8.52-3.18,16.75-7.07a5.51,5.51,0,0,0,3-2.47c.2-.52.23-1.09.47-1.59.52-1.12,1.86-1.55,3.05-1.9,4.2-1.28,8.78-3.78,9.47-8.12a9.82,9.82,0,0,0,.1-1.71C875.43,317.6,871.65,319.54,868.13,320.61Z"/><path d="M886.71,281.24a9.09,9.09,0,0,0-1.11,4.42,6.59,6.59,0,0,1,.38-.75c1-1.77,2.9-3.08,3.43-5.06a5.83,5.83,0,0,0,.08-2.24C888.7,278.88,887.48,279.94,886.71,281.24Z"/><path d="M877.78,307.64a10.79,10.79,0,0,0-.09,1.61c1.63-3.54,5.57-6.1,6.87-9.91a10.75,10.75,0,0,0,.52-3.13C883.33,300.4,878.48,303.12,877.78,307.64Z"/></g><path class="cls-2" d="M717.35,663a110,110,0,0,0-11.74,9c-4.77,4.41-16.69,8.07-16.69,8.07Z"/><path class="cls-2" d="M705.42,684.69c-.64.94-1.3,1.92-2,2.92-5.52,7.87-24.08,5.95-30.45,1.36C678.65,687.05,696.19,681.64,705.42,684.69Z"/><g class="cls-35"><path d="M613.87,232.6a14,14,0,0,0,.59-2.29A14,14,0,0,0,613.87,232.6Z"/><path d="M544.2,257a8.37,8.37,0,0,1,.55-1.47c1.59-3.59-.45-6.15-2.82-8.56a13.18,13.18,0,0,1-4.18-8,21.78,21.78,0,0,1-.24-2.55,6,6,0,0,0-.51.8c-.85,1.7-.61,3.72-.35,5.6a13.08,13.08,0,0,0,4.18,8C542.64,252.64,544.25,254.57,544.2,257Z"/><path d="M606.27,289.51c-1.81-.52-3.41,1.26-4.31,2.91s-1.92,3.63-3.78,3.87c-2.27.29-3.82-2.15-4.76-4.23a16.48,16.48,0,0,1-1.86-6.55,7.58,7.58,0,0,1,.08-.82,14.79,14.79,0,0,0-1.18,4.67c-.07,2.29.89,4.46,1.84,6.55s2.49,4.52,4.76,4.23c1.86-.24,2.89-2.22,3.78-3.87s2.5-3.43,4.31-2.91c.81.24,1.65.92,2.38.51a1.71,1.71,0,0,0,.69-1.2,14.45,14.45,0,0,0,.33-2.62C607.85,290.37,607.05,289.75,606.27,289.51Z"/><path d="M617.56,271.16c-2.37,1.9-5.29,3.34-6.73,6a9.62,9.62,0,0,0-1,3.72c1.46-2.59,4.32-4,6.65-5.88a19.55,19.55,0,0,0,6.94-11.77A19.51,19.51,0,0,1,617.56,271.16Z"/><path d="M592.74,280.89a22.12,22.12,0,0,0,1-3.4c.65-3.45-.48-7-1.59-10.31-.82-2.44-2.39-5.4-5-5.1a5.6,5.6,0,0,1-1.52.18c-1.35-.22-1.64-2-1.78-3.36a15.23,15.23,0,0,0-12.44-13,4,4,0,0,0-2.18.14c-1,.43-1.48,1.46-2.34,2.06-2.79,1.93-6.34-1.77-9.74-1.49-2.88.24-4.64,3.2-5.83,5.83s-2.68,5.65-5.5,6.27a1.63,1.63,0,0,1-1.33-.16,1,1,0,0,1-.44-.82,5.81,5.81,0,0,1-.5,1.68c-.44,1-1,2.36-.16,3a1.71,1.71,0,0,0,1.33.15c2.82-.61,4.31-3.63,5.5-6.26s3-5.6,5.83-5.84c3.4-.28,7,3.42,9.74,1.49.86-.59,1.39-1.63,2.34-2.06a3.92,3.92,0,0,1,2.17-.14,15.25,15.25,0,0,1,12.54,13c.14,1.36.42,3.15,1.78,3.36a5.6,5.6,0,0,0,1.52-.18c2.56-.29,4.13,2.66,4.94,5.1C592.15,274.22,593.21,277.58,592.74,280.89Z"/></g><path class="cls-18" d="M611,396.52s-14,4.26-20.36,4.26-31.07-.13-31.07-.13-64.66-21.6-45.26,8,50.07,13.07,50.07,13.07l5.49,1.23c3,.69,61.49.14,63.42-2.2S611,396.52,611,396.52Z"/><path class="cls-2" d="M651.2,422.26c-8.81.81-26.12,1-26.12,1s-12.93-25.59-23.93-24.77c0,0,10.18-11.55,14.3-10.18.7.23,1.13-.27,1.33-1.26,10.79,3.29,31.33,11.34,33.34,25.48C650.66,416.33,651,419.54,651.2,422.26Z"/><path class="cls-19" d="M652.3,422.26c-8.81.81-26.12,1-26.12,1s-12.93-25.59-23.93-24.77c0,0,10.18-11.55,14.3-10.18.7.23,1.13-.27,1.34-1.26,10.78,3.29,31.32,11.34,33.33,25.48C651.76,416.33,652.1,419.54,652.3,422.26Z"/><path class="cls-2" d="M652.3,422.26c-8.81.81-26.12,1-26.12,1s-12.93-25.59-23.93-24.77c0,0,10.18-11.55,14.3-10.18.7.23,1.13-.27,1.34-1.26,10.78,3.29,31.32,11.34,33.33,25.48C651.76,416.33,652.1,419.54,652.3,422.26Z"/><path class="cls-2" d="M575,495.92s24.76-6.06,28.61-2.76S575,495.92,575,495.92Z"/><path class="cls-2" d="M504,519.58s10.45,6,11.55,11S504,519.58,504,519.58Z"/><g class="cls-35"><path d="M328.42,191.19a11.32,11.32,0,0,0,.58,4v-1.26c.09-1.9.64-3.78.52-5.68A7.51,7.51,0,0,0,329,186C329,187.75,328.5,189.44,328.42,191.19Z"/><path d="M226.48,189.56c.49,1.28,1.2,2.49,1.68,3.77a5.56,5.56,0,0,0,0-.91c-.24-1.91-1.37-3.59-2.08-5.39A7.29,7.29,0,0,0,226.48,189.56Z"/><path d="M336.35,206.4a2.84,2.84,0,0,0-.61-.92,3.74,3.74,0,0,1-1.8,1.94,9.46,9.46,0,0,1-4.53.59c-3.43,5.94-13.92,3.16-18,8.68-1.94,2.62-1.68,6.19-2.43,9.36-1.21,5.18-5.27,9.86-4.49,15.13.27,1.84,1.09,3.92,0,5.42s-3.15,1.36-4.75.72c-4.06-1.64-6.3-5.88-9.19-9.17s-8.1-5.75-11.45-2.93c-2.82,2.37-2.32,6.73-2,10.4s-.76,8.39-4.39,9c-1.45.26-3-.27-4.41.06-4.54,1.06-4.18,8.93-8.61,10.36-1.56.5-3.24,0-4.83-.38-5.84-1.38-12.5,1.55-17.9-.08-3-.91-4.34-4.14-5.15-7.58.76,4.31,1.89,9.18,5.7,10.33,5.4,1.63,12.06-1.29,17.9.08,1.59.38,3.27.88,4.83.38,4.43-1.43,4.07-9.3,8.61-10.36,1.44-.33,3,.2,4.41-.06,3.63-.64,4.66-5.36,4.39-9s-.77-8,2.05-10.4c3.35-2.81,8.56-.36,11.45,2.93s5.13,7.53,9.19,9.17c1.6.64,3.72.67,4.75-.72s.29-3.58,0-5.42c-.78-5.27,3.28-10,4.49-15.13.75-3.17.49-6.74,2.43-9.36,4.08-5.52,14.57-2.74,18-8.68a9.34,9.34,0,0,0,4.53-.59C335.87,209.49,336.9,207.83,336.35,206.4Z"/><path d="M230.36,249.84c-.7-2.79-1.44-5.66-3.21-7.93-1.38-1.78-3.43-3.29-4.42-5.21q0,.35,0,.69c.13,3,3.15,4.9,5,7.27s2.49,5.09,3.18,7.86C230.72,251.54,230.56,250.63,230.36,249.84Z"/><path d="M226.75,222.81c-.29-3.71-2.71-7.51-3.85-11.34C223.24,215.3,225.62,219.09,226.75,222.81Z"/></g><path class="cls-2" d="M419.27,565.53s30.77-.92,23.43,2.38-28.11,3-28.11,3Z"/><path class="cls-2" d="M545.84,631.11s14.31-2.2,18,.18S545.84,631.11,545.84,631.11Z"/><path class="cls-23" d="M638.4,426.14c0,2.81-8.83,6.12-19.72,6.12S599,429,599,426.14s8.83-4.08,19.72-4.08S638.4,423.32,638.4,426.14Z"/><path class="cls-2" d="M638.4,426.14c0,2.81-8.83,6.12-19.72,6.12S599,429,599,426.14s8.83-4.08,19.72-4.08S638.4,423.32,638.4,426.14Z"/><ellipse class="cls-23" cx="618.68" cy="426.14" rx="19.72" ry="5.1"/><ellipse class="cls-2" cx="618.68" cy="426.14" rx="11.15" ry="2.88"/><path class="cls-25" d="M634.83,420a8.69,8.69,0,0,1-7.12,4.51,11.06,11.06,0,0,1-3.44-.24l1.36-2a6.85,6.85,0,0,0,2.63,0,5.08,5.08,0,0,0,3.46-2.57c1.44-2.54-.36-2.91-1.62-2.89h-.77l1.08-1.58s.44-.08,1.08-.13C633.56,415,637.56,415.3,634.83,420Z"/><path class="cls-25" d="M626.13,427.11a24.91,24.91,0,0,1-15.23,0l.11-.76.08-.57,14.84-.19.12.91Z"/><path class="cls-2" d="M628.26,422.29a12.32,12.32,0,0,1-.55,2.25,11.06,11.06,0,0,1-3.44-.24l1.36-2A6.85,6.85,0,0,0,628.26,422.29Z"/><path class="cls-2" d="M631.49,415.17a2.33,2.33,0,0,1-.42.57l-.11.11a9.07,9.07,0,0,0-.86,1c-.26,0-.51,0-.77,0l1.08-1.58Z"/><path class="cls-2" d="M626.05,426.5c-2.63,1-12.5,1.24-15-.15l.08-.57,14.84-.19Z"/><path class="cls-25" d="M630.79,415.75l-.12.11a8.25,8.25,0,0,0-2.5,4.95c-.46,4.37-1.4,4.81-1.51,5-.76,1.32-14,1.84-16,0-1.64-1.52-3.24-4.83-2.5-6.7.39-1-.44-2.11-1.29-2.91-1.1-1-.7-2.52.88-3.21,3.75-1.66,10.41-1.74,10.41-1.74,5.68-.3,9.31.45,11.53,1.27l.28.12a2.45,2.45,0,0,1,1.3,1.27A1.7,1.7,0,0,1,630.79,415.75Z"/><ellipse class="cls-2" cx="618.48" cy="415.32" rx="10.05" ry="1.63"/><ellipse class="cls-36" cx="618.48" cy="415.51" rx="10.05" ry="1.63"/><path class="cls-37" d="M620.56,414.49s-7.23.16-7,1.92A23.34,23.34,0,0,1,620.56,414.49Z"/><path class="cls-37" d="M623,414.94s-4.31,0-3.62,1.47c0,0,1-.11.86-.49s2.76-.77,2.76-.77Z"/><path class="cls-26" d="M607.28,414.78s-.28,3,11,2.86,11.22-2.18,11.32-2.86H629s-.14,2.47-10.54,2.41-10.68-2.41-10.68-2.41Z"/><path class="cls-2" d="M631.27,414l-6.8,2.49a.87.87,0,0,1-.81-.11l-.11-.1c-.32-.27-.22-.66.2-.84l6.22-2.71A2.45,2.45,0,0,1,631.27,414Z"/><path class="cls-23" d="M623.75,415.28l17.64-7.67a3.56,3.56,0,0,1,1.32-.29c.89,0,2.15.1,1.74,1.07a2.12,2.12,0,0,1-1.32,1.11l-18.66,6.83a.87.87,0,0,1-.81-.11l-.11-.1C623.23,415.86,623.33,415.46,623.75,415.28Z"/><path class="cls-2" d="M623.75,415.28l17.64-7.67a3.56,3.56,0,0,1,1.32-.29c.89,0,2.15.1,1.74,1.07a2.12,2.12,0,0,1-1.32,1.11l-18.66,6.83a.87.87,0,0,1-.81-.11l-.11-.1C623.23,415.86,623.33,415.46,623.75,415.28Z"/><path class="cls-23" d="M623.75,415.18l17.64-7.67a3.77,3.77,0,0,1,1.32-.29c.89,0,2.15.1,1.74,1.07a2.19,2.19,0,0,1-1.32,1.12l-18.66,6.83a.84.84,0,0,1-.81-.12l-.11-.09C623.23,415.75,623.33,415.37,623.75,415.18Z"/><path class="cls-2" d="M622.77,415.4s1.88-.28,1.64.06.81.78.81.78a8.32,8.32,0,0,1-2.23.12C622.7,416.16,622.77,415.4,622.77,415.4Z"/><path class="cls-36" d="M622.63,415.45s1.88-.28,1.64.06.81.78.81.78a8.41,8.41,0,0,1-2.24.12C622.56,416.21,622.63,415.45,622.63,415.45Z"/><path class="cls-38" d="M619.68,402a4.61,4.61,0,0,0-1.69,2.16,5.1,5.1,0,0,0,.11,2.23,8.79,8.79,0,0,0,.38,1.51c.1.28.38.6.58.4,0-.7-.22-1.39-.18-2.08a3.8,3.8,0,0,1,.92-2.07,10,10,0,0,0,1.29-1.8c.14-.3.69-3.05-.07-2.57-.15.1-.33,1-.47,1.23A4.83,4.83,0,0,1,619.68,402Z"/><path class="cls-38" d="M620,406.55c.06.25.37.45.51.68a1.15,1.15,0,0,1,.13.48,2.54,2.54,0,0,1-.51,2.28,1.82,1.82,0,0,0,1.28-1.17,3.1,3.1,0,0,0,.17-.79c0-.26,0-.51,0-.77s.17-1.37-.51-1.56a.85.85,0,0,0-1,.6A1.07,1.07,0,0,0,620,406.55Z"/><path class="cls-2" d="M608.26,418.55s.85.88,3.24,1a8.93,8.93,0,0,1-3.41-.28Z"/><polygon class="cls-16" points="378.86 564.77 415.85 564.66 403.74 583.99 379.89 596.08 378.86 564.77"/></g></g></svg>