<svg xmlns="http://www.w3.org/2000/svg" viewBox="0 0 102.34 220.13"><defs><style>.cls-1{fill:#a0616a;}.cls-2{fill:#2f2e41;}.cls-3{fill:#d0cde1;}</style></defs><g id="Layer_2" data-name="Layer 2"><g id="Layer_1-2" data-name="Layer 1"><path class="cls-1" d="M47.39,22.4S44,31,46,33.65s-3.35,8.25-11.88,5.63-9-5.64-9-5.64,3.36-4.13,4.28-12.75Z"/><path class="cls-1" d="M90.88,107s17.11,6.75,9.51,15.75c-4.42,5.23-12.86,15.4-19.15,23a70.7,70.7,0,0,0-12,20.61l-1.2,3.26-4.75,4.51-10-9s14.76-21.38,14.76-25.5S80,122.34,80,122.34l-11.89-6S81.37,104.34,90.88,107Z"/><path class="cls-1" d="M35.27,130.22s-.48,10.5-1,14.62c-.39,3.41,3.42,12.93,2.1,23.54A78.94,78.94,0,0,0,36.7,189l1.89,13.62-14.26,1.12L19.58,173s-2.86-21.75-1.43-28.88l-.47-15S28.14,126.09,35.27,130.22Z"/><path class="cls-2" d="M60.7,86.53S94,103.4,94.45,108.66c0,0-19-1.51-19.49,11.64,0,0-11.41-3.38-14.26-4.12s-18.07-8.63-18.07-8.63-6.18,3.75-6.18,9.75.48,16.5,0,17.25S25.05,124.43,16,133.8L9.84,107.93s-1.9-15.76,1.89-16.88l26.64-7.9Z"/><ellipse class="cls-1" cx="40.49" cy="15.84" rx="14.26" ry="11.25"/><path class="cls-3" d="M44.06,35.52s-16.1,3.35-18.27-3c0,0-19.76,3-23.09,13.14s8.09,34.5,8.09,35.25-9.51,5.25-5.23,7.5,8.08-.37,6.17,2.65-5.22,3.75-2.37,4.5,20-10.87,33.27-7.88,20,.75,20,.75l6-40.69c.47-3.17-1.12-6.31-4.24-8.34s-6.93-4-10.76-4.6c-7.61-1.12-7.93-1.74-7.93-1.74Z"/><path class="cls-1" d="M59.27,101.33s-4.28,19.13-10,16.5,1.43-16.5,1.43-16.5Z"/><path class="cls-1" d="M39.41,103.63s7.41,18.52.82,18.27-8.41-15.15-8.41-15.15Z"/><path class="cls-2" d="M65.69,168.84s3.35-3,5.22,1.13S78,179.35,78,179.35s11.41,10.12,3.36,10.5-19.49-9-19.49-9L48.6,171.1s4.42-8.47,6.49-8.55S56.66,172.59,65.69,168.84Z"/><path class="cls-2" d="M34.79,200s3.35.77,3.1-2.43c0,0,12.11,5.06,8.79,8.8l-.1.12a44.3,44.3,0,0,1-18.57,12c-3.64,1.28-6.9,2.12-7.48,1.36a7.7,7.7,0,0,1-.48-7.12c.95-1.5,5.71-4.12,4.28-6.35s.48-8.25,2.85-8.25S34.79,200,34.79,200Z"/><path class="cls-2" d="M52.94,6.3s-4.59-7.84-13.41-6S25.76,4.8,25.38,7.51a30.87,30.87,0,0,0,.19,6.79s1-5.59,7.07-4.38,15.68.3,15.68.3l1.53,10.86s1.72-2,3.63-.76S59.05,8.71,52.94,6.3Z"/><path class="cls-3" d="M10.79,45.28s11.4,24.38,10.46,27.38,0,3.38,1.42,4.12,5.23,8.63,5.23,8.63,2.38,4.5,4.27,5.63,1.91,4.13,1.91,4.13,4.75,3.74,3.8,4.49-1,1.88.95,3,3.8,2.65,2.86,3-7.61,4.49-9.52,4.12,1-1.88-1.42-2.65-3.8-1.87-2.85-2.25,3.8-.37,1-1.12S16,98.14,12.69,92.12-6.58,49.85,3.05,44.75C3.05,44.75,7,40.77,10.79,45.28Z"/><path class="cls-3" d="M63.55,41.15l.19.06c3.65,1.2,6.31,3.74,7.11,6.79,1,3.92,2.06,9.59,1.26,14.9-1.43,9.38-2.38,13.5-4.28,16.5s-2.38,1.88-1.91,4.13,2.86.37.48,3.37-3.8,2.25-2.85,3.75,2.37,1.5.47,3.38a10.34,10.34,0,0,0-2.37,3.37,58.29,58.29,0,0,0-1.91,6.35s-7.6-1.87-11.88-1.12c0,0,3.81-5.25,2.86-6.35s-2.38-1.5-1-2.64,3.81-.76,1.43-1.88S53.12,79,53.12,79Z"/></g></g></svg>