<svg xmlns="http://www.w3.org/2000/svg" viewBox="0 0 384.77 320.92"><defs><style>.cls-1{fill:#03c;}.cls-1,.cls-10,.cls-11,.cls-12,.cls-13,.cls-14,.cls-15,.cls-16,.cls-17,.cls-18,.cls-2,.cls-21,.cls-22,.cls-23,.cls-24,.cls-25,.cls-26,.cls-27,.cls-28,.cls-29,.cls-3,.cls-30,.cls-31,.cls-32,.cls-33,.cls-34,.cls-35,.cls-36,.cls-37,.cls-38,.cls-39,.cls-4,.cls-40,.cls-42,.cls-43,.cls-44,.cls-5,.cls-6,.cls-7,.cls-8,.cls-9{fill-rule:evenodd;}.cls-2{fill:#3d1b07;}.cls-3{fill:#d27133;}.cls-4{fill:#e2cab6;}.cls-5{fill:#f98300;}.cls-6{fill:#651906;}.cls-7{fill:#351805;}.cls-8{fill:#45260c;}.cls-9{fill:#fbb98c;}.cls-10{fill:#faad7b;}.cls-11{fill:#007bff;}.cls-12{fill:#f9a873;}.cls-13{fill:#4d0c01;}.cls-14{fill:#f79961;}.cls-15{fill:#f39157;}.cls-16{fill:#faad79;}.cls-17{fill:#891207;}.cls-18,.cls-20{fill:#fff;}.cls-19{fill:#0072a3;}.cls-21{fill:#a14616;}.cls-22{fill:#9b3f13;}.cls-23{fill:#763915;}.cls-24{fill:#2e1002;}.cls-25{fill:#cb6224;}.cls-26{fill:#06c;}.cls-27{fill:#7e290f;}.cls-28{fill:#5a1404;}.cls-29{fill:#583b1b;}.cls-30{fill:#846251;}.cls-31{fill:#503825;}.cls-32{fill:#392515;}.cls-33{fill:#bc7346;}.cls-34{fill:#240901;}.cls-35{fill:#8f573e;}.cls-36{fill:#f27900;}.cls-38{fill:#ad6e41;}.cls-39{fill:#1d1528;}.cls-40{fill:#602d0e;}.cls-41{fill:#f98419;}.cls-42{fill:#72513e;}.cls-43{fill:#71370f;}.cls-44{fill:#bc7343;}</style></defs><title>HomeImage</title><g id="Layer_2" data-name="Layer 2"><g id="Layer_1-2" data-name="Layer 1"><path class="cls-1" d="M317.88,216.12c1.7,1.7,16.4,15.9,23,14s3.2-9-4.2-16.8-15.4-9.8-17.3-9.4C309.18,205.62,313.08,211.22,317.88,216.12Z"/><path class="cls-2" d="M343.38,170.92c-1.6-1.8-21.1-14.3-21.1-14.3a34.23,34.23,0,0,0,3.4-1.3c-8,1.6-28.4,8.1-27.6,18.2.1,1.5,17.8,32.9,23.1,33.7s27.4-9.8,28.8-11.8S343.38,170.92,343.38,170.92Z"/><path class="cls-3" d="M317.68,162.92c4.9-17.5,35.8,5.6,36.3,5.2.7-.6-.9-2-2-2.9-11.9-9.4-22.1-15.8-36.7-9.7-8.8,3.7-13.9,7.7-13.6,9.5s.4,3.6,1,3.5S317.68,162.92,317.68,162.92Z"/><path class="cls-4" d="M341.88,225c-1.8-6.2-11.5-14.3-15.5-16.8a74.44,74.44,0,0,0-7.9-4.2l.8-.1c1.9-.3,9.8,1.7,17.3,9.4,7,7.2,10.3,13.9,5.4,16.3A6.62,6.62,0,0,0,341.88,225Z"/><path class="cls-5" d="M325,211.32a.86.86,0,0,0-1-1.4c-.8,1-1.5,2-2.2,3a13.44,13.44,0,0,0-1.2,2.4,13.23,13.23,0,0,0-.8,3.3.82.82,0,0,0,.8.9h0a.82.82,0,0,0,.9-.8,8.87,8.87,0,0,1,.7-2.8,21.16,21.16,0,0,1,1.1-2.1C323.78,213,324.38,212.12,325,211.32Z"/><path class="cls-5" d="M322.38,220.72a1,1,0,0,0,.6,1.1.76.76,0,0,0,1-.6h0a19.44,19.44,0,0,1,1.7-4.2,31.76,31.76,0,0,1,2.7-3.7.83.83,0,0,0-.2-1.2.79.79,0,0,0-1.1.1,28.19,28.19,0,0,0-2.9,3.9A25.81,25.81,0,0,0,322.38,220.72Z"/><path class="cls-5" d="M325.58,222.82a.86.86,0,0,0,1.7.3V223a14.62,14.62,0,0,1,1.6-3.6,13.43,13.43,0,0,1,2.2-3.1.86.86,0,0,0-1-1.4,15.42,15.42,0,0,0-2.7,3.6A12.34,12.34,0,0,0,325.58,222.82Z"/><path class="cls-6" d="M287.38,93.32c-15.7-16.9-23.1-49.3-2.6-67.1,13.2-11.5,21.8-12.6,30.4-4.8,48,5.9,27.3,48.4,42.1,60.7,4,3.3-14.6,14-20.6,16.4s-14.2,1.8-24.9-1.9S294.48,91.22,287.38,93.32Z"/><path class="cls-7" d="M278.88,241.82c.3-1.8,1-5.5,10.8-17.3s27.2-20.2,27.2-20.2l4.1,4.5s-25.5,46.6-30,48.5S278.88,241.82,278.88,241.82Z"/><path class="cls-1" d="M355.78,210.72c1.7,1.7,16.4,15.9,23,14s3.2-9-4.2-16.8-15.4-9.8-17.3-9.4C347.08,200.22,350.88,205.82,355.78,210.72Z"/><path class="cls-4" d="M379.68,219.62c-1.8-6.2-11.5-14.3-15.5-16.8a74.44,74.44,0,0,0-7.9-4.2l.8-.1c1.9-.3,9.8,1.7,17.3,9.4,7,7.2,10.3,13.9,5.4,16.3A6.11,6.11,0,0,0,379.68,219.62Z"/><path class="cls-5" d="M362.78,205.92a.83.83,0,0,0,.2-1.2h0a.83.83,0,0,0-1.2-.2h0a33,33,0,0,0-2.2,3c-.5.8-.9,1.6-1.3,2.4a13.23,13.23,0,0,0-.8,3.3.85.85,0,1,0,1.7.1,8.87,8.87,0,0,1,.7-2.8,21.16,21.16,0,0,1,1.1-2.1C361.58,207.62,362.18,206.72,362.78,205.92Z"/><path class="cls-5" d="M360.18,215.32a.89.89,0,1,0,1.7.5v-.1a14.8,14.8,0,0,1,1.7-4.1,31.76,31.76,0,0,1,2.7-3.7.85.85,0,0,0-1.2-1.2l-.1.1a28.19,28.19,0,0,0-2.9,3.9A26.23,26.23,0,0,0,360.18,215.32Z"/><path class="cls-5" d="M363.38,217.42a.82.82,0,0,0,.8.9h0a.82.82,0,0,0,.9-.8,11.66,11.66,0,0,1,1.6-3.6,13.43,13.43,0,0,1,2.2-3.1.83.83,0,0,0,.2-1.2h0a.83.83,0,0,0-1.2-.2h0a15.42,15.42,0,0,0-2.7,3.6A20.41,20.41,0,0,0,363.38,217.42Z"/><path class="cls-8" d="M313.58,241.12c.3-1.8,2.9-7.9,12.8-19.7s26.1-20.8,26.1-20.8c3.6-.6,6.1,6.4,3.2,10-7.6,9.5-24.2,42-28,43.6C323.18,256.12,313.58,241.12,313.58,241.12Z"/><path class="cls-8" d="M266.68,172.32a92.56,92.56,0,0,0-.7,22.3c1.2,11.5,7.2,48.2,18,60.1s9-6.2,9.5-24.4-5.8-48.5-5.8-48.5Z"/><path class="cls-8" d="M282.58,171.92c.3,5.1,11.8,50.7,25.5,68.7s22.6,20.8,22.1,0-16.7-65.1-16.7-65.1Z"/><path class="cls-9" d="M330.68,113.52l10.3,20.2,18.8-26.9v-.9c-.5-3-1.1-8.1-1.1-8.6.1-.7,2.3-8.6,2.9-7.5,1.4,2.3-.1,5.1.2,8.4.5-1.2,1-2.3,1.3-3,1.2-2.5,5.8-12.9,7.2-12s-3.5,12.6-3.2,12.8,10-14.1,12-12.8-9,14.7-8.5,15,9.7-11.2,11.3-9.6-8.8,12.2-7.9,12.2,9.4-7.8,10.5-6.2-9.2,9.3-9.2,9.3-3.7,4.5-6.5,6.3-2.7,1.4-2.7,1.4-19.4,36.1-24.3,37.7-21.6-21.3-21.6-21.3l10.5-14.5Z"/><path class="cls-9" d="M263.38,98.62l-20.2,10.2.8-33.3-8.1.5s-5.7,40.6-2.6,44.8,30.1-4.3,30.1-4.3Z"/><path class="cls-10" d="M239,75.82l-3.2.2s-5.7,40.6-2.6,44.8,30.1-4.3,30.1-4.3v-3.4c-3.6,1.6-7.2,2.9-8.3,2.5-2.5-.9-5.7-7.7-5.7-7.7s1.6,7.6-1.5,9.6-10.6,1.9-11.4.2,4.1-40.2,3-41.2A2.51,2.51,0,0,1,239,75.82Z"/><path class="cls-11" d="M337.68,125.62l-11.1,12.2-12.7-13.7c-.2-.2-17.3,13.4-11.5,36.4,1.1,4.4,7.7,8.1,10.5,13.5,6.1,11.4-39.9,19.7-46.9,20.6-1.4-2.6-2.9-16.4.8-23.9,9.9-19.8-2.9-41.9-1.8-51.4,0,0-13.6,2.9-13.3,1.2s-3.7-15-2.3-15c1,0,20.7-12.3,24.8-12.5,4.4-.3,9.4-.5,13.1.2,8.9,1.6,15.2,4,23.2,4.5,2.8.7,8,2.2,11.3,5C328.68,108.72,333.88,118.82,337.68,125.62Z"/><path class="cls-12" d="M287.38,93.32c.8.1,2.3.2,3.1.3,4.8.9,8.3,2,14.3,2.9,1.9.3,3.8,1.1,5.8,1.2a6.75,6.75,0,0,1,.2,1.4c0,4.8-6,8.6-13.5,8.6s-13.5-3.9-13.5-8.6C283.78,96.92,285.18,94.82,287.38,93.32Z"/><path class="cls-12" d="M307.58,84.82c-.6,1.9-3.3,16-3.3,16s-6.9,3.1-10.9.6-4.4-4.2-4.4-4.2l5.9-13.9Z"/><path class="cls-9" d="M313,25.42c-16.1-3.5-28.6,9.6-32.5,28s2.1,35.1,18.2,38.6,29.2-9.1,33.2-27.5S329.08,28.82,313,25.42Z"/><path class="cls-13" d="M317.08,56.52c-1.5,0-3,2-3.4,4.5s.5,4.5,2,4.5,3-2,3.4-4.5S318.58,56.52,317.08,56.52Z"/><path class="cls-13" d="M292.08,48.82c-1.5,0-3,2-3.4,4.5s.5,4.5,2,4.5,3-2,3.4-4.5S293.58,48.82,292.08,48.82Z"/><path class="cls-14" d="M304.88,59.52c0,.7-7.4,5.3-7.4,5.3-1.3,2.2,5.5,6.5,7.2,4.4a7.14,7.14,0,0,1-5.8-4.1C300.38,64.32,305.08,61.52,304.88,59.52Z"/><path class="cls-9" d="M333.38,61.12c-3,0-6,3.2-6.6,7.2s1.2,7.2,4.2,7.2,6-3.2,6.6-7.2S336.38,61.12,333.38,61.12Z"/><path class="cls-9" d="M279,46.92c-3,0-5.6,3.2-5.8,7.2s2,7.2,5,7.2,5.6-3.2,5.8-7.2S282,46.92,279,46.92Z"/><path class="cls-6" d="M313.58,53.92c4.2-1.8,10.2-.4,11,4.8.4,2.6,1.4,1.3,1.3-.3-.3-6-9.2-9.3-12.6-6.6C312.48,52.42,313.08,53.92,313.58,53.92Z"/><path class="cls-15" d="M332.88,63.62c4,0,3.9,7.2-.5,9.1-2.4,1-2.7-1.1-2.3-1.7s1.5-.3,2.3-1.8-.5-1.1-.6-2.7A3.44,3.44,0,0,1,332.88,63.62Z"/><path class="cls-15" d="M280.28,49.32c-3.4-2.1-7.1,4-4.4,8,1.5,2.1,2.9.5,2.9-.2s-1.1-1.1-1-2.8.9-.7,2-1.9A3.74,3.74,0,0,0,280.28,49.32Z"/><path class="cls-16" d="M306.48,89.42c9.3-.7,17.1-6.6,22.1-15.5l.1.1c-4.8,10.5-12.9,17.6-22.9,18.4a24.75,24.75,0,0,1-7.2-.5,25.43,25.43,0,0,1-6.5-2.4c-9.3-5.1-13.6-16-12.8-28.5l.2-.1c0,11.5,4.6,21.3,13.8,25.8A25.54,25.54,0,0,0,306.48,89.42Z"/><path class="cls-17" d="M292.48,70.52a10.09,10.09,0,0,0-.7,1.5,9.83,9.83,0,0,0,5.9,12.6h.1a10,10,0,0,0,12.5-6.3,9.36,9.36,0,0,0,.4-1.6Z"/><path class="cls-18" d="M308.88,76.12l-.6,1.6a1.27,1.27,0,0,1-1.6.8L294,73.92a1.27,1.27,0,0,1-.8-1.6l.5-1.4Z"/><path class="cls-11" d="M299.58,110.52A14.67,14.67,0,0,0,289,115a14.48,14.48,0,0,0-10.8-4.8,15,15,0,0,0,0,30,14.67,14.67,0,0,0,10.6-4.5,14.48,14.48,0,0,0,10.8,4.8,15,15,0,0,0,0-30Z"/><path class="cls-6" d="M308.38,23.92c.9,14.3,12.5,32.5,28,35.5,12.2,2.4-6.1-25.9-8.9-28.6C320.08,24,308.38,23.92,308.38,23.92Z"/><path class="cls-6" d="M315,25.52c-2.8,3.1-3.6,8.1-16.3,11.1s-19.1,8.4-19.1,8.4.6-10.6,11.8-17.6S315,25.52,315,25.52Z"/><path class="cls-6" d="M288.68,36.62c-.7.7-5.1,5.9-6.7,11.1s-2.4,13.2-2.5,12.6-1.3-10.2.4-15c.8-2.3,1.8-4.6,2.8-6.9Z"/><path class="cls-6" d="M330.28,47.42c.2,1,1.2,7.7-.2,13s-4.9,12.4-4.5,12,6.5-8,7.5-13a61.68,61.68,0,0,0,1.2-7.3Z"/><path class="cls-6" d="M299.58,49.62c-2.1-4-7.6-6.9-11.5-3.4-2,1.8-1.9.2-.8-1,4.1-4.4,13-1.3,13.9,3C301.38,49.22,300,49.92,299.58,49.62Z"/><path class="cls-9" d="M236.38,76.82c1,.2,5.4,1.5,7.8.3s5.2-10,5.9-13,4-15.1,2.2-15.3-5.9,13.5-6.2,13.4,1.2-18.9-1.5-19.1-2.5,18.8-3.2,18.7-.7-16.1-3.1-15.7-.9,16.5-1.8,15.9-2.7-12.9-4.9-12.2,1.5,14.2,1.5,14.2,0,6.4,1.2,9.7S236.38,76.82,236.38,76.82Z"/><path class="cls-9" d="M235.58,63.72s-1,1.8.5,6.2a27.46,27.46,0,0,0,2.3,4.9,26.75,26.75,0,0,0,1.8,2.8c-1.3-.2-2.6-.4-3.9-.7,0,0-.3.1-.9-.8a16.27,16.27,0,0,1-1.1-2.3c-1.2-3.4-1.2-9.7-1.2-9.7s-3.7-13.4-1.5-14.2h.2a28.4,28.4,0,0,0,.8,7.7A23.09,23.09,0,0,0,235.58,63.72Z"/><rect class="cls-19" x="211" y="21.52" width="65.8" height="45.9" transform="translate(-3.96 38.92) rotate(-9.05)"/><rect class="cls-20" x="263.9" y="26.22" width="4.3" height="27.9" transform="translate(-2.99 36.85) rotate(-7.88)"/><path class="cls-9" d="M242.48,77.62c.4-.4,1.4,0,2.4-1a86.91,86.91,0,0,0,6.6-8.4c.4-.6,4.1-9.1,2.7-8.6-3.6,1.5-3.8,6.5-8.5,9.2C240.48,71.92,238.78,76.62,242.48,77.62Z"/><path class="cls-10" d="M238.38,74.82a31.16,31.16,0,0,1-2.3-4.9l-.3-.9-2.4.4a23.92,23.92,0,0,0,.9,4.5,8.67,8.67,0,0,0,1.4,2.7c.3.3,3.8,1.3,3.9,1C239.68,76.62,238.38,74.82,238.38,74.82Z"/><path class="cls-21" d="M322.18,156.72c1.6-.2,3-4.2,16.5,2.6s27.1,21.1,26,23.6c0,0-8.4,10.9-16.2,13.3-3.9,1.2-25.6-23.8-28.1-29.9S322.18,156.72,322.18,156.72Z"/><path class="cls-22" d="M322.18,156.72c1.6-.2,3-4.2,16.5,2.6s27.1,21.1,26,23.6a52.53,52.53,0,0,1-6,6.5,38.26,38.26,0,0,1,1-5.9c1.4-5.1-15.3-20.9-25-22.3-8.8-1.3-12.3,4-13.7,6.3l-.6-1.2C317.88,160.12,322.18,156.72,322.18,156.72Z"/><path class="cls-23" d="M272.88,93.42s3.5,30.4,14.8,49.5c7.5,12.7,32.4,14.7,42.3,27.5,0,0,7.9-4.2,6.6-5.6-17.1-20.2-49.1-8.9-55-61.8a31.12,31.12,0,0,1,.1-10.1A8.69,8.69,0,0,0,272.88,93.42Z"/><path class="cls-24" d="M313.38,164.52c2.6,9.1,12.8,22.9,17.2,32a51,51,0,0,1,3,7.3c-2.2.9-4.5,1.7-6.4,2.3a32.51,32.51,0,0,0-4.3-1.8c-4.5-15.6-9.4-29-9.4-29a5,5,0,0,0-.5-1.3c-1.4-2.7-3.8-4.9-5.9-7.1C309.08,166.22,311.48,165.32,313.38,164.52Z"/><path class="cls-25" d="M313.38,164.52c-2,.8-4.4,1.7-6.4,2.4-1-1-2-2-2.9-3.1-.3-.4-.6-.9-.9-1.3a35.42,35.42,0,0,1,7.3-4.8c.8.4,1.6.7,2.4,1.1l-.1.4a12.8,12.8,0,0,0,.2,3.9A7.37,7.37,0,0,1,313.38,164.52Z"/><path class="cls-26" d="M310.78,180.82a28.32,28.32,0,0,1-6.7,4,107.68,107.68,0,0,1-14.8,5.1l-2.3.6a188.56,188.56,0,0,1-20.9,4.2,10.08,10.08,0,0,1-.9-3.4c-.9-5.2-1.1-14.8,1.8-20.6,5.9-11.7,3.8-24.2,1.4-34.4,2.6,2.4,8.1,3.9,10,3.9,1.2,0-.5,16.6-.5,31,0,8.1-8.5,19.4-5.3,20.1C281.18,193.12,306,181.12,310.78,180.82Z"/><path class="cls-26" d="M267.38,131c2.2,5.9,10.9,9.2,10.9,9.2a14.77,14.77,0,0,1-10-3.9,15,15,0,0,1-.7-21.3,18.1,18.1,0,0,1,3-2.5c-1.2,2.1-2.7,4.6-3.5,6C265.38,121.42,265.08,125.12,267.38,131Z"/><path class="cls-26" d="M264.58,119.42c-2.4.5-13,2.6-12.8,1.2v-.9c-.3-2.1-1.6-7.2-2.2-10.6-.1-.8-.2-1.3-.2-1.3s3.2,6.8,5.7,7.7c1.1.4,4.7-.9,8.3-2.5,4.5-2,9-4.4,9.3-4.6s-.8,1.7-2.2,4A15.5,15.5,0,0,0,264.58,119.42Z"/><path class="cls-10" d="M366.18,111.62s-19.4,36.1-24.3,37.7c-2.8.9-9.4-6-14.6-12.2l7-7.7c-.8,2.1-1.5,4.2-2.1,6.4,0,.7,5.6,8.4,8.9,8.6s21.5-31.2,21.8-31.7-1.1-4-1.2-4.3,2.5,1.5,4.1,1.8,5.5-4,6.4-5.2.7-3.6.7-3.6l1.8,1.4,10-8.3c1.1,1.6-9.2,9.3-9.2,9.3s-3.7,4.5-6.5,6.3S366.18,111.62,366.18,111.62Z"/><path class="cls-26" d="M309.08,132.72a19.08,19.08,0,0,0,2.5-6.5q.75-3.75,1.2-7.5c.3-3.3.4-5.8.4-5.8s4.6,7.3,8.6,12.8c2.1,3,4.1,5.5,5,6.1,2.8,1.9,7.8-3.5,7.8-3.5l-.4.9-7,7.7-.7.8-12.2-13.2v.9a15.08,15.08,0,0,1-11.4,14.6c-.4,1.3-.8,2.6-1.1,4a46.57,46.57,0,0,1-4.9-3.9c-6-5.6-10.9-13.7-13.8-27.2,1.2,3,2.6,6.5,4.2,9.6a96.7,96.7,0,0,0,10.8,15.9c.3.3,3.1-.3,6.1-1.9A13.23,13.23,0,0,0,309.08,132.72Z"/><path class="cls-26" d="M279.58,124.12a92.63,92.63,0,0,0,5.7,14.3c.8,1.5,1.6,3,2.4,4.4,2.8,4.6,7.8,7.9,13.6,10.7a40.83,40.83,0,0,0,1.1,7,6.39,6.39,0,0,0,.8,1.9,14.63,14.63,0,0,0,.9,1.3,28.68,28.68,0,0,0,2.9,3.1c2.1,2.1,4.5,4.4,5.9,7.1a6.94,6.94,0,0,1,.5,1.3,4.24,4.24,0,0,1-.9,3.4l-3.6-3.9c-1.9-2.1-4-4.4-5.8-6.5a17.38,17.38,0,0,1-1.3-1.5c-.2-.2-.4-.5-.6-.7-4.8-6-2.2-10.3-2.2-10.3s-7.8-4.4-11.3-9.6a34.88,34.88,0,0,1-3.3-7.4C282.68,134.32,281,128.62,279.58,124.12Z"/><path class="cls-27" d="M313.88,28.72c2.7,11.4,8.4,21.3,17.6,28.7C320.88,52.52,313.88,40.42,313.88,28.72Z"/><path class="cls-28" d="M319.88,27c1.1,11.7,9,21.2,18.7,27.3C328.08,50.62,317.78,38.82,319.88,27Z"/><path class="cls-28" d="M326,30.72c2.8,2.9,18.5,18.3,16.5,22.3a.52.52,0,0,1-.2-.4h0C336.58,44.12,331.58,39.52,326,30.72Z"/><path class="cls-28" d="M340.38,57.72c1.6,5.2,6.6,19.7,10.1,24.5C344.08,79.62,340.78,62.92,340.38,57.72Z"/><path class="cls-27" d="M336.88,77c2.6,4.1,5.3,7.6,8.3,11.5C342,86.72,334.78,79.12,336.88,77Z"/><path class="cls-28" d="M328.18,80.62c2.1,3.8,5.2,9.2,9,11.4C334.68,93.72,327.68,86.22,328.18,80.62Z"/><path class="cls-28" d="M320.78,91.42c-.6-.3-.7-1.5,5,3a30.26,30.26,0,0,0,4.8,3.1c-4.1.4-8.5-2.7-9.8-6.1Zm0-.1.1-.1h0Z"/><path class="cls-27" d="M311.58,94.12c4.2,1.7,7.9,2.4,12.2,3.9C319,98.52,314.48,98.52,311.58,94.12Z"/><path class="cls-27" d="M322.38,87.12c4.6,2.2,6.5,4,10.6,6.3C328.28,94,325.08,90.42,322.38,87.12Z"/><path class="cls-27" d="M311.58,23.32c-3.1,10.2-13.8,11.4-22.5,12.3C299.38,31.92,304.38,32.42,311.58,23.32Z"/><path class="cls-28" d="M304.28,22.72c-6.4,4-21.8,11.6-25.2,18.9v.1c0,.1-.2.1-.2,0C275.68,35.42,302.78,23.42,304.28,22.72Z"/><path class="cls-27" d="M302,19.12c-10,6.6-4.9,3.5-15.2,9.4h0a1.08,1.08,0,0,1-.7.3C287.58,23.72,297.88,20.72,302,19.12Z"/><path class="cls-28" d="M309.88,22.32c-7.9,6.4-3.6,4-12.6,7.5C305,24.12,300.78,26.62,309.88,22.32Z"/><path class="cls-29" d="M112.58,124.12c-.6,1-1.7,7.5-1.3,9.7s4,14.9,4,14.9a8.11,8.11,0,0,0,2.1,1c1.3.5,11.5-11.6,10.8-15.6S112.58,124.12,112.58,124.12Z"/><path class="cls-30" d="M112.68,131.32c-1.2,1.9,1.5,13.9,2.6,17.4.2.6-16.1-29.1.2-43.1,2.9-2.5,10.9-3.7,17.3-4.2,5.9-.5,25.5-.7,26.2-.4C159,101.12,121.58,117.72,112.68,131.32Z"/><path class="cls-31" d="M127.88,111.42c-5.9,3.2-9.3,7.6-11.9,16.3s2.7,5.2-.2,20.1-.8,30.4,5.9,37.1,42.3,5.7,51.2-3.8-5.8-65.4-14.9-70.6S127.88,111.42,127.88,111.42Z"/><path class="cls-32" d="M135,107.72c-5.9,3.2-9.3,7.6-11.9,16.3s2.7,5.2-.2,20.1-2.4,30.9,4.3,37.5,38.4,6.2,47.2-3.3-.2-66.4-9.4-71.6S135,107.72,135,107.72Z"/><path class="cls-33" d="M113.48,106.72c-11.5-.9-7,.8-23.8-4.3.7.5-17.7-11-30.5-35.4l-6.5,5.6c11.5,21.4,23,34.8,38.7,43.8,4.9,2.8,9.6,2.9,14.7,4.8Z"/><path class="cls-34" d="M181.08,281.32c-.9,1-4.9,4.8-4.9,4.8l-4.4,5.2s4.6,8.9,7.8,13.1,14.5,8.3,15.9,4-7.3-10-8.6-14.1a22.94,22.94,0,0,1-1-7.8Z"/><path class="cls-34" d="M98.18,287.22s-6.5,8.1-6.8,10.3-3.4,20.8-9.3,23-7.4-4.9-6.1-14.7,6-15.7,7.6-16.5,12.8-7.3,12.8-7.3Z"/><path class="cls-8" d="M139.08,187.32c-3.1,7.9-17,60.1-17,60.1L88,285.92s2.4,11.7,6.2,8.4c2-1.8,37.1-29.3,45.1-36.5,4.6-4.2,19.8-38,20.8-38.1,2.1-.2,35.5,21,35.5,21s-18.1,41.8-18.3,43.9,4.6,5.1,8.7,3.9,32.8-45.1,31.3-49-36.8-52.2-36.8-52.2Z"/><path class="cls-33" d="M178.08,123.62c6,2.8,6.1,4.2,18.5,5.7-.6-.5,19.8,15.1,39.1,24.1l2.9-4.9c-12.3-10.1-26.9-23.1-36.7-29.2-7.1-4.4-10.9-4.3-18-7Z"/><path class="cls-33" d="M233.38,149.62l2.2,3.9s4.6,15.7,5.3,14.8,0-9.7,0-9.7,9.1,4.9,10.9,6.6,5.9,5.6,5.6,4.3-5.5-8-5.5-8,3.8,3.2,4.2,3.7,2.9,3,3,1.4c.1-2.1-10.7-13.2-13.2-14.1-2-.8-7.4-3.7-7.4-3.7Z"/><path class="cls-33" d="M241,157.52c1.8,1.7,7.1,6,7.1,6.2s3.4,8.4,3.7,7.1-1.3-7.8-1.4-8a83.93,83.93,0,0,0-6.3-5.6C243.78,157.22,241,157.52,241,157.52Z"/><path class="cls-33" d="M245.58,154a3.29,3.29,0,0,0,2.2.5l10.3,8.6s.4.5-1,.4-10.8-7.6-10.8-7.6Z"/><path class="cls-35" d="M196.58,129.52c-.6-.5,19.8,15.2,39,24.2l-1.8-3.1-33.3-23.1,1-8C201.28,120.62,198.58,125.52,196.58,129.52Z"/><path class="cls-33" d="M233.88,150.32l1.8,3.1s4.1,14,5.2,14.8h.2l-3.7-15.8-.8-.5Z"/><path class="cls-5" d="M93.88,103.72l-3.2,22.8,34,6.1s4,55.3,4.1,69.4c0,8.8,47.9,2.7,61.2-6.9l-14.4-65.5s18.7,7.8,18.4,6.1,9.1-17.1,7.6-17.1c-1,0-28.6-17.2-32.7-17.5-4.4-.3-9.4-.5-13.2.2-9,1.6-15.6,5.6-23.3,4.5C127,104.42,110.58,105.12,93.88,103.72Z"/><path class="cls-36" d="M184.18,168.62l-8.6-38.9s18.7,7.8,18.4,6.1,7.5-14.5,7.8-16.7l-9.5,9.2-14.9-9.9-7.2-13.9-9.8-3.5a6.6,6.6,0,0,0-1.4.1l11.8,37.6s7.2,19.5,7.2,20.4C178.08,159.52,181,164,184.18,168.62Z"/><path class="cls-33" d="M155.78,101.42c-.8.1-2.4.2-3.1.3-4.8.9-8.4,2-14.4,2.9-1.7.2-4,1.1-5.9,1.2a6.75,6.75,0,0,0-.2,1.4c0,4.8,6.1,8.7,13.6,8.7s13.6-3.9,13.6-8.7A7.09,7.09,0,0,0,155.78,101.42Z"/><path class="cls-33" d="M135.48,92.92c.6,1.9,3.4,16.2,3.4,16.2s6.9,3.1,11,.6,4.4-4.2,4.4-4.2l-6-14Z"/><path class="cls-37" d="M112.38,77.52c-2.1-3.2-3.5-4.9-8.3-16.3s3.6-17.8,3.6-17.8a22.93,22.93,0,0,1,3.3-12.8c3.8-6,5.5-7.6,5.1-6.4s.1,2.8.3,1.9,7.2-7.4,7.2-7.4.7,3.2,1.1,2.9,1.2-2.1,11.4-4.9,18.5-3.2,17.8-2.7-3.8,3.3-3.1,3.1,8.8,0,12.4-.6,5.3-1.4,4.5-1-3.7,7.8-5.5,9.7a15.93,15.93,0,0,1-1.9,1.9s.8-.7,6.8,1.8,7.9,5.2,7.6,5-10.9,1.1-10.9,1.1,3.2,12.1,2.7,15.7-2.9,15-3.6,15.1Z"/><path class="cls-38" d="M130,33c16.2-3.5,28.8,9.7,32.8,28.2s-2.1,35.3-18.3,38.8-29.5-9.2-33.4-27.7S113.78,36.52,130,33Z"/><path class="cls-39" d="M110,59.82c.5-9.1,3.9-17.1,10-22.1,6.2.4,25.3,3.9,25.3,3.9s5.6,4.3,6.1,4.3-.7.7-5.4,1.3-18-1.2-18.5-1.3,5.8,6.4,5.8,6.4-2,.5-8.8-1.3a22.4,22.4,0,0,1-8.6-4.9c-1,1.9-2.2,4.3-3.4,6.5A47.23,47.23,0,0,0,110,59.82Z"/><path class="cls-37" d="M111.08,38.82c3,2.8,6.9,6.5,16.8,8.1s11.6.9,11.6.9-5.4-4.6-3.9-4.1,8.8,1,14.3,1.1,5.1-.2,5.1-.2-6.2-3.8-4.9-3.8,10.3-1,10.3-1-5.7-11.9-17.1-13S111.08,38.82,111.08,38.82Z"/><path class="cls-13" d="M123.68,63.22c1.5,0,3,2,3.4,4.5s-.5,4.5-2,4.5-3-2-3.4-4.5S122.18,63.22,123.68,63.22Z"/><path class="cls-13" d="M149.38,56.92c1.5,0,3,2,3.4,4.5s-.5,4.5-2,4.5-3-2-3.4-4.5S147.88,56.92,149.38,56.92Z"/><path class="cls-40" d="M136,66.22c0,.9,9,6.6,9,6.6,1.6,2.7-6.7,8-8.8,5.5a8.74,8.74,0,0,0,7.1-5C141.58,72.12,135.88,68.52,136,66.22Z"/><path class="cls-33" d="M53.48,72.72c1-.4,5.4-1.9,6.8-4.3s-1.3-11.6-2.5-14.6-5.4-15.2-7.1-14.3,2.9,14.9,2.5,15-10-16.8-12.4-15.4S49.58,56.62,49,57s-10-13.3-11.8-11.6S46.08,60,45,60s-9.8-9.5-11.3-7.5,9.5,11.2,9.5,11.2,3.8,5.4,6.8,7.6S53.48,72.72,53.48,72.72Z"/><path class="cls-33" d="M45.18,61.92s.2,2.1,4.1,4.9a34,34,0,0,0,4.8,2.9,30.54,30.54,0,0,0,3.2,1.3c-1.2.6-2.4,1.2-3.7,1.7,0,0-.2.3-1.2-.1a11.61,11.61,0,0,1-2.2-1.3c-3-2.2-6.8-7.6-6.8-7.6s-11-9.3-9.5-11.2c0-.1.1-.1.2-.2a27.57,27.57,0,0,0,5.2,6.1A19.22,19.22,0,0,0,45.18,61.92Z"/><rect class="cls-41" x="6.97" y="16.9" width="68" height="47.4" transform="translate(-16.7 39.4) rotate(-43.54)"/><rect class="cls-20" x="55.08" y="9.63" width="4.4" height="28.8" transform="translate(-1.23 44.88) rotate(-42.37)"/><path class="cls-33" d="M59.18,69.72c.1-.6,1.2-.8,1.4-2.2a99.89,99.89,0,0,0,.8-11c0-.8-1.8-10.2-2.7-8.9-2.2,3.3.6,7.8-1.8,12.8C54.18,66,55.48,71,59.18,69.72Z"/><path class="cls-38" d="M109.08,68.62c3,0,6,3.2,6.7,7.2s-1.2,7.2-4.2,7.2-6-3.2-6.7-7.2S106.08,68.62,109.08,68.62Z"/><path class="cls-38" d="M164.18,54.72c3,0,5.6,3.2,5.9,7.2s-2,7.2-5,7.2-5.6-3.2-5.9-7.2S161.18,54.72,164.18,54.72Z"/><path class="cls-4" d="M78.58,317.22c-2.1-5.5.7-16.9,2.2-21a71.2,71.2,0,0,1,3.5-7.4,5.74,5.74,0,0,1-.7.4c-1.6.8-6.3,6.6-7.6,16.5-1.2,9.1,0,16,5,15.1A7.42,7.42,0,0,1,78.58,317.22Z"/><path class="cls-5" d="M83.58,297.82a.81.81,0,0,1-.2-1.6h.2a29.92,29.92,0,0,1,3.2,1,15.05,15.05,0,0,1,2.2,1.1,11.6,11.6,0,0,1,2.4,2,.78.78,0,0,1-1.1,1.1l-.1-.1a8.7,8.7,0,0,0-2.1-1.7,7.22,7.22,0,0,0-2-.9A16.14,16.14,0,0,0,83.58,297.82Z"/><path class="cls-5" d="M90.68,303.42a.78.78,0,1,1-1,1.2,14.15,14.15,0,0,0-3.5-2.1,18.45,18.45,0,0,0-4-1.2.76.76,0,0,1,.3-1.5h0a30.56,30.56,0,0,1,4.3,1.3A12.94,12.94,0,0,1,90.68,303.42Z"/><path class="cls-5" d="M89.48,306.62a.71.71,0,0,1-.1,1.1h0a.71.71,0,0,1-1.1-.1,19.23,19.23,0,0,0-3.1-1.8,11.66,11.66,0,0,0-3.3-1.1.8.8,0,1,1,0-1.6,14.19,14.19,0,0,1,4,1.2A22.07,22.07,0,0,1,89.48,306.62Z"/><path class="cls-5" d="M183.68,294.42a.5.5,0,0,1-.6-.8.1.1,0,0,0,.1-.1c.1-.1.2-.1.3-.2h0a4,4,0,0,1,2.4-.5,2.61,2.61,0,0,1,2,1l.1.1a.51.51,0,1,1-.9.5v-.1h0a1.15,1.15,0,0,0-1.2-.5,4.33,4.33,0,0,0-1.9.4h0C183.78,294.32,183.68,294.32,183.68,294.42Z"/><path class="cls-4" d="M191.88,307.72c-10.4-1.6-14.4-11.7-18.5-18.2l-1.5,1.8s4.6,8.9,7.8,13.1,14.5,8.3,15.9,4a3.55,3.55,0,0,0,.2-1A8.64,8.64,0,0,1,191.88,307.72Z"/><path class="cls-5" d="M185.48,297.72a.48.48,0,0,1-.7-.1h0a.48.48,0,0,1,.1-.7l.3-.2h0a4,4,0,0,1,2.4-.5,2.61,2.61,0,0,1,2,1l.1.1a.52.52,0,0,1-.3.7.66.66,0,0,1-.7-.2v-.1a1.66,1.66,0,0,0-1.2-.5,4.33,4.33,0,0,0-1.9.4h0Z"/><path class="cls-5" d="M188,300.82a.48.48,0,0,1-.7-.1h0a.48.48,0,0,1,.1-.7l.3-.2h0a4,4,0,0,1,2.4-.5,2.61,2.61,0,0,1,2,1l.1.1a.51.51,0,0,1-.9.5h0v-.1a1.35,1.35,0,0,0-1.2-.5,3.66,3.66,0,0,0-1.8.4h0Z"/><path class="cls-42" d="M124.18,105s-1.9,34.4-1.3,44.5,3.4,14.9,5,12.4,8-53.2,7.5-56.6S124.08,102.72,124.18,105Z"/><path class="cls-42" d="M169,101.22s11.5,31.2,12.8,41.4-.6,14.9-2.7,12.4-12-46-20.2-53.9C158,98.52,167.78,97,169,101.22Z"/><path class="cls-37" d="M129.38,59.72c-2.8.3-10.2,1.5-12.2,2.4s-2.3-2.4-.5-3a88,88,0,0,1,11.3-2.6C130.38,56.12,130.18,59.92,129.38,59.72Z"/><path class="cls-37" d="M143.38,56.72c2.6-1.3,9.5-4.1,11.6-4.4s.6-3.3-1.2-2.8-8.6,2.7-10.9,3.7S142.78,57.22,143.38,56.72Z"/><path class="cls-39" d="M113.18,36.12c-.8-5,9.4-12.9,13.7-11.3A34.92,34.92,0,0,0,113.18,36.12Z"/><path class="cls-39" d="M120.38,32.92c12.9-8.8,12.5-6.7,27.6-5C137,31.12,138.88,25.52,120.38,32.92Z"/><path class="cls-39" d="M131.28,21.62c14.5-4.1,21.9,7.9,28.4,1.2.6,1.2-1.9,2.3-2.6,2.5C148.58,28.42,144.58,21.62,131.28,21.62Z"/><path class="cls-39" d="M137.38,18.12c4.5-2.2,4.9-2.7,9.8-1.6C142.88,18.22,142,19,137.38,18.12Z"/><path class="cls-39" d="M118.88,37.72a34.76,34.76,0,0,0,15,6.2C134.08,46.32,119.28,43.52,118.88,37.72Z"/><path class="cls-39" d="M125.48,34.82c4.1,2.5,16.9,4.9,21.9,4.9C143.58,43,125.48,38.42,125.48,34.82Z"/><path class="cls-39" d="M130.38,32.92c20.7-4.3,23.9-1.5,33.1,15C149,32.32,155.38,33.12,130.38,32.92Z"/><path class="cls-39" d="M151.28,29.62c5.7,1.7,13.2,1.2,17,2.4C164.88,34.52,151.28,32.52,151.28,29.62Z"/><path class="cls-39" d="M146,18.42c5.4.7,12.9,1.9,18.1.2C161,24.52,149.78,20.42,146,18.42Z"/><path class="cls-39" d="M111.58,44.62c-1.8,5.4-4.4,10.5-3.8,16.3h-.1V61h-.1C102.78,57.52,109.78,47.12,111.58,44.62Z"/><path class="cls-39" d="M106.48,47.82c-.6,3.1-1.6,6.1-2,9.2v.2C103.08,57.42,101.68,50.42,106.48,47.82Z"/><path class="cls-39" d="M111.88,39c6.3,1.1,3.6-.2,8.3,3.5C114.18,41.52,117,42.62,111.88,39Z"/><path class="cls-35" d="M54.08,69.72a29.17,29.17,0,0,1-4.8-2.9c-.3-.2-.5-.4-.8-.6l-1.8,1.7a26.51,26.51,0,0,0,3.4,3.3,6.9,6.9,0,0,0,2.8,1.5c.6.2.7-.1.7-.1.3-.1,1-.4,1.8-.7a9.25,9.25,0,0,1-.5-1A9.15,9.15,0,0,1,54.08,69.72Z"/><path class="cls-35" d="M55.38,71.82c-.8.3-1.4.6-1.8.7,0,0-.1.2-.7.1,11.4,21.4,22.9,34.8,38.6,43.8a2.09,2.09,0,0,1,.6.4l.7-5.3s-14.2-8.7-22.8-18.1C63.58,86.12,57.78,76.22,55.38,71.82Z"/><path class="cls-36" d="M108.18,123.82a23,23,0,0,1-4.4-3.3,67.14,67.14,0,0,1-10.4-13.3l-.6,4.3-.7,5.3-1.3,9.7,18,3.2,2.7.5,1.8.3,2.1.4,7.7,1.4v-.8a14.77,14.77,0,0,1,.1-2.1c.1-2.1.2-4.2.2-6.2,0-.8.1-1.5.1-2.2.1-2.4.2-4.7.3-6.8.1-2.9.3-5.3.3-6.9l-.6,7.1-.6,6.9-.4,5-.2,2a6.89,6.89,0,0,1-1.3-.2,42.09,42.09,0,0,1-4.8-1.2h0c-1.2-.4-2.6-.8-4.1-1.4-.8-.3-1.7-.7-2.6-1.1A7.54,7.54,0,0,1,108.18,123.82Z"/><path class="cls-36" d="M126.78,162.62c.4,6.6.8,13.5,1.2,19.8.1,1.9.2,3.7.3,5.5.3,6,.5,11.1.5,14.2,0,1.7,1.8,2.8,4.8,3.5,11.6,2.6,41-1.9,53.8-8.7.6-.3,1.2-.7,1.7-1a24.62,24.62,0,0,1-2.6-.2,87.71,87.71,0,0,1-29.4-7.8l-.9-.4c-1-.5-2-1-2.9-1.4-18.6-9.7-21.8-20.1-22.1-22.4s3.1-42.7,3.7-49.9a8.66,8.66,0,0,0,.1-1.1c0,.4-.1.7-.1,1.1-1.6,15.3-5.7,46.4-6.9,48.3A2.08,2.08,0,0,1,126.78,162.62Z"/><path class="cls-43" d="M109.68,71.12c-4,0-3.9,7.2.6,9.2,2.4,1,2.7-1.1,2.3-1.7s-1.5-.4-2.3-1.8.4-1.1.6-2.7A3.92,3.92,0,0,0,109.68,71.12Z"/><path class="cls-43" d="M163,57.12c3.4-2.2,7.2,4,4.4,8.1-1.5,2.1-2.9.6-2.9-.2s1.1-1.1,1-2.8-1-.7-2-1.9A5.08,5.08,0,0,1,163,57.12Z"/><path class="cls-39" d="M109.38,61.32s5.4,14.2,4.8,14.4-5.3-8.4-5.3-8.4Z"/><path class="cls-39" d="M159.48,49.22s1.4,15.2,2,15,1.1-9.9,1.1-9.9Z"/><path class="cls-2" d="M130,254.12c3.3-4.1,13.9-39.9,13.9-39.9s8.7-.8,27.4-7.8a83.63,83.63,0,0,0,16.9-8.5l-.8-1.1c-12.8,6.8-42.2,11.3-53.8,8.7-5.1,17.9-11.5,41.9-11.5,41.9L88,285.92s.1.3.2.7a33.76,33.76,0,0,0,1.3,4.2l7.7-6.8C109.58,273.12,127.78,256.82,130,254.12Z"/><path class="cls-2" d="M160.18,219.62c2.1-.2,35.5,21,35.5,21s-18.1,41.8-18.3,43.9v.5c.2,1.1,1.6,2.3,3.3,3l2-5.1,16.1-41.2,10.3-1.6-7-4.9-34.5-21Z"/><path class="cls-44" d="M136.58,97.52c-9.3-.7-17.2-6.6-22.2-15.6l-.1.1c4.8,10.6,13,17.7,23,18.6a24.48,24.48,0,0,0,13.8-2.9c9.4-5.1,13.7-16.1,12.9-28.7l-.2-.1c0,11.6-4.6,21.5-13.9,26a30.45,30.45,0,0,1-6,2.1A25.93,25.93,0,0,1,136.58,97.52Z"/><path class="cls-17" d="M150.68,78.42a10.09,10.09,0,0,1,.7,1.5,9.79,9.79,0,0,1-5.9,12.6h-.1a10.1,10.1,0,0,1-12.6-6.4,9.36,9.36,0,0,1-.4-1.6Z"/><path class="cls-18" d="M134.08,84.12l.6,1.6a1.27,1.27,0,0,0,1.6.8h0l12.9-4.6a1.27,1.27,0,0,0,.8-1.6h0l-.5-1.4Z"/></g></g></svg>