<svg xmlns="http://www.w3.org/2000/svg" viewBox="0 0 215.97 111.51"><defs><style>.cls-1{fill:#007bff;}</style></defs><g id="Layer_2" data-name="Layer 2"><g id="Layer_1-2" data-name="Layer 1"><path class="cls-1" d="M1.54,51.6l7-5.22L64.6,4.12l5-3.7c1.38-1,3-.1,3.69,2.05l.06.21a6.49,6.49,0,0,1,.19,1.6v25c0,2.38,1.23,4.31,2.75,4.32h137c1.52,0,2.76,1.92,2.77,4.29V73.1c0,2.39-1.24,4.32-2.77,4.32h-137c-1.51,0-2.74,1.93-2.75,4.29v25.52a6.49,6.49,0,0,1-.19,1.6c-.59,2.21-2.2,3.26-3.62,2.35l-.13-.1-5-3.76L8.49,64.62l-7-5.28C.16,58.28-.39,55.68.29,53.55A4,4,0,0,1,1.54,51.6Z"/></g></g></svg>