<svg xmlns="http://www.w3.org/2000/svg" viewBox="0 0 302.74 407.03"><defs><style>.cls-1{fill:#a3a3a3;}.cls-2{fill:none;}</style></defs><title>HostASessionDark</title><g id="Layer_2" data-name="Layer 2"><g id="Layer_1-2" data-name="Layer 1"><g id="Layer_1-2-2" data-name="Layer 1-2"><path class="cls-1" d="M199.11,311v12.22a19.38,19.38,0,0,1-16.45,19.2l-3,11.11a13.83,13.83,0,0,1-13.34,10.24H136.43a13.83,13.83,0,0,1-13.34-10.24l-2.93-11.11a19.48,19.48,0,0,1-16.53-19.28V311a11.77,11.77,0,0,1,11.73-11.79h72A11.9,11.9,0,0,1,199.11,311Z"/><path class="cls-1" d="M150.68,43.22a103.08,103.08,0,0,0-73.6,174.5,95.54,95.54,0,0,1,25.48,51.48,16.88,16.88,0,0,0,16.79,14.29h64a17,17,0,0,0,16.87-14.38,94.6,94.6,0,0,1,25.31-51.3A103,103,0,0,0,150.68,43.22Zm.69,52.26a51.19,51.19,0,0,0-51.13,51.13,11.63,11.63,0,0,1-23.25,0,74.46,74.46,0,0,1,74.38-74.38,11.63,11.63,0,0,1,0,23.25Z"/><rect class="cls-2" width="302.74" height="407.03"/></g></g></g></svg>