<svg xmlns="http://www.w3.org/2000/svg" viewBox="0 0 41.66 47"><defs><style>.cls-1{fill:#343a40;}</style></defs><title>hourglass-dark</title><g id="Layer_2" data-name="Layer 2"><g id="Layer_1-2" data-name="Layer 1"><g id="Layer_1-3" data-name="Layer 1"><path class="cls-1" d="M19.76,22.43a1.07,1.07,0,0,0,2.14,0A5.28,5.28,0,0,1,23.15,19a22,22,0,0,0,4-6.85,1.08,1.08,0,0,0-.14-1,1.05,1.05,0,0,0-.87-.46H15.53a1.08,1.08,0,0,0-.88.46,1,1,0,0,0-.13,1,21.84,21.84,0,0,0,4,6.85A5.33,5.33,0,0,1,19.76,22.43Z"/><path class="cls-1" d="M21.9,26.71a1.07,1.07,0,1,0-2.14,0A5.54,5.54,0,0,1,17.17,31a28,28,0,0,0-8,8.52,1.05,1.05,0,0,0,0,1.07,1.08,1.08,0,0,0,.92.53H31.51a1.08,1.08,0,0,0,.92-.53,1.05,1.05,0,0,0,0-1.07A28.14,28.14,0,0,0,24.49,31,5.54,5.54,0,0,1,21.9,26.71Z"/><path class="cls-1" d="M39.52,42.73h-.64c-.73-8.31-5.6-14.7-9.38-19.23C33.28,19,38.15,12.59,38.88,4.27h.64a2.14,2.14,0,1,0,0-4.27H2.14a2.14,2.14,0,1,0,0,4.27h.63C3.51,12.59,8.38,19,12.16,23.5,8.38,28,3.51,34.42,2.77,42.73H2.14a2.14,2.14,0,1,0,0,4.27H39.52a2.14,2.14,0,1,0,0-4.27Zm-32.46,0c.8-7.51,5.68-13.3,9.33-17.62l.2-.23a2.13,2.13,0,0,0,0-2.75l-.2-.23C12.74,17.57,7.86,11.79,7.06,4.28H34.6c-.8,7.51-5.69,13.29-9.34,17.62l-.19.23a2.13,2.13,0,0,0,0,2.75l.2.23c3.64,4.32,8.53,10.11,9.33,17.62Z"/></g></g></g></svg>