<svg xmlns="http://www.w3.org/2000/svg" viewBox="0 0 92 92"><defs><style>.cls-1,.cls-2{fill:#d4d4d4;}.cls-1{fill-rule:evenodd;}.cls-2{stroke:#000;stroke-miterlimit:10;stroke-width:4px;}.cls-3{fill:#070606;}</style></defs><title>instagram</title><g id="Layer_2" data-name="Layer 2"><g id="Layer_1-2" data-name="Layer 1"><path class="cls-1" d="M46.14,89.56a44,44,0,1,0-44-44,44,44,0,0,0,44,44Z"/><path class="cls-2" d="M46,90A44,44,0,1,0,2,46,44,44,0,0,0,46,90Z"/><path class="cls-3" d="M46,22.69c-6.33,0-7.12,0-9.61.14a17.23,17.23,0,0,0-5.66,1.09,12,12,0,0,0-6.81,6.81,17.23,17.23,0,0,0-1.09,5.66c-.11,2.49-.14,3.28-.14,9.61s0,7.12.14,9.61a17.23,17.23,0,0,0,1.09,5.66,12,12,0,0,0,6.81,6.81,17.23,17.23,0,0,0,5.66,1.09c2.49.11,3.28.14,9.61.14s7.12,0,9.61-.14a17.23,17.23,0,0,0,5.66-1.09,12,12,0,0,0,6.81-6.81,17.23,17.23,0,0,0,1.09-5.66c.11-2.49.14-3.28.14-9.61s0-7.12-.14-9.61a17.23,17.23,0,0,0-1.09-5.66,12,12,0,0,0-6.81-6.81,17.23,17.23,0,0,0-5.66-1.09c-2.49-.11-3.28-.14-9.61-.14Zm0,4.2c6.22,0,7,0,9.42.14a12.88,12.88,0,0,1,4.33.8,7.83,7.83,0,0,1,4.42,4.42,12.88,12.88,0,0,1,.8,4.33c.11,2.46.14,3.2.14,9.42s0,7-.14,9.42a12.88,12.88,0,0,1-.8,4.33,7.83,7.83,0,0,1-4.42,4.42,12.88,12.88,0,0,1-4.33.8c-2.46.11-3.2.14-9.42.14s-7,0-9.42-.14a12.88,12.88,0,0,1-4.33-.8,7.83,7.83,0,0,1-4.42-4.42,12.88,12.88,0,0,1-.8-4.33c-.11-2.46-.14-3.2-.14-9.42s0-7,.14-9.42a12.88,12.88,0,0,1,.8-4.33,7.83,7.83,0,0,1,4.42-4.42,12.88,12.88,0,0,1,4.33-.8c2.46-.11,3.2-.14,9.42-.14"/><path class="cls-3" d="M46,53.77A7.77,7.77,0,1,1,53.77,46,7.77,7.77,0,0,1,46,53.77ZM46,34A12,12,0,1,0,58,46,12,12,0,0,0,46,34Z"/><path class="cls-3" d="M61.24,33.56a2.8,2.8,0,1,1-2.8-2.8,2.8,2.8,0,0,1,2.8,2.8Z"/></g></g></svg>