<svg xmlns="http://www.w3.org/2000/svg" viewBox="0 0 923.27 1888.51"><defs><style>.cls-1{fill:#fff;}.cls-2{fill:#333;}.cls-3{fill:#b3b3b3;}.cls-4{fill:#211c1d;}</style></defs><title>Mobile</title><g id="Layer_2" data-name="Layer 2"><g id="DESIGNED_BY_FREEPIK" data-name="DESIGNED BY FREEPIK"><rect class="cls-1" x="27.35" y="14.74" width="868.57" height="1843.4" rx="97.11"/><rect class="cls-2" x="27.35" y="36.28" width="868.57" height="168.82" rx="36.45"/><rect class="cls-2" x="27.35" y="1678.11" width="868.57" height="168.82" rx="36.45"/><rect class="cls-2" x="611.86" y="27.21" width="255.64" height="168.82" rx="36.45"/><rect class="cls-2" x="60.81" y="27.4" width="255.64" height="168.82" rx="36.45"/><rect x="266.25" y="14.74" width="390.76" height="75.72" rx="25.4"/><circle class="cls-1" cx="590.32" cy="52.6" r="9.64"/><rect class="cls-3" x="149.07" y="460.1" width="628.16" height="222.24"/><rect class="cls-3" x="147.55" y="793.45" width="628.16" height="222.24"/><rect class="cls-3" x="147.55" y="1126.8" width="628.16" height="222.24"/><rect class="cls-2" x="23.39" y="149.42" width="884.41" height="55.68"/><rect class="cls-2" x="9.78" y="1678.11" width="907.09" height="63.25"/><path class="cls-4" d="M782.81,0H139.62C62.32,0,0,63.37,0,140.71V1747.08c0,77.47,62.32,141.43,139.62,141.43H782.81c77.21,0,140.46-64,140.46-141.43V140.71C923.27,63.37,860,0,782.81,0ZM895.92,1736.78a106.87,106.87,0,0,1-106.87,106.87H134.22A106.87,106.87,0,0,1,27.35,1736.78V134.08A106.87,106.87,0,0,1,134.22,27.21H789.05A106.87,106.87,0,0,1,895.92,134.08Z"/></g></g></svg>