<svg xmlns="http://www.w3.org/2000/svg" viewBox="0 0 52.28 95.67"><defs><style>.cls-1{fill:#a3a3a3;}</style></defs><title>dollarSymbol</title><g id="Layer_2" data-name="Layer 2"><g id="Layer_1-2" data-name="Layer 1"><path class="cls-1" d="M52.28,65.57c0-7.57-2.94-13.56-8.91-17.78-4.61-3.26-10.2-5-15.61-6.59C16.49,37.79,13.22,36,13.22,30.6c0-6,7.8-8.14,14.48-8.14a28,28,0,0,1,13.94,3.75l6.89-10.67A39.68,39.68,0,0,0,31.63,10V0H18.92V10.66C7.62,13.15.5,20.53.5,30.6A19.08,19.08,0,0,0,9.19,47.18c4.38,3,9.73,4.62,14.89,6.19,11.05,3.34,15.54,5.38,15.49,12.12v.05c0,5.66-7.5,7.67-13.93,7.67-6.06,0-12.67-2.66-16.41-6.62L0,75.33a35.45,35.45,0,0,0,18.92,9.94v10.4H31.63V85.5C44.18,83.7,52.26,76.14,52.28,65.57Z"/></g></g></svg>