<svg xmlns="http://www.w3.org/2000/svg" viewBox="0 0 79.11 79.11"><defs><style>.cls-1{fill:#a9a9a9;}</style></defs><title>MyListingsDark_1</title><g id="Layer_2" data-name="Layer 2"><g id="Layer_1-2" data-name="Layer 1"><path class="cls-1" d="M55.41,0H23.7A23.7,23.7,0,0,0,0,23.7V55.41a23.7,23.7,0,0,0,23.7,23.7H55.41a23.7,23.7,0,0,0,23.7-23.7V23.7A23.7,23.7,0,0,0,55.41,0ZM16,57.87a5.38,5.38,0,1,1,5.38-5.38A5.38,5.38,0,0,1,16,57.87ZM16,32a5.38,5.38,0,1,1,5.38-5.38A5.38,5.38,0,0,1,16,32ZM68.51,56.7a1.17,1.17,0,0,1-1.17,1.17H26.11a1.17,1.17,0,0,1-1.17-1.17V48.28a1.17,1.17,0,0,1,1.17-1.17H67.34a1.17,1.17,0,0,1,1.17,1.17Zm0-25.87A1.17,1.17,0,0,1,67.34,32H26.11a1.17,1.17,0,0,1-1.17-1.17V22.41a1.17,1.17,0,0,1,1.17-1.17H67.34a1.17,1.17,0,0,1,1.17,1.17Z"/></g></g></svg>