<svg xmlns="http://www.w3.org/2000/svg" viewBox="0 0 1347.99 775.01"><defs><style>.cls-1,.cls-7{fill:#f2f2f2;}.cls-2{fill:#2f2e41;}.cls-3,.cls-6{fill:#007bff;}.cls-4{fill:none;stroke:#3f3d56;stroke-miterlimit:10;}.cls-5{fill:#fff;}.cls-6{opacity:0.3;isolation:isolate;}.cls-7{font-size:67px;font-family:OpenSans-Bold, Open Sans;font-weight:700;}</style></defs><g id="Layer_2" data-name="Layer 2"><g id="Layer_1-2" data-name="Layer 1"><ellipse class="cls-1" cx="648.51" cy="740.09" rx="527.5" ry="34.92"/><path class="cls-2" d="M628.29,357.79c-85.94,0-147.65,55.14-147.65,183.79C480.64,687.4,542.35,726,628.29,726s151.33-42.27,151.33-184.41C779.62,389.64,714.23,357.79,628.29,357.79Zm.56,319.8c-59.52,0-90.62-34.92-90.62-135.91,0-89.11,32.37-136.11,91.9-136.11S722,436.44,722,541.68C722,640.13,688.38,677.59,628.85,677.59Z"/><path class="cls-3" d="M429.18,624.29H393.64V519.65a21,21,0,0,0-20.95-20.95h-8.33a21,21,0,0,0-21,20.95h0V624.29H243.17a12,12,0,0,1-10.57-17.55L338.68,406a21,21,0,0,0-8.74-28.32l-.84-.42-6.27-3a21,21,0,0,0-27.42,9.07L166,625.37a28.43,28.43,0,0,0-3.35,13.39h0a28.41,28.41,0,0,0,28.41,28.42H343.4v66.17a25.12,25.12,0,0,0,25.12,25.12h0a25.12,25.12,0,0,0,25.12-25.12h0V667.18h35.54a21.44,21.44,0,0,0,21.44-21.44h0a21.44,21.44,0,0,0-21.44-21.45Z"/><path class="cls-3" d="M1087.17,624.29h-35.53V519.65a21,21,0,0,0-21-20.95h-8.32a21,21,0,0,0-21,20.95h0V624.29H901.17a12,12,0,0,1-10.58-17.55L996.67,406a21,21,0,0,0-8.73-28.32l-.85-.42-6.26-3a21,21,0,0,0-27.43,9.07L824,625.37a28.44,28.44,0,0,0-3.36,13.39h0a28.42,28.42,0,0,0,28.42,28.42H1001.4v66.17a25.12,25.12,0,0,0,25.12,25.12h0a25.12,25.12,0,0,0,25.12-25.12h0V667.18h35.53a21.44,21.44,0,0,0,21.44-21.44h0a21.44,21.44,0,0,0-21.44-21.45Z"/><path class="cls-4" d="M439,612H403.44V507.4a21,21,0,0,0-20.95-21h-8.33a21,21,0,0,0-21,21h0V612H253a12,12,0,0,1-10.58-17.55L348.48,393.71a21,21,0,0,0-8.74-28.32l-.84-.42-6.26-3a21,21,0,0,0-27.43,9.07l-129.38,242a28.39,28.39,0,0,0-3.36,13.4h0a28.42,28.42,0,0,0,28.42,28.42H353.21v66.16a25.11,25.11,0,0,0,25.11,25.12h0a25.11,25.11,0,0,0,25.12-25.12h0V654.93H439a21.44,21.44,0,0,0,21.44-21.45h0A21.44,21.44,0,0,0,439,612Z"/><path class="cls-4" d="M1105.55,612H1070V507.4a21,21,0,0,0-21-21h-8.32a21,21,0,0,0-21,21h0V612H919.55A12,12,0,0,1,909,594.49l106.08-200.78a21,21,0,0,0-8.74-28.32q-.4-.22-.84-.42l-6.26-3a21,21,0,0,0-27.43,9.07l-129.38,242a28.51,28.51,0,0,0-3.36,13.4h0a28.43,28.43,0,0,0,28.42,28.42h152.32v66.16a25.12,25.12,0,0,0,25.12,25.12h0A25.12,25.12,0,0,0,1070,721.09h0V654.93h35.53A21.44,21.44,0,0,0,1127,633.48h0A21.44,21.44,0,0,0,1105.55,612Z"/><path class="cls-4" d="M647.89,346.76c-85.94,0-147.65,55.14-147.65,183.8C500.24,676.37,562,715,647.89,715s151.33-42.28,151.33-184.41C799.22,378.62,733.84,346.76,647.89,346.76Zm.57,319.81c-59.53,0-90.63-34.93-90.63-135.92,0-89.11,32.38-136.1,91.9-136.1s91.9,30.86,91.9,136.1c0,98.45-33.64,135.92-93.17,135.92Z"/><ellipse class="cls-2" cx="588.81" cy="509.89" rx="17" ry="22"/><ellipse class="cls-2" cx="681.31" cy="510.39" rx="17" ry="22"/><path class="cls-2" d="M668.31,575.39c0,9.94-13.88,18-31,18s-31-8.06-31-18c0-8.61,10.41-15.81,24.32-17.57a51.44,51.44,0,0,1,6.68-.43,50.79,50.79,0,0,1,11.13,1.2C660.06,561.18,668.31,567.73,668.31,575.39Z"/><ellipse class="cls-4" cx="592.81" cy="504.89" rx="17" ry="22"/><ellipse class="cls-4" cx="685.31" cy="505.39" rx="17" ry="22"/><ellipse class="cls-4" cx="641.31" cy="570.39" rx="31" ry="18"/><path class="cls-5" d="M648.81,560.09a4.9,4.9,0,0,1-1.32,3.39,4.3,4.3,0,0,1-3.18,1.41h-10a4.66,4.66,0,0,1-4.5-4.8,4.87,4.87,0,0,1,.82-2.74,48.92,48.92,0,0,1,17.81.82A5,5,0,0,1,648.81,560.09Z"/><circle class="cls-5" cx="592.81" cy="498.89" r="5"/><circle class="cls-5" cx="685.81" cy="498.89" r="5"/><circle class="cls-6" cx="690.81" cy="545.89" r="5"/><circle class="cls-6" cx="568.81" cy="545.89" r="5"/><text class="cls-7" transform="translate(553.67 198.62)">Oops! <tspan x="-534.99" y="80.4">No Tutors in this Major...Search Again</tspan></text><text/><text/></g></g></svg>