<svg xmlns="http://www.w3.org/2000/svg" viewBox="0 0 894.13 610.93"><defs><style>.cls-1{fill:#d0cde1;}.cls-2{fill:#3f3d56;}.cls-3{fill:#ff6584;}.cls-4{fill:#6c63ff;}.cls-5{fill:#f1f1f1;}.cls-6{fill:#fbbebe;}.cls-7{fill:#2f2e41;}.cls-8{opacity:0.1;isolation:isolate;}.cls-9{fill:#a0616a;}</style></defs><title>OurSolution</title><g id="Layer_2" data-name="Layer 2"><g id="fbe6a470-e545-4a3c-ab88-8fc38f19e601"><ellipse class="cls-1" cx="447.07" cy="582.87" rx="447.07" ry="28.06"/><rect class="cls-2" x="187.07" width="520" height="212.13"/><path class="cls-3" d="M261.8,79H223a135.86,135.86,0,0,1,0-46.22H261.8A81.86,81.86,0,0,0,261.8,79Z"/><path class="cls-4" d="M342.55,66h38.77a135.86,135.86,0,0,0,0-46.22H342.55A83.11,83.11,0,0,1,342.55,66Z"/><path class="cls-5" d="M585.75,87.79q30.74.33,61.4-1.9l-1.36-1.78c-3.35,8.48-3.26,17.42-2.81,26.39.11,2.25.81,5.28.36,7.5-.58,2.8-3.09,2.13-5.59,2.21q-8.25.27-16.52.39-7.8.11-15.6.09-3.68,0-7.34-.06c-2.88,0-6.15.81-6.89-2.52-.47-2.14,0-4.94,0-7.13V86.91a1.41,1.41,0,0,0-2.81,0l0,19.61v8.91c0,1.77-.37,3.91.29,5.59,1.52,3.87,8.09,2.42,11.24,2.45q9.64.09,19.28,0t19.27-.44c2.77-.09,6.6.54,7.43-2.87.59-2.4-.09-5.52-.22-8-.14-2.78-.3-5.57-.33-8.36-.09-6.51.55-12.85,3-19a1.4,1.4,0,0,0-1-1.73,1.49,1.49,0,0,0-.36,0q-30.66,2.22-61.4,1.9a1.41,1.41,0,0,0,0,2.81Z"/><path class="cls-5" d="M591.59,89.32a208.28,208.28,0,0,1,25.59,11.05c7.42,3.84,17.14,8,22.24,14.88,1.07,1.44,3.52,0,2.43-1.42-5.21-7-14.19-11.12-21.73-15.1a211.31,211.31,0,0,0-27.78-12.12c-1.71-.61-2.45,2.11-.75,2.71Z"/><path class="cls-5" d="M646.67,84.31c-9.31,4-17.19,11.64-25.51,17.32q-13.5,9.23-27.8,17.17c-1.59.88-.17,3.32,1.42,2.43q14.26-8,27.8-17.16c8.32-5.68,16.21-13.35,25.51-17.33C649.75,86,648.32,83.6,646.67,84.31Z"/><path class="cls-5" d="M403.56,93.05q28.47.42,56.94-.23c1.81,0,1.82-2.86,0-2.82q-28.47.66-56.94.23a1.41,1.41,0,0,0,0,2.82Z"/><path class="cls-5" d="M405.16,105.81q29.26.47,58.53-.25c1.81,0,1.82-2.86,0-2.81q-29.26.7-58.53.25a1.41,1.41,0,0,0,0,2.81Z"/><path class="cls-5" d="M403,119.6,458.37,117c1.8-.09,1.81-2.9,0-2.82L403,116.78C401.21,116.87,401.2,119.68,403,119.6Z"/><path class="cls-5" d="M489.23,106.21h52.68a1.41,1.41,0,0,0,0-2.82H489.23a1.41,1.41,0,0,0,0,2.82Z"/><path class="cls-5" d="M539.6,90.11l8.24,7.51c.94.86,3.53,2.64,4.11,3.76,1.21,2.32-.09,1.79-2.16,2.6a46.41,46.41,0,0,0-13.86,8.6c-1.36,1.2.64,3.19,2,2a43.21,43.21,0,0,1,12.62-7.88c1.66-.65,4.81-1,5.6-3,1-2.42-2.11-4.2-3.57-5.53l-11-10c-1.34-1.22-3.34.77-2,2Z"/><path class="cls-4" d="M411.75,200h38.77a135.35,135.35,0,0,0,0-46.22H411.75A83.11,83.11,0,0,1,411.75,200Z"/><path class="cls-4" d="M250.31,165.3h38.77a135.35,135.35,0,0,0,0-46.22H250.31A83.11,83.11,0,0,1,250.31,165.3Z"/><path class="cls-4" d="M495.29,63.93h38.77a135.35,135.35,0,0,0,0-46.22H495.29A83.11,83.11,0,0,1,495.29,63.93Z"/><polygon class="cls-6" points="880.9 534.85 885.96 555.06 863.72 561.13 861.7 539.9 880.9 534.85"/><polygon class="cls-6" points="800.05 560.12 800.05 579.32 777.81 583.36 773.77 573.25 781.86 556.07 800.05 560.12"/><path class="cls-7" d="M844.52,350.91l-3,27.28,2,52.56a3,3,0,0,1,3,2.9v.13c0,3-3,2,0,4a52.8,52.8,0,0,0,5.05,3l32.34,98S875.85,549,860.69,546l-3-10.11s-6.07-6.07-6.07-9.1,2-4,0-7.07S819.25,455,819.25,455L805.1,429.74l-4,34.36s8.08,43.46,6.06,63.67-6.06,41.44-6.06,41.44l-24.26-4a16.89,16.89,0,0,0-3-9.1c-3-4-7.07-3-3-6.06s9.09,0,5-4-4-8.09-4-8.09v-3L765.69,457,754.57,355Z"/><circle class="cls-6" cx="775.79" cy="139.68" r="27.29"/><polygon class="cls-6" points="799.54 140.18 810.66 167.47 784.38 186.67 768.21 158.37 799.54 140.18"/><path class="cls-1" d="M801.06,160.9l10.11-5.05L817.23,170s39.42,12.12,36.38,67.71-10.1,76.81-10.1,76.81,17.18,36.39,7.07,40.43-96,19.2-98,5.05,7.07-97,7.07-97-3-59.63,22.24-71.76L776.8,180.1Z"/><path class="cls-6" d="M745.47,357s-23.24,24.26-10.1,30.32S756.59,360,756.59,360Z"/><path class="cls-7" d="M793,574.26l11.12-4s12.13,27.29,2,27.29H779.83s-15.16-5-23.24-5-23.25-15.16-12.13-22.24,25.27-5.05,25.27-5.05l4-9.1,5.05,14.15S784.89,580.33,793,574.26Z"/><path class="cls-7" d="M874.84,552s6.33-4,9.73-2.5S890,567.19,890,567.19s10.1,12.13-12.13,14.15-27.29-2-29.31-8.09,2-12.12,2-12.12l6.07-2s7.07-5.05,5.05-7.07,0-6.06,0-6.06S868.77,560.12,874.84,552Z"/><path class="cls-7" d="M785.13,139.24a13.45,13.45,0,0,0-.6-2.6c-1.46-3.08-7.19-2.18-8.21-5.43-.2-.64-.15-1.33-.35-2-.5-1.62-2.41-2.43-4.11-2.35a22.06,22.06,0,0,0-4.93,1.27c-4,1.13-8.25.7-12.38.26a12.67,12.67,0,0,1-5.29-1.38c-1.56-1-2.69-2.9-2.12-4.65s2.38-2.59,3.2-4.15c1.31-2.47-.29-5.67.77-8.25,1.7-4.16,8.15-3.32,11.42-6.39.8-.75,1.37-1.7,2.13-2.48,2.26-2.31,5.83-2.75,9.05-2.43s6.37,1.26,9.6,1.2c3.07,0,6.28-1,9.1.21a13,13,0,0,1,4.28,3.51l7.24,7.94a9,9,0,0,1,2.24,3.37c.43,1.52,0,3.16.22,4.73.42,3.58,3.78,6.29,4.23,9.87a12.82,12.82,0,0,1-.16,3.33l-1,7.48a5.61,5.61,0,0,1-.57,2.09c-.3.51-.75.91-1.08,1.39-.94,1.35-.85,3.15-1.32,4.73s-2.13,3.14-3.59,2.38c-1-.49-1.59-4.61-2.75-5.68-1.61-1.48-2.45-1.3-4.45-1.27C791.71,144,786.4,144.36,785.13,139.24Z"/><path class="cls-1" d="M789.94,198.29s30.32,12.13,21.23,39.42-33.36,111.17-33.36,111.17L763.66,356l-4,11.12L740.42,360l3-15.16s1-1,1-5-4-5.06,1-5.06,5.06-5.05,5.06-5.05l18.19-113.19S768.72,197.28,789.94,198.29Z"/><polygon class="cls-8" points="812.68 243.27 781.35 350.4 768.21 363.54 775.79 349.89 812.68 243.27"/><polygon class="cls-7" points="60.87 179.12 92.63 184.42 103.22 134.13 77.63 123.54 60.87 179.12"/><circle class="cls-9" cx="104.54" cy="141.63" r="27.35"/><path class="cls-9" d="M92.63,157.07S95.28,190.59,75,193.24,92.63,255.88,102.33,255s27.35-65.29,27.35-65.29-22.94-15.88-15-30Z"/><path class="cls-9" d="M58.66,279.26s3.53,25.59,14.12,25.59-7.06-29.12-7.06-29.12Z"/><path class="cls-9" d="M213.06,304.85S239.52,326.9,236,334s-26.47-7.94-28.24-25.59Z"/><path class="cls-9" d="M53.37,389.54,36.61,452.18,18.08,528.06H35.72s6.18-23.82,17.65-36.18c0,0,11.47-19.41,11.47-32.64l27.35-64.4Z"/><path class="cls-9" d="M125.71,393.07l5.3,59.11s-.89,42.35,0,52.06,0,23.82,0,23.82h15.88s15-52.06,10.58-80.29l6.18-66.17Z"/><path class="cls-7" d="M104.54,230.74S80.77,211.9,86.92,185.59c0,0-23.85,1-33.55,10.74S56,238.68,56,238.68,77.19,274,73.66,289.85s-41.47,99.69-29.11,105,87.34,23.82,125.28-7.06c0,0,9.7-87.35-29.12-115.58v-22s7.06-6.18,3.53-22.06c0,0,15-27.35,6.18-32.64s-29.09-13.06-29.09-13.06S123.07,221.91,104.54,230.74Z"/><path class="cls-7" d="M58.66,196.33s-11.47-1.77-22.94,15S-5.74,254.56,8.37,267.79s52.06,22.06,52.06,22.06L69.25,274,31.31,255.44l31.76-23.82Z"/><path class="cls-7" d="M146,196.33s12.36,0,17.65,15,36.17,66.17,36.17,66.17l17.65,27.35L205.12,319l-34.41-38.82-32.65-53.82Z"/><path class="cls-7" d="M39.25,526.29H14.55L9.26,569.52s-14.12,22.94,7,20.29,14.12-26.46,14.12-26.46l5.29-8.83,1.77,18.53,1.76-.88V551.88S49,543.05,39.25,526.29Z"/><path class="cls-7" d="M151.3,526.29l-22.94-1.76L124,573.93s-2.65,18.53,13.23,15.88,10.59-17.64,10.59-17.64V544.82Z"/><path class="cls-7" d="M84.69,113.84S71.84,118.12,71.18,135a30.54,30.54,0,0,0,.89,8c.73,3.07,1.19,9.67-4.42,18.3A181.77,181.77,0,0,0,57.38,179l0,.08,14.11,1.77,3-23.4a116.41,116.41,0,0,1,9.25-32.85l.1-.22s6.17,11.47,18.52,11.47l-4.41-4.41s19.41,7.94,26.47,7.94c0,0,5.29,3.53,0,8.82s-15.88,17.65-9.71,27.35.89,12.36.89,12.36l9.7-5.3,4.41-2.64v3.52l22.94-2.64s6.18-.88-7.06-15.88c0,0-3.49-5.83-2-10.85a25.47,25.47,0,0,0,1-11.85C141.6,125.77,130,92.89,84.69,113.84Z"/><path class="cls-2" d="M586.14,609.21c-.12-.2-2.95-4.93-3.93-14.75-.9-9-.32-24.19,7.55-45.37,14.92-40.12-3.44-72.49-3.63-72.81l.91-.53a80.35,80.35,0,0,1,7.58,21.48,93.7,93.7,0,0,1-3.88,52.23c-14.89,40-3.82,59-3.71,59.2Z"/><circle class="cls-2" cx="580.31" cy="467.12" r="6.8"/><circle class="cls-2" cx="601.76" cy="492.24" r="6.8"/><circle class="cls-4" cx="587.11" cy="508.98" r="6.8"/><circle class="cls-4" cx="604.9" cy="523.11" r="6.8"/><circle class="cls-2" cx="581.88" cy="545.09" r="6.8"/><path class="cls-2" d="M590.25,609.46s-6.8-16.75,13.61-29.31Z"/><path class="cls-2" d="M581.88,609.15s-3.09-17.81-27.06-17.65Z"/><path class="cls-1" d="M311.94,559.75c-.12-.19-2.95-4.92-3.93-14.74-.9-9-.32-24.19,7.55-45.37,14.92-40.12-3.44-72.49-3.62-72.82l.9-.52a79.88,79.88,0,0,1,7.58,21.48A93.7,93.7,0,0,1,316.54,500c-14.89,40-3.82,59-3.7,59.2Z"/><circle class="cls-2" cx="306.11" cy="417.67" r="6.8"/><circle class="cls-2" cx="327.56" cy="442.78" r="6.8"/><circle class="cls-1" cx="312.91" cy="459.53" r="6.8"/><circle class="cls-1" cx="330.7" cy="473.66" r="6.8"/><circle class="cls-2" cx="307.68" cy="495.64" r="6.8"/><path class="cls-1" d="M316.05,560s-6.8-16.74,13.61-29.3Z"/><path class="cls-1" d="M307.69,559.7s-3.1-17.81-27.06-17.66Z"/></g></g></svg>