<svg xmlns="http://www.w3.org/2000/svg" viewBox="0 0 907.02 816.72"><defs><style>.cls-1{fill:#e6e6e6;}.cls-2{fill:#fff;}.cls-3{fill:#3f3d56;}.cls-4{fill:#f9a826;}.cls-5{fill:#ffb9b9;}.cls-6{fill:#2f2e41;}.cls-7{fill:#6c63ff;}.cls-8{opacity:0.1;isolation:isolate;}.cls-9{font-size:38.61px;font-family:DINCondensed-Bold, DIN Condensed;font-weight:700;}</style></defs><g id="Layer_2" data-name="Layer 2"><g id="Layer_1-2" data-name="Layer 1"><path class="cls-1" d="M490.63,284.86a4.78,4.78,0,0,0-4.78,4.76L484.67,800a4.78,4.78,0,0,0,4.77,4.78l411.62,1a4.78,4.78,0,0,0,4.79-4.76L907,290.59a4.78,4.78,0,0,0-4.76-4.78Z"/><path class="cls-2" d="M505.63,299.93a4.78,4.78,0,0,0-4.78,4.77L499.74,785a4.78,4.78,0,0,0,4.76,4.79l380.57.88a4.78,4.78,0,0,0,4.78-4.77L891,305.6a4.78,4.78,0,0,0-4.76-4.79Z"/><path class="cls-1" d="M836.16,508.81l-281.08-.65a7.31,7.31,0,0,1-7.22-5.61,7.18,7.18,0,0,1,7-8.74l281.09.65a7.3,7.3,0,0,1,7.22,5.61A7.19,7.19,0,0,1,836.16,508.81Z"/><path class="cls-1" d="M838.47,375.81l-186.09-.44c-2.62,0-4.74-3.27-4.73-7.29s2.14-7.28,4.76-7.27l186.1.44c2.62,0,4.74,3.27,4.73,7.29S841.1,375.82,838.47,375.81Z"/><path class="cls-1" d="M838.38,416.81l-186.09-.44c-2.63,0-4.74-3.27-4.74-7.29s2.15-7.28,4.77-7.27l186.09.44c2.62,0,4.74,3.27,4.73,7.29S841,416.82,838.38,416.81Z"/><path class="cls-1" d="M836.06,554.81,555,554.16a7.31,7.31,0,0,1-7.22-5.61,7.19,7.19,0,0,1,7-8.74l281.09.65a7.31,7.31,0,0,1,7.22,5.61,7.19,7.19,0,0,1-7,8.74Z"/><path class="cls-1" d="M836,601.81l-281.31-.65A7.22,7.22,0,0,1,548,591.09a7,7,0,0,1,6.58-4.28h.06l281.31.65a7.22,7.22,0,0,1,6.61,10.07,7,7,0,0,1-6.58,4.28Z"/><path class="cls-1" d="M835.84,647.81l-281.31-.65a7.21,7.21,0,0,1-6.6-10.07,7,7,0,0,1,6.57-4.28h.07l281.31.65a7.18,7.18,0,0,1,0,14.35Z"/><path class="cls-1" d="M835.74,693.81l-281.31-.65a7.18,7.18,0,0,1,0-14.35l281.31.65a7.18,7.18,0,0,1,0,14.35Z"/><path class="cls-1" d="M835.63,740.81l-281.31-.65a7.22,7.22,0,0,1-6.61-10.07,7,7,0,0,1,6.58-4.28h.06l281.31.65a7.22,7.22,0,0,1,6.61,10.07,7,7,0,0,1-6.58,4.28Z"/><circle class="cls-3" cx="586.06" cy="388.93" r="37.69"/><path class="cls-4" d="M801.85,378.19V289a50.5,50.5,0,0,0-101-2.22h11a39.48,39.48,0,0,1,39.46-37.87h.59a39.49,39.49,0,0,1,38.94,40V378.9A26.5,26.5,0,0,1,764.35,405H764a26.49,26.49,0,0,1-26.18-26.78l.06-88.83a13.47,13.47,0,0,1,26.94-.09v67.29a5.69,5.69,0,0,0,5,5.76,5.51,5.51,0,0,0,6-5.48V289.16a24.5,24.5,0,0,0-49,.08l-.06,88.89a37.54,37.54,0,0,0,37.07,37.94h.46A37.56,37.56,0,0,0,801.85,379Z"/><g id="Group_1" data-name="Group 1"><path id="Path_16" data-name="Path 16" class="cls-5" d="M451.68,738.93l-3,28.71,16.83-2,2-23.76Z"/><path id="Path_17" data-name="Path 17" class="cls-6" d="M407.13,520.9S321,604.07,375.44,629.81h16.84s36.63-60.4,54.45-59.41l4.95,57.43-3,115.84,21.78,1s12.87-58.42,11.88-91.09l22.78-120.79Z"/><path id="Path_18" data-name="Path 18" class="cls-6" d="M379.55,625.81l12,4s47-11,50-10l9.31-.07-.31-23.93h-40Z"/><path id="Path_19" data-name="Path 19" class="cls-6" d="M467.52,761.7s-17.82-7.92-20.79,0-2,30.69-2,30.69a22.09,22.09,0,0,1,2,14.85c-2,7.92,7.92,11.88,20.79,7.92s12.87-13.86,12.87-13.86Z"/><path id="Path_20" data-name="Path 20" class="cls-6" d="M482.37,594.37s13.86-7.92,12.87,4a78.1,78.1,0,0,1-5.94,22.77s12.87,33.66,0,36.63-22.77-4-22.77-8.91S482.37,594.37,482.37,594.37Z"/><path id="Path_21" data-name="Path 21" class="cls-5" d="M439.22,323.09l2,37.62L458,375.56l18.81-26.73V322.1Z"/><path id="Path_22" data-name="Path 22" class="cls-7" d="M451.68,360.71l-11.34-8.42-7.47,11.39-33.67,19.8L419,435l1,50.49S383.36,523.09,405.14,528s99,15.84,103,6.93-4.95-101-4.95-101l3-78.22L476.43,345Z"/><path id="Path_23" data-name="Path 23" class="cls-5" d="M391.28,423.14s-7.92,56.1,6.93,56.1A68.22,68.22,0,0,0,424,474.29L412.08,443.6,417,422.81Z"/><path id="Path_24" data-name="Path 24" class="cls-5" d="M414.06,472.59l10.89,2s31.68-19.8,33.66-20.79S426.93,436,426.93,436l-22.78,8.91Z"/><path id="Path_25" data-name="Path 25" class="cls-8" d="M426.93,435.68l-14.3,5.6,4.4-18.47-25.75.33s-7.92,56.1,6.94,56.1A68.17,68.17,0,0,0,424,474.29l-.08-.19,1.07.19s31.68-19.8,33.66-20.79S426.93,435.68,426.93,435.68Z"/><circle id="Ellipse_5" data-name="Ellipse 5" class="cls-5" cx="461.71" cy="313.59" r="28.27"/><path id="Path_26" data-name="Path 26" class="cls-6" d="M436.65,282.06l-5.53-2.21s11.55-12.72,27.62-11.61l-4.52-5s11-4.42,21.09,7.19c5.28,6.1,11.39,13.28,15.2,21.36h5.92L494,297.25l8.64,5.43-8.87-1a30.11,30.11,0,0,1-.84,14.08l.24,4.3S482.85,304.18,482.85,302v5.53s-5.53-5-5.53-8.29l-3,3.87L472.8,297l-18.58,6.09,3-5-11.55,1.66,4.52-6.08s-13.05,7.18-13.56,13.27-7,13.82-7,13.82l-3-5.53S422.08,290.35,436.65,282.06Z"/><path id="Path_27" data-name="Path 27" class="cls-5" d="M486.1,406.26A35.64,35.64,0,0,0,478.18,428l-52.47-2s-13.86-2-13.86,7.92v9.9s6.93-3,10.89,0,46.53,28.71,67.32,18.81,25.75-48.51,25.75-48.51S497,398.34,486.1,406.26Z"/><path id="Path_28" data-name="Path 28" class="cls-7" d="M498.22,356.75l7.92-1s15.84,2,13.86,32.67-3,32.68-3,32.68-20.79-18.81-35.64-9.9Z"/><path id="Path_29" data-name="Path 29" class="cls-7" d="M403.16,383.81h-4a36.7,36.7,0,0,0-7.92,22.77,109.6,109.6,0,0,1-3.46,26.24L419,427.37Z"/></g><path class="cls-1" d="M66.6,213.88,41.83,241.66c20.58,8.73,41.41-3.39,50-9.47A123.74,123.74,0,1,0,66.6,213.88Z"/><path class="cls-2" d="M84.61,103.46c25.56-.26,51.12-.72,76.67-1.07q12.78-.17,25.57-.3c7.34-.08,7.36-11.49,0-11.42-25.56.27-51.12.73-76.68,1.07q-12.78.18-25.56.31c-7.34.08-7.36,11.49,0,11.42Z"/><path class="cls-2" d="M84.7,129.81l103.21-1,29.29-.31c7.52-.08,7.54-11.77,0-11.69l-103.21,1-29.29.31c-7.52.08-7.53,11.77,0,11.69Z"/><path class="cls-2" d="M84.7,156.81l103.21-1,29.29-.31c7.52-.08,7.54-11.77,0-11.69l-103.21,1-29.29.31c-7.52.08-7.53,11.77,0,11.69Z"/><circle class="cls-1" cx="9" cy="256.67" r="9"/><path class="cls-7" d="M431.34,218.57a123.49,123.49,0,1,0-64.15,108.35c8.54,6.07,29.38,18.19,50,9.46l-24.78-27.77A123.17,123.17,0,0,0,431.34,218.57Z"/><text class="cls-9" transform="translate(238.53 190.5)">I need help <tspan x="18.98" y="46.34">with my </tspan><tspan x="35.1" y="92.67">paper</tspan></text></g></g></svg>