<?xml version="1.0" encoding="utf-8"?>
<!-- Generator: Adobe Illustrator 24.1.3, SVG Export Plug-In . SVG Version: 6.00 Build 0)  -->
<svg version="1.1" id="Layer_1" xmlns="http://www.w3.org/2000/svg" xmlns:xlink="http://www.w3.org/1999/xlink" x="0px" y="0px"
	 viewBox="0 0 907 816.7" style="enable-background:new 0 0 907 816.7;" xml:space="preserve">
<style type="text/css">
	.st0{fill:#E6E6E6;}
	.st1{fill:#FFFFFF;}
	.st2{fill:#3F3D56;}
	.st3{fill:#F9A826;}
	.st4{fill:#FFB9B9;}
	.st5{fill:#2F2E41;}
	.st6{fill:#6C63FF;}
	.st7{opacity:0.1;enable-background:new    ;}
</style>
<g>
	<path class="st0" d="M52.4-543.3c-2.4,0-4.4,1.9-4.4,4.4l-1,472c0,2.4,1.9,4.4,4.4,4.4l380.7,0.9c2.4,0,4.4-1.9,4.4-4.4l1.1-472.1
		c0-2.4-1.9-4.4-4.4-4.4L52.4-543.3z"/>
	<path class="st1" d="M66.2-529.4c-2.4,0-4.4,1.9-4.4,4.4l-1,444.3c0,2.4,1.9,4.4,4.4,4.4l352.1,0.8c2.4,0,4.4-1.9,4.4-4.4l1-444.3
		c0-2.4-1.9-4.4-4.4-4.4L66.2-529.4z"/>
	<path class="st0" d="M372.1-336.2l-260-0.6c-3.1,0.1-5.9-2.1-6.7-5.2c-0.8-3.6,1.5-7.1,5-8c0.5-0.1,0.9-0.2,1.5-0.2l260,0.6
		c3.1-0.1,5.9,2.1,6.7,5.2c0.8,3.6-1.5,7.1-5.1,8C373-336.2,372.5-336.2,372.1-336.2z"/>
	<path class="st0" d="M374.2-459.2L202-459.6c-2.4,0-4.3-3.1-4.3-6.8c0-3.7,1.9-6.8,4.4-6.8l172.1,0.4c2.4,0,4.3,3.1,4.3,6.8
		C378.6-462.2,376.6-459.2,374.2-459.2z"/>
	<path class="st0" d="M374.1-421.3L202-421.6c-2.4,0-4.3-3.1-4.3-6.8c0-3.7,2-6.8,4.4-6.8l172.1,0.4c2.4,0,4.3,3.1,4.3,6.8
		C378.5-424.3,376.5-421.3,374.1-421.3z"/>
	<path class="st0" d="M372-293.6l-260-0.6c-3.1,0.1-5.9-2.1-6.7-5.2c-0.8-3.6,1.5-7.1,5.1-8c0.5-0.1,0.9-0.2,1.4-0.2l260,0.6
		c3.1-0.1,5.9,2.1,6.7,5.2c0.8,3.6-1.5,7.1-5.1,8C372.9-293.6,372.4-293.6,372-293.6L372-293.6z"/>
	<path class="st0" d="M371.9-250.1l-260.2-0.6c-3.7,0-6.7-3-6.8-6.7c0-0.9,0.2-1.9,0.6-2.7c1-2.4,3.4-4,6.1-4h0.1l260.2,0.6
		c3.7,0,6.7,3.1,6.7,6.7c0,0.9-0.2,1.8-0.6,2.6C376.9-251.6,374.5-250,371.9-250.1L371.9-250.1z"/>
	<path class="st0" d="M371.7-207.6l-260.2-0.6c-3.7,0-6.7-3-6.7-6.7c0-0.9,0.2-1.8,0.6-2.6c1-2.4,3.4-4,6.1-4h0.1l260.2,0.6
		c3.7,0.1,6.6,3.2,6.4,6.8C378-210.4,375.2-207.7,371.7-207.6L371.7-207.6z"/>
	<path class="st0" d="M371.6-165l-260.2-0.6c-3.7-0.1-6.6-3.2-6.4-6.8c0.1-3.5,3-6.3,6.4-6.4l260.2,0.6c3.7,0.1,6.6,3.2,6.4,6.8
		C377.9-167.9,375.1-165.1,371.6-165z"/>
	<path class="st0" d="M371.5-121.5l-260.2-0.6c-3.7,0-6.7-3.1-6.7-6.7c0-0.9,0.2-1.8,0.6-2.6c1-2.4,3.4-4,6.1-4h0.1l260.2,0.6
		c3.7,0,6.7,3.1,6.7,6.7c0,0.9-0.2,1.8-0.6,2.6C376.7-123,374.3-121.4,371.5-121.5L371.5-121.5z"/>
	<circle class="st2" cx="140.7" cy="-447.1" r="34.9"/>
	<path class="st3" d="M340.2-457v-82.5c0.6-25.8-19.9-47.2-45.7-47.7c-25.8-0.6-47.2,19.9-47.7,45.7H257
		c0.8-19.6,16.9-35.1,36.5-35.1h0.6c20.2,0.3,36.3,16.8,36,37v83.3c-0.2,13.4-11.1,24.1-24.5,24.1h-0.3
		c-13.5-0.2-24.3-11.3-24.2-24.8l0.1-82.1c0-6.8,5.6-12.5,12.4-12.5S306-546,306-539.2v62.3c-0.1,2.7,1.9,5,4.6,5.4
		c2.8,0.3,5.3-1.9,5.6-4.6c0-0.2,0-0.3,0-0.5v-62.6c0-12.5-10.2-22.7-22.7-22.7s-22.7,10.2-22.7,22.7l-0.1,82.2
		c-0.2,19.1,15.2,34.9,34.3,35.1h0.5c19.1,0,34.5-15.3,34.8-34.3L340.2-457L340.2-457z"/>
	<g id="Group_1">
		<path id="Path_16" class="st4" d="M16.4-123.3l-2.8,26.5l15.5-1.9l1.9-22L16.4-123.3z"/>
		<path id="Path_17" class="st5" d="M-24.9-325c0,0-79.6,77-29.3,100.7h15.5c0,0,33.9-55.9,50.4-54.9l4.6,53.1L13.6-119l20.2,0.9
			c0,0,11.9-54,11-84.3L65.9-314L-24.9-325z"/>
		<path id="Path_18" class="st5" d="M-50.4-227.9l11.1,3.7c0,0,43.5-10.2,46.3-9.3l8.6-0.1l-0.3-22.1h-37L-50.4-227.9z"/>
		<path id="Path_19" class="st5" d="M31-102.2c0,0-16.5-7.3-19.2,0S9.9-73.8,9.9-73.8c2.2,4.3,2.9,9.1,1.9,13.7
			c-1.9,7.3,7.3,11,19.2,7.3c11.9-3.7,11.9-12.9,11.9-12.9L31-102.2z"/>
		<path id="Path_20" class="st5" d="M44.8-257c0,0,12.9-7.3,11.9,3.7c-0.7,7.2-2.6,14.3-5.5,21.1c0,0,11.9,31.2,0,33.9
			c-11.9,2.7-21.1-3.7-21.1-8.2S44.8-257,44.8-257z"/>
		<path id="Path_21" class="st4" d="M4.8-507.9l1.9,34.8l15.5,13.8l17.4-24.7v-24.7L4.8-507.9z"/>
		<path id="Path_22" class="st6" d="M16.4-473.1l-10.5-7.8L-1-470.4l-31.2,18.3l18.3,47.6l0.9,46.7c0,0-33.9,34.8-13.8,39.3
			s91.6,14.6,95.3,6.4c3.7-8.2-4.6-93.4-4.6-93.4l2.8-72.3l-27.5-9.9L16.4-473.1z"/>
		<path id="Path_23" class="st4" d="M-39.5-415.4c0,0-7.3,51.9,6.4,51.9c8.1,0,16.3-1.5,23.9-4.6l-11-28.4l4.5-19.2L-39.5-415.4z"/>
		<path id="Path_24" class="st4" d="M-18.4-369.6l10.1,1.9c0,0,29.3-18.3,31.2-19.2c1.9-0.9-29.4-16.5-29.4-16.5l-21.1,8.2
			L-18.4-369.6z"/>
		<path id="Path_25" class="st7" d="M-6.6-403.8l-13.2,5.2l4.1-17.1l-23.9,0.3c0,0-7.3,51.9,6.4,51.9c8.1,0,16.3-1.5,23.9-4.5
			l-0.1-0.2l1,0.2c0,0,29.3-18.3,31.2-19.2C24.6-388.2-6.6-403.8-6.6-403.8z"/>
		<circle id="Ellipse_5" class="st4" cx="25.6" cy="-516.7" r="26.2"/>
		<path id="Path_26" class="st5" d="M2.4-545.9l-5.1-2c0,0,10.6-11.7,25.5-10.7l-4.2-4.6c0,0,10.2-4.1,19.5,6.7
			c4.9,5.6,10.5,12.3,14.1,19.8h5.5l-2.2,5.1l8,5l-8.2-0.9c0.7,4.3,0.6,8.8-0.7,13l0.2,4c0,0-9.5-14.7-9.5-16.7v5.1
			c0,0-5.1-4.6-5.1-7.7l-2.8,3.6l-1.4-5.6l-17.2,5.6l2.8-4.6l-10.6,1.6L15-535c0,0-12,6.7-12.6,12.3S-4.1-510-4.1-510l-2.8-5.1
			C-6.8-515.2-11-538.2,2.4-545.9z"/>
		<path id="Path_27" class="st4" d="M48.2-431c-4.6,5.7-7.2,12.8-7.3,20.1l-48.6-1.9c0,0-12.9-1.9-12.9,7.3v9.2c0,0,6.4-2.8,10.1,0
			s43,26.5,62.3,17.4s23.9-44.9,23.9-44.9S58.3-438.4,48.2-431z"/>
		<path id="Path_28" class="st6" d="M59.4-476.8l7.3-0.9c0,0,14.6,1.9,12.9,30.2c-1.8,28.4-2.8,30.2-2.8,30.2s-19.2-17.4-32.9-9.2
			L59.4-476.8z"/>
		<path id="Path_29" class="st6" d="M-28.5-451.8h-3.7c-4.7,6-7.3,13.4-7.3,21.1c-0.1,8.2-1.2,16.4-3.2,24.2l28.9-5L-28.5-451.8z"/>
	</g>
	<g>
		<path class="st6" d="M-8.1-566.9c0-42.2-34.2-76.4-76.4-76.3c-42.2,0-76.4,34.2-76.3,76.4c0,42.2,34.2,76.4,76.4,76.3
			c12.8,0,25.4-3.2,36.7-9.4c5.3,3.8,18.2,11.3,30.9,5.9l-15.3-17.2C-16.8-525.7-8-545.8-8.1-566.9z"/>
		<path class="st1" d="M-123.9-582.1c15.8-0.2,31.6-0.4,47.4-0.7l15.8-0.2c4.5-0.1,4.6-7.1,0-7.1c-15.8,0.2-31.6,0.4-47.4,0.7
			c-5.3,0.1-10.5,0.1-15.8,0.2C-128.4-589.1-128.5-582.1-123.9-582.1L-123.9-582.1z"/>
		<path class="st1" d="M-124-563.1l63.8-0.6l18.1-0.2c4.6-0.1,4.6-7.3,0-7.2l-63.8,0.6l-18.1,0.2C-128.6-570.3-128.6-563-124-563.1z
			"/>
		<path class="st1" d="M-124-543.9l63.8-0.6l18.1-0.2c4.6-0.1,4.6-7.3,0-7.2l-63.8,0.6l-18.1,0.2
			C-128.6-551.1-128.6-543.9-124-543.9z"/>
	</g>
</g>
</svg>
