<svg xmlns="http://www.w3.org/2000/svg" viewBox="0 0 598.47 591.91"><defs><style>.cls-1{fill:#e6e6e6;}.cls-2{fill:#fff;}.cls-3{fill:#3f3d56;}.cls-4{fill:#f9a826;}.cls-5{fill:#ffb9b9;}.cls-6{fill:#2f2e41;}.cls-7{fill:#6c63ff;}.cls-8{opacity:0.1;isolation:isolate;}</style></defs><g id="Layer_2" data-name="Layer 2"><g id="Layer_1-2" data-name="Layer 1"><path class="cls-1" d="M213.19,100a4.44,4.44,0,0,0-4.44,4.44l-1,472a4.44,4.44,0,0,0,4.44,4.44l380.74.93a4.44,4.44,0,0,0,4.44-4.44l1.11-472.14a4.44,4.44,0,0,0-4.44-4.44Z"/><path class="cls-2" d="M227.07,113.87a4.44,4.44,0,0,0-4.44,4.44l-1,444.3a4.44,4.44,0,0,0,4.44,4.44l352.07.83a4.44,4.44,0,0,0,4.44-4.44l1-444.29a4.44,4.44,0,0,0-4.44-4.45Z"/><path class="cls-1" d="M532.89,307.11l-260-.55a6.66,6.66,0,0,1-1.67-13.14,7.49,7.49,0,0,1,1.48-.18l260,.55a6.74,6.74,0,0,1,6.66,5.18,6.66,6.66,0,0,1-5.09,8A3.65,3.65,0,0,1,532.89,307.11Z"/><path class="cls-1" d="M535,184.08l-172.14-.37c-2.41,0-4.35-3.05-4.35-6.75s1.94-6.75,4.44-6.75l172.15.37c2.4,0,4.35,3,4.35,6.75S537.42,184.08,535,184.08Z"/><path class="cls-1" d="M534.92,222l-172.15-.37c-2.4,0-4.34-3-4.34-6.75s2-6.76,4.44-6.76L535,208.5c2.41,0,4.35,3.06,4.35,6.76S537.33,222,534.92,222Z"/><path class="cls-1" d="M532.79,349.66l-260-.55a6.74,6.74,0,0,1-6.66-5.18,6.66,6.66,0,0,1,5.08-8,7.46,7.46,0,0,1,1.39-.18l260,.65a6.72,6.72,0,0,1,6.66,5.18,6.66,6.66,0,0,1-5.09,7.95,7.17,7.17,0,0,1-1.39.09Z"/><path class="cls-1" d="M532.7,393.14l-260.21-.65a6.77,6.77,0,0,1-6.75-6.66,6.62,6.62,0,0,1,6.66-6.66h.09l260.21.65a6.69,6.69,0,0,1,6.66,6.66,6.18,6.18,0,0,1-.55,2.59,6.46,6.46,0,0,1-6.11,4.07Z"/><path class="cls-1" d="M532.52,435.69l-260.22-.64a6.63,6.63,0,0,1-6.66-6.66,6.19,6.19,0,0,1,.56-2.59,6.59,6.59,0,0,1,6.1-4h.1l260.21.64a6.56,6.56,0,0,1,6.38,6.85,6.65,6.65,0,0,1-6.47,6.38Z"/><path class="cls-1" d="M532.42,478.24l-260.21-.64a6.62,6.62,0,0,1,0-13.23l260.21.65a6.61,6.61,0,0,1,0,13.22Z"/><path class="cls-1" d="M532.33,521.72l-260.21-.65a6.69,6.69,0,0,1-6.66-6.66,6.24,6.24,0,0,1,.55-2.59,6.61,6.61,0,0,1,6.11-4h.09l260.21.64a6.7,6.7,0,0,1,6.66,6.66,6.18,6.18,0,0,1-.55,2.59,6.37,6.37,0,0,1-6.2,4Z"/><circle class="cls-3" cx="301.54" cy="196.2" r="34.87"/><path class="cls-4" d="M501.07,186.3V103.79a46.73,46.73,0,0,0-93.43-2h10.17a36.57,36.57,0,0,1,36.54-35h.56a36.47,36.47,0,0,1,36,37V187a24.47,24.47,0,0,1-24.51,24.14h-.28a24.61,24.61,0,0,1-24.24-24.79l.1-82.14a12.44,12.44,0,1,1,24.88-.09v62.25a5.31,5.31,0,0,0,4.62,5.37,5.16,5.16,0,0,0,5.56-4.63V104a22.67,22.67,0,0,0-45.33,0l-.09,82.24a34.7,34.7,0,0,0,34.31,35.06h.47A34.77,34.77,0,0,0,501.16,187v-.65Z"/><g id="Group_1" data-name="Group 1"><path id="Path_16" data-name="Path 16" class="cls-5" d="M177.21,520l-2.77,26.55L190,544.66l1.85-22Z"/><path id="Path_17" data-name="Path 17" class="cls-6" d="M136,318.31s-79.64,77-29.32,100.73h15.54S156,363.17,172.59,364.1l4.62,53.09-2.77,107.12,20.16.93s11.93-54,11-84.27L226.7,329.22Z"/><path id="Path_18" data-name="Path 18" class="cls-6" d="M110.42,415.34l11.1,3.7s43.48-10.17,46.25-9.25l8.61-.09-.28-22.11h-37Z"/><path id="Path_19" data-name="Path 19" class="cls-6" d="M191.83,541.05s-16.47-7.3-19.24,0-1.85,28.4-1.85,28.4a20.19,20.19,0,0,1,1.85,13.69c-1.85,7.31,7.3,11,19.24,7.31s11.93-12.86,11.93-12.86Z"/><path id="Path_20" data-name="Path 20" class="cls-6" d="M205.61,386.3s12.86-7.31,11.93,3.7a73.15,73.15,0,0,1-5.46,21.09s11.94,31.17,0,33.85S191,441.24,191,436.71,205.61,386.3,205.61,386.3Z"/><path id="Path_21" data-name="Path 21" class="cls-5" d="M165.65,135.33l1.85,34.78L183,183.9l17.39-24.7V134.5Z"/><path id="Path_22" data-name="Path 22" class="cls-7" d="M177.21,170.11l-10.45-7.77-6.94,10.55-31.17,18.32L147,238.84l.93,46.72S114,320.34,134.1,324.87s91.58,14.62,95.28,6.39-4.62-93.43-4.62-93.43l2.77-72.34-27.47-9.9Z"/><path id="Path_23" data-name="Path 23" class="cls-5" d="M121.34,227.84s-7.31,51.89,6.38,51.89a62.42,62.42,0,0,0,23.87-4.62l-11-28.4,4.53-19.24Z"/><path id="Path_24" data-name="Path 24" class="cls-5" d="M142.43,273.63l10.08,1.85s29.33-18.32,31.18-19.24-29.42-16.47-29.42-16.47L133.18,248Z"/><path id="Path_25" data-name="Path 25" class="cls-8" d="M154.27,239.49,141,244.67l4.07-17.11-23.86.28s-7.31,51.89,6.38,51.89a64,64,0,0,0,23.86-4.53l-.09-.19,1,.19s29.32-18.32,31.17-19.24S154.27,239.49,154.27,239.49Z"/><circle id="Ellipse_5" data-name="Ellipse 5" class="cls-5" cx="186.46" cy="126.55" r="26.18"/><path id="Path_26" data-name="Path 26" class="cls-6" d="M163.24,97.41l-5.09-2s10.64-11.75,25.54-10.73L179.52,80S189.7,76,199,86.68c4.9,5.64,10.55,12.3,14.06,19.79h5.46l-2.22,5.09,7.95,5-8.23-.92a28.22,28.22,0,0,1-.74,13l.19,4S206,117.94,206,115.91V121s-5.09-4.63-5.09-7.68l-2.77,3.6-1.39-5.64-17.21,5.64,2.78-4.62-10.64,1.57,4.16-5.64s-12,6.66-12.58,12.3-6.47,12.77-6.47,12.77L154,128.21C154,128,149.83,105.08,163.24,97.41Z"/><path id="Path_27" data-name="Path 27" class="cls-5" d="M209,212.3a32.66,32.66,0,0,0-7.31,20.07l-48.56-1.85s-12.86-1.85-12.86,7.31V247s6.38-2.78,10.08,0,43,26.54,62.26,17.39,23.87-44.87,23.87-44.87S219.11,204.9,209,212.3Z"/><path id="Path_28" data-name="Path 28" class="cls-7" d="M220.22,166.51l7.31-.93s14.62,1.85,12.86,30.25-2.77,30.25-2.77,30.25-19.25-17.39-32.94-9.16Z"/><path id="Path_29" data-name="Path 29" class="cls-7" d="M132.35,191.48h-3.7a34.15,34.15,0,0,0-7.31,21.09,100.9,100.9,0,0,1-3.24,24.24l28.86-5Z"/></g><path class="cls-7" d="M152.72,76.33a76.35,76.35,0,1,0-39.65,67c5.26,3.77,18.19,11.26,30.93,5.88L128.66,132A75.92,75.92,0,0,0,152.72,76.33Z"/><path class="cls-2" d="M36.93,61.18c15.83-.19,31.61-.44,47.44-.68l15.84-.19c4.51-.06,4.57-7.11,0-7.05-15.84.18-31.61.43-47.45.68l-15.83.18c-4.52,0-4.58,7.06,0,7.06Z"/><path class="cls-2" d="M36.87,80.17l63.83-.62,18.13-.19c4.64-.06,4.64-7.3,0-7.24L55,72.74l-18.12.19C32.23,73,32.23,80.23,36.87,80.17Z"/><path class="cls-2" d="M36.87,99.34l63.83-.62,18.13-.18c4.64-.06,4.64-7.3,0-7.24L55,91.92l-18.12.18C32.23,92.17,32.23,99.4,36.87,99.34Z"/></g></g></svg>