<svg xmlns="http://www.w3.org/2000/svg" viewBox="0 0 419.13 342.05"><defs><style>.cls-1{fill:#3f3d56;}.cls-1,.cls-2{stroke:#fff;stroke-miterlimit:10;stroke-width:3px;}.cls-2{fill:#fff;}</style></defs><title>remote_arrows_1</title><g id="Layer_2" data-name="Layer 2"><g id="a77d060e-bfde-44e4-9303-3da9960cf22f"><path class="cls-1" d="M407.43,87.56a1,1,0,0,1-1-.8c-4.76-22.88-21.22-43.91-46.36-59.22C334.62,12,301.92,3.5,268,3.5a1,1,0,0,1,0-2c34.27,0,67.34,8.64,93.12,24.34,25.62,15.59,42.41,37.08,47.28,60.52a1,1,0,0,1-.78,1.18l-.2,0Z"/><polygon class="cls-2" points="396.93 84.89 408.9 100.84 416.73 82.49 396.93 84.89"/><path class="cls-1" d="M151.11,340.55c-34.27,0-67.33-8.64-93.11-24.33-25.62-15.6-42.41-37.09-47.28-60.52a1,1,0,1,1,1.95-.42h0C17.43,278.18,33.9,299.21,59,314.51c25.47,15.51,58.17,24,92.07,24a1,1,0,0,1,0,2Z"/><polygon class="cls-2" points="22.2 257.17 10.23 241.22 2.4 259.56 22.2 257.17"/></g></g></svg>