<svg xmlns="http://www.w3.org/2000/svg" xmlns:xlink="http://www.w3.org/1999/xlink" viewBox="0 0 290.86 664.23"><defs><style>.cls-1{opacity:0.7;}.cls-2{fill:url(#linear-gradient);}.cls-3{fill:#535461;}.cls-4{opacity:0.1;}.cls-5{fill:#e0e0e0;}.cls-6{fill:url(#linear-gradient-2);}.cls-7{fill:url(#linear-gradient-3);}.cls-8{fill:url(#linear-gradient-4);}.cls-9{fill:url(#linear-gradient-5);}.cls-10{fill:#eee;}</style><linearGradient id="linear-gradient" x1="486.94" y1="3301.03" x2="486.94" y2="3965.26" gradientTransform="matrix(1, 0, 0, -1, -341.51, 3965.26)" gradientUnits="userSpaceOnUse"><stop offset="0" stop-color="gray" stop-opacity="0.25"/><stop offset="0.54" stop-color="gray" stop-opacity="0.12"/><stop offset="1" stop-color="gray" stop-opacity="0.1"/></linearGradient><linearGradient id="linear-gradient-2" x1="386.93" y1="3380.02" x2="386.93" y2="3315.62" gradientTransform="matrix(1, 0, 0, -1, -341.51, 3965.26)" gradientUnits="userSpaceOnUse"><stop offset="0" stop-color="#e0e0e0"/><stop offset="0.31" stop-color="#fccc63"/><stop offset="0.77" stop-color="#f55f44"/></linearGradient><linearGradient id="linear-gradient-3" x1="464.04" y1="3380.02" x2="464.04" y2="3315.62" xlink:href="#linear-gradient-2"/><linearGradient id="linear-gradient-4" x1="512.34" y1="3380.02" x2="512.34" y2="3315.62" xlink:href="#linear-gradient-2"/><linearGradient id="linear-gradient-5" x1="590.29" y1="3380.02" x2="590.29" y2="3315.62" xlink:href="#linear-gradient-2"/></defs><title>rocket</title><g id="Layer_2" data-name="Layer 2"><g id="Layer_1-2" data-name="Layer 1"><g class="cls-1"><path class="cls-2" d="M290.86,307a154.75,154.75,0,0,0-17.5-72c-5.49-10.44-10.5-16.92-14.36-20.91a10.23,10.23,0,0,0-11.74-2.26,10.63,10.63,0,0,0-4.11,2.65c-5.21,5.4-9.92,12.54-14,20.13a155.52,155.52,0,0,0-18.37,74v15.48h-9.93v-180c0-37.72-8.44-74.93-25-107.93-7.84-15.64-15-25.36-20.49-31.33a14.19,14.19,0,0,0-20-1.31A13.5,13.5,0,0,0,134,4.84c-7.44,8.09-14.16,18.79-20,30.16C96.62,68.72,87.79,107,87.79,145.82V324H79.21V307.81a155.3,155.3,0,0,0-18.37-73.95c-4.11-7.59-8.82-14.73-14-20.13a10.26,10.26,0,0,0-12-2.18l.36.19a10.71,10.71,0,0,0-3.35,2.34C28,218.08,23,224.55,17.5,235A154.75,154.75,0,0,0,0,307V576H30.64L27.26,598.1v66.13H52.32V598.1L49,576h30.2V331h8.58V574.92h24.47l-3.51,23.18v66.13h25.06V598.1l-3.51-23.21h33l-3.53,23.21v66.13h25.06V598.1l-3.51-23.21h19.54V331h9.93V576.38h8.05V576h26.62l-3.34,22.09v66.13h25.06V598.1L263.79,576h27.07Z"/></g><polygon class="cls-3" points="57.29 585.24 33.56 585.24 37.8 556.43 53.05 556.43 57.29 585.24"/><g class="cls-4"><polygon points="36.62 567.87 54.23 567.87 53.05 559.82 37.8 559.82 36.62 567.87"/></g><polygon class="cls-3" points="260.64 585.24 236.92 585.24 241.15 556.43 256.41 556.43 260.64 585.24"/><g class="cls-4"><polygon points="239.97 567.87 257.59 567.87 256.41 559.82 241.15 559.82 239.97 567.87"/></g><polygon class="cls-3" points="134.39 585.24 110.67 585.24 114.9 556.43 130.16 556.43 134.39 585.24"/><g class="cls-4"><polygon points="113.72 567.87 131.34 567.87 130.16 559.82 114.9 559.82 113.72 567.87"/></g><polygon class="cls-3" points="182.69 585.24 158.97 585.24 163.2 556.43 178.45 556.43 182.69 585.24"/><g class="cls-4"><polygon points="162.02 567.87 179.64 567.87 178.45 559.82 163.2 559.82 162.02 567.87"/></g><rect class="cls-3" x="57.29" y="318.34" width="169.46" height="6.78"/><path class="cls-5" d="M252.94,211.26a9.55,9.55,0,0,0-13.49-.67,8.47,8.47,0,0,0-.67.67c-4.93,5.26-9.39,12.21-13.28,19.6a154.67,154.67,0,0,0-17.39,72V563.7h75V301.76a154.2,154.2,0,0,0-16.57-70.14C261.33,221.46,256.59,215.1,252.94,211.26Z"/><path class="cls-5" d="M37.87,211.26a9.55,9.55,0,0,1,13.49-.67,8.47,8.47,0,0,1,.67.67c4.94,5.26,9.39,12.21,13.29,19.6a154.82,154.82,0,0,1,17.39,72V563.7h-75V301.76a154.33,154.33,0,0,1,16.57-70.14C29.48,221.46,34.22,215.1,37.87,211.26Z"/><polygon class="cls-3" points="8.14 307.32 25.94 307.41 25.94 329.35 8.14 329.35 8.14 307.32"/><polygon class="cls-3" points="64.91 307.32 82.71 307.41 82.71 329.35 64.91 329.35 64.91 307.32"/><polygon class="cls-3" points="208.11 307.32 225.9 307.41 225.9 329.35 208.11 329.35 208.11 307.32"/><polygon class="cls-3" points="264.88 307.32 282.67 307.41 282.67 329.35 264.88 329.35 264.88 307.32"/><g class="cls-4"><path d="M65.32,230.52c-3.9-7.39-8.35-14.34-13.29-19.6a9.51,9.51,0,0,0-11.33-2.13,9.94,9.94,0,0,1,2.86,2.13c4.93,5.26,9.39,12.21,13.28,19.6a154.67,154.67,0,0,1,17.39,72V563.34h8.48V302.53A154.86,154.86,0,0,0,65.32,230.52Z"/></g><g class="cls-4"><path d="M232.28,231.24c3.89-7.39,8.35-14.34,13.28-19.6a9.76,9.76,0,0,1,3.28-2.34,9.52,9.52,0,0,0-10.9,2.34c-4.94,5.26-9.4,12.21-13.29,19.6a154.94,154.94,0,0,0-17.39,72V564.1h7.63V303.26A154.78,154.78,0,0,1,232.28,231.24Z"/></g><path class="cls-6" d="M45.75,649.64H45.1A11.54,11.54,0,0,1,33.56,638.1V585.24H57.29V638.1A11.54,11.54,0,0,1,45.75,649.64Z"/><path class="cls-7" d="M122.86,649.64h-.66a11.54,11.54,0,0,1-11.53-11.54V585.24h23.72V638.1A11.54,11.54,0,0,1,122.86,649.64Z"/><path class="cls-8" d="M171.15,649.64h-.67A11.54,11.54,0,0,1,159,638.1V585.24h23.72V638.1A11.54,11.54,0,0,1,171.15,649.64Z"/><path class="cls-9" d="M249.11,649.64h-.63a11.54,11.54,0,0,1-11.56-11.52V585.24h23.72V638.1A11.54,11.54,0,0,1,249.11,649.64Z"/><path class="cls-10" d="M154.82,6.74a13.2,13.2,0,0,0-18.6-1.62,13,13,0,0,0-1.61,1.62c-7,7.88-13.4,18.29-19,29.37C99.15,69,90.79,106.23,90.79,144V562.64h107V142.35c0-36.73-8-73-23.64-105.1C166.8,22,160,12.55,154.82,6.74Z"/><rect class="cls-3" x="115.68" y="53.24" width="55.84" height="25.59" rx="11"/><g class="cls-4"><rect x="91.37" y="158.34" width="105.91" height="4.11"/></g></g></g></svg>