<svg xmlns="http://www.w3.org/2000/svg" viewBox="0 0 26.68 19.18"><defs><style>.cls-1{fill:#fff;}</style></defs><title>send</title><g id="Layer_2" data-name="Layer 2"><g id="Layer_1-2" data-name="Layer 1"><path class="cls-1" d="M26.6.25a.21.21,0,0,1,0-.06A.53.53,0,0,0,26,0L.34,9.78a.55.55,0,0,0-.34.55.52.52,0,0,0,.43.47l7,1.36,1.5,6.56v0a.56.56,0,0,0,0,.12L9,19l.07.08a.47.47,0,0,0,.25.13h.12l.11,0h.06l.09,0h0l0,0,7.35-5.16,4.15.78h.1a.53.53,0,0,0,.5-.35L26.65.72s0,0,0-.08a.49.49,0,0,0,0-.12A.53.53,0,0,0,26.6.25Zm-13.95,12-.08.1,0,0L9.68,17.21,8.48,12,21.75,3.85Z"/></g></g></svg>