<svg xmlns="http://www.w3.org/2000/svg" viewBox="0 0 715.65 523"><defs><style>.cls-1{fill:#a0616a;}.cls-2{fill:#2f2e41;}.cls-3{fill:#2e3192;}.cls-4{fill:#e6e6e6;}.cls-5{fill:#fff;}.cls-6{fill:#ccc;}.cls-7{fill:#3f3d56;}.cls-8{fill:#007bff;}</style></defs><title>sharedGoals_2</title><g id="Layer_2" data-name="Layer 2"><g id="Layer_1-2" data-name="Layer 1"><path class="cls-1" d="M646.72,175.68l-21.73,43-65,29.55c-6.94,11.73-29,12.63-30.6,5-1.8-8.52,26.79-22.21,26.79-22.21l54.36-36.78,4.76-31.65Z"/><polygon class="cls-1" points="644.16 464 648.17 496.07 624.92 497.68 622.51 464 644.16 464"/><path class="cls-2" d="M641,491.53a62.31,62.31,0,0,0,5.74-7C650,479.9,653,503.56,653,503.56s3.21,9.62,2.41,14.43-19.25,4.81-22.46,4-19.24,0-19.24,0H589.64c-20.85-9.62,0-16,0-16,6.41-.8,28.06-20.84,28.06-20.84l4.81-8.82c3.21-.81,6.42,11.22,6.42,11.22Z"/><polygon class="cls-1" points="704.3 465 708.31 497.07 685.05 498.68 682.65 465 704.3 465"/><path class="cls-2" d="M701.09,492.53a62.31,62.31,0,0,0,5.74-7c3.33-4.61,6.29,19.05,6.29,19.05s3.2,8.82,2.4,13.63-19.24,4.81-22.45,4-19.24.8-19.24.8H649.77c-20.84-9.62,0-16,0-16,6.42-.8,28.07-20.84,28.07-20.84l4.81-8.82c3.2-.81,6.41,11.22,6.41,11.22Z"/><path class="cls-2" d="M677.62,258.27c3.2,4,1.6,17.6,1.6,17.6s5.6,44,3.2,48,1.6,7.2,4,12.8,4.8,19.2,4.8,19.2c13.6,11.2,12.8,62.4,12.8,62.4l4.8,45.6c-1.6,4.8-24,5.6-27.2,4.8s-12.8-72.8-12.8-72.8l-21.6-40.8s1.6,108.8,1.6,113.6-21.6,2.4-26.4,2.4-4.8-80-4.8-80l-4.8-20.8-25.6-95.2v-11.2l4-5.6S674.42,254.27,677.62,258.27Z"/><circle class="cls-1" cx="642.56" cy="51.16" r="24.86"/><path class="cls-1" d="M630.13,62.79c5,11.22,2,26.89-8,44.1L663,87.64,656.59,82l1.6-16Z"/><path class="cls-3" d="M630.22,88.45c-5.35,3.18-8.55,9-10.39,15a141.77,141.77,0,0,0-6.11,33.93l-1.94,34.47-24,91.41c20.84,17.64,32.87,13.63,60.94-.8s31.27,4.81,31.27,4.81,2.4-.8,0-3.21,0,0,2.4-2.4,0,0-.8-2.41,0-.8.8-1.6-3.21-8-3.21-8l6.42-60.14,8-85C684,92.45,656.68,82,656.68,82L631.83,99.67c-8,3.21-1.61-9.62-1.61-9.62Z"/><path class="cls-1" d="M706.7,155.4l3.21,48.11L669,262c0,13.63-7.22,16.84-7.22,16.84a106.29,106.29,0,0,1-7.22-13.63c-4-8.82,2.41-16,2.41-16l28.06-59.33-12-29.67Z"/><path class="cls-3" d="M693.07,104.88c13.63,4.81,16,56.93,16,56.93-16-8.82-35.28,5.61-35.28,5.61s-4-13.63-8.82-31.27a30.63,30.63,0,0,1,6.41-28.86S679.44,100.07,693.07,104.88Z"/><path class="cls-2" d="M665.41,58.78c-3.17-2.53-7.48,2.07-7.48,2.07L655.4,38.06s-15.83,1.9-25.95-.63-11.71,9.18-11.71,9.18a81.61,81.61,0,0,1-.32-14.24c.64-5.7,8.86-11.39,23.42-15.19S663,29.84,663,29.84C673.12,34.9,668.57,61.31,665.41,58.78Z"/><rect class="cls-4" x="260.22" y="190" width="304" height="60"/><rect class="cls-4" x="260.22" y="95" width="304" height="60"/><rect class="cls-4" x="260.22" width="304" height="60"/><path class="cls-5" d="M266.22,54h291V7h-291Z"/><path class="cls-5" d="M266.22,149h291V102h-291Z"/><path class="cls-5" d="M266.22,244h291V197h-291Z"/><circle class="cls-3" cx="292.02" cy="29.9" r="17.93"/><rect class="cls-3" x="335.22" y="23" width="177" height="4"/><rect class="cls-3" x="335.22" y="33" width="177" height="4"/><circle class="cls-6" cx="292.02" cy="125.82" r="17.93"/><rect class="cls-6" x="335.22" y="119" width="177" height="4"/><rect class="cls-6" x="335.22" y="129" width="177" height="4"/><circle class="cls-6" cx="292.02" cy="220.65" r="17.93"/><rect class="cls-6" x="335.22" y="214" width="177" height="4"/><rect class="cls-6" x="335.22" y="224" width="177" height="4"/><path class="cls-1" d="M36,173.4s-4.19,26.35,13.17,23.95c0,0,68.85-15.57,72.45-12s25.92,4.81,24.76-10.33-23.57-6.44-23.57-6.44-34.72,4.79-41.91,1.2-27.54-2.4-27.54-2.4Z"/><path class="cls-2" d="M88.5,258.82,79,349.41s-3,35.92-12,43.71c0,0,0,11.37-3,15l-4.2,47.3s6,17.36,5.39,20.35,2.4,12.58,1.8,13.78-28.74,0-28.74,0l6-96.4L62.79,259Z"/><path class="cls-2" d="M36.05,485.11s-12.56,31.66-6,35.48,75.34,1.1,75.34,1.1,11.47-7.1-1.64-12c0,0-10.92-.55-18-4.92s-15.29-12.55-15.29-12.55-.55-12-4.91-9.29a11.24,11.24,0,0,0-4.92,7.65Z"/><path class="cls-2" d="M16.68,480.81S2.91,515.54,10.1,519.73s82.63,1.2,82.63,1.2,12.57-7.78-1.8-13.17c0,0-12-.6-19.76-5.39S54.41,488.6,54.41,488.6s-.6-13.17-5.39-10.18a12.28,12.28,0,0,0-5.39,8.38Z"/><path class="cls-2" d="M72.37,258.08s-6.59,61.67-9.58,74.85a169.36,169.36,0,0,0-3.59,26.34s-.6,19.16-6,24.55a16.16,16.16,0,0,0-4.79,12S43,456.27,46,463.45s7.06,16.52,4.07,21.31-37,1.44-37-2.15,0-6.58-1.79-8.38,0-13.17,0-13.17-7.19-53.29-.6-68.86,9.58-58.08,9.58-58.08S15.49,285.63,9.5,277.84s1.2-35.32,1.2-35.32Z"/><path class="cls-1" d="M55.51,66.57c.7,1.59,2.36,2.47,3.88,3.3,8.79,4.85,16.15,11.87,23.4,18.81A27.5,27.5,0,0,1,83.88,70.1c.86-2,2-4.16,1.38-6.25a7.71,7.71,0,0,0-3-3.63A92.74,92.74,0,0,0,73,53.9c-2.24-1.34-6.85-4.91-9.42-4.52-.13,3.47-.2,6.58-1.73,9.83C61.45,60,55.78,67.18,55.51,66.57Z"/><circle class="cls-1" cx="86.14" cy="49.72" r="24.55"/><path class="cls-4" d="M87.34,107.8s4.19-21-7.79-28.14S53.81,64.09,53.81,64.09s-4.19-.6-6,8.38c0,0-34.13,6.59-37.72,38.92S12.49,191,12.49,191s-5.38,41.32-12,63.47c0,0-5.39,4.79,18.56-2.39s65.86,20.35,65.86,20.35,4.19-4.19,4.19-7.18,9-94,10.78-102.39S92.73,109,87.34,107.8Z"/><path class="cls-7" d="M80.35,52.25A10.18,10.18,0,0,1,85.17,51a9.23,9.23,0,0,0,4.76-1.42c2.32-1.78,2.49-5.22,4.19-7.6,2.45-3.45,7.35-3.86,11.58-3.69,2.59.1,5.37.26,7.55-1.14s3.25-4.14,4-6.69c.9-3,1.47-6.7-.74-8.94-1.53-1.55-4-1.85-5.66-3.22-.92-.74-13.11-3.7-24.56-6.36a23.92,23.92,0,0,0-27.9,15.14c-2.65,7.27-4.91,14.1-4.68,15.58,1.12,7,7.36,12.67,7.79,19.8a12.18,12.18,0,0,1,7.42-8.82,2.35,2.35,0,0,1,1.52-.19c.62.2,1,.82,1.37,1.34,1,1.36,4.25,3.43,6.07,2.47C79.52,56.36,78.3,53.64,80.35,52.25Z"/><path class="cls-7" d="M91.58,181.31a2.74,2.74,0,0,0-.06,3.85L108.79,203a2.73,2.73,0,0,0,3.85.07l0,0,52.67-52.45a2.72,2.72,0,0,0,0-3.85,3,3,0,0,0-.44-.36l-20.72-13.49a2.72,2.72,0,0,0-3.39.33Z"/><path class="cls-8" d="M165.7,147.2a2.17,2.17,0,0,1-.36.44l-52.55,53.44a2.72,2.72,0,0,1-3.85,0l0,0L91.28,182.43A3.19,3.19,0,0,1,91,182a2.46,2.46,0,0,0,.57,3.13L108.79,203a2.73,2.73,0,0,0,3.85.07l0,0,52.67-52.45a2.71,2.71,0,0,0,.36-3.41Z"/><path class="cls-5" d="M160.83,147.84l-2.15-1.36a2,2,0,0,1-2.94,2.68l-13.87-9.54a2.05,2.05,0,0,1-.53-2.84,2.12,2.12,0,0,1,1.07-.79l-1.1-.7a.74.74,0,0,0-.93.1L93.72,181.25a.74.74,0,0,0,0,1.05h0l17,16.52a.75.75,0,0,0,1,0L161,149a.74.74,0,0,0,0-1.05Z"/><polygon class="cls-4" points="106.97 171.12 121.28 184.62 155.33 150.98 138.05 139.73 106.97 171.12"/><path class="cls-7" d="M154,159.28a.5.5,0,0,0,.7,0l3-3a.49.49,0,0,0-.7-.7l-3,3A.5.5,0,0,0,154,159.28Z"/><path class="cls-7" d="M149,164.3a.5.5,0,0,0,.7,0l3-3a.49.49,0,0,0-.7-.7l-3,3A.5.5,0,0,0,149,164.3Z"/><circle class="cls-8" cx="107.3" cy="182.71" r="3.34"/><path class="cls-1" d="M18.48,164.08S14.29,190.43,31.65,188c0,0,68.86-15.57,72.45-12s25.93,4.81,24.76-10.33-23.56-6.44-23.56-6.44-34.73,4.79-41.91,1.2-27.55-2.4-27.55-2.4Z"/><path class="cls-4" d="M43.17,80.86s-26.95,3-26.95,41.91v49.69l32.93-13.77s13.78-32.33,12.58-41.31S61.13,82.05,43.17,80.86Z"/></g></g></svg>