<?xml version="1.0" encoding="utf-8"?>
<!-- Generator: Adobe Illustrator 25.1.0, SVG Export Plug-In . SVG Version: 6.00 Build 0)  -->
<svg version="1.1" id="Layer_1" xmlns="http://www.w3.org/2000/svg" xmlns:xlink="http://www.w3.org/1999/xlink" x="0px" y="0px"
	 viewBox="0 0 16 16" style="enable-background:new 0 0 16 16;" xml:space="preserve">
<style type="text/css">
	.st0{fill:#FFFFFF;}
</style>
<path class="st0" d="M6.5,1c0-0.3,0.2-0.5,0.5-0.5h2c0.3,0,0.5,0.2,0.5,0.5S9.3,1.5,9,1.5v0.6c1.4,0.2,2.6,0.8,3.6,1.6c0,0,0,0,0,0
	l0.4-0.4L12.6,3c-0.2-0.2-0.2-0.5,0-0.7c0.2-0.2,0.5-0.2,0.7,0l0,0l1.4,1.4c0.2,0.2,0.2,0.5,0,0.7c-0.2,0.2-0.5,0.2-0.7,0
	c0,0,0,0,0,0l-0.4-0.4l-0.4,0.4c0,0,0,0,0,0c2.5,2.9,2.2,7.3-0.7,9.9s-7.3,2.2-9.9-0.7S0.5,6.2,3.4,3.7c1-0.9,2.3-1.4,3.6-1.6V1.5
	C6.7,1.5,6.5,1.3,6.5,1z M8,3C4.7,3,2,5.7,2,9s2.7,6,6,6s6-2.7,6-6C14,5.7,11.3,3,8,3z"/>
</svg>
