<svg xmlns="http://www.w3.org/2000/svg" viewBox="0 0 979.99 962.06"><defs><style>.cls-1{fill:#a3a3a3;}</style></defs><title>StoreDark</title><g id="Layer_2" data-name="Layer 2"><g id="Layer_1-2" data-name="Layer 1"><path class="cls-1" d="M136.2,3.83c-18,10.9-18,35,0,45.91,6.31,3.83,10.52,3.83,353.51,3.83s347.2,0,353.51-3.83c18-10.9,18-35,0-45.91C836.91,0,832.7,0,489.71,0S142.51,0,136.2,3.83Z"/><path class="cls-1" d="M63.51,193.23C1,297.11,0,298.83,0,309c0,59.87,54,107.51,111.33,98.52,31.18-4.78,59.49-25.63,72.88-53.75,3.64-7.84,7.27-15.69,7.84-17.6,1.91-6.31,6.5-3.44,9.76,6.12C216,384.92,264.55,414.76,308,407.49c34.43-5.74,66.95-33.09,77.47-65.23,4.21-12.43,7.46-11.67,13.39,2.87,16.07,39.41,50.88,63.32,91.82,62.94,26-.19,46.87-9,66-27.55,10.14-9.95,21.81-27.93,25.06-39,1.72-5.93,3.64-8.61,5.93-8.61,1.91,0,3.44,1.15,3.44,2.68,0,1.34,3.44,9.57,7.65,18,18.75,37.49,60.45,60.07,99.47,54.14,35-5.36,65.8-30.42,78.81-64.28,5-13.2,8.23-13,13,.38,9.56,27.55,34.24,50.88,63.13,60.07,59.3,18.94,121.47-25.25,125.68-89.14l1.15-15.3-63.7-105.79L852.59,88H126.83Z"/><path class="cls-1" d="M51.92,686.15c0,263.07-1.34,242.22,16.25,260,17.22,17-3.06,15.88,270.07,15.88H577.92V524h245V962H852c37.49,0,45.9-2.3,59.68-15.88,17.6-17.79,16.26,3.06,16.26-260V455h-876Zm438-48.11V752h-350V524h350Zm-5.75,155.48c7.46,7.55,7.46,15.49,0,23L478.62,822H151.31l-5-4.34a20.7,20.7,0,0,1-6.12-11.15c-1-6-.19-7.74,4.78-12.84l5.74-5.67H478.62Z"/><path class="cls-1" d="M748.15,720.8c-16.83,9-17.79,34.43-1.72,44.38,5,3.25,8.61,3.82,16.64,3.25,9-.57,11.29-1.72,16.83-7.65,5.36-5.93,6.31-8.42,6.31-16.07C786.22,723.1,766.52,710.86,748.15,720.8Z"/><path class="cls-1" d="M618.73,916.52c-3.78,3.78-5.48,7.37-5.48,11.52s1.7,7.74,5.48,11.52l5.48,5.48h74c86.49,0,86.87,0,86.87-17s-.38-17-86.87-17h-74Z"/></g></g></svg>