<svg xmlns="http://www.w3.org/2000/svg" xmlns:xlink="http://www.w3.org/1999/xlink" viewBox="0 0 3228 1537.17"><defs><style>.cls-1{fill:#0071bc;}.cls-2{fill:#ff1d25;}.cls-3{fill:#f7931e;}</style></defs><g id="Layer_2" data-name="Layer 2"><g id="Layer_1-2" data-name="Layer 1"><image width="5472" height="3648" transform="translate(2152) scale(0.2 0.29)" xlink:href="../../../../Downloads/Canva%20-%20Person%20Holding%20Black%20Pen%20While%20Sitting.jpg"/><image width="3800" height="3648" transform="translate(1076) scale(0.28 0.3)" xlink:href="fourPeople2.jpg"/><image width="5304" height="7952" transform="scale(0.2 0.19)" xlink:href="books.jpg"/><path class="cls-1" d="M2288.74,976.15c-26.17-6.59-42.43-8.94-55.65-8.71-10.19,0-13,2.36-13,6.36,0,6.82,9.92,7.05,37.19,15.28,24.79,7.53,45.45,15.53,45.45,43.28,0,31.05-25.61,48-65.28,48-25.34,0-54.54-7.06-79.34-19.06l17.08-33.4c24.52,10.82,46.56,16.23,59.78,16.23,9.09,0,12.12-2.82,12.12-7.29,0-6.11-8.54-7.29-36.36-15-31.4-8.94-46.28-19.29-46.28-44,0-31,23.41-45.39,62.26-45.39,25.61,0,46.55,2.82,74.92,10.58Z"/><path class="cls-1" d="M2410.21,974.5v103.73H2359V974.5h-49.86V934.75h151V974.5Z"/><path class="cls-1" d="M2630.86,1008.84c0,48.93-25.34,71.51-78.51,71.51-52.89,0-78.23-22.82-78.23-71.51V934.75h51.24v74.09c0,22.11,9.09,31.52,27,31.52,18.18,0,27.27-9.41,27.27-31.52V934.75h51.24Z"/><path class="cls-1" d="M2719,934.75c60,0,93.93,25.87,93.93,71.74s-33.88,71.74-93.93,71.74h-65.56V934.75Zm0,106.08c26.72,0,41.87-12.23,41.87-34.34s-15.15-34.58-41.87-34.58H2705v68.92Z"/><path class="cls-1" d="M2919.27,1078.23H2868v-43.75L2805,934.75h54l23.14,37.87a193.59,193.59,0,0,1,11.57,20.7,153.22,153.22,0,0,1,11.3-20.7l23.41-37.87h53.72l-62.81,99.73Z"/><path class="cls-2" d="M90.48,976v103.73H46.73V976H4.15V936.27h128.9V976Z"/><path class="cls-2" d="M278.88,1010.36c0,48.92-21.64,71.5-67,71.5-45.16,0-66.8-22.81-66.8-71.5V936.27h43.75v74.09c0,22.11,7.76,31.52,23.05,31.52,15.53,0,23.29-9.41,23.29-31.52V936.27h43.75Z"/><path class="cls-2" d="M378.14,976v103.73H334.39V976H291.81V936.27h128.9V976Z"/><path class="cls-2" d="M574.3,1008.48c0,47-28,73.38-74.09,73.38s-74.09-26.34-74.09-73.38c0-47.75,28-74.57,74.09-74.57S574.3,960.73,574.3,1008.48Zm-44.45,0c0-23.76-11.06-35.29-29.64-35.29-18.35,0-29.64,11.53-29.64,35.29,0,22.81,11.29,34.1,29.64,34.1C518.79,1042.58,529.85,1031.29,529.85,1008.48Z"/><path class="cls-2" d="M651,936.27c41.4,0,64.68,19.52,64.68,54.33,0,21.4-8.46,36.46-23.52,45.16l28.46,39v4.94H673.79l-26.34-36H633.34v36h-44V936.27Zm2.82,72.44c12,0,18.58-6.59,18.58-18.11,0-11.29-7.52-17.64-20.93-17.64H633.34v35.75Z"/><rect class="cls-3" x="1076" y="1078.51" width="1076" height="457.49"/><path class="cls-3" d="M1216.66,1064.1c-22.35,11.53-40,16.23-61.63,16.23-44.22,0-72.21-26.34-72.21-73.38,0-47.75,28-74.57,74.56-74.57a122.86,122.86,0,0,1,54.34,12.94l-12.94,33.17c-18.34-4.71-28.69-6.82-39.51-6.82-20.7,0-32,11.52-32,35.28.23,21.4,11.76,34.1,29.87,34.1,14.82,0,24.93-2.11,45.4-9.64Z"/><path class="cls-3" d="M1370,1007c0,47-28,73.38-74.1,73.38s-74.09-26.34-74.09-73.38c0-47.75,28-74.57,74.09-74.57S1370,959.2,1370,1007Zm-44.46,0c0-23.76-11-35.28-29.64-35.28-18.34,0-29.63,11.52-29.63,35.28,0,22.81,11.29,34.1,29.63,34.1C1314.51,1041.05,1325.56,1029.76,1325.56,1007Z"/><path class="cls-3" d="M1482.92,1078.22l-53.87-72.68v72.68h-44V934.74h39.75l53.86,72.68V934.74h44v143.48Z"/><path class="cls-3" d="M1643.56,1078.22l-53.86-72.68v72.68h-44V934.74h39.75l53.87,72.68V934.74h44v143.48Z"/><path class="cls-3" d="M1706.36,1078.22V934.74h108.91v36.69h-65.39v18.35h55.51v34.34h-55.51v17.17h67.27v36.93Z"/><path class="cls-3" d="M1961.33,1064.1c-22.34,11.53-40,16.23-61.62,16.23-44.22,0-72.21-26.34-72.21-73.38,0-47.75,28-74.57,74.56-74.57a122.85,122.85,0,0,1,54.33,12.94l-12.93,33.17c-18.35-4.71-28.7-6.82-39.52-6.82-20.7,0-32,11.52-32,35.28.24,21.4,11.76,34.1,29.87,34.1,14.82,0,24.94-2.11,45.4-9.64Z"/><path class="cls-3" d="M2050,974.49v103.73h-43.75V974.49h-42.58V934.74h128.9v39.75Z"/><rect class="cls-2" y="1079.65" width="1076" height="455.86"/><rect class="cls-1" x="2152" y="1079.22" width="1076" height="457.95"/></g></g></svg>