<svg xmlns="http://www.w3.org/2000/svg" viewBox="0 0 92 92"><defs><style>.cls-1,.cls-2{fill:none;}.cls-2{stroke:#a9a9a9;stroke-miterlimit:10;stroke-width:4px;}.cls-3{fill:#a9a9a9;fill-rule:evenodd;}</style></defs><title>twitterLight</title><g id="Layer_2" data-name="Layer 2"><g id="Layer_1-2" data-name="Layer 1"><g id="Layer_1-2-2" data-name="Layer 1-2"><path class="cls-1" d="M46,90A44,44,0,1,0,2,46,44,44,0,0,0,46,90Z"/><path class="cls-2" d="M46,90A44,44,0,1,0,2,46,44,44,0,0,0,46,90Z"/><path class="cls-3" d="M62.93,35.24a9.07,9.07,0,0,0,3.79-5,16.9,16.9,0,0,1-5.47,2.2A8.34,8.34,0,0,0,55,29.55a8.86,8.86,0,0,0-8.62,9.09,10.32,10.32,0,0,0,.22,2.07,24.08,24.08,0,0,1-17.74-9.5,9.35,9.35,0,0,0-1.16,4.57,9.24,9.24,0,0,0,3.83,7.57,8.33,8.33,0,0,1-3.9-1.14v.11a9,9,0,0,0,6.9,8.91,8.35,8.35,0,0,1-3.88.16,8.68,8.68,0,0,0,8,6.31A16.75,16.75,0,0,1,28,61.55a20.15,20.15,0,0,1-2.06-.08,23.54,23.54,0,0,0,13.2,4.08C55,65.55,63.6,51.7,63.6,39.69V38.52a18.09,18.09,0,0,0,4.27-4.71,17,17,0,0,1-5,1.43Z"/></g></g></g></svg>