<?xml version="1.0" encoding="utf-8"?>
<!-- Generator: Adobe Illustrator 24.1.3, SVG Export Plug-In . SVG Version: 6.00 Build 0)  -->
<svg version="1.1" id="f7d3b1fb-15bd-4784-b19e-083bf25fb036"
	 xmlns="http://www.w3.org/2000/svg" xmlns:xlink="http://www.w3.org/1999/xlink" x="0px" y="0px" viewBox="0 0 845.6 760.3"
	 style="enable-background:new 0 0 845.6 760.3;" xml:space="preserve">
<style type="text/css">
	.st0{fill:#3F3D56;}
	.st1{fill:#FFFFFF;}
	.st2{fill:#E6E6E6;}
	.st3{fill:#2F2E41;}
	.st4{fill:#FFB9B9;}
	.st5{opacity:0.1;enable-background:new    ;}
	.st6{fill:#007BFF;}
	.st7{fill:#A0616A;}
	.st8{opacity:0.2;enable-background:new    ;}
</style>
<path class="st0" d="M362.9,172.9h-4V63.4c0-35-28.4-63.4-63.4-63.4l0,0H63.4C28.4,0,0,28.4,0,63.4c0,0,0,0,0,0v601
	c0,35,28.4,63.4,63.4,63.4h232.1c35,0,63.4-28.4,63.4-63.4V250.9h4L362.9,172.9z"/>
<path class="st1" d="M298,16.5h-30.3c4.7,11.5-0.8,24.6-12.3,29.3c-2.7,1.1-5.6,1.7-8.5,1.7H114c-12.4,0-22.5-10.1-22.5-22.5
	c0-2.9,0.6-5.8,1.7-8.5H64.8c-26.1,0-47.3,21.2-47.3,47.3v600.1c0,26.1,21.2,47.3,47.3,47.3l0,0H298c26.1,0,47.3-21.2,47.3-47.3l0,0
	l0,0V63.8C345.4,37.7,324.2,16.5,298,16.5C298,16.5,298,16.5,298,16.5z"/>
<rect x="47.2" y="134.5" class="st2" width="268.6" height="458.8"/>
<path class="st2" d="M747.8,434.3l2,70.9l21.6,83c0,0-4.7,14.2-1.3,17.5s18.9,9.4,18.9,9.4l-12.8-176.8L747.8,434.3z"/>
<path class="st3" d="M794.7,605.3c0,0,7.7,16.9-3.1,18.5s-60.6,5.6-57.5-3.1s40.6-16.9,40.6-16.9L794.7,605.3z"/>
<path class="st2" d="M823.4,371.5c0,0-8.1,43.9-13.5,51.3s2.7,61.4,2.7,61.4s12.1,77.6,6.7,89.7s-4,8.1-3.4,14.8s2,12.1,0,18.2
	s-2,5.4-2.7,8.8s0,21.6,0,21.6s-29,10.1-33.7-4.7c0,0,6.7-9.4,4.7-16.9c-2.1-7.5-3.2-15.2-3.4-22.9v-14.2l-31-116.1l-7.4-41.8
	c0,0,2-42.5,9.4-46.6S823.4,371.5,823.4,371.5z"/>
<path class="st3" d="M811.3,634c0,0,10.1,22.3-4,24.3s-79.6,7.4-75.6-4s53.3-22.3,53.3-22.3L811.3,634z"/>
<circle class="st4" cx="798.4" cy="150.2" r="27"/>
<path class="st4" d="M817.4,162.2l-0.5,34.5l-33.1,0.1c0,0,8.4-27,4.6-32.6S817.4,162.2,817.4,162.2z"/>
<path class="st0" d="M768.1,215.7c0,0,23.6-30.4,41.8-17.5s25,43.2,25,43.2l-4,85c0,0-9.4,43.2-7.4,45.2s-2,3.4-2,3.4l-71.5,2
	c0,0,2-2.7-4-10.8s1.3-18.9,0-22.9S768.1,215.7,768.1,215.7z"/>
<path class="st4" d="M774.8,389.8c0,0-1.3,16.9-11.5,19.6c-3.8,1-6.6-0.9-8.7-3.7c-4-5.5-4.2-12.9-0.5-18.6l2.5-4L774.8,389.8z"/>
<path class="st0" d="M837.2,181.6c0,0,0.7,13.5,0,15.5s-1.3,4,0,6.1s0.7,8.8-0.7,9.4s2.7,6.7,1.3,10.8s-2.7,5.4-3.4,6.7
	s-1.8,3.8-1.8,3.8s-19.8-42.2-36-32.1s-29,13.5-29,13.5S776.5,168.1,837.2,181.6z"/>
<path class="st0" d="M807.9,213c0,0,21.6,2,20.2,30.4s2,72.9,2,72.9S793,372.9,787,376.9s-6.7,3.4-6.1,6.7s1.3,6.1-1.3,8.8
	c-1.6,1.6-3.4,3-5.4,4c0,0-21.6-7.4-19.6-14.2s11.5-17.5,11.5-17.5s16.2-26.3,16.9-30.4s0.7-3.4,2.7-5.4s7.4-10.1,7.4-14.2V302
	l-5.7-68.5c-0.5-5.6,1.4-11.2,5.3-15.4C795.9,214.8,800.7,212.1,807.9,213z"/>
<path class="st3" d="M781,129.4c-3.6,1-7.4,0.1-10.2-2.3c-2.6-2.5-3.5-6.8-1.6-10c1.6-2.7,4.8-4,7.8-4.9c6.6-2.1,13.5-3.1,20.4-3.1
	c3.3,0,6.8,0.3,9.6,2c1.4,0.8,2.6,2,4,2.9c2.5,1.6,5.6,2.1,8.4,3.2c5.8,2.3,10.3,7.1,12.3,13c0.6,2,1,4,1.2,6.1
	c0.5,5.7-0.5,11.4-2.9,16.6c-3.8,8.2-10.9,15.1-11.9,24.1c-3.9-3.2-5-8.7-8-12.7c-2.2-3-5.4-5.2-9-6.1c-1-0.1-2-0.6-2.7-1.2
	c-0.5-0.7-0.8-1.6-0.9-2.5l-1.9-13.3c-0.4-2.7-0.9-5.7-3-7.5c-1.3-1-2.8-1.6-4.4-1.9c-3.8-0.9-7.6-1.6-11.5-1.9"/>
<path class="st5" d="M826.9,325.9L789,375C789,375,823.9,345.9,826.9,325.9z"/>
<polygon class="st5" points="790.5,271.4 790.9,317.9 768.9,350.9 786.9,313.9 "/>
<path class="st6" d="M502.1,125.2c9.9,49.8,12.7,100.7,8.4,151.3c-1.1,13.2-2.8,26.3-4.9,39.3c-1,5.9-2.1,11.8-3.2,17.8
	c-0.6,3.4-2,7.6,0.1,10.8c4.1,6.2,18.4,4.6,24.6,4.8c13,0.4,26.1,0.5,39.1,0.7l39.2,0.7l18.9,0.3c6.4,0.1,13.5,1.1,19.9,0.3
	c8.4-1.1,6.4-9.9,6.2-16.4c-0.3-12.9-0.6-25.8-1-38.7c-1.7-51.2-4.9-102.2-9.6-153.3c-0.6-6.5-0.2-14.3-2-20.6
	c-0.7-2.5-1.4-3.3-4.2-3.7c-6.3-1-13.9,0.1-20.3,0.1l-21.4,0.1l-87.1,0.6c-1.2,0-2.2,1.1-2.1,2.3c0,1.1,1,2.1,2.1,2.1l71.4-0.5
	l31.4-0.2l17.1-0.1c3.5,0,6.8-1.1,9,2.8c1.4,2.5,0.8,8.6,1.1,11.4c4.3,45.7,7.4,91.6,9.3,137.5c0.5,11.5,0.9,22.9,1.2,34.4
	c0.1,4.8,0.3,9.6,0.4,14.3c0.1,2.9,0.1,5.7,0.2,8.6c0.1,3,1.3,8.8,0.2,11.5c-2.3,5.8-12.5,3.3-17.5,3.2l-17.4-0.3l-34.8-0.6
	l-34.8-0.6c-5.8-0.1-11.5-0.1-17.3-0.4c-1.9-0.1-3.8-0.2-5.7-0.3c-5.7-0.4-11.8,0.9-12.5-6.9c-0.4-4.8,2.2-11.5,3.1-16.4
	c0.9-5.5,1.8-11,2.5-16.5c1.4-10.3,2.6-20.6,3.4-30.9c4-50.1,1.1-100.5-8.7-149.7C505.7,121.3,501.5,122.4,502.1,125.2L502.1,125.2z
	"/>
<path class="st6" d="M522.2,136.4h28.9c1.2,0,2.2-1.1,2.1-2.3c0-1.1-1-2.1-2.1-2.1h-28.9c-1.2,0-2.2,1.1-2.1,2.3
	C520.1,135.5,521,136.4,522.2,136.4z"/>
<path class="st6" d="M522.2,146.3l27.2-1c2.8-0.1,2.8-4.5,0-4.4l-27.2,1C519.4,142,519.3,146.4,522.2,146.3z"/>
<path class="st6" d="M522.2,154.6h26.4c1.2,0,2.2-1.1,2.1-2.3c0-1.1-1-2.1-2.1-2.1h-26.4c-1.2,0-2.2,1.1-2.1,2.3
	C520.1,153.7,521,154.6,522.2,154.6z"/>
<path class="st6" d="M609.8,134.4c-5.9-3.1-11.3,2-12.2,7.8c-0.4,2.8-0.5,6.7,1.3,9.1c1.9,2.5,5.4,3.5,8.4,3.7
	c5.6,0.3,11.6-2.8,13-8.6c1.4-5.3-1.5-10.8-6.7-12.7c-2.7-0.9-3.8,3.3-1.2,4.2c2.5,1,4,3.6,3.7,6.3c-0.4,3.1-2.7,5.6-5.8,6.1
	c-3.6,0.8-7.8-0.1-8.5-4.1c-0.5-3,1.1-10.5,5.7-8.2C610,139.5,612.2,135.7,609.8,134.4L609.8,134.4z"/>
<path class="st6" d="M527.9,178.6c31.8,0.3,63.6-0.6,95.3-2.9l-2.1-2.8c-5.2,13.2-5.1,27-4.4,41c0.2,3.5,1.3,8.2,0.6,11.6
	c-0.9,4.3-4.8,3.3-8.7,3.4c-8.5,0.3-17.1,0.5-25.6,0.6c-8.1,0.1-16.1,0.2-24.2,0.1c-3.8,0-7.6,0-11.4-0.1c-4.5,0-9.5,1.2-10.7-3.9
	c-0.7-3.3,0-7.7,0-11.1l0-12.5l0-24.9c0-1.2-1.1-2.2-2.3-2.1c-1.1,0-2.1,1-2.1,2.1l0,30.4l0,13.8c0,2.7-0.6,6.1,0.5,8.7
	c2.4,6,12.6,3.7,17.4,3.8c10,0.1,19.9,0.1,29.9,0c10-0.1,19.9-0.3,29.9-0.7c4.3-0.1,10.2,0.8,11.5-4.5c0.9-3.7-0.2-8.6-0.3-12.3
	c-0.2-4.3-0.5-8.6-0.5-13c-0.1-10.1,0.9-19.9,4.6-29.4c0.3-1.2-0.4-2.4-1.5-2.7c-0.2,0-0.4-0.1-0.6-0.1c-31.7,2.3-63.5,3.3-95.3,2.9
	c-1.2,0-2.2,1.1-2.1,2.3C525.9,177.6,526.8,178.5,527.9,178.6L527.9,178.6z"/>
<path class="st6" d="M537,181c13.6,4.8,26.9,10.5,39.7,17.2c11.5,6,26.6,12.5,34.5,23.1c1.7,2.2,5.5,0.1,3.8-2.2
	c-8.1-10.9-22-17.3-33.7-23.4c-13.9-7.3-28.3-13.6-43.1-18.8C535.5,175.8,534.4,180,537,181L537,181z"/>
<path class="st6" d="M622.5,173.2c-14.4,6.2-26.7,18.1-39.6,26.9c-14,9.5-28.4,18.4-43.2,26.6c-2.5,1.4-0.3,5.1,2.2,3.8
	c14.8-8.2,29.2-17.1,43.2-26.6c12.9-8.8,25.1-20.7,39.6-26.9C627.3,175.9,625.1,172.1,622.5,173.2L622.5,173.2z"/>
<path class="st6" d="M527.9,266c31.8,0.3,63.6-0.6,95.3-2.9l-2.1-2.8c-5.2,13.2-5.1,27-4.4,41c0.2,3.5,1.3,8.2,0.6,11.6
	c-0.9,4.3-4.8,3.3-8.7,3.4c-8.5,0.3-17.1,0.5-25.6,0.6c-8.1,0.1-16.1,0.2-24.2,0.1c-3.8,0-7.6,0-11.4-0.1c-4.5,0-9.5,1.2-10.7-3.9
	c-0.7-3.3,0-7.7,0-11.1l0-12.5l0-24.9c0-1.2-1.1-2.2-2.3-2.1c-1.1,0-2.1,1-2.1,2.1l0,30.4l0,13.8c0,2.7-0.6,6.1,0.5,8.7
	c2.4,6,12.6,3.7,17.4,3.8c10,0.1,19.9,0.1,29.9,0c10-0.1,19.9-0.3,29.9-0.7c4.3-0.1,10.2,0.8,11.5-4.5c0.9-3.7-0.2-8.6-0.3-12.3
	c-0.2-4.3-0.5-8.6-0.5-13c-0.1-10.1,0.9-19.9,4.6-29.4c0.3-1.2-0.4-2.4-1.5-2.7c-0.2,0-0.4-0.1-0.6-0.1c-31.7,2.3-63.5,3.3-95.3,2.9
	c-1.2,0-2.2,1.1-2.1,2.3C525.9,265,526.8,266,527.9,266L527.9,266z"/>
<path class="st6" d="M537,268.4c13.6,4.8,26.9,10.5,39.7,17.2c11.5,6,26.6,12.5,34.5,23.1c1.7,2.2,5.5,0.1,3.8-2.2
	c-8.1-10.9-22-17.3-33.7-23.4c-13.9-7.3-28.3-13.6-43.1-18.8C535.5,263.2,534.4,267.4,537,268.4z"/>
<path class="st6" d="M622.5,260.6c-14.4,6.2-26.7,18.1-39.6,26.9c-14,9.5-28.4,18.4-43.2,26.6c-2.5,1.4-0.3,5.1,2.2,3.8
	c14.8-8.2,29.2-17.1,43.2-26.6c12.9-8.8,25.1-20.7,39.6-26.9C627.3,263.3,625.1,259.5,622.5,260.6z"/>
<path class="st6" d="M385.1,238.6h81.8c1.2,0,2.2-1.1,2.1-2.3c0-1.1-1-2.1-2.1-2.1h-81.8c-1.2,0-2.2,1.1-2.1,2.3
	C383,237.7,383.9,238.6,385.1,238.6z"/>
<path class="st6" d="M460.4,217.2l12.8,11.7c1.5,1.3,5.5,4.1,6.4,5.8c1.9,3.6-0.1,2.8-3.4,4c-7.9,3.1-15.2,7.7-21.5,13.4
	c-2.1,1.9,1,4.9,3.1,3.1c5.8-5.2,12.4-9.3,19.6-12.2c2.6-1,7.5-1.6,8.7-4.7c1.5-3.8-3.3-6.5-5.5-8.6l-17-15.5
	C461.4,212.2,458.3,215.3,460.4,217.2L460.4,217.2z"/>
<ellipse class="st3" cx="151.4" cy="378.8" rx="46.9" ry="11.9"/>
<path class="st7" d="M142.1,220.9c2.8,8.5-5.7,18.6-5.7,18.6l11.9,14.7l18.6,3.4c0,0,12.4-8.5,7.9-11.3s-5.1-25.4-5.1-25.4
	L142.1,220.9z"/>
<rect x="36.7" y="460.6" transform="matrix(0.1329 -0.9911 0.9911 0.1329 -358.8809 512.1546)" class="st3" width="153.1" height="1.1"/>
<rect x="60.4" y="461.9" transform="matrix(8.646726e-02 -0.9963 0.9963 8.646726e-02 -336.8632 557.5408)" class="st3" width="150.3" height="1.1"/>
<rect x="183.9" y="364.1" transform="matrix(0.9959 -9.079979e-02 9.079979e-02 0.9959 -40.1641 18.6106)" class="st3" width="1.1" height="173.3"/>
<rect x="71.9" y="449" transform="matrix(3.592790e-02 -0.9994 0.9994 3.592790e-02 -295.1004 593.2599)" class="st3" width="176.2" height="1.1"/>
<path class="st3" d="M190.7,332.8l-34.5,29.4l58.8,14.7c0,0-20.9,18.1-28.3,19.8s-23.2,11.3-23.2,11.3s26,17.5,27.7,17
	s11.3-2.8,11.3-2.8s52-36.2,62.7-57.6s-54.2-26-54.2-26L190.7,332.8z"/>
<path class="st3" d="M117.8,367.2c-2.3,7.3,14.7,15.3,14.7,15.3s15.8,20.9,20.3,23.2s6.2,15.8,6.2,15.8c-7.9,21.5,0,85.3,0,94.4
	c0,9,27.7,0,27.7,0s-5.1-68.9,2.3-89.7S159,352.6,159,352.6S120,359.9,117.8,367.2z"/>
<path class="st7" d="M133,209c0-12.5,10.1-22.6,22.6-22.6c12.5,0,22.6,10.1,22.6,22.6c0,12.5-10.1,22.6-22.6,22.6
	C143.2,231.6,133,221.5,133,209L133,209z"/>
<path class="st1" d="M220.1,339l-23.4-8.1c-0.9-8.1-2.2-18.2-3.5-27.5l7.1-37.9l0.6-17.5c-4-7-30.4-16.4-30.4-16.4s0.5,1.8,1.3,4.8
	c-0.2,0-0.4,0.1-0.6,0.2c0,0,3.1,18.2-13.3,13.7c-4.7-1.1-8.8-3.7-12-7.3c-3.1-5.3-4.8-10-4-13.4c0,0-31.7,24.8-33.9,30.4s6,54,6,54
	s-9.1,49.8,2.2,62.8c0,0-4-6.8,17-6.8s31.1-4,31.6-4.5s11.3,0,11.3,0s0.2-4.1,0.4-10.6c10.9-2.7,20-5.8,21.1-7.4
	c0.2-0.6,0.3-1.3,0.3-1.9L220.1,339z"/>
<path class="st7" d="M186.8,346.5l2.1,15.1c0,0,17.5,26,26.6,20.3S202,355.4,202,355.4v-6.8L186.8,346.5z"/>
<path class="st3" d="M168.1,407.9c0,0-19.8,13.6-20.3,17s41.2,44.1,50.9,40.7s-11.9-36.2-11.9-36.2l6.2-9L168.1,407.9z"/>
<path class="st3" d="M161.9,511.3c0,0-8.5,15.8-4,22.6s7.9,15.3,10.7,21.5s23.2,9,32.2,6.8s-10.7-28.3-10.7-28.3l-5.1-22.6H161.9z"
	/>
<path class="st1" d="M205.4,260.5c-0.6-13.6-10.2-17.5-10.2-17.5l-6.2,69.5l0.7,0l-0.7,1.1l-4,39c4.5-5.7,18.6,0,18.6,0l1.7-39l0,0
	C205.4,313.6,205.9,274,205.4,260.5z"/>
<path class="st7" d="M177.7,367.2l7.3,5.7c0,0,10.7,15.8,29.4,6.2s-23.2-23.2-23.2-23.2l-10.7-3.4L177.7,367.2z"/>
<path class="st1" d="M104.2,264.4c-5.7,6.8,7.3,52.5,10.7,66.1s33.9,25.4,41.2,26s14.7,14.1,19.8,16.4s5.7-13,8.5-20.2
	s-16.4-6.4-16.4-6.4l-28.3-18.6c0,0-2.8-26-5.1-45.8s-17.5-27.1-17.5-27.1C112.7,252,109.9,257.6,104.2,264.4z"/>
<path class="st0" d="M171.6,196.8c0,0,12.4,7.3,15.1,7.3s3.3-2.6,1.3-6.1s-11-3.4-11-3.4L171.6,196.8z"/>
<path class="st5" d="M171.6,196.8c0,0,12.4,7.3,15.1,7.3s3.3-2.6,1.3-6.1s-11-3.4-11-3.4L171.6,196.8z"/>
<path class="st6" d="M144.7,195.8l13.9-5.8l12.2,0.3l12.6,5.3c-4.9-2-16.9,4.7-25.3,13s-14.3,2.9-14.3,2.9l-6.2-5.4L144.7,195.8z"/>
<path class="st6" d="M131.1,201.7c-0.9-6.7,3.3-12.8,6-15.9c1.2-1.4,2.9-2.3,4.7-2.5l0,0c0.1-0.1,0.1-0.1,0.2-0.2
	c3-2.6,13.5-4.9,13.5-4.9c3.1-0.9,9.1,2.5,9.1,2.5l11.1,12.1c-5.7-2.5-13.8,0.1-13.8,0.1c-8,1.9-15.6,7.1-20.9,11.7
	c-2.8,2.4-5.4,4.9-7.8,7.6C133.3,212.2,132.4,211.5,131.1,201.7z"/>
<path class="st5" d="M138.2,206.7c23.3-19.7,36.4-15.4,37-15.2l-0.4,1.1c-0.1,0-13.1-4.2-35.9,15L138.2,206.7z"/>
<ellipse transform="matrix(0.866 -0.5 0.5 0.866 -72.3059 95.6661)" class="st6" cx="142.4" cy="182.8" rx="3.4" ry="2.3"/>
<ellipse transform="matrix(0.1445 -0.9895 0.9895 0.1445 -90.1658 314.3351)" class="st7" cx="136.7" cy="209.3" rx="2.8" ry="1.7"/>
<polygon class="st8" points="138.9,296 140.6,328.2 167.9,345 143.9,327 "/>
<polygon class="st8" points="184.9,301 182.9,345 181.9,301 "/>
</svg>
