<svg xmlns="http://www.w3.org/2000/svg" viewBox="0 0 77.1 71.53"><defs><style>.cls-1{fill:#fff;}</style></defs><title>userWhite</title><g id="Layer_2" data-name="Layer 2"><g id="Layer_1-2" data-name="Layer 1"><path class="cls-1" d="M75.68,61.25a15.19,15.19,0,0,0-5.58-7.92C64.86,49.85,58.76,48,52.86,46a23.37,23.37,0,0,1-4.17-1.81,4.88,4.88,0,0,1-1.86-3.35,16.85,16.85,0,0,1-.23-2c4.28-5.86,7.11-15.41,7.11-23.24C53.71,3.41,46.81,0,38.29,0S22.87,3.4,22.87,15.62c0,8.11,3,18.06,7.58,23.84,0,.45-.1.91-.18,1.36a4.77,4.77,0,0,1-1.86,3.32,22.6,22.6,0,0,1-4.18,1.77c-5.89,2-12,3.73-17.23,7.21-2.72,1.79-4.57,5.08-5.58,8.13A32.51,32.51,0,0,0,0,71.53H77.09A32.51,32.51,0,0,0,75.68,61.25Z"/></g></g></svg>