<svg xmlns="http://www.w3.org/2000/svg" xmlns:xlink="http://www.w3.org/1999/xlink" viewBox="0 0 890.08 673.65"><defs><style>.cls-1{fill:#504f60;}.cls-2{opacity:0.2;}.cls-11,.cls-2,.cls-7{isolation:isolate;}.cls-3{fill:#007bff;}.cls-4{fill:#514e7f;}.cls-5{fill:#464353;}.cls-6{fill:#a1616a;}.cls-18,.cls-7{opacity:0.1;}.cls-8{fill:#33323d;}.cls-9{fill:#8dd070;}.cls-10{fill:#fbbebe;}.cls-11,.cls-14{opacity:0.05;}.cls-12{fill:url(#linear-gradient);}.cls-13{fill:#2d293d;}.cls-15{fill:#ffcdd3;}.cls-16{fill:#3f3d56;}.cls-17{fill:#575988;}</style><linearGradient id="linear-gradient" x1="158.72" y1="2541.25" x2="158.72" y2="3029.71" gradientTransform="matrix(1, 0, 0, -1, 479.54, 3087.06)" gradientUnits="userSpaceOnUse"><stop offset="0" stop-color="gray" stop-opacity="0.25"/><stop offset="0.54" stop-color="gray" stop-opacity="0.12"/><stop offset="1" stop-color="gray" stop-opacity="0.1"/></linearGradient></defs><title>wallet</title><g id="Layer_2" data-name="Layer 2"><g id="Layer_1-2" data-name="Layer 1"><path class="cls-1" d="M763.89,535.49c0,5.9-34.39,23.1-75.24,23.1S616,541.39,616,535.49s33.11-4,74-4S763.89,529.58,763.89,535.49Z"/><path class="cls-2" d="M763.89,535.49c0,5.9-34.39,23.1-75.24,23.1S616,541.39,616,535.49"/><path class="cls-3" d="M352.5,427.23c6.63.85,13.51,1.39,19.86-.67,1-.31,2.1-1,2-2a2.33,2.33,0,0,0-.45-1,62.25,62.25,0,0,1-6-11.43,1,1,0,0,0-.37-.52,1,1,0,0,0-.64,0c-2.93.77-5.46,2.66-8.37,3.47a11.88,11.88,0,0,1-4.56.34c-1.32-.15-3.12-1.24-4.32-1.1C350.33,418.69,352,422.77,352.5,427.23Z"/><path class="cls-3" d="M477.89,416.16c4.37-3,8.9-6.15,11.48-10.78a1.75,1.75,0,0,0,.31-.93,1.84,1.84,0,0,0-.37-.9A37,37,0,0,0,480,393.48a27.54,27.54,0,0,0-5.2,4.8c-1.1,1.16-4.14,3-4.17,4.77,0,1,1.16,2.16,1.7,3,.73,1.08,1.42,2.18,2.08,3.3C474.77,409.9,478.24,415.94,477.89,416.16Z"/><path class="cls-4" d="M378.49,440.62a4.41,4.41,0,0,1-.8,2.9,3.89,3.89,0,0,1-1.68,1c-9.27,3.32-20-.82-29.25,2.45-1.9.67-3.7,1.64-5.61,2.28a30.68,30.68,0,0,1-7,1.24c-3.27.31-6.56.51-9.84.6a23.49,23.49,0,0,1-7.42-.65,8.93,8.93,0,0,1-5.69-4.51,4.36,4.36,0,0,1-.28-3.21,3.78,3.78,0,0,1,.61-1,9.06,9.06,0,0,1,2.18-1.77l3.41-2.2a23.08,23.08,0,0,1,5.17-2.74c1.35-.44,2.78-.63,4.15-1,4.79-1.4,8.45-5.2,11.85-8.85l4.64-5a4.79,4.79,0,0,1,1.61-1.29,4.53,4.53,0,0,1,2-.19A26.7,26.7,0,0,1,359.19,423a16.61,16.61,0,0,0,3.12,1.84c2.72,1.06,6.21.26,8.72-1.08,1.19-.64.93-1,1.43-2.14s1.72-1.87,2.78-.83a2.89,2.89,0,0,1,.66,1.26c1,3.3.62,6.85.62,10.31a4.57,4.57,0,0,0,.2,1.6,9.33,9.33,0,0,0,.91,1.48,1.93,1.93,0,0,1,.19.38A10,10,0,0,1,378.49,440.62Z"/><path class="cls-5" d="M378.49,440.62a4.41,4.41,0,0,1-.8,2.9,3.89,3.89,0,0,1-1.68,1c-9.27,3.32-20-.82-29.25,2.45-1.9.67-3.7,1.64-5.61,2.28a30.68,30.68,0,0,1-7,1.24c-3.27.31-6.56.51-9.84.6a23.49,23.49,0,0,1-7.42-.65,8.93,8.93,0,0,1-5.69-4.51,4.36,4.36,0,0,1-.28-3.21,3.78,3.78,0,0,1,.61-1c.54,1.13.93,2.63,1.27,3.17a6.49,6.49,0,0,0,4.34,3.13,10.83,10.83,0,0,0,4-.51c8.4-2.08,17.33-2.11,25.4-5.26,2.77-1.09,5.41-2.54,8.32-3.2s6-.48,9-.73c4.74-.38,9.33-1.81,14-2.56A10.07,10.07,0,0,1,378.49,440.62Z"/><path class="cls-4" d="M499.12,415.55c-.44,3.52-2.67,6.55-5.12,9.12s-5.22,4.88-7.17,7.84c-2.4,3.67-3.48,8.22-6.6,11.32a17.64,17.64,0,0,1-4,2.85,27.61,27.61,0,0,1-5.15,2.37c-4.66,1.49-9.68,1.15-14.55.79a13.31,13.31,0,0,1-4.62-.89,14.54,14.54,0,0,1-1.92-1.18,9.25,9.25,0,0,1-3-3,3.06,3.06,0,0,1-.29-2.18,5.19,5.19,0,0,1,1.39-2.12,34,34,0,0,1,3.52-3.17,20.59,20.59,0,0,0,4.58-4,12.58,12.58,0,0,0,1.77-4,34.88,34.88,0,0,0,1.29-7.65,25.14,25.14,0,0,1,.53-5.12c.74-2.64,2.7-5,2.48-7.73a2,2,0,0,1,.1-1.17,1.66,1.66,0,0,1,.92-.57,16.39,16.39,0,0,1,4.78-1.11,5.56,5.56,0,0,1,4.44,1.74c.68.82,1.13,2,2.13,2.32a3.26,3.26,0,0,0,1.52.06c2.46-.25,5.06-.56,7-2.15a8.7,8.7,0,0,0,2.9-6.37c0-.91-.41-1.86,1-2,1.06-.14,1.9,1,2.44,1.7,1.95,2.61,3.95,5.34,4.68,8.52a2.51,2.51,0,0,1,.89-.17,3.87,3.87,0,0,1,3.19,1.63A6.3,6.3,0,0,1,499.12,415.55Z"/><path class="cls-5" d="M499.12,415.55c-.44,3.52-2.67,6.55-5.12,9.12s-5.22,4.88-7.17,7.84c-2.4,3.67-3.48,8.22-6.6,11.32a17.64,17.64,0,0,1-4,2.85,27.61,27.61,0,0,1-5.15,2.37c-4.66,1.49-9.68,1.15-14.55.79a13.31,13.31,0,0,1-4.62-.89,14.54,14.54,0,0,1-1.92-1.18,9.25,9.25,0,0,1-3-3,7.27,7.27,0,0,1,3-.72c2.16.12,3.74,2.16,5.81,2.79,2.95.89,5.89-1.19,8.88-1.9,1.95-.46,4-.34,5.93-1a14.5,14.5,0,0,0,4.39-2.66,22.1,22.1,0,0,0,4.69-4.52,29.05,29.05,0,0,0,2.75-5.49A79.09,79.09,0,0,1,488,420.63a7.83,7.83,0,0,1,1.13-1.48,15.75,15.75,0,0,1,1.53-1.11c2-1.51,2.83-4,3.53-6.44a11.79,11.79,0,0,1,.79-2.15,3.87,3.87,0,0,1,3.19,1.63A6.34,6.34,0,0,1,499.12,415.55Z"/><path class="cls-6" d="M289.43,103.77a21.17,21.17,0,0,1,6,7c1.4,2.74,9.47,24,9,27.09,2.63-2.65,13-3.08,15.66-5.73,1.11-1.11,7.1-6.65,8-7.94s7.58-4,8.31-5.36c2.73-4.89-19.36-23.42-16.53-28.25a1.22,1.22,0,0,0,.23-.76,1.19,1.19,0,0,0-.37-.59c-1.81-1.85-4.21-3-6.39-4.37s-4.28-3.28-4.87-5.8a21.39,21.39,0,0,0-5.65,3.82q-6.07,5.2-11.95,10.63c-1.53,1.42-4.49,3.31-5.2,5.34C284.83,101,288,102.58,289.43,103.77Z"/><path class="cls-4" d="M325.19,95.9a66.17,66.17,0,0,0-9.46,7.74c-2.74,2.71-5.34,5.85-6,9.64-.28,1.49-.24,3-.47,4.51-1,6.55-6.66,11.35-9.16,17.48a31,31,0,0,0-1.59,5.85,70.23,70.23,0,0,0-1.15,11.48c-.06,3.73,3.6,6.3,4.94,9.78s1.7,7.06,2.38,10.63c1.28,6.74,3.63,13.24,6,19.7,4.93,13.62,20.91,51.27,25.84,64.9,15.11-3.79,55.33-12.5,68.71-20.49,4.46-2.66-31-32.67-26.18-34.74a1.78,1.78,0,0,0,1.49-2,1.92,1.92,0,0,0-.15-.48c-4.77-20.86-19.69-38-26.46-58.31-2.35-7.05-6.57-13.07-9.77-19.77-2.9-6.07-4.45-12.78-7.92-18.55a11.66,11.66,0,0,0-2.53-3.15,14.92,14.92,0,0,0-2.79-1.69C328.94,97.44,327.1,96.87,325.19,95.9Z"/><circle class="cls-6" cx="290.23" cy="77.75" r="23.65"/><path class="cls-5" d="M314.79,88.66a7.91,7.91,0,0,1,8.89-1.28c1.6.83,3,2.51,2.64,4.27l11.73.18a23.09,23.09,0,0,1,5.56.51,8.07,8.07,0,0,1,4.64,2.91c.14.19.3.42.54.45a.86.86,0,0,0,.54-.18,10.08,10.08,0,0,1,5.84-1c6.34.41,12.2,3.58,17.17,7.54a5.49,5.49,0,0,1,2,2.49c.41,1.33-.08,3,1,4,0,11,3.78,21.28,6.3,32,.45,1.91,2.28,3.6,3.55,5.1a20.42,20.42,0,0,1,3.79,5.66c2.14,5.56-.81,12.1,1.27,17.68.88,2.36,2.58,4.3,4,6.35a16.35,16.35,0,0,1,3.42,8.2c.09,1.34-.08,2.69,0,4a24,24,0,0,0,1,5.31q1.27,4.83,2.68,9.67c1.52,5.2,3.5,10.81,8.16,13.58-11.25,1.91-23.11,3.78-33.83-.13a17.54,17.54,0,0,1-4.22-2.11c-3.87-2.76-5.74-7.48-7.41-11.94-1.86-5-3.75-10.09-4.13-15.41a17.93,17.93,0,0,0-.71-5c-1.09-2.9-4-4.65-6.64-6.26a32.24,32.24,0,0,1-8-6.22,12.46,12.46,0,0,1-3.24-9.34c.2-1.65.85-3.24.91-4.9s-.68-3.56-2.27-4c-8.19-2.48-12.1-12.18-13.92-20.54A65.44,65.44,0,0,1,325,117.1l-.11-8.53a11.31,11.31,0,0,1-3.68-8.09,9.61,9.61,0,0,0,0-2.68A7.4,7.4,0,0,0,319.28,95,25.59,25.59,0,0,1,314.79,88.66Z"/><path class="cls-5" d="M289.1,115.9c-.27,2.64.33,5.35-.26,7.94-.23,1-.63,2-.92,2.93A17.26,17.26,0,0,0,289,137.9a63,63,0,0,0,5.69,9.85,15.32,15.32,0,0,1,1.82,3.41,17.18,17.18,0,0,1,.7,3.89A121.13,121.13,0,0,0,300,170.77c1.12,4.48,13.84,42.78,16.8,46.33a3.78,3.78,0,0,0,2.28,1.55,4.05,4.05,0,0,0,1.94-.4l6-2.3a3.85,3.85,0,0,0,1.39-.76,3.54,3.54,0,0,0,.86-2.36c.43-4.88-12.32-43.45-13.94-48.06-4.9-13.92-11.42-27.34-14.61-41.75-.89-4-1.36-10.16-4.29-13.35-1.21-1.32-.8-.76-2.25-.07a17.1,17.1,0,0,0-2.12,1.11A7,7,0,0,0,289.1,115.9Z"/><path class="cls-3" d="M307.31,142.31c1.61,8.51,3.27,17,4.92,25.51l23.48-6.15c.19-2.46-1.12-4.74-2-7-2.14-5.37-2.19-11.35-3.92-16.87-1.31-4.2-3.59-8.06-4.82-12.29-.71-2.46-1.07-5-1.77-7.49a53.86,53.86,0,0,0-2.76-7.15,44.15,44.15,0,0,0-5.12-9.49c-3,1.12-6.2,2.42-7.91,5.13a11.27,11.27,0,0,0-1.46,5c-.41,5.27,1.5,10.57.87,15.81A46.85,46.85,0,0,0,307.31,142.31Z"/><path class="cls-5" d="M336.1,255.51c1.32,5-.59,10.26-2.15,15.21a118.63,118.63,0,0,0-4.78,22.9,19.76,19.76,0,0,1-1.18,5.79c-.74,1.67-2,3.08-2.86,4.67-2.36,4.18-2.3,9.28-1.79,14.06.34,3.15.85,6.29,1.48,9.39.77,3.79,1.72,7.75.61,11.45,1.86-.41,3.12,2,3,3.89s-.73,4,.18,5.63c2.3.84,2.32,4,2.25,6.45a54.58,54.58,0,0,0,1.6,12.6q5.22,25.09,11.08,50.06c8.45,2.62,18.32,5.35,26.38,1.72,1.5-.67,3-1.74,3.34-3.36a5.82,5.82,0,0,0-.32-2.58l-3.82-13.9c-.93-3.36-1.86-6.83-1.37-10.28.37-2.57,1.49-5.34.23-7.61-.43-.78-1.11-1.39-1.61-2.13-2-2.93-.95-6.85-.79-10.4a7.92,7.92,0,0,0-.16-2.38,11.42,11.42,0,0,0-1.14-2.61,40,40,0,0,1-4.4-19.86,4.89,4.89,0,0,0-.35-2.59,8.85,8.85,0,0,1-.65-1.06,3,3,0,0,1,.21-1.91,17.85,17.85,0,0,1-3.08-3,4.3,4.3,0,0,0,1.39-5.94,4.14,4.14,0,0,0-.65-.8,2.24,2.24,0,0,0,1.07-3.87c-.49-.34-1.14-.49-1.49-1-.54-.74-.1-1.77.34-2.56l2.33-4.21c1.74-3.13,2.13-7,4-10,2.68-4.37,4.43-9.24,6.16-14.06l6.73-18.57,4.53,3.93a14.13,14.13,0,0,1,3.72,4.24,17.85,17.85,0,0,1,1.21,5.08c1.66,10.08,8,18.82,10.35,28.75.52,2.21.87,4.53,2.14,6.42a13,13,0,0,1,1.22,1.84,9.3,9.3,0,0,1,.51,3,14.27,14.27,0,0,0,6,10.2c2.23,1.53,5,2.58,6.21,5a9.64,9.64,0,0,0,1,2.13c1.08,1.3,3.41,1.45,3.87,3.08.26.91-.22,2,.29,2.8a2.67,2.67,0,0,0,1.11.83l6.51,3.25c7.28,3.64,11,12,16.37,18.09a38.57,38.57,0,0,1,4.9,6.48c2.32,4.15,3.39,9.36,7.31,12a10.94,10.94,0,0,1,2.84,2.11c1.23,1.62.78,3.89.89,5.93s1.67,4.47,3.61,3.85a14.23,14.23,0,0,0,0,7.55,38,38,0,0,0,23.06-9.34c1.9-1.66,3.73-3.78,3.75-6.3a2.18,2.18,0,0,0-.28-1.25,3.51,3.51,0,0,0-1.47-1.11c-6.09-3.3-7.92-10.95-11-17.16-2.69-5.48-6.67-10.2-10-15.29-7.24-10.95-12.18-24.2-23.13-31.43-2.41-1.59-5.21-3-6.42-5.63-.67-1.47-.75-3.15-1.28-4.67s-1.8-3-3.42-3c.9-2.2.72-4.88.78-7.26a8.93,8.93,0,0,0-.36-3.13,14.73,14.73,0,0,0-1.61-3.1,29.85,29.85,0,0,1-4.12-16c.08-2.89.59-5.87-.28-8.63-.44-1.39-1.21-2.66-1.74-4a25.27,25.27,0,0,1-1.25-7.52l-.6-9.61a46.84,46.84,0,0,0-1.24-9.5c-2-7.46-4-38.71-10.85-42.23s-18.62,20.53-26.33,21a34.16,34.16,0,0,0-10,1.93c-5.13,1.92-9.43,5.5-13.62,9l-14.18,11.91C341.89,251.41,339.41,253.77,336.1,255.51Z"/><path class="cls-5" d="M268,51.49c3.12-4.26,8.48-6.52,13.76-6.71S292.28,46.25,297,48.6a18.87,18.87,0,0,0,4.44,1.82c2.5.51,5.28-.17,7.54,1,3,1.59,3.58,5.64,3.32,9s-.89,7.09.9,10A21.45,21.45,0,0,1,314.94,73c.77,1.73.32,3.73-.14,5.56-1.17-1-1.83-2.51-2.87-3.67s-2.85-1.94-4.14-1.07-1.27,2.45-1.34,3.87-.43,3.12-1.77,3.58a2.87,2.87,0,0,1-3-1.17c-2.29-2.8-1.37-7.27-3.64-10.09-1.29-1.6-3.44-2.38-4.63-4.06-.94-1.32-1.18-3-2-4.42s-2.73-2.46-4-1.48a5.57,5.57,0,0,0-1.07,1.43,6.14,6.14,0,0,1-7.3,2.2,12.35,12.35,0,0,0-3.16-1.37,3.93,3.93,0,0,0-3.61,2,7.91,7.91,0,0,0-1,4.18c0,2,.36,4.13-.78,5.73a5.79,5.79,0,0,1-1.6,1.52c-1.67,1.07-4,1.79-5.54.57a4.17,4.17,0,0,1-1.24-3.88,32.51,32.51,0,0,1,1.18-4.1c.88-3.1-.27-6.59.69-9.51A30.72,30.72,0,0,1,268,51.49Z"/><path class="cls-3" d="M280.71,122a3.66,3.66,0,0,0,.22,2.17,3.54,3.54,0,0,0,1.18,1.13A24.41,24.41,0,0,0,293.25,129a3.42,3.42,0,0,1,1.54.4c.94.62,1,2,.65,3.1a8.33,8.33,0,0,0-.71,3.3c.29,2.09,2.77,3,4.86,3.31,2.93.37,6.14.18,8.46-1.65a13,13,0,0,0,3.49-5.23c5.74-13.19,7.75-27.77,13.56-40.92a8.52,8.52,0,0,0,.87-2.74A2.67,2.67,0,0,0,324.89,86c-1.08-.67-2.76-.29-3.49-1.34-.36-.53-.32-1.25-.64-1.81-.67-1.19-2.43-1-3.63-1.69-.94-.5-1.59-1.53-2.64-1.73a3.34,3.34,0,0,0-2.73,1.18c-3.41,3.18-5.2,7.69-7.1,12A139,139,0,0,1,294.5,111.4c.45-.7-2.16-6-3.18-6.23-1.79-.36-4.08,2.78-5.05,4A25.2,25.2,0,0,0,280.71,122Z"/><path class="cls-7" d="M317,82.09A4.79,4.79,0,0,0,313.33,84c-1.07,1.39-1.28,3.23-1.55,5a43.42,43.42,0,0,1-5.89,15.82"/><path class="cls-7" d="M322.14,86.08A5.71,5.71,0,0,0,317.29,89a16.5,16.5,0,0,0-1.22,4.94,27,27,0,0,1-4.85,10.39"/><path class="cls-8" d="M560,281.54V269.12a34.47,34.47,0,0,0-34.45-34.47H35.45A34.47,34.47,0,0,0,1,269.12V292Z"/><path class="cls-9" d="M171.28,220.13s-1.4,86.86,14,115.44,22,152.91,22,152.91,161.44,16.7,273.94-20S833.1,416.77,833.1,416.77L792.76,144.88S593.47,132.1,480.1,186.17,171.28,220.13,171.28,220.13Z"/><path class="cls-7" d="M171.28,220.13s-1.4,86.86,14,115.44,22,152.91,22,152.91,161.44,16.7,273.94-20S833.1,416.77,833.1,416.77L792.76,144.88S593.47,132.1,480.1,186.17,171.28,220.13,171.28,220.13Z"/><path class="cls-9" d="M207,251.86s-5,71.67,7.62,94.57,13.26,125.13,13.26,125.13,145.29,6.74,248.64-28.44,320.53-58,320.53-58L772.38,162.77s-179.7-1.85-284.58,47.67S207,251.86,207,251.86Z"/><ellipse class="cls-7" cx="476.21" cy="322.13" rx="37.72" ry="80.9" transform="translate(-36.16 61.33) rotate(-7.1)"/><path class="cls-2" d="M683.5,12.43s-193.61,49-284.91,135.25-283.5,127.09-283.5,127.09,25.32,83.09,48.74,105.57,67.84,138.8,67.84,138.8S390.44,485.48,486.24,416,805.31,258.77,805.31,258.77Z"/><path class="cls-9" d="M112.18,262.33s25.31,83.1,48.71,105.58S228.73,506.7,228.73,506.7s158.79-33.65,254.6-103.13,319.06-157.2,319.06-157.2L680.58,0S487,49,395.68,135.25,112.18,262.33,112.18,262.33Z"/><path class="cls-7" d="M112.18,262.33s25.31,83.1,48.71,105.58S228.73,506.7,228.73,506.7s158.79-33.65,254.6-103.13,319.06-157.2,319.06-157.2L680.58,0S487,49,395.68,135.25,112.18,262.33,112.18,262.33Z"/><path class="cls-9" d="M155.89,281.57s17.19,69.77,36.28,87.67,51,115,51,115,140.34-38.18,227.91-103.38S758.37,227.39,758.37,227.39L666.66,23.27S495.07,76.64,410.44,156,155.89,281.57,155.89,281.57Z"/><ellipse class="cls-7" cx="433.7" cy="265.84" rx="37.72" ry="80.9" transform="translate(-71.68 207.93) rotate(-24.97)"/><path class="cls-7" d="M573,293.45V638.82a29.84,29.84,0,0,1-29.83,29.83H29.84A29.86,29.86,0,0,1,0,638.79V258.64c14.71,5.47,14.71,5.47,29.84,5h513.3A29.86,29.86,0,0,1,573,293.45Z"/><path class="cls-1" d="M573,298.46V643.79a29.87,29.87,0,0,1-29.86,29.86H29.84A29.86,29.86,0,0,1,0,643.79V263.64c14.71,5.46,14.71,5.46,29.84,5h513.3A29.86,29.86,0,0,1,573,298.46Z"/><path class="cls-7" d="M572,425.65v110H465.32a55,55,0,0,1,0-110Z"/><path class="cls-8" d="M573,422.63v110H466.32a55,55,0,0,1,0-110Z"/><circle class="cls-7" cx="471.17" cy="480.88" r="21.51"/><circle class="cls-3" cx="472.63" cy="477.96" r="21.51"/><path class="cls-10" d="M758.77,421.82c.85,9.21-6.12,18.15-4.09,27.17.44,1.93,1.27,3.75,1.57,5.7.84,5.36-2.35,10.43-5.4,14.91L724.65,508a23.73,23.73,0,0,1-3.74,4.62c-5,4.46-12.52,4-19.1,5.33a32.71,32.71,0,0,0-12.8,5.66.82.82,0,0,0-.12,1.12,11,11,0,0,0,9.52,4.47c.69.91,0,2.24-1,2.89-1.41,1-3.34,1.24-3.62,3.62a3.94,3.94,0,0,0,.48,2.4,7.46,7.46,0,0,0,4.58,3.19c9.07,2.77,18.87-2.1,25.66-8.73s11.66-15,18.32-21.75c3.69-3.73,7.88-6.93,11.68-10.55,7.58-7.22,13.47-16,19.16-24.79,1.71-2.65,3.43-5.37,4.15-8.44s.38-6.17,1.19-9.14c1.06-3.9,3.91-7,6.28-10.27,4.65-6.4,7.75-14.23,7.14-22.11s-5.5-15.67-12.94-18.35a11.47,11.47,0,0,0-7.25-.44c-3,.94-5.3,3.46-7.38,5.87l-5,5.75a13.64,13.64,0,0,0-2.9,4.4,4.62,4.62,0,0,0,1,4.89"/><path class="cls-11" d="M758.77,421.82c.85,9.21-6.12,18.15-4.09,27.17.44,1.93,1.27,3.75,1.57,5.7.84,5.36-2.35,10.43-5.4,14.91L724.65,508a23.73,23.73,0,0,1-3.74,4.62c-5,4.46-12.52,4-19.1,5.33a32.71,32.71,0,0,0-12.8,5.66.82.82,0,0,0-.12,1.12,11,11,0,0,0,9.52,4.47c.69.91,0,2.24-1,2.89-1.41,1-3.34,1.24-3.62,3.62a3.94,3.94,0,0,0,.48,2.4,7.46,7.46,0,0,0,4.58,3.19c9.07,2.77,18.87-2.1,25.66-8.73s11.66-15,18.32-21.75c3.69-3.73,7.88-6.93,11.68-10.55,7.58-7.22,13.47-16,19.16-24.79,1.71-2.65,3.43-5.37,4.15-8.44s.38-6.17,1.19-9.14c1.06-3.9,3.91-7,6.28-10.27,4.65-6.4,7.75-14.23,7.14-22.11s-5.5-15.67-12.94-18.35a11.47,11.47,0,0,0-7.25-.44c-3,.94-5.3,3.46-7.38,5.87l-5,5.75a13.64,13.64,0,0,0-2.9,4.4,4.62,4.62,0,0,0,1,4.89"/><path class="cls-5" d="M785.89,520.86c-4.33,5.76-8.81,12.41-7.74,19.54.58,3.84,2.73,7.23,4.31,10.78,2.14,4.82,3.26,10,4.36,15.16,1.62,7.54,3.25,15.1,4.24,22.76,1.13,8.65-4.18,33.68-4.67,42.39-.12,2.1-.37,4.37-1.83,5.88-.57.6-1.33,1.08-1.59,1.86a3.24,3.24,0,0,0,.35,2.2c2.44,5.5,7.43,9.6,13,11.94s19,6.38,25.07,6.59a5,5,0,0,0,2.36-.31,4.51,4.51,0,0,0,1.82-2.09c4.35-8.32.17-37.9.23-47.29.06-7.83,1.91-15.61,1.57-23.43-.28-6.28-2-12.42-2.57-18.68-1-10.26.88-20.57,2.77-30.71,1.44-7.78,2.89-15.56,4.74-23.24,1.13-4.69,2.44-9.42,5-13.49,2-3.23,4.81-5.93,7.14-9a40.61,40.61,0,0,0,8-29.74c-.14-1-15,3.77-16.31,4.34a50.94,50.94,0,0,0-14.54,9.35c-3.44,3.28-6.15,7.66-9.16,11.33q-6.39,7.78-12.62,15.69Q792.71,511.72,785.89,520.86Z"/><path class="cls-11" d="M785.89,520.51c-4.33,5.76-8.81,12.42-7.74,19.54.58,3.85,2.73,7.24,4.31,10.79,2.14,4.81,3.26,10,4.36,15.15,1.62,7.55,3.25,15.11,4.24,22.76,1.13,8.66-4.18,33.68-4.67,42.39-.12,2.1-.37,4.38-1.83,5.89-.57.59-1.33,1.07-1.59,1.85a3.24,3.24,0,0,0,.35,2.2c2.44,5.51,7.43,9.6,13,12s19,4.49,25.07,4.69a5,5,0,0,0,2.36-.31,4.49,4.49,0,0,0,1.82-2.08c4.35-8.32.17-36,.23-45.4.06-7.84,1.91-15.61,1.57-23.44-.28-6.28-2-12.42-2.57-18.67-1-10.27.88-20.58,2.77-30.72,1.44-7.77,2.89-15.55,4.74-23.24,1.13-4.69,2.44-9.42,5-13.49,2-3.23,4.81-5.93,7.14-9a40.56,40.56,0,0,0,8-29.74c-.14-1-15,3.77-16.31,4.34a51.19,51.19,0,0,0-14.54,9.36c-3.44,3.27-6.15,7.65-9.16,11.32q-6.39,7.79-12.62,15.7Q792.71,511.36,785.89,520.51Z"/><circle class="cls-10" cx="737.71" cy="369.73" r="24.27"/><path class="cls-10" d="M759.57,368.71a31.44,31.44,0,0,0,20.15,14.06l-1.83,6.65c-3.16,11.42-6.71,23.5-15.53,31.42,1-3.87-.28-8-2.46-11.36s-5.24-6-8.24-8.61l-14-12.1a4.36,4.36,0,0,1-1-1.18,3.6,3.6,0,0,1,0-2.66c1.78-5.54,6.86-9,11-12.74a37.34,37.34,0,0,0,5.53-6.44C756,361.77,757.74,365.77,759.57,368.71Z"/><path class="cls-5" d="M705.74,345.33l-.55-4.56c3.83,1,7.47-2.26,9.92-5.63s4.72-7.34,8.45-8.75c4.53-1.7,9.33,1,13.66,3.28a43.25,43.25,0,0,0,15.67,5.1,10.31,10.31,0,0,1,2.59.42c2.82,1,4.16,4.54,4.57,7.75s.3,6.62,1.69,9.48c1,2.17,2.86,3.78,4,5.92,3,5.74.1,13.59,3.23,19.22l-7.78-7.13c-.71-.65-1.71-1.33-2.5-.78-.62.44-.67,1.39-.92,2.15-.75,2.22-3.53,2.88-5.54,2s-3.48-2.79-5-4.53c-3.44-4.06-7.54-7.63-12.34-9.36a15.84,15.84,0,0,0-13,.86c-3.63,2.05-6.29,6.83-10.74,7-6.1.23-8.64-11.13-11.46-15.62a5.49,5.49,0,0,0,1.6-6.88C701.7,345.1,705.65,344.63,705.74,345.33Z"/><path class="cls-6" d="M405.55,203.44a47.28,47.28,0,0,0-5.39,5.66,11.4,11.4,0,0,0-2.48,7.27,3.77,3.77,0,0,0,.7,2.13,1.81,1.81,0,0,0,2,.61,2.58,2.58,0,0,0,1-.88q1.59-1.9,3.36-3.64c.43-.43,1-.88,1.58-.72a1.66,1.66,0,0,1,.68.45,4.51,4.51,0,0,1,1.41,2.2c.35,1.53-.54,3.06-1.55,4.26s-2.2,2.35-2.61,3.86a1.76,1.76,0,0,0,0,1.24,1.91,1.91,0,0,0,.78.66,11.16,11.16,0,0,0,9.44.62c2-.81,3.78-2.2,5.84-2.92a13,13,0,0,0,2.58-1,5.34,5.34,0,0,0,2.29-3.43,14.16,14.16,0,0,0,.15-4.21,48.15,48.15,0,0,0-3.44-15.83,1.88,1.88,0,0,0-.58-.84,1.83,1.83,0,0,0-1-.27c-2.56-.27-6.76-1.58-9.23-.63A6.64,6.64,0,0,0,408.9,200C408.44,200.48,405.55,202.77,405.55,203.44Z"/><path class="cls-5" d="M404.74,201.18c0-2.44-3-8.33,1.77-8.72,0-2.61-3.69-4.23-3-7,.22-.92,1-1.67,1.09-2.61.3-2.67-4.52-4.12-3.72-6.68.3-1,1.36-1.58,1.59-2.57.54-2.31-3.59-3.34-3.67-5.71,0-.8.45-1.55.41-2.35,0-1-.87-1.76-1.35-2.63-1.25-2.23-.64-5.68-2.92-6.83,1.51.13,2-2.11,1.38-3.48s-1.89-2.56-1.9-4.08a5.77,5.77,0,0,0,0-1.66c-.42-1.46-2.81-1.58-3.21-3a15,15,0,0,1,0-1.64c-.16-1.13-1.32-1.85-2.41-2.17a9.78,9.78,0,0,1-3.22-1.15c-.7-.53-1.51-1.41-2.26-1-.28.17-.42.49-.63.73-.9,1.05-2.62.59-3.75-.18-3.34-2.27-5-6.34-5.71-10.31s-.69-8.07-1.58-12a25.25,25.25,0,0,0-1.08-3.6c-.38-1-1.6-2.57-1.68-3.58-.18-2.3,4.58-.73,6.39-.5a28.5,28.5,0,0,1,5.19,1,53.37,53.37,0,0,1,5.31,2.33c7.22,3.19,15.94,3.58,21.74,8.94,1.91,1.76,3.52,4.07,6,4.87a27.61,27.61,0,0,1,3.36.87c2.75,1.29,3.18,4.94,4.68,7.58a13.57,13.57,0,0,1,1.23,2.2,8.29,8.29,0,0,1,.4,2.8l.21,6.93c.34,11.61.68,23.25-.56,34.79-.4,3.81-1,7.73.13,11.39.3,1,.72,1.94,1,3a17.4,17.4,0,0,1,.38,3.6l.16,4.49a1.36,1.36,0,0,1-.22,1,1.45,1.45,0,0,1-1.21.29c-6.25-.56-12.57-4.08-18.47-2"/><ellipse class="cls-1" cx="689.96" cy="535.49" rx="73.96" ry="10.69"/><path class="cls-12" d="M753.43,535.24c-1.27-5.45-2.06-10.23-2.06-10.23s.29-5.92-2.37-10.37v-1.22h0v-11.2a38.32,38.32,0,0,1,2.94-5.87c2.09-3.52,0-16.42,0-16.42s-7.77-18.19-5.88-29.73-16-51.24-16-51.24a48.94,48.94,0,0,1,1.67-11.34,8.3,8.3,0,0,0,.23-2.38V385c.46-7.61-5.56-21.87-5.56-21.87l.81-27.18s3.84-16-2.42-37.55c-2.19-7.51-3.59-13.52-4.48-18.16-.1-.52-.2-1-.28-1.51,12.89-2,22.74-3.6,22.74-3.6s-7.48-31.29-12.53-36.77-9.09-22.69-9.09-22.69-2.63-22.09,1.62-28.55,4.85-17.6,4.85-17.6,9.69-7,10.91-10.17,3.23-10.17,3.23-13.88-1.21-7-.81-9-2.83-9.39-1.21-12.91a9.36,9.36,0,0,0,.64-3.39.17.17,0,0,0,0-.1h0a47.17,47.17,0,0,0-.85-9.18,25.88,25.88,0,0,0-9.6-5.13l-.21-.84-.55-2.2a10.26,10.26,0,0,0-1.21-.56v-.8l-.09-3.18,1.52-7.13c3-12.4-13.57-14.25-13.57-14.25a8.79,8.79,0,0,0-4.7-4.12c-3.32-1.16-.55,18.66,1,20,1.17,1,4.78,7.17,6.53,10.23h0l.28.5a6.41,6.41,0,0,0-.76.8l.63,4.3.1.66a17.88,17.88,0,0,0-2.65,4.5s3,3.32,2.43,7,.93,8.34,1,8.59c-.18-.21-2.31-2.5-4.43-1.94s-8.07,2.34-8.07,2.34-4.44.78-4,1.76-3,5.27-3,5.27L688.3,125.4c-.12-.34-.25-.68-.35-1a27.4,27.4,0,0,1-1-5,28.25,28.25,0,0,0,3.82-1.21,8.23,8.23,0,0,0,3.29-2.12c1.21-1.43,1.44-3.37,1.93-5.14.94-3.48,3-6.57,4.42-9.87a32.09,32.09,0,0,0,2.25-17.76,11.53,11.53,0,0,0-1.83-5.19c-1.94-2.68-5.48-3.77-8.05-5.91s-4.22-5.4-7.22-7c-2.7-1.44-6-1.27-9-.78a48.91,48.91,0,0,0-16.9,6.16c-1.74,1-3.66,2.22-5.66,1.85-1.72-.3-3-1.67-4.07-3a.75.75,0,0,1,0-.16,1,1,0,0,1-.13-.16,21,21,0,0,0-1.86,8.93A11,11,0,0,0,648,79.5v.79h0a2.23,2.23,0,0,1-.09.63,4.58,4.58,0,0,1-1.12,1.62,10.83,10.83,0,0,0-1,1.33,1.65,1.65,0,0,1,.16-.49,7.21,7.21,0,0,0-1.24,3.78,3.86,3.86,0,0,0,.9,2.71,13.49,13.49,0,0,0,2,1.57,22.4,22.4,0,0,0-.36,4,23.18,23.18,0,0,0,11.29,19.77h0c1.72,4.21,3.12,9.36,2.57,14a6.41,6.41,0,0,1-.14,1c0,.31-.3.33-.43.5h0s-19.79.2-24.45-4S624.3,137,624.3,137s-7.1,1.37-8.52,0-9.72-.19-9.72-.19a17.87,17.87,0,0,0-12.37-4.52,36.1,36.1,0,0,0-9-5h0l-.22-.08h0a10.1,10.1,0,0,0-4.46-.57s-9.73-8-12.57-12.35S551.06,93.94,551,93.87V93l-.15-2.32a9.87,9.87,0,0,1-1.21.1c-.07-.23-.17-.5-.27-.81a45.3,45.3,0,0,0-2.87-6.59s0-2.93.85-3.67S547,68.21,547,68.21,538.25,47.74,530.4,63c0,0-14.82,9.89-2.38,21.41,0,0,5,2.4,5.67,4.3.46,1.24,2.14,4.69,3.28,7l.51,1-.14.12.18,1.92.08.74c-2.35,1.33-3.94,2.66-3.55,3.65a22,22,0,0,1,1.41,5.29S552.67,130,554.9,139.23c0,0,46.15,27.43,61.32,29.38l-2.68,13.68a109.68,109.68,0,0,0-.6,11.17c.2,2.93-1.82,16.25-1.82,16.25s-2.64,19.6-4.86,22.34-1.83,14.5-1.83,14.5a99.22,99.22,0,0,1-3,16.65c-2.23,7.44-.61,16.66-.61,16.66s-7.69,17.63,10.73,5.68c0,0,9-.56,19.45-.92v.8c0,1.34,0,2.79-.07,4.31-.15,10.08-.21,24,.27,34.48.85,18.58,6.8,55.35,6.8,55.35v18.92a25.77,25.77,0,0,0-.54,5.25,34.13,34.13,0,0,0,5,18.39l1.41,12.25s3.3,8.08,3.36,12.93a6.67,6.67,0,0,1-.14,1.17,7.88,7.88,0,0,0-.16,1.88c-.19,5.57,3.16,18.89,3.16,18.89s.2,13.42,2.21,14.2c1.72.67-2.3,7.73-3.49,9.76,0-.12,0-.25-.07-.38l-.25.4a9.65,9.65,0,0,0-.62,3.4,4.86,4.86,0,0,0,2.22,4.72c3.82,2.33,5.87,4.27,2.63,5.05a32.71,32.71,0,0,0-3.54.74c0-.15-.12-.3-.17-.44a2.11,2.11,0,0,0-1.32,2.34,9.91,9.91,0,0,0,1.18,4.52c3.21,7.2,5.44,9.94,5.44,9.94l1.54-.16a8.3,8.3,0,0,1-.89,1.66,6.58,6.58,0,0,1-2.27,2,7.08,7.08,0,0,1-2.76.94,7.75,7.75,0,0,0-5.68,2.76c-2,2.6-3.27,6.13.69,9.23l14.37,5s24.73,3.21,23.41-2.34-2.1-10.4-2.1-10.4a22.08,22.08,0,0,0-2-9.84,11.91,11.91,0,0,0-.88-1.45l.88-.09s1.81-12.26,4.21-14.59c.56-.54.69-1,.56-1.27.25-.67-.39-1.06-1.19-1.29l-.18.49a12.09,12.09,0,0,0-2.4-.27s-.8-6.41,1.81-8.75a2.48,2.48,0,0,0,.51-1.91,10.39,10.39,0,0,0-.28-2.61l-.09.15c-1.31-5.82-5.77-15.08-5.77-15.08s-.2-5.83,1.41-8.17-.2-31.7-.2-31.7.6-14.2-1.21-20.81,2.21-14.4,2.21-14.4v-.49l-.23-2.28a.33.33,0,0,0,0,.14c-.42-3.85-1.2-10.81-1.78-14-.83-4.57.21-26.44.21-26.44l3.69-9.36,6.58,16.12,7,21.48s3.46,4.54,3.54,9.16V395a11.27,11.27,0,0,0-.08,1.42A12.62,12.62,0,0,0,699,404s1.83,10.06,4.68,12.58,2.84,7.48,2.84,7.48,3.45,14.56,5,17.09c1.37,2.15,1.44,8.05,1.43,9.89v.36c-.21,0,1,9.52,1,9.52v2.33a14.71,14.71,0,0,1-.41,3.44l-.06.2a2.48,2.48,0,0,1,.07-.72,35.72,35.72,0,0,0-1,8.8c-.09,5.08.69,11.1,3.76,14.66,5.34,6.12,8.69,5.36,8.69,5.36s-2.56,7.64-5.72,9.17a1.52,1.52,0,0,0-.34.22,3.25,3.25,0,0,0-.07-.45,3.71,3.71,0,0,0-1,2.85c-.23,3.37,1.89,8.8,3.91,11.33a6.46,6.46,0,0,0,2.67,1.57,5.09,5.09,0,0,1-.5.3c-.35.19-.72.36-1.09.52a5.54,5.54,0,0,1-1.61.42,7.51,7.51,0,0,0-5.59,2.71c-2,2.55-3.21,6,.68,9.06l14.13,4.89S754.7,540.68,753.43,535.24Z"/><path class="cls-13" d="M658.68,545.25l-14-5c-3.86-3.12-2.63-6.67-.68-9.28a7.49,7.49,0,0,1,5.54-2.78,6.54,6.54,0,0,0,2.67-1,6.36,6.36,0,0,0,2.22-2,10.17,10.17,0,0,0,1.59-5.41s15.36-4.5,19.56,0a11.08,11.08,0,0,1,1.86,2.73,22.79,22.79,0,0,1,2,9.89s.78,4.88,2,10.46S658.68,545.25,658.68,545.25Z"/><path class="cls-13" d="M727.12,538.35l-14-5c-3.86-3.12-2.63-6.67-.68-9.27A7.39,7.39,0,0,1,718,521.3a5.12,5.12,0,0,0,1.6-.43,10.8,10.8,0,0,0,1.08-.53c3.91-2.15,3.81-7.43,3.81-7.43s15.35-4.5,19.56,0a10.62,10.62,0,0,1,1.47,2c2.63,4.55,2.34,10.62,2.34,10.62s.78,4.89,2,10.46S727.12,538.35,727.12,538.35Z"/><path class="cls-7" d="M675.59,519.82a11.08,11.08,0,0,1,1.86,2.73h0l-23,2.67a10.17,10.17,0,0,0,1.59-5.41S671.39,515.32,675.59,519.82Z"/><path class="cls-7" d="M746,514.93v4.31c-3.58,5.89-20.89,4.6-25.92,1.65a10.8,10.8,0,0,0,1.08-.53c3.91-2.15,3.81-7.43,3.81-7.43s15.35-4.5,19.56,0A11.08,11.08,0,0,1,746,514.93Z"/><path class="cls-5" d="M748.74,496.76a40.35,40.35,0,0,0-2.74,5.89v15.52c-3.94,6.47-24.35,4.32-27.11.78s-5.64-12.73-2.54-14.33,5.69-9.43,5.69-9.43-3.34.79-8.64-5.5-3.73-20.22-2.74-23.55,0-14.53,0-14.53.2-7.87-1.37-10.42-4.91-17.07-4.91-17.07,0-4.91-2.75-7.46-4.52-12.57-4.52-12.57a12.87,12.87,0,0,1-2-8.44c.59-4.91-3.34-10.21-3.34-10.21l-6.68-21.22-6.28-15.9-3.54,9.22s-1,21.6-.19,26.11,2,16.5,2,16.5S673.2,408,675,414.68s1.13,21,1.13,21,1.76,29.64.19,32-1.38,8.26-1.38,8.26,8,17.27,5.5,19.63-1.76,8.83-1.76,8.83,5.49,0,3.14,2.36-4.13,14.73-4.13,14.73l-23.75,2.78s-2.16-2.74-5.31-10,.59-6.47,3.75-7.27,1.16-2.74-2.57-5.1-1.57-7.66-1.57-7.66,5.69-9.62,3.73-10.4-2.16-14.34-2.16-14.34-3.93-16.07-2.94-20.42-3.15-14.72-3.15-14.72L642.32,422A34,34,0,0,1,638,398.59V379.51s-5.5-36.91-6.29-55.56c-.5-11.95-.36-28.26-.2-38.43.1-5.7.2-9.49.2-9.49l84.83-8.83s-.08,3.91,1.54,12.6c.87,4.66,2.23,10.69,4.35,18.23,6.09,21.6,2.36,37.69,2.36,37.69L724,363s7.46,18.25,5.89,24.54a52.81,52.81,0,0,0-1.58,11.4s16.69,39.86,14.92,51.45,5.49,29.85,5.49,29.85S750.71,493.23,748.74,496.76Z"/><path class="cls-11" d="M699.94,394.47,725.66,391S711.09,405.91,699.94,394.47Z"/><path class="cls-7" d="M721.94,365.91s.88,9.1-4.69,12.52C717.25,378.43,727.22,376.87,721.94,365.91Z"/><path class="cls-7" d="M720.36,337s-21.5,17.7-29.32,16.23S720.36,337,720.36,337Z"/><path class="cls-7" d="M668.06,402.77s-16.33,3.71-16.82,10.27S668.06,402.77,668.06,402.77Z"/><path class="cls-11" d="M671.65,484.33s-23.07,4.3-16.52,7.23,17.31,5.28,17.31,5.28S679.89,497.23,671.65,484.33Z"/><g class="cls-14"><path d="M650.47,496.22a4.56,4.56,0,0,1-2.11-3.34l-.24.41s-2.15,5.28,1.57,7.62c.42.27.83.54,1.2.8.69-.13,1.43-.23,2.14-.41C656.18,500.52,654.19,498.57,650.47,496.22Z"/><path d="M680.19,494.65c.64-.58.62-2.08.23-4a11.24,11.24,0,0,0-1.31,5.66A5,5,0,0,1,680.19,494.65Z"/><path d="M676.64,397.36a26.79,26.79,0,0,0-1.56,7.19,29.73,29.73,0,0,1,1.79-4.94Z"/><path d="M729.48,387.1a8.54,8.54,0,0,0,.21-2.14c-.29,1.46-.49,2.81-.64,4C729.18,388.35,729.32,387.77,729.48,387.1Z"/><path d="M676.09,466.89c.32-.48.5-2.1.58-4.35a15,15,0,0,0-1.13,5.49A6,6,0,0,1,676.09,466.89Z"/><path d="M680.89,503.77a78.23,78.23,0,0,0-2.69,12l-23.65,2.73s-2.16-2.73-5.29-10c-.25-.56-.47-1.14-.67-1.72-1.42.65-2,2.12-.12,6.41,3.13,7.24,5.3,10,5.3,10l23.65-2.74s1.76-12.32,4.1-14.67C682.72,504.65,682,504.06,680.89,503.77Z"/><path d="M649.69,468.65s.19,13.49,2.15,14.27h0c1-2.23,1.65-4.35.77-4.7-2-.78-2.15-14.28-2.15-14.28s-3.91-16-2.93-20.34-3.13-14.66-3.13-14.66L643,416.62a32.39,32.39,0,0,1-4-23.28v-19c-.27,0-5.75-36.76-6.53-55.34-.5-11.9-.36-28.14-.2-38.27,0-1.83.06-3.45.09-4.82l-.67.07s-.11,3.76-.2,9.45c-.16,10.13-.31,26.37.2,38.26.78,18.58,6.25,55.35,6.31,55.35v19a33.61,33.61,0,0,0,4.25,23.27l1.36,12.32s4.11,10.36,3.13,14.67S649.69,468.65,649.69,468.65Z"/><path d="M719.75,513.23a22.88,22.88,0,0,1-3.75-9.29c-2.41,2.18.36,10.64,3,14,2.73,3.52,23.07,5.67,27-.79v-3.72C740.67,518.66,722.33,516.56,719.75,513.23Z"/><path d="M748.74,491.13A39.65,39.65,0,0,0,746,497v2.77a41,41,0,0,1,2-3.92,12,12,0,0,0,.86-4.85Z"/><path d="M720.51,494.22a37.66,37.66,0,0,0,1.93-4.65s-3.33.78-8.61-5.48c-3.84-4.55-4.06-13.15-3.51-18.77-1,3.33-2.55,17.21,2.73,23.47C716.5,492.88,719.11,494,720.51,494.22Z"/><path d="M710.31,450.85a101.86,101.86,0,0,1,.39,11.59c.1-.61.24-1.21.4-1.81,1-3.33,0-14.47,0-14.47s.2-7.83-1.37-10.37-4.84-17-4.84-17,0-4.89-2.74-7.43-4.5-12.52-4.5-12.52a12.93,12.93,0,0,1-2-8.41c.59-4.89-3.32-10.17-3.32-10.17l-6.65-21.12-6.26-15.84-3.53,9.2s0,1.16-.12,3l2.86-7.47,6.26,15.81,6.65,21.12s3.91,5.28,3.32,10.17a12.93,12.93,0,0,0,2,8.41s1.76,10,4.5,12.52,2.73,7.43,2.73,7.43,3.33,14.47,4.89,17S710.31,450.85,710.31,450.85Z"/></g><path class="cls-15" d="M726.73,91.05l-1.47,7.14.09,3.18.06,2.34-8.16.84-.91-1.69h0c-1.69-3.06-5.2-9.28-6.33-10.24-1.51-1.26-4.2-21.12-1-19.94a8.54,8.54,0,0,1,4.54,4.11S729.62,78.63,726.73,91.05Z"/><path class="cls-7" d="M725.41,103.71l-8.16.84-.91-1.69h0a7.18,7.18,0,0,1,9-1.48Z"/><path class="cls-3" d="M727.47,107.58l-10.76,2.49-.23-1.6-.61-4.31s4.26-5.68,10.42-1.42l.54,2.19Z"/><path class="cls-15" d="M553.17,91.83,541.68,98l-1-2.16c-1.09-2.29-2.72-5.74-3.17-7-.68-1.9-5.47-4.3-5.47-4.3-12-11.49,2.3-21.37,2.3-21.37,7.58-15.25,16,5.18,16,5.18s1.18,10.77.35,11.49-.83,3.67-.83,3.67a43.52,43.52,0,0,1,2.77,6.57C553,91.16,553.17,91.83,553.17,91.83Z"/><path class="cls-7" d="M553.17,91.83,541.68,98l-1-2.16c1.62-1.36,7.37-6,9.26-5.81a13.77,13.77,0,0,0,2.72.07C553,91.16,553.17,91.83,553.17,91.83Z"/><path class="cls-3" d="M554.34,95.3l-12.91,6.36-.26-2.77L541,97s7.48-6.41,9.69-6.16a11.89,11.89,0,0,0,3.37,0l.15,2.32Z"/><path class="cls-15" d="M695.44,138.48s-56.28,6.35-45.76,2.93c7.32-2.39,10.23-7,10.84-12.2.5-4.33-.62-9-2.09-13a55.8,55.8,0,0,0-5-10.17s43-23.66,34.41-2.15a35,35,0,0,0-2.44,10.19,29,29,0,0,0,1.11,10.32A30.83,30.83,0,0,0,695.44,138.48Z"/><path class="cls-7" d="M687.81,103.86a35,35,0,0,0-2.44,10.19c-4,3.41-8.49,3.18-14.2,3.18-4.38,0-9.24,1.06-12.74-1a55.8,55.8,0,0,0-5-10.17S696.42,82.35,687.81,103.86Z"/><circle class="cls-15" cx="670.41" cy="95.46" r="23.27"/><path class="cls-7" d="M695.44,138.48s-56.28,6.35-45.76,2.93c7.32-2.39,10.23-7,10.84-12.2,2.8-3,8.43-5.23,12-6.39a16.83,16.83,0,0,1,10.2-.17,14.25,14.25,0,0,1,3.71,1.72A30.73,30.73,0,0,0,695.44,138.48Z"/><path class="cls-7" d="M727.47,107.58l-10.76,2.49-.23-1.6a9.52,9.52,0,0,1,10.35-3.54Z"/><path class="cls-7" d="M554.34,95.3l-12.91,6.36-.26-2.77a94.2,94.2,0,0,1,13-5.77Z"/><path class="cls-7" d="M717.7,280.29c-21.81,3.48-52.81,7.92-57.73,6.42-4.09-1.24-17.13-1.11-28.48-.72.1-5.68.2-9.45.2-9.45l84.48-8.8S716.09,271.64,717.7,280.29Z"/><path class="cls-16" d="M739.44,275.17s-71.77,12.32-79.47,10-47.25.19-47.25.19c-17.8,11.93-10.37-5.67-10.37-5.67s-1.56-9.19.59-16.62a100,100,0,0,0,2.95-16.64s-.39-11.74,1.76-14.48,4.7-22.29,4.7-22.29,1.95-13.3,1.76-16.23.58-11.15.58-11.15l2.55-13.69c-14.67-2-59.26-29.33-59.26-29.33-2.15-9.19-18.77-30.7-18.77-30.7a22.43,22.43,0,0,0-1.37-5.28c-1.17-3.13,16.43-9.39,16.43-9.39s13.1,16,15.84,20.34,12.12,12.32,12.12,12.32a9.4,9.4,0,0,1,4.3.56l.23.07h0a34.52,34.52,0,0,1,8.75,5,17,17,0,0,1,11.93,4.5s8-1.18,9.39.19,8.21,0,8.21,0,6.84-14.47,11.34-10.27,23.59,4,23.59,4c2.54-3.38,8.73-5.8,12.6-7a16.91,16.91,0,0,1,10.2-.17,13,13,0,0,1,4,2l11.61,11.34s3.32-4.31,2.93-5.28,3.91-1.76,3.91-1.76,5.67-1.76,7.82-2.35,4.12,1.74,4.3,2c-.07-.25-1.54-5-1-8.6s-2.35-7-2.35-7c6.84-16.82,22.29-2.74,22.29-2.74s1.76,9.19.2,12.71,1.56,11,1.17,12.91.79,5.28.79,9-2,10.75-3.13,13.88-10.56,10.17-10.56,10.17-.59,11.15-4.7,17.6-1.53,28.51-1.53,28.51,3.91,17.21,8.8,22.69S739.44,275.17,739.44,275.17Z"/><path class="cls-7" d="M634.82,146.49s-2.15-6.45-4.11-7A45.64,45.64,0,0,1,625,137l1.26-2.41s7.34,2,8.52,4.17S634.82,146.49,634.82,146.49Z"/><path class="cls-7" d="M595.51,132.22c-.39,2-17.8,3.71-17.8,3.71l8.8-8.82h0l.22.08h0A34.8,34.8,0,0,1,595.51,132.22Z"/><circle class="cls-17" cx="545.15" cy="105.38" r="1.56"/><circle class="cls-17" cx="547.15" cy="108.51" r="1.56"/><circle class="cls-17" cx="549.11" cy="111.4" r="1.56"/><circle class="cls-17" cx="551.16" cy="114.52" r="1.56"/><circle class="cls-17" cx="735.5" cy="114.35" r="1.27"/><circle class="cls-17" cx="735.7" cy="117.24" r="1.27"/><circle class="cls-17" cx="735.87" cy="120.12" r="1.27"/><path class="cls-7" d="M634.89,199.49c-.19-.23,43.9,55.44,78.12,23.27C713,222.77,659,230.1,634.89,199.49Z"/><path class="cls-7" d="M610,228.47s26.25.72,29,8.27v7.86a5,5,0,0,1-4.89,0c-2.64-1.43-18.52-9.49-24.11-5.61Z"/><path class="cls-16" d="M610,228.39s25.35.7,28,8v7.55a4.84,4.84,0,0,1-4.72,0c-2.55-1.36-17.87-9.13-23.28-5.39Z"/><path class="cls-7" d="M624,171.15a85.08,85.08,0,0,0,10.23,17.55,68.91,68.91,0,0,0,16,15.47S624.43,174.77,624,171.15Z"/><path class="cls-7" d="M615.36,140.5s4.4,19,15.74,25.45Z"/><path class="cls-7" d="M608.61,142.42c-.11-.35-3.91,15,14.62,23.53C623.23,166,615.36,163.28,608.61,142.42Z"/><path class="cls-7" d="M723.8,129.68c-.29,0,9.14,6,11.71,8.8C735.51,138.48,729.37,129.28,723.8,129.68Z"/><path class="cls-13" d="M664.12,116.55a3.67,3.67,0,0,0,3.7,3.64h.3c7.09.44,14.48.75,21-2a7.89,7.89,0,0,0,3.2-2.12c1.16-1.43,1.39-3.37,1.86-5.15.92-3.48,2.88-6.57,4.29-9.88a33,33,0,0,0,2.31-17.75A11.91,11.91,0,0,0,699,78.09c-1.88-2.69-5.31-3.78-7.8-5.92s-4.09-5.41-7-7c-2.62-1.46-5.83-1.28-8.78-.78A46.16,46.16,0,0,0,659,70.54c-1.69,1-3.54,2.23-5.48,1.86-1.7-.32-2.94-1.75-4-3.09a21.78,21.78,0,0,0-1.67,10.15,4.14,4.14,0,0,1,0,1.53,4.42,4.42,0,0,1-1.09,1.61c-1.75,2-2.84,5.25-1.11,7.31.75.89,1.91,1.38,2.64,2.29,1.31,1.63.87,4,.84,6.08a3.19,3.19,0,0,0,.52,2.06,3,3,0,0,0,2.87.69,7.76,7.76,0,0,1,3.06-.29,5.11,5.11,0,0,1,2.66,2C661.46,107,662.74,111.53,664.12,116.55Z"/><g class="cls-18"><path d="M693.15,114.29a7.89,7.89,0,0,1-3.2,2.12c-6.56,2.73-13.94,2.42-21,2a4.93,4.93,0,0,1-2.19-.49c-1.08-.63-1.49-2-1.82-3.15-1.38-5-2.65-9.59-5.93-13.76A5.13,5.13,0,0,0,656.35,99a8.14,8.14,0,0,0-3.06.29,3,3,0,0,1-2.87-.68,3.19,3.19,0,0,1-.52-2.06c0-2.1.47-4.45-.84-6.08-.73-.91-1.89-1.4-2.64-2.3a4.57,4.57,0,0,1-.45-4.66c-1.25,2-1.78,4.51-.33,6.23.75.89,1.91,1.38,2.64,2.29,1.31,1.64.87,4,.84,6.08a3.19,3.19,0,0,0,.51,2.06,3,3,0,0,0,2.88.69,7.76,7.76,0,0,1,3.06-.29,5.11,5.11,0,0,1,2.66,2c3.27,4.17,4.55,8.75,5.93,13.77a5,5,0,0,0,1.73,3.17,4.93,4.93,0,0,0,2.2.48c7.09.44,14.48.76,21-2a7.79,7.79,0,0,0,3.2-2.12,5.88,5.88,0,0,0,1-1.88A.49.49,0,0,1,693.15,114.29Z"/><path d="M647.89,80.38a3.24,3.24,0,0,0,.71-1.18,4.37,4.37,0,0,0,0-1.53,21.88,21.88,0,0,1,1.09-8.42l-.13-.15a21.62,21.62,0,0,0-1.67,10.14A7.23,7.23,0,0,1,647.89,80.38Z"/></g><path class="cls-7" d="M660,130.65s29.07,3.86,31.68-.51"/><path class="cls-7" d="M716.48,118.62s16.16,0,19.71,6.08"/><path class="cls-5" d="M817.47,476.51c.94,4.47,5.27,7.89,5.39,12.45.11,3.66-2.5,6.73-4.38,9.86A66.64,66.64,0,0,0,814,508.94,154.73,154.73,0,0,1,800.89,535c-2.5,4-5.3,8.27-4.73,12.92a19.58,19.58,0,0,0,2.27,6.18l7.5,14.9a42.55,42.55,0,0,1,3.83,9.41c.65,2.83.71,5.76,1.09,8.64,1.18,9.14,5.47,18.34,2.93,27.2-.22.76-1,1.68-1.61,1.15,2.48,4.63,4.47,9.29,4.28,14.54-.1,2.75-.94,5.62.07,8.18.43,1.07,1.18,2.07,1.17,3.22a20.53,20.53,0,0,1-.43,2.21c-.21,2.11,1.73,3.87,3.74,4.54s4.2.62,6.23,1.23c3.9,1.17,6.69,4.53,10,6.86A21.32,21.32,0,0,0,848.75,660a2.94,2.94,0,0,0,1.7-.34,2.72,2.72,0,0,0,.94-2.06,11.42,11.42,0,0,0-4.12-9.94,4.6,4.6,0,0,1-1.53-1.6,4,4,0,0,1-.14-1.79,133.89,133.89,0,0,0-.44-24.6,38,38,0,0,1-.39-7.83c.21-2.18.87-4.34.63-6.51s-1.35-4.15-2-6.24c-1.16-3.72-.84-7.72-1-11.61-.2-6.76-1.75-13.4-3.29-20-.61-2.59-1.28-5.3-3.11-7.22-1.56-1.63-4.08-3.19-3.49-5.36a6.55,6.55,0,0,1,1.43-2.13,8.51,8.51,0,0,0,1.78-6.52,2.93,2.93,0,0,0,3.37-1.58c12.18-5.75,22-17.25,26.38-30a10,10,0,0,1,1.18-2.68c1.13-1.58,3.09-2.26,4.83-3.13,5.46-2.75,9.23-7.9,12.69-12.94,2-2.92,4-5.94,4.9-9.38a30.2,30.2,0,0,0,.67-6.77l.31-11.75a6.18,6.18,0,0,0-.22-2.3,5.5,5.5,0,0,0-1.27-1.86,22.56,22.56,0,0,0-12.46-6.72c-3.2-.57-6.47-.46-9.71-.73-6.28-.52-12.48-2.47-18.76-2-9.87.73-18.66,7.57-23.31,16.31C822.69,473.77,821,476.45,817.47,476.51Z"/><path class="cls-3" d="M762.67,400.11a13,13,0,0,1-.72,5.35c-.77,1.64-2.7,2.92-4.39,2.25.51-1.15-.84-2.46-2.1-2.32a4,4,0,0,0-2.77,2.38,8.93,8.93,0,0,0-.8,5.43c.4,2.3,1.73,4.51,1.38,6.82-.28,1.92-1.69,3.83-.94,5.61a9.21,9.21,0,0,0,1.81,2.17,6.11,6.11,0,0,1-.65,8.4l18.92.38c-.69,3.16.73,6.39,2.35,9.2A58,58,0,0,0,818,474a3.77,3.77,0,0,0-1.35,5.14,4.51,4.51,0,0,0,.44.61c1.54,1.53,4.15,1.34,6.08.35s3.44-2.63,5.2-3.9a16,16,0,0,1,10.69-2.88c2.37.23,4.67,1,7.05,1.12,7,.37,13-4.67,19.74-6.73,4.91-1.51,10.48-1.51,14.6-4.58,1.78-1.32,3.24-3.49,2.72-5.63a9.36,9.36,0,0,0-2-3.31c-2.37-3.07-3.77-6.76-5.47-10.25A61.14,61.14,0,0,0,862,425.63a121.09,121.09,0,0,0-13.56-10.28,22.25,22.25,0,0,0-3.66-2.21c-1.66-.73-3.5-1.08-5-2-2.22-1.4-3.5-3.87-5.21-5.86-3.75-4.38-9.51-6.39-14.13-9.83-3.1-2.31-5.84-5.35-9.54-6.46-1.8-.55-3.71-.59-5.51-1.13-4.09-1.24-7.07-4.87-11.08-6.34-3.17-1.16-6.67-.86-10-1.27a23.4,23.4,0,0,1-10.45-4,12.21,12.21,0,0,0-3.33-1.94c-5.07-1.54-5.48,7.9-6,11.17C763.89,390.36,762.67,395.19,762.67,400.11Z"/><path class="cls-10" d="M767.61,431.77c.85,9.22-6.11,18.15-4.08,27.18.43,1.92,1.26,3.75,1.56,5.7.85,5.35-2.35,10.42-5.4,14.9L733.49,518a23.73,23.73,0,0,1-3.74,4.62c-5,4.45-12.52,4-19.1,5.32a33.07,33.07,0,0,0-12.8,5.66.85.85,0,0,0-.16,1.15,11,11,0,0,0,9.51,4.47c.69.9,0,2.24-1,2.89-1.4,1-3.34,1.23-3.62,3.62a4.09,4.09,0,0,0,.48,2.4,7.48,7.48,0,0,0,4.58,3.18c9.07,2.78,18.87-2.1,25.66-8.73s11.66-15,18.32-21.74c3.69-3.74,7.88-6.93,11.68-10.55,7.58-7.23,13.48-16,19.16-24.79,1.71-2.65,3.44-5.37,4.15-8.44s.38-6.18,1.19-9.15c1.06-3.89,3.91-7,6.28-10.26,4.65-6.4,7.76-14.23,7.14-22.12s-5.5-15.67-12.94-18.35a11.61,11.61,0,0,0-7.25-.44c-3.05.94-5.3,3.46-7.38,5.88l-5,5.74a13.54,13.54,0,0,0-2.81,4.41,4.64,4.64,0,0,0,1,4.9"/><path class="cls-3" d="M780.89,394c-3.44.2-7.23.54-9.66,3a14,14,0,0,0-2.44,3.82c-2.36,4.81-4.66,9.84-4.83,15.2-.14,4.28,1.1,8.47,1.75,12.7.54,3.52-.83,7.11-1.09,10.67,4.27-1.31,9.91-3.09,13.78-5.3,2.64-1.51,5.19-3.23,8.07-4.19,4.11-1.37,11,1,14.91,2.9.21-2.74-1.85-7.52-1.63-10.27a11.58,11.58,0,0,1,.61-3.4,21.16,21.16,0,0,1,2.07-3.29A13.44,13.44,0,0,0,801.22,400c-3.47-3.9-8.9-5.36-14.08-6a60.9,60.9,0,0,0-9.83-.34"/></g></g></svg>