<svg xmlns="http://www.w3.org/2000/svg" viewBox="0 0 20.88 27.59"><defs><style>.cls-1{fill:#a9a9a9;}</style></defs><title>Checkout</title><g id="Layer_2" data-name="Layer 2"><g id="Layer_1-2" data-name="Layer 1"><g id="c32_sack" data-name="c32 sack"><path class="cls-1" d="M17.78,5.94a5.44,5.44,0,0,0-.25-.9h1.7l.68.6h.85L19.49,4.58H17.31a5.51,5.51,0,0,0-4.19-3.06A5.21,5.21,0,0,0,9.48,0,5.67,5.67,0,0,0,4.15,4.5l-3.87,0L.79,5H5.55L5.49,5a4.24,4.24,0,0,1,4-3.38,3.8,3.8,0,0,1,1.12.18A5.54,5.54,0,0,0,6.93,5.94H1.62V27.59H20.88V5.94ZM15.69,4.58h-.86a5.77,5.77,0,0,0-.39-1.15A4.3,4.3,0,0,1,15.69,4.58ZM8.38,5.94a4.12,4.12,0,0,1,4-3.08A3.29,3.29,0,0,1,13.48,5L16,5a3.78,3.78,0,0,1,.37.91Z"/><polygon class="cls-1" points="0 26.33 1.13 27.36 1.13 5.71 0 4.68 0 26.33"/></g></g></g></svg>