<svg xmlns="http://www.w3.org/2000/svg" viewBox="0 0 1245.54 654.39"><defs><style>.cls-1{fill:#3f3d56;}.cls-2{fill:#f9a826;}.cls-3{fill:#d0cde1;}.cls-4{fill:#a67c52;}.cls-5{fill:#2f2e41;}.cls-6{fill:#575a89;}.cls-7{opacity:0.2;isolation:isolate;}</style></defs><g id="Layer_2" data-name="Layer 2"><g id="Layer_1-2" data-name="Layer 1"><rect class="cls-1" x="623.56" y="-43.92" width="368.52" height="653.28" transform="translate(315.95 983.13) rotate(-74.21)"/><circle class="cls-2" cx="554.51" cy="31.37" r="5.21"/><circle class="cls-2" cx="570.54" cy="35.9" r="5.21"/><circle class="cls-2" cx="586.57" cy="40.43" r="5.21"/><path class="cls-2" d="M877.27,241.55a60.76,60.76,0,0,0-25.4.6,60.84,60.84,0,0,0,1.79-25.67A60.55,60.55,0,0,0,831,231.13a60.16,60.16,0,0,0-11.67-24.37,60.79,60.79,0,0,0-11.91,22.81A60.71,60.71,0,0,0,786,215.75s-3.79,19.28,5.34,35.11c8.13,14.08,23.74,20.67,27.07,21.95l.08.1,0-.05.53.19s.07-.37.17-1l.19-.23a2.54,2.54,0,0,0,0,.29c-.27.62-.4,1-.4,1l.55.11v.07l.12,0c3.51.65,20.26,3.21,34.56-4.53C870.4,260,877.27,241.55,877.27,241.55Z"/><circle class="cls-2" cx="846.11" cy="178.75" r="13.54"/><rect class="cls-2" x="806.83" y="90.04" width="9.2" height="422.75" transform="translate(300.59 1000.2) rotate(-74.21)"/><rect class="cls-2" x="623.59" y="302.86" width="72.89" height="72.89" transform="translate(153.93 882.11) rotate(-74.21)"/><rect class="cls-2" x="753.85" y="339.7" width="72.89" height="72.89" transform="translate(213.3 1034.26) rotate(-74.21)"/><rect class="cls-2" x="884.11" y="376.53" width="72.89" height="72.89" transform="translate(272.66 1186.42) rotate(-74.21)"/><rect class="cls-2" x="642.18" y="364.34" width="6.25" height="54.15" transform="translate(93.07 905.86) rotate(-74.21)"/><rect class="cls-2" x="772.44" y="401.17" width="6.25" height="54.15" transform="translate(152.43 1058.01) rotate(-74.21)"/><rect class="cls-2" x="902.69" y="438.01" width="6.25" height="54.15" transform="translate(211.8 1210.16) rotate(-74.21)"/><ellipse class="cls-3" cx="355.33" cy="495.5" rx="348.46" ry="12.88"/><ellipse class="cls-3" cx="974.38" cy="641.51" rx="271.16" ry="12.88"/><path class="cls-1" d="M841.4,541h78.52v33.13H874.53v33.13h45.39v31.9H841.4Zm94.48,0h77.3v28.22h-45.4v6.13h45.4v65h-77.3V611h45.39v-6.14H935.88V541Zm93.24,0h78.53v28.22h-45.4v6.13h45.4v65h-78.52V611h45.39v-6.14h-45.39V541Z"/><path class="cls-1" d="M158,391.34h31.9v31.9h29.45v-31.9h31.9v96.93h-31.9v-31.9H189.87v31.9H158V391.34Zm136.19,31.9H266v-31.9h89.57v31.9H326.07v65h-31.9v-65ZM369,391.34h33.81l20.8,34.06,20.77-34.06h33.82v96.93h-31.9V440.52L423.9,474.77h-.56l-22.43-34.25v47.75H369Zm125.16,0h31.9v65h45.39v31.9h-77.3V391.34Z"/><polygon class="cls-4" points="100.17 458.19 97.52 488.21 118.71 486.44 118.71 460.83 100.17 458.19"/><polygon class="cls-4" points="80.81 458.19 83.46 488.21 62.27 486.44 62.27 460.83 80.81 458.19"/><path class="cls-5" d="M136.85,227.74s7.07,42.38,7.07,48.56-2.65,45.91-7.07,53.86-5.29,11.48-3.53,15,.89,2.65,0,5.3-2.65,1.76,0,5.3a9.25,9.25,0,0,1,0,10.59c-1.76,2.65,3.53,74.17-3.53,79.46s-8.83,23-8.83,23l-23.11-2.65V446.71c.16,0-5.14-14.13-1.61-23s5.3-55.62,5.3-55.62-.89-4.42,0-7.07,0-4.41-1.77-5.29-2.65-4.42-2.65-4.42L94.47,286.9,83.88,350.47s10.59,86.53-.75,98v20.17H60.92l3.53-21.93S57.39,426.4,60.92,422s-10.59-75.05-8.83-77.7.89-3.53,0-5.3-3.53-3.53-2.65-5.3,0-5.3,0-5.3-16.77-83-8.83-90.94S136.85,227.74,136.85,227.74Z"/><path class="cls-5" d="M102.3,455.73s1.77-8.47,15.9-5.56c0,0,3.53,7.32,3.53,10.85s3.53,27.38,3.53,27.38,14.13,23.83-3.53,23.83S97.89,506.05,97,499.87s.88-7.94-2.65-10.59-5.3-2.65-4.42-6.18,2.65-21.19,2.65-21.19.88-13.25,5.74-9.71l4.86,3.53"/><path class="cls-5" d="M74.32,460.73s-1.39-8.47-12.44-5.56c0,0-2.77,7.32-2.77,10.85s-2.76,27.38-2.76,27.38-11.06,23.83,2.76,23.83,18.66-6.18,19.35-12.36-.69-7.94,2.08-10.59,4.14-2.65,3.45-6.18-2.07-21.19-2.07-21.19-.69-13.25-4.49-9.71l-3.81,3.53"/><circle class="cls-4" cx="104.19" cy="41.44" r="23.84"/><path class="cls-4" d="M84.76,45s-9.71,38-11.48,38.85,40.62,4.42,40.62,4.42-10.6-32.67,0-38Z"/><path class="cls-3" d="M78.56,68.11h0L49.44,88.24l5.3,158s38.85-4.41,47.68-3.53,37.08-7.95,37.08-7.95L127.13,86.3a12.2,12.2,0,0,0-11.3-11.16l-5.3-.37s-5.3,13.11-21.24,6.35A18.61,18.61,0,0,1,78.56,68.11Z"/><path class="cls-6" d="M79.26,66.67l-36,17.15L36.2,185.36s-14.13,60.92-2.65,78.58,30.9,19.42,30.9,19.42S90.06,181.83,83,147.39,79.26,66.67,79.26,66.67Z"/><path class="cls-4" d="M12,219.56v13.25s-5.3,29.13,11.48,28.25,8.83-31.79,8.83-31.79L27,219.56Z"/><path class="cls-4" d="M166.87,246.28l-1.76,15s8.83,30-8,30.9-4.6-30.71-4.6-30.71l5.48-17Z"/><path class="cls-6" d="M110,71.68h0a104,104,0,0,1,43.48,22.6l.15.14-12.36,65.33-1.77,23.84s32.67,116.55-5.29,99.77c0,0-32.67-101.53-28.26-148.33S110,71.68,110,71.68Z"/><path class="cls-6" d="M142.15,93.53c.89-.88,11.48,1.23,11.48,1.23s19.42,68.53,19.42,80,2.65,76.82,2.65,76.82l-23.3,2.35-18.87-90.78Z"/><path class="cls-6" d="M49.44,83.37H43.26s-17.65,7.06-18.54,15S0,186.67,0,186.67l6.18,40.62,23-3.54,4.41-45,23-49.44Z"/><path class="cls-5" d="M94.55,39.09l.92-6.37c.21-1.48,1.08-3.43,2.53-3,1.22.34,3.9,1.39,4.35,1.08,1.68-1.19,4.22.89,6-.17.74-.44,1.23-1.39,2.09-1.45a2.31,2.31,0,0,1,1.52.69,10.41,10.41,0,0,0,4,2.15,4.27,4.27,0,0,0,4.17-1.14,2,2,0,0,1,.73-.7,1.61,1.61,0,0,1,1.06.05l4.51,1.22a17.33,17.33,0,0,0-2.32-14.27,28.84,28.84,0,0,0-6.57-6.43q-4.19-3.18-8.64-6A28.22,28.22,0,0,0,98.33.15c-3.81-.57-8.06.46-10.46,3.47A6.76,6.76,0,0,1,85.45.35a2.48,2.48,0,0,0-.16,3.5,2.27,2.27,0,0,0,.32.3L81.8,1.71c-1.08,1.13,1,3.17.11,4.43a2.37,2.37,0,0,1-1,.67,17.46,17.46,0,0,0-5.59,3.52,20.78,20.78,0,0,0-4.41,8.12c-2.27,6.52-3.92,14-.7,20.1.37.69,5.2,12.11,5.85,12.56,2.17,1.51.76-2.14,2.32,0,1.22,1.68,1-4.74,2.81-3.33a4.53,4.53,0,0,0,4.93.22c.75-.52.51-3.42.11-6.09a3.13,3.13,0,0,1,2.62-3.58,3.24,3.24,0,0,1,1.2.05C92.28,38.91,94.52,39.37,94.55,39.09Z"/><polygon class="cls-7" points="144.36 173.57 154.07 253.92 147.89 253.92 144.36 173.57"/><polygon class="cls-7" points="41.94 142.26 37.03 173.16 46.35 142.26 43.7 142.26 41.94 142.26"/></g></g></svg>