<svg xmlns="http://www.w3.org/2000/svg" viewBox="0 0 27.33 23.35"><defs><style>.cls-1{fill:#a3a3a3;stroke:#a3a3a3;stroke-miterlimit:10;}</style></defs><title>CollegeTutorDark</title><g id="Layer_2" data-name="Layer 2"><g id="Layer_1-2" data-name="Layer 1"><g id="Layer_1-2-2" data-name="Layer 1-2"><path class="cls-1" d="M4,17.87a3.36,3.36,0,0,0,1.74-.48,8.48,8.48,0,0,0,15.84,0,3.36,3.36,0,0,0,1.74.48,3.51,3.51,0,0,0,3.51-3.51h0v-1.7a3.52,3.52,0,0,0-3-3.46,10.37,10.37,0,0,0-20.47,0A3.51,3.51,0,0,0,.5,12.66v1.7A3.51,3.51,0,0,0,4,17.87ZM13.6,2.08a8.82,8.82,0,0,1,8.66,7.25A3.73,3.73,0,0,0,21,10,8.49,8.49,0,0,0,9.41,6.93,8.71,8.71,0,0,0,6.33,10a3.71,3.71,0,0,0-1.39-.76,8.83,8.83,0,0,1,8.67-7.17Z"/></g></g></g></svg>