<svg xmlns="http://www.w3.org/2000/svg" viewBox="0 0 26.34 22.31"><defs><style>.cls-1{fill:#a9a9a9;}.cls-2{fill:#4d4d4d;stroke:#4d4d4d;stroke-miterlimit:10;stroke-width:0.25px;}</style></defs><title>CollegeTutorLogo_2</title><g id="Layer_2" data-name="Layer 2"><g id="Layer_1-2" data-name="Layer 1"><path class="cls-1" d="M3.51,17.36a3.57,3.57,0,0,0,1.74-.48,8.49,8.49,0,0,0,15.84,0,3.47,3.47,0,0,0,1.74.48,3.51,3.51,0,0,0,3.51-3.51v-1.7a3.51,3.51,0,0,0-3-3.46,10.37,10.37,0,0,0-20.47,0A3.5,3.5,0,0,0,0,12.15v1.7A3.51,3.51,0,0,0,3.51,17.36Zm9.6-15.79a8.82,8.82,0,0,1,8.66,7.25,3.51,3.51,0,0,0-1.26.72,8.48,8.48,0,0,0-14.68,0,3.49,3.49,0,0,0-1.39-.76A8.83,8.83,0,0,1,13.11,1.57Z"/><path class="cls-2" d="M18.53,10.92a2.38,2.38,0,0,0-4.66-.41,1.09,1.09,0,0,0-1.52,0,2.38,2.38,0,0,0-3.92-1.1,2.4,2.4,0,0,0-.75,1.51H7.3v.47h.38a2.39,2.39,0,0,0,2.38,2.15,2.38,2.38,0,0,0,2.38-2.38h0a.66.66,0,0,1,.67-.56.65.65,0,0,1,.66.56h0a2.38,2.38,0,0,0,2.39,2.38,2.39,2.39,0,0,0,2.37-2.15h.38v-.47Zm-2.37,2.23a2,2,0,1,1,2-2A2,2,0,0,1,16.16,13.15Zm-6.1,0a2,2,0,1,1,2-2A2,2,0,0,1,10.06,13.15Z"/></g></g></svg>