<svg xmlns="http://www.w3.org/2000/svg" viewBox="0 0 27.33 23.33"><defs><style>.cls-1{fill:#212325;stroke:#212325;stroke-miterlimit:10;}</style></defs><title>CollegeTutor_1</title><g id="Layer_2" data-name="Layer 2"><g id="Layer_1-2" data-name="Layer 1"><path class="cls-1" d="M4,17.87a3.45,3.45,0,0,0,1.74-.48,8.48,8.48,0,0,0,15.84,0,3.45,3.45,0,0,0,1.74.48,3.51,3.51,0,0,0,3.51-3.51h0v-1.7a3.52,3.52,0,0,0-3-3.46,10.37,10.37,0,0,0-20.47,0A3.51,3.51,0,0,0,.5,12.66v1.7A3.51,3.51,0,0,0,4,17.87ZM13.6,2.08a8.82,8.82,0,0,1,8.66,7.25A3.59,3.59,0,0,0,21,10,8.48,8.48,0,0,0,9.41,6.93,8.58,8.58,0,0,0,6.33,10a3.63,3.63,0,0,0-1.39-.76,8.83,8.83,0,0,1,8.67-7.17Z"/></g></g></svg>