<svg xmlns="http://www.w3.org/2000/svg" viewBox="0 0 27.34 23.31"><defs><style>.cls-1{fill:none;}.cls-1,.cls-2{stroke:#fff;stroke-miterlimit:10;}.cls-2,.cls-3{fill:#fff;}.cls-2{stroke-width:0.25px;}</style></defs><title>CollegeTutorLogo_1_2</title><g id="Layer_2" data-name="Layer 2"><g id="Layer_1-2" data-name="Layer 1"><path class="cls-1" d="M4,17.86a3.57,3.57,0,0,0,1.74-.48,8.49,8.49,0,0,0,15.84,0,3.47,3.47,0,0,0,1.74.48,3.51,3.51,0,0,0,3.51-3.51v-1.7a3.51,3.51,0,0,0-3-3.46,10.37,10.37,0,0,0-20.47,0A3.5,3.5,0,0,0,.5,12.65v1.7A3.51,3.51,0,0,0,4,17.86Zm9.6-15.79a8.82,8.82,0,0,1,8.66,7.25A3.51,3.51,0,0,0,21,10,8.48,8.48,0,0,0,6.33,10a3.49,3.49,0,0,0-1.39-.76A8.83,8.83,0,0,1,13.61,2.07Z"/><path class="cls-2" d="M19,11.42A2.38,2.38,0,0,0,14.37,11a1.09,1.09,0,0,0-1.52,0,2.38,2.38,0,0,0-3.92-1.1,2.4,2.4,0,0,0-.75,1.51H7.8v.47h.38A2.39,2.39,0,0,0,10.56,14a2.38,2.38,0,0,0,2.38-2.38h0a.66.66,0,0,1,.67-.56.65.65,0,0,1,.66.56h0A2.38,2.38,0,0,0,16.66,14,2.39,2.39,0,0,0,19,11.89h.38v-.47Zm-2.37,2.23a2,2,0,1,1,2-2A2,2,0,0,1,16.66,13.65Zm-6.1,0a2,2,0,1,1,2-2A2,2,0,0,1,10.56,13.65Z"/><path class="cls-3" d="M17.89,17.09a6.38,6.38,0,0,1-4.22,1.48,6.38,6.38,0,0,1-4.22-1.48l-.38.38a5.64,5.64,0,0,0,4.6,2.73,5.64,5.64,0,0,0,4.6-2.73Z"/></g></g></svg>