<svg xmlns="http://www.w3.org/2000/svg" viewBox="0 0 173.81 28.01"><defs><style>.cls-1{fill:#a9a9a9;}</style></defs><title>degreeMeLogoGrey</title><g id="Layer_2" data-name="Layer 2"><g id="Layer_1-2" data-name="Layer 1"><path class="cls-1" d="M34.88,22V20.09a5.4,5.4,0,0,1-4.71,2.16c-3.42,0-6.44-2.57-6.44-8.73,0-5.83,2.34-8.37,6.1-8.37a6.48,6.48,0,0,1,5.05,2.06v-7H41V22Zm0-10.06A3.41,3.41,0,0,0,32.1,10.3c-1.53,0-2.34.95-2.34,3.22,0,2.57.92,3.65,2.44,3.65a2.9,2.9,0,0,0,2.68-1.45Z"/><path class="cls-1" d="M59.27,19.61a12.68,12.68,0,0,1-7.79,2.64c-5.22,0-8.47-2.91-8.47-8.43s3.15-8.67,8.47-8.67c4.77,0,7.79,2.81,7.79,7.93a19.47,19.47,0,0,1-.14,2.26H48.94a2.45,2.45,0,0,0,2.81,2.21,12.13,12.13,0,0,0,5.79-1.43ZM54,12.09c-.07-1.79-.91-2.74-2.47-2.74-1.39,0-2.31.88-2.58,2.74Z"/><path class="cls-1" d="M78.14,19c0,6.47-2.85,9-8.64,9a20,20,0,0,1-7.28-1.28l.81-4a29.61,29.61,0,0,0,5.59.71c2.17,0,3.29-.95,3.39-3.93-1.43,1.35-2.64,1.76-5,1.76-3.83,0-6.13-2.71-6.13-8C60.9,7.69,63,5.15,67,5.15a8,8,0,0,1,5,2V5.45h6.13ZM72,11.62a3.9,3.9,0,0,0-2.75-1.32c-1.59,0-2.33.78-2.33,2.94,0,2.44.84,3.26,2.44,3.26A3.39,3.39,0,0,0,72,15.28Z"/><path class="cls-1" d="M87.05,8.64c1.22-2.41,2.47-3.46,4.3-3.46a16.23,16.23,0,0,1,2,.1L93,11.52c-.82-.07-1.36-.07-1.93-.07-2,0-3.36.51-4,2.84V22H80.92V5.45h6.13Z"/><path class="cls-1" d="M110.22,19.61a12.68,12.68,0,0,1-7.79,2.64c-5.22,0-8.47-2.91-8.47-8.43s3.15-8.67,8.47-8.67c4.78,0,7.79,2.81,7.79,7.93a19.26,19.26,0,0,1-.13,2.26H99.89a2.45,2.45,0,0,0,2.81,2.21,12.1,12.1,0,0,0,5.79-1.43Zm-5.32-7.52c-.06-1.79-.91-2.74-2.47-2.74-1.39,0-2.3.88-2.57,2.74Z"/><path class="cls-1" d="M127.94,19.61a12.68,12.68,0,0,1-7.79,2.64c-5.22,0-8.47-2.91-8.47-8.43s3.15-8.67,8.47-8.67c4.78,0,7.79,2.81,7.79,7.93a17.48,17.48,0,0,1-.14,2.26H117.61a2.45,2.45,0,0,0,2.81,2.21,12.1,12.1,0,0,0,5.79-1.43Zm-5.32-7.52c-.07-1.79-.91-2.74-2.47-2.74-1.39,0-2.3.88-2.58,2.74Z"/><path class="cls-1" d="M149.08,12.26v-1L144.81,22h-3.66L137,11.25v.84L136.72,22h-6.27l.85-20.66h7l4.13,10a11.23,11.23,0,0,1,.54,1.62,15.43,15.43,0,0,1,.51-1.62l4.17-10h7L155.55,22h-6.33Z"/><path class="cls-1" d="M173.81,19.61A12.68,12.68,0,0,1,166,22.25c-5.22,0-8.47-2.91-8.47-8.43S160.7,5.15,166,5.15c4.78,0,7.79,2.81,7.79,7.93a19.26,19.26,0,0,1-.13,2.26h-10.2a2.45,2.45,0,0,0,2.81,2.21,12.1,12.1,0,0,0,5.79-1.43Zm-5.32-7.52c-.06-1.79-.91-2.74-2.47-2.74-1.39,0-2.3.88-2.57,2.74Z"/><path class="cls-1" d="M15.6,18.57l-.94,6.76H10.48l.95-6.76H7.68l-.94,6.76H2.54l1-6.76H0l.58-4.08h3.5l.52-3.77H1.11l.56-4.08H5.18L6.1,0h4.44L9.61,6.64h3.25L13.79,0h4.43l-.93,6.64h3.92l-.58,4.08H16.72l-.54,3.77h3.91l-.57,4.08Zm-3.06-7.85H8.78l-.52,3.77H12Z"/></g></g></svg>