<svg xmlns="http://www.w3.org/2000/svg" viewBox="0 0 200 200"><defs><style>.cls-1{fill:#007bff;}.cls-2{opacity:0.1;isolation:isolate;}.cls-3{fill:#f2f2f2;}</style></defs><g id="Layer_2" data-name="Layer 2"><g id="Layer_1-2" data-name="Layer 1"><circle class="cls-1" cx="100" cy="100" r="100"/><circle class="cls-2" cx="100" cy="100" r="86"/><path class="cls-3" d="M95.88,150.75V138.23c-6.33-.12-12.87-2.35-16.69-5.45l2.62-8.31a26.66,26.66,0,0,0,15.71,5.33c7.74,0,13-5.08,13-12.14,0-6.82-4.26-11-12.33-14.75-11.13-5-18-10.66-18-21.44,0-10.29,6.44-18.09,16.47-19.95V49h6.77V61a26.51,26.51,0,0,1,14.18,4.34l-2.73,8.18a24.16,24.16,0,0,0-13.74-4.22C92.72,69.32,89.55,75,89.55,80c0,6.45,4,9.67,13.53,14.13C114.32,99.32,120,105.76,120,116.79c0,9.79-6,19-17.24,21.07v12.89Z"/></g></g></svg>