<svg xmlns="http://www.w3.org/2000/svg" viewBox="0 0 92 92"><defs><style>.cls-1,.cls-2{fill:none;}.cls-1,.cls-3{fill-rule:evenodd;}.cls-2{stroke:#000;stroke-miterlimit:10;stroke-width:4px;}</style></defs><title>facebook</title><g id="Layer_2" data-name="Layer 2"><g id="Layer_1-2" data-name="Layer 1"><path class="cls-1" d="M46,90A44,44,0,1,0,2,46,44,44,0,0,0,46,90Z"/><path class="cls-2" d="M46,90A44,44,0,1,0,2,46,44,44,0,0,0,46,90Z"/><path class="cls-3" d="M48.63,72H38.87V49H34V41.07h4.87V36.31C38.87,29.85,41.63,26,49.45,26H56v7.93H51.89c-3,0-3.25,1.11-3.25,3.17v4H56L55.14,49H48.63V72Z"/></g></g></svg>