<svg xmlns="http://www.w3.org/2000/svg" viewBox="0 0 171.61 486.54"><defs><style>.cls-1{fill:#3f5a7f;}.cls-2{fill:#4d4d4d;}.cls-3{fill:#a06d42;}.cls-4{fill:#754c24;}.cls-5{fill:#bf844f;}.cls-6{fill:#603814;}.cls-7{fill:#8c6239;}.cls-8{fill:#333;}.cls-10,.cls-9{fill:none;stroke-linecap:round;stroke-miterlimit:10;}.cls-9{stroke:#8c6239;stroke-width:4.07px;}.cls-10{stroke:#333;stroke-width:3.59px;}.cls-11{fill:#fff;}</style></defs><title>FailedTest</title><g id="Layer_2" data-name="Layer 2"><g id="Layer_1-2" data-name="Layer 1"><path class="cls-1" d="M130.11,262.77H41.39l-.82-88.72c0-10.21,10.27-33.27,25.8-33.27h37.06c17.51,0,25.8,20.95,25.8,31.11Z"/><path class="cls-2" d="M86.1,307.13h-.76a44.25,44.25,0,0,1-44-44.25v-.11h88.72v.11A44.2,44.2,0,0,1,86.1,307.13Z"/><path class="cls-3" d="M99.11,138.74A14.3,14.3,0,0,1,84.93,153h-.12a14.4,14.4,0,0,1-14.3-14.3V126.19h28.6Z"/><path class="cls-1" d="M12.26,280.8l1.11.29c5.43,1.52,11.38-2.86,13.25-9.8l42.9-114.17c1.93-6.88,1.11-14.12-4.32-15.64l-1.11-.29c-7.88-2.1-23.58,6.94-37.47,51.19L5.84,265.63C4,272.51,6.84,279.28,12.26,280.8Z"/><path class="cls-4" d="M71.45,462.38v23.93l-47.16.23a16.29,16.29,0,0,1,13.36-12.78c11.56-2.1,21.37,4.55,21.37,4.55l1.22-15.93Z"/><rect class="cls-2" x="53.59" y="262.77" width="23.93" height="199.61"/><path class="cls-4" d="M99.52,462.38v23.93l47.16.23a16.29,16.29,0,0,0-13.36-12.78c-11.56-2.1-21.37,4.55-21.37,4.55l-1.22-15.93Z"/><rect class="cls-2" x="93.24" y="262.73" width="23.93" height="199.61"/><path class="cls-5" d="M27.32,287.46c-.87-5.14-1.4-11.91-1.57-14.77A1.86,1.86,0,0,0,24.29,271L8.18,267.73a1.8,1.8,0,0,0-2,1C2.81,276-.17,281.85,0,294c.29,17.4,5.13,20.14,8.29,19.44,1.92-.41,2-3.09,1.75-5.14,1.46,4.2,6.12,2.69,6.12-1.87.82.06,5.08.12,4.27-6.12a46.47,46.47,0,0,1,.4-12c.12.7.24,1.4.35,2.16C22.13,295.51,28.43,294.11,27.32,287.46Z"/><path class="cls-1" d="M159.35,280.8l-1.11.29c-5.43,1.52-11.38-2.86-13.25-9.8l-42.9-114.17c-1.93-6.88-1.11-14.12,4.32-15.64l1.11-.29c10.5.82,22.18,12.9,36.07,57.14l22.18,67.24C167.64,272.51,164.78,279.28,159.35,280.8Z"/><path class="cls-5" d="M144.29,287.46c.88-5.14,1.4-11.91,1.58-14.77a1.84,1.84,0,0,1,1.45-1.69l16.11-3.27a1.81,1.81,0,0,1,2,1c3.32,7.24,6.3,13.07,6.13,25.21-.3,17.4-5.14,20.14-8.29,19.44-1.93-.41-2-3.09-1.75-5.14-1.46,4.2-6.13,2.69-6.13-1.87-.82.06-5.08.12-4.26-6.12a46.48,46.48,0,0,0-.41-12c-.12.7-.24,1.4-.35,2.16C149.48,295.51,143.18,294.11,144.29,287.46Z"/><path class="cls-6" d="M156.6,75.35a13.27,13.27,0,0,0-8.87-12.55,17.81,17.81,0,0,0-10.39-30.93,15.19,15.19,0,0,0,1.17-5.9,15.76,15.76,0,0,0-26.79-11.26v-.12A14.6,14.6,0,0,0,84.87,6.65a17,17,0,0,0-29.06,6.48,16.63,16.63,0,0,0-8.64-2.33,17,17,0,0,0-17,17,15.21,15.21,0,0,0,.41,3.68,18,18,0,0,0-8.93,33.62A13.26,13.26,0,0,0,23,89a11.28,11.28,0,0,0,8,18,12,12,0,0,0-.82,4.32A11.6,11.6,0,0,0,52,116.85a54.73,54.73,0,0,0,62.69-.23,12.05,12.05,0,0,0,23-5,11.5,11.5,0,0,0-.52-3.45c.35,0,.7.06,1.05.06a13.66,13.66,0,0,0,11.44-21.13A13.5,13.5,0,0,0,156.6,75.35Z"/><path class="cls-5" d="M84.7,144.81c-20.37,0-44.83-17.8-44.83-42.73V63.44A36.44,36.44,0,0,1,76.29,27h17.1a36.43,36.43,0,0,1,36.42,36.42v38.64C129.76,127.06,105.07,144.81,84.7,144.81Z"/><path class="cls-6" d="M132.21,47.74v-5A17.74,17.74,0,0,0,114.46,25H57.79A17.73,17.73,0,0,0,40.05,42.78v13.6a7,7,0,0,0,0,4.9l2,3.8c3.21,3.5,8.87,4.2,13.66,1.46,4.55-2.63,6.77-7.53,5.78-11.91l1.11-.58a11.64,11.64,0,0,0,5.48,1.4,11.37,11.37,0,0,0,10.86-8c1.87,5.26,7.29,9,13.66,9a14.67,14.67,0,0,0,11.55-5.37,16.73,16.73,0,0,0,7.36,9.8c7.12,4.5,16,3.33,19.78-2.56A12.5,12.5,0,0,0,132.21,47.74Z"/><circle class="cls-5" cx="39.64" cy="81.6" r="12.78"/><path class="cls-7" d="M37.07,83.41a4.56,4.56,0,0,1,4.55-4.56,5.24,5.24,0,0,1,1.93.41,4.55,4.55,0,0,0-8.46,2.34,4.44,4.44,0,0,0,2.62,4.08A4.14,4.14,0,0,1,37.07,83.41Z"/><circle class="cls-5" cx="130.81" cy="81.6" r="12.78"/><path class="cls-7" d="M135,83.41a4.56,4.56,0,0,0-4.55-4.56,5.24,5.24,0,0,0-1.93.41A4.55,4.55,0,0,1,137,81.6a4.44,4.44,0,0,1-2.62,4.08A4.14,4.14,0,0,0,135,83.41Z"/><ellipse class="cls-8" cx="71.74" cy="84.22" rx="2.92" ry="5.14"/><ellipse class="cls-8" cx="108.45" cy="84.22" rx="2.92" ry="5.14"/><path class="cls-7" d="M87.32,94.2v9.17c0,.41.53.76.94.76h5.43A1.75,1.75,0,0,0,95,101.27l-6.31-7.53A.79.79,0,0,0,87.32,94.2Z"/><path class="cls-9" d="M73,121.11a20.07,20.07,0,0,1,16.75-9.4h0c8.75,0,14.3,4.73,16.75,9.4"/><path class="cls-10" d="M67.36,79.38a7.86,7.86,0,0,0,2.8-.23,8.47,8.47,0,0,0,3-1.81"/><path class="cls-10" d="M111.84,79.9a11.3,11.3,0,0,1-3.1-1,9.08,9.08,0,0,1-2.27-2.1"/><path class="cls-11" d="M107.93,93.44s-2.28,3-2.28,6a2.28,2.28,0,1,0,4.55,0C110.26,97,107.93,93.44,107.93,93.44Z"/><path class="cls-9" d="M86.21,124.79s.41-1.34,3.51-1.4a3.08,3.08,0,0,1,2.86,1.4"/></g></g></svg>