<svg xmlns="http://www.w3.org/2000/svg" viewBox="0 0 1100.03 811.41"><defs><style>.cls-1,.cls-3{fill:#007bff;}.cls-1,.cls-2{opacity:0.1;}.cls-1,.cls-2,.cls-6,.cls-9{isolation:isolate;}.cls-4{fill:#444053;}.cls-5{fill:#f6f8fb;}.cls-6{opacity:0.05;}.cls-7{fill:#ffd037;}.cls-8{fill:#a8a8a8;}.cls-9{opacity:0.2;}</style></defs><g id="Layer_2" data-name="Layer 2"><g id="Layer_1-2" data-name="Layer 1"><path class="cls-1" d="M11.85,389C29.22,456.15,66,514.18,124,542.31c120.7,58.46,392.91,28.31,596.07-6.3,105.09-17.9,197.46-67.3,264.56-136.82Z"/><path class="cls-1" d="M1077.21,73H965.74c-5.29,0-9.63-3.92-9.63-8.71s4.34-8.72,9.63-8.72H985c-5.3,0-9.63-3.92-9.63-8.72s4.33-8.71,9.63-8.71H971.26c-5.3,0-9.64-3.92-9.64-8.72s4.34-8.71,9.64-8.71h58.18c-12.91-5.43-28-9.29-45.39-11.32C825.4-9,768.76,3.18,748.78,15.71a234.71,234.71,0,0,1-81.54,32.34c-97.88,18.27-280.93,40.25-446.84-7C137.94,17.52,76.65,57.23,39.92,123.61H1096.57c-1.38-19.29-5.51-37.11-13.09-52.7A10.23,10.23,0,0,1,1077.21,73Z"/><path class="cls-1" d="M2.4,248.9A402.45,402.45,0,0,0,6.72,366L985.4,398.41a415.59,415.59,0,0,0,68-93.82Zm387.08,83.55H370.21c5.3,0,9.64,3.93,9.64,8.72s-4.34,8.71-9.64,8.71H258.74c-5.29,0-9.63-3.92-9.63-8.71s4.34-8.72,9.63-8.72H278c-5.3,0-9.63-3.92-9.63-8.71S272.72,315,278,315H264.25c-5.3,0-9.64-3.92-9.64-8.71s4.34-8.72,9.64-8.72H375.72c5.3,0,9.63,3.92,9.63,8.72S381,315,375.72,315h13.76c5.3,0,9.63,3.92,9.63,8.72S394.78,332.45,389.48,332.45Z"/><path class="cls-1" d="M1096.61,124.21,28.13,147.71c-13,30.23-21.62,64.41-25.59,99.83H1077.89a379.58,379.58,0,0,0,15.52-63.63C1096.62,163.1,1097.9,143,1096.61,124.21ZM219.48,201.26H200.21c5.3,0,9.64,3.93,9.64,8.72s-4.34,8.72-9.64,8.72H88.74c-5.29,0-9.63-3.93-9.63-8.72s4.34-8.72,9.63-8.72H108c-5.3,0-9.63-3.92-9.63-8.71s4.33-8.72,9.63-8.72H94.25c-5.3,0-9.64-3.92-9.64-8.71s4.34-8.72,9.64-8.72H205.72c5.3,0,9.63,3.92,9.63,8.72s-4.33,8.71-9.63,8.71h13.76c5.3,0,9.63,3.93,9.63,8.72S224.78,201.26,219.48,201.26Z"/><ellipse class="cls-1" cx="545.09" cy="739.96" rx="446.98" ry="41.12"/><path class="cls-2" d="M854.71,758c-2.91.11-19.45,0-19.45,0a10.27,10.27,0,0,1-.68-.8C838.81,755.71,848,753.55,854.71,758Z"/><path class="cls-2" d="M902,758c-2.91.11-19.45,0-19.45,0a10.27,10.27,0,0,1-.68-.8C886.1,755.71,895.24,753.55,902,758Z"/><circle class="cls-3" cx="545.81" cy="462.96" r="308.5"/><path class="cls-4" d="M680.87,609.82c0,48.7-76.56,4.16-158.64,4.16s-165.1,42.7-165.1-6c0-27.77,26.46-66.39,64.42-94.44h0c28.6-21.14,63.72-36.28,99-36.28,36.28,0,71.82,16.39,100.17,38.89C656.5,544.52,680.87,582.64,680.87,609.82Z"/><path class="cls-5" d="M620.71,516.13c-43.63-6.57-122.54-14.58-199.16-2.61,28.6-21.14,63.72-36.28,99-36.28C556.82,477.24,592.36,493.63,620.71,516.13Z"/><path class="cls-6" d="M357.13,237S264.2,296.43,265,389.36,357.13,237,357.13,237Z"/><path class="cls-3" d="M827.38,69.23s-84.2-5.07-74.27,53.93c0,0-2,10.42,7.48,15.16,0,0,.15-4.37,8.63-2.89a39.47,39.47,0,0,0,9.15.44,19.09,19.09,0,0,0,11.18-4.62h0s23.67-9.77,32.88-48.46c0,0,6.81-8.44,6.54-10.6l-14.21,6.06s4.85,10.25,1,18.77c0,0-.46-18.39-3.19-18-.55.09-7.38,3.55-7.38,3.55s8.35,17.86,2,30.83c0,0,2.39-22-4.66-29.54l-10,5.84s9.76,18.44,3.14,33.49c0,0,1.7-23.08-5.24-32.07l-9.07,7.07s9.17,18.18,3.58,30.66c0,0-.73-26.87-5.54-28.9,0,0-7.93,7-9.14,9.87,0,0,6.28,13.19,2.39,20.15,0,0-2.39-17.9-4.35-18,0,0-7.9,11.86-8.73,20,0,0,.35-12.1,6.81-21.13,0,0-7.64,1.31-12.09,6.27,0,0,1.23-8.39,14-9.12,0,0,6.53-9,8.28-9.54,0,0-12.75-1.07-20.48,2.36,0,0,6.8-7.91,22.81-4.32l9-7.3s-16.78-2.3-23.9.24c0,0,8.19-7,26.31-1.9l9.75-5.83s-14.31-3.08-22.84-2c0,0,9-4.85,25.69.41l7-3.13s-10.49-2.06-13.56-2.38-3.23-1.18-3.23-1.18a36.29,36.29,0,0,1,19.73,2.29S827.63,70.16,827.38,69.23Z"/><path class="cls-3" d="M741,43s-38-2.3-33.56,24.36c0,0-.89,4.71,3.38,6.85,0,0,.06-2,3.9-1.3a18.41,18.41,0,0,0,4.13.2A8.76,8.76,0,0,0,723.93,71h0s10.69-4.42,14.85-21.9c0,0,3.08-3.81,3-4.79l-6.42,2.74s2.2,4.63.47,8.48c0,0-.21-8.31-1.44-8.11-.25,0-3.34,1.6-3.34,1.6s3.78,8.07.93,13.93c0,0,1.08-9.94-2.1-13.35l-4.52,2.64s4.41,8.34,1.42,15.14c0,0,.76-10.43-2.37-14.49l-4.1,3.19s4.14,8.21,1.62,13.85c0,0-.33-12.14-2.51-13.06,0,0-3.58,3.16-4.13,4.46,0,0,2.84,6,1.08,9.11,0,0-1.08-8.09-2-8.12,0,0-3.57,5.35-3.94,9a19.44,19.44,0,0,1,3.07-9.55A10.59,10.59,0,0,0,708,64.62s.55-3.79,6.34-4.12c0,0,3-4.06,3.74-4.31,0,0-5.76-.48-9.25,1.07,0,0,3.07-3.58,10.31-2l4-3.29s-7.58-1-10.8.1c0,0,3.7-3.16,11.89-.85l4.4-2.64s-6.46-1.39-10.32-.89c0,0,4.07-2.19,11.61.19l3.15-1.42s-4.74-.93-6.12-1.07-1.47-.53-1.47-.53a16.33,16.33,0,0,1,8.9,1S741.13,43.42,741,43Z"/><ellipse class="cls-1" cx="1073.1" cy="725.46" rx="26.93" ry="4.55"/><ellipse class="cls-1" cx="46.78" cy="801.15" rx="26.93" ry="4.55"/><ellipse class="cls-1" cx="203.11" cy="806.86" rx="26.93" ry="4.55"/><ellipse class="cls-3" cx="1014.16" cy="774.22" rx="40.21" ry="6.8"/><path class="cls-3" d="M1030.78,763.11a11.82,11.82,0,0,0,3.84-5.79c.49-2.29-.49-5.05-2.68-5.89-2.46-.94-5.09.77-7.08,2.49s-4.28,3.68-6.89,3.32a10.48,10.48,0,0,0,3.24-9.81,4.1,4.1,0,0,0-.9-2c-1.37-1.46-3.84-.84-5.48.31-5.2,3.66-6.65,10.72-6.68,17.08-.52-2.29-.08-4.68-.09-7s-.66-5-2.64-6.23a8,8,0,0,0-4-.94c-2.34-.09-4.94.14-6.54,1.85-2,2.13-1.47,5.69.26,8s4.35,3.81,6.76,5.42a14.91,14.91,0,0,1,4.84,4.61,4.73,4.73,0,0,1,.36.83h14.65A41,41,0,0,0,1030.78,763.11Z"/><path class="cls-3" d="M59.35,679.26s5.49,7.18-2.54,18-14.65,20-12,26.76c0,0,12.11-20.14,22-20.43S70.19,691.37,59.35,679.26Z"/><path class="cls-2" d="M59.35,679.26a8.93,8.93,0,0,1,1.12,2.25c9.62,11.3,14.74,21.85,5.5,22.11-8.62.25-19,15.65-21.43,19.54a7.76,7.76,0,0,0,.3.89s12.11-20.14,22-20.43S70.19,691.37,59.35,679.26Z"/><path class="cls-7" d="M69.56,688.41c0,2.53-.29,4.58-.64,4.58s-.63-2-.63-4.58.35-1.34.71-1.34S69.56,685.88,69.56,688.41Z"/><path class="cls-7" d="M73,691.43c-2.22,1.21-4.15,1.94-4.32,1.63s1.5-1.53,3.72-2.74,1.34-.33,1.51,0S75.28,690.22,73,691.43Z"/><path class="cls-3" d="M30.33,679.26s-5.49,7.18,2.53,18,14.65,20,12,26.76c0,0-12.12-20.14-22-20.43S19.48,691.37,30.33,679.26Z"/><path class="cls-2" d="M30.33,679.26a8.61,8.61,0,0,0-1.12,2.25c-9.62,11.3-14.75,21.85-5.5,22.11,8.61.25,19,15.65,21.42,19.54-.08.3-.18.59-.29.89,0,0-12.12-20.14-22-20.43S19.48,691.37,30.33,679.26Z"/><path class="cls-7" d="M20.12,688.41c0,2.53.28,4.58.63,4.58s.63-2,.63-4.58-.35-1.34-.7-1.34S20.12,685.88,20.12,688.41Z"/><path class="cls-7" d="M16.61,691.43c2.22,1.21,4.16,1.94,4.33,1.63s-1.5-1.53-3.72-2.74-1.35-.33-1.51,0S14.39,690.22,16.61,691.43Z"/><path class="cls-8" d="M21.87,723.11s15.36-.47,20-3.77,23.63-7.23,24.78-2,23.08,26.3,5.74,26.44-40.29-2.71-44.91-5.52S21.87,723.11,21.87,723.11Z"/><path class="cls-9" d="M72.68,742c-17.34.14-40.29-2.71-44.91-5.52-3.52-2.14-4.92-9.83-5.39-13.38h-.51s1,12.39,5.59,15.2S55,744,72.37,743.81c5,0,6.73-1.83,6.64-4.46C78.31,741,76.41,742,72.68,742Z"/><path class="cls-4" d="M409.32,414.34c5.87-.33,33.5-2.41,51.05-12.42a19.82,19.82,0,0,1,9.27-2.73c5.58-.16,12,2.17,7.89,15.21-6.66,21.33-45.33,45.33-69.33,44-23.08-1.28-50.46-10.58-68.54-43.28a20,20,0,0,1-2.47-10.29c.21-6.6,2.61-14.87,15-5.65,16.74,12.45,48.5,14.81,54.87,15.16A21.3,21.3,0,0,0,409.32,414.34Z"/><path class="cls-4" d="M631.32,414.34c5.87-.33,33.5-2.41,51-12.42a19.82,19.82,0,0,1,9.27-2.73c5.58-.16,12,2.17,7.89,15.21-6.66,21.33-45.33,45.33-69.33,44-23.08-1.28-50.46-10.58-68.54-43.28a20,20,0,0,1-2.47-10.29c.21-6.6,2.61-14.87,15-5.65,16.74,12.45,48.5,14.81,54.87,15.16A21.3,21.3,0,0,0,631.32,414.34Z"/></g></g></svg>