<svg xmlns="http://www.w3.org/2000/svg" viewBox="0 0 229 578.16"><defs><style>.cls-1{fill:#9e616a;}.cls-2{fill:#2f2e41;}.cls-3{fill:#f0f0f0;}.cls-4{opacity:0.1;isolation:isolate;}</style></defs><title>findTutorImage2</title><g id="Layer_2" data-name="Layer 2"><g id="fbe6a470-e545-4a3c-ab88-8fc38f19e601"><polygon class="cls-1" points="168.09 532.11 180.81 547.38 149.76 557.57 148.24 537.2 168.09 532.11"/><polygon class="cls-1" points="52.53 524.48 64.24 543.31 54.06 552.98 36.76 550.44 35.23 530.59 52.53 524.48"/><path class="cls-2" d="M116.67,271.48c15.79,1,10.69,91.63,17.31,104.36s6.62,51.41,6.62,51.41,20.87,77.88,26,80.43,1,1.53,0,3.56,1.53,3.06,1.53,3.06,3,1,3,5.6-.51,4.58-2,7.63,6.1,4.58,5.09,7.64-26,10.18-26,10.18-3.57-8.15-3.57-11.71-1.52-1-5.6-1-2.54,0-.51-3.56S135,526.51,133,526s-3.56,0-1-8.65,0-.51-4.59-2.54S102.93,441,102.93,441l-38.69-73.3s-20.87-24.43-38.18-49.38-3.56-41.23-3.56-41.23S100.89,270.46,116.67,271.48Z"/><path class="cls-2" d="M76,360.57S65.26,415,67.3,421.65s-5.09,21.89-5.09,21.89L56.1,489.86s2.54,3.57,4.58,6.62-2.55,1.53-6.62,3,.51,1.53,4.58,5.6-.51,3.06-3.56,5.6,0,0,5.09,5.6-1.53,1.53-4.07,4.08,4.07,14.25,4.07,14.25l-26,2.54s-2-9.67-6.11-13.74-2.54-5.09,0-8.65,0-1.53-3.05-5.6.51-1-4.58-24.44S30.65,385,30.65,385l-3.06-78.9Z"/><path class="cls-2" d="M57.63,541.28s-1.53-16.29.5-16.8,6.11,7.63,6.11,7.63,17.82,11.2,27.49,11.2,7.64,12.22,7.64,14.26S88.68,565.2,76,565.2s-23.41,7.13-28.51,8.65-14.76-.5-21.37-2.54,4.58-29.53,6.1-32.58,6.62,2,6.62,2C45.92,552.47,57.63,541.28,57.63,541.28Z"/><path class="cls-2" d="M172.16,544.84s1-17.82,2-18.84,4.58,9.17,4.58,9.17,22.4,14.76,34.61,14.25,14.77,6.11,14.77,6.11c5.09,11.71-14.26,20.36-21.38,18.83s-38.18,2-49.89,3.57-15.78-5.09-15.78-5.09-3.06-31.56,1.53-34.11,9.16,8.65,9.16,8.65C158.93,553.49,172.16,544.84,172.16,544.84Z"/><circle class="cls-1" cx="85.11" cy="48.52" r="29.52" transform="matrix(0.02, -1, 1, 0.02, 35.23, 132.84)"/><path class="cls-1" d="M94.79,69.39C86.13,76,79,107.06,79,107.06S35.23,88.23,40.83,85.17,62.21,50.56,62.21,50.56,103.44,62.77,94.79,69.39Z"/><path class="cls-1" d="M124.31,306.1c7.13,14.25-14.76,21.89-14.76,21.89l-2-19.35Z"/><path class="cls-3" d="M116.16,246.54l-4.58-21.89s4.08-22.9,0-29.52-2-79.92-14.25-84.51c0,0-9.6-5.09-18.77-9.9-8-4.2-15.63-8.19-16.35-8.42-1.43-.48-53.41,20.07-58.66,52a32.67,32.67,0,0,0-.39,6.55c1.53,35.63,10.68,59,10.68,59l-3.05,49.89L21,270.46l-1,11.71s80.93,13.74,96.2-2.54S116.16,246.54,116.16,246.54Z"/><path class="cls-4" d="M89.18,255.52l21.67,45.3L103,322.15V307.9l-11.2-6.11s-33.09-83-36.14-112S66.83,118,66.83,118C116.2,99.19,89.18,255.52,89.18,255.52Z"/><path class="cls-4" d="M78.56,100.72c-8-4.2-15.63-8.19-16.35-8.42-1.43-.48-53.41,20.07-58.66,52,2.79,4.44,7.65,5.27,16.06-2.95C43,118.44,65.43,97.05,80.2,105.2Z"/><path class="cls-3" d="M19.61,137.4C-3.8,160.31.27,113,.27,113L4.85,84.46c27.49-19.85,69.23,0,69.23,0l6.11,16.8C65.43,93.12,43,114.5,19.61,137.4Z"/><path class="cls-3" d="M120.75,258.76s-1,16.79,4.58,19.85-2.55,13.23-2.55,13.23l5.09,16.8-23.41,6.62V301l-11.2-6.11s-33.09-83-36.14-112,11.2-71.78,11.2-71.78C117.69,92.3,120.75,258.76,120.75,258.76Z"/><path class="cls-2" d="M39.47,65.61c-4.85-4.06-5.72-10.86-6.25-16.86-1.39-15.89,4-37.2,19.08-45.25C62.73-2.06,75.5-.1,86.85,3.2c8.6,2.51,17.27,5.87,23.69,12.12s10.13,16,7.12,24.42c-3.59.93-7.25-.81-10.76-2s-8-1.62-10.4,1.16c-1.17,1.34-1.61,3.16-2.49,4.71-2.22,3.87-7,5.57-11.43,5.88S73.65,49,69.2,49.4c-3.49.3-7.26,1.6-8.9,4.68-1.09,2.06-1,4.52-1.51,6.8C56.64,71,46.58,71.55,39.47,65.61Z"/></g></g></svg>