<svg xmlns="http://www.w3.org/2000/svg" xmlns:xlink="http://www.w3.org/1999/xlink" viewBox="0 0 952.71 669.75"><defs><style>.cls-1{fill:#fff;}.cls-2,.cls-7{fill:#007bff;}.cls-10,.cls-2{opacity:0.2;}.cls-12,.cls-2,.cls-5{isolation:isolate;}.cls-3{fill:url(#linear-gradient);}.cls-4{fill:#65617d;}.cls-17,.cls-5{opacity:0.1;}.cls-6{fill:#fbbebe;}.cls-8{fill:#3f3d56;}.cls-9{fill:#e7effd;}.cls-11{fill:url(#linear-gradient-2);}.cls-12{opacity:0.05;}.cls-13{fill:#ee8e9e;}.cls-14{fill:#e3e8f4;}.cls-15{fill:#e6e8ec;}.cls-16{fill:#565387;}.cls-18{fill:#f1f1f1;}.cls-19{fill:#2f2e41;}.cls-20{fill:url(#linear-gradient-3);}.cls-21{fill:#be6f72;}.cls-22{fill:#444053;}.cls-23{fill:#f3f5f9;}.cls-24{fill:#67647e;}.cls-25{fill:none;}</style><linearGradient id="linear-gradient" x1="-115.28" y1="3438.17" x2="-115.28" y2="3693.89" gradientTransform="matrix(1, 0, 0, -1, 216, 4107.92)" gradientUnits="userSpaceOnUse"><stop offset="0" stop-color="gray" stop-opacity="0.25"/><stop offset="0.54" stop-color="gray" stop-opacity="0.12"/><stop offset="1" stop-color="gray" stop-opacity="0.1"/></linearGradient><linearGradient id="linear-gradient-2" x1="624.21" y1="3441.59" x2="624.21" y2="3709.42" xlink:href="#linear-gradient"/><linearGradient id="linear-gradient-3" x1="-325.4" y1="3806.03" x2="-325.4" y2="4107.92" gradientTransform="translate(46.26 4107.92) rotate(180)" xlink:href="#linear-gradient"/></defs><g id="Layer_2" data-name="Layer 2"><g id="Layer_1-2" data-name="Layer 1"><path class="cls-1" d="M600,197.16V574.94c0,11.24-10.83,20.37-24.21,20.37H63.25c-13.38,0-24.22-9.13-24.22-20.37V197.16c0-11.26,10.84-22.73,24.22-22.73H575.82C589.2,174.43,600,185.9,600,197.16Z"/><path class="cls-2" d="M600,198.65V258H39V198.65a24.22,24.22,0,0,1,24.2-24.22H575.82A24.2,24.2,0,0,1,600,198.63Z"/><circle class="cls-1" cx="69.8" cy="216.23" r="16.19"/><circle class="cls-1" cx="116.91" cy="216.23" r="16.19"/><circle class="cls-1" cx="164.03" cy="216.23" r="16.19"/><path class="cls-3" d="M175.14,594.62s-15.66,3.79-21.86,10.87a21.06,21.06,0,0,1-8.33,5.3V600.08c3.58-6,7.19-12.71,7.19-12.71.17-.33,1.47-4.94,1.47-4.94,2.94-2.31-.16-10.38-.16-10.38s1.79-5.1.81-6.09-.16-3.63.65-4.78a5.93,5.93,0,0,0,.66-3.62c0-1-1.31-2.47-3.43-3.3s.17-2.14,1.47-2.47,1.63-3.46.16-5.11.17-2.63,1-4.44-2.61-1.49-2.61-1.49V524.12h0s-1-5.44-1.95-15-4.74-10.54-4.74-10.54a42.78,42.78,0,0,1-5.87-2.3,40.16,40.16,0,0,0-6.2-2.31,31.74,31.74,0,0,1-8-1.1,24.33,24.33,0,0,0-5.45-1.18l-.59-.3a21.33,21.33,0,0,1-9.9-10.48c-.1-.23-.19-.45-.28-.68a23.09,23.09,0,0,0,2.6-3.45l0,0c0,.17,0,.33,0,.5v.21c0,.41,0,.82,0,1.22h0v0c2.61-4.59,10.15-5.64,10.87-10.89a5.81,5.81,0,0,0,0-.72v0c0-.18,0-.35,0-.53-.1-1.47-.6-2.92-.7-4.41a9,9,0,0,1,0-1.27v0c.34-4.08,3.41-7.62,4.82-11.58a13.74,13.74,0,0,0,.73-3.29v0c0-.34.06-.68.07-1v-.25c0-.24,0-.47,0-.71a15.41,15.41,0,0,0-5.09-11.13c-2.6-2.26-6-3.68-7.84-6.63-.84-1.38-1.25-3-2.17-4.32-1.72-2.5-4.89-3.52-7.89-3.88s-6.08-.24-8.94-1.18c-2-.67-3.88-1.85-5.93-2.44a11.33,11.33,0,0,0-12.19,4.39c-1.09,1.58-1.79,3.47-3.25,4.7-3,2.53-8.06,1.43-10.68,4.35-1.44,1.6-1.6,3.78-1.43,6V434c0,.17,0,.34,0,.51l0,.25,0,.25c.09.8.21,1.6.31,2.36,0,.12,0,.24,0,.36s0,.47.08.71,0,.35,0,.52,0,.43.05.65l0,.51a35.1,35.1,0,0,1-3.74,17.57c-2.47,4.84-6.14,9.3-6.78,14.71a15.89,15.89,0,0,0-.07,2.67c0,.11,0,.21,0,.32s0,.32,0,.48l.06.55c0,.1,0,.21,0,.31s.07.49.11.73l0,.16c.65,3.68,2.12,7.32,2.9,11a31,31,0,0,1,.58,4.17v0c0,.44,0,.89.07,1.33,0,.61,0,1.21,0,1.81a28.25,28.25,0,0,1-3.8,1.17c-2.28.33-9,6.26-8.48,7.75s-3,11.87-3.1,12.18h0l-5.5,37.89s-2.91,2.8-2,4.61-.18,5-.18,5-4.91,2.14-3.82,3.45.6,3.79-.15,5.44-2,4.61,0,5.11.33,6.92.33,6.92,6.89-.79,6.38,3.29c-.16,1.3,4.82,4.88,6.9,6.31v19.68a60.24,60.24,0,0,1-8.16-2.76c-4.24-2-28-5.77-33.27,5.6S8.44,644,11.54,645.69c0,0,2.94,2.3,3.59,3.45s4.41,1.49,4.41,1.49,3.91,1.81,4.89,2.8c.72.73,6.68,2.62,13.75,4.09h0s-5.71,13.15,3.61,12.06,13.85-5.66,20.41-5.66c2.63,0,7.5-.37,12.41-.81a32.09,32.09,0,0,1,3.64.86,46.51,46.51,0,0,0,8.49,1.81s7.34,4,11.25,3a2.48,2.48,0,0,0,.89-.48l.09,0a5.27,5.27,0,0,0,2.36-2c4.9.5,10.47,1.22,12.57,2,4.06,1.56,33.08-.61,33.08-.61s18.74.37,24.12,2,3.46-16.59-6.45-18.64a41.19,41.19,0,0,0-8.07-.71,17.79,17.79,0,0,0,1.88-2.28l5.92-.52s9.46-4.61,14.84-7.42a33.72,33.72,0,0,0,9.13-7.24s4.73-3,6.69-4.12,2.94-4.94,2.94-4.94C212.82,590.17,175.14,594.62,175.14,594.62Zm-42.48-42.15c0-.56,0-1.11,0-1.67.52.38.44,1,0,1.67Zm.16,11.65c.39.52.78,1,1.05,1.34,1.06,1.36-.85,2-.71,4.28,0,.51.07,1.21.12,2h0c-.2-3.25-.36-5.94-.46-7.62Z"/><path class="cls-4" d="M47.92,616.1S38.78,614,34.54,612s-28-5.71-33.27,5.54,7.17,26.26,10.27,27.89,33.28-20.71,33.28-20.71l23.81,10L73.2,619.2Z"/><rect class="cls-4" x="57.99" y="619.2" width="103.62" height="36.05" rx="16.59"/><path class="cls-5" d="M161.6,637.22a18,18,0,0,1-18,18H76a18,18,0,0,1,0-36h67.57a18,18,0,0,1,18,18Z"/><path class="cls-6" d="M105.19,638.28S94.8,641,86.32,640.83s-48.14,16.35-48.14,16.35-5.71,13,3.61,11.94,13.85-5.61,20.41-5.61,27.23-2.27,27.23-2.27l19.88-14.68Z"/><path class="cls-6" d="M111.69,515.47l-18.64,3.67-1.21.24s-14.73-3.91-15.22-4.24-13.86-18.35-13.86-18.35,6.76.07,12.08-3l.56-.34a11.86,11.86,0,0,0,5-6.16c.09-.27.17-.55.25-.84a16.49,16.49,0,0,0-.15-8c-1.8-7.61,2.37-9.7,7.93-9.52,8,.26,19,5.28,19,5.28a22.18,22.18,0,0,0,1.72,7.44c.08.22.18.44.28.66a21.19,21.19,0,0,0,9.9,10.39l.59.29c.59.28,1.21.55,1.87.79C136,499.16,111.69,515.47,111.69,515.47Z"/><path class="cls-5" d="M109.45,482.3a23.49,23.49,0,0,1-29,5,15.8,15.8,0,0,0,.1-8.86c-4.41-18.6,26.91-4.24,26.91-4.24A22.5,22.5,0,0,0,109.45,482.3Z"/><path class="cls-6" d="M115.33,465.78a23.49,23.49,0,0,1-22.07,23.45c-.47,0-.94,0-1.42,0a23.49,23.49,0,1,1,23.49-23.49Z"/><path class="cls-5" d="M111.69,515.47l-18.64,3.67-1.21.24s-14.73-3.91-15.22-4.24-13.86-18.35-13.86-18.35,6.76.07,12.08-3l.56-.34a21.87,21.87,0,0,0,15.9,7,22.85,22.85,0,0,0,3.31-.27c2.63-.4,5.27-.66,7.91-.93,5-.53,12.77-2.06,16.83-6.52l.59.29c.59.28,1.21.55,1.87.79C136,499.16,111.69,515.47,111.69,515.47Z"/><path class="cls-7" d="M132.73,563.09c.16,3.59,2.78,44,2.78,44H54.11l.56-25.46.44-20.37.15-6.69.65-23.16-2.36-2.07L40.74,518.07h0c.1-.31,3.58-10.62,3.1-12.06s6.2-7.34,8.48-7.67a28.66,28.66,0,0,0,3.83-1.17c3.84-1.35,9-3.33,9.54-3,.8.43,8.81-.32,9.15-.35h0a21.83,21.83,0,0,0,16.45,7.59,22.85,22.85,0,0,0,3.31-.27c2.63-.4,5.27-.66,7.91-.93,5.3-.55,13.55-2.22,17.42-7.21a24.31,24.31,0,0,1,5.45,1.17,32.19,32.19,0,0,0,8,1.09,40,40,0,0,1,6.2,2.28,42.73,42.73,0,0,0,5.87,2.29s3.76,1,4.74,10.43,1.95,14.85,1.95,14.85l-19.41,16.8S132.57,559.5,132.73,563.09Z"/><polygon class="cls-6" points="40.74 591.31 43.59 595.88 54.28 599.64 61.62 586.25 54.85 581.69 44 577.45 37.8 581.03 40.74 591.31"/><path class="cls-4" d="M131.92,613.82s15.17-1.14,21.36-8.16,21.86-10.76,21.86-10.76,37.68-4.41,22.84,28.87c0,0-1,3.75-2.94,4.89s-6.69,4.08-6.69,4.08l-57.89-5.06Z"/><path class="cls-5" d="M161.6,637.22a18,18,0,0,1-3,10c-9.73.86-31.3,2.89-35.82,4.15-5.54,1.53-16.76-1.14-18-1.45l-.11,0s-2.16-6.56-3.2-10.76c-.46-1.91-.7-3.33-.39-3.43,1-.33,10-2.78,9.78-1.39s26.92-10.52,26.92-10.52l.83,10.44C141.38,637.37,161.6,632.69,161.6,637.22Z"/><path class="cls-4" d="M189.49,628.5l-1.14,4.24a34,34,0,0,1-9.13,7.18c-5.38,2.77-14.84,7.34-14.84,7.34s-34.75,2.93-40.62,4.56-18.1-1.46-18.1-1.46-4.57-13.87-3.59-14.19,10-2.78,9.78-1.39,26.92-10.52,26.92-10.52Z"/><path class="cls-6" d="M92.77,665.07s17.07,1.19,21.13,2.74,33.08-.6,33.08-.6,18.74.37,24.12,2,3.46-16.42-6.45-18.45-23.88,1-23.88,1l-17.67-2.27c-1.91-.24-14.51.12-14.51.12Z"/><path class="cls-5" d="M25.67,620.05s22.56,2,28.77,5.73Z"/><path class="cls-5" d="M166.44,605.25s-17.67,4.29-24.6,10.62Z"/><path class="cls-5" d="M27,614.92c.36.12,10.39,1.43,10.15,2.39S27,614.92,27,614.92Z"/><path class="cls-5" d="M11.22,640.08l1.3,4.89a21.2,21.2,0,0,1,3.59,3.43c.65,1.14,4.4,1.47,4.4,1.47s3.92,1.79,4.9,2.77S37,656.72,46.94,658s28.38,3.75,32.29,5.06a46.53,46.53,0,0,0,8.48,1.79s7.34,3.92,11.26,2.94,10.6-18.76,10.6-18.76-25.77-6-26.59-8S57.38,630,57.38,630l-14.68.35Z"/><path class="cls-4" d="M10.24,640.57l1.3,4.89a21.2,21.2,0,0,1,3.59,3.43c.65,1.14,4.4,1.47,4.4,1.47s3.92,1.79,4.9,2.77S36,657.21,46,658.51s28.38,3.75,32.29,5.06a46.46,46.46,0,0,0,8.49,1.79s7.34,3.92,11.25,2.94,10.6-18.76,10.6-18.76-25.77-6-26.58-8-37.19-16.8-37.19-16.8L33.4,622.14Z"/><path class="cls-7" d="M43.59,516.44l-2.85,1.63-5.5,37.52s-2.91,2.77-2,4.57-.18,4.89-.18,4.89-4.91,2.12-3.82,3.43.6,3.75-.15,5.38-2,4.56,0,5,.33,6.85.33,6.85S36.31,585,35.8,589c-.2,1.63,7.79,6.85,7.79,6.85s-9.08-16.48,11.26-14.19l1.75-9.29s1.75-5.23,0-6.86.39-9.38.39-9.38l.39-33.68Z"/><path class="cls-5" d="M39.16,564.89c.36.6,11.34,1.81,12.06,3.77S39.16,564.89,39.16,564.89Z"/><path class="cls-5" d="M35.7,574.2s1.49-4.65,5-3.82S35.7,574.2,35.7,574.2Z"/><path class="cls-5" d="M33.79,581s2.62-6.21,6.2-5.73S33.79,581,33.79,581Z"/><path class="cls-6" d="M153.28,580.87l-1.14,6.85s-11.74,21.53-13.86,21.86-13.7-14.35-13.7-14.35l-3.1-14.36,12.2-2.31,5.41-5.35S152.79,574.51,153.28,580.87Z"/><path class="cls-7" d="M147.74,522l4.4,3.1v16.47s3.43-.32,2.61,1.47-2.44,2.77-1,4.4,1.14,4.73-.16,5.06-3.59,1.63-1.47,2.45,3.43,2.28,3.43,3.26a5.83,5.83,0,0,1-.66,3.59c-.81,1.14-1.63,3.75-.65,4.73s-.81,6-.81,6,3.1,8,.16,10.28c0,0-1.3,4.57-1.47,4.89,0,0,2.06-15.88-18.46-9.16,0,0-.38-6-.52-8.3s1.77-2.89.71-4.23-3.69-4.41-2.44-5.22.81-2.28.32-3.43-2.21-1.14-.65-2.52,2.49-2.69,1.57-3.35-2.51-2.77-1.24-3.75,1.3-15.17,1.3-15.17S138,511.71,147.74,522Z"/><path class="cls-5" d="M145.66,550.05s6.27-1.7,6.48,0S145.66,550.05,145.66,550.05Z"/><path class="cls-5" d="M138.62,554.74s8.6-2.15,9.67-.48S138.62,554.74,138.62,554.74Z"/><path class="cls-5" d="M136.71,559.28s12.89-1.79,13.73.83S136.71,559.28,136.71,559.28Z"/><path class="cls-5" d="M138.62,564.89c.48.12,12.42,1,12.66,3.22S138.62,564.89,138.62,564.89Z"/><rect class="cls-8" x="42.7" y="572.24" width="102.25" height="58.08" rx="10.47"/><circle class="cls-9" cx="93.82" cy="601.28" r="3.77"/><path class="cls-5" d="M59.82,536.65s9.8,7.49,17.38,1.78C77.2,538.43,64.39,539.59,59.82,536.65Z"/><path class="cls-5" d="M109.45,538.66s9.8,7.49,17.38,1.78C126.83,540.44,114,541.61,109.45,538.66Z"/><path class="cls-5" d="M115.33,465.78a23.24,23.24,0,0,1-3.56,12.43,35.69,35.69,0,0,0-5.29-18.54c-3.26-5-13.16-13.78-20-11.34a4.83,4.83,0,0,0-3,3.2c-.67,2.56,1.3,3.63,2.57,5.67a17.39,17.39,0,0,1,2.37,11.72,15.22,15.22,0,0,1-.34,1.63c-1.07,4-3.53,8.62-1,11.92,1.76,2.3,5.56,3.1,6.07,5.95a3.16,3.16,0,0,1,.05.81c-.11,1.92-1.75,3.61-2.47,5.5-.84,2.22-.36,4.43.51,6.66,1.13,2.91,2.94,5.85,3.37,8.93s-.5,5.92-1.62,8.82a39.65,39.65,0,0,0-2.69,8.3c-.79,5.43,1.2,11.69-2.21,16a2.39,2.39,0,0,1-1.49,1c-2.19.23-1.82-3.7-3.57-5,.18,2.28.36,4.66-.47,6.8s-3,3.95-5.25,3.59l-.78-5.13a14.68,14.68,0,0,1-5.43,3.4,39.61,39.61,0,0,1,5.67-15.35c-5.75,2.77-9.09,8.76-12.08,14.38-1.87,3.52-3.8,7.37-3.15,11.3.27,1.6,1,3.12,1.11,4.74s-.44,3.49-1.94,4.11A3.51,3.51,0,0,1,57,566.07l-.16-.19a3.09,3.09,0,0,1-.26-.37,6.61,6.61,0,0,1-.44-.77,15.28,15.28,0,0,1-.92-3l-.1-.44c-1.52-6.67-2.89-13.55-1.78-20.29.42-2.49,1.16-5,1.08-7.47a13.77,13.77,0,0,0-.86-4.16c-1.33-3.73-3.89-7.16-5.35-10.92l0-.08c-.77-2-1.14-4.48.28-6.08a12.52,12.52,0,0,1,2.72-1.84c2.84-1.85,4.11-5.36,4.63-8.71a29.16,29.16,0,0,0,.36-4.58c3.84-1.35,9-3.33,9.54-3,.8.43,8.81-.32,9.15-.35a12,12,0,0,0,5.6-6.5c.09-.27.17-.55.25-.84a23.49,23.49,0,1,1,34.64-20.68Z"/><path class="cls-8" d="M88.13,469.57c-1.07,4-3.53,8.62-1,11.93,1.77,2.3,5.56,3.09,6.07,5.94.41,2.26-1.61,4.16-2.42,6.31-1.94,5.12,3.11,10.16,3.88,15.59.83,5.88-3.45,11.25-4.31,17.13-.79,5.42,1.2,11.68-2.21,16a2.39,2.39,0,0,1-1.49,1c-2.19.23-1.82-3.7-3.58-5,.19,2.29.37,4.66-.46,6.8s-3,3.95-5.25,3.59l-.78-5.13a14.83,14.83,0,0,1-5.43,3.41,39.5,39.5,0,0,1,5.67-15.35c-5.75,2.76-9.09,8.75-12.08,14.38-1.87,3.51-3.79,7.36-3.14,11.29.26,1.6,1,3.12,1.1,4.74s-.44,3.49-1.94,4.11a3.56,3.56,0,0,1-3.94-1.37,10.52,10.52,0,0,1-1.62-4.14c-1.55-6.81-3-13.84-1.87-20.73.41-2.49,1.16-4.95,1.06-7.47-.19-5.51-4.26-10-6.24-15.16-.77-2-1.14-4.48.27-6.08a12.83,12.83,0,0,1,2.73-1.84c2.84-1.85,4.11-5.36,4.63-8.7a30.26,30.26,0,0,0-.3-10.9c-1.15-5.36-3.78-10.6-3.13-16.05s4.31-9.77,6.78-14.57a34.48,34.48,0,0,0,3.49-20.14c-.42-3.22-1.16-6.94,1-9.35,2.62-2.88,7.69-1.8,10.68-4.3,1.46-1.22,2.16-3.09,3.25-4.65a11.39,11.39,0,0,1,12.19-4.35c2,.58,3.89,1.75,5.92,2.41,2.87.94,6,.82,9,1.17s6.17,1.37,7.89,3.84c.92,1.32,1.33,2.92,2.17,4.28,1.8,2.92,5.24,4.33,7.84,6.57A15.22,15.22,0,0,1,126.82,451c-1.55,4.32-5.15,8.14-4.84,12.73.12,1.88.93,3.72.67,5.59-.72,5.2-8.27,6.24-10.87,10.79.21-7.46-1.23-15.15-5.3-21.41-3.26-5-13.16-13.78-20-11.34a4.83,4.83,0,0,0-3,3.2c-.67,2.56,1.3,3.63,2.57,5.67A17.29,17.29,0,0,1,88.13,469.57Z"/><g class="cls-10"><path d="M56.14,495.43a30.39,30.39,0,0,0-.65-7c-1-4.56-3-9-3.21-13.61-.26,5.1,2.13,10,3.21,15.08A31,31,0,0,1,56.14,495.43Z"/><path d="M75.58,532.46c.39-.73.81-1.45,1.25-2.15-5.74,2.77-9.09,8.75-12.08,14.38-1.73,3.26-3.5,6.8-3.24,10.42.22-3.11,1.75-6.14,3.24-9C67.51,541,70.59,535.45,75.58,532.46Z"/><path d="M62.68,562a3.46,3.46,0,0,1-1.91,2.86,3.56,3.56,0,0,1-3.94-1.37,10.3,10.3,0,0,1-1.61-4.14A73.48,73.48,0,0,1,53,544.51c-.11,5.45,1,10.93,2.27,16.28a10.36,10.36,0,0,0,1.61,4.14,3.56,3.56,0,0,0,3.94,1.37c1.51-.62,2.09-2.49,1.94-4.11A1.46,1.46,0,0,0,62.68,562Z"/><path d="M88.66,464.66a16.27,16.27,0,0,1-.53,3.47c-.79,3-2.35,6.28-2.06,9.14.21-2.49,1.4-5.19,2.06-7.67A16.8,16.8,0,0,0,88.66,464.66Z"/><path d="M62.92,442.89a34.93,34.93,0,0,0-.28-5.21c-.17-1.27-.39-2.62-.45-3.94a28.78,28.78,0,0,0,.45,5.41A36,36,0,0,1,62.92,442.89Z"/><path d="M93.21,487.48a.53.53,0,0,0,0-.12c-.34,1.7-1.74,3.25-2.39,4.95a7.11,7.11,0,0,0-.4,3.2,6.9,6.9,0,0,1,.4-1.73C91.61,491.63,93.62,489.74,93.21,487.48Z"/><path d="M54.41,531.13c-.2-5.51-4.26-10-6.25-15.17a10.29,10.29,0,0,1-.64-2.51,8.46,8.46,0,0,0,.64,4c2,5.06,5.91,9.51,6.23,14.89C54.41,531.92,54.42,531.53,54.41,531.13Z"/><path d="M106.48,457.25c-3.26-5-13.16-13.78-20-11.34a4.86,4.86,0,0,0-3,3.2,3.46,3.46,0,0,0,0,1.72c0-.08,0-.16,0-.25a4.83,4.83,0,0,1,3-3.2c6.81-2.44,16.71,6.33,20,11.34,3.69,5.67,5.21,12.51,5.31,19.29C111.9,470.76,110.44,463.33,106.48,457.25Z"/><path d="M122.65,467.88c-.72,5.18-8.23,6.23-10.85,10.75,0,.5,0,1,0,1.5,2.61-4.55,10.15-5.59,10.87-10.78a6.61,6.61,0,0,0,0-1.54Z"/><path d="M126.82,449.55c-1.55,4.32-5.14,8.14-4.84,12.73a1.36,1.36,0,0,1,0,.2c.34-4,3.41-7.54,4.82-11.46a14.54,14.54,0,0,0,.8-5.59A14.13,14.13,0,0,1,126.82,449.55Z"/><path d="M88.15,541a2.33,2.33,0,0,1-1.49,1c-2.19.24-1.82-3.69-3.58-5,0,.52.09,1,.12,1.57,1.62,1.4,1.32,5.14,3.46,4.91a2.37,2.37,0,0,0,1.49-1c1.95-2.44,2.14-5.53,2.09-8.74C90.19,536.4,89.8,538.93,88.15,541Z"/><path d="M82.62,543.8c-.83,2.13-3,3.94-5.25,3.59l-.78-5.13a14.77,14.77,0,0,1-5.16,3.29c-.09.53-.19,1.05-.27,1.58a14.94,14.94,0,0,0,5.43-3.4l.78,5.13c2.27.35,4.42-1.46,5.25-3.6a11.43,11.43,0,0,0,.6-4.64A9.59,9.59,0,0,1,82.62,543.8Z"/><path d="M90.36,525a27.54,27.54,0,0,0-.2,4.16,22,22,0,0,1,.2-2.69c.82-5.61,4.75-10.74,4.39-16.31C94.44,515.2,91.11,519.92,90.36,525Z"/></g><path class="cls-1" d="M709.35,100.88v98.18c0,5.19-5,9.4-11.17,9.4H461.78c-6.17,0-11.17-4.21-11.17-9.4V100.88c0-5.19,5-10.48,11.17-10.48h236.4C704.35,90.4,709.35,95.69,709.35,100.88Z"/><path class="cls-2" d="M709.35,101.57V129H450.61V101.57A11.16,11.16,0,0,1,461.77,90.4H698.18a11.16,11.16,0,0,1,11.17,11.16Z"/><circle class="cls-1" cx="464.8" cy="109.68" r="7.47"/><circle class="cls-1" cx="486.53" cy="109.68" r="7.47" transform="translate(199.01 517.2) rotate(-67.5)"/><circle class="cls-1" cx="508.26" cy="109.68" r="7.47"/><circle class="cls-7" cx="658.39" cy="168.08" r="29.2"/><rect class="cls-7" x="472.96" y="148.43" width="123.14" height="4.35"/><rect class="cls-2" x="472.96" y="159.02" width="123.14" height="4.35"/><rect class="cls-2" x="472.96" y="169.62" width="123.14" height="4.35"/><rect class="cls-2" x="472.96" y="180.21" width="123.14" height="4.35"/><path class="cls-11" d="M952.71,620.49,925,580.37s-.52-9.94-2.33-12.26-.39-7.48-.39-7.48,1.94-2.84.26-3.1-.26-6.57-.26-6.57l-.13-10.07s1.55-9.67.26-12a3.82,3.82,0,0,1,.13-4.13s1.55-5.55,0-7-1.16-10.06-.78-16.89-2.71-10.71-2.71-11.74-10.22-11.1-10.22-12-6.46-4.64-10.34-5.68-5.82-1.8-5.69-2.32-6.08-2.58-6.08-2.58-5.43-.39-7.5-3.09-8.39-3.5-8.57-3.52c0-.18-.09-.36-.12-.54l-.12-.58c.49-.82.94-1.67,1.35-2.53l.36-.79a11,11,0,0,0,6.36-2,8.69,8.69,0,0,0,3.1-6.19,13.54,13.54,0,0,0-1.51-6.87c-1.14-2.33-2.8-4.73-2.23-7.25.25-1.09.91-2.05,1.24-3.11a8.17,8.17,0,0,0-.93-6.11c-1-1.88-2.34-3.52-3.43-5.34a20.73,20.73,0,0,1-2.73-7.54,11.93,11.93,0,0,0-1-4.11,7.51,7.51,0,0,0-2.27-2.29,22.65,22.65,0,0,0-13.9-4.21c-3.52.12-7,1.07-10.52.64a39.45,39.45,0,0,1-6.15-1.61c-4.33-1.28-9.34-1.81-13.11.67s-5.28,7.36-7.84,11.18c-2.26,3.38-5.58,6.21-7.3,9.79A1.66,1.66,0,0,1,810,421a11.54,11.54,0,0,0-1,2.61c-.66,2.81-.11,5.75.57,8.55.36,1.45.84,3,2.09,3.82s3,.62,4.52.89c-.06.24-.12.49-.17.74a29.54,29.54,0,0,0,20.5,34.45c0,.26,0,.53,0,.78a20.67,20.67,0,0,1-.14,2.22h0s-13-2.67-16.49-.87-10.34,3.23-11.38,4.26-3.62.26-5.95,6.32S800,497,797,499.87s-4.52,4.78-4.65,6.84.39,2.58-.78,3.22-2.84,3.36-2.33,4.39c0,0,.65,2.58-1.42,3.87a4.33,4.33,0,0,0-1.81,3.87s-.77,2.84-2.58,3.48-3,4.91-3,4.91l-5.86,6.74L763,524.33a4.91,4.91,0,0,0-6.92-.35l-5.71,5.13a11.27,11.27,0,0,0-5.71,3.4,15.07,15.07,0,0,0-3,4.4l-3.12,2.82a7.92,7.92,0,0,0-.8,8.76l7.44,8.24,0,.06a13.1,13.1,0,0,0-7.2,2.94c-11.12,9.8-11.25,18.83-9.57,23s15.77,20,15.77,20,8.19,10.65,20,16.31h0l-.09.09c-.24.25-.47.52-.7.81l-.19.25-.18.25-.21.31-.16.25c-.08.12-.15.25-.22.37l-.15.25c-.09.16-.17.33-.26.5l-.09.17c-.11.22-.21.46-.32.7,0,.09-.07.18-.1.26s-.14.34-.2.52l-.12.33c-.06.16-.11.33-.17.5s-.07.24-.11.37l-.15.56-.09.35c-.07.3-.14.61-.2.93,0,.12,0,.24-.07.36s-.08.44-.11.67,0,.31-.07.47,0,.42-.07.64,0,.33-.05.49,0,.49-.06.73l0,.46c0,.4,0,.82-.05,1.25-.26,15.09.63,17.28.63,17.28s1.82,4.81,6.86,5.15a9.09,9.09,0,0,0,2.21-.12c6.72-1.16,22.5-3.87,28.06-2.83,3.34.62,9.53-.3,13.94-1.13l1.16-.23.8,2.57,2.56-.7,2.17,1.25,1.37.79c2.55,8.65,12.91,5.7,12.91,5.7l2.46,1.42,25,.64s5.36,3.23,8.84,4.24a7.77,7.77,0,0,0,1.25.28,57.71,57.71,0,0,0,7,.13c1.91,0,3.39-.13,3.39-.13s-.26-6.77-.62-14.36c9.54-.4,18-1,23.11-1.89,13.33-2.34,18.89-14.46,20.94-20.94a62.36,62.36,0,0,1,1.31,8,57.9,57.9,0,0,0,2.06,7,23.61,23.61,0,0,0,2.85,5.16c9.83-3.35,3.88-8.38,1.81-10.58s1.42-4,1.42-4,2.72-1.81,2.46-3.49-.39-3.48,8.4-3.35S952.71,620.49,952.71,620.49ZM816.17,538.12c.11.74,1.34,8.68,2.45,10.77a14.14,14.14,0,0,1,.29,4.25c-5.21-.41-10.64-.64-10.64-.64a1.18,1.18,0,0,1,.28.67l-.82-.19-1.19-.29,9.6-14.6Zm-19,30.25,9,1.43.76.12a30.34,30.34,0,0,0-.47,4.26c0,.13.21.29.5.48a10.88,10.88,0,0,0-.18,2.13c.14.72,4.36,2.26,9.2,3.54-.07.26-.14.5-.2.74h0c-4.27-2.25-11-3.3-11.78-5s-23.66-9.67-23.66-9.67-.84-.44-2.28-1.13l6,1.14,1.66-.17a91.81,91.81,0,0,0,11.4,2.1Z"/><path class="cls-4" d="M923.28,626.1s-3.59,21.65-21.79,24.86-78.94,2.56-78.94,2.56-34.73-5-47.29-34.35-20.63-41-9.87-41.52,68.82,19.61,72.15,19.87S926.48,552.92,923.28,626.1Z"/><path class="cls-12" d="M923.28,626.1s-3.59,21.65-21.79,24.86-78.94,2.56-78.94,2.56-34.73-5-47.29-34.35-20.63-41-9.87-41.52,68.82,19.61,72.15,19.87S926.48,552.92,923.28,626.1Z"/><path class="cls-8" d="M760.37,650.19s1.81,4.77,6.8,5.12a8.9,8.9,0,0,0,2.19-.12c6.67-1.16,22.3-3.85,27.81-2.82,3.32.61,9.45-.3,13.82-1.12,2.9-.55,5-1.06,5-1.06s-5.12-17-5.77-17.56-23.06-14-23.06-14l-17.76-1.27h-.06a9.41,9.41,0,0,0-6,3.54c-1.87,2.27-3.48,6-3.59,12.09C759.5,648,760.37,650.19,760.37,650.19Z"/><path class="cls-12" d="M760.37,650.19s1.81,4.77,6.8,5.12a76.17,76.17,0,0,1-4.82-7l.09-12.43a21.9,21.9,0,0,1,7-18.45h-.06S760,618,759.75,633,760.37,650.19,760.37,650.19Z"/><path class="cls-5" d="M837.41,623,854,610.08l26-25.63s-2.81-.14-7.05-.32c-1,.67-4,2.78-4.12,5.35-.12,3.14-7,.22-10.62,2S837,615.76,834,615.61s-5.51-1.56-6.79.62l-.09.14Z"/><path class="cls-5" d="M763.34,620.92c.59.28,1.19.56,1.8.82,12.56,5.38,28.06,16.66,29.21,18.71.71,1.25,9.7,6.7,16.64,10.8,2.9-.55,5-1.06,5-1.06s-5.12-17.05-5.77-17.56-23.06-14-23.06-14l-17.76-1.27h-.06A9.41,9.41,0,0,0,763.34,620.92Z"/><path class="cls-4" d="M728.48,584.19c1.67,4.1,15.64,19.86,15.64,19.86S753,615.59,765.52,621s28.07,16.66,29.22,18.71c.74,1.32,10.75,7.35,17.8,11.49l1.58.92,3.5,2,1.85,1.07s4.29-3.45,8.57-6.92,8.41-6.86,8.48-7c.13-.39,1.79-4.75,1.41-5-.2-.13-1.09-1.91-2.7-4a18.17,18.17,0,0,0-6.53-5.4c-5.9-2.69-8.46-8.82-8.46-8.82s-.56-.4-1.41-.94a17.06,17.06,0,0,0-5.76-2.57c-2.83-.35-8.08-6.12-8.08-6.12s-3.59-2.31-5-5.25-21.22-16.47-23.06-17.73l48.19,31,11.53,7.41,16.53-12.94,26-25.64-8.58-.38c-12.65-.55-35.1-1.41-37.94-.77a21.43,21.43,0,0,1-7,.46s-6.4.29-10.63-1.94-10.9-3.28-11.67-4.94-23.45-9.6-23.45-9.6S749,551.64,738,561.38,726.82,580.09,728.48,584.19Z"/><path class="cls-13" d="M828.06,490.13l4,13.19,5.13,29.73L856,534.34l5.45-9.05,5.44-9s3.39-12,5.83-23.64c2.16-10.28,3.56-20.26,1.22-21.34-2.08-1-3.45-4.43-4.34-8.15-.11-.46-.21-.93-.31-1.4a74.71,74.71,0,0,1-1.25-9.55s-39.47-2.05-34,14.23a25.71,25.71,0,0,1,1.49,8.65,20.14,20.14,0,0,1-.14,2.2A18.43,18.43,0,0,1,828.06,490.13Z"/><path class="cls-14" d="M819.86,488l1.41,22.42,3.2,19.1,3.59,8.84,3.2,48.38s30.9,3.57,38.42-.06a3.32,3.32,0,0,0,1.36-1.07c9.08-13.7,6.1-53.4,6.1-53.4l3.46-25.63-2.31-13.31-5.57-.59-4.29-.46s-1,1.2-2.37,3.05c-3.8,5-10.79,14.88-10.32,19,.64,5.64-.77,11.4-3,12.3s-4,2.44-4.35.9-.77-1.92-.39-4.1-1.67-8.85-1.67-8.85-3.46-7.81-3.2-11.15-.38-7.17-1.41-8.07-2.43-1.79-1.28-5.89-5.06-12.09-5.06-12.09Z"/><path class="cls-5" d="M860.67,544,862,582.27l7.4,4.11a3.38,3.38,0,0,0,1.36-1.06c9.08-13.71,6.1-53.41,6.1-53.41l3.46-25.63L878,493l-5.57-.6c2.16-10.28,3.56-20.26,1.22-21.34-2.08-1-3.45-4.43-4.34-8.15h0l-4,27.11s.33,2.45.45,5a14.43,14.43,0,0,1-.32,4.77c-.9,2.31-.26,6.41-.26,6.41-2.31,4.07-3.46,11.61-4,18.89C860.38,534.73,860.67,544,860.67,544Z"/><path class="cls-8" d="M869.4,462.28s6.46.8,8.51,3.5,7.43,3.07,7.43,3.07,6.15,2,6,2.56,1.79,1.29,5.64,2.31,10.25,4.74,10.25,5.64,10.12,10.89,10.12,11.92,3.08,4.87,2.69,11.66-.77,15.38.77,16.79,0,6.92,0,6.92a3.8,3.8,0,0,0-.13,4.1c1.29,2.31-.25,11.92-.25,11.92l.13,10s-1.41,6.28.25,6.54-.25,3.07-.25,3.07-1.41,5.13.38,7.44,2.31,12.17,2.31,12.17l27.42,39.86s.39,7.3-8.33,7.17-8.58,1.67-8.33,3.34-2.43,3.46-2.43,3.46-3.46,1.79-1.41,4,7.94,7.18-1.8,10.51a23.94,23.94,0,0,1-2.82-5.13,59.11,59.11,0,0,1-2.05-6.92s-.89-9.74-2.69-11-1.54-7.43-1.54-7.43,2.57-5-1-7.05-55.62-30.89-55.62-30.89l-1.28-38.31s-.9-28.33,4.48-37.81c0,0-.64-4.1.26-6.41s-.13-9.74-.13-9.74Z"/><path class="cls-5" d="M835.82,477.66s-12.89-2.66-16.35-.86S809.22,480,808.19,481s-3.58.25-5.89,6.27-2.56,12.18-5.51,15-4.49,4.74-4.61,6.79.38,2.56-.77,3.2-2.82,3.34-2.31,4.36,26.66,23.58,26.66,23.58,1.28,8.59,2.43,10.77-1.28,32.16-3.84,34.21,17.3,1.87,17.3,1.87.89-19.68,1.66-20.7-.51-22-.51-22-.13-17.94,1.54-22.68,1.48-20.5,1.48-20.5,1.47-9.46,3.26-11.67S835.82,477.66,835.82,477.66Z"/><path class="cls-8" d="M835.43,477.27s-12.88-2.65-16.34-.86-10.25,3.21-11.28,4.23-3.59.26-5.89,6.28-2.57,12.18-5.52,15-4.48,4.75-4.61,6.8.39,2.56-.77,3.2-2.82,3.33-2.3,4.36,26.65,23.58,26.65,23.58,1.28,8.58,2.44,10.76-1.29,32.17-3.85,34.22,17.3,1.86,17.3,1.86.9-19.67,1.67-20.7-.51-22-.51-22S832.29,526,834,521.27s1.48-20.51,1.48-20.51,1.48-9.46,3.27-11.66S835.43,477.27,835.43,477.27Z"/><path class="cls-5" d="M834.08,466.42a25.71,25.71,0,0,1,1.49,8.65,29.37,29.37,0,0,0,33.72-13.33,74.71,74.71,0,0,1-1.25-9.55S828.57,450.14,834.08,466.42Z"/><path class="cls-13" d="M814.6,446.17a29.33,29.33,0,1,0,.64-6.11A29.9,29.9,0,0,0,814.6,446.17Z"/><path class="cls-8" d="M795.76,514.09l-7,2.18s.64,2.56-1.41,3.84a4.3,4.3,0,0,0-1.8,3.85s-.77,2.82-2.56,3.46-3,4.87-3,4.87l-5.89,6.79s-2.18,1.79-1.8,2.69-2.3,1.15-2.3,1.15l1.4,22.81L783.59,568l7.56-.77,6.15-2.3,5.38-3.21,2.44-6.28,10.76-16.4Z"/><path class="cls-13" d="M771.8,544.72s-15.64-22.56-27.3-10.38,4.74,31.91,8.59,31.27,22.17-1.67,22.17-1.67Z"/><rect class="cls-8" x="727.94" y="504.71" width="63.54" height="81.83" rx="1.54" transform="translate(-71.62 974.3) rotate(-62.96)"/><rect class="cls-7" x="733.9" y="511.16" width="51.83" height="68.78" transform="translate(-71.49 974.36) rotate(-62.96)"/><circle class="cls-15" cx="726.79" cy="528.7" r="1.13"/><circle class="cls-15" cx="793.11" cy="562.68" r="1.86"/><path class="cls-13" d="M761.68,549.46c-.13,16.92,34.85,20.5,34.85,20.5l8.94,1.42,4,.64,1.66-16.54s-1.83-.27-4.12-.8c-3.39-.79-7.78-2.16-8.69-4.07C796.79,547.41,761.8,532.54,761.68,549.46Z"/><path class="cls-5" d="M815.24,440.06a3.53,3.53,0,0,1,2.15,1c1,1.05,1,2.91,2.33,3.55a2.59,2.59,0,0,0,1.53.18c3.41-.48,5.38-4.33,8.65-5.39a8.7,8.7,0,0,1,5.73.5,4.17,4.17,0,0,1,1.9,1.21c1.1,1.42.33,3.51.84,5.22.7,2.38,3.54,3.33,6,3.64s5.24.48,6.88,2.34a6.26,6.26,0,0,1,1.22,5,3.9,3.9,0,0,0,0,1.83c.68,1.92,4,1.64,4.88.12.63-1.1.44-2,1.93-2.32a6.26,6.26,0,0,1,3.14.54,22.87,22.87,0,0,0,8.12,1.24,29.35,29.35,0,1,0-55.28-18.58Z"/><path class="cls-8" d="M852.45,458.31a4,4,0,0,1,0-1.84,6.26,6.26,0,0,0-1.22-5c-1.64-1.86-4.42-2-6.88-2.34s-5.3-1.26-6-3.64c-.51-1.71.26-3.8-.84-5.21a4.16,4.16,0,0,0-1.89-1.22,8.73,8.73,0,0,0-5.74-.5c-3.27,1.06-5.24,4.91-8.65,5.39a2.52,2.52,0,0,1-1.53-.18c-1.29-.64-1.34-2.5-2.33-3.55-1.56-1.65-4.51-.58-6.42-1.81-1.24-.8-1.72-2.36-2.07-3.79-.67-2.79-1.22-5.71-.56-8.5,1.11-4.77,5.37-8,8.09-12.11,2.54-3.79,4-8.6,7.77-11.11s8.7-1.94,13-.66a38.67,38.67,0,0,0,6.09,1.59c3.46.43,6.94-.51,10.43-.63a22.37,22.37,0,0,1,13.77,4.18,7.53,7.53,0,0,1,2.25,2.28,11.54,11.54,0,0,1,1,4.08,20.82,20.82,0,0,0,2.71,7.5c1.08,1.8,2.43,3.43,3.4,5.3a8.2,8.2,0,0,1,.92,6.07c-.33,1.05-1,2-1.22,3.08-.58,2.51,1.07,4.9,2.2,7.21a13.59,13.59,0,0,1,1.5,6.83,8.62,8.62,0,0,1-3.07,6.14,11.09,11.09,0,0,1-6.5,2,23.3,23.3,0,0,1-8.28-1.24,6.38,6.38,0,0,0-3.14-.54c-1.49.3-1.3,1.22-1.93,2.32C856.45,459.94,853.13,460.23,852.45,458.31Z"/><path class="cls-5" d="M836.65,623.79l16.53-12.94,26-25.64-8.58-.38a5.65,5.65,0,0,0-1.82,3.5c-.12,3.13-7,.22-10.62,2S837,614.6,834,614.46s-5.51-1.56-6.79.62l-.09.14a3.7,3.7,0,0,1-2,1.16Z"/><path class="cls-4" d="M803.32,622.89l8.31,26.52,1.31,4.16,3.95-1.08,8.72-2.4,38.84-10.67a33.57,33.57,0,0,0,14-3.73,42.43,42.43,0,0,1,24.14-5.26c5.13.48,10.84-1.73,15.58-10.49,0,0,10.77-31.78-16.4-40.88s-28.47,4.84-28.47,4.84l-.37.23c-1,.67-4,2.78-4.12,5.35-.12,3.14-7,.22-10.62,2S837,615.76,834,615.61s-5.51-1.56-6.79.62l-.09.14c-1,1.31-3.8,1.61-5.69,1.67-1,0-1.78,0-1.78,0l-.24.07-2,.59Z"/><path class="cls-5" d="M805.47,571.38l4,.64,1.66-16.54s-1.83-.27-4.12-.8C807.63,557,806.25,565.9,805.47,571.38Z"/><path class="cls-5" d="M910.26,494.13s11.92-3.46,9,30.38-25,55.23-25,55.23-25.37,11.15-36.78,9.36a198.28,198.28,0,0,0-19.73-2.18,28.85,28.85,0,0,0-11.53-3.08c-6.41-.26-19.87-4.23-20.13-5.51s3.34-20.12,1.8-21.53c0,0,17.94.74,19.73,2s4.36.37,6.28,0,7.82-5.49,19.48-1c0,0,4,.38,5.51-.65s4-.25,4-.25a11.26,11.26,0,0,0,2.79-1.41c.38-.51,3.46,0,3.46,0a1.36,1.36,0,0,0,1.82-.63,1.08,1.08,0,0,0,.1-.27,8.36,8.36,0,0,1,1.79-2.82s3.46-19.48,10-26.78c0,0,1.92-1.67,1.41-3.72S894.89,490,910.26,494.13Z"/><path class="cls-8" d="M910,491.53s11.92-3.46,9,30.38-25,55.23-25,55.23-25.37,11.15-36.78,9.36-19.74-2.18-19.74-2.18a29,29,0,0,0-11.53-3.08c-6.41-.25-19.86-4.23-20.12-5.51s3.33-20.12,1.79-21.53c0,0,18,.74,19.74,2s4.36.37,6.28,0,7.82-5.49,19.48-1c0,0,4,.38,5.51-.64s4-.26,4-.26a11.2,11.2,0,0,0,2.78-1.41c.39-.51,3.46,0,3.46,0a1.36,1.36,0,0,0,1.82-.63.79.79,0,0,0,.1-.27,8.54,8.54,0,0,1,1.8-2.82s3.46-19.48,10-26.78c0,0,1.93-1.67,1.41-3.72S894.57,487.43,910,491.53Z"/><path class="cls-5" d="M817.39,618.68l16.93,20.48a.4.4,0,0,0,.1-.12c.13-.38,1.79-4.74,1.41-5s-3.33-6.66-9.23-9.35a17.53,17.53,0,0,1-7.24-6.6Z"/><path class="cls-5" d="M817.62,654.12l1.85,1.07s4.29-3.45,8.57-6.92,8.41-6.86,8.48-7c.13-.39,1.79-4.75,1.41-5-.2-.13-1.09-1.91-2.7-4-11.48-3.22-4.17,4.75-3.2,5.11,0,0-14-3.2-14.73,12A17.53,17.53,0,0,0,817.62,654.12Z"/><path class="cls-8" d="M831.77,660.57l2.44,1.41,24.73.64a50,50,0,0,0,8.76,4.21,6.53,6.53,0,0,0,1.24.27,56.56,56.56,0,0,0,6.89.14c1.9,0,3.36-.14,3.36-.14s-1.17-31.19-2.05-34.47c-.42-1.57-2.49-1.22-4.54-.44a31.17,31.17,0,0,0-4.43,2.24s-10.51,1-12.18,1.93-6.4-.52-9.35,0-8.2-3.47-8.2-3.47c-14.36-4.74-6.28,4.1-5.26,4.48,0,0-14-3.2-14.73,12S831.77,660.57,831.77,660.57Z"/><path class="cls-16" d="M867.53,648.52c.27,6.46,5.3,14.47,8.3,18.72,1.9,0,3.36-.14,3.36-.14s-1.17-31.19-2.05-34.47c-.42-1.57-2.49-1.22-4.54-.44C870.12,636.84,867.31,643.32,867.53,648.52Z"/><path class="cls-5" d="M867.53,648.52c.27,6.46,5.3,14.47,8.3,18.72,1.9,0,3.36-.14,3.36-.14s-1.17-31.19-2.05-34.47c-.42-1.57-2.49-1.22-4.54-.44C870.12,636.84,867.31,643.32,867.53,648.52Z"/><path class="cls-12" d="M863.3,649.38c1.7,6.23,1.68,13.22,4.4,17.45a6.53,6.53,0,0,0,1.24.27,56.56,56.56,0,0,0,6.89.14c1.9,0,3.36-.14,3.36-.14s-1.17-31.19-2.05-34.47c-.42-1.57-2.49-1.22-4.54-.44a30.16,30.16,0,0,0-4.43,2.24S861.12,641.4,863.3,649.38Z"/><path class="cls-5" d="M778,586.15s12.29,4,22.7,18.16Z"/><g class="cls-17"><path d="M877.8,432.37a2.86,2.86,0,0,1-.07.28,8.11,8.11,0,0,1-.43,1.06A8,8,0,0,1,877.8,432.37Z"/><path d="M808.3,426.16a11.33,11.33,0,0,1,1-2.59c-.07.22-.13.44-.19.66-.65,2.8-.11,5.72.57,8.5.35,1.44.83,3,2.07,3.8,1.91,1.22,4.86.16,6.42,1.81,1,1.05,1,2.9,2.33,3.55a2.67,2.67,0,0,0,1.53.18c3.4-.48,5.38-4.33,8.65-5.39a8.7,8.7,0,0,1,5.73.5,4.12,4.12,0,0,1,1.9,1.21c1.1,1.42.33,3.51.84,5.22.7,2.38,3.54,3.32,6,3.63s5.23.49,6.88,2.35a6.26,6.26,0,0,1,1.22,5,3.9,3.9,0,0,0,0,1.83c.68,1.92,4,1.64,4.87.12.64-1.1.45-2,1.94-2.33a6.38,6.38,0,0,1,3.14.55,23.26,23.26,0,0,0,8.28,1.24,11,11,0,0,0,6.49-2,7.65,7.65,0,0,0,2-2.42,8.17,8.17,0,0,1-2.77,4.34,11,11,0,0,1-6.49,2,23.3,23.3,0,0,1-8.28-1.24,6.38,6.38,0,0,0-3.14-.54c-1.49.3-1.3,1.22-1.93,2.32-.88,1.52-4.2,1.81-4.88-.11a4,4,0,0,1,0-1.84,6.26,6.26,0,0,0-1.22-5c-1.64-1.86-4.42-2-6.88-2.34s-5.3-1.26-6-3.64c-.51-1.71.26-3.8-.84-5.21a4.16,4.16,0,0,0-1.89-1.22,8.73,8.73,0,0,0-5.74-.5c-3.27,1.06-5.24,4.91-8.65,5.39a2.51,2.51,0,0,1-1.53-.18c-1.29-.64-1.34-2.5-2.33-3.55-1.56-1.65-4.51-.58-6.42-1.81-1.24-.8-1.72-2.36-2.07-3.79C808.19,431.87,807.64,429,808.3,426.16Z"/></g><path class="cls-5" d="M879.79,528.73c-2.35,3.17-5,6.1-7.11,9.45s-3.54,7.27-3.11,11.19c2.15-2.2,3.13-5.25,4.49-8,2.29-4.68,5.73-8.65,8.62-13,.55-.82,4.09-5.57,2.3-5.8C883.5,522.4,880.59,527.65,879.79,528.73Z"/><ellipse class="cls-18" cx="281.86" cy="418.89" rx="121" ry="114"/><path class="cls-19" d="M465.48,558.61l-100.1-29.84a152.73,152.73,0,0,1-66.52,15.12c-78.3,0-142-58.31-142-130s63.7-130,142-130,142,58.32,142,130c0,36.19-16.62,70.92-45.63,95.48Zm-100.28-32,.37.11,88.67,26.43L392,509.51l1-.84c29.18-24.23,45.91-58.77,45.91-94.78,0-70.58-62.81-128-140-128s-140,57.42-140,128,62.8,128,140,128a150.71,150.71,0,0,0,66-15.09Z"/><circle class="cls-7" cx="251.36" cy="421.39" r="11"/><circle class="cls-7" cx="283.36" cy="421.39" r="11"/><circle class="cls-7" cx="315.36" cy="421.39" r="11"/><path class="cls-20" d="M234.09,299c6.89,4.61,17.33,2.41,17.33,2.41s15.78-7.47,20.45-7.47,16-4.62,16-4.62l-.38-3.11-1.16-9.37c7.18,5.59,15.16,3.66,19.1,3.25,4.22-.44,26.77-13.84,28.94-14.72a5.66,5.66,0,0,0,2-2h0a49.69,49.69,0,0,0,3.82-7h0c1.41-1.25,2.44-2.25,2.37-2.46a15.46,15.46,0,0,1,1.38-3.69,18,18,0,0,0,6.84-2.47,5.75,5.75,0,0,0,.95-1A6.07,6.07,0,0,0,353,242.9s22-22.2,19.11-31.43,7.11-9.45,7.11-9.45,15.34-6.6,17.47-10.55c1.31-2.44,12.81-7.78,21.47-11.54l1.06-.45c3.37,7.36,20.42,1.69,23.78-1.42,3.56-3.3,14-4.84,14-4.84s.45-43.08,3.78-48.57c1.58-2.61,2-11.12,1.93-19.33,0-.29,0-.58,0-.88,4.67-.91,15.77-3,20.93-3.53,3.27-.33,6.68-2.36,9.29-4.34l.31.38a6.42,6.42,0,0,0,2.84.47,4.37,4.37,0,0,0,2.49-.47c2-1.1,9.34-3.29,12-4.39s-.44-9-2.44-10.55-3.33-3.52-2.22-4.4-2.67-3.08-4.89-3.52-8.89-3.51-8.89-3.51-2.45-5.06-6.45-5.06-9.33-3.95-9.33-3.95c-.22-1.76-4.45-2-4.45-2s-16-12.31-18.66-10.77-10-2.42-10-2.42-9,1-11.12-.65h0a2.53,2.53,0,0,0-.53-1.49c-.48-1.49-2.8-3.53-5.06-5.22a20,20,0,0,0,.26-3.18c0-.46,0-.92,0-1.38a1.64,1.64,0,0,0,0-.22c.1-1,.21-2.07.31-3.1a6.45,6.45,0,0,1,.78-2.91c.38-.58.93-1,1.35-1.59.09-.13.19-.27.27-.41l.06-.11a3.59,3.59,0,0,0,.17-.34.37.37,0,0,0,.05-.11,5.11,5.11,0,0,0,.29-.94s0,0,0-.07.05-.29.07-.44v-.06a9.51,9.51,0,0,0-.5-3.78c-.67-2.07-1.71-4.08-1.82-6.25a19.27,19.27,0,0,0-.12-3.22c-.53-2.4-3-3.93-5.38-4.93-3.29-1.37-4.94-2.88-7.58-4.93C412.42-.68,408.72.2,405.9.38,399.45.79,393.09,2.73,387,4.74A18.79,18.79,0,0,0,380.43,8,7.26,7.26,0,0,0,378,12.09h0a5.18,5.18,0,0,0-.07,1.11.31.31,0,0,0,0,.1c0,.14,0,.29,0,.43l0,.14a4.54,4.54,0,0,0,.12.5h0c.26.81.73,1.55,1,2.35a5.44,5.44,0,0,1,.15.54.13.13,0,0,1,0,.06,5.34,5.34,0,0,1,.09.53h0c.25,2-.49,4.09-.82,6.12,0,.29-.07.59-.1.88h0a10.63,10.63,0,0,0,.31,3.51v0c0,.14.08.28.13.42L379,29a3.62,3.62,0,0,0,.13.35,1.6,1.6,0,0,0,.1.23c0,.1.09.2.14.3s.08.17.13.26l.15.26.16.26.17.24c.06.09.13.17.2.26l.17.21.24.24.18.19.28.24.19.15a4,4,0,0,0,.34.23l.17.11a6,6,0,0,0,.56.3c1.27.58,2.88.79,3.65,1.91a2.51,2.51,0,0,1,.38.87c0,.08,0,.15,0,.23V36c0,.65.05,1.3.11,1.93a8.94,8.94,0,0,0,.06,1,2.88,2.88,0,0,0,.22.76,19.9,19.9,0,0,0,6.74,11.32c.06.34.14.73.23,1.18a22.36,22.36,0,0,1-6.47,3.39c-5.33,1.56-12.89,8.76-12.89,8.76s-3.75,27-4.65,30.34-1.57,16-1.57,16-.89,5.28-2.22,7.91c-.95,1.86-.78,9.85,1.86,14.7a12.6,12.6,0,0,1-1.64,2.67c-5.34,6.15-21.34,5.93-26.67,5.93-4.91,0-6.43,3-6.64,3.45-9.76,2.77-41.39,11.8-45.14,13.44-4.45,1.94-6.89,21.14-6.89,21.14s-9.34,31.87-8.89,36.06-3.11,15.81-3.11,15.81,0,13.15-1.51,14l-.05,0c-1.55.66-1.33,7-1.33,7s1.14.33,2.93.78a52,52,0,0,1-3.6,10.93c-.69-.88-1.37-1.24-1.78-.22-1.11,2.79-17.78,22.58-22,22.58-2,0-5.34,1.64-7.52,3.87C231.5,293.39,230.48,296.53,234.09,299Zm76.45-114.52c18.89,1.76,39.11-1.34,39.11-1.34s-1.55,5.52-2.89,7.72-5.11,14.72-5.11,17.36-6,25.28-7.78,26.38a6.63,6.63,0,0,0-1.93,2.79,26.22,26.22,0,0,0-1.18,3.36,16.37,16.37,0,0,0,.16,1.63c-1.33,1.22-2.74,2.49-4,3.62h0s-7.95,4.42-10.61,6.84-15.12,5.38-15.12,5.38a77.48,77.48,0,0,0-8.94,4.56c-3.85,2.33-7.72,5.28-8.72,8.2.43-4.91,1.15-10.83,1.62-14.6l.71,0c6.23-.39,5.3-6.33,5-7.81l-.08-.33c4.44-4.83,14.44-40.88,13.11-44.84s1.11-7.47,1.64-7.47,1.25-4.39.14-6.81,4.89-4.62,4.89-4.62Zm152.76-97-1.18.29c0-.17,0-.26,0-.26s.44,0,1.19,0ZM398.73,54.3c-.18.22-.36.44-.55.64l-.23.24c0-.41,0-.82,0-1.22.25.12.51.23.78.34ZM376.46,96.94l.08,1.24s-.12.75-.34,2ZM478.59,84.66l-3.87.67c.55-.21,1.09-.44,1.61-.69a3.8,3.8,0,0,1,1.24-.33,6.49,6.49,0,0,1,1.44.31,3,3,0,0,0-.42,0Z"/><path class="cls-21" d="M347.44,243.35s-4.46,9.24-4.25,9.89-9.59,8.51-9.59,8.51l-10.69-7.63,1.09-5.24s12-10.81,12.87-12.06S347.44,243.35,347.44,243.35Z"/><path class="cls-8" d="M286.48,274.62c7.42,7.2,16.14,5,20.29,4.58s26.28-13.74,28.41-14.61a5.74,5.74,0,0,0,1.94-2h0a50.92,50.92,0,0,0,3.75-6.93c-.15,0-7.4,2.11-9.24,0,0,0-3.05-3.74-3.71-3.74s-.05-6.57-.05-6.57-7.8,4.38-10.42,6.78-14.83,5.34-14.83,5.34a76.67,76.67,0,0,0-8.78,4.53C288.06,265.55,282.26,270.53,286.48,274.62Z"/><path class="cls-5" d="M286.48,274.62c7.42,7.2,16.14,5,20.29,4.58s26.28-13.74,28.41-14.61a5.74,5.74,0,0,0,1.94-2c-2.59-1.54-19.45,9.17-24.17,11.14s-16.65.87-23.42-2c-3.37-1.41.05-5.76,4.31-9.76C288.06,265.55,282.26,270.53,286.48,274.62Z"/><path class="cls-21" d="M287.35,251.94s-3.1,23.33-2.31,26.39-19.5-10.47-19.5-10.47,7.1-14.63,5-18S287.35,251.94,287.35,251.94Z"/><path class="cls-8" d="M267.94,252.37s12.65,3.71,19.63,3.27c6.11-.38,5.2-6.28,4.88-7.74a2.82,2.82,0,0,0-.08-.33c4.36-4.8,14.18-40.57,12.87-44.49s1.09-7.42,1.61-7.42,1.23-4.36.13-6.76,4.8-4.58,4.8-4.58c18.54,1.74,38.39-1.33,38.39-1.33s-1.52,5.47-2.83,7.65-5,14.62-5,17.23-5.89,25.09-7.63,26.18a6.48,6.48,0,0,0-1.9,2.77,26.39,26.39,0,0,0-1.16,3.34c.66,14.61,17.23,8.94,19.63,7a6,6,0,0,0,2.19-4.8s21.59-22,18.75-31.19,7-9.38,7-9.38,15.06-6.55,17.15-10.47c1.29-2.42,12.58-7.72,21.07-11.45,5.33-2.33,9.55-4,9.55-4l-3.53-12.69-2.79-10-5.25-2-16.78-6.31-30.13-4.15-2.77.36-29.27,3.79S293.68,157.05,289.32,159s-6.77,21-6.77,21-9.16,31.63-8.72,35.79-3.05,15.69-3.05,15.69,0,13-1.49,13.94l0,0C267.72,246.05,267.94,252.37,267.94,252.37Z"/><path class="cls-5" d="M311.78,184.32c18.54,1.74,38.39-1.33,38.39-1.33,1.31-4.13,19.65-15.47,19.65-15.47C354.78,163.81,311.78,184.32,311.78,184.32Z"/><path class="cls-22" d="M331.63,240.16c.66,14.61,17.23,8.94,19.63,7a6,6,0,0,0,.93-.95c-5.79,2.13-16.06,3.78-19.4-9.37A26.39,26.39,0,0,0,331.63,240.16Z"/><path class="cls-22" d="M267.94,252.37s12.65,3.71,19.63,3.27c6.11-.38,5.2-6.28,4.88-7.74-6.41-.2-17.43-.8-23.16-2.53l0,0C267.72,246.05,267.94,252.37,267.94,252.37Z"/><path class="cls-5" d="M331.63,240.16c.66,14.61,17.23,8.94,19.63,7a6,6,0,0,0,.93-.95c-5.79,2.13-16.06,3.78-19.4-9.37A26.39,26.39,0,0,0,331.63,240.16Z"/><path class="cls-5" d="M267.94,252.37s12.65,3.71,19.63,3.27c6.11-.38,5.2-6.28,4.88-7.74-6.41-.2-17.43-.8-23.16-2.53l0,0C267.72,246.05,267.94,252.37,267.94,252.37Z"/><path class="cls-8" d="M236.75,298c6.76,4.58,17,2.4,17,2.4s15.49-7.42,20.07-7.42,15.7-4.58,15.7-4.58l-.37-3.09-1.81-14.79s-17-.44-17.66-2c0,0-3.06-7.51-4.15-4.73s-17.45,22.4-21.59,22.4c-2,0-5.24,1.64-7.39,3.84C234.21,292.45,233.21,295.56,236.75,298Z"/><path class="cls-5" d="M295.42,169.05S309.6,178,305.68,180,295.42,169.05,295.42,169.05Z"/><path class="cls-5" d="M289.53,186.28s12.22,11.6,7.64,11.91S289.53,186.28,289.53,186.28Z"/><path class="cls-5" d="M276.45,223.14s6.2,11.66,3.86,13.68S276.45,223.14,276.45,223.14Z"/><path class="cls-5" d="M344.72,234.92c-2.18,2.18,20.72-7.2,15.49-7.63S344.72,234.92,344.72,234.92Z"/><path class="cls-21" d="M390.53,71.33l.73-.11c2.71-.42,12.54-2,21.36-3.88,2.15-.46,4.24-1,6.15-1.45,6.76-1.77,11.29-3.68,8.4-5.25-3.82-2.08-5.84-5.85-6.9-9.1-.1-.32-.2-.63-.29-.93a24.45,24.45,0,0,1-.88-5s-24.65-8.73-19.85,0c2.36,4.28.77,7.77-1.45,10.22a19.09,19.09,0,0,1-5.31,4Z"/><path class="cls-5" d="M416.92,64.57s-8.82,6.32-17.82,1.09-20.79,46.24-20.79,46.24L366.1,142s-7.92,6.54,1.93,9.38,31.69-2.84,37.24,5.45,16.05,9.6,17.12,9.6,5.23-31.19,5.23-31.19l1.08-45.15Z"/><path class="cls-23" d="M368.47,149.63c9.84,2.84,31.69-2.83,37.23,5.46a21.3,21.3,0,0,0,9.39,7.55,24.7,24.7,0,0,0,7.74,2.05c.14,0,.35-.58.59-1.57,1.53-6.31,4.64-29.63,4.64-29.63l1.08-45.15L418.77,65.89l-1.41-3.07a18.94,18.94,0,0,1-4.5,2.19,15.83,15.83,0,0,1-13.33-1.1c-2.64-1.53-5.52,1.81-8.27,7.31-6.63,13.23-12.51,38.93-12.51,38.93l-12.22,30.1c-.29.25-.56.52-.83.8C364,142.88,360.72,147.41,368.47,149.63Z"/><path class="cls-5" d="M415.38,151.15a56.58,56.58,0,0,0-.29,11.49,134.14,134.14,0,0,0,2.05,16.22,6.54,6.54,0,0,0,.26,1c5.33-2.33,9.55-4,9.55-4l-3.53-12.69c1.53-6.31,4.64-29.63,4.64-29.63l1.08-45.15L418.77,65.89c6.76-1.77,11.29-3.68,8.4-5.25C423,58.36,421,54,420,50.61a36.64,36.64,0,0,1-6.2,6.67l-.13.11L412.86,65l-.24,2.33-.5,4.86s2.4,57.37,4.15,60.64.87,9.6-.66,17C415.52,150.27,415.45,150.7,415.38,151.15Z"/><path class="cls-24" d="M416.48,149c-1.52,7.42-.21,19.63,1.53,29s20.29,3.27,23.78,0,13.74-4.8,13.74-4.8.43-42.75,3.71-48.2c1.55-2.59,1.92-11,1.89-19.19,0-7.32-.4-14.41-.53-16.81,0-.56-.05-.87-.05-.87s14.17-24,14-25.74-4.37-2-4.37-2-15.7-12.21-18.32-10.69-9.82-2.4-9.82-2.4-9.12,1-11-.72a1,1,0,0,1-.34-.8c.22-2.8-9.29-8.76-9.59-8.94,8,7.21-4.94,18.32-6.41,19.54l-.14.11L413,71.33s2.4,57.36,4.15,60.64S418,141.56,416.48,149Z"/><circle class="cls-22" cx="417.33" cy="86.66" r="1.09"/><path class="cls-5" d="M415.09,57.28l6.63,6.41,9.71-16.21a1,1,0,0,1-.33-.8c.21-2.79-9.3-8.76-9.59-8.94C429.52,45,416.56,56.06,415.09,57.28Z"/><circle class="cls-5" cx="419.51" cy="121.56" r="1.09"/><circle class="cls-22" cx="419.51" cy="121.13" r="1.09"/><path class="cls-24" d="M414.66,56.41l6.62,6.41L431,46.61a1,1,0,0,1-.34-.8c.22-2.8-9.29-8.76-9.59-8.94C429.09,44.08,416.13,55.19,414.66,56.41Z"/><rect class="cls-8" x="399.69" y="94.04" width="32.08" height="15.18" rx="1.7" transform="translate(304.65 514.93) rotate(-88.69)"/><rect class="cls-5" x="399.69" y="94.04" width="32.08" height="15.18" rx="1.7" transform="translate(304.65 514.93) rotate(-88.69)"/><rect class="cls-8" x="399.77" y="94.75" width="32.08" height="15.18" rx="1.7" transform="translate(304.02 515.7) rotate(-88.69)"/><circle class="cls-24" cx="416.21" cy="95.68" r="2.39"/><path class="cls-5" d="M334,147c5.46,2.4,41.23-3.93,46.46-5.46s12.87-13.3,9.16-21.81S391,103,391,103s7.86-16.8,9.6-20.07a155.15,155.15,0,0,0,5.89-14.4,1.31,1.31,0,0,0-.31-1c-1.42-2.16-6.89-6-6.89-6-1.54.56-1.73-3.85-1.67-7.09,0-1.82.15-3.27.15-3.27s-.73.74-1.91,1.75c-.43.36-.93.76-1.47,1.17a22.4,22.4,0,0,1-6.88,3.76c-5.23,1.55-12.65,8.7-12.65,8.7L377,100s-5,31.5-10.25,37.61-20.94,5.89-26.17,5.89S334,147,334,147Z"/><path class="cls-24" d="M333.6,145.71c5.45,2.4,41.22-3.93,46.46-5.46s12.87-13.3,9.16-21.81,1.31-16.79,1.31-16.79,7.85-16.8,9.59-20.07A152.41,152.41,0,0,0,406,67.18a1.27,1.27,0,0,0-.31-1c-1.41-2.16-6.88-6-6.88-6-1.54.56-1.74-3.85-1.68-7.09,0-1.82.15-3.26.15-3.26s-.73.73-1.91,1.74c-.43.36-.92.76-1.47,1.17A22.35,22.35,0,0,1,387,56.52c-5.24,1.55-12.65,8.7-12.65,8.7l2.18,33.5s-5,31.5-10.25,37.61-20.95,5.89-26.18,5.89S333.6,145.71,333.6,145.71Z"/><path class="cls-5" d="M392.93,50.72s.2,1.15.55,2.92c1.17,6,4,19.07,6,18.56,1.45-.36,3.9-2.93,5.8-5.14-1.42-2.16-6.89-6-6.89-6-1.54.55-1.73-3.86-1.67-7.1L395,52.46Z"/><path class="cls-24" d="M393.36,49.85s.21,1.15.55,2.91c1.18,6,4,19.07,6,18.57,1.44-.36,3.89-2.93,5.79-5.15-1.41-2.16-6.88-6-6.88-6-1.54.56-1.74-3.85-1.68-7.09l-1.76-1.52Z"/><path class="cls-21" d="M379.4,114.08s10.91-2.18,14-7,23.83-8.94,21.3-3.93-21.3,21.44-21.3,21.44l-8.12,11.64-10.85-2.76-4.57-8.88Z"/><path class="cls-5" d="M405.21,126.52s-10.57,3.93-12.16,9.17S405.21,126.52,405.21,126.52Z"/><path class="cls-5" d="M411.69,132.62s1,5.45-12.28,5Z"/><path class="cls-5" d="M468.83,62.82l4.8-.44s5.24,3.93,9.16,3.93,6.33,5,6.33,5,6.54,3,8.72,3.49,5.89,2.61,4.8,3.49.22,2.83,2.18,4.36,5,9.38,2.4,10.47-9.81,3.27-11.77,4.36a5.45,5.45,0,0,1-4.37,0s-11.55-15-17.44-12.21-14,2.83-14,2.83l-6.32-13.3Z"/><path class="cls-24" d="M368.47,134.59a5.8,5.8,0,0,0,4.06,2.83,30.89,30.89,0,0,0,12.71-1.17s-22-7-.82-24h-5.67l-1.89-.71.86-4.52L379,66.31l-4.58-1.09s-3.69,26.83-4.57,30.1-1.54,15.92-1.54,15.92-.87,5.24-2.18,7.86C365.11,121.06,365.36,129.94,368.47,134.59Z"/><path class="cls-5" d="M369.34,134.59a5.84,5.84,0,0,0,4.06,2.83,30.89,30.89,0,0,0,12.71-1.17s-22-7-.82-24h-5.67l-1.89-.71C374.63,117.08,369.74,126.87,369.34,134.59Z"/><path class="cls-25" d="M368.47,134.59a5.8,5.8,0,0,0,4.06,2.83,30.89,30.89,0,0,0,12.71-1.17s-22-7-.82-24h-5.67l-1.89-.71C373.75,117.08,368.86,126.87,368.47,134.59Z"/><path class="cls-24" d="M368.47,134.59a5.8,5.8,0,0,0,4.06,2.83,30.89,30.89,0,0,0,12.71-1.17s-22-7-.82-24h-5.67l-1.89-.71C373.75,117.08,368.86,126.87,368.47,134.59Z"/><path class="cls-5" d="M397.8,55.81a19.85,19.85,0,0,0,22.47-4.27c-.1-.32-.2-.63-.29-.93a24.45,24.45,0,0,1-.88-5s-24.65-8.73-19.85,0C401.61,49.87,400,53.36,397.8,55.81Z"/><path class="cls-21" d="M386.16,36.86v.2c0,.64,0,1.28.11,1.91s.16,1.2.27,1.78a19.86,19.86,0,0,0,38.25,2.57q.19-.59.36-1.17a19.67,19.67,0,0,0,.71-5.29c0-.45,0-.91,0-1.36a19.85,19.85,0,0,0-39.66,1.36Z"/><path class="cls-5" d="M386.16,37.06a8.14,8.14,0,0,1,.11,1.91,8.89,8.89,0,0,0,.06,1,3.21,3.21,0,0,0,.21.75c.81,1.88,3.42,3.1,5.15,1.89a5.51,5.51,0,0,0,1.55-2c1.83-3.41,4.38-7.33,8.4-7.39,1.71,0,3.32.69,5,1.11s3.62.47,4.85-.66c1-.86,1.4-2.34,2.67-2.64s2.45.86,3,2,1,2.49,2.23,3.08c.52.26,1.14.33,1.65.61,2.38,1.3,1.29,5.86,3.75,6.6l.24,0c0-.4.08-.81.12-1.22.22-2.22.44-4.43.67-6.65a19.85,19.85,0,0,0-39.66,1.36Z"/><path class="cls-8" d="M421.43,7.23c2.33,1,4.76,2.51,5.28,4.89a19,19,0,0,1,.11,3.2c.11,2.15,1.13,4.14,1.79,6.2s.89,4.47-.42,6.22c-.41.54-1,1-1.32,1.57a6.49,6.49,0,0,0-.77,2.89L425,42.94c-2.76-.52-1.53-5.32-4-6.65-.51-.28-1.13-.36-1.65-.62-1.18-.59-1.64-1.93-2.23-3.08s-1.74-2.31-3-2-1.72,1.79-2.67,2.65c-1.23,1.13-3.2,1.07-4.85.65s-3.26-1.14-5-1.11c-4,.07-6.57,4-8.4,7.39a5.43,5.43,0,0,1-1.55,2c-1.95,1.37-5-.35-5.36-2.64-.19-1.28.21-2.71-.53-3.79s-2.33-1.32-3.59-1.9c-3.18-1.47-4.17-5.44-3.64-8.78.38-2.41,1.34-4.89.55-7.2-.27-.8-.73-1.53-1-2.33-.7-2.25.44-4.72,2.24-6.32A18.35,18.35,0,0,1,386.85,6c5.95-2,12.2-3.92,18.53-4.33,2.77-.18,6.4-1,8.6.68C416.58,4.37,418.2,5.87,421.43,7.23Z"/><circle class="cls-5" cx="416.24" cy="69.43" r="1.09"/><circle class="cls-22" cx="416.24" cy="68.99" r="1.09"/><circle class="cls-5" cx="423.22" cy="137.92" r="1.09"/><circle class="cls-22" cx="423.22" cy="137.49" r="1.09"/><circle class="cls-5" cx="419.51" cy="156.03" r="1.09"/><circle class="cls-22" cx="419.51" cy="155.59" r="1.09"/><path class="cls-5" d="M382,86.66s-2.4,16.3,0,19.13S382,86.66,382,86.66Z"/><path class="cls-5" d="M453.35,116.92s4.58,9.86,0,19.33-7.42,13.3-5.89,19.34S453.35,116.92,453.35,116.92Z"/><path class="cls-5" d="M236.75,298c6.76,4.58,17,2.4,17,2.4s15.49-7.42,20.07-7.42,15.7-4.58,15.7-4.58l-.37-3.09c-4.52.88-14.8,3-16,4-1.53,1.31-20.29,7.64-20.29,7.64s-12.77-1.6-16.33-6.85C234.21,292.45,233.21,295.56,236.75,298Z"/><g class="cls-17"><path d="M426.82,13.58c0-.24,0-.48,0-.71a7.3,7.3,0,0,1,0,.81S426.82,13.61,426.82,13.58Z"/><path d="M382.21,32.13c1.26.58,2.83.78,3.59,1.89s.34,2.52.53,3.8c.33,2.28,3.41,4,5.36,2.64a5.51,5.51,0,0,0,1.55-2c1.83-3.41,4.38-7.33,8.4-7.4,1.71,0,3.32.69,5,1.12s3.62.47,4.85-.66c1-.86,1.4-2.34,2.67-2.64s2.44.86,3,2,1,2.49,2.23,3.08c.52.26,1.14.33,1.65.61,2.45,1.34,1.22,6.14,4,6.65l1.08-10.73a6.61,6.61,0,0,1,.76-2.89c.37-.58.92-1,1.32-1.58a4.74,4.74,0,0,0,.9-2.31,5.61,5.61,0,0,1-.9,4.06c-.4.54-.95,1-1.32,1.57a6.61,6.61,0,0,0-.76,2.89L425,42.94c-2.76-.52-1.53-5.32-4-6.65-.51-.28-1.13-.36-1.65-.62-1.18-.59-1.64-1.93-2.23-3.08s-1.74-2.31-3-2-1.72,1.79-2.67,2.65c-1.23,1.13-3.2,1.07-4.85.65s-3.26-1.14-5-1.11c-4,.07-6.57,4-8.4,7.39a5.43,5.43,0,0,1-1.55,2c-1.95,1.37-5-.35-5.36-2.64-.19-1.28.21-2.71-.53-3.79s-2.33-1.32-3.59-1.9c-2.91-1.34-4-4.78-3.74-7.91C378.68,28.54,379.84,31,382.21,32.13Z"/><path d="M378.14,13.81c.25.81.71,1.54,1,2.33a6.65,6.65,0,0,1,.25,2.87,4.78,4.78,0,0,0-.25-1.12c-.27-.8-.73-1.53-1-2.33a4.76,4.76,0,0,1-.13-2.28A3.16,3.16,0,0,0,378.14,13.81Z"/></g><path class="cls-5" d="M442.22,110.8c5-1.1,16.8-4.57,16.8-4.57l2.11-.43c0-7.32-.4-14.41-.53-16.81h-.05s-10,3.27-12.44,5-9.81,1.31-9.81,1.31-11.56.66-21.16,11.34S437.21,111.9,442.22,110.8Z"/><path class="cls-21" d="M491.25,91.33a2.92,2.92,0,0,1,1.45,3.85,2.82,2.82,0,0,1-.8,1c-2.65,2.2-6.53,4.84-10.24,5.21-6.17.62-21,3.6-22.52,3.9l-.24.06c-1.22.36-11.95,3.5-16.68,4.54-5,1.1-34.68,6.55-25.08-4.14a33.9,33.9,0,0,1,20.94-11.32,1.7,1.7,0,0,1,.39,0c1.12.05,7.46.27,9.64-1.32a20.26,20.26,0,0,1,3.61-1.8,69.35,69.35,0,0,1,14.75-4.25l10.26-1.79a3,3,0,0,1,1.73.22Z"/><path class="cls-24" d="M469.71,62.82l4.8-.44s5.23,3.93,9.16,3.93,6.32,5,6.32,5,6.55,3,8.73,3.49,5.89,2.61,4.8,3.49.21,2.83,2.18,4.36,5,9.38,2.4,10.47-9.82,3.27-11.78,4.36a5.42,5.42,0,0,1-4.36,0s-11.56-15-17.45-12.21-14,2.83-14,2.83l-6.33-13.3Z"/></g></g></svg>