<svg xmlns="http://www.w3.org/2000/svg" viewBox="0 0 142.25 113.2"><defs><style>.cls-1{fill:#a9a9a9;}</style></defs><title>HomeDark.svg</title><g id="Layer_2" data-name="Layer 2"><g id="Layer_1-2" data-name="Layer 1"><path class="cls-1" d="M71.13,22.85,20.39,64.68a1.16,1.16,0,0,1,0,.26,1.25,1.25,0,0,0-.05.26v42.35A5.74,5.74,0,0,0,26,113.2H59.83V79.32H82.42V113.2H116.3a5.74,5.74,0,0,0,5.65-5.65V65.2a1.15,1.15,0,0,0-.09-.52Z"/><path class="cls-1" d="M141.27,55.15,122,39.09v-36a2.76,2.76,0,0,0-.8-2,2.72,2.72,0,0,0-2-.79H102.18a2.71,2.71,0,0,0-2.82,2.82v17.2l-21.53-18a11,11,0,0,0-13.41,0L1,55.15A2.55,2.55,0,0,0,0,57a2.87,2.87,0,0,0,.62,2.08L6.1,65.65a3,3,0,0,0,1.85,1A3.28,3.28,0,0,0,10.07,66L71.13,15.09,132.18,66a2.73,2.73,0,0,0,1.86.62h.26a3.06,3.06,0,0,0,1.85-1l5.47-6.53a2.83,2.83,0,0,0,.62-2.08A2.55,2.55,0,0,0,141.27,55.15Z"/></g></g></svg>