<svg xmlns="http://www.w3.org/2000/svg" viewBox="0 0 415 463"><defs><style>.cls-1{fill:#a3a3a3;}</style></defs><title>KnowledgeCheckLight</title><g id="Layer_2" data-name="Layer 2"><g id="Layer_1-2" data-name="Layer 1"><path class="cls-1" d="M127.24,222.45A32.54,32.54,0,0,1,95.5,248a7.5,7.5,0,0,0,0,15,47.59,47.59,0,0,0,47-40.39,63,63,0,0,0,38.39-18.67,7.5,7.5,0,1,0-10.71-10.5A48.5,48.5,0,0,1,87,159.5a7.5,7.5,0,0,0-15,0A63.6,63.6,0,0,0,127.24,222.45Z"/><path class="cls-1" d="M159,287.5a7.5,7.5,0,0,0-7.5-7.5A63.58,63.58,0,0,0,88,343.5c0,.36,0,.73,0,1.09A63.06,63.06,0,0,0,79.5,344a7.5,7.5,0,0,0,0,15A48.56,48.56,0,0,1,128,407.5a7.5,7.5,0,0,0,15,0,63.59,63.59,0,0,0-39.73-58.87A48.52,48.52,0,0,1,151.5,295,7.5,7.5,0,0,0,159,287.5Z"/><path class="cls-1" d="M415,223.5a63.36,63.36,0,0,0-18.87-45.16,63.46,63.46,0,0,0-48.52-81.17,47.55,47.55,0,0,0-25.42-61.33C294,13.38,263.16,0,239.5,0a39.48,39.48,0,0,0-32,16.38A39.48,39.48,0,0,0,175.5,0C151.84,0,121,13.38,92.81,35.84A47.55,47.55,0,0,0,67.39,97.17,63.6,63.6,0,0,0,16,159.5a62.89,62.89,0,0,0,2.88,18.84,63.41,63.41,0,0,0-7.67,81.14A62.84,62.84,0,0,0,0,295.5a63.58,63.58,0,0,0,32.52,55.4,70.65,70.65,0,0,0-.52,8.6,71.58,71.58,0,0,0,49.79,68.06,71.45,71.45,0,0,0,125.71-4.23,71.45,71.45,0,0,0,125.71,4.23A71.58,71.58,0,0,0,383,359.5a70.65,70.65,0,0,0-.52-8.6A63.58,63.58,0,0,0,415,295.5a62.84,62.84,0,0,0-11.21-36A63.18,63.18,0,0,0,415,223.5ZM143.5,448a56.38,56.38,0,0,1-50-30.26A7.51,7.51,0,0,0,88.8,414a56.48,56.48,0,0,1-40.66-65.83,7.51,7.51,0,0,0-4.3-8.35,48.5,48.5,0,0,1-22.28-68.69A63.25,63.25,0,0,0,63.5,287a7.5,7.5,0,0,0,0-15,48.49,48.49,0,0,1-31.07-85.72,7.52,7.52,0,0,0,2.14-8.58A48.49,48.49,0,1,1,128,159.5a7.5,7.5,0,0,0,15,0A63.57,63.57,0,0,0,83.58,96.15a32.51,32.51,0,0,1,15.1-46.51,7.34,7.34,0,0,0,1.31-.53,32.51,32.51,0,0,1,40.77,16.21,7.5,7.5,0,1,0,13.49-6.55,47.9,47.9,0,0,0-31.78-25.46c19.14-11.68,38-18.31,53-18.31A24.53,24.53,0,0,1,200,39.5v97.05A39.33,39.33,0,0,0,175.5,128a7.5,7.5,0,0,0,0,15A24.53,24.53,0,0,1,200,167.5V347.78a71.42,71.42,0,0,0-37.93-25.27,7.5,7.5,0,0,0-3.9,14.49A56.46,56.46,0,0,1,143.5,448ZM371.16,339.81a7.51,7.51,0,0,0-4.3,8.35A56.48,56.48,0,0,1,326.2,414a7.52,7.52,0,0,0-4.69,3.76A56.49,56.49,0,0,1,215,391.5c0-2.11-.1-4.2-.28-6.27a7.39,7.39,0,0,0,.28-2V135.5A24.53,24.53,0,0,1,239.5,111a7.5,7.5,0,0,0,0-15,39.33,39.33,0,0,0-24.5,8.55v-65A24.53,24.53,0,0,1,239.5,15c15.05,0,33.89,6.63,53,18.31a47.9,47.9,0,0,0-31.78,25.46,7.5,7.5,0,1,0,13.49,6.56A32.5,32.5,0,0,1,315,49.11a7.34,7.34,0,0,0,1.31.53,32.51,32.51,0,0,1,15.1,46.51A63.57,63.57,0,0,0,272,159.5a7.5,7.5,0,0,0,15,0,48.5,48.5,0,1,1,93.43,18.21,7.5,7.5,0,0,0,2.14,8.57A48.49,48.49,0,0,1,351.5,272a7.5,7.5,0,0,0,0,15,63.25,63.25,0,0,0,41.94-15.88,48.5,48.5,0,0,1-22.28,68.69Z"/><path class="cls-1" d="M335.5,240a32.54,32.54,0,0,1-31.74-25.55A63.6,63.6,0,0,0,359,151.5a7.5,7.5,0,0,0-15,0,48.5,48.5,0,0,1-83.15,33.94,7.5,7.5,0,1,0-10.71,10.5,63,63,0,0,0,38.39,18.67,47.59,47.59,0,0,0,47,40.39,7.5,7.5,0,0,0,0-15Z"/><path class="cls-1" d="M311.5,328a63.06,63.06,0,0,0-8.52.59c0-.36,0-.73,0-1.09A63.58,63.58,0,0,0,239.5,264a7.5,7.5,0,0,0,0,15,48.52,48.52,0,0,1,48.23,53.63A63.59,63.59,0,0,0,248,391.5a7.5,7.5,0,0,0,15,0A48.56,48.56,0,0,1,311.5,343a7.5,7.5,0,0,0,0-15Z"/></g></g></svg>