<svg xmlns="http://www.w3.org/2000/svg" viewBox="0 0 466.4 486"><defs><style>.cls-1{fill:#a3a3a3;}</style></defs><title>light-bulb</title><g id="Layer_2" data-name="Layer 2"><g id="Layer_1-2" data-name="Layer 1"><path class="cls-1" d="M288.6,424.7v14.2a22.52,22.52,0,0,1-19.1,22.3L266,474.1A16.06,16.06,0,0,1,250.5,486H215.8a16.06,16.06,0,0,1-15.5-11.9l-3.4-12.9a22.62,22.62,0,0,1-19.2-22.4V424.6a13.66,13.66,0,0,1,13.7-13.7h83.5A13.81,13.81,0,0,1,288.6,424.7Zm64.3-191.4a119.13,119.13,0,0,1-33.6,83.1A109.79,109.79,0,0,0,289.9,376a19.8,19.8,0,0,1-19.6,16.7H196a19.61,19.61,0,0,1-19.5-16.6,111,111,0,0,0-29.6-59.8,119.72,119.72,0,1,1,206-83ZM246.7,160.8a13.51,13.51,0,0,0-13.5-13.5,86.49,86.49,0,0,0-86.4,86.4,13.5,13.5,0,0,0,27,0,59.47,59.47,0,0,1,59.4-59.4A13.44,13.44,0,0,0,246.7,160.8ZM233.2,74.3a13.51,13.51,0,0,0,13.5-13.5V13.5a13.5,13.5,0,0,0-27,0V60.8A13.51,13.51,0,0,0,233.2,74.3ZM74.3,233.2a13.51,13.51,0,0,0-13.5-13.5H13.5a13.5,13.5,0,0,0,0,27H60.8A13.44,13.44,0,0,0,74.3,233.2Zm378.6-13.5H405.6a13.5,13.5,0,0,0,0,27h47.3a13.5,13.5,0,0,0,0-27ZM101.8,345.6,68.3,379.1a13.47,13.47,0,0,0,19,19.1l33.5-33.5a13.47,13.47,0,1,0-19-19.1ZM355.1,124.8a13.48,13.48,0,0,0,9.5-3.9l33.5-33.5A13.51,13.51,0,1,0,379,68.3l-33.5,33.5a13.46,13.46,0,0,0,0,19.1A13.71,13.71,0,0,0,355.1,124.8Zm-253.3-4a13.47,13.47,0,0,0,19-19.1L87.3,68.2A13.51,13.51,0,0,0,68.2,87.3ZM364.6,345.6a13.51,13.51,0,1,0-19.1,19.1L379,398.2a13.47,13.47,0,0,0,19-19.1Z"/></g></g></svg>