<svg xmlns="http://www.w3.org/2000/svg" viewBox="0 0 695.58 248.61"><defs><style>.cls-1,.cls-11,.cls-12,.cls-3{fill:none;stroke:#343a40;stroke-miterlimit:10;}.cls-1{stroke-width:2px;}.cls-2{fill:#ffc608;}.cls-3{stroke-width:4px;}.cls-4{fill:#343a40;}.cls-5{fill:#007bff;}.cls-6{font-size:8px;fill:#fff;font-family:MyriadPro-Regular, Myriad Pro;}.cls-7{letter-spacing:-0.02em;}.cls-8{letter-spacing:-0.04em;}.cls-9{letter-spacing:-0.04em;}.cls-10{letter-spacing:-0.01em;}.cls-11{stroke-width:5px;}.cls-12{stroke-width:7px;}</style></defs><title>mainImg_6</title><g id="Layer_2" data-name="Layer 2"><g id="Layer_1-2" data-name="Layer 1"><rect class="cls-1" x="506.32" y="1" width="188.26" height="246.61" rx="16.16"/><polygon class="cls-2" points="563.42 124.31 558.98 121.94 554.51 124.25 555.4 119.3 551.82 115.77 556.8 115.07 559.05 110.58 561.25 115.1 566.22 115.86 562.6 119.34 563.42 124.31"/><polygon class="cls-2" points="584.38 124.31 579.95 121.94 575.48 124.25 576.36 119.3 572.78 115.77 577.76 115.07 580.02 110.58 582.22 115.1 587.19 115.86 583.56 119.34 584.38 124.31"/><polygon class="cls-2" points="605.35 124.31 600.91 121.94 596.44 124.25 597.32 119.3 593.75 115.77 598.73 115.07 600.98 110.58 603.18 115.1 608.15 115.86 604.53 119.34 605.35 124.31"/><polygon class="cls-2" points="625.81 124.31 621.38 121.94 616.91 124.25 617.79 119.3 614.21 115.77 619.2 115.07 621.45 110.58 623.65 115.1 628.62 115.86 625 119.34 625.81 124.31"/><polygon class="cls-2" points="646.28 124.31 641.85 121.94 637.38 124.25 638.26 119.3 634.68 115.77 639.66 115.07 641.92 110.58 644.12 115.1 649.09 115.86 645.46 119.34 646.28 124.31"/><circle class="cls-3" cx="599.77" cy="48.25" r="38.69"/><g id="Layer_7" data-name="Layer 7"><path class="cls-4" d="M609,42.05a14.14,14.14,0,1,0-17.7,0A25.9,25.9,0,0,0,574.2,66.4v2.36h51.86V66.4A25.92,25.92,0,0,0,609,42.05ZM590.7,31a9.43,9.43,0,1,1,9.43,9.43A9.43,9.43,0,0,1,590.7,31ZM579.05,64a21.22,21.22,0,0,1,42.18,0Z"/></g><path d="M572.83,141.76a7,7,0,0,1-2.28.4,3.48,3.48,0,0,1-3.8-3.74,3.72,3.72,0,0,1,4-3.83,4.46,4.46,0,0,1,1.85.35l-.23.78a3.79,3.79,0,0,0-1.64-.32,2.77,2.77,0,0,0-3,3,2.71,2.71,0,0,0,2.86,3,3.12,3.12,0,0,0,1.28-.2V139h-1.51v-.77h2.44Z"/><path d="M574.26,138.42c0-.62,0-1.16,0-1.66h.84l0,1.05h0a1.6,1.6,0,0,1,1.47-1.17,1.14,1.14,0,0,1,.28,0v.92a1.57,1.57,0,0,0-.33,0,1.36,1.36,0,0,0-1.3,1.25,2.89,2.89,0,0,0,0,.45v2.84h-1Z"/><path d="M582.57,139.38a2.61,2.61,0,0,1-2.66,2.83,2.53,2.53,0,0,1-2.55-2.74,2.61,2.61,0,0,1,2.64-2.83A2.53,2.53,0,0,1,582.57,139.38Zm-4.23.06c0,1.16.67,2,1.62,2s1.62-.87,1.62-2.07c0-.9-.45-2-1.6-2S578.34,138.42,578.34,139.44Z"/><path d="M588.24,140.63c0,.55,0,1,0,1.46h-.86l-.06-.87h0a2,2,0,0,1-1.76,1c-.84,0-1.84-.46-1.84-2.33v-3.12h1v3c0,1,.31,1.69,1.19,1.69a1.41,1.41,0,0,0,1.28-.88,1.48,1.48,0,0,0,.08-.49v-3.27h1Z"/><path d="M589.85,138.5c0-.68,0-1.23-.05-1.74h.87l.05.92h0a2.08,2.08,0,0,1,1.89-1c1.29,0,2.26,1.09,2.26,2.71,0,1.91-1.17,2.86-2.42,2.86a1.86,1.86,0,0,1-1.64-.84h0v2.89h-.95Zm.95,1.42a2.57,2.57,0,0,0,.05.4,1.49,1.49,0,0,0,1.45,1.13c1,0,1.62-.84,1.62-2.06,0-1.07-.56-2-1.59-2a1.54,1.54,0,0,0-1.46,1.2,1.67,1.67,0,0,0-.07.4Z"/><path d="M598.34,140.92a3.45,3.45,0,0,0,1.72.48c1,0,1.55-.51,1.55-1.26s-.4-1.09-1.4-1.47c-1.21-.43-2-1.06-2-2.11a2.14,2.14,0,0,1,2.4-2,3.46,3.46,0,0,1,1.64.36l-.27.78a2.94,2.94,0,0,0-1.4-.35c-1,0-1.4.61-1.4,1.11,0,.7.45,1,1.47,1.43,1.26.49,1.9,1.09,1.9,2.18s-.85,2.14-2.6,2.14a3.73,3.73,0,0,1-1.89-.48Z"/><path d="M604.47,139.6a1.7,1.7,0,0,0,1.82,1.85,3.43,3.43,0,0,0,1.48-.28l.16.7a4.36,4.36,0,0,1-1.77.33,2.48,2.48,0,0,1-2.62-2.69,2.59,2.59,0,0,1,2.5-2.87,2.26,2.26,0,0,1,2.2,2.51,4,4,0,0,1,0,.45Zm2.83-.69a1.37,1.37,0,0,0-1.34-1.58,1.6,1.6,0,0,0-1.48,1.58Z"/><path d="M609.31,141.1a2.58,2.58,0,0,0,1.27.38c.71,0,1-.35,1-.79s-.28-.72-1-1c-1-.34-1.41-.87-1.41-1.51a1.64,1.64,0,0,1,1.84-1.56,2.58,2.58,0,0,1,1.3.33l-.24.71a2,2,0,0,0-1.09-.31c-.57,0-.89.33-.89.72s.32.64,1,.91c.93.35,1.4.81,1.4,1.6,0,.94-.72,1.6-2,1.6a3.08,3.08,0,0,1-1.5-.37Z"/><path d="M613.66,141.1a2.62,2.62,0,0,0,1.28.38c.7,0,1-.35,1-.79s-.27-.72-1-1c-1-.34-1.41-.87-1.41-1.51a1.64,1.64,0,0,1,1.84-1.56,2.62,2.62,0,0,1,1.31.33l-.24.71a2,2,0,0,0-1.09-.31c-.57,0-.89.33-.89.72s.32.64,1,.91c.92.35,1.4.81,1.4,1.6,0,.94-.73,1.6-2,1.6a3,3,0,0,1-1.5-.37Z"/><path d="M619.23,135.27a.6.6,0,0,1-1.2,0,.59.59,0,0,1,.6-.61A.57.57,0,0,1,619.23,135.27Zm-1.08,6.82v-5.33h1v5.33Z"/><path d="M625.54,139.38a2.6,2.6,0,0,1-2.65,2.83,2.53,2.53,0,0,1-2.55-2.74,2.61,2.61,0,0,1,2.64-2.83A2.52,2.52,0,0,1,625.54,139.38Zm-4.22.06c0,1.16.67,2,1.62,2s1.61-.87,1.61-2.07c0-.9-.45-2-1.59-2S621.32,138.42,621.32,139.44Z"/><path d="M626.76,138.2c0-.55,0-1,0-1.44h.86l0,.88h0a2,2,0,0,1,1.76-1c.74,0,1.89.44,1.89,2.27v3.18h-1V139c0-.86-.32-1.58-1.23-1.58a1.38,1.38,0,0,0-1.3,1,1.27,1.27,0,0,0-.07.46v3.2h-1Z"/><path d="M568.75,151h-2v-.74h5V151h-2v6h-.88Z"/><path d="M573.27,150.82a.55.55,0,0,1-1.09,0,.54.54,0,0,1,.55-.55A.52.52,0,0,1,573.27,150.82Zm-1,6.2v-4.84h.88V157Z"/><path d="M574.63,153.49c0-.5,0-.91,0-1.31h.77l0,.78h0a1.66,1.66,0,0,1,1.51-.89,1.43,1.43,0,0,1,1.37,1h0a2,2,0,0,1,.54-.63,1.65,1.65,0,0,1,1.07-.34c.64,0,1.59.42,1.59,2.1V157h-.86v-2.74c0-.93-.34-1.49-1-1.49a1.14,1.14,0,0,0-1,.8,1.45,1.45,0,0,0-.07.44v3h-.86v-2.9c0-.77-.34-1.33-1-1.33a1.31,1.31,0,0,0-1.16,1.31V157h-.86Z"/><path d="M583.46,154.76a1.55,1.55,0,0,0,1.65,1.68,3.18,3.18,0,0,0,1.34-.25l.15.63a3.92,3.92,0,0,1-1.61.3,2.25,2.25,0,0,1-2.37-2.44,2.35,2.35,0,0,1,2.26-2.61,2.05,2.05,0,0,1,2,2.28,3.32,3.32,0,0,1,0,.41Zm2.57-.63a1.25,1.25,0,0,0-1.22-1.43,1.46,1.46,0,0,0-1.34,1.43Z"/><path d="M566.92,167.79v-.43l.55-.54c1.33-1.26,1.93-1.93,1.93-2.72a.92.92,0,0,0-1-1,1.76,1.76,0,0,0-1.1.44L567,163a2.33,2.33,0,0,1,1.48-.53,1.46,1.46,0,0,1,1.59,1.51c0,1-.7,1.74-1.79,2.79l-.42.39h2.34v.59Z"/><path d="M573,162.46a9,9,0,0,1,1.34-.1,2.2,2.2,0,0,1,1.51.45,1.41,1.41,0,0,1,.47,1.12,1.58,1.58,0,0,1-.41,1.15,2.21,2.21,0,0,1-1.65.6,2.38,2.38,0,0,1-.56-.05v2.16H573Zm.7,2.6a2.29,2.29,0,0,0,.58.06c.84,0,1.35-.41,1.35-1.15s-.51-1.06-1.27-1.06a2.47,2.47,0,0,0-.66.06Z"/><path d="M581.67,165.42c0-.75-.09-1.65-.08-2.33h0c-.18.64-.41,1.31-.68,2l-1,2.62h-.53l-.87-2.57c-.25-.76-.47-1.46-.62-2.1h0c0,.68,0,1.58-.1,2.39l-.15,2.31H577l.38-5.39h.88l.92,2.61c.23.66.41,1.25.55,1.81h0c.14-.54.33-1.14.57-1.81l1-2.61h.89l.33,5.39h-.68Z"/><path d="M567.09,178.63H568v6h2.88v.73h-3.75Z"/><path d="M576,182.9a2.37,2.37,0,0,1-2.41,2.57,2.3,2.3,0,0,1-2.32-2.49,2.36,2.36,0,0,1,2.4-2.57A2.29,2.29,0,0,1,576,182.9Zm-3.84,0c0,1.06.61,1.86,1.47,1.86s1.47-.79,1.47-1.88c0-.82-.41-1.86-1.45-1.86S572.18,182,572.18,183Z"/><path d="M580.58,185.18a3.24,3.24,0,0,1-1.39.28,2.3,2.3,0,0,1-2.41-2.47,2.46,2.46,0,0,1,2.6-2.57,2.94,2.94,0,0,1,1.22.25l-.2.68a2,2,0,0,0-1-.23,1.82,1.82,0,0,0,0,3.64,2.5,2.5,0,0,0,1.08-.24Z"/><path d="M584.29,185.36l-.07-.61h0a1.8,1.8,0,0,1-1.48.72,1.38,1.38,0,0,1-1.48-1.39c0-1.17,1-1.81,2.91-1.8v-.1a1,1,0,0,0-1.1-1.12,2.41,2.41,0,0,0-1.26.36l-.2-.58a3,3,0,0,1,1.59-.43c1.48,0,1.84,1,1.84,2v1.81a6.81,6.81,0,0,0,.08,1.16Zm-.13-2.47c-1,0-2,.15-2,1.09a.78.78,0,0,0,.83.84,1.2,1.2,0,0,0,1.17-.81.92.92,0,0,0,0-.28Z"/><path d="M587.45,179.14v1.38h1.26v.67h-1.26v2.61c0,.6.17.94.66.94a2,2,0,0,0,.51-.06l0,.66a2.15,2.15,0,0,1-.78.12,1.22,1.22,0,0,1-1-.37,1.79,1.79,0,0,1-.34-1.26v-2.64h-.75v-.67h.75v-1.15Z"/><path d="M590.68,179.17a.55.55,0,0,1-1.09,0,.54.54,0,0,1,.55-.55A.52.52,0,0,1,590.68,179.17Zm-1,6.19v-4.84h.88v4.84Z"/><path d="M596.42,182.9a2.37,2.37,0,0,1-2.41,2.57,2.3,2.3,0,0,1-2.32-2.49,2.36,2.36,0,0,1,2.4-2.57A2.29,2.29,0,0,1,596.42,182.9Zm-3.84,0c0,1.06.61,1.86,1.47,1.86s1.47-.79,1.47-1.88c0-.82-.41-1.86-1.45-1.86S592.58,182,592.58,183Z"/><path d="M597.53,181.83c0-.5,0-.91,0-1.31h.78l.05.8h0a1.78,1.78,0,0,1,1.6-.91c.67,0,1.71.4,1.71,2.06v2.89h-.88v-2.79c0-.78-.29-1.43-1.12-1.43a1.25,1.25,0,0,0-1.18.9,1.27,1.27,0,0,0-.06.41v2.91h-.88Z"/><path d="M567.7,194.44l-.56,1.69h-.72l1.83-5.39h.84l1.84,5.39h-.74l-.58-1.69Zm1.77-.55-.53-1.55c-.12-.35-.2-.67-.28-1h0c-.08.32-.17.65-.28,1l-.52,1.55Z"/><path d="M572.47,191.15v1.11h1v.54h-1v2.09c0,.48.14.75.53.75a1.81,1.81,0,0,0,.41,0l0,.53a1.91,1.91,0,0,1-.63.09,1,1,0,0,1-.76-.29,1.44,1.44,0,0,1-.27-1V192.8h-.6v-.54h.6v-.92Z"/><path d="M575,194h0c.1-.14.23-.3.35-.44l1.13-1.34h.85l-1.5,1.59,1.71,2.28h-.86l-1.33-1.85-.36.4v1.45h-.7v-5.67h.7Z"/><path d="M578.94,191.18a.44.44,0,0,1-.87,0,.43.43,0,0,1,.44-.44A.42.42,0,0,1,578.94,191.18Zm-.78,4.95v-3.87h.7v3.87Z"/><path d="M580,193.31c0-.4,0-.73,0-1.05h.62l0,.64h0a1.43,1.43,0,0,1,1.28-.72c.53,0,1.37.32,1.37,1.64v2.31h-.71V193.9c0-.62-.23-1.14-.89-1.14a1,1,0,0,0-1,.72,1.09,1.09,0,0,0,0,.33v2.32H580Z"/><path d="M584.37,195.41a1.83,1.83,0,0,0,.93.28c.51,0,.75-.25.75-.57s-.2-.52-.72-.71c-.69-.25-1-.64-1-1.1a1.19,1.19,0,0,1,1.34-1.13,1.92,1.92,0,0,1,1,.24l-.18.51a1.45,1.45,0,0,0-.79-.23c-.42,0-.65.24-.65.53s.23.47.74.66c.67.25,1,.59,1,1.16s-.52,1.16-1.44,1.16a2.19,2.19,0,0,1-1.09-.26Z"/><path d="M589.36,190.74h.69v4.81h2.31v.58h-3Z"/><path d="M593.89,191.18a.41.41,0,0,1-.44.43.42.42,0,0,1-.43-.43.43.43,0,0,1,.44-.44A.41.41,0,0,1,593.89,191.18Zm-.78,4.95v-3.87h.7v3.87Z"/><path d="M595,196.13c0-.26,0-.65,0-1v-4.67h.7v2.43h0a1.45,1.45,0,0,1,1.32-.71,1.73,1.73,0,0,1,1.63,2,1.84,1.84,0,0,1-1.73,2.07,1.38,1.38,0,0,1-1.3-.73h0l0,.64Zm.73-1.55a1.07,1.07,0,0,0,1.09,1.08c.73,0,1.17-.6,1.17-1.49s-.4-1.43-1.15-1.43a1.11,1.11,0,0,0-1.07.86,1.12,1.12,0,0,0,0,.29Z"/><path d="M599.53,193.47c0-.45,0-.85,0-1.21h.62l0,.76h0a1.16,1.16,0,0,1,1.08-.84.65.65,0,0,1,.2,0v.66l-.24,0a1,1,0,0,0-1,.9,3.11,3.11,0,0,0,0,.33v2.06h-.7Z"/><path d="M604.25,196.13l0-.48h0a1.44,1.44,0,0,1-1.18.57,1.1,1.1,0,0,1-1.18-1.11c0-.94.83-1.45,2.32-1.44v-.08a.8.8,0,0,0-.88-.89,2,2,0,0,0-1,.28l-.16-.46a2.37,2.37,0,0,1,1.27-.34c1.18,0,1.47.8,1.47,1.58v1.45a5.2,5.2,0,0,0,.06.92Zm-.1-2c-.77,0-1.64.12-1.64.87a.62.62,0,0,0,.66.67,1,1,0,0,0,.94-.65.85.85,0,0,0,0-.22Z"/><path d="M606,193.47c0-.45,0-.85,0-1.21h.62l0,.76h0a1.15,1.15,0,0,1,1.07-.84.65.65,0,0,1,.2,0v.66l-.24,0a1,1,0,0,0-.95.9,3.11,3.11,0,0,0,0,.33v2.06H606Z"/><path d="M609,192.26l.85,2.29c.08.26.18.56.24.79h0c.07-.23.15-.53.25-.81l.76-2.27h.75L610.85,195a5.91,5.91,0,0,1-1.32,2.43,1.92,1.92,0,0,1-.87.45l-.17-.59a2.12,2.12,0,0,0,.61-.34,2.26,2.26,0,0,0,.59-.79.38.38,0,0,0,.06-.17.71.71,0,0,0,0-.18l-1.43-3.57Z"/><rect class="cls-5" x="534.14" y="211.18" width="64.84" height="17.39" rx="4.99"/><text class="cls-6" transform="translate(549.01 222.22)"><tspan class="cls-7">V</tspan><tspan x="4.34" y="0">iew</tspan><tspan class="cls-8" x="16.1" y="0"> </tspan><tspan class="cls-9" x="17.47" y="0">T</tspan><tspan x="21.09" y="0">u</tspan><tspan class="cls-10" x="25.5" y="0">t</tspan><tspan x="28.1" y="0">or</tspan></text><rect class="cls-5" x="614.32" y="211.18" width="64.84" height="17.39" rx="4.99"/><text class="cls-6" transform="translate(638.69 222.22)"><tspan class="cls-7">V</tspan><tspan x="4.34" y="0">iew</tspan></text><path d="M573.25,94.69h1.3v6.76c0,2.69-1.32,3.51-3.06,3.51a4.07,4.07,0,0,1-1.39-.24l.19-1.06a3.25,3.25,0,0,0,1.1.19c1.17,0,1.86-.52,1.86-2.5Z"/><path d="M583.25,101.11a3.55,3.55,0,0,1-3.61,3.85,3.45,3.45,0,0,1-3.48-3.73,3.55,3.55,0,0,1,3.6-3.86A3.44,3.44,0,0,1,583.25,101.11Zm-5.76.07c0,1.59.92,2.79,2.21,2.79s2.2-1.18,2.2-2.82c0-1.23-.61-2.79-2.17-2.79S577.49,99.8,577.49,101.18Z"/><path d="M584.92,94.15h1.32v4.53h0a2.4,2.4,0,0,1,.94-.93,2.68,2.68,0,0,1,1.35-.38c1,0,2.54.6,2.54,3.11v4.32h-1.32v-4.17c0-1.17-.44-2.16-1.68-2.16a1.89,1.89,0,0,0-1.77,1.32,1.5,1.5,0,0,0-.09.63v4.38h-1.32Z"/><path d="M593.24,99.5c0-.75,0-1.36-.06-2h1.17l.08,1.2h0a2.67,2.67,0,0,1,2.4-1.37c1,0,2.56.6,2.56,3.09v4.34H598.1v-4.19c0-1.17-.43-2.14-1.68-2.14a1.94,1.94,0,0,0-1.86,2v4.37h-1.32Z"/><path d="M604.79,94.82a18.76,18.76,0,0,1,2.78-.21,5.8,5.8,0,0,1,4.09,1.26,4.67,4.67,0,0,1,1.43,3.63,5.33,5.33,0,0,1-1.46,3.93,6.19,6.19,0,0,1-4.47,1.46,22.32,22.32,0,0,1-2.37-.12Zm1.31,8.94a8.17,8.17,0,0,0,1.32.08c2.79,0,4.3-1.56,4.3-4.29,0-2.39-1.33-3.9-4.09-3.9a7.78,7.78,0,0,0-1.53.13Z"/><path d="M621.37,101.11a3.55,3.55,0,0,1-3.62,3.85,3.45,3.45,0,0,1-3.48-3.73,3.55,3.55,0,0,1,3.6-3.86A3.44,3.44,0,0,1,621.37,101.11Zm-5.76.07c0,1.59.91,2.79,2.2,2.79s2.21-1.18,2.21-2.82c0-1.23-.62-2.79-2.18-2.79S615.61,99.8,615.61,101.18Z"/><path d="M623.77,101.41a2.33,2.33,0,0,0,2.49,2.52,4.8,4.8,0,0,0,2-.38l.22,1a5.85,5.85,0,0,1-2.41.45,3.37,3.37,0,0,1-3.57-3.66c0-2.19,1.29-3.92,3.4-3.92,2.37,0,3,2.09,3,3.42,0,.27,0,.48,0,.62Zm3.87-1a1.88,1.88,0,0,0-1.83-2.14,2.19,2.19,0,0,0-2,2.14Z"/><path class="cls-4" d="M104.32,119.6a15.2,15.2,0,0,0-5.58-7.93c-5.24-3.47-11.34-5.32-17.24-7.31a23.28,23.28,0,0,1-4.16-1.81,4.85,4.85,0,0,1-1.87-3.35,16.77,16.77,0,0,1-.23-2c4.28-5.85,7.11-15.4,7.11-23.23,0-12.22-6.9-15.62-15.42-15.62S51.51,61.75,51.51,74c0,8.11,3,18.06,7.58,23.84,0,.45-.1.91-.18,1.36a4.81,4.81,0,0,1-1.86,3.32,22.8,22.8,0,0,1-4.17,1.77c-5.9,2-12,3.73-17.24,7.21-2.72,1.79-4.56,5.08-5.58,8.13a32.51,32.51,0,0,0-1.41,10.28h77.08A32.51,32.51,0,0,0,104.32,119.6Z"/><circle class="cls-11" cx="67.19" cy="112.94" r="64.69"/><path class="cls-4" d="M46.82,146.82a4,4,0,0,0,2,.56c1.14,0,1.8-.6,1.8-1.47s-.46-1.27-1.62-1.71c-1.4-.5-2.27-1.23-2.27-2.44s1.11-2.34,2.78-2.34a3.94,3.94,0,0,1,1.91.42l-.31.91a3.48,3.48,0,0,0-1.64-.41c-1.17,0-1.62.7-1.62,1.29,0,.8.53,1.2,1.71,1.66,1.46.56,2.2,1.27,2.2,2.53s-1,2.48-3,2.48a4.53,4.53,0,0,1-2.2-.55Z"/><path class="cls-4" d="M54.55,140.21V142h1.61v.85H54.55v3.34c0,.76.21,1.2.84,1.2a2.41,2.41,0,0,0,.65-.08l.05.84a2.73,2.73,0,0,1-1,.16,1.55,1.55,0,0,1-1.21-.48,2.27,2.27,0,0,1-.43-1.6v-3.38h-1V142h1v-1.48Z"/><path class="cls-4" d="M62.59,146.48c0,.64,0,1.2,0,1.69h-1l-.07-1h0a2.34,2.34,0,0,1-2.05,1.15c-1,0-2.13-.54-2.13-2.71V142H58.5v3.42c0,1.18.36,2,1.38,2a1.62,1.62,0,0,0,1.48-1,1.54,1.54,0,0,0,.11-.58V142h1.12Z"/><path class="cls-4" d="M69.79,139.1v7.47c0,.55,0,1.18,0,1.6h-1l0-1.07h0a2.29,2.29,0,0,1-2.11,1.21c-1.49,0-2.64-1.26-2.64-3.14,0-2.06,1.26-3.32,2.77-3.32a2.06,2.06,0,0,1,1.86.94h0V139.1Zm-1.12,5.4a2.5,2.5,0,0,0,0-.47,1.66,1.66,0,0,0-1.63-1.3c-1.16,0-1.85,1-1.85,2.39s.62,2.28,1.83,2.28a1.69,1.69,0,0,0,1.65-1.34,2.36,2.36,0,0,0,0-.48Z"/><path class="cls-4" d="M72.28,145.28a2,2,0,0,0,2.12,2.15,4,4,0,0,0,1.71-.32l.19.8a4.92,4.92,0,0,1-2,.39,2.87,2.87,0,0,1-3-3.12c0-1.86,1.09-3.33,2.9-3.33a2.62,2.62,0,0,1,2.55,2.91,4.59,4.59,0,0,1,0,.52Zm3.29-.8A1.59,1.59,0,0,0,74,142.65a1.87,1.87,0,0,0-1.73,1.83Z"/><path class="cls-4" d="M78.05,143.66c0-.64,0-1.16,0-1.67h1l.07,1h0a2.28,2.28,0,0,1,2-1.16c.85,0,2.18.51,2.18,2.63v3.69H82.19v-3.56c0-1-.37-1.83-1.43-1.83a1.6,1.6,0,0,0-1.51,1.15,1.62,1.62,0,0,0-.08.52v3.72H78.05Z"/><path class="cls-4" d="M86.44,140.21V142h1.61v.85H86.44v3.34c0,.76.22,1.2.84,1.2a2.41,2.41,0,0,0,.65-.08l0,.84a2.67,2.67,0,0,1-1,.16,1.56,1.56,0,0,1-1.22-.48,2.27,2.27,0,0,1-.43-1.6v-3.38h-1V142h1v-1.48Z"/><line class="cls-12" x1="403.12" y1="120.93" x2="212.09" y2="120.93"/><polygon class="cls-4" points="390.93 104.86 397.76 120.93 390.93 137 429.03 120.93 390.93 104.86"/></g></g></svg>