<svg xmlns="http://www.w3.org/2000/svg" xmlns:xlink="http://www.w3.org/1999/xlink" viewBox="0 0 358.72 433"><defs><style>.cls-1{fill:url(#linear-gradient);}.cls-2{fill:#aca9c9;}.cls-3{fill:#618fd8;}.cls-4,.cls-6{opacity:0.1;}.cls-5{fill:#f7c4a7;}.cls-10,.cls-12,.cls-6,.cls-9{isolation:isolate;}.cls-10,.cls-7{fill:#fff;}.cls-8{fill:#281c1c;}.cls-9{opacity:0.3;}.cls-10{opacity:0.4;}.cls-11{fill:#8ed16f;}.cls-12{opacity:0.05;}</style><linearGradient id="linear-gradient" x1="2775.95" y1="3131.93" x2="2775.95" y2="3532.14" gradientTransform="translate(3056.07 3533.92) rotate(180)" gradientUnits="userSpaceOnUse"><stop offset="0" stop-color="gray" stop-opacity="0.25"/><stop offset="0.54" stop-color="gray" stop-opacity="0.12"/><stop offset="1" stop-color="gray" stop-opacity="0.1"/></linearGradient></defs><g id="Layer_2" data-name="Layer 2"><g id="Layer_1-2" data-name="Layer 1"><path class="cls-1" d="M201.63,53.46a7.09,7.09,0,0,0,3.09,3.92c6.66,4.39,21.14,3.46,22.88,3.46.37,0,.86.66,1.39,1.77,2.56,5.27,6.52,20.74,6.79,24.22.36,4.21,4.27,23.91,10.68,31.25.19.23.39.44.58.63,6.28,6.32,13.65-.63,13.65-.63l1.06-3.67c-.3,1.45-.63,3.14-1,5-.16,1-.33,2-.49,3a116.06,116.06,0,0,0-1.5,17.66q0,3.22.28,6.44c.05.59.12,1.18.2,1.75a60.75,60.75,0,0,1,.48,7.86c-.06,15.59-4,35-4,35l.15,0c-.09.49-.15.72-.15.72l.23-.07c-.11.72-.21,1.46-.32,2.21-1.34,9.79-2.12,22-2.49,29a58.83,58.83,0,0,0,.49,11.1l7.08,49.8V307A40.73,40.73,0,0,0,262,317.44c2.31,8.76.41,39.34-.66,53.85-.29,3.95-.53,6.72-.59,7.52v.24l.2-.08v.25a3.88,3.88,0,0,1,.94-.27c-2.8,4.35-7.88,11.53-11.79,12.74a12.42,12.42,0,0,0-5.89,3.91l-.1.14-.14.2a4.31,4.31,0,0,0-.85,2.22,2.13,2.13,0,0,1-.13-.43c-.3,1.62.67,3.1,3.72,3.81a25.09,25.09,0,0,0,5.4.44c10.58,0,29.36-3.26,31.43-6.76V383.15l.34.11v.11l1.3.43,3.56-11.95c4.26-3.16.72-59.7,0-72.7-.66-11.84,6.67-58.94,8-67.24l-.18-.21.2-1.21a4.85,4.85,0,0,1,.72.64,9,9,0,0,1,1.11,1.63,22.15,22.15,0,0,1,1.58,3.25c7.16,17.86,10.38,68.92,10.38,73.5v48a49.89,49.89,0,0,0,2,14,62.47,62.47,0,0,1,1.52,7.29c.15,1,.28,1.92.4,2.84s.25,1.95.35,2.81a6.27,6.27,0,0,0,.07.64,1.39,1.39,0,0,1,0,.3c.19,1.89.29,3.13.29,3.13a.76.76,0,0,1,.15-.28l0,.46a.89.89,0,0,1,.28-.45,6.73,6.73,0,0,1,1-.79v6.11l-.18-.13v1.05c7.38,5.56,19.39,7.24,28.6,7.18,6,0,10.82-.73,12.51-1.57,2.4-1.18,1.08-3.93-1.11-6-1.69-1.64-3.9-2.9-5.3-2.74-2.33.25-10.31-8.78-14.49-13.73l.47-.21.66-.29V297s1.08-31.61,4.27-62.87a111.2,111.2,0,0,0-5.47-46.64l-.1-.3,1,.15,1.58.26a5.68,5.68,0,0,0-.07-.73h.07s-1.25-13.56-1.26-30.59c0-19.3,1.63-42.84,8.38-56.16,3.88-7.67,5.18-13.77,5.07-18.58a19.42,19.42,0,0,0-3.47-11.88,9.39,9.39,0,0,0-4-3.16l-.13-.08h-.08a9.79,9.79,0,0,0-3.66-.73H325.19a9.69,9.69,0,0,1-4.81-1.27l-5.7-3.23c-1.9-4.15-2.18-9.3-1.77-14.12A10.92,10.92,0,0,1,313,46l.41-.43c.32-.34.62-.73.91-1.05a8.12,8.12,0,0,1-.07.85c-.07.46-.19.73-.39.78,3.12-.4,6.6-1,8.51-3.42l.22-.3a15.19,15.19,0,0,0,1.4-2.9,8.54,8.54,0,0,1,1.07-1.94c.48-.62,1.1-1.13,1.61-1.73l.09-.1c1.83-2.17,1.94-5.29,2-8.13,0-6.9-.17-14.49-4.79-19.67C320.12,3.62,314,2,308.2,1.8s-11.59.86-17.39.88c-3.94,0-8.7-.06-10.87,3.2-1.07,1.6-1.2,3.7-2.36,5.23-.66.89-1.69,1.65-1.74,2.75a2.82,2.82,0,0,0,.37,1.45v0a10.27,10.27,0,0,0,7.51,5,17.87,17.87,0,0,0-1.45,2,19,19,0,0,0-2.9,10.14,10.45,10.45,0,0,0,.05,1.25,19.14,19.14,0,0,0,6.07,12.76l-.18,1.21.13.12c.41.37.84.72,1.28,1l.16.13v.72c0,.42,0,.85,0,1.26s0,.67,0,1L286.7,52l-7.08-5.91L268.23,35.51s-28.46-20.72-29.89-10.87a7.11,7.11,0,0,0,1.36,4.92c5.22,8,23.19,14.75,23.19,14.75s10.71,11.33,17.87,23.54c-.25.14-.5.27-.77.39-6.38,3-15.68,1.71-15.68,1.71-10.75,1.67-11.72,13.45-11.66,18.21v1L238.38,55.66l0-.1A7,7,0,0,0,233,51.37C223.47,49.77,199.64,46.43,201.63,53.46Zm59.7,325.39c.21-.05.42-.09.64-.12l-.07.1Z"/><path class="cls-2" d="M332.59,372s13.51,17,16.63,16.63,10.4,6.58,6.24,8.7-28.06,3.46-39.85-5.55V378.21Z"/><path class="cls-2" d="M264.34,373s-8,14.21-13.51,16-10.39,8-3.12,9.7,33.26-2.08,35.68-6.24V374.07Z"/><path class="cls-3" d="M254.33,233.5l6.88,49.11v22.84a41,41,0,0,0,1.25,10.28c2.24,8.64.4,38.8-.65,53.12-.34,4.66-.6,7.65-.6,7.65,4.5-2.08,23.56,4.5,23.56,4.5l1.93-6.56,1.54-5.22c4.15-3.11.72-58.89,0-71.74-.48-8.78,3.44-37.23,5.94-54.28.73-4.82,1.32-8.7,1.67-11,.23-1.45.35-2.25.35-2.25a7.52,7.52,0,0,1,1.87,2.25,21.34,21.34,0,0,1,1.53,3.2c7,17.62,10.14,68,10.14,72.47v47.37A50.11,50.11,0,0,0,311.65,369a71.65,71.65,0,0,1,1.88,10c.49,3.76.72,6.79.72,6.79.35-2.08,21.83-11.44,21.83-11.44v-79s1-31.16,4.16-62a110.61,110.61,0,0,0-4-41.73c-.86-3-1.72-5.45-2.47-7.42-1.27-3.37-2.17-5.24-2.17-5.24H260.85c-1.19.23-2.17,2.62-3.07,6.25-.58,2.44-1.08,5.42-1.53,8.7-1.31,9.64-2.06,21.65-2.42,28.59A57,57,0,0,0,254.33,233.5Z"/><g class="cls-4"><path d="M334.83,374.58v-79s1-31.16,4.16-62-8.69-54.4-8.69-54.4h1.38s11.78,23.56,8.7,54.4-4.16,62-4.16,62v79s-21.48,9.36-21.83,11.44a10.29,10.29,0,0,0-.11-1.26C319,381.51,334.83,374.58,334.83,374.58Z"/><path d="M263.29,376.28a5.37,5.37,0,0,0-1.9.39v-.35A13.4,13.4,0,0,1,263.29,376.28Z"/><path d="M287,369.4c4.16-3.12.73-58.9,0-71.75s8-67.55,8-67.55a6,6,0,0,1,1.19,1.23c-1.27,8.17-8.4,54.65-7.77,66.32.72,12.82,4.16,68.6,0,71.75L285,381.17l-1.26-.42Z"/></g><path class="cls-5" d="M268.49,93.44l-7.25,25.64s-7.62,7.25-13.86,0-10.07-26.67-10.45-30.83S231,62.61,229,62.61,206.1,64,203.67,55.36c-1.94-6.94,21.26-3.62,30.55-2.06a6.86,6.86,0,0,1,5.2,4.13l14.25,34S261.21,82.7,268.49,93.44Z"/><path class="cls-5" d="M315.26,33.85s-9,25.29,2.43,34.3-40.9,11.44-40.9,11.44l7.1-6.76s5-19.92,1.56-36.55Z"/><path class="cls-6" d="M304.17,68.15s9.18-2.25,9.18-4.67l8.14,4.67h20.44s14.9,8.31,2.43,33.26-6.93,86.24-6.93,86.24-44.34-8-81.07,4.16c0,0,5.55-27.37,3.47-43s3.46-37.41,3.46-37.41l3.12-13.17s-.18-12.32-13-6.07c0,0-1.9-17.84,11.27-19.92,0,0,15.21,2.08,19.74-5.54C284.42,66.77,294.47,72.66,304.17,68.15Z"/><path class="cls-7" d="M304.17,67.46s9.18-2.25,9.18-4.67l6,3.43A9.47,9.47,0,0,0,324,67.46h14.3a9.44,9.44,0,0,1,7.66,3.9c3.28,4.62,6.22,13.72-1.6,29.37-12.47,24.94-6.93,86.23-6.93,86.23s-44.34-8-81.07,4.16c0,0,5.55-27.37,3.47-43s3.46-37.36,3.46-37.36l3.12-13.17s-.18-12.32-13-6.06c0,0-1.85-17.35,10.72-19.83a3.49,3.49,0,0,1,1.07-.07c2.69.28,15.22,1.19,19.23-5.61C284.42,66.07,294.47,72,304.17,67.46Z"/><path class="cls-6" d="M339.17,99s-11.09,6.93-29.11,0c0,0-19.74-7.25-26-21.48s31.52,2.43,31.52,2.43,8,0,10.39-1.74S345.4,91.36,339.17,99Z"/><path class="cls-5" d="M339.17,97.6s-11.09,6.93-29.11,0c0,0-19.74-7.24-26-21.48S263.29,46.3,263.29,46.3,238,36.6,239.38,26.9s29.1,10.74,29.1,10.74L279.57,48l36,30.49s8,0,10.39-1.73S345.4,90,339.17,97.6Z"/><path class="cls-6" d="M285.12,37.32l29.79-2.43A68.81,68.81,0,0,0,311.8,49a19,19,0,0,1-26.67.72A33.79,33.79,0,0,0,285.12,37.32Z"/><circle class="cls-5" cx="298.46" cy="34.72" r="19.05"/><path class="cls-6" d="M308.92,38.86c-1.12-1.84,1.15-4.24.4-6.25S305.9,30.43,305,28.7c-.73-1.4,0-3.12-.29-4.66-.42-2-2.56-3.23-4.6-3.33A16.4,16.4,0,0,0,294.16,22a23,23,0,0,1-9.78,1.51c-3.3-.38-6.6-2.18-8.07-5.13a2.87,2.87,0,0,1-.37-1.4c.06-1.09,1.06-1.84,1.7-2.71,1.13-1.51,1.26-3.58,2.29-5.16C282,5.92,286.65,6,290.49,6c5.65,0,11.27-1.06,16.93-.87s11.59,1.79,15.34,6c4.49,5.11,4.7,12.59,4.66,19.4,0,2.8-.12,5.85-1.91,8-.52.63-1.16,1.15-1.66,1.8-1.08,1.45-1.37,3.3-2.4,4.77-1.81,2.62-5.34,3.26-8.5,3.68.93-.13.16-6.34,0-6.91C312.35,39.06,311.69,39.11,308.92,38.86Z"/><path class="cls-8" d="M308.92,38.17c-1.12-1.84,1.15-4.24.4-6.25S305.9,29.74,305,28c-.73-1.4,0-3.11-.29-4.66-.42-2-2.56-3.23-4.6-3.33a16.4,16.4,0,0,0-5.93,1.31,22.87,22.87,0,0,1-9.78,1.51c-3.3-.38-6.6-2.18-8.07-5.13a2.87,2.87,0,0,1-.37-1.4c.06-1.09,1.06-1.84,1.7-2.71,1.13-1.51,1.26-3.57,2.29-5.15,2.1-3.22,6.72-3.14,10.56-3.16,5.65,0,11.27-1.06,16.93-.87s11.59,1.79,15.34,6c4.49,5.11,4.7,12.59,4.66,19.4,0,2.8-.12,5.86-1.91,8-.52.63-1.16,1.15-1.66,1.8-1.08,1.45-1.37,3.3-2.4,4.77-1.81,2.62-5.34,3.26-8.5,3.68.93-.12.16-6.33,0-6.91C312.35,38.33,311.69,38.42,308.92,38.17Z"/><path class="cls-6" d="M339,99.86s-9.35-24.26-16.63-25,13.86,0,13.86,0l6.92,12.48Z"/><path class="cls-7" d="M339.69,99.86s-9.36-24.26-16.63-25,13.85,0,13.85,0l6.93,12.48Z"/><path class="cls-3" d="M313.5,379.06c.49,3.76.72,6.79.72,6.79.35-2.08,21.83-11.43,21.83-11.43v-5.63a9,9,0,0,0-1.64.08c-4.16.55-8,2.58-11.59,4.74A107,107,0,0,1,313.5,379.06Z"/><path class="cls-9" d="M313.5,379.06c.49,3.76.72,6.79.72,6.79.35-2.08,21.83-11.43,21.83-11.43v-5.63a9,9,0,0,0-1.64.08c-4.16.55-8,2.58-11.59,4.74A107,107,0,0,1,313.5,379.06Z"/><path class="cls-3" d="M261.21,376.5c4.5-2.08,23.56,4.5,23.56,4.5l1.93-6.56q-5-1-9.88-2.51a33.14,33.14,0,0,1-4.43-1.64,27.4,27.4,0,0,0-3-1.38c-2.49-.85-5.07-.49-7.62-.06C261.47,373.51,261.21,376.5,261.21,376.5Z"/><path class="cls-9" d="M261.21,376.5c4.5-2.08,23.56,4.5,23.56,4.5l1.93-6.56q-5-1-9.88-2.51a33.14,33.14,0,0,1-4.43-1.64,27.4,27.4,0,0,0-3-1.38c-2.49-.85-5.07-.49-7.62-.06C261.47,373.51,261.21,376.5,261.21,376.5Z"/><path class="cls-10" d="M355.28,396.25a2.09,2.09,0,0,0,1.18-1.38,2,2,0,0,1-1.18,2.41c-4.16,2.08-28.06,3.47-39.86-5.54v-1C327.22,399.71,351.12,398.33,355.28,396.25Z"/><path class="cls-10" d="M247.53,397.63c7.25,1.73,33.26-2.08,35.68-6.24v1c-2.42,4.16-28.4,8-35.68,6.24-3-.73-3.92-2.18-3.62-3.77C244.14,396.08,245.23,397.05,247.53,397.63Z"/><path class="cls-6" d="M289.79,145.24s-7.62-2.42-9.7,0-19.86,8.12-19.86,8.12"/><rect class="cls-11" x="203.53" y="49.27" width="37.07" height="0.78"/><rect class="cls-11" x="203.53" y="50.05" width="37.07" height="0.78"/><rect class="cls-6" x="203.53" y="50.05" width="37.07" height="0.78"/><rect class="cls-11" x="203.53" y="50.83" width="37.07" height="0.78"/><rect class="cls-11" x="203.53" y="51.61" width="37.07" height="0.78"/><rect class="cls-6" x="203.53" y="51.61" width="37.07" height="0.78"/><rect class="cls-11" x="203.53" y="52.39" width="37.07" height="0.78"/><rect class="cls-11" x="203.53" y="53.17" width="37.07" height="0.78"/><rect class="cls-6" x="203.53" y="53.17" width="37.07" height="0.78"/><rect class="cls-11" x="203.53" y="53.95" width="37.07" height="0.78"/><rect class="cls-11" x="203.53" y="54.72" width="37.07" height="0.78"/><rect class="cls-6" x="203.53" y="54.72" width="37.07" height="0.78"/><rect class="cls-11" x="203.53" y="43.03" width="37.07" height="0.78"/><rect class="cls-11" x="243.86" y="18.3" width="0.78" height="37.07" transform="translate(59.75 201.07) rotate(-50.25)"/><rect class="cls-11" x="217.88" y="5.83" width="0.78" height="37.07" transform="translate(59.97 176.6) rotate(-50.25)"/><rect class="cls-11" x="203.53" y="43.81" width="37.07" height="0.78"/><rect class="cls-6" x="203.53" y="43.81" width="37.07" height="0.78"/><rect class="cls-11" x="203.53" y="44.6" width="37.07" height="0.78"/><rect class="cls-11" x="203.53" y="45.38" width="37.07" height="0.78"/><rect class="cls-6" x="203.53" y="45.38" width="37.07" height="0.78"/><rect class="cls-11" x="203.53" y="46.15" width="37.07" height="0.78"/><rect class="cls-11" x="203.53" y="46.93" width="37.07" height="0.78"/><rect class="cls-6" x="203.53" y="46.93" width="37.07" height="0.78"/><rect class="cls-11" x="203.53" y="47.71" width="37.07" height="0.78"/><rect class="cls-11" x="203.53" y="48.49" width="37.07" height="0.78"/><rect class="cls-6" x="203.53" y="48.49" width="37.07" height="0.78"/><rect class="cls-11" x="194.72" y="61.2" width="26.33" height="13.51" transform="translate(103.12 259.93) rotate(-79.48)"/><ellipse class="cls-11" cx="208.06" cy="68.03" rx="5.54" ry="2.77" transform="translate(103.19 260.18) rotate(-79.48)"/><ellipse class="cls-6" cx="208.06" cy="68.03" rx="5.54" ry="2.77" transform="translate(103.19 260.18) rotate(-79.48)"/><rect class="cls-11" x="196.99" y="115.84" width="26.33" height="13.51" transform="translate(51.25 306.83) rotate(-79.48)"/><ellipse class="cls-11" cx="210.33" cy="122.67" rx="5.54" ry="2.77" transform="translate(51.32 307.06) rotate(-79.48)"/><ellipse class="cls-6" cx="210.33" cy="122.67" rx="5.54" ry="2.77" transform="translate(51.32 307.06) rotate(-79.48)"/><rect class="cls-11" x="154.68" y="-0.96" width="13.51" height="26.33" transform="translate(73.87 148.38) rotate(-61.58)"/><ellipse class="cls-11" cx="163.69" cy="12.72" rx="2.77" ry="5.56" transform="translate(74.14 150.33) rotate(-61.39)"/><ellipse class="cls-6" cx="163.69" cy="12.72" rx="2.77" ry="5.56" transform="translate(74.14 150.33) rotate(-61.39)"/><rect class="cls-11" x="103.84" y="233.5" width="13.51" height="26.33" transform="translate(-158.98 226.53) rotate(-61.58)"/><ellipse class="cls-11" cx="110.52" cy="246.82" rx="2.77" ry="5.54" transform="translate(-159.15 226.55) rotate(-61.58)"/><ellipse class="cls-6" cx="110.52" cy="246.82" rx="2.77" ry="5.54" transform="translate(-159.15 226.55) rotate(-61.58)"/><rect class="cls-11" x="72.73" y="40.02" width="13.51" height="26.33" transform="translate(-5.12 97.78) rotate(-61.58)"/><ellipse class="cls-11" cx="79.4" cy="53.33" rx="2.77" ry="5.54" transform="translate(-5.29 97.78) rotate(-61.58)"/><ellipse class="cls-6" cx="79.4" cy="53.33" rx="2.77" ry="5.54" transform="translate(-5.29 97.78) rotate(-61.58)"/><rect class="cls-11" x="111.72" y="-0.96" width="13.51" height="26.33" transform="translate(51.35 110.59) rotate(-61.58)"/><ellipse class="cls-11" cx="118.39" cy="12.35" rx="2.77" ry="5.54" transform="translate(51.18 110.6) rotate(-61.58)"/><ellipse class="cls-6" cx="118.39" cy="12.35" rx="2.77" ry="5.54" transform="translate(51.18 110.6) rotate(-61.58)"/><rect class="cls-11" x="137" y="49.01" width="13.51" height="26.33" transform="translate(-5.91 15.99) rotate(-6.24)"/><ellipse class="cls-11" cx="143.57" cy="62.19" rx="2.77" ry="5.54" transform="translate(-5.91 15.97) rotate(-6.24)"/><ellipse class="cls-6" cx="143.57" cy="62.19" rx="2.77" ry="5.54" transform="translate(-5.91 15.97) rotate(-6.24)"/><rect class="cls-11" x="229.06" y="192.32" width="13.51" height="26.33" transform="translate(-20.94 26.85) rotate(-6.24)"/><ellipse class="cls-11" cx="235.65" cy="205.51" rx="2.77" ry="5.54" transform="translate(-20.94 26.83) rotate(-6.24)"/><ellipse class="cls-6" cx="235.65" cy="205.51" rx="2.77" ry="5.54" transform="translate(-20.94 26.83) rotate(-6.24)"/><rect class="cls-11" x="98.06" y="102.99" width="13.51" height="26.33" transform="translate(-47.22 153.06) rotate(-61.58)"/><ellipse class="cls-11" cx="104.73" cy="116.31" rx="2.77" ry="5.54" transform="translate(-47.41 153.06) rotate(-61.58)"/><ellipse class="cls-6" cx="104.73" cy="116.31" rx="2.77" ry="5.54" transform="translate(-47.41 153.06) rotate(-61.58)"/><rect class="cls-11" x="39.63" y="86.3" width="13.51" height="26.33" transform="translate(-63.17 92.92) rotate(-61.58)"/><ellipse class="cls-11" cx="48.23" cy="100.39" rx="2.77" ry="5.56" transform="translate(-63 94.65) rotate(-61.39)"/><ellipse class="cls-6" cx="48.23" cy="100.39" rx="2.77" ry="5.56" transform="translate(-63 94.65) rotate(-61.39)"/><rect class="cls-11" x="20.92" y="367.26" width="13.51" height="26.33" transform="translate(-320.08 223.71) rotate(-61.58)"/><ellipse class="cls-11" cx="27.59" cy="380.58" rx="2.77" ry="5.54" transform="translate(-320.25 223.72) rotate(-61.58)"/><ellipse class="cls-6" cx="27.59" cy="380.58" rx="2.77" ry="5.54" transform="translate(-320.25 223.72) rotate(-61.58)"/><rect class="cls-11" x="7.42" y="368.68" width="13.51" height="26.33" transform="translate(-363.85 326.13) rotate(-79.49)"/><rect class="cls-12" x="7.42" y="368.68" width="13.51" height="26.33" transform="translate(-363.85 326.13) rotate(-79.49)"/><ellipse class="cls-11" cx="14.15" cy="382.01" rx="2.77" ry="5.54" transform="translate(-364.04 326.24) rotate(-79.49)"/><ellipse class="cls-6" cx="14.15" cy="382.01" rx="2.77" ry="5.54" transform="translate(-364.04 326.24) rotate(-79.49)"/><rect class="cls-11" x="9.85" y="376.65" width="13.51" height="26.33" transform="translate(-369.7 335.03) rotate(-79.49)"/><ellipse class="cls-11" cx="16.57" cy="389.98" rx="2.77" ry="5.54" transform="translate(-369.89 335.13) rotate(-79.49)"/><ellipse class="cls-6" cx="16.57" cy="389.98" rx="2.77" ry="5.54" transform="translate(-369.89 335.13) rotate(-79.49)"/><rect class="cls-11" x="48.23" y="401.41" width="13.51" height="26.33" transform="translate(-335.79 265.62) rotate(-61.58)"/><ellipse class="cls-11" cx="54.91" cy="414.73" rx="2.77" ry="5.54" transform="translate(-335.97 265.64) rotate(-61.58)"/><ellipse class="cls-6" cx="54.91" cy="414.73" rx="2.77" ry="5.54" transform="translate(-335.97 265.64) rotate(-61.58)"/><rect class="cls-11" x="34.74" y="402.82" width="13.51" height="26.33" transform="translate(-375.08 380.9) rotate(-79.49)"/><rect class="cls-12" x="34.74" y="402.82" width="13.51" height="26.33" transform="translate(-375.08 380.9) rotate(-79.49)"/><ellipse class="cls-11" cx="41.46" cy="416.15" rx="2.77" ry="5.54" transform="translate(-375.27 381) rotate(-79.49)"/><ellipse class="cls-6" cx="41.46" cy="416.15" rx="2.77" ry="5.54" transform="translate(-375.27 381) rotate(-79.49)"/><rect class="cls-11" x="37.16" y="410.79" width="13.51" height="26.33" transform="translate(-380.94 389.8) rotate(-79.49)"/><ellipse class="cls-11" cx="43.89" cy="424.12" rx="2.77" ry="5.54" transform="translate(-381.12 389.91) rotate(-79.49)"/><ellipse class="cls-6" cx="43.89" cy="424.12" rx="2.77" ry="5.54" transform="translate(-381.12 389.91) rotate(-79.49)"/><rect class="cls-11" x="89.21" y="379.41" width="13.51" height="26.33" transform="translate(-294.97 290.13) rotate(-61.58)"/><ellipse class="cls-11" cx="95.88" cy="392.72" rx="2.77" ry="5.54" transform="translate(-295.14 290.13) rotate(-61.58)"/><ellipse class="cls-6" cx="95.88" cy="392.72" rx="2.77" ry="5.54" transform="translate(-295.14 290.13) rotate(-61.58)"/><rect class="cls-11" x="75.71" y="380.82" width="13.51" height="26.33" transform="translate(-319.94 403.2) rotate(-79.49)"/><rect class="cls-12" x="75.71" y="380.82" width="13.51" height="26.33" transform="translate(-319.94 403.2) rotate(-79.49)"/><ellipse class="cls-11" cx="82.44" cy="394.15" rx="2.77" ry="5.54" transform="translate(-320.14 403.31) rotate(-79.49)"/><ellipse class="cls-6" cx="82.44" cy="394.15" rx="2.77" ry="5.54" transform="translate(-320.14 403.31) rotate(-79.49)"/><rect class="cls-11" x="78.14" y="388.79" width="13.51" height="26.33" transform="translate(-325.8 412.1) rotate(-79.49)"/><ellipse class="cls-11" cx="84.87" cy="402.12" rx="2.77" ry="5.54" transform="translate(-325.99 412.21) rotate(-79.49)"/><ellipse class="cls-6" cx="84.87" cy="402.12" rx="2.77" ry="5.54" transform="translate(-325.99 412.21) rotate(-79.49)"/></g></g></svg>