<svg xmlns="http://www.w3.org/2000/svg" viewBox="0 0 711.8 865.38"><defs><style>.cls-1{fill:#e6e6e6;}.cls-2{fill:#fff;}.cls-3{fill:#f9a826;}.cls-4{fill:#a0616a;}.cls-5{fill:#2f2e41;}.cls-6{fill:#d0cde1;}.cls-7{fill:#6c63ff;}</style></defs><g id="Layer_2" data-name="Layer 2"><g id="Layer_1-2" data-name="Layer 1"><polygon class="cls-1" points="208.75 419.88 711.8 419.88 711.8 584.96 692.3 584.96 692.3 628.13 649.15 584.96 208.75 584.96 208.75 419.88"/><rect class="cls-2" x="223.05" y="435.47" width="474.45" height="132.59"/><rect class="cls-3" x="260.75" y="474.47" width="228.78" height="6.5"/><rect class="cls-1" x="262.05" y="497.87" width="397.76" height="6.5"/><rect class="cls-1" x="260.75" y="522.57" width="397.76" height="6.5"/><polygon class="cls-1" points="622.11 640.85 120.36 640.85 120.36 805.94 138.56 805.94 138.56 849.11 181.71 805.94 622.11 805.94 622.11 640.85"/><rect class="cls-2" x="134.66" y="656.45" width="474.45" height="132.59"/><rect class="cls-3" x="176.26" y="696.75" width="228.78" height="6.5"/><rect class="cls-1" x="176.26" y="720.15" width="397.76" height="6.5"/><rect class="cls-1" x="176.26" y="744.84" width="397.76" height="6.5"/><polygon class="cls-1" points="622.11 198.9 120.36 198.9 120.36 363.98 138.56 363.98 138.56 407.16 181.71 363.98 622.11 363.98 622.11 198.9"/><rect class="cls-2" x="134.66" y="214.5" width="474.45" height="132.59"/><rect class="cls-3" x="176.26" y="254.79" width="228.78" height="6.5"/><rect class="cls-1" x="176.26" y="279.49" width="397.76" height="6.5"/><rect class="cls-1" x="176.26" y="302.89" width="397.76" height="6.5"/><path class="cls-4" d="M567.45,491.76s-5,16.3-2.13,21.26-5,15.59-17.71,10.63S534.14,513,534.14,513s5-7.8,6.38-24.1Z"/><path class="cls-4" d="M632.29,651.55s25.5,12.75,14.17,29.76c-6.59,9.88-19.17,29.1-28.54,43.47a144.8,144.8,0,0,0-17.86,38.93l-1.79,6.17-7.08,8.51-14.88-17s22-40.39,22-48.19S616,680.6,616,680.6l-17.72-11.34S618.11,646.59,632.29,651.55Z"/><path class="cls-4" d="M549.38,695.48s-.71,19.84-1.42,27.63c-.58,6.44,5.1,24.44,3.13,44.47a188.41,188.41,0,0,0,.43,38.94l2.82,25.72-21.26,2.12L526,776.26s-4.26-41.1-2.13-54.56l-.71-28.35S538.75,687.68,549.38,695.48Z"/><path class="cls-5" d="M587.29,612.93s49.6,31.88,50.31,41.81c0,0-28.34-2.84-29.05,22,0,0-17-6.38-21.26-7.79s-26.93-16.3-26.93-16.3-9.21,7.09-9.21,18.42.71,31.18,0,32.6-17-19.13-30.47-1.42l-9.21-48.89s-2.83-29.76,2.83-31.89L554,606.55Z"/><circle class="cls-4" cx="557.17" cy="479.36" r="21.26"/><path class="cls-6" d="M562.49,516.56s-24,6.33-27.23-5.69c0,0-29.46,5.69-34.42,24.82s12.05,65.19,12.05,66.61-14.17,9.92-7.8,14.17,12.05-.71,9.21,5-7.79,7.09-3.54,8.5,29.76-20.54,49.6-14.88,29.76,1.42,29.76,1.42l8.9-76.89a17.74,17.74,0,0,0-6.31-15.76c-4.45-3.66-10.34-7.61-16.05-8.68-11.34-2.12-11.81-3.29-11.81-3.29Z"/><path class="cls-4" d="M585.16,640.9s-6.37,36.14-14.88,31.18,2.13-31.18,2.13-31.18Z"/><path class="cls-4" d="M555.56,645.24s11.05,35,1.22,34.53-12.53-28.63-12.53-28.63Z"/><path class="cls-5" d="M594.73,768.46s5-5.66,7.79,2.13,10.63,17.72,10.63,17.72,17,19.13,5,19.84-29.05-17-29.05-17l-19.84-18.42s6.58-16,9.67-16.16S581.27,775.55,594.73,768.46Z"/><path class="cls-5" d="M548.67,827.28s5,1.46,4.62-4.59c0,0,18.06,9.55,13.1,16.63l-.15.22a67,67,0,0,1-27.67,22.72c-5.44,2.41-10.29,4-11.16,2.57-2.12-3.54-2.12-10.63-.71-13.46s8.51-7.79,6.38-12,.71-15.58,4.25-15.58S548.67,827.28,548.67,827.28Z"/><path class="cls-5" d="M575.73,461.35s-6.84-14.82-20-11.4-20.52,8.55-21.09,13.67a74.13,74.13,0,0,0,.29,12.83s1.42-10.55,10.54-8.27,23.37.57,23.37.57l2.28,20.52s2.56-3.71,5.41-1.43S584.84,465.9,575.73,461.35Z"/><path class="cls-6" d="M512.89,535s17,46.06,15.59,51.73,0,6.38,2.12,7.79,7.8,16.3,7.8,16.3,3.54,8.51,6.37,10.63,2.84,7.8,2.84,7.8,7.08,7.08,5.67,8.5-1.42,3.54,1.41,5.67,5.67,5,4.26,5.67-11.34,8.5-14.18,7.79,1.42-3.54-2.12-5-5.67-3.54-4.25-4.25,5.67-.71,1.41-2.13-19.13-10.63-24.09-22S487,543.62,501.36,534C501.36,534,507.22,526.48,512.89,535Z"/><path class="cls-6" d="M591.54,527.19l.29.12a17.83,17.83,0,0,1,10.6,12.83c1.55,7.4,3.07,18.12,1.87,28.15-2.13,17.71-3.55,25.51-6.38,31.17s-3.54,3.55-2.84,7.8,4.26.71.71,6.38-5.67,4.25-4.25,7.08,3.54,2.84.71,6.38-2.83,5-3.54,6.38-2.84,12-2.84,12-11.34-3.54-17.71-2.12c0,0,5.67-9.92,4.25-12s-3.54-2.83-1.42-5,5.67-1.42,2.13-3.54S576,598.76,576,598.76Z"/><path class="cls-5" d="M139.57,54c-35.85,9.89-75.11,17.33-89.17,5.78C58.1,47,62.54,34.35,62.92,22a21.78,21.78,0,0,1,6.4-15.11A24.38,24.38,0,0,1,89.65.24L99,1.54l.93.15A21.78,21.78,0,0,1,117.39,20C119.35,33.48,125.94,45.13,139.57,54Z"/><path class="cls-4" d="M174.15,181.68l13.94,2.87a7.31,7.31,0,0,1,5.24,10.07h0a7.32,7.32,0,0,1-9.62,3.82,6.89,6.89,0,0,1-.93-.49l-21.32-13.11L125.25,99.72,144,94.29Z"/><polygon class="cls-4" points="74.87 293.38 64.31 296.45 56.33 279.95 64.45 275.72 74.87 293.38"/><polygon class="cls-4" points="69.14 364.06 56.19 360.63 58.22 338.39 69.36 339.07 69.14 364.06"/><path class="cls-5" d="M70.86,278l-13.72,9L4.4,227.32a11.75,11.75,0,0,1,1-16.59,11.88,11.88,0,0,1,1.76-1.29l65.7-39.26L83,199.09,48.73,231.2Z"/><path class="cls-5" d="M82.41,309.19l-.11.13c-.87,5.13-2.41,9.81-5.85,13.2A10.22,10.22,0,0,1,64,328.13h0a10.23,10.23,0,0,1-7.1-10.89l2.56-22.91c6.15-1.41,10.84-4.91,13.21-11.71l6,4.07A15.72,15.72,0,0,1,82.9,308.5Z"/><circle class="cls-4" cx="88.91" cy="28.02" r="21.11"/><path class="cls-4" d="M107.19,62,73.91,89.52,71.32,78.18l5.81-8.86c1.61-8.68.57-18.26-2.2-28.42l21.71,0C97.57,49.13,100.77,56.29,107.19,62Z"/><path class="cls-7" d="M116.55,134.05,71.63,147.74l-3.49-16c-8.42-11.31-12.08-21.62-6.57-30L58.79,89.05C66.74,82.79,73,76.38,76.43,69.74l27.64-10.8,20.32,1.25,6,20.11Z"/><path class="cls-7" d="M148.47,96.54a46.25,46.25,0,0,0-26.82,8.22l2.74-44.57h0a16.15,16.15,0,0,1,12.74,9.7Z"/><path class="cls-5" d="M70.62,344.4l-14.26-3.51,2.1-121.15,19.15-21-4.29-26.58-2.77-29.78,46.77-11.6c15.8,28.71,25.36,54.8,11.41,71.1Z"/><path class="cls-5" d="M67.44,385.3l-.19.08c-4.14,4.81-8.69,8.73-14.41,10.1a12.45,12.45,0,0,1-16.5-2h0a12.47,12.47,0,0,1-.56-15.83l17.07-22.3c7.31,2.38,14.4,1.68,21.15-3.93l3.68,8a19.13,19.13,0,0,1-9.29,25.42C68.08,385,67.76,385.18,67.44,385.3Z"/><path class="cls-4" d="M15.35,196.25,2.84,207A8.12,8.12,0,0,0,2,218.41a8.23,8.23,0,0,0,2.83,2.13h0A8.14,8.14,0,0,0,15.28,217l9-16.88,41.5-75.74-15.61-2.93Z"/><path class="cls-7" d="M68.33,126.48c-8.1-2.45-15.7-3.89-21.59-2,1.24-15.27,3.78-28.92,12-35.44l11.76,1.38Z"/><path class="cls-5" d="M112.47,23.12,67.32,20.35l.56-9Q91.52-4.62,113,14.1Z"/></g></g></svg>