<svg xmlns="http://www.w3.org/2000/svg" viewBox="0 0 21.04 20.32"><defs><style>.cls-1{fill:#a3a3a3;stroke:#a3a3a3;stroke-miterlimit:10;}</style></defs><title>msgIcon</title><g id="Layer_2" data-name="Layer 2"><g id="Layer_1-2" data-name="Layer 1"><g id="Layer_1-2-2" data-name="Layer 1-2"><g id="Layer_1-2-2-2" data-name="Layer 1-2-2"><path class="cls-1" d="M18.54.5H5.83a2,2,0,0,0-2,2V5.17H2.5a2,2,0,0,0-2,2v7.05a2,2,0,0,0,2,2h2V19.5a.33.33,0,0,0,.21.31.24.24,0,0,0,.12,0,.33.33,0,0,0,.25-.11l3.23-3.55h6.88a2,2,0,0,0,2-2V11.5h1.35a2,2,0,0,0,2-2v-7A2,2,0,0,0,18.54.5Zm-2,13.69a1.31,1.31,0,0,1-1.31,1.31h-7a.33.33,0,0,0-.25.11l-2.75,3V15.83a.35.35,0,0,0-.34-.33H2.5a1.31,1.31,0,0,1-1.31-1.31v-7A1.32,1.32,0,0,1,2.45,5.83H15.21a1.31,1.31,0,0,1,1.31,1.31h0v7.05Zm3.33-4.67a1.3,1.3,0,0,1-1.29,1.31H17.19V7.14a2,2,0,0,0-2-2H4.52V2.48A1.31,1.31,0,0,1,5.83,1.17H18.54a1.3,1.3,0,0,1,1.31,1.29h0Z"/></g></g></g></g></svg>