<svg xmlns="http://www.w3.org/2000/svg" viewBox="0 0 20.02 20.69"><defs><style>.cls-1{fill:#212325;}</style></defs><title>MyConnectionsLight</title><g id="Layer_2" data-name="Layer 2"><g id="Layer_1-2" data-name="Layer 1"><g id="Layer_1-2-2" data-name="Layer 1-2"><path class="cls-1" d="M14,.08a4.94,4.94,0,0,0-2.12,1c-.45.36-4.35,4.41-4.49,4.67l-.09.18h.17A5.31,5.31,0,0,1,9.89,6l.41.11L11.87,4.5c1.38-1.43,1.6-1.63,1.91-1.78a2.5,2.5,0,0,1,3,.51,2.52,2.52,0,0,1,.9,2.07,2.33,2.33,0,0,1-.38,1.45c-.08.14-1.05,1.17-2.15,2.31-1.88,1.92-2,2.06-2.36,2.22a2.52,2.52,0,0,1-1.85.14,2.4,2.4,0,0,1-1-.55c-.51-.44-.77-.53-1.22-.44A1.23,1.23,0,0,0,7.86,12a1.3,1.3,0,0,0,.47.68,4.88,4.88,0,0,0,3.87,1.31,5.17,5.17,0,0,0,2.47-1c.51-.4,4.22-4.29,4.49-4.7a6.33,6.33,0,0,0,.74-1.71,6.09,6.09,0,0,0,0-2.48A5.51,5.51,0,0,0,16.5.26,5,5,0,0,0,14,.08Z"/><path class="cls-1" d="M7.73,6.8a5.09,5.09,0,0,0-2.17.88C5.18,8,1.42,11.81,1,12.33a5.29,5.29,0,0,0-.46,5.46,5.52,5.52,0,0,0,3.3,2.76,5.25,5.25,0,0,0,2.43,0,5.79,5.79,0,0,0,1.65-.77,55.13,55.13,0,0,0,4.73-4.94,2.09,2.09,0,0,0-.5,0,6.12,6.12,0,0,1-2-.17l-.41-.12L8.21,16.21c-.9.91-1.65,1.65-1.79,1.73a2.38,2.38,0,0,1-1.33.33,2.46,2.46,0,0,1-2-.94,2.73,2.73,0,0,1-.49-3.08c.14-.32.36-.56,2.17-2.44A14.74,14.74,0,0,1,7.16,9.53a2.42,2.42,0,0,1,2-.19,2.17,2.17,0,0,1,.9.53c.51.44.78.53,1.23.44a1.34,1.34,0,0,0,.87-.91,1.26,1.26,0,0,0-.48-1.29,5.06,5.06,0,0,0-1.33-.91A5.36,5.36,0,0,0,7.73,6.8Z"/></g></g></g></svg>