<svg xmlns="http://www.w3.org/2000/svg" viewBox="0 0 119.06 123.47"><defs><style>.cls-1{fill:#fff;}</style></defs><title>newMessageIcon_2</title><g id="Layer_2" data-name="Layer 2"><g id="Layer_1-2" data-name="Layer 1"><path class="cls-1" d="M59.53,0A59.52,59.52,0,0,0,30.32,111.39l2.84-14.67L52.84,107l-12.12,9A59.53,59.53,0,1,0,59.53,0ZM95.91,66.83H64.63V98.11H54.43V66.83H23.15V56.64H54.43V25.36h10.2V56.64H95.91Z"/><path class="cls-1" d="M28.39,121.35a1.78,1.78,0,0,0,2.81,1.76L40.72,116a58.74,58.74,0,0,1-10.4-4.61Z"/><path class="cls-1" d="M33.16,96.72l-2.84,14.67A58.74,58.74,0,0,0,40.72,116l12.12-9Z"/></g></g></svg>