<svg xmlns="http://www.w3.org/2000/svg" viewBox="0 0 1082.2 789.06"><defs><style>.cls-1,.cls-7{fill:#f2f2f2;}.cls-2{fill:#2f2e41;}.cls-3,.cls-6{fill:#007bff;}.cls-4{fill:none;stroke:#3f3d56;stroke-miterlimit:10;}.cls-5{fill:#fff;}.cls-6{opacity:0.3;isolation:isolate;}.cls-7{font-size:80px;font-family:OpenSans-Bold, Open Sans;font-weight:700;}</style></defs><g id="Layer_2" data-name="Layer 2"><g id="Layer_1-2" data-name="Layer 1"><ellipse class="cls-1" cx="527.5" cy="604.4" rx="527.5" ry="34.92"/><path class="cls-2" d="M507.28,222.1c-85.94,0-147.65,55.14-147.65,183.8,0,145.82,61.71,184.41,147.65,184.41S658.61,548,658.61,405.9C658.61,254,593.23,222.1,507.28,222.1Zm.57,319.81c-59.53,0-90.63-34.92-90.63-135.91,0-89.12,32.37-136.11,91.9-136.11S601,300.76,601,406C601,504.44,567.37,541.91,507.85,541.91Z"/><path class="cls-3" d="M308.17,488.61H272.63V384a21,21,0,0,0-20.95-21h-8.33a21,21,0,0,0-20.95,21h0V488.61H122.17a12,12,0,0,1-10.58-17.55L217.67,270.28A21,21,0,0,0,208.93,242q-.42-.22-.84-.42l-6.26-3a21,21,0,0,0-27.43,9.07L45,489.69a28.32,28.32,0,0,0-3.36,13.39h0A28.41,28.41,0,0,0,70.08,531.5H222.4v66.17a25.11,25.11,0,0,0,25.11,25.11h0a25.11,25.11,0,0,0,25.12-25.11h0V531.5h35.54a21.44,21.44,0,0,0,21.44-21.45h0a21.44,21.44,0,0,0-21.44-21.44Z"/><path class="cls-3" d="M966.16,488.61H930.63V384a21,21,0,0,0-21-21h-8.32a21,21,0,0,0-21,21h0V488.61H780.16a12,12,0,0,1-10.58-17.55L875.67,270.28A21,21,0,0,0,866.93,242q-.42-.22-.84-.42l-6.27-3a21,21,0,0,0-27.43,9.07L703,489.69a28.43,28.43,0,0,0-3.35,13.39h0a28.41,28.41,0,0,0,28.41,28.42H880.39v66.17a25.12,25.12,0,0,0,25.12,25.11h0a25.12,25.12,0,0,0,25.12-25.11h0V531.5h35.53a21.45,21.45,0,0,0,21.45-21.45h0a21.44,21.44,0,0,0-21.45-21.44Z"/><path class="cls-4" d="M318,476.36H282.44V371.72a21,21,0,0,0-21-21h-8.33a21,21,0,0,0-21,21h0V476.36H132a12,12,0,0,1-10.58-17.55L227.47,258a21,21,0,0,0-8.74-28.32q-.4-.22-.84-.42l-6.26-3a21,21,0,0,0-27.43,9.07l-129.38,242a28.48,28.48,0,0,0-3.36,13.4h0a28.42,28.42,0,0,0,28.42,28.41H232.2v66.17a25.12,25.12,0,0,0,25.12,25.12h0a25.12,25.12,0,0,0,25.12-25.12h0V519.24H318a21.44,21.44,0,0,0,21.44-21.44h0A21.44,21.44,0,0,0,318,476.36Z"/><path class="cls-4" d="M984.54,476.36H949V371.72a21,21,0,0,0-21-21h-8.32a21,21,0,0,0-21,21h0V476.36H798.54A12,12,0,0,1,788,458.81L894.05,258a21,21,0,0,0-8.74-28.32q-.42-.22-.84-.42l-6.27-3a21,21,0,0,0-27.43,9.07l-129.38,242a28.47,28.47,0,0,0-3.35,13.4h0a28.41,28.41,0,0,0,28.41,28.41H898.77v66.17a25.12,25.12,0,0,0,25.12,25.12h0A25.12,25.12,0,0,0,949,585.41h0V519.24h35.53A21.44,21.44,0,0,0,1006,497.8h0a21.44,21.44,0,0,0-21.45-21.44Z"/><path class="cls-4" d="M526.89,211.08c-85.95,0-147.65,55.14-147.65,183.79,0,145.82,61.7,184.42,147.65,184.42S678.21,537,678.21,394.87C678.21,242.94,612.83,211.08,526.89,211.08Zm.56,319.81c-59.52,0-90.62-34.93-90.62-135.92,0-89.11,32.37-136.11,91.9-136.11S620.62,289.73,620.62,395c0,98.45-33.64,135.92-93.17,135.92Z"/><ellipse class="cls-2" cx="467.8" cy="374.21" rx="17" ry="22"/><ellipse class="cls-2" cx="560.3" cy="374.71" rx="17" ry="22"/><path class="cls-2" d="M547.3,439.71c0,9.94-13.88,18-31,18s-31-8.06-31-18c0-8.61,10.41-15.81,24.32-17.57a49.84,49.84,0,0,1,6.68-.43,50.73,50.73,0,0,1,11.13,1.2C539.05,425.5,547.3,432.05,547.3,439.71Z"/><ellipse class="cls-4" cx="471.8" cy="369.21" rx="17" ry="22"/><ellipse class="cls-4" cx="564.3" cy="369.71" rx="17" ry="22"/><ellipse class="cls-4" cx="520.3" cy="434.71" rx="31" ry="18"/><path class="cls-5" d="M527.8,424.41a4.9,4.9,0,0,1-1.32,3.39,4.32,4.32,0,0,1-3.18,1.41h-10a4.67,4.67,0,0,1-4.5-4.8,5,5,0,0,1,.82-2.74,46.77,46.77,0,0,1,6.68-.46,47.88,47.88,0,0,1,11.13,1.28A4.86,4.86,0,0,1,527.8,424.41Z"/><circle class="cls-5" cx="471.8" cy="363.21" r="5"/><circle class="cls-5" cx="564.8" cy="363.21" r="5"/><circle class="cls-6" cx="569.8" cy="410.21" r="5"/><circle class="cls-6" cx="447.8" cy="410.21" r="5"/><text class="cls-7" transform="translate(419.71 68.55)">Oops! <tspan x="-346.48" y="96">No Tutors in this Major</tspan></text><text/></g></g></svg>