<svg xmlns="http://www.w3.org/2000/svg" viewBox="0 0 1297.01 783.53"><defs><style>.cls-1,.cls-7{fill:#f2f2f2;}.cls-2{fill:#2f2e41;}.cls-3,.cls-6{fill:#007bff;}.cls-4{fill:none;stroke:#3f3d56;stroke-miterlimit:10;}.cls-5{fill:#fff;}.cls-6{opacity:0.3;isolation:isolate;}.cls-7{font-size:67px;font-family:OpenSans-Bold, Open Sans;font-weight:700;}</style></defs><g id="Layer_2" data-name="Layer 2"><g id="Layer_1-2" data-name="Layer 1"><text/><ellipse class="cls-1" cx="648.51" cy="598.88" rx="527.5" ry="34.92"/><path class="cls-2" d="M628.29,216.58c-85.94,0-147.65,55.14-147.65,183.8,0,145.81,61.71,184.41,147.65,184.41s151.33-42.27,151.33-184.41C779.62,248.44,714.23,216.58,628.29,216.58Zm.56,319.81c-59.52,0-90.62-34.92-90.62-135.92,0-89.11,32.37-136.1,91.9-136.1S722,295.24,722,400.47C722,498.92,688.38,536.39,628.85,536.39Z"/><path class="cls-3" d="M429.18,483.09H393.64V378.45a21,21,0,0,0-20.95-21h-8.33a21,21,0,0,0-21,21h0V483.09H243.17a12,12,0,0,1-10.57-17.55L338.68,264.76a21,21,0,0,0-8.74-28.32q-.42-.23-.84-.42l-6.27-3a20.94,20.94,0,0,0-27.42,9.07L166,484.16a28.44,28.44,0,0,0-3.35,13.4h0A28.41,28.41,0,0,0,191.08,526H343.4v66.17a25.12,25.12,0,0,0,25.12,25.12h0a25.12,25.12,0,0,0,25.12-25.12h0V526h35.54a21.44,21.44,0,0,0,21.44-21.44h0a21.44,21.44,0,0,0-21.44-21.44Z"/><path class="cls-3" d="M1087.17,483.09h-35.53V378.45a21,21,0,0,0-21-21h-8.32a21,21,0,0,0-21,21h0V483.09H901.17a12,12,0,0,1-10.58-17.55L996.67,264.76a21,21,0,0,0-8.73-28.32c-.28-.15-.56-.29-.85-.42l-6.26-3a21,21,0,0,0-27.43,9.07L824,484.16a28.45,28.45,0,0,0-3.36,13.4h0A28.42,28.42,0,0,0,849.08,526H1001.4v66.17a25.12,25.12,0,0,0,25.12,25.12h0a25.12,25.12,0,0,0,25.12-25.12h0V526h35.53a21.44,21.44,0,0,0,21.44-21.44h0a21.44,21.44,0,0,0-21.44-21.44Z"/><path class="cls-4" d="M439,470.83H403.44V366.2a21,21,0,0,0-20.95-21h-8.33a21,21,0,0,0-21,21h0V470.83H253a12,12,0,0,1-10.58-17.55L348.48,252.5a21,21,0,0,0-8.74-28.32l-.84-.42-6.26-2.95a21,21,0,0,0-27.43,9.07l-129.38,242a28.32,28.32,0,0,0-3.36,13.39h0a28.41,28.41,0,0,0,28.42,28.42H353.21v66.17A25.12,25.12,0,0,0,378.32,605h0a25.12,25.12,0,0,0,25.12-25.12h0V513.72H439a21.44,21.44,0,0,0,21.44-21.44h0A21.44,21.44,0,0,0,439,470.83Z"/><path class="cls-4" d="M1105.55,470.83H1070V366.2a21,21,0,0,0-21-21h-8.32a21,21,0,0,0-21,21h0V470.83H919.55A12,12,0,0,1,909,453.28L1015.05,252.5a21,21,0,0,0-8.74-28.32l-.84-.42-6.26-2.95a21,21,0,0,0-27.43,9.07l-129.38,242A28.44,28.44,0,0,0,839,485.3h0a28.42,28.42,0,0,0,28.42,28.42h152.32v66.17A25.12,25.12,0,0,0,1044.9,605h0A25.12,25.12,0,0,0,1070,579.89h0V513.72h35.53A21.44,21.44,0,0,0,1127,492.28h0a21.44,21.44,0,0,0-21.44-21.45Z"/><path class="cls-4" d="M647.89,205.55c-85.94,0-147.65,55.14-147.65,183.8,0,145.81,61.71,184.41,147.65,184.41s151.33-42.27,151.33-184.41C799.22,237.41,733.84,205.55,647.89,205.55Zm.57,319.81c-59.53,0-90.63-34.92-90.63-135.92,0-89.11,32.38-136.1,91.9-136.1s91.9,30.87,91.9,136.1c0,98.45-33.64,135.92-93.17,135.92Z"/><ellipse class="cls-2" cx="588.81" cy="368.69" rx="17" ry="22"/><ellipse class="cls-2" cx="681.31" cy="369.19" rx="17" ry="22"/><path class="cls-2" d="M668.31,434.19c0,9.94-13.88,18-31,18s-31-8.06-31-18c0-8.61,10.41-15.81,24.32-17.57a48.14,48.14,0,0,1,6.68-.43,50.19,50.19,0,0,1,11.13,1.2C660.06,420,668.31,426.53,668.31,434.19Z"/><ellipse class="cls-4" cx="592.81" cy="363.69" rx="17" ry="22"/><ellipse class="cls-4" cx="685.31" cy="364.19" rx="17" ry="22"/><ellipse class="cls-4" cx="641.31" cy="429.19" rx="31" ry="18"/><path class="cls-5" d="M648.81,418.89a4.92,4.92,0,0,1-1.32,3.39,4.37,4.37,0,0,1-3.18,1.41h-10a4.66,4.66,0,0,1-4.5-4.8,4.84,4.84,0,0,1,.82-2.74,45.27,45.27,0,0,1,6.68-.46A46.88,46.88,0,0,1,648.44,417,5,5,0,0,1,648.81,418.89Z"/><circle class="cls-5" cx="592.81" cy="357.69" r="5"/><circle class="cls-5" cx="685.81" cy="357.69" r="5"/><circle class="cls-6" cx="690.81" cy="404.69" r="5"/><circle class="cls-6" cx="568.81" cy="404.69" r="5"/><text class="cls-7" transform="translate(553.67 57.41)">Oops! <tspan x="-534.99" y="80.4">No Tutors in this Major...Search Again</tspan></text></g></g></svg>