<svg xmlns="http://www.w3.org/2000/svg" xmlns:xlink="http://www.w3.org/1999/xlink" viewBox="0 0 1002.92 981.54"><defs><style>.cls-1{fill:url(#linear-gradient);}.cls-2,.cls-27{fill:#fff;}.cls-3,.cls-5{fill:#c0bccf;}.cls-4,.cls-6{fill:#007bff;}.cls-5,.cls-6,.cls-7{opacity:0.5;}.cls-11,.cls-17,.cls-19,.cls-5,.cls-6{isolation:isolate;}.cls-8{fill:url(#linear-gradient-2);}.cls-9{fill:#493545;}.cls-10{fill:#c77485;}.cls-11{opacity:0.1;}.cls-12{fill:#444176;}.cls-13{fill:url(#linear-gradient-3);}.cls-14{fill:#f1d2d7;}.cls-15{fill:url(#linear-gradient-4);}.cls-16{fill:#53526b;}.cls-17{opacity:0.05;}.cls-18{fill:#5f5d7e;}.cls-19{opacity:0.02;}.cls-20{fill:#e82127;}.cls-21{fill:#d6dbe6;}.cls-22{fill:#fdc2cc;}.cls-23{fill:#865a61;}.cls-24{fill:url(#linear-gradient-5);}.cls-25{fill:url(#linear-gradient-6);}.cls-26{fill:#555388;}.cls-27{font-size:60px;font-family:OpenSans, Open Sans;}</style><linearGradient id="linear-gradient" x1="257.46" y1="3735.42" x2="257.46" y2="4490.72" gradientTransform="matrix(1, 0, 0, -1, 244, 4667.46)" gradientUnits="userSpaceOnUse"><stop offset="0" stop-color="gray" stop-opacity="0.25"/><stop offset="0.54" stop-color="gray" stop-opacity="0.12"/><stop offset="1" stop-color="gray" stop-opacity="0.1"/></linearGradient><linearGradient id="linear-gradient-2" x1="95.66" y1="4021.19" x2="95.66" y2="4142.23" gradientTransform="matrix(1, 0, 0, -1, 200.8, 4643.6)" xlink:href="#linear-gradient"/><linearGradient id="linear-gradient-3" x1="44.18" y1="3841.68" x2="146.67" y2="3841.68" gradientTransform="matrix(1, 0, 0, -1, 200.8, 4643.6)" xlink:href="#linear-gradient"/><linearGradient id="linear-gradient-4" x1="693.89" y1="3662.07" x2="693.89" y2="4205.11" gradientTransform="translate(1340.71 4643.6) rotate(180)" xlink:href="#linear-gradient"/><linearGradient id="linear-gradient-5" x1="221.78" y1="3961.88" x2="221.78" y2="4475.28" gradientTransform="matrix(1, 0, 0, -1, 200.8, 4643.6)" xlink:href="#linear-gradient"/><linearGradient id="linear-gradient-6" x1="-2759.6" y1="4262.3" x2="-2759.6" y2="4383.02" gradientTransform="translate(-2468.02 4643.6) rotate(180)" xlink:href="#linear-gradient"/></defs><g id="Layer_2" data-name="Layer 2"><g id="Layer_1-2" data-name="Layer 1"><rect class="cls-1" x="188.46" y="176.75" width="626" height="755.3"/><rect class="cls-2" x="196.46" y="186.41" width="610" height="736"/><rect class="cls-3" x="433.46" y="269.41" width="246" height="12"/><rect class="cls-3" x="433.46" y="307.41" width="246" height="12"/><rect class="cls-4" x="492.46" y="345.41" width="128" height="12"/><rect class="cls-5" x="433.46" y="510.41" width="246" height="12"/><rect class="cls-5" x="433.46" y="548.41" width="246" height="12"/><rect class="cls-6" x="492.46" y="586.41" width="128" height="12"/><rect class="cls-5" x="433.46" y="751.41" width="246" height="12"/><rect class="cls-5" x="433.46" y="789.41" width="246" height="12"/><rect class="cls-6" x="492.46" y="827.41" width="128" height="12"/><g class="cls-7"><path class="cls-3" d="M365.46,554.4a67.67,67.67,0,0,1-16.37,44.25c-.52.61-1.06,1.21-1.61,1.8q-.41.45-.84.9a67.66,67.66,0,0,1-7.26,6.59l-.18.13A66.38,66.38,0,0,1,326.3,616h0a69.6,69.6,0,0,1-7.24,2.9l-.91.29c-.56.19-1.14.36-1.71.52l-.23.07a68.46,68.46,0,0,1-37.55,0h-.1c-1-.29-2-.59-2.92-.92l-.85-.3a65.68,65.68,0,0,1-9.4-4.16l-.19-.1a68.62,68.62,0,0,1-13.32-9.43l-.33-.31a63.28,63.28,0,0,1-5.81-6c-.24-.27-.47-.55-.7-.83-.44-.52-.86-1.06-1.28-1.6a68,68,0,1,1,121.7-41.72Z"/><path class="cls-8" d="M346.85,577.34,341.69,575a20.8,20.8,0,0,0,.1-2.36,16.68,16.68,0,0,0,0-2c-.51-5.26-3.86-9.84-6.23-14.65a41.56,41.56,0,0,1-4.07-14c-.63-6,0-12.22-2.2-17.86-1.79-4.55-5.33-8.35-9.12-11.71a46.06,46.06,0,0,0-14.65-9.29c-5.54-2-11.91-2.51-17.45-.47-5,1.84-8.85,5.51-12.57,9.08a42,42,0,0,0-7.1,8.08c-2.27,3.72-3.24,8-4,12.22a186.52,186.52,0,0,0-2.46,20.42c-.39,5.71-1,12.19-5.88,15.69-2.38,1.71-5.73,2.67-6.82,5.26a5.37,5.37,0,0,0-.36,2.45A9,9,0,0,0,249,578c.07.4.15.79.25,1.19a86.65,86.65,0,0,0-3.52,10.68c-.73,2.7-1.4,5.35-2,7.92h2.48l9.32.22h.13l10,.23h.05l9.32.22h.23l2.69.19h.88l37.27.86h.2l2.48.06h.87l7.46.17h0l11,.25h.08l8.28.2h2.58l-.44-8.68C350.46,578.17,346.85,577.34,346.85,577.34ZM305,576.28c0,7.36-7.88,16.37-7.88,16.37l-7.93-10.8.29-.42,7.64,10.4s7.88-9,7.88-16.37a7.25,7.25,0,0,1,.63-1.08l.18.56A10.6,10.6,0,0,0,305,576.28Zm12.12,28.88A6,6,0,0,0,317,604c-.07-.37-.06-.7-.11-1.06s-.09-.71-.14-1.07-.12-.71-.19-1.07-.14-.71-.22-1.07a1.68,1.68,0,0,0-.08-.36q-.17-.7-.36-1.41c-.13-.47-.21-.76-.33-1.13a1.54,1.54,0,0,0-.16-.5c-.06-.16-.17-.54-.26-.81L315,595c-.08-.23-.16-.47-.25-.7-.15-.42-.31-.83-.47-1.25s-.33-.83-.5-1.24c-.34-.84-.71-1.67-1.08-2.51-1.45-3.24-3.08-6.43-4.58-9.59a52.5,52.5,0,0,1-2.14-5.08l-.19.25a11.48,11.48,0,0,0-.81,1.35c0,7.36-7.88,16.37-7.88,16.37l-7.93-10.8-6.94,10c-1,.5-2,2.2-2.78,4.62-.22.65-.43,1.37-.63,2.12-.14.51-.27,1-.39,1.57-.07.27-.13.54-.19.82l-.18.85V602c-.12.58-.24,1.18-.35,1.79s-.24,1.31-.35,2q-.12.64-.21,1.29c-.14.83-.26,1.67-.38,2.51-.07.49-.14,1-.2,1.45l-.24,1.86c.51,1.53,1.08,3,1.67,4.54a6.91,6.91,0,0,1,.65,2.57,72.88,72.88,0,0,0,37.55,0v-.09a10.45,10.45,0,0,1-.24-2.55h0a65.94,65.94,0,0,1,1-7.16,24.43,24.43,0,0,0,.19-3.52v-.42c0-.38,0-.72,0-1.05Zm0,0A6,6,0,0,0,317,604c-.07-.37-.06-.7-.11-1.06s-.09-.71-.14-1.07-.12-.71-.19-1.07-.14-.71-.22-1.07a1.68,1.68,0,0,0-.08-.36q-.17-.7-.36-1.41c-.13-.47-.21-.76-.33-1.13a1.54,1.54,0,0,0-.16-.5c-.06-.16-.17-.54-.26-.81L315,595c-.08-.23-.16-.47-.25-.7-.15-.42-.31-.83-.47-1.25s-.33-.83-.5-1.24c-.34-.84-.71-1.67-1.08-2.51-1.45-3.24-3.08-6.43-4.58-9.59a52.5,52.5,0,0,1-2.14-5.08l-.19.25a11.48,11.48,0,0,0-.81,1.35c0,7.36-7.88,16.37-7.88,16.37l-7.93-10.8-6.94,10c-1,.5-2,2.2-2.78,4.62-.22.65-.43,1.37-.63,2.12-.14.51-.27,1-.39,1.57-.07.27-.13.54-.19.82l-.18.85V602c-.12.58-.24,1.18-.35,1.79s-.24,1.31-.35,2q-.12.64-.21,1.29c-.14.83-.26,1.67-.38,2.51-.07.49-.14,1-.2,1.45l-.24,1.86c.51,1.53,1.08,3,1.67,4.54a6.91,6.91,0,0,1,.65,2.57,72.88,72.88,0,0,0,37.55,0v-.09a10.45,10.45,0,0,1-.24-2.55h0a65.94,65.94,0,0,1,1-7.16,24.43,24.43,0,0,0,.19-3.52v-.42c0-.38,0-.72,0-1.05Zm0,0A6,6,0,0,0,317,604c-.07-.37-.06-.7-.11-1.06s-.09-.71-.14-1.07-.12-.71-.19-1.07-.14-.71-.22-1.07a1.68,1.68,0,0,0-.08-.36q-.17-.7-.36-1.41c-.13-.47-.21-.76-.33-1.13a1.54,1.54,0,0,0-.16-.5c-.06-.16-.17-.54-.26-.81L315,595c-.08-.23-.16-.47-.25-.7-.15-.42-.31-.83-.47-1.25s-.33-.83-.5-1.24c-.34-.84-.71-1.67-1.08-2.51-1.45-3.24-3.08-6.43-4.58-9.59a52.5,52.5,0,0,1-2.14-5.08l-.19.25a11.48,11.48,0,0,0-.81,1.35c0,7.36-7.88,16.37-7.88,16.37l-7.93-10.8-6.94,10c-1,.5-2,2.2-2.78,4.62-.22.65-.43,1.37-.63,2.12-.14.51-.27,1-.39,1.57-.07.27-.13.54-.19.82l-.18.85V602c-.12.58-.24,1.18-.35,1.79s-.24,1.31-.35,2q-.12.64-.21,1.29c-.14.83-.26,1.67-.38,2.51-.07.49-.14,1-.2,1.45l-.24,1.86c.51,1.53,1.08,3,1.67,4.54a6.91,6.91,0,0,1,.65,2.57,72.88,72.88,0,0,0,37.55,0v-.09a10.45,10.45,0,0,1-.24-2.55h0a65.94,65.94,0,0,1,1-7.16,24.43,24.43,0,0,0,.19-3.52v-.42c0-.38,0-.72,0-1.05Zm0,0A6,6,0,0,0,317,604c-.07-.37-.06-.7-.11-1.06s-.09-.71-.14-1.07-.12-.71-.19-1.07-.14-.71-.22-1.07a1.68,1.68,0,0,0-.08-.36q-.17-.7-.36-1.41c-.13-.47-.21-.76-.33-1.13a1.54,1.54,0,0,0-.16-.5c-.06-.16-.17-.54-.26-.81L315,595c-.08-.23-.16-.47-.25-.7-.15-.42-.31-.83-.47-1.25s-.33-.83-.5-1.24c-.34-.84-.71-1.67-1.08-2.51-1.45-3.24-3.08-6.43-4.58-9.59a52.5,52.5,0,0,1-2.14-5.08l-.19.25a11.48,11.48,0,0,0-.81,1.35c0,7.36-7.88,16.37-7.88,16.37l-7.93-10.8-6.94,10c-1,.5-2,2.2-2.78,4.62-.22.65-.43,1.37-.63,2.12-.14.51-.27,1-.39,1.57-.07.27-.13.54-.19.82l-.18.85V602c-.12.58-.24,1.18-.35,1.79s-.24,1.31-.35,2q-.12.64-.21,1.29c-.14.83-.26,1.67-.38,2.51-.07.49-.14,1-.2,1.45l-.24,1.86c.51,1.53,1.08,3,1.67,4.54a6.91,6.91,0,0,1,.65,2.57,72.88,72.88,0,0,0,37.55,0v-.09a10.45,10.45,0,0,1-.24-2.55h0a65.94,65.94,0,0,1,1-7.16,24.43,24.43,0,0,0,.19-3.52v-.42c0-.38,0-.72,0-1.05Z"/><rect class="cls-9" x="271.46" y="535.41" width="46" height="31"/><path class="cls-10" d="M325.1,569.6l-19.25,27.12L285.73,595s-26.25,1.74-8.75-18.37c8.41-9.67,11.16-17.73,11.75-23.48.64-6.22-1.25-9.76-1.25-9.76l21.87-2.62a16.3,16.3,0,0,0-.36,9.13C311.73,561.23,325.1,569.6,325.1,569.6Z"/><path class="cls-11" d="M309,549.84a21.89,21.89,0,0,1-20.26,3.26c.64-6.22-1.25-9.76-1.25-9.76l21.87-2.62A16.27,16.27,0,0,0,309,549.84Z"/><circle class="cls-10" cx="295.79" cy="531.53" r="21.87"/><path class="cls-11" d="M324.3,570.72l-.51-2-.44-1.76-.65-2.6-.12-.48-.1-.4s.52-1.57-2.91-1.06l-.64.11c-.54.11-1.17.26-1.89.46l-.65.2-.86.27h0a18.61,18.61,0,0,0-7.26,4.38,16,16,0,0,0-2.43,2.94c-.07.1-.12.19-.18.27a8.68,8.68,0,0,0-.63,1.16c0,7.88-7.88,17.5-7.88,17.5l-7.69-11.11-.15-.22-1.83-2.66-.65-.86-.22-.3-4-5.37-1-1.34-.33-.45-.49-.65-1.15-1.53-4.5,2.63-6,3.5-3.5,22.75v.63l.11,1.88.73,12.36v.17l-1.28,5.12.19.1a65.68,65.68,0,0,0,9.4,4.16l.85.3c1,.33,1.94.63,2.92.92a3,3,0,0,1,.08.45v-.43a68.46,68.46,0,0,0,37.55,0l.23-.07c.57-.16,1.15-.33,1.71-.52l.91-.29a69.6,69.6,0,0,0,7.24-2.9l.84-17.9.6-12.91v-.74Z"/><path class="cls-2" d="M317.1,604a6.91,6.91,0,0,0-.07-1.2c-.07-.4-.06-.75-.11-1.13s-.09-.76-.14-1.14-.12-.76-.19-1.14-.14-.76-.22-1.14a1.72,1.72,0,0,0-.08-.38c-.11-.5-.23-1-.36-1.51s-.21-.81-.33-1.21a1.7,1.7,0,0,0-.16-.53c-.06-.17-.17-.58-.26-.87l-.18-.56c-.08-.25-.16-.5-.25-.75-.15-.45-.31-.89-.47-1.34s-.33-.89-.5-1.33c-.34-.9-.71-1.79-1.08-2.68-1.45-3.46-3.08-6.87-4.58-10.25a57.16,57.16,0,0,1-2.14-5.43l-.19.27a12.67,12.67,0,0,0-.81,1.44c0,7.87-7.88,17.5-7.88,17.5L289.17,579l-6.94,10.67c-1,.53-2,2.35-2.78,4.94-.22.7-.43,1.46-.63,2.27-.14.54-.27,1.11-.39,1.68-.07.29-.13.58-.19.88l-.18.91v.14c-.12.62-.24,1.26-.35,1.91s-.24,1.4-.35,2.11q-.12.69-.21,1.38c-.14.89-.26,1.79-.38,2.68-.07.52-.14,1-.2,1.55l-.24,2c.51,1.64,1.08,3.26,1.67,4.85a7.9,7.9,0,0,1,.65,2.75,68.46,68.46,0,0,0,37.55,0v-.1a12,12,0,0,1-.24-2.73h0a75.49,75.49,0,0,1,1-7.65,27.86,27.86,0,0,0,.19-3.76v-.45C317.12,604.69,317.11,604.33,317.1,604Zm0,0a6.91,6.91,0,0,0-.07-1.2c-.07-.4-.06-.75-.11-1.13s-.09-.76-.14-1.14-.12-.76-.19-1.14-.14-.76-.22-1.14a1.72,1.72,0,0,0-.08-.38c-.11-.5-.23-1-.36-1.51s-.21-.81-.33-1.21a1.7,1.7,0,0,0-.16-.53c-.06-.17-.17-.58-.26-.87l-.18-.56c-.08-.25-.16-.5-.25-.75-.15-.45-.31-.89-.47-1.34s-.33-.89-.5-1.33c-.34-.9-.71-1.79-1.08-2.68-1.45-3.46-3.08-6.87-4.58-10.25a57.16,57.16,0,0,1-2.14-5.43l-.19.27a12.67,12.67,0,0,0-.81,1.44c0,7.87-7.88,17.5-7.88,17.5L289.17,579l-6.94,10.67c-1,.53-2,2.35-2.78,4.94-.22.7-.43,1.46-.63,2.27-.14.54-.27,1.11-.39,1.68-.07.29-.13.58-.19.88l-.18.91v.14c-.12.62-.24,1.26-.35,1.91s-.24,1.4-.35,2.11q-.12.69-.21,1.38c-.14.89-.26,1.79-.38,2.68-.07.52-.14,1-.2,1.55l-.24,2c.51,1.64,1.08,3.26,1.67,4.85a7.9,7.9,0,0,1,.65,2.75,68.46,68.46,0,0,0,37.55,0v-.1a12,12,0,0,1-.24-2.73h0a75.49,75.49,0,0,1,1-7.65,27.86,27.86,0,0,0,.19-3.76v-.45C317.12,604.69,317.11,604.33,317.1,604Zm0,0a6.91,6.91,0,0,0-.07-1.2c-.07-.4-.06-.75-.11-1.13s-.09-.76-.14-1.14-.12-.76-.19-1.14-.14-.76-.22-1.14a1.72,1.72,0,0,0-.08-.38c-.11-.5-.23-1-.36-1.51s-.21-.81-.33-1.21a1.7,1.7,0,0,0-.16-.53c-.06-.17-.17-.58-.26-.87l-.18-.56c-.08-.25-.16-.5-.25-.75-.15-.45-.31-.89-.47-1.34s-.33-.89-.5-1.33c-.34-.9-.71-1.79-1.08-2.68-1.45-3.46-3.08-6.87-4.58-10.25a57.16,57.16,0,0,1-2.14-5.43l-.19.27a12.67,12.67,0,0,0-.81,1.44c0,7.87-7.88,17.5-7.88,17.5L289.17,579l-6.94,10.67c-1,.53-2,2.35-2.78,4.94-.22.7-.43,1.46-.63,2.27-.14.54-.27,1.11-.39,1.68-.07.29-.13.58-.19.88l-.18.91v.14c-.12.62-.24,1.26-.35,1.91s-.24,1.4-.35,2.11q-.12.69-.21,1.38c-.14.89-.26,1.79-.38,2.68-.07.52-.14,1-.2,1.55l-.24,2c.51,1.64,1.08,3.26,1.67,4.85a7.9,7.9,0,0,1,.65,2.75,68.46,68.46,0,0,0,37.55,0v-.1a12,12,0,0,1-.24-2.73h0a75.49,75.49,0,0,1,1-7.65,27.86,27.86,0,0,0,.19-3.76v-.45C317.12,604.69,317.11,604.33,317.1,604Zm10.6-18.77L324.13,571l-.61-2.44-.17-.67h0l-.87-3.48v-.09h0a.77.77,0,0,0-.07-.45c-.13-.26-.46-.53-1.23-.6a6.46,6.46,0,0,0-.88,0h0a14,14,0,0,0-2.57.48c-.41.11-.85.23-1.32.38l-.86.27h-.08a19,19,0,0,0-6.3,3.5,16.58,16.58,0,0,0-3.2,3.54l-.19.27a12.67,12.67,0,0,0-.81,1.44c0,7.87-7.88,17.5-7.88,17.5l-7.93-11.55-.45-.65-.08-.11-1.15-1.69-.87-1.16-.23-.3-4.1-5.47h0L281,567.9v-.06l-.45-.61-.86-1.14-3,1.75-7.5,4.37-3.46,22.51V595l.1,1.64.74,12.53v.71l-1.13,4.51a65.68,65.68,0,0,0,9.4,4.16l.85.3c1,.33,1.94.63,2.92.92a3,3,0,0,1,.08.45v-.43a68.46,68.46,0,0,0,37.55,0l.23-.07c.57-.16,1.15-.33,1.71-.52l.91-.29a69.6,69.6,0,0,0,7.24-2.9h0l.83-17.88.6-12.77Zm-49.18,34.53a3,3,0,0,1,.08.45v-.43ZM317.1,604a6.91,6.91,0,0,0-.07-1.2c-.07-.4-.06-.75-.11-1.13s-.09-.76-.14-1.14-.12-.76-.19-1.14-.14-.76-.22-1.14a1.72,1.72,0,0,0-.08-.38c-.11-.5-.23-1-.36-1.51s-.21-.81-.33-1.21a1.7,1.7,0,0,0-.16-.53c-.06-.17-.17-.58-.26-.87l-.18-.56c-.08-.25-.16-.5-.25-.75-.15-.45-.31-.89-.47-1.34s-.33-.89-.5-1.33c-.34-.9-.71-1.79-1.08-2.68-1.45-3.46-3.08-6.87-4.58-10.25a57.16,57.16,0,0,1-2.14-5.43l-.19.27a12.67,12.67,0,0,0-.81,1.44c0,7.87-7.88,17.5-7.88,17.5L289.17,579l-6.94,10.67c-1,.53-2,2.35-2.78,4.94-.22.7-.43,1.46-.63,2.27-.14.54-.27,1.11-.39,1.68-.07.29-.13.58-.19.88l-.18.91v.14c-.12.62-.24,1.26-.35,1.91s-.24,1.4-.35,2.11q-.12.69-.21,1.38c-.14.89-.26,1.79-.38,2.68-.07.52-.14,1-.2,1.55l-.24,2c.51,1.64,1.08,3.26,1.67,4.85a7.9,7.9,0,0,1,.65,2.75,68.46,68.46,0,0,0,37.55,0v-.1a12,12,0,0,1-.24-2.73h0a75.49,75.49,0,0,1,1-7.65,27.86,27.86,0,0,0,.19-3.76v-.45C317.12,604.69,317.11,604.33,317.1,604Zm0,0a6.91,6.91,0,0,0-.07-1.2c-.07-.4-.06-.75-.11-1.13s-.09-.76-.14-1.14-.12-.76-.19-1.14-.14-.76-.22-1.14a1.72,1.72,0,0,0-.08-.38c-.11-.5-.23-1-.36-1.51s-.21-.81-.33-1.21a1.7,1.7,0,0,0-.16-.53c-.06-.17-.17-.58-.26-.87l-.18-.56c-.08-.25-.16-.5-.25-.75-.15-.45-.31-.89-.47-1.34s-.33-.89-.5-1.33c-.34-.9-.71-1.79-1.08-2.68-1.45-3.46-3.08-6.87-4.58-10.25a57.16,57.16,0,0,1-2.14-5.43l-.19.27a12.67,12.67,0,0,0-.81,1.44c0,7.87-7.88,17.5-7.88,17.5L289.17,579l-6.94,10.67c-1,.53-2,2.35-2.78,4.94-.22.7-.43,1.46-.63,2.27-.14.54-.27,1.11-.39,1.68-.07.29-.13.58-.19.88l-.18.91v.14c-.12.62-.24,1.26-.35,1.91s-.24,1.4-.35,2.11q-.12.69-.21,1.38c-.14.89-.26,1.79-.38,2.68-.07.52-.14,1-.2,1.55l-.24,2c.51,1.64,1.08,3.26,1.67,4.85a7.9,7.9,0,0,1,.65,2.75,68.46,68.46,0,0,0,37.55,0v-.1a12,12,0,0,1-.24-2.73h0a75.49,75.49,0,0,1,1-7.65,27.86,27.86,0,0,0,.19-3.76v-.45C317.12,604.69,317.11,604.33,317.1,604Zm0,0a6.91,6.91,0,0,0-.07-1.2c-.07-.4-.06-.75-.11-1.13s-.09-.76-.14-1.14-.12-.76-.19-1.14-.14-.76-.22-1.14a1.72,1.72,0,0,0-.08-.38c-.11-.5-.23-1-.36-1.51s-.21-.81-.33-1.21a1.7,1.7,0,0,0-.16-.53c-.06-.17-.17-.58-.26-.87l-.18-.56c-.08-.25-.16-.5-.25-.75-.15-.45-.31-.89-.47-1.34s-.33-.89-.5-1.33c-.34-.9-.71-1.79-1.08-2.68-1.45-3.46-3.08-6.87-4.58-10.25a57.16,57.16,0,0,1-2.14-5.43l-.19.27a12.67,12.67,0,0,0-.81,1.44c0,7.87-7.88,17.5-7.88,17.5L289.17,579l-6.94,10.67c-1,.53-2,2.35-2.78,4.94-.22.7-.43,1.46-.63,2.27-.14.54-.27,1.11-.39,1.68-.07.29-.13.58-.19.88l-.18.91v.14c-.12.62-.24,1.26-.35,1.91s-.24,1.4-.35,2.11q-.12.69-.21,1.38c-.14.89-.26,1.79-.38,2.68-.07.52-.14,1-.2,1.55l-.24,2c.51,1.64,1.08,3.26,1.67,4.85a7.9,7.9,0,0,1,.65,2.75,68.46,68.46,0,0,0,37.55,0v-.1a12,12,0,0,1-.24-2.73h0a75.49,75.49,0,0,1,1-7.65,27.86,27.86,0,0,0,.19-3.76v-.45C317.12,604.69,317.11,604.33,317.1,604Zm0,0a6.91,6.91,0,0,0-.07-1.2c-.07-.4-.06-.75-.11-1.13s-.09-.76-.14-1.14-.12-.76-.19-1.14-.14-.76-.22-1.14a1.72,1.72,0,0,0-.08-.38c-.11-.5-.23-1-.36-1.51s-.21-.81-.33-1.21a1.7,1.7,0,0,0-.16-.53c-.06-.17-.17-.58-.26-.87l-.18-.56c-.08-.25-.16-.5-.25-.75-.15-.45-.31-.89-.47-1.34s-.33-.89-.5-1.33c-.34-.9-.71-1.79-1.08-2.68-1.45-3.46-3.08-6.87-4.58-10.25a57.16,57.16,0,0,1-2.14-5.43l-.19.27a12.67,12.67,0,0,0-.81,1.44c0,7.87-7.88,17.5-7.88,17.5L289.17,579l-6.94,10.67c-1,.53-2,2.35-2.78,4.94-.22.7-.43,1.46-.63,2.27-.14.54-.27,1.11-.39,1.68-.07.29-.13.58-.19.88l-.18.91v.14c-.12.62-.24,1.26-.35,1.91s-.24,1.4-.35,2.11q-.12.69-.21,1.38c-.14.89-.26,1.79-.38,2.68-.07.52-.14,1-.2,1.55l-.24,2c.51,1.64,1.08,3.26,1.67,4.85a7.9,7.9,0,0,1,.65,2.75,68.46,68.46,0,0,0,37.55,0v-.1a12,12,0,0,1-.24-2.73h0a75.49,75.49,0,0,1,1-7.65,27.86,27.86,0,0,0,.19-3.76v-.45C317.12,604.69,317.11,604.33,317.1,604Zm0,0a6.91,6.91,0,0,0-.07-1.2c-.07-.4-.06-.75-.11-1.13s-.09-.76-.14-1.14-.12-.76-.19-1.14-.14-.76-.22-1.14a1.72,1.72,0,0,0-.08-.38c-.11-.5-.23-1-.36-1.51s-.21-.81-.33-1.21a1.7,1.7,0,0,0-.16-.53c-.06-.17-.17-.58-.26-.87l-.18-.56c-.08-.25-.16-.5-.25-.75-.15-.45-.31-.89-.47-1.34s-.33-.89-.5-1.33c-.34-.9-.71-1.79-1.08-2.68-1.45-3.46-3.08-6.87-4.58-10.25a57.16,57.16,0,0,1-2.14-5.43l-.19.27a12.67,12.67,0,0,0-.81,1.44c0,7.87-7.88,17.5-7.88,17.5L289.17,579l-6.94,10.67c-1,.53-2,2.35-2.78,4.94-.22.7-.43,1.46-.63,2.27-.14.54-.27,1.11-.39,1.68-.07.29-.13.58-.19.88l-.18.91v.14c-.12.62-.24,1.26-.35,1.91s-.24,1.4-.35,2.11q-.12.69-.21,1.38c-.14.89-.26,1.79-.38,2.68-.07.52-.14,1-.2,1.55l-.24,2c.51,1.64,1.08,3.26,1.67,4.85a7.9,7.9,0,0,1,.65,2.75,68.46,68.46,0,0,0,37.55,0v-.1a12,12,0,0,1-.24-2.73h0a75.49,75.49,0,0,1,1-7.65,27.86,27.86,0,0,0,.19-3.76v-.45C317.12,604.69,317.11,604.33,317.1,604Zm0,0a6.91,6.91,0,0,0-.07-1.2c-.07-.4-.06-.75-.11-1.13s-.09-.76-.14-1.14-.12-.76-.19-1.14-.14-.76-.22-1.14a1.72,1.72,0,0,0-.08-.38c-.11-.5-.23-1-.36-1.51s-.21-.81-.33-1.21a1.7,1.7,0,0,0-.16-.53c-.06-.17-.17-.58-.26-.87l-.18-.56c-.08-.25-.16-.5-.25-.75-.15-.45-.31-.89-.47-1.34s-.33-.89-.5-1.33c-.34-.9-.71-1.79-1.08-2.68-1.45-3.46-3.08-6.87-4.58-10.25a57.16,57.16,0,0,1-2.14-5.43l-.19.27a12.67,12.67,0,0,0-.81,1.44c0,7.87-7.88,17.5-7.88,17.5L289.17,579l-6.94,10.67c-1,.53-2,2.35-2.78,4.94-.22.7-.43,1.46-.63,2.27-.14.54-.27,1.11-.39,1.68-.07.29-.13.58-.19.88l-.18.91v.14c-.12.62-.24,1.26-.35,1.91s-.24,1.4-.35,2.11q-.12.69-.21,1.38c-.14.89-.26,1.79-.38,2.68-.07.52-.14,1-.2,1.55l-.24,2c.51,1.64,1.08,3.26,1.67,4.85a7.9,7.9,0,0,1,.65,2.75,68.46,68.46,0,0,0,37.55,0v-.1a12,12,0,0,1-.24-2.73h0a75.49,75.49,0,0,1,1-7.65,27.86,27.86,0,0,0,.19-3.76v-.45C317.12,604.69,317.11,604.33,317.1,604Zm0,0a6.91,6.91,0,0,0-.07-1.2c-.07-.4-.06-.75-.11-1.13s-.09-.76-.14-1.14-.12-.76-.19-1.14-.14-.76-.22-1.14a1.72,1.72,0,0,0-.08-.38c-.11-.5-.23-1-.36-1.51s-.21-.81-.33-1.21a1.7,1.7,0,0,0-.16-.53c-.06-.17-.17-.58-.26-.87l-.18-.56c-.08-.25-.16-.5-.25-.75-.15-.45-.31-.89-.47-1.34s-.33-.89-.5-1.33c-.34-.9-.71-1.79-1.08-2.68-1.45-3.46-3.08-6.87-4.58-10.25a57.16,57.16,0,0,1-2.14-5.43l-.19.27a12.67,12.67,0,0,0-.81,1.44c0,7.87-7.88,17.5-7.88,17.5L289.17,579l-6.94,10.67c-1,.53-2,2.35-2.78,4.94-.22.7-.43,1.46-.63,2.27-.14.54-.27,1.11-.39,1.68-.07.29-.13.58-.19.88l-.18.91v.14c-.12.62-.24,1.26-.35,1.91s-.24,1.4-.35,2.11q-.12.69-.21,1.38c-.14.89-.26,1.79-.38,2.68-.07.52-.14,1-.2,1.55l-.24,2c.51,1.64,1.08,3.26,1.67,4.85a7.9,7.9,0,0,1,.65,2.75,68.46,68.46,0,0,0,37.55,0v-.1a12,12,0,0,1-.24-2.73h0a75.49,75.49,0,0,1,1-7.65,27.86,27.86,0,0,0,.19-3.76v-.45C317.12,604.69,317.11,604.33,317.1,604Zm0,0a6.91,6.91,0,0,0-.07-1.2c-.07-.4-.06-.75-.11-1.13s-.09-.76-.14-1.14-.12-.76-.19-1.14-.14-.76-.22-1.14a1.72,1.72,0,0,0-.08-.38c-.11-.5-.23-1-.36-1.51s-.21-.81-.33-1.21a1.7,1.7,0,0,0-.16-.53c-.06-.17-.17-.58-.26-.87l-.18-.56c-.08-.25-.16-.5-.25-.75-.15-.45-.31-.89-.47-1.34s-.33-.89-.5-1.33c-.34-.9-.71-1.79-1.08-2.68-1.45-3.46-3.08-6.87-4.58-10.25a57.16,57.16,0,0,1-2.14-5.43l-.19.27a12.67,12.67,0,0,0-.81,1.44c0,7.87-7.88,17.5-7.88,17.5L289.17,579l-6.94,10.67c-1,.53-2,2.35-2.78,4.94-.22.7-.43,1.46-.63,2.27-.14.54-.27,1.11-.39,1.68-.07.29-.13.58-.19.88l-.18.91v.14c-.12.62-.24,1.26-.35,1.91s-.24,1.4-.35,2.11q-.12.69-.21,1.38c-.14.89-.26,1.79-.38,2.68-.07.52-.14,1-.2,1.55l-.24,2c.51,1.64,1.08,3.26,1.67,4.85a7.9,7.9,0,0,1,.65,2.75,68.46,68.46,0,0,0,37.55,0v-.1a12,12,0,0,1-.24-2.73h0a75.49,75.49,0,0,1,1-7.65,27.86,27.86,0,0,0,.19-3.76v-.45C317.12,604.69,317.11,604.33,317.1,604Z"/><path class="cls-11" d="M289.31,578.37l-.67-.09a25.68,25.68,0,0,1-3-.6l-.37-.1c-2.44-.69-5.11-1.93-5.71-4.11a3.85,3.85,0,0,1,.06-2.13A18.24,18.24,0,0,1,281,567.9v-.06a4.79,4.79,0,0,1,.25-.45,9.91,9.91,0,0,1,3.61-3.93l-1.2.19h0l-10.16,1.65-15.75,2.54s-2.8-.56-6.61,9.94a1.62,1.62,0,0,1-.13.39c-.92,2.57-1.89,5.78-2.89,9.79-.69,2.78-1.32,5.51-1.9,8.16-.17.8-.34,1.59-.5,2.37a63.28,63.28,0,0,0,5.81,6l.33.31a68.62,68.62,0,0,0,13.32,9.43l.19.1a65.68,65.68,0,0,0,9.4,4.16l.85.3c.18-1.85.38-3.9.62-6a1.71,1.71,0,0,1,.08-.63l.24-2c.06-.51.13-1,.2-1.55.12-.89.24-1.79.38-2.68q.09-.69.21-1.38c.11-.71.23-1.42.35-2.11s.23-1.29.35-1.91v-.14l.18-.91c.06-.3.12-.59.19-.88.12-.57.25-1.14.39-1.68.2-.81.41-1.57.63-2.27.8-2.59,1.73-4.41,2.78-4.94L289.14,579l.29-.45.13-.2Z"/><path class="cls-12" d="M288.72,578.39l-7.37,11.32c-1,.51-1.94,2.28-2.73,4.79-.23.74-.46,1.55-.68,2.4A117.76,117.76,0,0,0,275.68,610a1.55,1.55,0,0,1-.08.6c-.34,2.78-.62,5.51-.85,7.92a65.68,65.68,0,0,1-9.4-4.16l-.19-.1a68.62,68.62,0,0,1-13.32-9.43l-.33-.31a63.28,63.28,0,0,1-5.81-6c-.24-.27-.47-.55-.7-.83.11-.52.22-1,.34-1.56.57-2.65,1.2-5.37,1.89-8.14a99,99,0,0,1,3.4-11.2,3.05,3.05,0,0,1,.13-.32c3.54-9.11,6.09-8.6,6.09-8.6l16.63-2.68,10.5-1.7-.33.19h0a10.61,10.61,0,0,0-2.89,3.08l-.29.49c-.12.19-.23.4-.35.61a17.34,17.34,0,0,0-1.38,3.5,3.7,3.7,0,0,0,.24,2.86c1,1.94,3.84,3,6.17,3.58l.39.1A26.29,26.29,0,0,0,288.72,578.39Z"/><path class="cls-11" d="M346.51,598.6l-.41-8.88c1.75-14-1.75-14.87-1.75-14.87l-4.16-2h-.11l-16.73-8.11-.65-.32-.2-.09h0l-2.18-1.06h0l-1.38-.67-2.58-1.25-.87-.42v3.47c0,1,.09,2.17.17,3.53.18,3.42.51,8,1.1,13.4.33,3.13.75,6.55,1.27,10.22.31,2.17.53,4.33.67,6.44a113.19,113.19,0,0,1-.66,21.3L319,619a69.6,69.6,0,0,0,7.24-2.9h0a66.38,66.38,0,0,0,12.9-7.92l.18-.13a67.66,67.66,0,0,0,7.26-6.59Z"/><path class="cls-12" d="M347.39,598.6l-.41-8.9c1.75-14-1.75-14.87-1.75-14.87l-5-2.42h-.1l-16.78-8.14-.77-.37-.15-.07-1.23-.6-1.63-.79-3.22-1.56v1.42h0v1.76c0,1,.09,2.31.18,3.8.17,3.19.47,7.37,1,12.34.36,3.41.81,7.2,1.4,11.28.31,2.18.53,4.33.66,6.47a113.39,113.39,0,0,1-.62,21,69.6,69.6,0,0,0,7.24-2.9h0a66.38,66.38,0,0,0,12.9-7.92l.18-.13a67.66,67.66,0,0,0,7.26-6.59q.43-.45.84-.9Z"/><path class="cls-11" d="M276.68,507.54c-1,1.38-.92,3.28-1.37,5-1.07,3.91-5.31,6.36-6.28,10.3-.57,2.3.09,4.74-.3,7.08-.71,4.31-4.65,7.23-6.85,11a14.85,14.85,0,0,0-.91,12.9,20.77,20.77,0,0,1,1.27,3.26,11.9,11.9,0,0,1-.31,5c-.75,3.56-1.52,7.48.2,10.69,1.45,2.71,4.46,4.3,7.49,4.8a29.41,29.41,0,0,0,9.17-.42c3.31-.51,6.7-1.1,9.58-2.8l-10.83-26.14c-1.09-2.64-2.21-5.37-2.2-8.23a18.24,18.24,0,0,1,1.35-6.14,53.15,53.15,0,0,1,9-15.55c1.57,1.82,1.45,4.59,2.76,6.61a10.51,10.51,0,0,0,4.46,3.33,149.43,149.43,0,0,0,15.79,6.6,2.07,2.07,0,0,1,1.8,2.31,2.13,2.13,0,0,1-.26.77l-4.08,16.84c-.9,3.71-1.69,8,.62,11s7.52,4.42,7.55,8.29a14.12,14.12,0,0,0,0,1.84c.27,1.81,2.42,2.68,4.25,2.77a12.68,12.68,0,0,0,12.71-10.37c1-6.62-3.38-12.72-5.21-19.17-3.08-10.85,1-23.58-5.05-33.11-4.9-7.73-13.83-9.83-22.31-10.79C292.77,504.51,280.87,502,276.68,507.54Z"/><path class="cls-9" d="M276.68,506.54c-1,1.38-.92,3.28-1.37,5-1.07,3.91-5.31,6.36-6.28,10.3-.57,2.3.09,4.74-.3,7.08-.71,4.31-4.65,7.23-6.85,11a14.85,14.85,0,0,0-.91,12.9,20.77,20.77,0,0,1,1.27,3.26,11.9,11.9,0,0,1-.31,5c-.75,3.56-1.52,7.48.2,10.69,1.45,2.71,4.46,4.3,7.49,4.8a29.41,29.41,0,0,0,9.17-.42c3.31-.51,6.7-1.1,9.58-2.8l-10.83-26.14c-1.09-2.64-2.21-5.37-2.2-8.23a18.24,18.24,0,0,1,1.35-6.14,53.15,53.15,0,0,1,9-15.55c1.57,1.82,1.45,4.59,2.76,6.61a10.51,10.51,0,0,0,4.46,3.33,149.43,149.43,0,0,0,15.79,6.6,2.07,2.07,0,0,1,1.8,2.31,2.13,2.13,0,0,1-.26.77l-4.08,16.84c-.9,3.71-1.69,8,.62,11s7.52,4.42,7.55,8.29a14.12,14.12,0,0,0,0,1.84c.27,1.81,2.42,2.68,4.25,2.77a12.68,12.68,0,0,0,12.71-10.37c1-6.62-3.38-12.72-5.21-19.17-3.08-10.85,1-23.58-5.05-33.11-4.9-7.73-13.83-9.83-22.31-10.79C292.77,503.51,280.87,501,276.68,506.54Z"/></g><g class="cls-7"><path class="cls-3" d="M365.46,795.4a67.67,67.67,0,0,1-16.37,44.25c-.52.61-1.06,1.21-1.61,1.8q-.41.45-.84.9a67.66,67.66,0,0,1-7.26,6.59l-.18.13A66.38,66.38,0,0,1,326.3,857h0a69.6,69.6,0,0,1-7.24,2.9l-.91.29c-.56.19-1.14.36-1.71.52l-.23.07a68.46,68.46,0,0,1-37.55,0h-.1c-1-.29-2-.59-2.92-.92l-.85-.3a65.68,65.68,0,0,1-9.4-4.16l-.19-.1a68.62,68.62,0,0,1-13.32-9.43l-.33-.31a63.28,63.28,0,0,1-5.81-6c-.24-.27-.47-.55-.7-.83-.44-.52-.86-1.06-1.28-1.6a68,68,0,1,1,121.7-41.72Z"/><path class="cls-13" d="M347.39,839.22l-.41-9c1.75-14.23-1.75-15.12-1.75-15.12l-5-2.46-.1,0-16.78-8.27-.77-.38-.1-.41s.33-1-1.33-1.17a6.17,6.17,0,0,1-.42-2.55c.17-1.92,1.62-3.43,2.75-5a20.54,20.54,0,0,0,3.29-14.57,34.23,34.23,0,0,0-5.58-14.08l-.32-.47a16.93,16.93,0,0,0,.59-4.42c0-11.51-11.64-20.84-26-20.84-13,0-23.83,7.69-25.71,17.72a8.4,8.4,0,0,0-.79,1.24c-2.64,4.94,1.44,8.63,1.57,13.56.09,3.4-2.19,6.31-4,9.19s-3.15,6.71-1.29,9.55c.61.94,1.53,1.65,2.08,2.63,1.93,3.41-1.28,7.32-2.45,11.06a9.91,9.91,0,0,0-.32,1.33L256.83,808s-2.55-.52-6.09,8.74a2.52,2.52,0,0,0-.13.33,100,100,0,0,0-3.4,11.39q-1,4.23-1.89,8.27c-.12.53-.23,1.06-.34,1.59.23.28.46.57.7.84a64.58,64.58,0,0,0,5.81,6.12l.33.32a68.37,68.37,0,0,0,13.32,9.59l.19.1a66,66,0,0,0,9.4,4.23l.85.3c1,.34,1.94.64,2.92.94a3.4,3.4,0,0,1,.08.46v-.44a67.35,67.35,0,0,0,37.55,0l.23-.07c.57-.16,1.15-.34,1.71-.53l.91-.29a67,67,0,0,0,7.24-3h0a66.5,66.5,0,0,0,12.9-8l.18-.13a68.77,68.77,0,0,0,7.26-6.7c.29-.3.57-.6.84-.91Z"/><path class="cls-12" d="M270.53,774.39c.09,3.35-2.19,6.21-4,9s-3.15,6.6-1.29,9.39c.61.92,1.53,1.63,2.08,2.59,1.93,3.35-1.28,7.2-2.45,10.88-1.35,4.25.22,9,3.06,12.45s6.76,5.78,10.72,7.83A96.18,96.18,0,0,0,305.17,836c4.84.89,10,1.29,14.54-.65a15.47,15.47,0,0,0,8.73-17c-1.15-5.26-5-9.49-7-14.46a6.79,6.79,0,0,1-.66-3.13c.17-1.89,1.62-3.37,2.75-4.9a20,20,0,0,0,3.24-14.23,33.4,33.4,0,0,0-5.58-13.86,15,15,0,0,0-4-4.4c-2.18-1.47-4.88-1.89-7.48-2.26-10.86-1.52-22.11-3.18-33.06-3.74-3.46-.18-6,.5-7.71,3.74C266.33,765.91,270.4,769.54,270.53,774.39Z"/><path class="cls-10" d="M326.46,808.4l-20.61,29.31L285.73,836s-.66,7-8.75-18.37c-4.52-14.19,4.67-9.26,6.48-13.19s5-7.4,5.27-10.3c.64-6.22-1.25-9.76-1.25-9.76l21.87-2.62a16.3,16.3,0,0,0-.36,9.13C311.73,802.23,326.46,808.4,326.46,808.4Z"/><ellipse class="cls-12" cx="295.46" cy="762.91" rx="26" ry="20.5"/><path class="cls-11" d="M309,790.84a21.89,21.89,0,0,1-20.26,3.26c.64-6.22-1.25-9.76-1.25-9.76l21.87-2.62A16.27,16.27,0,0,0,309,790.84Z"/><circle class="cls-10" cx="295.79" cy="772.53" r="21.87"/><path class="cls-11" d="M324.3,811.72l-.51-2-.44-1.76-.65-2.6-.12-.48-.1-.4s.52-1.57-2.91-1.06l-.64.11c-.54.11-1.17.26-1.89.46l-.65.2-.86.27h0a18.61,18.61,0,0,0-7.26,4.38,16,16,0,0,0-2.43,2.94c-.07.1-.12.19-.18.27a8.68,8.68,0,0,0-.63,1.16c0,7.88-7.88,17.5-7.88,17.5l-7.69-11.11-.15-.22-1.83-2.66-.65-.86-.22-.3-4-5.37-1-1.34-.33-.45-.49-.65-1.15-1.53-4.5,2.63-6,3.5-3.5,22.75v.63l.11,1.88.73,12.36v.17l-1.28,5.12.19.1a65.68,65.68,0,0,0,9.4,4.16l.85.3c1,.33,1.94.63,2.92.92a3,3,0,0,1,.08.45v-.43a68.46,68.46,0,0,0,37.55,0l.23-.07c.57-.16,1.15-.33,1.71-.52l.91-.29a69.6,69.6,0,0,0,7.24-2.9l.84-17.9.6-12.91v-.74Z"/><path class="cls-12" d="M317.1,845a6.91,6.91,0,0,0-.07-1.2c-.07-.4-.06-.75-.11-1.13s-.09-.76-.14-1.14-.12-.76-.19-1.14-.14-.76-.22-1.14a1.72,1.72,0,0,0-.08-.38c-.11-.5-.23-1-.36-1.51s-.21-.81-.33-1.21a1.7,1.7,0,0,0-.16-.53c-.06-.17-.17-.58-.26-.87l-.18-.56c-.08-.25-.16-.5-.25-.75-.15-.45-.31-.89-.47-1.34s-.33-.89-.5-1.33c-.34-.9-.71-1.79-1.08-2.68-1.45-3.46-3.08-6.87-4.58-10.25a57.16,57.16,0,0,1-2.14-5.43l-.19.27a12.67,12.67,0,0,0-.81,1.44c0,7.87-7.88,17.5-7.88,17.5L289.17,820l-6.94,10.67c-1,.53-2,2.35-2.78,4.94-.22.7-.43,1.46-.63,2.27-.14.54-.27,1.11-.39,1.68-.07.29-.13.58-.19.88l-.18.91v.14c-.12.62-.24,1.26-.35,1.91s-.24,1.4-.35,2.11q-.12.69-.21,1.38c-.14.89-.26,1.79-.38,2.68-.07.52-.14,1-.2,1.55l-.24,2c.51,1.64,1.08,3.26,1.67,4.85a7.9,7.9,0,0,1,.65,2.75,68.46,68.46,0,0,0,37.55,0v-.1a12,12,0,0,1-.24-2.73h0a75.49,75.49,0,0,1,1-7.65,27.86,27.86,0,0,0,.19-3.76v-.45C317.12,845.69,317.11,845.33,317.1,845Zm0,0a6.91,6.91,0,0,0-.07-1.2c-.07-.4-.06-.75-.11-1.13s-.09-.76-.14-1.14-.12-.76-.19-1.14-.14-.76-.22-1.14a1.72,1.72,0,0,0-.08-.38c-.11-.5-.23-1-.36-1.51s-.21-.81-.33-1.21a1.7,1.7,0,0,0-.16-.53c-.06-.17-.17-.58-.26-.87l-.18-.56c-.08-.25-.16-.5-.25-.75-.15-.45-.31-.89-.47-1.34s-.33-.89-.5-1.33c-.34-.9-.71-1.79-1.08-2.68-1.45-3.46-3.08-6.87-4.58-10.25a57.16,57.16,0,0,1-2.14-5.43l-.19.27a12.67,12.67,0,0,0-.81,1.44c0,7.87-7.88,17.5-7.88,17.5L289.17,820l-6.94,10.67c-1,.53-2,2.35-2.78,4.94-.22.7-.43,1.46-.63,2.27-.14.54-.27,1.11-.39,1.68-.07.29-.13.58-.19.88l-.18.91v.14c-.12.62-.24,1.26-.35,1.91s-.24,1.4-.35,2.11q-.12.69-.21,1.38c-.14.89-.26,1.79-.38,2.68-.07.52-.14,1-.2,1.55l-.24,2c.51,1.64,1.08,3.26,1.67,4.85a7.9,7.9,0,0,1,.65,2.75,68.46,68.46,0,0,0,37.55,0v-.1a12,12,0,0,1-.24-2.73h0a75.49,75.49,0,0,1,1-7.65,27.86,27.86,0,0,0,.19-3.76v-.45C317.12,845.69,317.11,845.33,317.1,845Zm0,0a6.91,6.91,0,0,0-.07-1.2c-.07-.4-.06-.75-.11-1.13s-.09-.76-.14-1.14-.12-.76-.19-1.14-.14-.76-.22-1.14a1.72,1.72,0,0,0-.08-.38c-.11-.5-.23-1-.36-1.51s-.21-.81-.33-1.21a1.7,1.7,0,0,0-.16-.53c-.06-.17-.17-.58-.26-.87l-.18-.56c-.08-.25-.16-.5-.25-.75-.15-.45-.31-.89-.47-1.34s-.33-.89-.5-1.33c-.34-.9-.71-1.79-1.08-2.68-1.45-3.46-3.08-6.87-4.58-10.25a57.16,57.16,0,0,1-2.14-5.43l-.19.27a12.67,12.67,0,0,0-.81,1.44c0,7.87-7.88,17.5-7.88,17.5L289.17,820l-6.94,10.67c-1,.53-2,2.35-2.78,4.94-.22.7-.43,1.46-.63,2.27-.14.54-.27,1.11-.39,1.68-.07.29-.13.58-.19.88l-.18.91v.14c-.12.62-.24,1.26-.35,1.91s-.24,1.4-.35,2.11q-.12.69-.21,1.38c-.14.89-.26,1.79-.38,2.68-.07.52-.14,1-.2,1.55l-.24,2c.51,1.64,1.08,3.26,1.67,4.85a7.9,7.9,0,0,1,.65,2.75,68.46,68.46,0,0,0,37.55,0v-.1a12,12,0,0,1-.24-2.73h0a75.49,75.49,0,0,1,1-7.65,27.86,27.86,0,0,0,.19-3.76v-.45C317.12,845.69,317.11,845.33,317.1,845Zm10.6-18.77L324.13,812l-.61-2.44-.17-.67h0l-.87-3.48v-.09h0a.77.77,0,0,0-.07-.45c-.13-.26-.46-.53-1.23-.6a6.46,6.46,0,0,0-.88,0h0a14,14,0,0,0-2.57.48c-.41.11-.85.23-1.32.38l-.86.27h-.08a19,19,0,0,0-6.3,3.5,16.58,16.58,0,0,0-3.2,3.54l-.19.27a12.67,12.67,0,0,0-.81,1.44c0,7.87-7.88,17.5-7.88,17.5l-7.93-11.55-.45-.65-.08-.11-1.15-1.69-.87-1.16-.23-.3-4.1-5.47h0L281,808.9v-.06l-.45-.61-.86-1.14-3,1.75-7.5,4.37-3.46,22.51V836l.1,1.64.74,12.53v.71l-1.13,4.51a65.68,65.68,0,0,0,9.4,4.16l.85.3c1,.33,1.94.63,2.92.92a3,3,0,0,1,.08.45v-.43a68.46,68.46,0,0,0,37.55,0l.23-.07c.57-.16,1.15-.33,1.71-.52l.91-.29a69.6,69.6,0,0,0,7.24-2.9h0l.83-17.88.6-12.77Zm-49.18,34.53a3,3,0,0,1,.08.45v-.43ZM317.1,845a6.91,6.91,0,0,0-.07-1.2c-.07-.4-.06-.75-.11-1.13s-.09-.76-.14-1.14-.12-.76-.19-1.14-.14-.76-.22-1.14a1.72,1.72,0,0,0-.08-.38c-.11-.5-.23-1-.36-1.51s-.21-.81-.33-1.21a1.7,1.7,0,0,0-.16-.53c-.06-.17-.17-.58-.26-.87l-.18-.56c-.08-.25-.16-.5-.25-.75-.15-.45-.31-.89-.47-1.34s-.33-.89-.5-1.33c-.34-.9-.71-1.79-1.08-2.68-1.45-3.46-3.08-6.87-4.58-10.25a57.16,57.16,0,0,1-2.14-5.43l-.19.27a12.67,12.67,0,0,0-.81,1.44c0,7.87-7.88,17.5-7.88,17.5L289.17,820l-6.94,10.67c-1,.53-2,2.35-2.78,4.94-.22.7-.43,1.46-.63,2.27-.14.54-.27,1.11-.39,1.68-.07.29-.13.58-.19.88l-.18.91v.14c-.12.62-.24,1.26-.35,1.91s-.24,1.4-.35,2.11q-.12.69-.21,1.38c-.14.89-.26,1.79-.38,2.68-.07.52-.14,1-.2,1.55l-.24,2c.51,1.64,1.08,3.26,1.67,4.85a7.9,7.9,0,0,1,.65,2.75,68.46,68.46,0,0,0,37.55,0v-.1a12,12,0,0,1-.24-2.73h0a75.49,75.49,0,0,1,1-7.65,27.86,27.86,0,0,0,.19-3.76v-.45C317.12,845.69,317.11,845.33,317.1,845Zm0,0a6.91,6.91,0,0,0-.07-1.2c-.07-.4-.06-.75-.11-1.13s-.09-.76-.14-1.14-.12-.76-.19-1.14-.14-.76-.22-1.14a1.72,1.72,0,0,0-.08-.38c-.11-.5-.23-1-.36-1.51s-.21-.81-.33-1.21a1.7,1.7,0,0,0-.16-.53c-.06-.17-.17-.58-.26-.87l-.18-.56c-.08-.25-.16-.5-.25-.75-.15-.45-.31-.89-.47-1.34s-.33-.89-.5-1.33c-.34-.9-.71-1.79-1.08-2.68-1.45-3.46-3.08-6.87-4.58-10.25a57.16,57.16,0,0,1-2.14-5.43l-.19.27a12.67,12.67,0,0,0-.81,1.44c0,7.87-7.88,17.5-7.88,17.5L289.17,820l-6.94,10.67c-1,.53-2,2.35-2.78,4.94-.22.7-.43,1.46-.63,2.27-.14.54-.27,1.11-.39,1.68-.07.29-.13.58-.19.88l-.18.91v.14c-.12.62-.24,1.26-.35,1.91s-.24,1.4-.35,2.11q-.12.69-.21,1.38c-.14.89-.26,1.79-.38,2.68-.07.52-.14,1-.2,1.55l-.24,2c.51,1.64,1.08,3.26,1.67,4.85a7.9,7.9,0,0,1,.65,2.75,68.46,68.46,0,0,0,37.55,0v-.1a12,12,0,0,1-.24-2.73h0a75.49,75.49,0,0,1,1-7.65,27.86,27.86,0,0,0,.19-3.76v-.45C317.12,845.69,317.11,845.33,317.1,845Zm0,0a6.91,6.91,0,0,0-.07-1.2c-.07-.4-.06-.75-.11-1.13s-.09-.76-.14-1.14-.12-.76-.19-1.14-.14-.76-.22-1.14a1.72,1.72,0,0,0-.08-.38c-.11-.5-.23-1-.36-1.51s-.21-.81-.33-1.21a1.7,1.7,0,0,0-.16-.53c-.06-.17-.17-.58-.26-.87l-.18-.56c-.08-.25-.16-.5-.25-.75-.15-.45-.31-.89-.47-1.34s-.33-.89-.5-1.33c-.34-.9-.71-1.79-1.08-2.68-1.45-3.46-3.08-6.87-4.58-10.25a57.16,57.16,0,0,1-2.14-5.43l-.19.27a12.67,12.67,0,0,0-.81,1.44c0,7.87-7.88,17.5-7.88,17.5L289.17,820l-6.94,10.67c-1,.53-2,2.35-2.78,4.94-.22.7-.43,1.46-.63,2.27-.14.54-.27,1.11-.39,1.68-.07.29-.13.58-.19.88l-.18.91v.14c-.12.62-.24,1.26-.35,1.91s-.24,1.4-.35,2.11q-.12.69-.21,1.38c-.14.89-.26,1.79-.38,2.68-.07.52-.14,1-.2,1.55l-.24,2c.51,1.64,1.08,3.26,1.67,4.85a7.9,7.9,0,0,1,.65,2.75,68.46,68.46,0,0,0,37.55,0v-.1a12,12,0,0,1-.24-2.73h0a75.49,75.49,0,0,1,1-7.65,27.86,27.86,0,0,0,.19-3.76v-.45C317.12,845.69,317.11,845.33,317.1,845Zm0,0a6.91,6.91,0,0,0-.07-1.2c-.07-.4-.06-.75-.11-1.13s-.09-.76-.14-1.14-.12-.76-.19-1.14-.14-.76-.22-1.14a1.72,1.72,0,0,0-.08-.38c-.11-.5-.23-1-.36-1.51s-.21-.81-.33-1.21a1.7,1.7,0,0,0-.16-.53c-.06-.17-.17-.58-.26-.87l-.18-.56c-.08-.25-.16-.5-.25-.75-.15-.45-.31-.89-.47-1.34s-.33-.89-.5-1.33c-.34-.9-.71-1.79-1.08-2.68-1.45-3.46-3.08-6.87-4.58-10.25a57.16,57.16,0,0,1-2.14-5.43l-.19.27a12.67,12.67,0,0,0-.81,1.44c0,7.87-7.88,17.5-7.88,17.5L289.17,820l-6.94,10.67c-1,.53-2,2.35-2.78,4.94-.22.7-.43,1.46-.63,2.27-.14.54-.27,1.11-.39,1.68-.07.29-.13.58-.19.88l-.18.91v.14c-.12.62-.24,1.26-.35,1.91s-.24,1.4-.35,2.11q-.12.69-.21,1.38c-.14.89-.26,1.79-.38,2.68-.07.52-.14,1-.2,1.55l-.24,2c.51,1.64,1.08,3.26,1.67,4.85a7.9,7.9,0,0,1,.65,2.75,68.46,68.46,0,0,0,37.55,0v-.1a12,12,0,0,1-.24-2.73h0a75.49,75.49,0,0,1,1-7.65,27.86,27.86,0,0,0,.19-3.76v-.45C317.12,845.69,317.11,845.33,317.1,845Zm0,0a6.91,6.91,0,0,0-.07-1.2c-.07-.4-.06-.75-.11-1.13s-.09-.76-.14-1.14-.12-.76-.19-1.14-.14-.76-.22-1.14a1.72,1.72,0,0,0-.08-.38c-.11-.5-.23-1-.36-1.51s-.21-.81-.33-1.21a1.7,1.7,0,0,0-.16-.53c-.06-.17-.17-.58-.26-.87l-.18-.56c-.08-.25-.16-.5-.25-.75-.15-.45-.31-.89-.47-1.34s-.33-.89-.5-1.33c-.34-.9-.71-1.79-1.08-2.68-1.45-3.46-3.08-6.87-4.58-10.25a57.16,57.16,0,0,1-2.14-5.43l-.19.27a12.67,12.67,0,0,0-.81,1.44c0,7.87-7.88,17.5-7.88,17.5L289.17,820l-6.94,10.67c-1,.53-2,2.35-2.78,4.94-.22.7-.43,1.46-.63,2.27-.14.54-.27,1.11-.39,1.68-.07.29-.13.58-.19.88l-.18.91v.14c-.12.62-.24,1.26-.35,1.91s-.24,1.4-.35,2.11q-.12.69-.21,1.38c-.14.89-.26,1.79-.38,2.68-.07.52-.14,1-.2,1.55l-.24,2c.51,1.64,1.08,3.26,1.67,4.85a7.9,7.9,0,0,1,.65,2.75,68.46,68.46,0,0,0,37.55,0v-.1a12,12,0,0,1-.24-2.73h0a75.49,75.49,0,0,1,1-7.65,27.86,27.86,0,0,0,.19-3.76v-.45C317.12,845.69,317.11,845.33,317.1,845Zm0,0a6.91,6.91,0,0,0-.07-1.2c-.07-.4-.06-.75-.11-1.13s-.09-.76-.14-1.14-.12-.76-.19-1.14-.14-.76-.22-1.14a1.72,1.72,0,0,0-.08-.38c-.11-.5-.23-1-.36-1.51s-.21-.81-.33-1.21a1.7,1.7,0,0,0-.16-.53c-.06-.17-.17-.58-.26-.87l-.18-.56c-.08-.25-.16-.5-.25-.75-.15-.45-.31-.89-.47-1.34s-.33-.89-.5-1.33c-.34-.9-.71-1.79-1.08-2.68-1.45-3.46-3.08-6.87-4.58-10.25a57.16,57.16,0,0,1-2.14-5.43l-.19.27a12.67,12.67,0,0,0-.81,1.44c0,7.87-7.88,17.5-7.88,17.5L289.17,820l-6.94,10.67c-1,.53-2,2.35-2.78,4.94-.22.7-.43,1.46-.63,2.27-.14.54-.27,1.11-.39,1.68-.07.29-.13.58-.19.88l-.18.91v.14c-.12.62-.24,1.26-.35,1.91s-.24,1.4-.35,2.11q-.12.69-.21,1.38c-.14.89-.26,1.79-.38,2.68-.07.52-.14,1-.2,1.55l-.24,2c.51,1.64,1.08,3.26,1.67,4.85a7.9,7.9,0,0,1,.65,2.75,68.46,68.46,0,0,0,37.55,0v-.1a12,12,0,0,1-.24-2.73h0a75.49,75.49,0,0,1,1-7.65,27.86,27.86,0,0,0,.19-3.76v-.45C317.12,845.69,317.11,845.33,317.1,845Zm0,0a6.91,6.91,0,0,0-.07-1.2c-.07-.4-.06-.75-.11-1.13s-.09-.76-.14-1.14-.12-.76-.19-1.14-.14-.76-.22-1.14a1.72,1.72,0,0,0-.08-.38c-.11-.5-.23-1-.36-1.51s-.21-.81-.33-1.21a1.7,1.7,0,0,0-.16-.53c-.06-.17-.17-.58-.26-.87l-.18-.56c-.08-.25-.16-.5-.25-.75-.15-.45-.31-.89-.47-1.34s-.33-.89-.5-1.33c-.34-.9-.71-1.79-1.08-2.68-1.45-3.46-3.08-6.87-4.58-10.25a57.16,57.16,0,0,1-2.14-5.43l-.19.27a12.67,12.67,0,0,0-.81,1.44c0,7.87-7.88,17.5-7.88,17.5L289.17,820l-6.94,10.67c-1,.53-2,2.35-2.78,4.94-.22.7-.43,1.46-.63,2.27-.14.54-.27,1.11-.39,1.68-.07.29-.13.58-.19.88l-.18.91v.14c-.12.62-.24,1.26-.35,1.91s-.24,1.4-.35,2.11q-.12.69-.21,1.38c-.14.89-.26,1.79-.38,2.68-.07.52-.14,1-.2,1.55l-.24,2c.51,1.64,1.08,3.26,1.67,4.85a7.9,7.9,0,0,1,.65,2.75,68.46,68.46,0,0,0,37.55,0v-.1a12,12,0,0,1-.24-2.73h0a75.49,75.49,0,0,1,1-7.65,27.86,27.86,0,0,0,.19-3.76v-.45C317.12,845.69,317.11,845.33,317.1,845Zm0,0a6.91,6.91,0,0,0-.07-1.2c-.07-.4-.06-.75-.11-1.13s-.09-.76-.14-1.14-.12-.76-.19-1.14-.14-.76-.22-1.14a1.72,1.72,0,0,0-.08-.38c-.11-.5-.23-1-.36-1.51s-.21-.81-.33-1.21a1.7,1.7,0,0,0-.16-.53c-.06-.17-.17-.58-.26-.87l-.18-.56c-.08-.25-.16-.5-.25-.75-.15-.45-.31-.89-.47-1.34s-.33-.89-.5-1.33c-.34-.9-.71-1.79-1.08-2.68-1.45-3.46-3.08-6.87-4.58-10.25a57.16,57.16,0,0,1-2.14-5.43l-.19.27a12.67,12.67,0,0,0-.81,1.44c0,7.87-7.88,17.5-7.88,17.5L289.17,820l-6.94,10.67c-1,.53-2,2.35-2.78,4.94-.22.7-.43,1.46-.63,2.27-.14.54-.27,1.11-.39,1.68-.07.29-.13.58-.19.88l-.18.91v.14c-.12.62-.24,1.26-.35,1.91s-.24,1.4-.35,2.11q-.12.69-.21,1.38c-.14.89-.26,1.79-.38,2.68-.07.52-.14,1-.2,1.55l-.24,2c.51,1.64,1.08,3.26,1.67,4.85a7.9,7.9,0,0,1,.65,2.75,68.46,68.46,0,0,0,37.55,0v-.1a12,12,0,0,1-.24-2.73h0a75.49,75.49,0,0,1,1-7.65,27.86,27.86,0,0,0,.19-3.76v-.45C317.12,845.69,317.11,845.33,317.1,845Z"/><path class="cls-11" d="M289.31,819.37l-.67-.09a25.68,25.68,0,0,1-3-.6l-.37-.1c-2.44-.69-5.11-1.93-5.71-4.11a3.85,3.85,0,0,1,.06-2.13A18.24,18.24,0,0,1,281,808.9v-.06a4.79,4.79,0,0,1,.25-.45,9.91,9.91,0,0,1,3.61-3.93l-1.2.19h0l-10.16,1.65-15.75,2.54s-2.8-.56-6.61,9.94a1.62,1.62,0,0,1-.13.39c-.92,2.57-1.89,5.78-2.89,9.79-.69,2.78-1.32,5.51-1.9,8.16-.17.8-.34,1.59-.5,2.37a63.28,63.28,0,0,0,5.81,6l.33.31a68.62,68.62,0,0,0,13.32,9.43l.19.1a65.68,65.68,0,0,0,9.4,4.16l.85.3c.18-1.85.38-3.9.62-6a1.71,1.71,0,0,1,.08-.63l.24-2c.06-.51.13-1,.2-1.55.12-.89.24-1.79.38-2.68q.09-.69.21-1.38c.11-.71.23-1.42.35-2.11s.23-1.29.35-1.91v-.14l.18-.91c.06-.3.12-.59.19-.88.12-.57.25-1.14.39-1.68.2-.81.41-1.57.63-2.27.8-2.59,1.73-4.41,2.78-4.94L289.14,820l.29-.45.13-.2Z"/><path class="cls-14" d="M288.72,819.39l-7.37,11.32c-1,.51-1.94,2.28-2.73,4.79-.23.74-.46,1.55-.68,2.4A117.76,117.76,0,0,0,275.68,851a1.55,1.55,0,0,1-.08.6c-.34,2.78-.62,5.51-.85,7.92a65.68,65.68,0,0,1-9.4-4.16l-.19-.1a68.62,68.62,0,0,1-13.32-9.43l-.33-.31a63.28,63.28,0,0,1-5.81-6c-.24-.27-.47-.55-.7-.83.11-.52.22-1,.34-1.56.57-2.65,1.2-5.37,1.89-8.14a99,99,0,0,1,3.4-11.2,3.05,3.05,0,0,1,.13-.32c3.54-9.11,6.09-8.6,6.09-8.6l16.63-2.68,10.5-1.7-.33.19h0a10.61,10.61,0,0,0-2.89,3.08l-.29.49c-.12.19-.23.4-.35.61a17.34,17.34,0,0,0-1.38,3.5,3.7,3.7,0,0,0,.24,2.86c1,1.94,3.84,3,6.17,3.58l.39.1A26.29,26.29,0,0,0,288.72,819.39Z"/><path class="cls-11" d="M346.51,839.6l-.41-8.88c1.75-14-1.75-14.87-1.75-14.87l-4.16-2h-.11l-16.73-8.11-.65-.32-.2-.09h0l-2.18-1.06h0l-1.38-.67-2.58-1.25-.87-.42v3.47c0,1,.09,2.17.17,3.53.18,3.42.51,8,1.1,13.4.33,3.13.75,6.55,1.27,10.22.31,2.17.53,4.33.67,6.44a113.19,113.19,0,0,1-.66,21.3L319,860a69.6,69.6,0,0,0,7.24-2.9h0a66.38,66.38,0,0,0,12.9-7.92l.18-.13a67.66,67.66,0,0,0,7.26-6.59Z"/><path class="cls-14" d="M347.39,839.6l-.41-8.9c1.75-14-1.75-14.87-1.75-14.87l-5-2.42h-.1l-16.78-8.14-.77-.37-.15-.07-1.23-.6-1.63-.79-3.22-1.56v1.42h0v1.76c0,1,.09,2.31.18,3.8.17,3.19.47,7.37,1,12.34.36,3.41.81,7.2,1.4,11.28.31,2.18.53,4.33.66,6.47a113.39,113.39,0,0,1-.62,21,69.6,69.6,0,0,0,7.24-2.9h0a66.38,66.38,0,0,0,12.9-7.92l.18-.13a67.66,67.66,0,0,0,7.26-6.59q.43-.45.84-.9Z"/><path class="cls-11" d="M291,766.13c3.12-.53,6.26-1.67,9.36-1,2.6.54,4.77,2.27,7.15,3.47a18.61,18.61,0,0,0,7.38,1.95,4.4,4.4,0,0,0,2.71-.53c1.24-.86,1.42-2.62,1.21-4.12-.6-4.26-3.26-7.92-6-11.24a21.87,21.87,0,0,0-3.76-3.81c-3.59-2.65-8.34-3.1-12.79-2.9-5.08.23-10.24,1.21-14.65,3.76-3,1.72-9.88,7.14-7.49,11.06C276.61,766.87,287.05,766.8,291,766.13Z"/><path class="cls-12" d="M291,765.13c3.12-.53,6.26-1.67,9.36-1,2.6.54,4.77,2.27,7.15,3.47a18.61,18.61,0,0,0,7.38,1.95,4.4,4.4,0,0,0,2.71-.53c1.24-.86,1.42-2.62,1.21-4.12-.6-4.26-3.26-7.92-6-11.24a21.87,21.87,0,0,0-3.76-3.81c-3.59-2.65-8.34-3.1-12.79-2.9-5.08.23-10.24,1.21-14.65,3.76-3,1.72-9.88,7.14-7.49,11.06C276.61,765.87,287.05,765.8,291,765.13Z"/></g><path class="cls-15" d="M565.59,716.16h.15c.22,6.7,1.17,12.76,3,14.44,4.36,4,22.44-4,21.2-8.84-.25-1-.67-2.64-1.2-4.71,4.88-.61,9-2,10.71-4.86l3.14,9.68.22.69h.24c2.07,19.62,6.76,60.36,10.51,65.82,5,7.23,10.75,38.56,10.75,38.56l10.75,64.27s4.14,37,6.62,41a4.67,4.67,0,0,0,2.72,1.41c-1.45,4.34-3.53,9.41-6,12.24-5,5.62-11.58,16.87-17.37,16.07s-7.44,11.25,3.31,12.85c5.95.89,15.44-.19,22.73-1.33,0,3.22,2.24,6.92,7.87,7.76C665.69,982.82,688,978,688,978s19-8,19.85-13.66c.6-4.1-2.31-20.56-3.93-29.19,3-4.81-.2-46.32-.2-46.32L698,809.3s3.31-44.18,0-52.22c-2.07-5-2.84-28-3.13-44.45l4,.26a8.62,8.62,0,0,0,.62-.87l1,.07s5-5.62.83-14.46c-3.07-6.57-2.49-36.23-2-51h0l.59-7a2.07,2.07,0,0,0,.49-.76,73.44,73.44,0,0,0,22.33-6.76,23.09,23.09,0,0,0,5.86-3.56c4.14-4,1.65-28.12-6.62-64.27s-15.71-32.94-15.71-32.94-19.85-1.61-29-13.66-15.21-11.89-15.21-11.89h0c-.23-1.58-.39-3.07-.5-4.46,0-.52-.08-1-.11-1.52a26.58,26.58,0,0,0,6.88-10.43c1.86-1,4.15-1.33,5.93-2.59a7.39,7.39,0,0,0,1.23-1.14,10.12,10.12,0,0,0,3.19-6.29,25.78,25.78,0,0,0-.37-7.89c-.63-3.84-1.56-7.77-3.8-10.79s-5.59-4.84-8.82-6.53q-13.12-6.9-26.31-13.64a14.57,14.57,0,0,0-5.63-2c-3.52-.2-6.68,2.21-9.52,4.5a39.91,39.91,0,0,0-3.25,2.85,17.13,17.13,0,0,0-2.39,2.57c-3.32,4.45-4.73,12.83-3.27,18.39.46,1.76,1.45,2.27,2.67,2.25a25.78,25.78,0,0,0-2.75,11.6,26.31,26.31,0,0,0,12.21,22.09c0,.56,0,1.11,0,1.64a60.17,60.17,0,0,1-.2,6.15s-22,11.89-24.47,17.51-11.58,9.64-11.58,9.64-17.37,8.84-17.37,40.17l-9.1,44.18-1.65,84.35s1.14-1,3-2.42c-.06.56-.11,1.14-.16,1.73a94.85,94.85,0,0,0-.25,9.69Zm111.1,218.31c-.34,1.29-.84,3-1.47,5-.28-1.66-.56-3.3-.84-4.86.72-.07,1.49-.11,2.31-.14Z"/><path class="cls-16" d="M646.65,924.11s-3.19,14.34-8,19.91S627.54,960.75,622,960s-7.17,11.15,3.19,12.74S657,969.51,657,969.51s18.32-8,19.11-13.54-4.78-34.25-4.78-34.25Z"/><path class="cls-17" d="M646.65,924.11s-3.19,14.34-8,19.91S627.54,960.75,622,960s-7.17,11.15,3.19,12.74S657,969.51,657,969.51s18.32-8,19.11-13.54-4.78-34.25-4.78-34.25Z"/><path class="cls-16" d="M676.12,930.48s-3.19,14.34-8,19.91S657,967.12,651.43,966.32s-7.17,11.15,3.19,12.74,31.86-3.19,31.86-3.19,18.32-8,19.11-13.54-4.78-34.25-4.78-34.25Z"/><path class="cls-18" d="M603.64,712.27s6.37,68.49,11.15,75.66,10.35,38.23,10.35,38.23l10.35,63.71s4,36.64,6.37,40.62,31.93,2.27,31.93,2.27L655.41,721.82Z"/><path class="cls-17" d="M603.64,712.27s6.37,68.49,11.15,75.66,10.35,38.23,10.35,38.23l10.35,63.71s4,36.64,6.37,40.62,31.93,2.27,31.93,2.27L655.41,721.82Z"/><path class="cls-18" d="M590.9,679.6l2.08,6.61,11.25,35.71.22.68h.06c1.51.34,33.39,7.67,40.27,9.92a8.41,8.41,0,0,1,1.09.41c3.19,1.59,7.17,58.93,7.17,58.93S655.43,846,657,850s8,86,12,83.62,32.65,0,32.65,0c3.19-3.19,0-46.19,0-46.19L696,808.6s3.19-43.8,0-51.77-3.19-61.32-3.19-61.32L627.6,685.32l-6.3-1Z"/><path class="cls-19" d="M593,686.22l11.25,35.71.27.7c1.51.34,33.39,7.67,40.27,9.92h.69l-17.81-47.22-.51-1.36-5.79.37Z"/><path class="cls-11" d="M667.36,520.33s-29.47,31.86-47.79,5.57l-17.52,12,3.19,18.32L594.88,694.74s27.08-.8,46.19,5.57a29.66,29.66,0,0,0,31.06-7.17L669,571.3l7.17-37.43Z"/><path class="cls-16" d="M667.36,517.94s-29.47,31.86-47.79,5.57l-17.52,12,3.19,18.32L594.88,692.35s27.08-.8,46.19,5.57a29.66,29.66,0,0,0,31.06-7.17L669,568.91l7.17-37.43Z"/><g id="b7475575-9269-4b4a-a721-bb0a166a2f3e"><g id="_5bdc843c-f8f1-42c9-9268-9744bdec504e" data-name="5bdc843c-f8f1-42c9-9268-9744bdec504e"><polyline id="_6bc746a9-2d5c-4457-b327-3c896c91b9d0" data-name="6bc746a9-2d5c-4457-b327-3c896c91b9d0" class="cls-20" points="608.53 659.82 608.53 664.84 606.93 664.84 606.93 661.5 601.08 661.5 601.08 664.84 599.47 664.84 599.47 659.83 608.53 659.82"/><path id="d39c551f-7962-48ac-bd52-1b7ff04213b0" class="cls-20" d="M607.1,658.2h-6.18a2.28,2.28,0,0,1-1.68-1.66h9.53a2.3,2.3,0,0,1-1.68,1.66"/></g><g id="_338417f9-9740-4f15-9fb5-4758cf3f6efe" data-name="338417f9-9740-4f15-9fb5-4758cf3f6efe"><path id="a3b10f10-7568-4e16-9739-cab30d2da761" class="cls-20" d="M663,656.6a2.31,2.31,0,0,1-1.67,1.65h-2.6l-.13,0v6.56H657V658.3l-.15,0h-2.6a2.34,2.34,0,0,1-1.67-1.65H663"/></g></g><path class="cls-21" d="M606,682.8s0,20.71-4.78,29.47-32.65,4-32.65,4l5.57-29.47Z"/><path class="cls-22" d="M571.63,730.6c4.2,4,21.61-4,20.41-8.76-.84-3.37-3.78-15.43-5.45-22.27l-1.16-4.81s-10.2-3.19-13.8,0c-1.31,1.16-2.23,5.73-2.66,11.25C568.23,715.6,569,728.06,571.63,730.6Z"/><path class="cls-22" d="M610,532.27l27.87,21.5s41.41-2.39,31.06-22.3a74.17,74.17,0,0,1-8-28.14,58.26,58.26,0,0,1,0-10.89s-38.23-35-33.45,4.78a88.31,88.31,0,0,1,.66,9.2C628.69,536.28,610,532.27,610,532.27Z"/><path class="cls-11" d="M627.54,497.23a88.31,88.31,0,0,1,.66,9.2,26.11,26.11,0,0,0,14.47,4.34c7.13,0,12.38-6.94,17.12-11.55-.53-6.61,1.19-6.77,1.19-6.77S622.76,457.41,627.54,497.23Z"/><circle class="cls-22" cx="642.67" cy="482.9" r="26.28"/><path class="cls-11" d="M661.38,508s4.38.4,13.14,12.34,27.87,13.54,27.87,13.54,7.17-3.19,15.13,32.65,10.35,59.73,6.37,63.71S704,639.79,696,639.79c0,0-2.39,50.17,1.59,58.93s-.8,14.34-.8,14.34l-35-2.39s-11.95-15.13-14.34-41.41-10.35-101.15-6.37-109.91,21.5-31.06,20.71-33.45S661.38,508,661.38,508Z"/><path class="cls-21" d="M661.47,507.74s5.89-.16,14.65,11.79S704,533.07,704,533.07s7.17-3.19,15.13,32.65,10.35,59.73,6.37,63.71S705.57,639,697.61,639c0,0-2.39,50.17,1.59,58.93s-.8,14.34-.8,14.34l-35-2.39s-11.95-15.13-14.34-41.41-10.37-101.14-6.39-109.86,21.5-31.06,20.71-33.45S661.47,507.74,661.47,507.74Z"/><path class="cls-11" d="M569,706c3.81-2.91,11-7.44,17.62-6.44l-1.16-4.81s-10.2-3.19-13.8,0C570.31,695.91,569.4,700.47,569,706Z"/><path class="cls-11" d="M628,512.76s-20.31,13.14-22.7,18.72S594.13,541,594.13,541s-16.72,8.76-16.72,39.82l-8.76,43.8,39.82,55.75s4.78-55.75,7.17-69.29,5.57-39,5.57-39S633.16,557,631.56,553,628,512.76,628,512.76Z"/><path class="cls-21" d="M628,512.52s-21.18,11.79-23.56,17.36-11.15,9.56-11.15,9.56-16.72,8.76-16.72,39.82l-8.76,43.8-1.59,83.62s14.34-13.54,24.69-7.17,16.72-20.71,16.72-20.71,4.78-55.75,7.17-69.29,5.57-39,5.57-39,11.95-15.13,10.35-19.11S628,512.52,628,512.52Z"/><path class="cls-11" d="M619.6,450.93a25.79,25.79,0,0,1,4.64-4.58c2.74-2.28,5.77-4.66,9.17-4.46a13.54,13.54,0,0,1,5.42,1.94q12.7,6.69,25.33,13.52c3.11,1.68,6.32,3.46,8.49,6.48s3.05,6.9,3.66,10.7a26.3,26.3,0,0,1,.36,7.82,9.85,9.85,0,0,1-3.46,6.57c-2.27,1.65-5.38,1.66-7.28,3.82-1.1,1.25-1.58,3-2.36,4.52s-2.13,3-3.67,2.73-2.47-1.9-2.69-3.55a21.45,21.45,0,0,1,.29-5c.3-3-.08-6.18-1.82-8.41-1.2-1.52-2.92-2.44-4.08-4-2.78-3.76-1.51-10-4.56-13.53a7.21,7.21,0,0,0-7-2c-2.47.52-4.73,1.86-7,3a53.1,53.1,0,0,1-9.59,3.7c-2.78.76-6,2.58-7-1.12C615.05,463.65,616.4,455.34,619.6,450.93Z"/><path class="cls-23" d="M620.4,450.14a25.79,25.79,0,0,1,4.64-4.58c2.74-2.28,5.77-4.66,9.17-4.46a13.54,13.54,0,0,1,5.42,1.94c8.46,4.46,15.49.24,25.33,13.52,2.1,2.84,6.32,3.46,8.49,6.48s3,6.9,3.66,10.7a26.3,26.3,0,0,1,.36,7.82,9.85,9.85,0,0,1-3.46,6.57c-2.27,1.65-5.38,1.66-7.28,3.82-1.1,1.25-1.58,3-2.36,4.52s-2.13,3-3.67,2.73-2.47-1.9-2.69-3.55a21.45,21.45,0,0,1,.29-5c.3-3-.08-6.18-1.82-8.41-1.2-1.52-2.92-2.44-4.08-4-2.78-3.76-1.51-10-4.56-13.53a7.21,7.21,0,0,0-7-2c-2.47.52-4.73,1.86-7,3a53.1,53.1,0,0,1-9.59,3.7c-2.78.76-6,2.58-7-1.12C615.84,462.86,617.2,454.54,620.4,450.14Z"/><path class="cls-11" d="M692.18,571.69s10.62,27.08,2.65,38.23l-17.52-4s15.93,4.78,13.54-4.78S692.18,571.69,692.18,571.69Z"/><path class="cls-11" d="M698,638.6s-23.1,1.59-29.47-3.19a61,61,0,0,0,28.75,12Z"/><path class="cls-11" d="M598.47,587.6s-12,36.64-11.15,42.21,2.39,66.9,2.39,66.9l2.39-.8-.8-66.9Z"/><path class="cls-24" d="M700.79,632.38l-273-220a17.05,17.05,0,0,0-12.1-5h-11.6A148,148,0,1,0,378.46,433V444.6a17.07,17.07,0,0,0,5,12.1l273,220a17,17,0,0,0,24,.09l.1-.09,20.12-20.1A17.18,17.18,0,0,0,700.79,632.38Zm-413.47-225a91.14,91.14,0,1,1,91.14-91.14h0a91.09,91.09,0,0,1-91,91.16h-.12Z"/><path class="cls-4" d="M702.79,630.38l-273-220a17.05,17.05,0,0,0-12.1-5h-11.6A148,148,0,1,0,380.46,431V442.6a17.07,17.07,0,0,0,5,12.1l273,220a17,17,0,0,0,24,.09l.1-.09,20.12-20.1A17.18,17.18,0,0,0,702.79,630.38Zm-413.47-225a91.14,91.14,0,1,1,91.14-91.14h0a91.09,91.09,0,0,1-91,91.16h-.12Z"/><path class="cls-22" d="M682.49,610.32s-39.85-45.7-34.25-14.34c4,22.3,19.11,34.25,26.28,36.64S682.49,610.32,682.49,610.32Z"/><path class="cls-21" d="M692.05,568.11s.8,29.47,4.78,33.45-2.39,8.76-2.39,8.76l-15.93-4s4,26.28-12.74,23.1c0,0,11.15,10.35,22.3,12S698.42,639,698.42,639l16.72-19.91Z"/><polygon class="cls-21" points="696.46 639.41 712.62 635.86 710.46 628.41 700.46 624.41 687.46 630.41 696.46 639.41"/><path class="cls-3" d="M224.76,313.4a67.72,67.72,0,0,0,13.58,40.78c.89,1.19,1.82,2.34,2.79,3.47.52.61,1.06,1.21,1.61,1.8q.4.45.84.9a66.72,66.72,0,0,0,7.26,6.59l.18.13a66.38,66.38,0,0,0,12.9,7.92h0a68.73,68.73,0,0,0,7.24,2.9l.91.29c.56.19,1.14.36,1.71.52l.23.07c.29.08.58.17.88.24a68,68,0,0,0,17.83,2.37c1,0,2,0,3.07-.07a67.48,67.48,0,0,0,15.77-2.58h.1c.95-.28,1.89-.57,2.82-.89h.1l.85-.3a65.68,65.68,0,0,0,9.4-4.16l.19-.1,1-.55a68.26,68.26,0,0,0,12.34-8.88l.33-.31a63.28,63.28,0,0,0,5.81-6l.21-.25c.17-.19.33-.38.49-.58.44-.52.86-1.06,1.28-1.6A68,68,0,1,0,224.76,313.4Z"/><path class="cls-25" d="M248.29,335.27S263,334,269.8,324.64c6.59-9.13,11.07-9.24,11.29-9.24h0c.17-1.22.29-2.38.37-3.46v-.15a2.11,2.11,0,0,1-.93.41c-1.32.2-2.48-1.05-3.14-2.38a18.72,18.72,0,0,0-2-3.94c-1.63-1.88-4.3-1.89-6.24-3.32a8.61,8.61,0,0,1-3-5.72,15,15,0,0,1-.12-2.5,28,28,0,0,1,.42-5.33c.52-3.31,1.29-6.7,3.14-9.31s5.47-3.17,7.27-5.64c8.43-11.56,14.44-7.89,21.69-11.77a11.56,11.56,0,0,1,4.64-1.69c2.91-.17,5.51,1.91,7.85,3.89a22.27,22.27,0,0,1,4,4c2.09,2.93,3.26,7.84,3.16,12.14a18.11,18.11,0,0,1-.46,4.75c-.58,2.3-2.15,2.15-3.87,1.63a20.78,20.78,0,0,1-7.06,26.08v1.28a47.71,47.71,0,0,0,.16,4.78c.17.09,16.34,9.26,18.17,13.61s8.61,7.5,8.61,7.5,7.45,4,11,16.56l-.21.25a64.58,64.58,0,0,1-5.81,6.12l-.33.32a68.18,68.18,0,0,1-12.34,9c-.32.19-.65.38-1,.56l-.19.1a66,66,0,0,1-9.4,4.23l-.85.31h-.1c-.93.33-1.87.62-2.82.9h-.1a66.93,66.93,0,0,1-15.77,2.62c-1,0-2,.07-3.07.07A67.17,67.17,0,0,1,275,379c-.3-.07-.59-.16-.88-.24l-.23-.07c-.57-.16-1.15-.34-1.71-.53l-.91-.29a67.49,67.49,0,0,1-7.27-3h0a66.5,66.5,0,0,1-12.9-8l-.18-.13a68.77,68.77,0,0,1-7.26-6.7c-.29-.3-.57-.6-.84-.92-.55-.6-1.09-1.21-1.61-1.83-1-1.15-1.9-2.32-2.79-3.53C243.75,333.21,248.29,335.27,248.29,335.27Z"/><path class="cls-22" d="M299.29,352l21.51-16.59s-14.41,3.09-14-19.94a.88.88,0,0,1,0-.23,58.92,58.92,0,0,1,.5-6.87c3.69-30.73-25.81-3.69-25.81-3.69a44.7,44.7,0,0,1,0,8.18v.22a57.1,57.1,0,0,1-6.14,21.71C267.34,350.16,299.29,352,299.29,352Z"/><path class="cls-11" d="M284.24,308.6c3.65,3.55,5.88,10,11.37,10a20.25,20.25,0,0,0,11.17-3.35,58.92,58.92,0,0,1,.5-6.87c3.69-30.73-25.81-3.69-25.81-3.69S284.63,303.6,284.24,308.6Z"/><circle class="cls-22" cx="295.61" cy="297.32" r="20.28"/><path class="cls-11" d="M315.06,271.35a22.16,22.16,0,0,0-4-3.92c-2.34-1.95-4.94-4-7.85-3.82a11.66,11.66,0,0,0-4.64,1.66c-7.25,3.82-13.26.21-21.69,11.57-1.8,2.43-5.41,3-7.27,5.55s-2.61,5.9-3.14,9.16a22.47,22.47,0,0,0-.31,6.7,8.4,8.4,0,0,0,3,5.62c1.94,1.41,4.61,1.42,6.24,3.27a18,18,0,0,1,2,3.87c.66,1.3,1.82,2.53,3.14,2.34s2.11-1.62,2.3-3a18.48,18.48,0,0,0-.25-4.27c-.25-2.53.07-5.29,1.56-7.2,1-1.31,2.5-2.09,3.49-3.42,2.38-3.21,1.3-8.6,3.91-11.58a6.17,6.17,0,0,1,6-1.67,25.29,25.29,0,0,1,6,2.58,45.68,45.68,0,0,0,8.21,3.17c2.38.65,5.14,2.21,5.95-1C319,282.24,317.79,275.12,315.06,271.35Z"/><path class="cls-23" d="M315.06,270.35a22.16,22.16,0,0,0-4-3.92c-2.34-1.95-4.94-4-7.85-3.82a11.66,11.66,0,0,0-4.64,1.66c-7.25,3.82-13.26.21-21.69,11.57-1.8,2.43-5.41,3-7.27,5.55s-2.61,5.9-3.14,9.16a22.47,22.47,0,0,0-.31,6.7,8.4,8.4,0,0,0,3,5.62c1.94,1.41,4.61,1.42,6.24,3.27a18,18,0,0,1,2,3.87c.66,1.3,1.82,2.53,3.14,2.34s2.11-1.62,2.3-3a18.48,18.48,0,0,0-.25-4.27c-.25-2.53.07-5.29,1.56-7.2,1-1.31,2.5-2.09,3.49-3.42,2.38-3.21,1.3-8.6,3.91-11.58a6.17,6.17,0,0,1,6-1.67,25.29,25.29,0,0,1,6,2.58,45.68,45.68,0,0,0,8.21,3.17c2.38.65,5.14,2.21,5.95-1C319,281.24,317.79,274.12,315.06,270.35Z"/><path class="cls-11" d="M275.33,362.68l-.4,15.35a68,68,0,0,0,17.83,2.37c1,0,2.05,0,3.07-.07a67.48,67.48,0,0,0,15.77-2.58h.1c.95-.28,1.89-.57,2.82-.89h.1l.85-.3a65.68,65.68,0,0,0,9.4-4.16l.19-.1,1-.55-1.55-20.69L327,336.87l-13.52-9.21a24.88,24.88,0,0,1-2.54,3.08,17.07,17.07,0,0,1-4.62,3.42c-9.7,4.78-20.74-2.82-26.23-7.52l-1.25-1.11c-1.42-1.29-2.23-2.17-2.23-2.17l-6.76,10.44Z"/><path class="cls-16" d="M275.33,363.68l-.4,15.35a68,68,0,0,0,17.83,2.37c1,0,2.05,0,3.07-.07a67.48,67.48,0,0,0,15.77-2.58h.1c.95-.28,1.89-.57,2.82-.89h.1l.85-.3a65.68,65.68,0,0,0,9.4-4.16l.19-.1,1-.55-1.55-20.69L327,337.87l-13.52-9.21a24.88,24.88,0,0,1-2.54,3.08,17.07,17.07,0,0,1-4.62,3.42c-9.7,4.78-20.74-2.82-26.23-7.52l-1.25-1.11c-1.42-1.29-2.23-2.17-2.23-2.17l-6.76,10.44Z"/><path class="cls-26" d="M238.34,354.18c.89,1.19,1.82,2.34,2.79,3.47.52.61,1.06,1.21,1.61,1.8q.4.45.84.9a66.72,66.72,0,0,0,7.26,6.59l.18.13a66.38,66.38,0,0,0,12.9,7.92h0a68.73,68.73,0,0,0,7.24,2.9l.91.29c.56.19,1.14.36,1.71.52l.23.07c.29.08.58.17.88.24a68,68,0,0,0,17.83,2.37c1,0,2,0,3.07-.07.78-12.76,1-23-.22-25.63a40.58,40.58,0,0,0-2.47-4.42c-4.94-7.94-14-19.88-13.51-21.39a15.62,15.62,0,0,0,.41-2.25c.53-3.94,1.06-11.15,1.06-11.15h0c-.22,0-4.7.11-11.29,9.09C263,334.78,248.26,336,248.26,336S243.75,334,238.34,354.18Z"/><path class="cls-26" d="M312.81,364.91s.74,5.89,1.71,12.93h.1l.85-.3a65.68,65.68,0,0,0,9.4-4.16l.19-.1,1-.55a68.26,68.26,0,0,0,12.34-8.88l.33-.31a63.28,63.28,0,0,0,5.81-6l.21-.25c-3.57-12.39-11-16.29-11-16.29s-6.76-3.08-8.61-7.38S307,320.23,307,320.23v.07c0,.77-.26,7.82-.65,14.91-.25,4.61-.56,9.24-.92,12.18a14.29,14.29,0,0,1-.52,2.82C303.6,353.24,312.81,364.91,312.81,364.91Z"/><text class="cls-27" transform="translate(0 51.42)">Aw..No classmates in this major yet.<tspan x="167.37" y="72">Be the first to invite one</tspan><tspan x="501.46" y="144"> </tspan></text><text/></g></g></svg>