<svg xmlns="http://www.w3.org/2000/svg" xmlns:xlink="http://www.w3.org/1999/xlink" viewBox="0 0 675.04 815.24"><defs><style>.cls-1{fill:url(#linear-gradient);}.cls-2{fill:#fff;}.cls-3,.cls-5{fill:#c0bccf;}.cls-4,.cls-6{fill:#007bff;}.cls-5,.cls-6,.cls-7{opacity:0.5;}.cls-11,.cls-17,.cls-19,.cls-5,.cls-6{isolation:isolate;}.cls-8{fill:url(#linear-gradient-2);}.cls-9{fill:#493545;}.cls-10{fill:#c77485;}.cls-11{opacity:0.1;}.cls-12{fill:#444176;}.cls-13{fill:url(#linear-gradient-3);}.cls-14{fill:#f1d2d7;}.cls-15{fill:url(#linear-gradient-4);}.cls-16{fill:#53526b;}.cls-17{opacity:0.05;}.cls-18{fill:#5f5d7e;}.cls-19{opacity:0.02;}.cls-20{fill:#e82127;}.cls-21{fill:#d6dbe6;}.cls-22{fill:#fdc2cc;}.cls-23{fill:#865a61;}.cls-24{fill:url(#linear-gradient-5);}.cls-25{fill:url(#linear-gradient-6);}.cls-26{fill:#555388;}</style><linearGradient id="linear-gradient" x1="-125.96" y1="-4107.71" x2="-125.96" y2="-4863.01" gradientTransform="translate(488 4873.46)" gradientUnits="userSpaceOnUse"><stop offset="0" stop-color="gray" stop-opacity="0.25"/><stop offset="0.54" stop-color="gray" stop-opacity="0.12"/><stop offset="1" stop-color="gray" stop-opacity="0.1"/></linearGradient><linearGradient id="linear-gradient-2" x1="-287.79" y1="-4393.43" x2="-287.79" y2="-4514.54" gradientTransform="translate(444.8 4849.6)" xlink:href="#linear-gradient"/><linearGradient id="linear-gradient-3" x1="-339.24" y1="-4213.93" x2="-236.75" y2="-4213.93" gradientTransform="translate(444.8 4849.6)" xlink:href="#linear-gradient"/><linearGradient id="linear-gradient-4" x1="214.7" y1="-4034.36" x2="214.7" y2="-4577.4" gradientTransform="matrix(-1, 0, 0, 1, 722.09, 4849.6)" xlink:href="#linear-gradient"/><linearGradient id="linear-gradient-5" x1="-161.65" y1="-4334.2" x2="-161.65" y2="-4847.6" gradientTransform="translate(444.8 4849.6)" xlink:href="#linear-gradient"/><linearGradient id="linear-gradient-6" x1="-3238.8" y1="-4634.6" x2="-3238.8" y2="-4755.31" gradientTransform="matrix(-1, 0, 0, 1, -3086.64, 4849.6)" xlink:href="#linear-gradient"/></defs><g id="Layer_2" data-name="Layer 2"><g id="Layer_1-2" data-name="Layer 1"><rect class="cls-1" x="49.04" y="10.45" width="626" height="755.3"/><rect class="cls-2" x="57.04" y="20.11" width="610" height="736"/><rect class="cls-3" x="294.04" y="103.11" width="246" height="12"/><rect class="cls-3" x="294.04" y="141.11" width="246" height="12"/><rect class="cls-4" x="353.04" y="179.11" width="128" height="12"/><rect class="cls-5" x="294.04" y="344.11" width="246" height="12"/><rect class="cls-5" x="294.04" y="382.11" width="246" height="12"/><rect class="cls-6" x="353.04" y="420.11" width="128" height="12"/><rect class="cls-5" x="294.04" y="585.11" width="246" height="12"/><rect class="cls-5" x="294.04" y="623.11" width="246" height="12"/><rect class="cls-6" x="353.04" y="661.11" width="128" height="12"/><g class="cls-7"><path class="cls-3" d="M226,388.1a67.76,67.76,0,0,1-16.37,44.25c-.52.61-1.06,1.21-1.61,1.8l-.84.9a68.63,68.63,0,0,1-7.26,6.59l-.18.13a66.54,66.54,0,0,1-12.9,7.93h0a70.5,70.5,0,0,1-7.24,2.9l-.91.29c-.56.19-1.14.36-1.71.52l-.23.07a68.46,68.46,0,0,1-37.55,0h-.1c-1-.29-2-.59-2.92-.92l-.85-.3a65.68,65.68,0,0,1-9.4-4.16l-.19-.1a68.31,68.31,0,0,1-13.32-9.43l-.33-.31a62.1,62.1,0,0,1-5.81-6c-.24-.27-.47-.55-.7-.83-.44-.52-.86-1.06-1.28-1.6A68,68,0,1,1,226,388.11Z"/><path class="cls-8" d="M207.43,411l-5.16-2.34a23.16,23.16,0,0,0,.1-2.36,16.68,16.68,0,0,0,0-2c-.51-5.26-3.86-9.84-6.23-14.65a41.33,41.33,0,0,1-4.07-14c-.63-6,0-12.22-2.2-17.86-1.79-4.55-5.33-8.35-9.12-11.71a46.06,46.06,0,0,0-14.65-9.29c-5.54-2-11.91-2.51-17.45-.47-5,1.84-8.85,5.51-12.57,9.08a41.71,41.71,0,0,0-7.1,8.08c-2.27,3.72-3.24,8-4,12.22a184.4,184.4,0,0,0-2.46,20.42c-.39,5.71-1,12.19-5.88,15.69-2.38,1.71-5.73,2.67-6.82,5.26a5.27,5.27,0,0,0-.36,2.45,8.5,8.5,0,0,0,.12,2.14c.07.4.15.79.25,1.19a85.53,85.53,0,0,0-3.52,10.68c-.73,2.7-1.4,5.35-2,7.92h2.48l9.32.22h.13l10,.23h.05l9.32.22h.23l2.69.19h.88l37.27.86h.2l2.48.06h.87l7.46.17h0l11,.25h.08l8.28.2h2.58l-.44-8.68C211,411.87,207.43,411,207.43,411ZM165.58,410c0,7.36-7.88,16.37-7.88,16.37l-7.93-10.8.29-.42,7.64,10.4s7.88-9,7.88-16.37a6.48,6.48,0,0,1,.63-1.08l.18.56A9.75,9.75,0,0,0,165.58,410Zm12.12,28.88a7.48,7.48,0,0,0-.12-1.16c-.07-.37-.06-.7-.11-1.06s-.09-.71-.14-1.07-.12-.71-.19-1.07-.14-.71-.22-1.07a2.33,2.33,0,0,0-.08-.36l-.36-1.41c-.13-.47-.21-.76-.33-1.13a1.82,1.82,0,0,0-.16-.5c-.06-.16-.17-.54-.26-.81l-.15-.52c-.08-.23-.16-.47-.25-.7-.15-.42-.31-.83-.47-1.25s-.33-.83-.5-1.24c-.34-.84-.71-1.67-1.08-2.51-1.45-3.24-3.08-6.43-4.58-9.59a49.17,49.17,0,0,1-2.14-5.08l-.19.25a10.27,10.27,0,0,0-.81,1.35c0,7.36-7.88,16.37-7.88,16.37l-7.93-10.8-6.94,10c-1,.5-2,2.2-2.78,4.62-.22.65-.43,1.37-.63,2.12-.14.51-.27,1-.39,1.57-.07.27-.13.54-.19.82l-.18.85v.22c-.12.58-.24,1.18-.35,1.79s-.24,1.31-.35,2q-.12.64-.21,1.29c-.14.83-.26,1.67-.38,2.51-.07.49-.14,1-.2,1.45l-.24,1.86c.51,1.53,1.08,3,1.67,4.54a7,7,0,0,1,.65,2.57,72.88,72.88,0,0,0,37.55,0v-.09a9.94,9.94,0,0,1-.24-2.55h0a64.21,64.21,0,0,1,1-7.16,25.87,25.87,0,0,0,.19-3.52v-1.47Zm0,0a7.48,7.48,0,0,0-.12-1.16c-.07-.37-.06-.7-.11-1.06s-.09-.71-.14-1.07-.12-.71-.19-1.07-.14-.71-.22-1.07a2.33,2.33,0,0,0-.08-.36l-.36-1.41c-.13-.47-.21-.76-.33-1.13a1.82,1.82,0,0,0-.16-.5c-.06-.16-.17-.54-.26-.81l-.15-.52c-.08-.23-.16-.47-.25-.7-.15-.42-.31-.83-.47-1.25s-.33-.83-.5-1.24c-.34-.84-.71-1.67-1.08-2.51-1.45-3.24-3.08-6.43-4.58-9.59a49.17,49.17,0,0,1-2.14-5.08l-.19.25a10.27,10.27,0,0,0-.81,1.35c0,7.36-7.88,16.37-7.88,16.37l-7.93-10.8-6.94,10c-1,.5-2,2.2-2.78,4.62-.22.65-.43,1.37-.63,2.12-.14.51-.27,1-.39,1.57-.07.27-.13.54-.19.82l-.18.85v.22c-.12.58-.24,1.18-.35,1.79s-.24,1.31-.35,2q-.12.64-.21,1.29c-.14.83-.26,1.67-.38,2.51-.07.49-.14,1-.2,1.45l-.24,1.86c.51,1.53,1.08,3,1.67,4.54a7,7,0,0,1,.65,2.57,72.88,72.88,0,0,0,37.55,0v-.09a9.94,9.94,0,0,1-.24-2.55h0a64.21,64.21,0,0,1,1-7.16,25.87,25.87,0,0,0,.19-3.52v-1.47Zm0,0a7.48,7.48,0,0,0-.12-1.16c-.07-.37-.06-.7-.11-1.06s-.09-.71-.14-1.07-.12-.71-.19-1.07-.14-.71-.22-1.07a2.33,2.33,0,0,0-.08-.36l-.36-1.41c-.13-.47-.21-.76-.33-1.13a1.82,1.82,0,0,0-.16-.5c-.06-.16-.17-.54-.26-.81l-.15-.52c-.08-.23-.16-.47-.25-.7-.15-.42-.31-.83-.47-1.25s-.33-.83-.5-1.24c-.34-.84-.71-1.67-1.08-2.51-1.45-3.24-3.08-6.43-4.58-9.59a49.17,49.17,0,0,1-2.14-5.08l-.19.25a10.27,10.27,0,0,0-.81,1.35c0,7.36-7.88,16.37-7.88,16.37l-7.93-10.8-6.94,10c-1,.5-2,2.2-2.78,4.62-.22.65-.43,1.37-.63,2.12-.14.51-.27,1-.39,1.57-.07.27-.13.54-.19.82l-.18.85v.22c-.12.58-.24,1.18-.35,1.79s-.24,1.31-.35,2q-.12.64-.21,1.29c-.14.83-.26,1.67-.38,2.51-.07.49-.14,1-.2,1.45l-.24,1.86c.51,1.53,1.08,3,1.67,4.54a7,7,0,0,1,.65,2.57,72.88,72.88,0,0,0,37.55,0v-.09a9.94,9.94,0,0,1-.24-2.55h0a64.21,64.21,0,0,1,1-7.16,25.87,25.87,0,0,0,.19-3.52v-1.47Zm0,0a7.48,7.48,0,0,0-.12-1.16c-.07-.37-.06-.7-.11-1.06s-.09-.71-.14-1.07-.12-.71-.19-1.07-.14-.71-.22-1.07a2.33,2.33,0,0,0-.08-.36l-.36-1.41c-.13-.47-.21-.76-.33-1.13a1.82,1.82,0,0,0-.16-.5c-.06-.16-.17-.54-.26-.81l-.15-.52c-.08-.23-.16-.47-.25-.7-.15-.42-.31-.83-.47-1.25s-.33-.83-.5-1.24c-.34-.84-.71-1.67-1.08-2.51-1.45-3.24-3.08-6.43-4.58-9.59a49.17,49.17,0,0,1-2.14-5.08l-.19.25a10.27,10.27,0,0,0-.81,1.35c0,7.36-7.88,16.37-7.88,16.37l-7.93-10.8-6.94,10c-1,.5-2,2.2-2.78,4.62-.22.65-.43,1.37-.63,2.12-.14.51-.27,1-.39,1.57-.07.27-.13.54-.19.82l-.18.85v.22c-.12.58-.24,1.18-.35,1.79s-.24,1.31-.35,2q-.12.64-.21,1.29c-.14.83-.26,1.67-.38,2.51-.07.49-.14,1-.2,1.45l-.24,1.86c.51,1.53,1.08,3,1.67,4.54a7,7,0,0,1,.65,2.57,72.88,72.88,0,0,0,37.55,0v-.09a9.94,9.94,0,0,1-.24-2.55h0a64.21,64.21,0,0,1,1-7.16,25.87,25.87,0,0,0,.19-3.52v-1.47Z"/><rect class="cls-9" x="132.04" y="369.11" width="46" height="31"/><path class="cls-10" d="M185.68,403.3l-19.25,27.12-20.12-1.72s-26.25,1.74-8.75-18.37c8.41-9.67,11.16-17.73,11.75-23.48.64-6.22-1.25-9.76-1.25-9.76l21.87-2.62a16.22,16.22,0,0,0-.36,9.13C172.31,394.93,185.68,403.3,185.68,403.3Z"/><path class="cls-11" d="M169.58,383.54a21.9,21.9,0,0,1-20.26,3.26c.64-6.22-1.25-9.76-1.25-9.76l21.87-2.62A16.18,16.18,0,0,0,169.58,383.54Z"/><circle class="cls-10" cx="156.37" cy="365.23" r="21.87"/><path class="cls-11" d="M184.88,404.42l-.51-2-.44-1.76-.65-2.6-.12-.48-.1-.4s.52-1.57-2.91-1.06l-.64.11c-.54.11-1.17.26-1.89.46l-.65.2-.86.27h0a18.54,18.54,0,0,0-7.26,4.38,15.9,15.9,0,0,0-2.43,2.94c-.07.1-.12.19-.18.27a8.68,8.68,0,0,0-.63,1.16c0,7.88-7.88,17.5-7.88,17.5L150,412.3l-.15-.22-1.83-2.66-.65-.86-.22-.3-4-5.37-1-1.34-.33-.45-.49-.65-1.15-1.53-4.5,2.63-6,3.5-3.5,22.75v.63l.11,1.88.73,12.36v.17L125.78,448l.19.1a65.68,65.68,0,0,0,9.4,4.16l.85.3c1,.33,1.94.63,2.92.92,0,.15.06.3.08.45v-.43a68.46,68.46,0,0,0,37.55,0l.23-.07c.57-.16,1.15-.33,1.71-.52l.91-.29a70.5,70.5,0,0,0,7.24-2.9l.84-17.9.6-12.91v-.74Z"/><path class="cls-2" d="M177.68,437.7a8.05,8.05,0,0,0-.07-1.2c-.07-.4-.06-.75-.11-1.13s-.09-.76-.14-1.14-.12-.76-.19-1.14-.14-.76-.22-1.14a2.33,2.33,0,0,0-.08-.38c-.11-.5-.23-1-.36-1.51s-.21-.81-.33-1.21a2,2,0,0,0-.16-.53c-.06-.17-.17-.58-.26-.87l-.18-.56c-.08-.25-.16-.5-.25-.75-.15-.45-.31-.89-.47-1.34s-.33-.89-.5-1.33c-.34-.9-.71-1.79-1.08-2.68-1.45-3.46-3.08-6.87-4.58-10.25a55.13,55.13,0,0,1-2.14-5.43l-.19.27a10.2,10.2,0,0,0-.81,1.44c0,7.87-7.88,17.5-7.88,17.5l-7.93-11.62-6.94,10.67c-1,.53-2,2.35-2.78,4.94-.22.7-.43,1.46-.63,2.27-.14.54-.27,1.11-.39,1.68-.07.29-.13.58-.19.88l-.18.91v.14c-.12.62-.24,1.26-.35,1.91s-.24,1.4-.35,2.11q-.12.69-.21,1.38c-.14.89-.26,1.79-.38,2.68-.07.52-.14,1-.2,1.55l-.24,2c.51,1.64,1.08,3.26,1.67,4.85a7.9,7.9,0,0,1,.65,2.75,68.46,68.46,0,0,0,37.55,0v-.1a11.37,11.37,0,0,1-.24-2.73h0a73.1,73.1,0,0,1,1-7.65,29.5,29.5,0,0,0,.19-3.76v-.45C177.7,438.39,177.69,438,177.68,437.7Zm0,0a8.05,8.05,0,0,0-.07-1.2c-.07-.4-.06-.75-.11-1.13s-.09-.76-.14-1.14-.12-.76-.19-1.14-.14-.76-.22-1.14a2.33,2.33,0,0,0-.08-.38c-.11-.5-.23-1-.36-1.51s-.21-.81-.33-1.21a2,2,0,0,0-.16-.53c-.06-.17-.17-.58-.26-.87l-.18-.56c-.08-.25-.16-.5-.25-.75-.15-.45-.31-.89-.47-1.34s-.33-.89-.5-1.33c-.34-.9-.71-1.79-1.08-2.68-1.45-3.46-3.08-6.87-4.58-10.25a55.13,55.13,0,0,1-2.14-5.43l-.19.27a10.2,10.2,0,0,0-.81,1.44c0,7.87-7.88,17.5-7.88,17.5l-7.93-11.62-6.94,10.67c-1,.53-2,2.35-2.78,4.94-.22.7-.43,1.46-.63,2.27-.14.54-.27,1.11-.39,1.68-.07.29-.13.58-.19.88l-.18.91v.14c-.12.62-.24,1.26-.35,1.91s-.24,1.4-.35,2.11q-.12.69-.21,1.38c-.14.89-.26,1.79-.38,2.68-.07.52-.14,1-.2,1.55l-.24,2c.51,1.64,1.08,3.26,1.67,4.85a7.9,7.9,0,0,1,.65,2.75,68.46,68.46,0,0,0,37.55,0v-.1a11.37,11.37,0,0,1-.24-2.73h0a73.1,73.1,0,0,1,1-7.65,29.5,29.5,0,0,0,.19-3.76v-.45C177.7,438.39,177.69,438,177.68,437.7Zm0,0a8.05,8.05,0,0,0-.07-1.2c-.07-.4-.06-.75-.11-1.13s-.09-.76-.14-1.14-.12-.76-.19-1.14-.14-.76-.22-1.14a2.33,2.33,0,0,0-.08-.38c-.11-.5-.23-1-.36-1.51s-.21-.81-.33-1.21a2,2,0,0,0-.16-.53c-.06-.17-.17-.58-.26-.87l-.18-.56c-.08-.25-.16-.5-.25-.75-.15-.45-.31-.89-.47-1.34s-.33-.89-.5-1.33c-.34-.9-.71-1.79-1.08-2.68-1.45-3.46-3.08-6.87-4.58-10.25a55.13,55.13,0,0,1-2.14-5.43l-.19.27a10.2,10.2,0,0,0-.81,1.44c0,7.87-7.88,17.5-7.88,17.5l-7.93-11.62-6.94,10.67c-1,.53-2,2.35-2.78,4.94-.22.7-.43,1.46-.63,2.27-.14.54-.27,1.11-.39,1.68-.07.29-.13.58-.19.88l-.18.91v.14c-.12.62-.24,1.26-.35,1.91s-.24,1.4-.35,2.11q-.12.69-.21,1.38c-.14.89-.26,1.79-.38,2.68-.07.52-.14,1-.2,1.55l-.24,2c.51,1.64,1.08,3.26,1.67,4.85a7.9,7.9,0,0,1,.65,2.75,68.46,68.46,0,0,0,37.55,0v-.1a11.37,11.37,0,0,1-.24-2.73h0a73.1,73.1,0,0,1,1-7.65,29.5,29.5,0,0,0,.19-3.76v-.45C177.7,438.39,177.69,438,177.68,437.7Zm10.6-18.77-3.57-14.23-.61-2.44-.17-.67h0l-.87-3.48V398h0a.87.87,0,0,0-.07-.45c-.13-.26-.46-.53-1.23-.6a6.46,6.46,0,0,0-.88,0h0a14,14,0,0,0-2.57.48c-.41.11-.85.23-1.32.38l-.86.27h-.08a18.94,18.94,0,0,0-6.3,3.5,16.32,16.32,0,0,0-3.2,3.54l-.19.27a10.2,10.2,0,0,0-.81,1.44c0,7.87-7.88,17.5-7.88,17.5l-7.93-11.55-.45-.65-.08-.11-1.15-1.69-.87-1.16-.23-.3-4.1-5.47h0l-1.28-1.82v-.06l-.45-.61-.86-1.14-3,1.75-7.5,4.37-3.46,22.51v.28l.1,1.64.74,12.53v.71L126,448.09a65.68,65.68,0,0,0,9.4,4.16l.85.3c1,.33,1.94.63,2.92.92,0,.15.06.3.08.45v-.43a68.46,68.46,0,0,0,37.55,0l.23-.07c.57-.16,1.15-.33,1.71-.52l.91-.29a70.5,70.5,0,0,0,7.24-2.9h0l.83-17.88.6-12.77ZM139.1,453.46c0,.15.06.3.08.45v-.43Zm38.58-15.76a8.05,8.05,0,0,0-.07-1.2c-.07-.4-.06-.75-.11-1.13s-.09-.76-.14-1.14-.12-.76-.19-1.14-.14-.76-.22-1.14a2.33,2.33,0,0,0-.08-.38c-.11-.5-.23-1-.36-1.51s-.21-.81-.33-1.21a2,2,0,0,0-.16-.53c-.06-.17-.17-.58-.26-.87l-.18-.56c-.08-.25-.16-.5-.25-.75-.15-.45-.31-.89-.47-1.34s-.33-.89-.5-1.33c-.34-.9-.71-1.79-1.08-2.68-1.45-3.46-3.08-6.87-4.58-10.25a55.13,55.13,0,0,1-2.14-5.43l-.19.27a10.2,10.2,0,0,0-.81,1.44c0,7.87-7.88,17.5-7.88,17.5l-7.93-11.62-6.94,10.67c-1,.53-2,2.35-2.78,4.94-.22.7-.43,1.46-.63,2.27-.14.54-.27,1.11-.39,1.68-.07.29-.13.58-.19.88l-.18.91v.14c-.12.62-.24,1.26-.35,1.91s-.24,1.4-.35,2.11q-.12.69-.21,1.38c-.14.89-.26,1.79-.38,2.68-.07.52-.14,1-.2,1.55l-.24,2c.51,1.64,1.08,3.26,1.67,4.85a7.9,7.9,0,0,1,.65,2.75,68.46,68.46,0,0,0,37.55,0v-.1a11.37,11.37,0,0,1-.24-2.73h0a73.1,73.1,0,0,1,1-7.65,29.5,29.5,0,0,0,.19-3.76v-.45C177.7,438.39,177.69,438,177.68,437.7Zm0,0a8.05,8.05,0,0,0-.07-1.2c-.07-.4-.06-.75-.11-1.13s-.09-.76-.14-1.14-.12-.76-.19-1.14-.14-.76-.22-1.14a2.33,2.33,0,0,0-.08-.38c-.11-.5-.23-1-.36-1.51s-.21-.81-.33-1.21a2,2,0,0,0-.16-.53c-.06-.17-.17-.58-.26-.87l-.18-.56c-.08-.25-.16-.5-.25-.75-.15-.45-.31-.89-.47-1.34s-.33-.89-.5-1.33c-.34-.9-.71-1.79-1.08-2.68-1.45-3.46-3.08-6.87-4.58-10.25a55.13,55.13,0,0,1-2.14-5.43l-.19.27a10.2,10.2,0,0,0-.81,1.44c0,7.87-7.88,17.5-7.88,17.5l-7.93-11.62-6.94,10.67c-1,.53-2,2.35-2.78,4.94-.22.7-.43,1.46-.63,2.27-.14.54-.27,1.11-.39,1.68-.07.29-.13.58-.19.88l-.18.91v.14c-.12.62-.24,1.26-.35,1.91s-.24,1.4-.35,2.11q-.12.69-.21,1.38c-.14.89-.26,1.79-.38,2.68-.07.52-.14,1-.2,1.55l-.24,2c.51,1.64,1.08,3.26,1.67,4.85a7.9,7.9,0,0,1,.65,2.75,68.46,68.46,0,0,0,37.55,0v-.1a11.37,11.37,0,0,1-.24-2.73h0a73.1,73.1,0,0,1,1-7.65,29.5,29.5,0,0,0,.19-3.76v-.45C177.7,438.39,177.69,438,177.68,437.7Zm0,0a8.05,8.05,0,0,0-.07-1.2c-.07-.4-.06-.75-.11-1.13s-.09-.76-.14-1.14-.12-.76-.19-1.14-.14-.76-.22-1.14a2.33,2.33,0,0,0-.08-.38c-.11-.5-.23-1-.36-1.51s-.21-.81-.33-1.21a2,2,0,0,0-.16-.53c-.06-.17-.17-.58-.26-.87l-.18-.56c-.08-.25-.16-.5-.25-.75-.15-.45-.31-.89-.47-1.34s-.33-.89-.5-1.33c-.34-.9-.71-1.79-1.08-2.68-1.45-3.46-3.08-6.87-4.58-10.25a55.13,55.13,0,0,1-2.14-5.43l-.19.27a10.2,10.2,0,0,0-.81,1.44c0,7.87-7.88,17.5-7.88,17.5l-7.93-11.62-6.94,10.67c-1,.53-2,2.35-2.78,4.94-.22.7-.43,1.46-.63,2.27-.14.54-.27,1.11-.39,1.68-.07.29-.13.58-.19.88l-.18.91v.14c-.12.62-.24,1.26-.35,1.91s-.24,1.4-.35,2.11q-.12.69-.21,1.38c-.14.89-.26,1.79-.38,2.68-.07.52-.14,1-.2,1.55l-.24,2c.51,1.64,1.08,3.26,1.67,4.85a7.9,7.9,0,0,1,.65,2.75,68.46,68.46,0,0,0,37.55,0v-.1a11.37,11.37,0,0,1-.24-2.73h0a73.1,73.1,0,0,1,1-7.65,29.5,29.5,0,0,0,.19-3.76v-.45C177.7,438.39,177.69,438,177.68,437.7Zm0,0a8.05,8.05,0,0,0-.07-1.2c-.07-.4-.06-.75-.11-1.13s-.09-.76-.14-1.14-.12-.76-.19-1.14-.14-.76-.22-1.14a2.33,2.33,0,0,0-.08-.38c-.11-.5-.23-1-.36-1.51s-.21-.81-.33-1.21a2,2,0,0,0-.16-.53c-.06-.17-.17-.58-.26-.87l-.18-.56c-.08-.25-.16-.5-.25-.75-.15-.45-.31-.89-.47-1.34s-.33-.89-.5-1.33c-.34-.9-.71-1.79-1.08-2.68-1.45-3.46-3.08-6.87-4.58-10.25a55.13,55.13,0,0,1-2.14-5.43l-.19.27a10.2,10.2,0,0,0-.81,1.44c0,7.87-7.88,17.5-7.88,17.5l-7.93-11.62-6.94,10.67c-1,.53-2,2.35-2.78,4.94-.22.7-.43,1.46-.63,2.27-.14.54-.27,1.11-.39,1.68-.07.29-.13.58-.19.88l-.18.91v.14c-.12.62-.24,1.26-.35,1.91s-.24,1.4-.35,2.11q-.12.69-.21,1.38c-.14.89-.26,1.79-.38,2.68-.07.52-.14,1-.2,1.55l-.24,2c.51,1.64,1.08,3.26,1.67,4.85a7.9,7.9,0,0,1,.65,2.75,68.46,68.46,0,0,0,37.55,0v-.1a11.37,11.37,0,0,1-.24-2.73h0a73.1,73.1,0,0,1,1-7.65,29.5,29.5,0,0,0,.19-3.76v-.45C177.7,438.39,177.69,438,177.68,437.7Zm0,0a8.05,8.05,0,0,0-.07-1.2c-.07-.4-.06-.75-.11-1.13s-.09-.76-.14-1.14-.12-.76-.19-1.14-.14-.76-.22-1.14a2.33,2.33,0,0,0-.08-.38c-.11-.5-.23-1-.36-1.51s-.21-.81-.33-1.21a2,2,0,0,0-.16-.53c-.06-.17-.17-.58-.26-.87l-.18-.56c-.08-.25-.16-.5-.25-.75-.15-.45-.31-.89-.47-1.34s-.33-.89-.5-1.33c-.34-.9-.71-1.79-1.08-2.68-1.45-3.46-3.08-6.87-4.58-10.25a55.13,55.13,0,0,1-2.14-5.43l-.19.27a10.2,10.2,0,0,0-.81,1.44c0,7.87-7.88,17.5-7.88,17.5l-7.93-11.62-6.94,10.67c-1,.53-2,2.35-2.78,4.94-.22.7-.43,1.46-.63,2.27-.14.54-.27,1.11-.39,1.68-.07.29-.13.58-.19.88l-.18.91v.14c-.12.62-.24,1.26-.35,1.91s-.24,1.4-.35,2.11q-.12.69-.21,1.38c-.14.89-.26,1.79-.38,2.68-.07.52-.14,1-.2,1.55l-.24,2c.51,1.64,1.08,3.26,1.67,4.85a7.9,7.9,0,0,1,.65,2.75,68.46,68.46,0,0,0,37.55,0v-.1a11.37,11.37,0,0,1-.24-2.73h0a73.1,73.1,0,0,1,1-7.65,29.5,29.5,0,0,0,.19-3.76v-.45C177.7,438.39,177.69,438,177.68,437.7Zm0,0a8.05,8.05,0,0,0-.07-1.2c-.07-.4-.06-.75-.11-1.13s-.09-.76-.14-1.14-.12-.76-.19-1.14-.14-.76-.22-1.14a2.33,2.33,0,0,0-.08-.38c-.11-.5-.23-1-.36-1.51s-.21-.81-.33-1.21a2,2,0,0,0-.16-.53c-.06-.17-.17-.58-.26-.87l-.18-.56c-.08-.25-.16-.5-.25-.75-.15-.45-.31-.89-.47-1.34s-.33-.89-.5-1.33c-.34-.9-.71-1.79-1.08-2.68-1.45-3.46-3.08-6.87-4.58-10.25a55.13,55.13,0,0,1-2.14-5.43l-.19.27a10.2,10.2,0,0,0-.81,1.44c0,7.87-7.88,17.5-7.88,17.5l-7.93-11.62-6.94,10.67c-1,.53-2,2.35-2.78,4.94-.22.7-.43,1.46-.63,2.27-.14.54-.27,1.11-.39,1.68-.07.29-.13.58-.19.88l-.18.91v.14c-.12.62-.24,1.26-.35,1.91s-.24,1.4-.35,2.11q-.12.69-.21,1.38c-.14.89-.26,1.79-.38,2.68-.07.52-.14,1-.2,1.55l-.24,2c.51,1.64,1.08,3.26,1.67,4.85a7.9,7.9,0,0,1,.65,2.75,68.46,68.46,0,0,0,37.55,0v-.1a11.37,11.37,0,0,1-.24-2.73h0a73.1,73.1,0,0,1,1-7.65,29.5,29.5,0,0,0,.19-3.76v-.45C177.7,438.39,177.69,438,177.68,437.7Zm0,0a8.05,8.05,0,0,0-.07-1.2c-.07-.4-.06-.75-.11-1.13s-.09-.76-.14-1.14-.12-.76-.19-1.14-.14-.76-.22-1.14a2.33,2.33,0,0,0-.08-.38c-.11-.5-.23-1-.36-1.51s-.21-.81-.33-1.21a2,2,0,0,0-.16-.53c-.06-.17-.17-.58-.26-.87l-.18-.56c-.08-.25-.16-.5-.25-.75-.15-.45-.31-.89-.47-1.34s-.33-.89-.5-1.33c-.34-.9-.71-1.79-1.08-2.68-1.45-3.46-3.08-6.87-4.58-10.25a55.13,55.13,0,0,1-2.14-5.43l-.19.27a10.2,10.2,0,0,0-.81,1.44c0,7.87-7.88,17.5-7.88,17.5l-7.93-11.62-6.94,10.67c-1,.53-2,2.35-2.78,4.94-.22.7-.43,1.46-.63,2.27-.14.54-.27,1.11-.39,1.68-.07.29-.13.58-.19.88l-.18.91v.14c-.12.62-.24,1.26-.35,1.91s-.24,1.4-.35,2.11q-.12.69-.21,1.38c-.14.89-.26,1.79-.38,2.68-.07.52-.14,1-.2,1.55l-.24,2c.51,1.64,1.08,3.26,1.67,4.85a7.9,7.9,0,0,1,.65,2.75,68.46,68.46,0,0,0,37.55,0v-.1a11.37,11.37,0,0,1-.24-2.73h0a73.1,73.1,0,0,1,1-7.65,29.5,29.5,0,0,0,.19-3.76v-.45C177.7,438.39,177.69,438,177.68,437.7Zm0,0a8.05,8.05,0,0,0-.07-1.2c-.07-.4-.06-.75-.11-1.13s-.09-.76-.14-1.14-.12-.76-.19-1.14-.14-.76-.22-1.14a2.33,2.33,0,0,0-.08-.38c-.11-.5-.23-1-.36-1.51s-.21-.81-.33-1.21a2,2,0,0,0-.16-.53c-.06-.17-.17-.58-.26-.87l-.18-.56c-.08-.25-.16-.5-.25-.75-.15-.45-.31-.89-.47-1.34s-.33-.89-.5-1.33c-.34-.9-.71-1.79-1.08-2.68-1.45-3.46-3.08-6.87-4.58-10.25a55.13,55.13,0,0,1-2.14-5.43l-.19.27a10.2,10.2,0,0,0-.81,1.44c0,7.87-7.88,17.5-7.88,17.5l-7.93-11.62-6.94,10.67c-1,.53-2,2.35-2.78,4.94-.22.7-.43,1.46-.63,2.27-.14.54-.27,1.11-.39,1.68-.07.29-.13.58-.19.88l-.18.91v.14c-.12.62-.24,1.26-.35,1.91s-.24,1.4-.35,2.11q-.12.69-.21,1.38c-.14.89-.26,1.79-.38,2.68-.07.52-.14,1-.2,1.55l-.24,2c.51,1.64,1.08,3.26,1.67,4.85a7.9,7.9,0,0,1,.65,2.75,68.46,68.46,0,0,0,37.55,0v-.1a11.37,11.37,0,0,1-.24-2.73h0a73.1,73.1,0,0,1,1-7.65,29.5,29.5,0,0,0,.19-3.76v-.45C177.7,438.39,177.69,438,177.68,437.7Z"/><path class="cls-11" d="M149.89,412.07l-.67-.09a24.88,24.88,0,0,1-3-.6l-.37-.1c-2.44-.69-5.11-1.93-5.71-4.11a3.86,3.86,0,0,1,.06-2.13,17.92,17.92,0,0,1,1.38-3.44v-.06a3.37,3.37,0,0,1,.25-.45,10,10,0,0,1,3.61-3.93l-1.2.19h0L134.08,399l-15.75,2.54s-2.8-.56-6.61,9.94a1.63,1.63,0,0,1-.13.39c-.92,2.57-1.89,5.78-2.89,9.79-.69,2.78-1.32,5.51-1.9,8.16-.17.8-.34,1.59-.5,2.37a62.1,62.1,0,0,0,5.81,6l.33.31a68.31,68.31,0,0,0,13.32,9.43l.19.1a65.68,65.68,0,0,0,9.4,4.16l.85.3c.18-1.85.38-3.9.62-6a1.5,1.5,0,0,1,.08-.63l.24-2c.06-.51.13-1,.2-1.55.12-.89.24-1.79.38-2.68q.09-.69.21-1.38c.11-.71.23-1.42.35-2.11s.23-1.29.35-1.91v-.14l.18-.91c.06-.3.12-.59.19-.88.12-.57.25-1.14.39-1.68.2-.81.41-1.57.63-2.27.8-2.59,1.73-4.41,2.78-4.94l6.92-10.71.29-.45.13-.2Z"/><path class="cls-12" d="M149.3,412.09l-7.37,11.32c-1,.51-1.94,2.28-2.73,4.79-.23.74-.46,1.55-.68,2.4a116.44,116.44,0,0,0-2.26,13.1,1.74,1.74,0,0,1-.08.6c-.34,2.78-.62,5.51-.85,7.92a65.68,65.68,0,0,1-9.4-4.16l-.19-.1a68.62,68.62,0,0,1-13.32-9.43l-.33-.31a62.1,62.1,0,0,1-5.81-6c-.24-.27-.47-.55-.7-.83.11-.52.22-1,.34-1.56.57-2.65,1.2-5.37,1.89-8.14a97,97,0,0,1,3.4-11.2,2.15,2.15,0,0,1,.13-.32c3.54-9.11,6.09-8.6,6.09-8.6l16.63-2.68,10.5-1.7-.33.19h0a10.48,10.48,0,0,0-2.89,3.08l-.29.49c-.12.19-.23.4-.35.61a17,17,0,0,0-1.38,3.5,3.65,3.65,0,0,0,.24,2.86c1,1.94,3.84,3,6.17,3.58l.39.1A26,26,0,0,0,149.3,412.09Z"/><path class="cls-11" d="M207.09,432.3l-.41-8.88c1.75-14-1.75-14.87-1.75-14.87l-4.16-2h-.11l-16.73-8.11-.65-.32-.2-.09h0L180.9,397h0l-1.38-.67-2.58-1.25-.87-.42v3.47c0,1,.09,2.17.17,3.53.18,3.42.51,8,1.1,13.4.33,3.13.75,6.55,1.27,10.22.31,2.17.53,4.33.67,6.44a113.14,113.14,0,0,1-.66,21.3l1-.29a70.5,70.5,0,0,0,7.24-2.9h0a67,67,0,0,0,12.9-7.92l.18-.13a68.63,68.63,0,0,0,7.26-6.59Z"/><path class="cls-12" d="M208,432.3l-.41-8.9c1.75-14-1.75-14.87-1.75-14.87l-5-2.42h-.1L183.93,398l-.77-.37-.15-.07-1.23-.6-1.63-.79-3.22-1.56V396h0v1.76c0,1,.09,2.31.18,3.8.17,3.19.47,7.37,1,12.34.36,3.41.81,7.2,1.4,11.28.31,2.18.53,4.33.66,6.47a114.21,114.21,0,0,1-.62,21,70.5,70.5,0,0,0,7.24-2.9h0a67,67,0,0,0,12.9-7.92l.18-.13a68.63,68.63,0,0,0,7.26-6.59l.84-.9Z"/><path class="cls-11" d="M137.26,341.24c-1,1.38-.92,3.28-1.37,5-1.07,3.91-5.31,6.36-6.28,10.3-.57,2.3.09,4.74-.3,7.08-.71,4.31-4.65,7.23-6.85,11a14.82,14.82,0,0,0-.91,12.9,21.16,21.16,0,0,1,1.27,3.26,12.05,12.05,0,0,1-.31,5c-.75,3.56-1.52,7.48.2,10.69,1.45,2.71,4.46,4.3,7.49,4.8a29.41,29.41,0,0,0,9.17-.42c3.31-.51,6.7-1.1,9.58-2.8l-10.83-26.14c-1.09-2.64-2.21-5.37-2.2-8.23a18,18,0,0,1,1.35-6.14,53.05,53.05,0,0,1,9-15.55c1.57,1.82,1.45,4.59,2.76,6.61a10.51,10.51,0,0,0,4.46,3.33,149.43,149.43,0,0,0,15.79,6.6,2.08,2.08,0,0,1,1.8,2.31h0a2.34,2.34,0,0,1-.26.77l-4.08,16.84c-.9,3.71-1.69,8,.62,11s7.52,4.42,7.55,8.29a14.12,14.12,0,0,0,0,1.84c.27,1.81,2.42,2.68,4.25,2.77A12.68,12.68,0,0,0,191.87,402c1-6.62-3.38-12.72-5.21-19.17-3.08-10.85,1-23.58-5-33.11-4.9-7.73-13.83-9.83-22.31-10.79C153.35,338.21,141.45,335.7,137.26,341.24Z"/><path class="cls-9" d="M137.26,340.24c-1,1.38-.92,3.28-1.37,5-1.07,3.91-5.31,6.36-6.28,10.3-.57,2.3.09,4.74-.3,7.08-.71,4.31-4.65,7.23-6.85,11a14.82,14.82,0,0,0-.91,12.9,21.16,21.16,0,0,1,1.27,3.26,12.05,12.05,0,0,1-.31,5c-.75,3.56-1.52,7.48.2,10.69,1.45,2.71,4.46,4.3,7.49,4.8a29.41,29.41,0,0,0,9.17-.42c3.31-.51,6.7-1.1,9.58-2.8l-10.83-26.14c-1.09-2.64-2.21-5.37-2.2-8.23a18,18,0,0,1,1.35-6.14,53.05,53.05,0,0,1,9-15.55c1.57,1.82,1.45,4.59,2.76,6.61a10.51,10.51,0,0,0,4.46,3.33,149.43,149.43,0,0,0,15.79,6.6,2.08,2.08,0,0,1,1.8,2.31h0a2.34,2.34,0,0,1-.26.77l-4.08,16.84c-.9,3.71-1.69,8,.62,11s7.52,4.42,7.55,8.29a14.12,14.12,0,0,0,0,1.84c.27,1.81,2.42,2.68,4.25,2.77A12.68,12.68,0,0,0,191.87,401c1-6.62-3.38-12.72-5.21-19.17-3.08-10.85,1-23.58-5-33.11-4.9-7.73-13.83-9.83-22.31-10.79C153.35,337.21,141.45,334.7,137.26,340.24Z"/></g><g class="cls-7"><path class="cls-3" d="M226,629.1a67.76,67.76,0,0,1-16.37,44.25c-.52.61-1.06,1.21-1.61,1.8l-.84.9a68.63,68.63,0,0,1-7.26,6.59l-.18.13a66.54,66.54,0,0,1-12.9,7.93h0a70.5,70.5,0,0,1-7.24,2.9l-.91.29c-.56.19-1.14.36-1.71.52l-.23.07a68.46,68.46,0,0,1-37.55,0h-.1c-1-.29-2-.59-2.92-.92l-.85-.3a65.68,65.68,0,0,1-9.4-4.16l-.19-.1a68.31,68.31,0,0,1-13.32-9.43l-.33-.31a62.1,62.1,0,0,1-5.81-6c-.24-.27-.47-.55-.7-.83-.44-.52-.86-1.06-1.28-1.6A68,68,0,1,1,226,629.11Z"/><path class="cls-13" d="M208,672.92l-.41-9c1.75-14.23-1.75-15.12-1.75-15.12l-5-2.46h-.1l-16.78-8.27-.77-.38-.1-.41s.33-1-1.33-1.17a6,6,0,0,1-.42-2.55c.17-1.92,1.62-3.43,2.75-5A20.57,20.57,0,0,0,187.35,614a34.42,34.42,0,0,0-5.58-14.08l-.32-.47A16.93,16.93,0,0,0,182,595c0-11.51-11.64-20.84-26-20.84-13,0-23.83,7.69-25.71,17.72a8.12,8.12,0,0,0-.79,1.24c-2.64,4.94,1.44,8.63,1.57,13.56.09,3.4-2.19,6.31-4,9.19s-3.15,6.71-1.29,9.55c.61.94,1.53,1.65,2.08,2.63,1.93,3.41-1.28,7.32-2.45,11.06a8.87,8.87,0,0,0-.32,1.33l-7.72,1.24s-2.55-.52-6.09,8.74a1.51,1.51,0,0,0-.13.33,98.63,98.63,0,0,0-3.4,11.39q-1,4.23-1.89,8.27c-.12.53-.23,1.06-.34,1.59.23.28.46.57.7.84a63.4,63.4,0,0,0,5.81,6.12l.33.32a68.07,68.07,0,0,0,13.32,9.59l.19.1a65.54,65.54,0,0,0,9.4,4.23l.85.3c1,.34,1.94.64,2.92.94,0,.15.06.31.08.46v-.44a67.35,67.35,0,0,0,37.55,0l.23-.07c.57-.16,1.15-.34,1.71-.53l.91-.29a68.12,68.12,0,0,0,7.24-3h0a66.27,66.27,0,0,0,12.9-8l.18-.13a68.61,68.61,0,0,0,7.26-6.7c.29-.3.57-.6.84-.91Z"/><path class="cls-12" d="M131.11,608.09c.09,3.35-2.19,6.21-4,9s-3.15,6.6-1.29,9.39c.61.92,1.53,1.63,2.08,2.59,1.93,3.35-1.28,7.2-2.45,10.88-1.35,4.25.22,9,3.06,12.45s6.76,5.78,10.72,7.83a96.13,96.13,0,0,0,26.52,9.47c4.84.89,10,1.29,14.54-.65a15.48,15.48,0,0,0,8.73-17c-1.15-5.26-5-9.49-7-14.46a6.64,6.64,0,0,1-.66-3.13c.17-1.89,1.62-3.37,2.75-4.9a20,20,0,0,0,3.24-14.23,33.46,33.46,0,0,0-5.58-13.86,15.15,15.15,0,0,0-4-4.4c-2.18-1.47-4.88-1.89-7.48-2.26-10.86-1.52-22.11-3.18-33.06-3.74-3.46-.18-6,.5-7.71,3.74C126.91,599.61,131,603.24,131.11,608.09Z"/><path class="cls-10" d="M187,642.1l-20.61,29.31-20.12-1.71s-.66,7-8.75-18.37c-4.52-14.19,4.67-9.26,6.48-13.19s5-7.4,5.27-10.3c.64-6.22-1.25-9.76-1.25-9.76l21.87-2.62a16.22,16.22,0,0,0-.36,9.13C172.31,635.93,187,642.1,187,642.1Z"/><ellipse class="cls-12" cx="156.04" cy="596.61" rx="26" ry="20.5"/><path class="cls-11" d="M169.58,624.54a21.9,21.9,0,0,1-20.26,3.26c.64-6.22-1.25-9.76-1.25-9.76l21.87-2.62A16.18,16.18,0,0,0,169.58,624.54Z"/><circle class="cls-10" cx="156.37" cy="606.23" r="21.87"/><path class="cls-11" d="M184.88,645.42l-.51-2-.44-1.76-.65-2.6-.12-.48-.1-.4s.52-1.57-2.91-1.06l-.64.11c-.54.11-1.17.26-1.89.46l-.65.2-.86.27h0a18.54,18.54,0,0,0-7.26,4.38,15.9,15.9,0,0,0-2.43,2.94l-.18.27a8.68,8.68,0,0,0-.63,1.16c0,7.88-7.88,17.5-7.88,17.5L150,653.3l-.15-.22-1.83-2.66-.65-.86-.22-.3-4-5.37-1-1.34-.33-.45-.49-.65-1.15-1.53-4.5,2.63-6,3.5-3.5,22.75v.63l.11,1.88.73,12.36v.17L125.78,689l.19.1a65.68,65.68,0,0,0,9.4,4.16l.85.3c1,.33,1.94.63,2.92.92,0,.15.06.3.08.45v-.43a68.46,68.46,0,0,0,37.55,0l.23-.07c.57-.16,1.15-.33,1.71-.52l.91-.29a70.5,70.5,0,0,0,7.24-2.9l.84-17.9.6-12.91v-.74Z"/><path class="cls-12" d="M177.68,678.7a8.05,8.05,0,0,0-.07-1.2c-.07-.4-.06-.75-.11-1.13s-.09-.76-.14-1.14-.12-.76-.19-1.14-.14-.76-.22-1.14a2.33,2.33,0,0,0-.08-.38c-.11-.5-.23-1-.36-1.51s-.21-.81-.33-1.21a2,2,0,0,0-.16-.53c-.06-.17-.17-.58-.26-.87l-.18-.56c-.08-.25-.16-.5-.25-.75-.15-.45-.31-.89-.47-1.34s-.33-.89-.5-1.33c-.34-.9-.71-1.79-1.08-2.68-1.45-3.46-3.08-6.87-4.58-10.25a55.13,55.13,0,0,1-2.14-5.43l-.19.27a10.2,10.2,0,0,0-.81,1.44c0,7.87-7.88,17.5-7.88,17.5l-7.93-11.62-6.94,10.67c-1,.53-2,2.35-2.78,4.94-.22.7-.43,1.46-.63,2.27-.14.54-.27,1.11-.39,1.68-.07.29-.13.58-.19.88l-.18.91v.14c-.12.62-.24,1.26-.35,1.91s-.24,1.4-.35,2.11q-.12.69-.21,1.38c-.14.89-.26,1.79-.38,2.68-.07.52-.14,1-.2,1.55l-.24,2c.51,1.64,1.08,3.26,1.67,4.85a7.9,7.9,0,0,1,.65,2.75,68.46,68.46,0,0,0,37.55,0v-.1a11.37,11.37,0,0,1-.24-2.73h0a73.1,73.1,0,0,1,1-7.65,29.5,29.5,0,0,0,.19-3.76v-.45C177.7,679.39,177.69,679,177.68,678.7Zm0,0a8.05,8.05,0,0,0-.07-1.2c-.07-.4-.06-.75-.11-1.13s-.09-.76-.14-1.14-.12-.76-.19-1.14-.14-.76-.22-1.14a2.33,2.33,0,0,0-.08-.38c-.11-.5-.23-1-.36-1.51s-.21-.81-.33-1.21a2,2,0,0,0-.16-.53c-.06-.17-.17-.58-.26-.87l-.18-.56c-.08-.25-.16-.5-.25-.75-.15-.45-.31-.89-.47-1.34s-.33-.89-.5-1.33c-.34-.9-.71-1.79-1.08-2.68-1.45-3.46-3.08-6.87-4.58-10.25a55.13,55.13,0,0,1-2.14-5.43l-.19.27a10.2,10.2,0,0,0-.81,1.44c0,7.87-7.88,17.5-7.88,17.5l-7.93-11.62-6.94,10.67c-1,.53-2,2.35-2.78,4.94-.22.7-.43,1.46-.63,2.27-.14.54-.27,1.11-.39,1.68-.07.29-.13.58-.19.88l-.18.91v.14c-.12.62-.24,1.26-.35,1.91s-.24,1.4-.35,2.11q-.12.69-.21,1.38c-.14.89-.26,1.79-.38,2.68-.07.52-.14,1-.2,1.55l-.24,2c.51,1.64,1.08,3.26,1.67,4.85a7.9,7.9,0,0,1,.65,2.75,68.46,68.46,0,0,0,37.55,0v-.1a11.37,11.37,0,0,1-.24-2.73h0a73.1,73.1,0,0,1,1-7.65,29.5,29.5,0,0,0,.19-3.76v-.45C177.7,679.39,177.69,679,177.68,678.7Zm0,0a8.05,8.05,0,0,0-.07-1.2c-.07-.4-.06-.75-.11-1.13s-.09-.76-.14-1.14-.12-.76-.19-1.14-.14-.76-.22-1.14a2.33,2.33,0,0,0-.08-.38c-.11-.5-.23-1-.36-1.51s-.21-.81-.33-1.21a2,2,0,0,0-.16-.53c-.06-.17-.17-.58-.26-.87l-.18-.56c-.08-.25-.16-.5-.25-.75-.15-.45-.31-.89-.47-1.34s-.33-.89-.5-1.33c-.34-.9-.71-1.79-1.08-2.68-1.45-3.46-3.08-6.87-4.58-10.25a55.13,55.13,0,0,1-2.14-5.43l-.19.27a10.2,10.2,0,0,0-.81,1.44c0,7.87-7.88,17.5-7.88,17.5l-7.93-11.62-6.94,10.67c-1,.53-2,2.35-2.78,4.94-.22.7-.43,1.46-.63,2.27-.14.54-.27,1.11-.39,1.68-.07.29-.13.58-.19.88l-.18.91v.14c-.12.62-.24,1.26-.35,1.91s-.24,1.4-.35,2.11q-.12.69-.21,1.38c-.14.89-.26,1.79-.38,2.68-.07.52-.14,1-.2,1.55l-.24,2c.51,1.64,1.08,3.26,1.67,4.85a7.9,7.9,0,0,1,.65,2.75,68.46,68.46,0,0,0,37.55,0v-.1a11.37,11.37,0,0,1-.24-2.73h0a73.1,73.1,0,0,1,1-7.65,29.5,29.5,0,0,0,.19-3.76v-.45C177.7,679.39,177.69,679,177.68,678.7Zm10.6-18.77-3.57-14.23-.61-2.44-.17-.67h0l-.87-3.48V639h0a.87.87,0,0,0-.07-.45c-.13-.26-.46-.53-1.23-.6a6.46,6.46,0,0,0-.88,0h0a14,14,0,0,0-2.57.48c-.41.11-.85.23-1.32.38l-.86.27h-.08a18.94,18.94,0,0,0-6.3,3.5,16.32,16.32,0,0,0-3.2,3.54l-.19.27a10.2,10.2,0,0,0-.81,1.44c0,7.87-7.88,17.5-7.88,17.5l-7.93-11.55-.45-.65-.08-.11-1.15-1.69-.87-1.16-.23-.3-4.1-5.47h0l-1.28-1.82v-.06l-.45-.61-.86-1.14-3,1.75-7.5,4.37-3.46,22.51v.28l.1,1.64.74,12.53v.71L126,689.09a65.68,65.68,0,0,0,9.4,4.16l.85.3c1,.33,1.94.63,2.92.92,0,.15.06.3.08.45v-.43a68.46,68.46,0,0,0,37.55,0l.23-.07c.57-.16,1.15-.33,1.71-.52l.91-.29a70.5,70.5,0,0,0,7.24-2.9h0l.83-17.88.6-12.77ZM139.1,694.46c0,.15.06.3.08.45v-.43Zm38.58-15.76a8.05,8.05,0,0,0-.07-1.2c-.07-.4-.06-.75-.11-1.13s-.09-.76-.14-1.14-.12-.76-.19-1.14-.14-.76-.22-1.14a2.33,2.33,0,0,0-.08-.38c-.11-.5-.23-1-.36-1.51s-.21-.81-.33-1.21a2,2,0,0,0-.16-.53c-.06-.17-.17-.58-.26-.87l-.18-.56c-.08-.25-.16-.5-.25-.75-.15-.45-.31-.89-.47-1.34s-.33-.89-.5-1.33c-.34-.9-.71-1.79-1.08-2.68-1.45-3.46-3.08-6.87-4.58-10.25a55.13,55.13,0,0,1-2.14-5.43l-.19.27a10.2,10.2,0,0,0-.81,1.44c0,7.87-7.88,17.5-7.88,17.5l-7.93-11.62-6.94,10.67c-1,.53-2,2.35-2.78,4.94-.22.7-.43,1.46-.63,2.27-.14.54-.27,1.11-.39,1.68-.07.29-.13.58-.19.88l-.18.91v.14c-.12.62-.24,1.26-.35,1.91s-.24,1.4-.35,2.11q-.12.69-.21,1.38c-.14.89-.26,1.79-.38,2.68-.07.52-.14,1-.2,1.55l-.24,2c.51,1.64,1.08,3.26,1.67,4.85a7.9,7.9,0,0,1,.65,2.75,68.46,68.46,0,0,0,37.55,0v-.1a11.37,11.37,0,0,1-.24-2.73h0a73.1,73.1,0,0,1,1-7.65,29.5,29.5,0,0,0,.19-3.76v-.45C177.7,679.39,177.69,679,177.68,678.7Zm0,0a8.05,8.05,0,0,0-.07-1.2c-.07-.4-.06-.75-.11-1.13s-.09-.76-.14-1.14-.12-.76-.19-1.14-.14-.76-.22-1.14a2.33,2.33,0,0,0-.08-.38c-.11-.5-.23-1-.36-1.51s-.21-.81-.33-1.21a2,2,0,0,0-.16-.53c-.06-.17-.17-.58-.26-.87l-.18-.56c-.08-.25-.16-.5-.25-.75-.15-.45-.31-.89-.47-1.34s-.33-.89-.5-1.33c-.34-.9-.71-1.79-1.08-2.68-1.45-3.46-3.08-6.87-4.58-10.25a55.13,55.13,0,0,1-2.14-5.43l-.19.27a10.2,10.2,0,0,0-.81,1.44c0,7.87-7.88,17.5-7.88,17.5l-7.93-11.62-6.94,10.67c-1,.53-2,2.35-2.78,4.94-.22.7-.43,1.46-.63,2.27-.14.54-.27,1.11-.39,1.68-.07.29-.13.58-.19.88l-.18.91v.14c-.12.62-.24,1.26-.35,1.91s-.24,1.4-.35,2.11q-.12.69-.21,1.38c-.14.89-.26,1.79-.38,2.68-.07.52-.14,1-.2,1.55l-.24,2c.51,1.64,1.08,3.26,1.67,4.85a7.9,7.9,0,0,1,.65,2.75,68.46,68.46,0,0,0,37.55,0v-.1a11.37,11.37,0,0,1-.24-2.73h0a73.1,73.1,0,0,1,1-7.65,29.5,29.5,0,0,0,.19-3.76v-.45C177.7,679.39,177.69,679,177.68,678.7Zm0,0a8.05,8.05,0,0,0-.07-1.2c-.07-.4-.06-.75-.11-1.13s-.09-.76-.14-1.14-.12-.76-.19-1.14-.14-.76-.22-1.14a2.33,2.33,0,0,0-.08-.38c-.11-.5-.23-1-.36-1.51s-.21-.81-.33-1.21a2,2,0,0,0-.16-.53c-.06-.17-.17-.58-.26-.87l-.18-.56c-.08-.25-.16-.5-.25-.75-.15-.45-.31-.89-.47-1.34s-.33-.89-.5-1.33c-.34-.9-.71-1.79-1.08-2.68-1.45-3.46-3.08-6.87-4.58-10.25a55.13,55.13,0,0,1-2.14-5.43l-.19.27a10.2,10.2,0,0,0-.81,1.44c0,7.87-7.88,17.5-7.88,17.5l-7.93-11.62-6.94,10.67c-1,.53-2,2.35-2.78,4.94-.22.7-.43,1.46-.63,2.27-.14.54-.27,1.11-.39,1.68-.07.29-.13.58-.19.88l-.18.91v.14c-.12.62-.24,1.26-.35,1.91s-.24,1.4-.35,2.11q-.12.69-.21,1.38c-.14.89-.26,1.79-.38,2.68-.07.52-.14,1-.2,1.55l-.24,2c.51,1.64,1.08,3.26,1.67,4.85a7.9,7.9,0,0,1,.65,2.75,68.46,68.46,0,0,0,37.55,0v-.1a11.37,11.37,0,0,1-.24-2.73h0a73.1,73.1,0,0,1,1-7.65,29.5,29.5,0,0,0,.19-3.76v-.45C177.7,679.39,177.69,679,177.68,678.7Zm0,0a8.05,8.05,0,0,0-.07-1.2c-.07-.4-.06-.75-.11-1.13s-.09-.76-.14-1.14-.12-.76-.19-1.14-.14-.76-.22-1.14a2.33,2.33,0,0,0-.08-.38c-.11-.5-.23-1-.36-1.51s-.21-.81-.33-1.21a2,2,0,0,0-.16-.53c-.06-.17-.17-.58-.26-.87l-.18-.56c-.08-.25-.16-.5-.25-.75-.15-.45-.31-.89-.47-1.34s-.33-.89-.5-1.33c-.34-.9-.71-1.79-1.08-2.68-1.45-3.46-3.08-6.87-4.58-10.25a55.13,55.13,0,0,1-2.14-5.43l-.19.27a10.2,10.2,0,0,0-.81,1.44c0,7.87-7.88,17.5-7.88,17.5l-7.93-11.62-6.94,10.67c-1,.53-2,2.35-2.78,4.94-.22.7-.43,1.46-.63,2.27-.14.54-.27,1.11-.39,1.68-.07.29-.13.58-.19.88l-.18.91v.14c-.12.62-.24,1.26-.35,1.91s-.24,1.4-.35,2.11q-.12.69-.21,1.38c-.14.89-.26,1.79-.38,2.68-.07.52-.14,1-.2,1.55l-.24,2c.51,1.64,1.08,3.26,1.67,4.85a7.9,7.9,0,0,1,.65,2.75,68.46,68.46,0,0,0,37.55,0v-.1a11.37,11.37,0,0,1-.24-2.73h0a73.1,73.1,0,0,1,1-7.65,29.5,29.5,0,0,0,.19-3.76v-.45C177.7,679.39,177.69,679,177.68,678.7Zm0,0a8.05,8.05,0,0,0-.07-1.2c-.07-.4-.06-.75-.11-1.13s-.09-.76-.14-1.14-.12-.76-.19-1.14-.14-.76-.22-1.14a2.33,2.33,0,0,0-.08-.38c-.11-.5-.23-1-.36-1.51s-.21-.81-.33-1.21a2,2,0,0,0-.16-.53c-.06-.17-.17-.58-.26-.87l-.18-.56c-.08-.25-.16-.5-.25-.75-.15-.45-.31-.89-.47-1.34s-.33-.89-.5-1.33c-.34-.9-.71-1.79-1.08-2.68-1.45-3.46-3.08-6.87-4.58-10.25a55.13,55.13,0,0,1-2.14-5.43l-.19.27a10.2,10.2,0,0,0-.81,1.44c0,7.87-7.88,17.5-7.88,17.5l-7.93-11.62-6.94,10.67c-1,.53-2,2.35-2.78,4.94-.22.7-.43,1.46-.63,2.27-.14.54-.27,1.11-.39,1.68-.07.29-.13.58-.19.88l-.18.91v.14c-.12.62-.24,1.26-.35,1.91s-.24,1.4-.35,2.11q-.12.69-.21,1.38c-.14.89-.26,1.79-.38,2.68-.07.52-.14,1-.2,1.55l-.24,2c.51,1.64,1.08,3.26,1.67,4.85a7.9,7.9,0,0,1,.65,2.75,68.46,68.46,0,0,0,37.55,0v-.1a11.37,11.37,0,0,1-.24-2.73h0a73.1,73.1,0,0,1,1-7.65,29.5,29.5,0,0,0,.19-3.76v-.45C177.7,679.39,177.69,679,177.68,678.7Zm0,0a8.05,8.05,0,0,0-.07-1.2c-.07-.4-.06-.75-.11-1.13s-.09-.76-.14-1.14-.12-.76-.19-1.14-.14-.76-.22-1.14a2.33,2.33,0,0,0-.08-.38c-.11-.5-.23-1-.36-1.51s-.21-.81-.33-1.21a2,2,0,0,0-.16-.53c-.06-.17-.17-.58-.26-.87l-.18-.56c-.08-.25-.16-.5-.25-.75-.15-.45-.31-.89-.47-1.34s-.33-.89-.5-1.33c-.34-.9-.71-1.79-1.08-2.68-1.45-3.46-3.08-6.87-4.58-10.25a55.13,55.13,0,0,1-2.14-5.43l-.19.27a10.2,10.2,0,0,0-.81,1.44c0,7.87-7.88,17.5-7.88,17.5l-7.93-11.62-6.94,10.67c-1,.53-2,2.35-2.78,4.94-.22.7-.43,1.46-.63,2.27-.14.54-.27,1.11-.39,1.68-.07.29-.13.58-.19.88l-.18.91v.14c-.12.62-.24,1.26-.35,1.91s-.24,1.4-.35,2.11q-.12.69-.21,1.38c-.14.89-.26,1.79-.38,2.68-.07.52-.14,1-.2,1.55l-.24,2c.51,1.64,1.08,3.26,1.67,4.85a7.9,7.9,0,0,1,.65,2.75,68.46,68.46,0,0,0,37.55,0v-.1a11.37,11.37,0,0,1-.24-2.73h0a73.1,73.1,0,0,1,1-7.65,29.5,29.5,0,0,0,.19-3.76v-.45C177.7,679.39,177.69,679,177.68,678.7Zm0,0a8.05,8.05,0,0,0-.07-1.2c-.07-.4-.06-.75-.11-1.13s-.09-.76-.14-1.14-.12-.76-.19-1.14-.14-.76-.22-1.14a2.33,2.33,0,0,0-.08-.38c-.11-.5-.23-1-.36-1.51s-.21-.81-.33-1.21a2,2,0,0,0-.16-.53c-.06-.17-.17-.58-.26-.87l-.18-.56c-.08-.25-.16-.5-.25-.75-.15-.45-.31-.89-.47-1.34s-.33-.89-.5-1.33c-.34-.9-.71-1.79-1.08-2.68-1.45-3.46-3.08-6.87-4.58-10.25a55.13,55.13,0,0,1-2.14-5.43l-.19.27a10.2,10.2,0,0,0-.81,1.44c0,7.87-7.88,17.5-7.88,17.5l-7.93-11.62-6.94,10.67c-1,.53-2,2.35-2.78,4.94-.22.7-.43,1.46-.63,2.27-.14.54-.27,1.11-.39,1.68-.07.29-.13.58-.19.88l-.18.91v.14c-.12.62-.24,1.26-.35,1.91s-.24,1.4-.35,2.11q-.12.69-.21,1.38c-.14.89-.26,1.79-.38,2.68-.07.52-.14,1-.2,1.55l-.24,2c.51,1.64,1.08,3.26,1.67,4.85a7.9,7.9,0,0,1,.65,2.75,68.46,68.46,0,0,0,37.55,0v-.1a11.37,11.37,0,0,1-.24-2.73h0a73.1,73.1,0,0,1,1-7.65,29.5,29.5,0,0,0,.19-3.76v-.45C177.7,679.39,177.69,679,177.68,678.7Zm0,0a8.05,8.05,0,0,0-.07-1.2c-.07-.4-.06-.75-.11-1.13s-.09-.76-.14-1.14-.12-.76-.19-1.14-.14-.76-.22-1.14a2.33,2.33,0,0,0-.08-.38c-.11-.5-.23-1-.36-1.51s-.21-.81-.33-1.21a2,2,0,0,0-.16-.53c-.06-.17-.17-.58-.26-.87l-.18-.56c-.08-.25-.16-.5-.25-.75-.15-.45-.31-.89-.47-1.34s-.33-.89-.5-1.33c-.34-.9-.71-1.79-1.08-2.68-1.45-3.46-3.08-6.87-4.58-10.25a55.13,55.13,0,0,1-2.14-5.43l-.19.27a10.2,10.2,0,0,0-.81,1.44c0,7.87-7.88,17.5-7.88,17.5l-7.93-11.62-6.94,10.67c-1,.53-2,2.35-2.78,4.94-.22.7-.43,1.46-.63,2.27-.14.54-.27,1.11-.39,1.68-.07.29-.13.58-.19.88l-.18.91v.14c-.12.62-.24,1.26-.35,1.91s-.24,1.4-.35,2.11q-.12.69-.21,1.38c-.14.89-.26,1.79-.38,2.68-.07.52-.14,1-.2,1.55l-.24,2c.51,1.64,1.08,3.26,1.67,4.85a7.9,7.9,0,0,1,.65,2.75,68.46,68.46,0,0,0,37.55,0v-.1a11.37,11.37,0,0,1-.24-2.73h0a73.1,73.1,0,0,1,1-7.65,29.5,29.5,0,0,0,.19-3.76v-.45C177.7,679.39,177.69,679,177.68,678.7Z"/><path class="cls-11" d="M149.89,653.07l-.67-.09a24.88,24.88,0,0,1-3-.6l-.37-.1c-2.44-.69-5.11-1.93-5.71-4.11a3.86,3.86,0,0,1,.06-2.13,17.92,17.92,0,0,1,1.38-3.44v-.06a3.37,3.37,0,0,1,.25-.45,10,10,0,0,1,3.61-3.93l-1.2.19h0L134.08,640l-15.75,2.54s-2.8-.56-6.61,9.94a1.63,1.63,0,0,1-.13.39c-.92,2.57-1.89,5.78-2.89,9.79-.69,2.78-1.32,5.51-1.9,8.16-.17.8-.34,1.59-.5,2.37a62.1,62.1,0,0,0,5.81,6l.33.31a68.31,68.31,0,0,0,13.32,9.43l.19.1a65.68,65.68,0,0,0,9.4,4.16l.85.3c.18-1.85.38-3.9.62-6a1.5,1.5,0,0,1,.08-.63l.24-2c.06-.51.13-1,.2-1.55.12-.89.24-1.79.38-2.68q.09-.69.21-1.38c.11-.71.23-1.42.35-2.11s.23-1.29.35-1.91v-.14l.18-.91c.06-.3.12-.59.19-.88.12-.57.25-1.14.39-1.68.2-.81.41-1.57.63-2.27.8-2.59,1.73-4.41,2.78-4.94l6.92-10.71.29-.45.13-.2Z"/><path class="cls-14" d="M149.3,653.09l-7.37,11.32c-1,.51-1.94,2.28-2.73,4.79-.23.74-.46,1.55-.68,2.4a116.44,116.44,0,0,0-2.26,13.1,1.74,1.74,0,0,1-.08.6c-.34,2.78-.62,5.51-.85,7.92a65.68,65.68,0,0,1-9.4-4.16l-.19-.1a68.62,68.62,0,0,1-13.32-9.43l-.33-.31a62.1,62.1,0,0,1-5.81-6c-.24-.27-.47-.55-.7-.83.11-.52.22-1,.34-1.56.57-2.65,1.2-5.37,1.89-8.14a97,97,0,0,1,3.4-11.2,2.15,2.15,0,0,1,.13-.32c3.54-9.11,6.09-8.6,6.09-8.6l16.63-2.68,10.5-1.7-.33.19h0a10.48,10.48,0,0,0-2.89,3.08l-.29.49c-.12.19-.23.4-.35.61a17,17,0,0,0-1.38,3.5,3.65,3.65,0,0,0,.24,2.86c1,1.94,3.84,3,6.17,3.58l.39.1A26,26,0,0,0,149.3,653.09Z"/><path class="cls-11" d="M207.09,673.3l-.41-8.88c1.75-14-1.75-14.87-1.75-14.87l-4.16-2h-.11l-16.73-8.11-.65-.32-.2-.09h0L180.9,638h0l-1.38-.67-2.58-1.25-.87-.42v3.47c0,1,.09,2.17.17,3.53.18,3.42.51,8,1.1,13.4.33,3.13.75,6.55,1.27,10.22.31,2.17.53,4.33.67,6.44a113.14,113.14,0,0,1-.66,21.3l1-.29a70.5,70.5,0,0,0,7.24-2.9h0a67,67,0,0,0,12.9-7.92l.18-.13a68.63,68.63,0,0,0,7.26-6.59Z"/><path class="cls-14" d="M208,673.3l-.41-8.9c1.75-14-1.75-14.87-1.75-14.87l-5-2.42h-.1L183.93,639l-.77-.37-.15-.07-1.23-.6-1.63-.79-3.22-1.56V637h0v1.76c0,1,.09,2.31.18,3.8.17,3.19.47,7.37,1,12.34.36,3.41.81,7.2,1.4,11.28.31,2.18.53,4.33.66,6.47a114.21,114.21,0,0,1-.62,21,70.5,70.5,0,0,0,7.24-2.9h0a67,67,0,0,0,12.9-7.92l.18-.13a68.63,68.63,0,0,0,7.26-6.59l.84-.9Z"/><path class="cls-11" d="M151.58,599.83c3.12-.53,6.26-1.67,9.36-1,2.6.54,4.77,2.27,7.15,3.47a18.56,18.56,0,0,0,7.38,2,4.43,4.43,0,0,0,2.71-.53c1.24-.86,1.42-2.62,1.21-4.12-.6-4.26-3.26-7.92-6-11.24a22.23,22.23,0,0,0-3.76-3.81c-3.59-2.65-8.34-3.1-12.79-2.9-5.08.23-10.24,1.21-14.65,3.76-3,1.72-9.88,7.14-7.49,11.06C137.19,600.57,147.63,600.5,151.58,599.83Z"/><path class="cls-12" d="M151.58,598.83c3.12-.53,6.26-1.67,9.36-1,2.6.54,4.77,2.27,7.15,3.47a18.56,18.56,0,0,0,7.38,2,4.43,4.43,0,0,0,2.71-.53c1.24-.86,1.42-2.62,1.21-4.12-.6-4.26-3.26-7.92-6-11.24a22.23,22.23,0,0,0-3.76-3.81c-3.59-2.65-8.34-3.1-12.79-2.9-5.08.23-10.24,1.21-14.65,3.76-3,1.72-9.88,7.14-7.49,11.06C137.19,599.57,147.63,599.5,151.58,598.83Z"/></g><path class="cls-15" d="M426.17,549.86h.15c.22,6.7,1.17,12.76,3,14.44,4.36,4,22.44-4,21.2-8.84-.25-1-.67-2.64-1.2-4.71,4.88-.61,9-2,10.71-4.86l3.14,9.68.22.69h.24c2.07,19.62,6.76,60.36,10.51,65.82,5,7.23,10.75,38.56,10.75,38.56l10.75,64.27s4.14,37,6.62,41a4.67,4.67,0,0,0,2.72,1.41c-1.45,4.34-3.53,9.41-6,12.24-5,5.62-11.58,16.87-17.37,16.07s-7.44,11.25,3.31,12.85c5.95.89,15.44-.19,22.73-1.33,0,3.22,2.24,6.92,7.87,7.76,10.75,1.61,33.06-3.21,33.06-3.21s19-8,19.85-13.66c.6-4.1-2.31-20.56-3.93-29.19,3-4.81-.2-46.32-.2-46.32L558.58,643s3.31-44.18,0-52.22c-2.07-5-2.84-28-3.13-44.45l4,.26a10.56,10.56,0,0,0,.62-.87l1,.07s5-5.62.83-14.46c-3.07-6.57-2.49-36.23-2-51h0l.59-7a2.16,2.16,0,0,0,.49-.76,73.52,73.52,0,0,0,22.33-6.76,23.26,23.26,0,0,0,5.86-3.56c4.14-4,1.65-28.12-6.62-64.27S566.84,365,566.84,365s-19.85-1.61-29-13.66-15.21-11.89-15.21-11.89h0c-.23-1.58-.39-3.07-.5-4.46,0-.52-.08-1-.11-1.52a26.61,26.61,0,0,0,6.88-10.43c1.86-1,4.15-1.33,5.93-2.59a7.36,7.36,0,0,0,1.23-1.14,10.18,10.18,0,0,0,3.19-6.29,26.13,26.13,0,0,0-.37-7.89c-.63-3.84-1.56-7.77-3.8-10.79s-5.59-4.84-8.82-6.53Q513.14,281,500,274.21a14.57,14.57,0,0,0-5.63-2c-3.52-.2-6.68,2.21-9.52,4.5a38.3,38.3,0,0,0-3.25,2.85,16.6,16.6,0,0,0-2.39,2.57c-3.32,4.45-4.73,12.83-3.27,18.39.46,1.76,1.45,2.27,2.67,2.25a25.68,25.68,0,0,0-2.75,11.6A26.3,26.3,0,0,0,488,336.46v1.64c0,2,0,4.11-.2,6.15,0,0-22,11.89-24.47,17.51s-11.58,9.64-11.58,9.64-17.37,8.84-17.37,40.17l-9.1,44.18-1.65,84.35s1.14-1,3-2.42c-.06.56-.11,1.14-.16,1.73a92.14,92.14,0,0,0-.25,9.69Zm111.1,218.31c-.34,1.29-.84,3-1.47,5-.28-1.66-.56-3.3-.84-4.86C535.68,768.24,536.45,768.2,537.27,768.17Z"/><path class="cls-16" d="M507.23,757.81s-3.19,14.34-8,19.91-11.11,16.73-16.65,16-7.17,11.15,3.19,12.74,31.81-3.23,31.81-3.23,18.32-8,19.11-13.54-4.78-34.25-4.78-34.25Z"/><path class="cls-17" d="M507.23,757.81s-3.19,14.34-8,19.91-11.11,16.73-16.65,16-7.17,11.15,3.19,12.74,31.81-3.23,31.81-3.23,18.32-8,19.11-13.54-4.78-34.25-4.78-34.25Z"/><path class="cls-16" d="M536.7,764.18s-3.19,14.34-8,19.91S517.58,800.82,512,800s-7.17,11.15,3.19,12.74,31.86-3.19,31.86-3.19,18.32-8,19.11-13.54-4.78-34.25-4.78-34.25Z"/><path class="cls-18" d="M464.22,546s6.37,68.49,11.15,75.66,10.35,38.23,10.35,38.23l10.35,63.71s4,36.64,6.37,40.62,31.93,2.27,31.93,2.27L516,555.52Z"/><path class="cls-17" d="M464.22,546s6.37,68.49,11.15,75.66,10.35,38.23,10.35,38.23l10.35,63.71s4,36.64,6.37,40.62,31.93,2.27,31.93,2.27L516,555.52Z"/><path class="cls-18" d="M451.48,513.3l2.08,6.61,11.25,35.71.22.68h.06c1.51.34,33.39,7.67,40.27,9.92a9,9,0,0,1,1.09.41c3.19,1.59,7.17,58.93,7.17,58.93s2.39,54.14,4,58.14,8,86,12,83.62,32.65,0,32.65,0c3.19-3.19,0-46.19,0-46.19l-5.65-78.83s3.19-43.8,0-51.77-3.19-61.32-3.19-61.32L488.18,519l-6.3-1Z"/><path class="cls-19" d="M453.58,519.92l11.25,35.71.27.7c1.51.34,33.39,7.67,40.27,9.92h.69L488.25,519l-.51-1.36L482,518Z"/><path class="cls-11" d="M527.94,354s-29.47,31.86-47.79,5.57l-17.52,12,3.19,18.32L455.46,528.44s27.08-.8,46.19,5.57a29.67,29.67,0,0,0,31.06-7.17L529.58,405l7.17-37.43Z"/><path class="cls-16" d="M527.94,351.64s-29.47,31.86-47.79,5.57l-17.52,12,3.19,18.32L455.46,526.05s27.08-.8,46.19,5.57a29.67,29.67,0,0,0,31.06-7.17l-3.13-121.84,7.17-37.43Z"/><g id="b7475575-9269-4b4a-a721-bb0a166a2f3e"><g id="_5bdc843c-f8f1-42c9-9268-9744bdec504e" data-name=" 5bdc843c-f8f1-42c9-9268-9744bdec504e"><polyline id="_6bc746a9-2d5c-4457-b327-3c896c91b9d0" data-name=" 6bc746a9-2d5c-4457-b327-3c896c91b9d0" class="cls-20" points="469.11 493.52 469.11 498.54 467.51 498.54 467.51 495.2 461.66 495.2 461.66 498.54 460.05 498.54 460.05 493.53 469.11 493.52"/><path id="d39c551f-7962-48ac-bd52-1b7ff04213b0" class="cls-20" d="M467.68,491.9H461.5a2.27,2.27,0,0,1-1.68-1.66h9.53a2.32,2.32,0,0,1-1.68,1.66"/></g><g id="_338417f9-9740-4f15-9fb5-4758cf3f6efe" data-name=" 338417f9-9740-4f15-9fb5-4758cf3f6efe"><path id="a3b10f10-7568-4e16-9739-cab30d2da761" class="cls-20" d="M523.58,490.3a2.32,2.32,0,0,1-1.67,1.65h-2.73v6.56h-1.6V492h-2.75a2.32,2.32,0,0,1-1.67-1.65h10.42"/></g></g><path class="cls-21" d="M466.58,516.5s0,20.71-4.78,29.47-32.65,4-32.65,4l5.57-29.47Z"/><path class="cls-22" d="M432.21,564.3c4.2,4,21.61-4,20.41-8.76-.84-3.37-3.78-15.43-5.45-22.27L446,528.46s-10.2-3.19-13.8,0c-1.31,1.16-2.23,5.73-2.66,11.25C428.81,549.3,429.58,561.76,432.21,564.3Z"/><path class="cls-22" d="M470.58,366l27.87,21.5s41.41-2.39,31.06-22.3a74.07,74.07,0,0,1-8-28.14,58.26,58.26,0,0,1,0-10.89s-38.23-35-33.45,4.78a88.51,88.51,0,0,1,.66,9.2C489.27,370,470.58,366,470.58,366Z"/><path class="cls-11" d="M488.12,330.93a88.51,88.51,0,0,1,.66,9.2,26.11,26.11,0,0,0,14.47,4.34c7.13,0,12.38-6.94,17.12-11.55-.53-6.61,1.19-6.77,1.19-6.77S483.34,291.11,488.12,330.93Z"/><circle class="cls-22" cx="503.25" cy="316.6" r="26.28"/><path class="cls-11" d="M522,341.7s4.38.4,13.14,12.34S563,367.58,563,367.58s7.17-3.19,15.13,32.65,10.35,59.73,6.37,63.71-19.89,9.55-27.89,9.55c0,0-2.39,50.17,1.59,58.93s-.8,14.34-.8,14.34l-35-2.39S510.42,529.24,508,503s-10.35-101.15-6.37-109.91,21.5-31.06,20.71-33.45S522,341.7,522,341.7Z"/><path class="cls-21" d="M522.05,341.44s5.89-.16,14.65,11.79,27.88,13.54,27.88,13.54,7.17-3.19,15.13,32.65,10.35,59.73,6.37,63.71-19.93,9.57-27.89,9.57c0,0-2.39,50.17,1.59,58.93S559,546,559,546l-35-2.39s-12-15.13-14.34-41.41S499.27,401,503.25,392.31s21.5-31.06,20.71-33.45S522.05,341.44,522.05,341.44Z"/><path class="cls-11" d="M429.58,539.7c3.81-2.91,11-7.44,17.62-6.44L446,528.45s-10.2-3.19-13.8,0C430.89,529.61,430,534.17,429.58,539.7Z"/><path class="cls-11" d="M488.58,346.46s-20.31,13.14-22.7,18.72-11.17,9.52-11.17,9.52S438,383.46,438,414.52l-8.76,43.8,39.82,55.75s4.78-55.75,7.17-69.29,5.57-39,5.57-39,11.95-15.08,10.35-19.08S488.58,346.46,488.58,346.46Z"/><path class="cls-21" d="M488.58,346.22S467.4,358,465,363.58s-11.15,9.56-11.15,9.56S437.15,381.9,437.15,413l-8.76,43.8-1.59,83.62s14.34-13.54,24.69-7.17,16.72-20.71,16.72-20.71,4.78-55.75,7.17-69.29,5.57-39,5.57-39,11.95-15.13,10.35-19.11S488.58,346.22,488.58,346.22Z"/><path class="cls-11" d="M480.18,284.63a25.47,25.47,0,0,1,4.64-4.58c2.74-2.28,5.77-4.66,9.17-4.46a13.54,13.54,0,0,1,5.42,1.94q12.69,6.69,25.33,13.52c3.11,1.68,6.32,3.46,8.49,6.48s3,6.9,3.66,10.7a26.32,26.32,0,0,1,.36,7.82,9.89,9.89,0,0,1-3.46,6.57c-2.27,1.65-5.38,1.66-7.28,3.82-1.1,1.25-1.58,3-2.36,4.52s-2.13,3-3.67,2.73-2.47-1.9-2.69-3.55a21,21,0,0,1,.29-5c.3-3-.08-6.18-1.82-8.41-1.2-1.52-2.92-2.44-4.08-4-2.78-3.76-1.51-10-4.56-13.53a7.21,7.21,0,0,0-7-2c-2.47.52-4.73,1.86-7,3a53.39,53.39,0,0,1-9.59,3.7c-2.78.76-6,2.58-7-1.12C475.63,297.35,477,289,480.18,284.63Z"/><path class="cls-23" d="M481,283.84a25.47,25.47,0,0,1,4.64-4.58c2.74-2.28,5.77-4.66,9.17-4.46a13.54,13.54,0,0,1,5.42,1.94c8.46,4.46,15.49.24,25.33,13.52,2.1,2.84,6.32,3.46,8.49,6.48s3,6.9,3.66,10.7a26.32,26.32,0,0,1,.36,7.82,9.89,9.89,0,0,1-3.46,6.57c-2.27,1.65-5.38,1.66-7.28,3.82-1.1,1.25-1.58,3-2.36,4.52s-2.13,3-3.67,2.73-2.47-1.9-2.69-3.55a21,21,0,0,1,.29-5c.3-3-.08-6.18-1.82-8.41-1.2-1.52-2.92-2.44-4.08-4-2.78-3.76-1.51-10-4.56-13.53a7.21,7.21,0,0,0-7-2c-2.47.52-4.73,1.86-7,3a53.39,53.39,0,0,1-9.59,3.7c-2.78.76-6,2.58-7-1.12C476.42,296.56,477.78,288.24,481,283.84Z"/><path class="cls-11" d="M552.76,405.39s10.62,27.08,2.65,38.23l-17.52-4s15.93,4.78,13.54-4.78S552.76,405.39,552.76,405.39Z"/><path class="cls-11" d="M558.58,472.3s-23.1,1.59-29.47-3.19a61,61,0,0,0,28.75,12Z"/><path class="cls-11" d="M459.05,421.3s-12,36.64-11.15,42.21,2.39,66.9,2.39,66.9l2.39-.8-.8-66.9Z"/><path class="cls-24" d="M561.37,466.08l-273-220a17.07,17.07,0,0,0-12.1-5h-11.6A148,148,0,1,0,239,266.7v11.6a17.05,17.05,0,0,0,5,12.1l273,220a17,17,0,0,0,24,.09l.1-.09,20.12-20.1A17.19,17.19,0,0,0,561.37,466.08Zm-413.47-225A91.14,91.14,0,1,1,239,149.94h0a91.1,91.1,0,0,1-91,91.16h-.12Z"/><path class="cls-4" d="M563.37,464.08l-273-220a17.07,17.07,0,0,0-12.1-5h-11.6A148,148,0,1,0,241,264.7v11.6a17.05,17.05,0,0,0,5,12.1l273,220a17,17,0,0,0,24,.09l.1-.09,20.12-20.1A17.19,17.19,0,0,0,563.37,464.08Zm-413.47-225A91.14,91.14,0,1,1,241,147.94h0a91.1,91.1,0,0,1-91,91.16h-.12Z"/><path class="cls-22" d="M543.07,444s-39.85-45.7-34.25-14.34c4,22.3,19.11,34.25,26.28,36.64S543.07,444,543.07,444Z"/><path class="cls-21" d="M552.63,401.81s.8,29.47,4.78,33.45S555,444,555,444l-15.93-4s4,26.28-12.74,23.1c0,0,11.15,10.35,22.3,12S559,472.7,559,472.7l16.72-19.91Z"/><polygon class="cls-21" points="557.04 473.11 573.2 469.56 571.04 462.11 561.04 458.11 548.04 464.11 557.04 473.11"/><path class="cls-3" d="M85.34,147.1a67.63,67.63,0,0,0,13.58,40.78c.89,1.19,1.82,2.34,2.79,3.47.52.61,1.06,1.21,1.61,1.8q.39.45.84.9a65.71,65.71,0,0,0,7.26,6.59l.18.13a66.38,66.38,0,0,0,12.9,7.92h0a68.73,68.73,0,0,0,7.24,2.9l.91.29c.56.19,1.14.36,1.71.52l.23.07c.29.08.58.17.88.24a67.9,67.9,0,0,0,17.83,2.37c1,0,2,0,3.07-.07a67.48,67.48,0,0,0,15.77-2.58h.1c.95-.28,1.89-.57,2.82-.89h.1l.85-.3a66.17,66.17,0,0,0,9.4-4.16l.19-.1,1-.55a68.26,68.26,0,0,0,12.34-8.88l.33-.31a64.57,64.57,0,0,0,5.81-6l.21-.25c.17-.19.33-.38.49-.58.44-.52.86-1.06,1.28-1.6A68,68,0,1,0,85.34,147.1Z"/><path class="cls-25" d="M108.87,169s14.71-1.27,21.51-10.63c6.59-9.13,11.07-9.24,11.29-9.24h0c.17-1.22.29-2.38.37-3.46v-.15a2.22,2.22,0,0,1-.93.41c-1.32.2-2.48-1.05-3.14-2.38a18.72,18.72,0,0,0-2-3.94c-1.63-1.88-4.3-1.89-6.24-3.32a8.56,8.56,0,0,1-3-5.72,14.91,14.91,0,0,1-.12-2.5,28,28,0,0,1,.42-5.33c.52-3.31,1.29-6.7,3.14-9.31s5.47-3.17,7.27-5.64c8.43-11.56,14.44-7.89,21.69-11.77a11.5,11.5,0,0,1,4.64-1.69c2.91-.17,5.51,1.91,7.85,3.89a22.6,22.6,0,0,1,4,4c2.09,2.93,3.26,7.84,3.16,12.14a18.46,18.46,0,0,1-.46,4.75c-.58,2.3-2.15,2.15-3.87,1.63a20.79,20.79,0,0,1-7.06,26.08v1.28a44.82,44.82,0,0,0,.16,4.78c.17.09,16.34,9.26,18.17,13.61s8.61,7.5,8.61,7.5,7.45,4,11,16.56l-.21.25a65.94,65.94,0,0,1-5.81,6.12l-.33.32a68.89,68.89,0,0,1-12.34,9c-.32.19-.65.38-1,.56l-.19.1a66.55,66.55,0,0,1-9.4,4.23l-.85.31h-.1c-.93.33-1.87.62-2.82.9h-.1a67,67,0,0,1-15.77,2.62c-1,0-2,.07-3.07.07a67,67,0,0,1-17.76-2.3c-.3-.07-.59-.16-.88-.24l-.23-.07c-.57-.16-1.15-.34-1.71-.53l-.91-.29a67.74,67.74,0,0,1-7.27-3h0a66,66,0,0,1-12.9-8l-.18-.13a67.72,67.72,0,0,1-7.26-6.7c-.29-.3-.57-.6-.84-.92-.55-.6-1.09-1.21-1.61-1.83-1-1.15-1.9-2.32-2.79-3.53C104.33,166.91,108.87,169,108.87,169Z"/><path class="cls-22" d="M159.87,185.7l21.51-16.59s-14.41,3.09-14-19.94a.88.88,0,0,1,0-.23,58.47,58.47,0,0,1,.5-6.87c3.69-30.73-25.81-3.69-25.81-3.69a44.7,44.7,0,0,1,0,8.18v.22a57.22,57.22,0,0,1-6.14,21.71C127.92,183.86,159.87,185.7,159.87,185.7Z"/><path class="cls-11" d="M144.82,142.3c3.65,3.55,5.88,10,11.37,10A20.27,20.27,0,0,0,167.36,149a58.47,58.47,0,0,1,.5-6.87c3.69-30.73-25.81-3.69-25.81-3.69S145.21,137.3,144.82,142.3Z"/><circle class="cls-22" cx="156.19" cy="131.02" r="20.28"/><path class="cls-11" d="M175.64,105.05a22.49,22.49,0,0,0-4-3.92c-2.34-1.95-4.94-4-7.85-3.82A11.66,11.66,0,0,0,159.15,99c-7.25,3.82-13.26.21-21.69,11.57-1.8,2.43-5.41,3-7.27,5.55s-2.61,5.9-3.14,9.16a22.17,22.17,0,0,0-.31,6.7,8.38,8.38,0,0,0,3,5.62c1.94,1.41,4.61,1.42,6.24,3.27a18.44,18.44,0,0,1,2,3.87c.66,1.3,1.82,2.53,3.14,2.34s2.11-1.62,2.3-3a19.08,19.08,0,0,0-.25-4.27c-.25-2.53.07-5.29,1.56-7.2,1-1.31,2.5-2.09,3.49-3.42,2.38-3.21,1.3-8.6,3.91-11.58a6.16,6.16,0,0,1,6-1.67,25.7,25.7,0,0,1,6,2.58,45.11,45.11,0,0,0,8.21,3.17c2.38.65,5.14,2.21,5.95-1C179.58,115.94,178.37,108.82,175.64,105.05Z"/><path class="cls-23" d="M175.64,104.05a22.49,22.49,0,0,0-4-3.92c-2.34-1.95-4.94-4-7.85-3.82A11.66,11.66,0,0,0,159.15,98c-7.25,3.82-13.26.21-21.69,11.57-1.8,2.43-5.41,3-7.27,5.55s-2.61,5.9-3.14,9.16a22.17,22.17,0,0,0-.31,6.7,8.38,8.38,0,0,0,3,5.62c1.94,1.41,4.61,1.42,6.24,3.27a18.44,18.44,0,0,1,2,3.87c.66,1.3,1.82,2.53,3.14,2.34s2.11-1.62,2.3-3a19.08,19.08,0,0,0-.25-4.27c-.25-2.53.07-5.29,1.56-7.2,1-1.31,2.5-2.09,3.49-3.42,2.38-3.21,1.3-8.6,3.91-11.58a6.16,6.16,0,0,1,6-1.67,25.7,25.7,0,0,1,6,2.58,45.11,45.11,0,0,0,8.21,3.17c2.38.65,5.14,2.21,5.95-1C179.58,114.94,178.37,107.82,175.64,104.05Z"/><path class="cls-11" d="M135.91,196.38l-.4,15.35a67.9,67.9,0,0,0,17.83,2.37c1,0,2,0,3.07-.07a67.48,67.48,0,0,0,15.77-2.58h.1c.95-.28,1.89-.57,2.82-.89h.1l.85-.3a66.17,66.17,0,0,0,9.4-4.16l.19-.1,1-.55-1.55-20.69,2.49-14.19-13.52-9.21a26.81,26.81,0,0,1-2.54,3.08,17.22,17.22,0,0,1-4.62,3.42c-9.7,4.78-20.74-2.82-26.23-7.52l-1.25-1.11c-1.42-1.29-2.23-2.17-2.23-2.17l-6.76,10.44Z"/><path class="cls-16" d="M135.91,197.38l-.4,15.35a67.9,67.9,0,0,0,17.83,2.37c1,0,2,0,3.07-.07a67.48,67.48,0,0,0,15.77-2.58h.1c.95-.28,1.89-.57,2.82-.89h.1l.85-.3a66.17,66.17,0,0,0,9.4-4.16l.19-.1,1-.55-1.55-20.69,2.49-14.19-13.52-9.21a26.81,26.81,0,0,1-2.54,3.08,17.22,17.22,0,0,1-4.62,3.42c-9.7,4.78-20.74-2.82-26.23-7.52l-1.25-1.11c-1.42-1.29-2.23-2.17-2.23-2.17l-6.76,10.44Z"/><path class="cls-26" d="M98.92,187.88c.89,1.19,1.82,2.34,2.79,3.47.52.61,1.06,1.21,1.61,1.8q.39.45.84.9a65.71,65.71,0,0,0,7.26,6.59l.18.13a66.38,66.38,0,0,0,12.9,7.92h0a68.73,68.73,0,0,0,7.24,2.9l.91.29c.56.19,1.14.36,1.71.52l.23.07c.29.08.58.17.88.24a67.9,67.9,0,0,0,17.83,2.37c1,0,2,0,3.07-.07.78-12.76,1-23-.22-25.63a41.54,41.54,0,0,0-2.47-4.42c-4.94-7.94-14-19.88-13.51-21.39a17.12,17.12,0,0,0,.41-2.25c.53-3.94,1.06-11.15,1.06-11.15h0c-.22,0-4.7.11-11.29,9.09-6.77,9.22-21.51,10.44-21.51,10.44S104.33,167.7,98.92,187.88Z"/><path class="cls-26" d="M173.39,198.61s.74,5.89,1.71,12.93h.1l.85-.3a66.17,66.17,0,0,0,9.4-4.16l.19-.1,1-.55A68.26,68.26,0,0,0,199,197.55l.33-.31a64.57,64.57,0,0,0,5.81-6l.21-.25c-3.57-12.39-11-16.29-11-16.29s-6.76-3.08-8.61-7.38-18.14-13.39-18.14-13.39V154c0,.77-.26,7.82-.65,14.91-.25,4.61-.56,9.24-.92,12.18a14.91,14.91,0,0,1-.52,2.82C164.18,186.94,173.39,198.61,173.39,198.61Z"/></g></g></svg>