<svg xmlns="http://www.w3.org/2000/svg" xmlns:xlink="http://www.w3.org/1999/xlink" viewBox="0 0 1135.2 814.21"><defs><style>.cls-1{fill:#6c63ff;}.cls-2{opacity:0.7;}.cls-3{fill:url(#linear-gradient);}.cls-4{opacity:0.2;}.cls-17,.cls-4{isolation:isolate;}.cls-5{fill:#fff;}.cls-6{fill:url(#linear-gradient-2);}.cls-7{fill:url(#linear-gradient-3);}.cls-8{fill:#535461;}.cls-17,.cls-9{opacity:0.1;}.cls-10{fill:#e0e0e0;}.cls-11{fill:url(#linear-gradient-4);}.cls-12{fill:url(#linear-gradient-5);}.cls-13{fill:url(#linear-gradient-6);}.cls-14{fill:url(#linear-gradient-7);}.cls-15{fill:#eee;}.cls-16{fill:url(#linear-gradient-8);}.cls-18{fill:url(#linear-gradient-9);}.cls-19{fill:none;}</style><linearGradient id="linear-gradient" x1="586.57" y1="3487.41" x2="586.57" y2="3515.01" gradientTransform="matrix(1, 0, 0, -1, -309.1, 4184.5)" gradientUnits="userSpaceOnUse"><stop offset="0" stop-color="gray" stop-opacity="0.25"/><stop offset="0.54" stop-color="gray" stop-opacity="0.12"/><stop offset="1" stop-color="gray" stop-opacity="0.1"/></linearGradient><linearGradient id="linear-gradient-2" x1="1057.26" y1="3617.35" x2="1057.26" y2="3640.39" xlink:href="#linear-gradient"/><linearGradient id="linear-gradient-3" x1="866.06" y1="3477.39" x2="866.06" y2="4141.61" gradientTransform="matrix(1, 0, 0, -1, -341.51, 4141.61)" xlink:href="#linear-gradient"/><linearGradient id="linear-gradient-4" x1="766.06" y1="3556.38" x2="766.06" y2="3491.98" gradientTransform="matrix(1, 0, 0, -1, -341.51, 4141.61)" gradientUnits="userSpaceOnUse"><stop offset="0" stop-color="#e0e0e0"/><stop offset="0.31" stop-color="#fccc63"/><stop offset="0.77" stop-color="#f55f44"/></linearGradient><linearGradient id="linear-gradient-5" x1="843.16" y1="3556.38" x2="843.16" y2="3491.98" xlink:href="#linear-gradient-4"/><linearGradient id="linear-gradient-6" x1="891.46" y1="3556.38" x2="891.46" y2="3491.98" xlink:href="#linear-gradient-4"/><linearGradient id="linear-gradient-7" x1="969.41" y1="3556.38" x2="969.41" y2="3491.98" xlink:href="#linear-gradient-4"/><linearGradient id="linear-gradient-8" x1="1075.18" y1="3775.23" x2="1075.18" y2="3843.89" gradientTransform="matrix(1, 0, 0, -1, -341.51, 4141.61)" xlink:href="#linear-gradient"/><linearGradient id="linear-gradient-9" x1="640.02" y1="3606.67" x2="640.02" y2="3654.58" gradientTransform="matrix(1, 0, 0, -1, -341.51, 4141.61)" xlink:href="#linear-gradient"/></defs><title>rocket-full</title><g id="Layer_2" data-name="Layer 2"><g id="Layer_1-2" data-name="Layer 1"><path class="cls-1" d="M991,708.35a140.12,140.12,0,0,1-27.7-.37C862.2,696.8,724.5,700,612.25,769.53,457,865.7,213.72,783.37,106.4,738.58c-82-34.21-124.57-118-99-196.65.36-1.11.73-2.22,1.12-3.33,16.09-46.74,47.85-83.32,87.18-102.71C130,419,180,383.7,202.3,315.89c9.2-28,21.82-54.34,38.21-77.3C284.4,177.1,376.28,85.53,534.3,86.1a254.35,254.35,0,0,1,81.41,13.78c57.73,19.67,109.87,59.66,149.63,115.1,25.37,35.36,63.39,68.23,117.82,70.91,75.54,3.74,147.63,38.91,201.71,101.5,1.56,1.8,3.1,3.61,4.64,5.44C1185.8,507.54,1118.92,697.17,991,708.35Z"/><g class="cls-2"><circle class="cls-3" cx="277.48" cy="683.3" r="13.8"/></g><circle class="cls-4" cx="277.48" cy="683.3" r="13.18"/><circle class="cls-5" cx="203.13" cy="414.13" r="5.1"/><circle class="cls-5" cx="567.13" cy="710.13" r="5.1"/><circle class="cls-5" cx="352.13" cy="736.13" r="2.85"/><circle class="cls-5" cx="983.13" cy="598.13" r="2.85"/><circle class="cls-5" cx="820.13" cy="342.13" r="2.85"/><circle class="cls-5" cx="1051.13" cy="467.13" r="2.85"/><circle class="cls-5" cx="293.13" cy="247.13" r="5.1"/><polygon class="cls-5" points="152.96 592.2 148.42 592.2 148.42 587.66 146.57 587.66 146.57 592.2 142.03 592.2 142.03 594.05 146.57 594.05 146.57 598.58 148.42 598.58 148.42 594.05 152.96 594.05 152.96 592.2"/><polygon class="cls-5" points="266.96 590.2 262.42 590.2 262.42 585.66 260.57 585.66 260.57 590.2 256.03 590.2 256.03 592.05 260.57 592.05 260.57 596.58 262.42 596.58 262.42 592.05 266.96 592.05 266.96 590.2"/><polygon class="cls-5" points="429.96 682.2 425.42 682.2 425.42 677.66 423.57 677.66 423.57 682.2 419.03 682.2 419.03 684.05 423.57 684.05 423.57 688.58 425.42 688.58 425.42 684.05 429.96 684.05 429.96 682.2"/><polygon class="cls-5" points="656.99 130.7 654.92 130.7 654.92 128.63 654.08 128.63 654.08 130.7 652.01 130.7 652.01 131.54 654.08 131.54 654.08 133.61 654.92 133.61 654.92 131.54 656.99 131.54 656.99 130.7"/><polygon class="cls-5" points="951.99 320.7 949.92 320.7 949.92 318.63 949.08 318.63 949.08 320.7 947.01 320.7 947.01 321.54 949.08 321.54 949.08 323.61 949.92 323.61 949.92 321.54 951.99 321.54 951.99 320.7"/><polygon class="cls-5" points="777.99 444.7 775.92 444.7 775.92 442.63 775.08 442.63 775.08 444.7 773.01 444.7 773.01 445.54 775.08 445.54 775.08 447.61 775.92 447.61 775.92 445.54 777.99 445.54 777.99 444.7"/><polygon class="cls-5" points="69.99 522.7 67.92 522.7 67.92 520.63 67.08 520.63 67.08 522.7 65.01 522.7 65.01 523.54 67.08 523.54 67.08 525.61 67.92 525.61 67.92 523.54 69.99 523.54 69.99 522.7"/><polygon class="cls-5" points="154.99 692.7 152.92 692.7 152.92 690.63 152.08 690.63 152.08 692.7 150.01 692.7 150.01 693.54 152.08 693.54 152.08 695.61 152.92 695.61 152.92 693.54 154.99 693.54 154.99 692.7"/><polygon class="cls-5" points="421.99 155.7 419.92 155.7 419.92 153.63 419.08 153.63 419.08 155.7 417.01 155.7 417.01 156.54 419.08 156.54 419.08 158.61 419.92 158.61 419.92 156.54 421.99 156.54 421.99 155.7"/><polygon class="cls-5" points="295.99 454.7 293.92 454.7 293.92 452.63 293.08 452.63 293.08 454.7 291.01 454.7 291.01 455.54 293.08 455.54 293.08 457.61 293.92 457.61 293.92 455.54 295.99 455.54 295.99 454.7"/><polygon class="cls-5" points="322.99 368.7 320.92 368.7 320.92 366.63 320.08 366.63 320.08 368.7 318.01 368.7 318.01 369.54 320.08 369.54 320.08 371.61 320.92 371.61 320.92 369.54 322.99 369.54 322.99 368.7"/><g class="cls-2"><circle class="cls-6" cx="748.17" cy="555.64" r="11.52"/></g><circle class="cls-4" cx="748.17" cy="555.64" r="10.67"/><circle class="cls-4" cx="776.9" cy="630.75" r="11.93"/><g class="cls-2"><path class="cls-7" d="M670,307a154.75,154.75,0,0,0-17.5-72C647,224.58,642,218.1,638.13,214.11a10.23,10.23,0,0,0-11.74-2.26,10.56,10.56,0,0,0-4.11,2.65c-5.21,5.4-9.92,12.54-14,20.13a155.41,155.41,0,0,0-18.37,74v15.48H580v-180c0-37.72-8.44-74.93-25-107.93-7.84-15.64-15-25.36-20.49-31.33a14.19,14.19,0,0,0-20-1.31,12.46,12.46,0,0,0-1.31,1.31C505.7,12.93,499,23.63,493.14,35c-17.39,33.72-26.22,72-26.22,110.82V324h-8.58V307.81A155.41,155.41,0,0,0,440,233.86c-4.11-7.59-8.82-14.73-14-20.13a10.26,10.26,0,0,0-12-2.18l.36.19a10.71,10.71,0,0,0-3.35,2.34c-3.85,4-8.86,10.47-14.35,20.91a154.75,154.75,0,0,0-17.5,72V576h30.64l-3.38,22.11v66.13h25.06V598.1L428.1,576h30.2V331h8.58V574.92h24.47l-3.51,23.18v66.13H512.9V598.1l-3.51-23.21h33l-3.53,23.21v66.13h25.06V598.1l-3.51-23.21H580V331h9.93V576.38h8V576h26.62l-3.34,22.09v66.13h25.06V598.1L642.92,576H670Z"/></g><polygon class="cls-8" points="436.42 585.24 412.69 585.24 416.93 556.43 432.18 556.43 436.42 585.24"/><g class="cls-9"><polygon points="415.75 567.87 433.36 567.87 432.18 559.82 416.93 559.82 415.75 567.87"/></g><polygon class="cls-8" points="639.77 585.24 616.05 585.24 620.28 556.43 635.54 556.43 639.77 585.24"/><g class="cls-9"><polygon points="619.1 567.87 636.72 567.87 635.54 559.82 620.28 559.82 619.1 567.87"/></g><polygon class="cls-8" points="513.52 585.24 489.8 585.24 494.03 556.43 509.29 556.43 513.52 585.24"/><g class="cls-9"><polygon points="492.85 567.87 510.47 567.87 509.29 559.82 494.03 559.82 492.85 567.87"/></g><polygon class="cls-8" points="561.82 585.24 538.1 585.24 542.33 556.43 557.58 556.43 561.82 585.24"/><g class="cls-9"><polygon points="541.15 567.87 558.77 567.87 557.58 559.82 542.33 559.82 541.15 567.87"/></g><rect class="cls-8" x="436.42" y="318.34" width="169.46" height="6.78"/><path class="cls-10" d="M632.07,211.26a9.55,9.55,0,0,0-13.49-.67,7.06,7.06,0,0,0-.67.67c-4.93,5.26-9.39,12.21-13.28,19.6a154.67,154.67,0,0,0-17.39,72V563.7h75V301.76a154.33,154.33,0,0,0-16.57-70.14C640.46,221.46,635.72,215.1,632.07,211.26Z"/><path class="cls-10" d="M417,211.26a9.55,9.55,0,0,1,13.49-.67,8.47,8.47,0,0,1,.67.67c4.94,5.26,9.39,12.21,13.29,19.6a154.94,154.94,0,0,1,17.39,72V563.7h-75V301.76a154.08,154.08,0,0,1,16.57-70.14C408.61,221.46,413.35,215.1,417,211.26Z"/><polygon class="cls-8" points="387.27 307.32 405.07 307.41 405.07 329.35 387.27 329.35 387.27 307.32"/><polygon class="cls-8" points="444.04 307.32 461.84 307.41 461.84 329.35 444.04 329.35 444.04 307.32"/><polygon class="cls-8" points="587.24 307.32 605.03 307.41 605.03 329.35 587.24 329.35 587.24 307.32"/><polygon class="cls-8" points="644.01 307.32 661.8 307.41 661.8 329.35 644.01 329.35 644.01 307.32"/><g class="cls-9"><path d="M444.45,230.52c-3.9-7.39-8.35-14.34-13.29-19.6a9.51,9.51,0,0,0-11.33-2.13,9.94,9.94,0,0,1,2.86,2.13c4.93,5.26,9.39,12.21,13.28,19.6a154.67,154.67,0,0,1,17.39,72V563.34h8.48V302.53A155,155,0,0,0,444.45,230.52Z"/></g><g class="cls-9"><path d="M611.41,231.24c3.89-7.39,8.35-14.34,13.28-19.6A9.76,9.76,0,0,1,628,209.3a9.52,9.52,0,0,0-10.9,2.34c-4.94,5.26-9.4,12.21-13.29,19.6a154.82,154.82,0,0,0-17.39,72V564.1H594V303.26A154.78,154.78,0,0,1,611.41,231.24Z"/></g><path class="cls-11" d="M424.88,649.64h-.65a11.54,11.54,0,0,1-11.54-11.54V585.24h23.73V638.1A11.54,11.54,0,0,1,424.88,649.64Z"/><path class="cls-12" d="M502,649.64h-.66A11.54,11.54,0,0,1,489.8,638.1V585.24h23.72V638.1A11.54,11.54,0,0,1,502,649.64Z"/><path class="cls-13" d="M550.28,649.64h-.67A11.54,11.54,0,0,1,538.1,638.1V585.24h23.72V638.1A11.54,11.54,0,0,1,550.28,649.64Z"/><path class="cls-14" d="M628.24,649.64h-.63a11.54,11.54,0,0,1-11.56-11.52V585.24h23.72V638.1A11.54,11.54,0,0,1,628.24,649.64Z"/><path class="cls-15" d="M534,6.74a13.2,13.2,0,0,0-18.6-1.62,13,13,0,0,0-1.61,1.62c-7,7.88-13.4,18.29-19,29.37C478.28,69,469.92,106.23,469.92,144V562.64h107V142.35c0-36.73-8-73-23.64-105.1C545.93,22,539.16,12.55,534,6.74Z"/><rect class="cls-8" x="494.81" y="53.24" width="55.84" height="25.59" rx="11"/><g class="cls-9"><rect x="470.5" y="158.34" width="105.91" height="4.11"/></g><path class="cls-16" d="M761.06,311.32h0a34.55,34.55,0,0,0-10.22-9h0a34.33,34.33,0,1,0-17.17,64.07,19.5,19.5,0,0,0,2.17-.08,34.32,34.32,0,0,0,25.23-54.93Z"/><path class="cls-4" d="M766.11,332a32.46,32.46,0,0,1-30.4,32.38c-.67,0-1.36.07-2.05.07a32.46,32.46,0,1,1,16.23-60.56h0a32.58,32.58,0,0,1,9.66,8.56h0A32.3,32.3,0,0,1,766.11,332Z"/><path class="cls-17" d="M725.67,311.41a33.84,33.84,0,0,0-4.84,2.55,7.49,7.49,0,0,0-2.59,2.32,3,3,0,0,0-.06,3.31c.79,1.08,2.31,1.24,3.65,1.32a9.41,9.41,0,0,0,4.18-.42,9.08,9.08,0,0,0,2.44-1.77l2.79-2.53c1-.88,2-2.09,1.61-3.33a3,3,0,0,0-2.37-1.6,9.91,9.91,0,0,0-7,1.23"/><g class="cls-9"><circle cx="714.02" cy="344.81" r="1.71"/></g><g class="cls-9"><circle cx="748.74" cy="333.99" r="6.26"/></g><g class="cls-9"><path d="M759.61,312.45h0a8.54,8.54,0,1,1-9.67-8.56h0A32.62,32.62,0,0,1,759.61,312.45Z"/></g><g class="cls-9"><path d="M760.19,350.68a32.37,32.37,0,0,1-24.48,13.7c0-.45-.06-.9-.06-1.36a15.38,15.38,0,0,1,24.54-12.34Z"/></g><path class="cls-18" d="M317.78,496.57h0a24.26,24.26,0,0,0-7.14-6.32h0a24,24,0,1,0-12,44.7c.51,0,1,0,1.52-.05a24,24,0,0,0,17.6-38.33Z"/><path class="cls-4" d="M321.3,511a22.65,22.65,0,0,1-21.21,22.59h-1.43A22.64,22.64,0,1,1,310,491.34h0a22.49,22.49,0,0,1,6.74,6h0A22.52,22.52,0,0,1,321.3,511Z"/><path class="cls-17" d="M293.08,496.64a22.54,22.54,0,0,0-3.37,1.77A5.41,5.41,0,0,0,287.9,500a2.11,2.11,0,0,0,0,2.31,3.24,3.24,0,0,0,2.54.92,4.84,4.84,0,0,0,4.63-1.53L297,500c.68-.62,1.42-1.46,1.12-2.32a2,2,0,0,0-1.65-1.12,6.81,6.81,0,0,0-4.87.86"/><g class="cls-9"><circle cx="284.95" cy="519.93" r="1.19"/></g><g class="cls-9"><circle cx="309.18" cy="512.39" r="4.37"/></g><g class="cls-9"><path d="M316.73,497.36h0a6,6,0,1,1-6.75-6h0A22.53,22.53,0,0,1,316.73,497.36Z"/></g><g class="cls-9"><path d="M317.17,524a22.63,22.63,0,0,1-17.08,9.56v-1A10.73,10.73,0,0,1,317.21,524Z"/></g><polyline class="cls-19" points="837.71 539.41 859.51 551.01 842.49 570.05"/><circle class="cls-5" cx="954.92" cy="428.22" r="1.84"/></g></g></svg>