<svg xmlns="http://www.w3.org/2000/svg" viewBox="0 0 18.34 18"><defs><style>.cls-1{fill:#212325;}</style></defs><title>SettingsLight</title><g id="Layer_2" data-name="Layer 2"><g id="Layer_1-2" data-name="Layer 1"><g id="Layer_1-2-2" data-name="Layer 1-2"><g id="Layer_1-2-2-2" data-name="Layer 1-2-2"><path class="cls-1" d="M15.83,6.71,15.52,6c1.07-2.42,1-2.49.79-2.7L14.94,1.93l-.13-.11h-.16a8.63,8.63,0,0,0-2.41.94l-.77-.31C10.48,0,10.38,0,10.09,0H8.17c-.29,0-.41,0-1.32,2.46l-.76.31a13.32,13.32,0,0,0-2.45-.9H3.45L2,3.32c-.22.21-.3.29.83,2.67l-.31.73C0,7.69,0,7.79,0,8.08V10c0,.3,0,.4,2.51,1.3l.31.74c-1.07,2.42-1,2.49-.79,2.7L3.4,16l.14.12h.15a8.63,8.63,0,0,0,2.41-.94l.77.31C7.86,18,8,18,8.25,18h1.92c.3,0,.4,0,1.32-2.46l.77-.31a12.51,12.51,0,0,0,2.44.89h.19l1.48-1.45c.21-.22.28-.29-.84-2.66l.31-.74c2.5-1,2.5-1.07,2.5-1.36V8C18.34,7.71,18.34,7.6,15.83,6.71ZM9.17,12.13A3.15,3.15,0,1,1,12.38,9a3.15,3.15,0,0,1-3.21,3.13Z"/></g></g></g></g></svg>