<svg xmlns="http://www.w3.org/2000/svg" viewBox="0 0 331 387.81"><defs><style>.cls-1{fill:#fff;}</style></defs><title>stopwatchWhite</title><g id="Layer_2" data-name="Layer 2"><g id="DESIGNED_BY_FREEPIK" data-name="DESIGNED BY FREEPIK"><g id="Layer_1-2" data-name="Layer 1-2"><path class="cls-1" d="M268.57,93l11.7-18.38A17.53,17.53,0,1,0,250.7,55.78L239,74.12a164.1,164.1,0,0,0-56-16.35V35h1.09a17.53,17.53,0,1,0,0-35H146.86a17.53,17.53,0,0,0,0,35.05H148V57.77C64.92,66.55,0,137,0,222.33c0,91.25,74.24,165.48,165.48,165.48S331,313.58,331,222.33A165.27,165.27,0,0,0,268.57,93ZM165.48,352.77c-71.92,0-130.43-58.52-130.43-130.44S93.56,91.89,165.48,91.89A130.58,130.58,0,0,1,295.92,222.33C295.92,294.25,237.41,352.77,165.48,352.77Z"/><path class="cls-1" d="M223.94,155.33A17.52,17.52,0,0,0,199.22,157l-46.94,53.8a17.52,17.52,0,0,0,26.41,23L225.62,180A17.51,17.51,0,0,0,223.94,155.33Z"/></g></g></g></svg>