<svg xmlns="http://www.w3.org/2000/svg" viewBox="0 0 3290.29 2810.49"><defs><style>.cls-1{fill:#ff6584;}.cls-2{fill:#e6e6e6;}.cls-3{fill:#ffb8b8;}.cls-4{fill:#2f2e41;}.cls-5{fill:#6c63ff;}.cls-6{opacity:0.2;isolation:isolate;}.cls-7{fill:#3f3d56;}.cls-8,.cls-9{fill:#fff;}.cls-9{font-size:221px;font-family:OpenSans, Open Sans;}.cls-10{font-size:264px;fill:#000;}</style></defs><g id="Layer_2" data-name="Layer 2"><g id="Layer_1-2" data-name="Layer 1"><ellipse class="cls-1" cx="318.51" cy="1070.97" rx="182.01" ry="198.87"/><path class="cls-2" d="M2248.09,2350.39a391.38,391.38,0,0,1-15.41,99.68c-.22.75-.44,1.48-.67,2.23h-57.53c.06-.67.13-1.42.19-2.23,3.83-48.19,25.95-341.45-.49-391.6C2176.49,2062.54,2252.55,2197.29,2248.09,2350.39Z"/><path class="cls-2" d="M2243.78,2450.07c-.48.75-1,1.5-1.5,2.23h-43.15c.32-.63.7-1.38,1.14-2.23,7.13-14.06,28.23-56.1,47.82-99.68,21-46.83,40.37-95.44,38.74-113C2287.33,2241.33,2301.9,2362.28,2243.78,2450.07Z"/><rect class="cls-2" x="749.33" y="2448.02" width="1654.27" height="5.91"/><path class="cls-3" d="M1808.22,2632.65l8-72.44,227-63.66-26.11-85.61c18.19-57,50.13-85,108.48-57.07L2226,2422c19.87,13.49,31.43,37.73,30.17,63.25h0c-1.25,25.63-15.24,48.45-36.45,59.47C2107.37,2602.92,1964.15,2625.19,1808.22,2632.65Z"/><path class="cls-4" d="M1822.28,2654.6l-70.32-11-65.76,14.66c-15.38,3.43-30.38-7.41-33.52-24.2a35.1,35.1,0,0,1-.55-4.92h0a32.25,32.25,0,0,1,11.29-26.08l103.06-84.84c18.26-15,43.81-13.34,60.27,4l25.67,27c-18.37,12.44-32,31.12-40.18,57.07Q1838.7,2622.21,1822.28,2654.6Z"/><ellipse class="cls-3" cx="1889.44" cy="1823.01" rx="65.03" ry="71.05"/><path class="cls-3" d="M1991,1963.13l-145.66,66.95c11.84-64.94,17.74-124.1,0-160.24l93.42-12.08C1934.17,1885.54,1957.8,1922.73,1991,1963.13Z"/><path class="cls-3" d="M1743.93,2630.46l-54.25-4.39c-33.23-151.41-50.24-294.53-42.81-425.14,2.18-39.62,32.63-70.28,69-69.42h0a64.73,64.73,0,0,1,45,20.31l70.15,72.94c31.28,32.27,55.56,71.78,71.07,115.63,19.87,56.85,12.74,88.72-34.69,83.31-29.63-3.61-56.89-19.45-76.2-44.27l-51.25-65.08Z"/><path class="cls-4" d="M1701.92,2810.38h0c-25.57-1.83-45-26-43.29-53.9a55.07,55.07,0,0,1,2.39-13.07l10.58-33.93,8-85.61c12.38-27.6,29.91-23.47,50.23-2.19,12.91-1.39,15.68-15.5,14.06-35.13l40.73,59.91a38.5,38.5,0,0,1,3.5,36.11l-41,98.24C1739.17,2800,1721.16,2811.75,1701.92,2810.38Z"/><path class="cls-4" d="M2215.05,2414.23c-74.34,46.1-97.64,47.44-171.78,80.13L1979,2454.84c-75.5,30.51-128.46-11.31-185.83-73.53,37.54-68.33,20.94-157.11,44.2-155.86l278.25,95.49,12.05,32.93Z"/><path class="cls-5" d="M2125.64,2342.89c-98.24,46.47-204-2.73-294.32-110.85l-59.78-263.82c-2.86-11.75,3.54-23.81,14.3-26.94.4-.11.81-.22,1.22-.31l69.37-15.16,34.16,59.27,68.3-65.85,72.55,25.91c19.65,7,34.16,25.3,37.75,47.55Z"/><path class="cls-6" d="M1969.59,2566.55h0c-18.31-7.63-27.5-30-20.52-50a39.59,39.59,0,0,1,6.09-11.27l45.92-59.19,32.15,19.76-16.55,73.73c-4.67,20.8-23.88,33.52-42.91,28.42A34.27,34.27,0,0,1,1969.59,2566.55Z"/><path class="cls-3" d="M1969.59,2557.76h0c-18.31-7.62-27.5-30-20.52-50a39.59,39.59,0,0,1,6.09-11.27l45.92-59.19,32.15,19.76-16.55,73.73c-4.67,20.8-23.88,33.52-42.91,28.42A32.7,32.7,0,0,1,1969.59,2557.76Z"/><path class="cls-5" d="M2041.26,2474.6l-48.21-35.12,70.31-204.15-26.11-287.57,23.82,16.27c25.84,17.65,43.93,46.1,50,78.71l38.63,205.76C2132.85,2343.34,2104.68,2426.79,2041.26,2474.6Z"/><polygon class="cls-6" points="2012.13 2148.62 2036.24 2280.33 2016.41 2357.36 2012.13 2148.62"/><path class="cls-4" d="M1825.84,1816.92s-37.47-134,77.06-105.9c17.76,4.36,33.11,15.64,45.32,30.4a10.59,10.59,0,0,0,8.63,3.85c18.29,0,29.59,71.43-7,102.85,0,0,7.47-42.27-6.1-56.68a31.41,31.41,0,0,1-6-8.49c-8.84-19.47-38.53-25.86-59-24.21-10.45.85-11.37,20.77-22.94,18C1829.43,1770.39,1821,1803.73,1825.84,1816.92Z"/><path class="cls-2" d="M1941.12,2015.81l-.76,6.07-4.68,37.43-7.66,61.31L1926.1,2136a4.63,4.63,0,0,1-4.44,4.23h-51.11a4.63,4.63,0,0,1-4.43-4.21l-1.95-15.37-7.8-61.31-4.76-37.46-.77-6a4.85,4.85,0,0,1,3.82-5.52,4.21,4.21,0,0,1,.62,0h81.4a4.7,4.7,0,0,1,4.48,4.89C1941.16,2015.37,1941.14,2015.59,1941.12,2015.81Z"/><path class="cls-7" d="M1860.67,1994h70.88a4.7,4.7,0,0,1,4.48,4.89h0v6.47a4.7,4.7,0,0,1-4.48,4.89h-70.88a4.7,4.7,0,0,1-4.48-4.89h0v-6.47a4.7,4.7,0,0,1,4.48-4.89Z"/><path class="cls-7" d="M1947.52,2018.38a434.45,434.45,0,0,1-102.82,0,4.69,4.69,0,0,1-4.47-4.89h0V2007a4.69,4.69,0,0,1,4.47-4.89,386.43,386.43,0,0,0,102.82,0A4.7,4.7,0,0,1,1952,2007v6.46A4.7,4.7,0,0,1,1947.52,2018.38Z"/><ellipse class="cls-8" cx="1894.04" cy="2072.33" rx="19.32" ry="21.11"/><path class="cls-3" d="M1943.7,2116.74h0c2,21.29-12.12,40.35-31.61,42.56a32.4,32.4,0,0,1-12-.86l-69.05-18.11,1.65-40.26,67.7-17.09c19.09-4.82,38.14,8.18,42.55,29A41.34,41.34,0,0,1,1943.7,2116.74Z"/><path class="cls-5" d="M1850.41,2147.52l-186.36,5.09c-25.56.7-46.8-21.37-47.44-49.29a56.37,56.37,0,0,1,.45-8.42h0a52.3,52.3,0,0,1,14.21-29.78l87.74-89.69a113.85,113.85,0,0,1,58.45-32.34l30.76-6.3,18.08,149.27-104.47-13.17,122.55,15.36Z"/><path class="cls-4" d="M1604.89,2585.54H1129.12c-8.81,0-15.95-7.8-15.95-17.43h0q258.69-32.85,507.67,0h0c0,9.63-7.14,17.43-15.95,17.43Z"/><path class="cls-7" d="M1620.84,2569.13l-507.67-1L1172,2459.94l.28-.52V2221c0-12.17,9-22,20.16-22h346.29c11.14,0,20.17,9.86,20.17,22h0v240Z"/><path class="cls-8" d="M1192,2214.37c-3.62,0-6.56,3.21-6.57,7.17v217.38c0,4,2.95,7.17,6.57,7.17h350c3.62,0,6.56-3.21,6.57-7.17V2221.54c0-4-2.95-7.17-6.57-7.17Z"/><path class="cls-4" d="M1194.29,2474.8a2.81,2.81,0,0,0-2.55,1.79l-18.13,43.07a3.19,3.19,0,0,0,1.38,4.08,2.68,2.68,0,0,0,1.17.28h381.26a3,3,0,0,0,2.82-3.08,3.22,3.22,0,0,0-.3-1.37l-19.7-43.07a2.82,2.82,0,0,0-2.52-1.7Z"/><ellipse class="cls-8" cx="1365.6" cy="2206.16" rx="4.22" ry="4.61"/><path class="cls-4" d="M1328.12,2532.22a2.87,2.87,0,0,0-2.71,2.28l-4.55,18.45a3.11,3.11,0,0,0,2,3.77,2.33,2.33,0,0,0,.74.11h86.48a3,3,0,0,0,2.82-3.07,3.1,3.1,0,0,0-.16-1l-5.84-18.46a2.86,2.86,0,0,0-2.66-2.07Z"/><polygon class="cls-4" points="1558.91 2455.83 1558.91 2459.94 1172.01 2459.94 1172.3 2459.42 1172.3 2455.83 1558.91 2455.83"/><path class="cls-2" d="M1008.08,2319a500.79,500.79,0,0,0,19.76,127.76c.27,1,.56,1.9.85,2.87h73.73c-.07-.86-.15-1.82-.23-2.87-4.92-61.76-33.26-437.64.63-501.92C1099.85,1950.1,1002.36,2122.81,1008.08,2319Z"/><path class="cls-2" d="M1013.61,2446.8c.62,1,1.26,1.92,1.91,2.86h55.32c-.42-.81-.9-1.77-1.47-2.86-9.14-18-36.18-71.9-61.29-127.76-27-60-51.74-122.32-49.65-144.87C957.78,2179.25,939.11,2334.29,1013.61,2446.8Z"/><path class="cls-7" d="M1138.37,1143.89l30-26.2c-23.29-2.81-32.86,11.07-36.78,22.06-18.19-8.26-38,2.56-38,2.56l60,23.79A49.44,49.44,0,0,0,1138.37,1143.89Z"/><path class="cls-7" d="M2041.3,1009l30-26.2c-23.29-2.81-32.86,11.07-36.78,22-18.19-8.25-38,2.57-38,2.57l60,23.79A49.39,49.39,0,0,0,2041.3,1009Z"/><path class="cls-7" d="M1868.67,1356.7l30-26.2c-23.29-2.8-32.86,11.07-36.78,22.06-18.19-8.26-38,2.56-38,2.56l60,23.8A49.52,49.52,0,0,0,1868.67,1356.7Z"/><ellipse class="cls-2" cx="593.88" cy="1277.93" rx="271.34" ry="601.99" transform="translate(-190.91 107.5) rotate(-8.92)"/><text/><path class="cls-7" d="M642.27,1443.24l59.61-144.63,16.8-40.76a8,8,0,0,0-2.41-10.06,6.47,6.47,0,0,0-9.2,2.64l-59.62,144.63-16.8,40.76a8,8,0,0,0,2.41,10.06,6.48,6.48,0,0,0,9.21-2.64Z"/><path class="cls-7" d="M655.44,1542.06l-135.93-55.68-38.31-15.7c-3.58-1-7.26,1.24-8.28,5.14a7.63,7.63,0,0,0,4.7,9l135.93,55.68,38.31,15.7c3.58,1,7.27-1.24,8.28-5.14a7.63,7.63,0,0,0-4.7-9Z"/><path class="cls-2" d="M549.59,2330.9s163.71-58.81,316.21,0"/><path class="cls-5" d="M1282.12,2303c32.44-.37,64.88-1,97.32-1.49q16.21-.24,32.44-.42c9.32-.11,9.34-15.94,0-15.83-32.44.37-64.88,1-97.32,1.48q-16.21.24-32.44.42C1272.8,2287.31,1272.78,2303.14,1282.12,2303Z"/><path class="cls-5" d="M1282.12,2340l131.11-1.49,37.29-.42c9.32-.1,9.34-15.94,0-15.83l-131.11,1.48-37.29.43C1272.8,2324.25,1272.78,2340.08,1282.12,2340Z"/><path class="cls-5" d="M1282.12,2376.92l131.11-1.48,37.29-.43c9.32-.1,9.34-15.93,0-15.83l-131.11,1.49-37.29.42C1272.8,2361.19,1272.78,2377,1282.12,2376.92Z"/><text/><text/><text class="cls-9" transform="translate(0 431.1)">OH NO.. No tutors in this major.<tspan x="966.04" y="316.8">Request one</tspan><tspan class="cls-10" x="2255.67" y="316.8"> </tspan></text></g></g></svg>