<svg xmlns="http://www.w3.org/2000/svg" viewBox="0 0 92 92"><defs><style>.cls-1,.cls-2{fill:none;}.cls-1,.cls-3{fill-rule:evenodd;}.cls-2{stroke:#000;stroke-miterlimit:10;stroke-width:4px;}</style></defs><title>twitter</title><g id="Layer_2" data-name="Layer 2"><g id="Layer_1-2" data-name="Layer 1"><path class="cls-1" d="M46,90A44,44,0,1,0,2,46,44,44,0,0,0,46,90Z"/><path class="cls-2" d="M46,90A44,44,0,1,0,2,46,44,44,0,0,0,46,90Z"/><path class="cls-3" d="M63.05,35.69a9,9,0,0,0,3.79-5,16.86,16.86,0,0,1-5.47,2.2A8.39,8.39,0,0,0,55.08,30a8.86,8.86,0,0,0-8.62,9.09,10.1,10.1,0,0,0,.22,2.07,24.09,24.09,0,0,1-17.76-9.5,9.48,9.48,0,0,0-1.16,4.57,9.24,9.24,0,0,0,3.83,7.57,8.28,8.28,0,0,1-3.9-1.14v.11a9,9,0,0,0,6.91,8.91,8.24,8.24,0,0,1-3.89.16,8.69,8.69,0,0,0,8,6.31A16.73,16.73,0,0,1,28.06,62,17.41,17.41,0,0,1,26,61.92,23.53,23.53,0,0,0,39.21,66c15.85,0,24.51-13.85,24.51-25.86,0-.39,0-.79,0-1.17A18.09,18.09,0,0,0,68,34.26a16.7,16.7,0,0,1-5,1.43Z"/></g></g></svg>