<svg xmlns="http://www.w3.org/2000/svg" viewBox="0 0 85.48 102.05"><defs><style>.cls-1{fill:#343a40;}</style></defs><title>univ_icon_dark</title><g id="Layer_2" data-name="Layer 2"><g id="Layer_1-2" data-name="Layer 1"><g id="Layer_1-2-2" data-name="Layer 1-2"><path class="cls-1" d="M24.18,75.69a3.31,3.31,0,0,0,3.14-3.3V31.22a3.31,3.31,0,0,0-3.14-3.3h-9.3a3.31,3.31,0,0,0-3.14,3.3V72.59a3.31,3.31,0,0,0,3.14,3.3Z"/><path class="cls-1" d="M47.41,75.69a3.31,3.31,0,0,0,3.1-3.3V31.22a3.3,3.3,0,0,0-3.1-3.3H38.07a3.29,3.29,0,0,0-3.13,3.3V72.59a3.29,3.29,0,0,0,3.13,3.3Z"/><path class="cls-1" d="M70.6,75.69a3.3,3.3,0,0,0,3.3-3.3V31.22a3.3,3.3,0,0,0-3.3-3.3H61.26a3.3,3.3,0,0,0-3.1,3.3V72.59a3.31,3.31,0,0,0,3.1,3.3Z"/><path class="cls-1" d="M8.54,22.34H76.9a1.55,1.55,0,0,0,.76-2.9L43.71.27a1.88,1.88,0,0,0-1.94,0l-34,19.17a1.58,1.58,0,0,0-.73,1.75A1.51,1.51,0,0,0,8.54,22.34Z"/><path class="cls-1" d="M7.49,83.67A4.29,4.29,0,0,0,11.74,88h62a4.29,4.29,0,0,0,0-8.54h-62a4.25,4.25,0,0,0-4.25,4.25Z"/><path class="cls-1" d="M80.36,91.82H5.11a5.12,5.12,0,0,0,0,10.23H80.36a5.12,5.12,0,1,0,0-10.23Z"/></g></g></g></svg>