<svg xmlns="http://www.w3.org/2000/svg" viewBox="0 0 25.91 30.93"><title>univ_icon</title><g id="Layer_2" data-name="Layer 2"><g id="Layer_1-2" data-name="Layer 1"><path d="M7.33,22.94a1,1,0,0,0,.95-1V9.46a1,1,0,0,0-.95-1H4.51a1,1,0,0,0-.95,1V22a1,1,0,0,0,.95,1Z"/><path d="M14.37,22.94a1,1,0,0,0,.94-1V9.46a1,1,0,0,0-.94-1H11.54a1,1,0,0,0-.95,1V22a1,1,0,0,0,.95,1Z"/><path d="M21.4,22.94a1,1,0,0,0,1-1V9.46a1,1,0,0,0-1-1H18.57a1,1,0,0,0-.94,1V22a1,1,0,0,0,.94,1Z"/><path d="M2.59,6.77H23.31a.47.47,0,0,0,.23-.88L13.25.08a.57.57,0,0,0-.59,0L2.36,5.89a.48.48,0,0,0-.22.53A.46.46,0,0,0,2.59,6.77Z"/><path d="M2.27,25.36a1.3,1.3,0,0,0,1.29,1.3H22.35a1.3,1.3,0,0,0,0-2.59H3.56A1.29,1.29,0,0,0,2.27,25.36Z"/><path d="M24.36,27.83H1.55a1.55,1.55,0,0,0,0,3.1H24.36a1.55,1.55,0,0,0,0-3.1Z"/></g></g></svg>