<svg xmlns="http://www.w3.org/2000/svg" viewBox="0 0 412 382.24"><defs><style>.cls-1{fill:#1dbab4;}</style></defs><title>user2</title><g id="Layer_2" data-name="Layer 2"><g id="Layer_1-2" data-name="Layer 1"><path class="cls-1" d="M404.43,327.33C399,311,389.13,294.54,374.59,285c-28-18.57-60.58-28.48-92.1-39.08-7.61-2.67-15.33-5.57-22.28-9.7-6.2-3.69-8.53-11.25-10-17.89A87,87,0,0,1,249,207.63c22.85-31.27,38-82.29,38-124.13C287,18.2,250.13,0,204.62,0s-82.4,18.17-82.4,83.47c0,43.34,16.26,96.5,40.49,127.38-.22,2.44-.51,4.88-1,7.3-1.44,6.64-3.77,14.06-10,17.75-7,4.13-14.68,6.75-22.29,9.42C98,255.92,65.38,265.27,37.41,283.85,22.86,293.43,13,311,7.57,327.33,2,344.26-.31,365.24,0,382.24H412C412.31,365.24,410,344.26,404.43,327.33Z"/></g></g></svg>